<?xml version="1.0" encoding="UTF-8"?>
<svg width="20px" height="20px" viewBox="0 0 20 20" version="1.1" xmlns="http://www.w3.org/2000/svg" xmlns:xlink="http://www.w3.org/1999/xlink">
    <title>3. icons/fill/icon-fill-star-white</title>
    <defs>
        <path d="M4.36126898,19.7152941 L9.9965631,16.6764706 L15.6377396,19.7091176 C15.8091925,19.7704027 15.997974,19.7453403 16.1495043,19.6411765 C16.290745,19.5220103 16.3658188,19.336534 16.3495043,19.1470588 L15.3377396,12.6679412 L19.8671513,8.10352941 C19.9859194,7.95433144 20.0256674,7.75261001 19.9730337,7.56617647 C19.9053144,7.38024428 19.7564,7.23998 19.5730337,7.18941176 L13.3024454,6.13323529 L10.4553866,0.265588235 C10.3505098,0.106482212 10.1806818,0.00817794718 9.9965631,0 C9.80607839,0.00712109047 9.63068713,0.110711552 9.52597486,0.277941176 L6.69068074,6.12705882 L0.414210154,7.07823529 C0.234359687,7.1292636 0.0881624863,7.26673261 0.0200925074,7.44882353 C-0.0288180023,7.6402741 0.0127535381,7.84474044 0.131857213,7.99852941 L4.6083278,12.6555882 L3.5965631,19.1470588 C3.58549785,19.3393911 3.67007897,19.5240227 3.82009251,19.635 C3.97391519,19.7612442 4.18015518,19.7918439 4.36126898,19.7152941 L4.36126898,19.7152941 Z" id="path-1"></path>
    </defs>
    <g id="Yanbal-UI-Visual-Kit" stroke="none" stroke-width="1" fill="none" fill-rule="evenodd">
        <g id="yanbal-styleguide-pag2" transform="translate(-242.000000, -4994.000000)">
            <g id="Group" transform="translate(240.000000, 4992.000000)">
                <g id="elements" transform="translate(2.000000, 2.000000)">
                    <mask id="mask-2" fill="white">
                        <use xlink:href="#path-1"></use>
                    </mask>
                    <use id="Mask" fill="#000000" fill-rule="nonzero" xlink:href="#path-1"></use>
                    <g id="Group" mask="url(#mask-2)">
                        <g transform="translate(-1.428571, -2.250000)" id="colors/brand-secondary">
                            <rect id="box" fill="#FFFFFF" fill-rule="nonzero" x="0" y="0" width="22.8571429" height="24"></rect>
                        </g>
                    </g>
                </g>
            </g>
        </g>
    </g>
</svg>