<?xml version="1.0" encoding="UTF-8"?>
<svg width="18px" height="18px" viewBox="0 0 18 18" version="1.1" xmlns="http://www.w3.org/2000/svg" xmlns:xlink="http://www.w3.org/1999/xlink">
    <title>3. icons/fill/icon-fill-travel</title>
    <defs>
        <path d="M16.5850427,0.75 C15.3505222,0.755841914 14.189245,1.23647213 13.3124488,2.10585519 L11.8778363,3.56898917 L5.71478735,2.77395775 C5.57360831,2.75643201 5.43083702,2.74687251 5.28806574,2.74687251 C4.58323203,2.74687251 3.90865098,2.96514767 3.3359736,3.37886142 L1.82971001,4.45218039 C1.71453763,4.54087127 1.63970213,4.66992447 1.62112594,4.81491016 C1.602019,4.9583026 1.63970213,5.10275721 1.72780634,5.21747116 C1.77928892,5.28332547 1.84404021,5.33749594 1.91675272,5.37414068 L7.47846385,8.05557932 L5.24348288,10.6297392 L2.58443405,10.6297392 C2.19061883,10.6318635 1.82068729,10.7864087 1.54098295,11.063103 L0.414204368,12.200683 C0.278332811,12.3292051 0.22048125,12.5230505 0.264533356,12.7073363 C0.309646959,12.8847181 0.441803279,13.0265173 0.617480956,13.082281 L4.59119326,14.4184861 L5.896834,18.3947054 C5.95415482,18.5704939 6.0958646,18.7022025 6.29011847,18.75 L6.4355435,18.75 C6.57884553,18.75 6.71100185,18.692643 6.80653654,18.5896129 L7.94446083,17.4599991 C8.22098068,17.1822426 8.37489768,16.8115466 8.37755142,16.4158897 L8.37755142,13.7652539 L10.9490268,11.554886 L13.6282441,17.1216992 C13.7099793,17.2948323 13.8798187,17.4095462 14.0682344,17.4233544 C14.0857491,17.4254787 14.1032638,17.4254787 14.1207785,17.4254787 C14.2884949,17.4254787 14.4503731,17.3447541 14.5512153,17.2082657 L15.6238576,15.7031762 C16.1211687,15.011706 16.3366525,14.1662216 16.2278491,13.3223306 L15.4327882,7.12618387 L16.8674008,5.69066621 C17.7468506,4.81809666 18.2377928,3.65502464 18.25,2.41653881 C18.25,1.49829611 17.5037679,0.75 16.5850427,0.75 Z" id="path-1"></path>
    </defs>
    <g id="Yanbal-UI-Visual-Kit" stroke="none" stroke-width="1" fill="none" fill-rule="evenodd">
        <g id="yanbal-styleguide-pag2" transform="translate(-147.000000, -4939.000000)">
            <g id="Group" transform="translate(144.000000, 4936.000000)">
                <g id="elements" transform="translate(2.750000, 2.250000)">
                    <mask id="mask-2" fill="white">
                        <use xlink:href="#path-1"></use>
                    </mask>
                    <use id="avion" fill="#141924" xlink:href="#path-1"></use>
                    <g id="Group" mask="url(#mask-2)">
                        <g transform="translate(-2.750000, -2.250000)" id="color">
                            <rect id="box" fill="#1C1F28" fill-rule="nonzero" x="0" y="0" width="24" height="24"></rect>
                        </g>
                    </g>
                </g>
            </g>
        </g>
    </g>
</svg>