<?xml version="1.0" encoding="UTF-8"?>
<svg width="20px" height="18px" viewBox="0 0 20 18" version="1.1" xmlns="http://www.w3.org/2000/svg" xmlns:xlink="http://www.w3.org/1999/xlink">
    <title>3. icons/fill/icon-fill-wishlist</title>
    <defs>
        <path d="M20.0625,8.33388704 C20.0625,8.27408638 20.0625,8.27408638 20.0625,8.27408638 C20.1875,7.91528239 20.25,7.55647841 20.25,7.25747508 L20.25,7.19767442 C20.25,7.13787375 20.25,7.07807309 20.25,7.07807309 L20.25,7.01827243 C20.25,6.95847176 20.25,6.8986711 20.25,6.77906977 C20.25,6.53986711 20.25,6.24086379 20.1875,6.00166113 C20,3.60963455 18.6875,1.69601329 16.75,0.858803987 C16.625,0.799003322 16.5,0.739202658 16.3125,0.739202658 C15.9375,0.559800664 15.5,0.5 15.0625,0.5 C13.5625,0.5 11.875,1.21760797 10.375,2.53322259 L10.25,2.65282392 L10.125,2.53322259 C8.625,1.21760797 6.9375,0.5 5.4375,0.5 C5,0.5 4.5625,0.559800664 4.125,0.679401993 C4,0.739202658 3.8125,0.799003322 3.6875,0.858803987 C1.75,1.63621262 0.5,3.54983389 0.25,6.00166113 C0.25,6.18106312 0.25,6.48006645 0.25,6.7192691 C0.25,6.77906977 0.25,6.83887043 0.25,6.95847176 L0.25,7.25747508 C0.3125,7.61627907 0.375,7.97508306 0.4375,8.33388704 L0.4375,8.39368771 C0.6875,9.29069767 1.0625,10.127907 1.5,10.9651163 C2.3125,12.3405316 3.3125,13.5963455 4.4375,14.7325581 C6.5625,16.8255814 9.125,18.5 10.25,18.5 L10.25,18.5 C11.375,18.5 13.875,16.8255814 16,14.6727575 C17.125,13.5365449 18.125,12.2807309 19,10.9053156 C19.4375,10.0681063 19.8125,9.23089701 20.0625,8.33388704 Z" id="path-1"></path>
    </defs>
    <g id="Yanbal-UI-Visual-Kit" stroke="none" stroke-width="1" fill="none" fill-rule="evenodd">
        <g id="yanbal-styleguide-pag2" transform="translate(-194.000000, -4939.000000)">
            <g id="Group" transform="translate(192.000000, 4936.000000)">
                <g id="elements" transform="translate(1.750000, 2.500000)">
                    <mask id="mask-2" fill="white">
                        <use xlink:href="#path-1"></use>
                    </mask>
                    <use id="Mask" fill="#000000" fill-rule="nonzero" xlink:href="#path-1"></use>
                    <g id="Group" mask="url(#mask-2)">
                        <g transform="translate(-1.750000, -2.500000)" id="color">
                            <rect id="box" fill="#1C1F28" fill-rule="nonzero" x="0" y="0" width="24" height="24"></rect>
                        </g>
                    </g>
                </g>
            </g>
        </g>
    </g>
</svg>