<?xml version="1.0" encoding="UTF-8"?>
<svg width="13px" height="20px" viewBox="0 0 13 20" version="1.1" xmlns="http://www.w3.org/2000/svg" xmlns:xlink="http://www.w3.org/1999/xlink">
    <title>3. icons/fill/icon-fill-fingers</title>
    <defs>
        <path d="M2.44114722,20 L9.61150143,20 L9.61150143,18.9011514 C9.61150143,18.9011514 11.8708285,15.1176624 11.9315942,14.9909399 C11.9315942,14.9909399 12.3957286,14.0575346 12.3500096,12.9633794 C12.3268607,12.4160084 12.166555,11.8070362 11.7336716,11.2942793 C11.3818092,10.877151 10.8638539,10.5403976 10.1566567,10.3274333 L12.6827742,3.25150525 C13.1422788,2.09046871 13.2684399,0.933538923 11.9015008,0.328673501 C10.2070054,-0.175283238 9.91070023,1.01860729 9.34876206,2.19255075 L7.05529041,7.96898621 L5.55408792,1.54309777 C5.55177304,1.53195088 5.54830071,1.51963064 5.54482839,1.50789707 C5.2763018,0.494116808 4.50428788,-0.131869037 3.55865763,0.0236007368 C2.38559,0.342167104 1.97643419,1.44394912 2.22933531,2.40082158 C2.59798063,4.23125817 2.97357062,6.06814821 3.34626699,7.90034483 C3.00540028,7.71260775 2.63501878,7.6134591 2.27331811,7.60583228 C1.53429129,7.60583228 1.04469325,7.78242248 0.474074263,8.44184899 C-1.29102504,10.4782097 2.44114722,20 2.44114722,20" id="path-1"></path>
    </defs>
    <g id="Yanbal-UI-Visual-Kit" stroke="none" stroke-width="1" fill="none" fill-rule="evenodd">
        <g id="yanbal-styleguide-pag2" transform="translate(-638.000000, -4938.000000)">
            <g id="Group" transform="translate(632.000000, 4936.000000)">
                <g id="elements" transform="translate(6.000000, 2.000000)">
                    <mask id="mask-2" fill="white">
                        <use xlink:href="#path-1"></use>
                    </mask>
                    <use id="icon1" fill="#1C1F28" xlink:href="#path-1"></use>
                    <g id="Group" mask="url(#mask-2)">
                        <g transform="translate(-6.000000, -2.000000)" id="color">
                            <rect id="box" fill="#1C1F28" fill-rule="nonzero" x="0" y="0" width="24" height="24"></rect>
                        </g>
                    </g>
                </g>
            </g>
        </g>
    </g>
</svg>