<?xml version="1.0" encoding="UTF-8"?>
<svg width="20px" height="20px" viewBox="0 0 20 20" version="1.1" xmlns="http://www.w3.org/2000/svg" xmlns:xlink="http://www.w3.org/1999/xlink">
    <title>3. icons/fill/icon-fill-couch-orange</title>
    <defs>
        <path d="M17.9747653,8.68058761 C19.0915493,8.68058761 20,9.59133817 20,10.7102267 C20,11.5615933 19.4571596,12.3265297 18.6496479,12.6146302 L18.6496479,12.6146302 L18.5498826,12.6499078 L18.5498826,20 L1.45011737,20 L1.45011737,12.6499078 L1.35035211,12.6146302 C0.542840376,12.3265297 0,11.5615933 0,10.7102267 C0,9.59133817 0.908450704,8.68058761 2.02523474,8.68058761 C3.14201878,8.68058761 4.05105634,9.59133817 4.05105634,10.7102267 L4.05105634,10.7102267 L4.05105634,17.3970996 L15.9489437,17.3970996 L15.9489437,10.7102267 C15.9489437,9.59133817 16.8579812,8.68058761 17.9747653,8.68058761 Z M14.9254108,13.3210058 L14.9254108,16.371344 L5.07505869,16.371344 L5.07505869,13.3210058 L14.9254108,13.3210058 Z M15.0748239,0 C16.5912559,0 17.8254108,1.23648059 17.8254108,2.75635806 L17.8254108,2.75635806 L17.8254108,7.65877134 C16.2127347,7.73697006 14.9251761,9.07575575 14.9251761,10.7102855 L14.9251761,10.7102855 L14.9251761,12.2948386 L5.07482394,12.2948386 L5.07482394,10.7102855 C5.07482394,9.07575575 3.78726526,7.73697006 2.17517606,7.65877134 L2.17517606,7.65877134 L2.17517606,2.75635806 C2.17517606,1.23648059 3.40874413,0 4.92517606,0 L4.92517606,0 Z" id="path-1"></path>
    </defs>
    <g id="Yanbal-UI-Visual-Kit" stroke="none" stroke-width="1" fill="none" fill-rule="evenodd">
        <g id="yanbal-styleguide-pag2" transform="translate(-730.000000, -5050.000000)">
            <g id="Group" transform="translate(728.000000, 5048.000000)">
                <g id="elements" transform="translate(2.000000, 2.000000)">
                    <mask id="mask-2" fill="white">
                        <use xlink:href="#path-1"></use>
                    </mask>
                    <use id="icon3" fill="#1C1F28" xlink:href="#path-1"></use>
                    <g id="Group" mask="url(#mask-2)">
                        <g transform="translate(-2.000000, -2.000000)" id="color/primary">
                            <rect id="box" fill="#DC582A" fill-rule="nonzero" x="0" y="0" width="24" height="24"></rect>
                        </g>
                    </g>
                </g>
            </g>
        </g>
    </g>
</svg>