<?xml version="1.0" encoding="UTF-8"?>
<svg width="20px" height="20px" viewBox="0 0 20 20" version="1.1" xmlns="http://www.w3.org/2000/svg" xmlns:xlink="http://www.w3.org/1999/xlink">
    <title>3. icons/fill/icon-fill-smile-white</title>
    <defs>
        <path d="M9.99851151,16.0681115 C7.58238814,16.0681115 5.30975559,14.8273398 3.91890685,12.7488688 L4.90845762,12.086211 C6.07841386,13.8336509 7.98070912,14.8773518 9.99851151,14.8773518 C12.0175047,14.8773518 13.9209907,13.8330555 15.0915424,12.0844249 L16.0810931,12.7470826 C14.689649,14.8261491 12.4158257,16.0681115 9.99851151,16.0681115 M6.04626239,5.58168612 C6.81730225,5.58168612 7.44187431,6.20623958 7.44187431,6.97666111 C7.44187431,7.74708264 6.81730225,8.37223148 6.04626239,8.37223148 C5.27581793,8.37223148 4.65124587,7.74708264 4.65124587,6.97666111 C4.65124587,6.20623958 5.27581793,5.58168612 6.04626239,5.58168612 M13.9537376,5.58168612 C14.7241821,5.58168612 15.3487541,6.20623958 15.3487541,6.97666111 C15.3487541,7.74708264 14.7241821,8.37223148 13.9537376,8.37223148 C13.1832931,8.37223148 12.5581257,7.74708264 12.5581257,6.97666111 C12.5581257,6.20623958 13.1832931,5.58168612 13.9537376,5.58168612 M9.9997023,0 C4.47738978,0 0,4.47725649 0,10 C0,15.5227435 4.47738978,20 9.9997023,20 C15.5232056,20 20,15.5227435 20,10 C20,4.47725649 15.5232056,0 9.9997023,0" id="path-1"></path>
    </defs>
    <g id="Yanbal-UI-Visual-Kit" stroke="none" stroke-width="1" fill="none" fill-rule="evenodd">
        <g id="yanbal-styleguide-pag2" transform="translate(-970.000000, -4994.000000)">
            <g id="Group" transform="translate(968.000000, 4992.000000)">
                <g id="elements" transform="translate(2.000000, 2.000000)">
                    <mask id="mask-2" fill="white">
                        <use xlink:href="#path-1"></use>
                    </mask>
                    <use id="smile" fill="#1C1F28" xlink:href="#path-1"></use>
                    <g id="Group" mask="url(#mask-2)">
                        <g transform="translate(-2.000000, -2.000000)" id="color/primary">
                            <rect id="box" fill="#FFFFFF" fill-rule="nonzero" x="0" y="0" width="24" height="24"></rect>
                        </g>
                    </g>
                </g>
            </g>
        </g>
    </g>
</svg>