<svg id="Layer_1" data-name="Layer 1" xmlns="http://www.w3.org/2000/svg" viewBox="0 0 637.45 212.39"><defs><style>.cls-1{fill:#ff6b00;}</style></defs><title>unique-es-yanbal</title><path class="cls-1" d="M166.31,331.3h0L177.58,320h0l25.49-25.48A97.46,97.46,0,0,0,156.51,320H88.14a6.59,6.59,0,0,0-6.59,6.59v82.85a6.6,6.6,0,0,0,6.59,6.6H171a6.6,6.6,0,0,0,6.59-6.6V341.14l-11.26,11.27v52.4H92.81V331.3h53.81a97.65,97.65,0,0,0-17.06,36.76Z" transform="translate(-81.55 -294.56)"/><polygon class="cls-1" points="307.58 47.78 307.58 107.94 271.52 47.75 259.28 47.75 259.28 121.46 268.72 121.46 268.72 61.28 304.77 121.47 317.02 121.47 317.02 47.78 307.58 47.78"/><path class="cls-1" d="M296.63,342.26v48.57a18,18,0,0,1-35.93,0V342.26h-9.44v48.57a27.41,27.41,0,0,0,54.81,0V342.26Z" transform="translate(-81.55 -294.56)"/><path class="cls-1" d="M634.43,342.26v48.57a18,18,0,0,1-35.94,0V342.26h-9.44v48.57a27.41,27.41,0,0,0,54.82,0V342.26Z" transform="translate(-81.55 -294.56)"/><rect class="cls-1" x="355.45" y="47.7" width="9.43" height="73.79"/><polygon class="cls-1" points="637.36 57.11 637.36 47.69 597.13 47.69 597.13 121.4 637.36 121.4 637.36 111.96 606.57 111.96 606.57 88.33 636.24 88.33 636.24 78.89 606.57 78.89 606.57 57.11 637.36 57.11"/><path class="cls-1" d="M545,407.52a39.39,39.39,0,1,0-8.36,6l16.23,9.57,4.78-8.12Zm-26.86-58a29.63,29.63,0,1,1-29.63,29.63A29.66,29.66,0,0,1,518.14,349.54Z" transform="translate(-81.55 -294.56)"/><path class="cls-1" d="M610.5,471.43a12.75,12.75,0,0,0-9.26-21.55h-15.5v47.84h17.35A14.24,14.24,0,0,0,617.3,483.5,13.94,13.94,0,0,0,610.5,471.43Zm-18.7,4h11.29a8.12,8.12,0,1,1,0,16.24H591.8Zm9.45-6H591.8V455.94h9.45a6.72,6.72,0,0,1,0,13.44Z" transform="translate(-81.55 -294.56)"/><polygon class="cls-1" points="617.93 197.1 617.93 155.33 611.88 155.33 611.88 203.16 637.45 203.16 637.45 197.1 617.93 197.1"/><polygon class="cls-1" points="472.32 155.34 472.32 194.54 448.83 155.33 440.94 155.33 440.94 203.15 446.99 203.15 446.99 163.94 470.49 203.16 478.38 203.16 478.38 155.34 472.32 155.34"/><polygon class="cls-1" points="403.63 156.33 403.24 155.31 396.56 155.31 377.88 203.17 384.39 203.17 399.89 163.45 415.4 203.17 421.91 203.17 403.63 156.33"/><polygon class="cls-1" points="362.93 155.33 348.3 176.37 333.7 155.33 326.32 155.33 345.26 182.61 345.28 203.16 351.32 203.16 351.34 182.61 370.29 155.33 362.93 155.33"/><polygon class="cls-1" points="575.04 156.32 574.64 155.31 567.97 155.31 549.3 203.16 555.8 203.16 571.31 163.44 586.44 202.18 586.85 203.16 593.32 203.16 575.04 156.32"/><path class="cls-1" d="M368,477.4c0,.24.36.24.24.36l-.48.72c-.12,0-.72-.24-.84-.24l.24.47-.47.24-.6-.12.36.24a.53.53,0,0,1-.36.12l-.24.48-.24.36c.24,0,.72-.48,1-.72a.64.64,0,0,1,.59-.24c.24-.12.48-.59.72-.59,0,0,.12,0,.12.11l.12.24H368l.24.24-.48.36v.12l-.24.6s-.6.12-.72.35-.83.24-.83.36.12.24.36.48v.12c-.36.12-.6.12-.72.36l-.12.12a.37.37,0,0,1-.24.12c-.24,0-.59,0-1.43,1.19-.24.24-1.08.24-1.43.48l-.12.12a.12.12,0,0,0,.12.12c0,.12.12.12.24.24a.11.11,0,0,0,.11-.12h.36s.12-.12.12,0-.48.24-.71.48c-.12,0-.12.12-.24.12l-.36.35v.12a4.94,4.94,0,0,1-1,.36v.12a2.44,2.44,0,0,1-1,1,3,3,0,0,0-1,.59c0,.12,0,.12-.12.12h-.12c-.23,0-.47.36-.71.36s-.12.24-.36.24c-.24.24-.24.48-.6.48a6,6,0,0,1-1.91,1.07c-.24.12-.36.24-.6.24v.36c-.12.24-.12.24-.23.24h-.24c-.48.36-5.38,1.91-5.62,2h-.47a1.21,1.21,0,0,0-.36.12,20.54,20.54,0,0,1-4.06.71c-.48,0-4.06-1-4.3-1.55-.48-.24-.24-.71-1.55-.95,0,0-.48-1.2-.72-1.2s-.36,0-.6-.24-.24-.24-.24-.36a3.11,3.11,0,0,1-1.07-2c-.36-.11-.6-.23-.6-.47s-.12-.72-.12-1v-.24c0-.12.12-.24.12-.36a1.46,1.46,0,0,1-.12-.71c0-.12,0-.36.12-.36a.72.72,0,0,0,.12-.48,1.24,1.24,0,0,0-.12-.48l.36-.71h.24l-.24-.12a.12.12,0,0,1-.12-.12H335s0-.12.24-.12c0-.24,0-.36.12-.48v-.12c0-.12-.12-.12-.12-.24a.12.12,0,0,0,.12-.12v-.47a.62.62,0,0,1,.24-.48,1,1,0,0,1,.24-.72.81.81,0,0,0,.47-.59v-.12c.24-.6.24-.6.48-.84v-.24c0-.12-.12-.12-.12-.24a.12.12,0,0,0,.12-.12.93.93,0,0,0,.12-.36c.12-.12.24-.23.24-.35.36-.36.36-1.08.72-1.56a.82.82,0,0,1,.47-.59c0-.24,0-.36.24-.48v-.36c.12-.12.24-.12.24-.36a.44.44,0,0,0,.12-.36c.12-.12.12-.12.12-.23s0-.36.24-.36.12-.12.36-.24l.35-1.08v-.24a.12.12,0,0,1,.12-.12.37.37,0,0,0,.36-.35.44.44,0,0,1,.48-.48,2,2,0,0,0,.24-.6v-.24a.43.43,0,0,1,.36-.47,1.69,1.69,0,0,0,.48-.48v-.24a1.17,1.17,0,0,0,.11-.6l.12-.12a.26.26,0,0,0,.24-.24l.6-.59h.12v-.24c0-.12.12-.12.24-.24s.24-.12.24-.24v-.48a.89.89,0,0,1,.59-.24h.24c.24,0,.24-.12.24-.24a.42.42,0,0,1,.24-.35l.36-.24v-.36c0-.12.12-.36.24-.36a2.79,2.79,0,0,0,1.19-.36,5,5,0,0,1,1.55-.83c.24,0,.24-.12.24-.12.36-.12.48-.24.48-.6a1.73,1.73,0,0,0,.84-.24c.12-.36.24-.36.59-.36s.24-.12.24-.24v-.24a.12.12,0,0,1,.12.13s.12,0,.12.11a6.88,6.88,0,0,0,1.43.48,7.18,7.18,0,0,1,1.44.24.24.24,0,0,1,.24.24c.24,0,.36,0,.47.24.36,0,.36,0,.48.12l.48.48a.65.65,0,0,0,.48.23c.12.12.48.24.59.48s0,.6.36.72c.12,0,.12,0,.48.24v.12c0,.12.12.12.12.24a.38.38,0,0,0,.12.23v.36a.72.72,0,0,0,.12.48v.12a.53.53,0,0,1,.12.36v.12c0,.12-.12.12-.12.24v.47a.42.42,0,0,0-.12.24V467a.26.26,0,0,1,.24.24c-.12.12-.24.12-.24.24s-.12.24-.48.48v.12l-.24.71a.42.42,0,0,0-.24.12v.36c0,.12-.12.24-.12.36s-.23.12-.23.24c-.24.12-.24.12-.24.24s-.12.23-.24.35l-.24.48c0,.12,0,.12-.12.24a.12.12,0,0,1-.12.12,2.73,2.73,0,0,0-.95,1.43,1.43,1.43,0,0,1-1,1.08l-.72.95a5.51,5.51,0,0,0-.83.84h-.24c-.12,0-.24.12-.24.36s0,.12-.12.12a19.29,19.29,0,0,1-1.67,1.43c-.24.12-.36.24-.36.48h-.12a9.84,9.84,0,0,1-1.19.71V479a.64.64,0,0,1-.48.36.92.92,0,0,1-.6.24,1.81,1.81,0,0,1-1.07.48c-.12.24-.48.24-.84.36h-.72c0,.11-.11,0-.24.24a.93.93,0,0,1-.35.11h-.48c0-.11-.12-.11-.24-.11s-.24-.13-.24-.13l-.12.13c-.24.23-.48.47-.48.71v.48c-.11,0-.11.12-.11.24s-.12.24-.12.36c-.36.23-.36.35-.36.59l-.24.24v.48c0,.24.12.36.12.48s-.12.36-.12.48,0,.47-.24.47v2.15a1.52,1.52,0,0,0,.12.72l-.12.12c.12.24.24.36.24.6v.11c0,.12.12.12.12.24s.6.48.71.48a2.61,2.61,0,0,0,1.08.84,5.2,5.2,0,0,1,.6.12h.36a7.24,7.24,0,0,0,1.55-.6l.12-.12h.59c.12,0,.36-.12.48-.12H347a.12.12,0,0,1,.12-.12,1.21,1.21,0,0,0,.36.12v-.12c0-.12,0-.12.12-.12h.24a.44.44,0,0,0,.36-.12h.11c.24-.12.36-.24.48-.24H349a2.23,2.23,0,0,0,1.08-.47,4.07,4.07,0,0,0,1.19-.48l.24-.12a1.17,1.17,0,0,0,.83-.48h.24l1.44-.83c.12-.24.36-.48.47-.48a2.16,2.16,0,0,0,1.08-.72l.24-.12c.24,0,.71-.36.83-.36a10.81,10.81,0,0,1,1.44-1,.83.83,0,0,1,.48-.36c.11,0,.11-.24.35-.36s.24-.36.48-.48a.53.53,0,0,0,.36-.12c0-.35.24-.35.48-.47s.71-.36.71-.6v-.12h.36l.12-.12.48-.48,1.79-1.07c.12,0,.36,0,.36-.12.24-.12.24-.24.36-.24,0-.36.83-.6,1.07-1h.36a.39.39,0,0,0,.24-.11h.24v-.12l-.24-.12v-.12c.36,0,.48-.36.6-.48l1.07-.36A.42.42,0,0,1,368,477.4Zm-26.87-2.27c.12,0,.24-.24.36-.48.12-.47.59-.83.71-1.31v-.12a.55.55,0,0,1,.36-.6v-.24c0-.11.36-.47.6-.71a.32.32,0,0,1,.36-.36h.12v-.12c0-.36,0-.6.35-.84,0-.23.36-.47.36-.83a.26.26,0,0,1,.24-.24c.12-.24.12-.36.24-.36h.48a.42.42,0,0,1-.12-.24c-.24,0-.24-.12-.24-.12s0-.12.24-.12l.36-.47c0,.12.12,0,.12,0h-.12v-.48s.12.12.12,0h.12v-.12l-.12-.24c-.12,0-.24.12-.36.24v.12a.72.72,0,0,1-.12.48c-.48,0-.48.12-.6.35,0,0-.24,0-.24.12s-.36.36-.59.48c0,.12,0,.12-.12.24a1.08,1.08,0,0,1-.12.6,1,1,0,0,0-.6.59c-.36,0-.36.12-.36.24v.24a2.41,2.41,0,0,1-.48,1c-.23.12-.47.48-.59.59,0,.36-.36.36-.36.72v.12c0,.12-.12.36-.12.48s-.12.24-.24.24a4.68,4.68,0,0,1-1.07,1.67v.12c0,.36-.48.83-.48,1.31,0,.12,0,.12-.12.24v.12c-.24.12-.24.6-.36,1-.24.59-.6.83-.6,1.19l-.23.48v.36c-.12,0-.12.24-.12.47-.12,0-.12,0-.12.12s-.12.36-.12.6v.24c-.24,0-.24.36-.24.6l-.36.35a.72.72,0,0,1,.12.48.12.12,0,0,1-.12.12l-.24.36v1.19c.24,0,.24,0,.24-.12a.11.11,0,0,0,.12-.11.74.74,0,0,0,.24-.48c0-.24,0-.48.12-.48l.12-.12v-.48c0-.36.24-.83.24-1.19a1.06,1.06,0,0,0,.35-.72c0-.12,0-.36.12-.36s.24-.23.24-.36v-.11a6.33,6.33,0,0,1,.36-1.44,1.46,1.46,0,0,0,.48-.95v-.24c.24,0,.24-.12.24-.12l.47-.6A7.4,7.4,0,0,1,341.16,475.13ZM337.1,488a.42.42,0,0,1-.12-.24.12.12,0,0,0-.12.12V488a.59.59,0,0,0,.12.36h.12Zm7.52-12.9c-.83.24-.36.6-.83,1.08v.23l.71.12a2.43,2.43,0,0,1,1.2-.95c.24-.36.83-.6.95-1.08.72-.35,1.2-.59,1.32-1.07a6.54,6.54,0,0,0,1.07-1.31l.36-.36a5.81,5.81,0,0,0,1.07-1.56l.6-.59a2.32,2.32,0,0,1,.6-1.08c0-.47.48-.83.71-1.07s.72-.84.72-1.32.24-.83.48-.95,0-.12.12-.12c-.12-.12-.12-.24-.12-.48a.42.42,0,0,0,.12-.24,1.54,1.54,0,0,0-.12-.59,1.21,1.21,0,0,0-.36-.12l-.84.47s-.23,0-.35.36l-.36.12c0,.24,0,.24-.24.48H351a1.94,1.94,0,0,0-.59,1.31v.24c-.24,0-.6.24-.72.24a1.69,1.69,0,0,0-.72,1l-.36.71-.59.36-.36,1.08v.12l-.12.11-.36.72c0,.12-.36.12-.36.36a.42.42,0,0,0-.24.12c-.12.36-.47.72-.47,1.07a.81.81,0,0,1-.36.72,2,2,0,0,0-.84,1.31C344.86,474.89,344.62,475,344.62,475.13ZM359,485.88h-.24c-.35.12-.47.36-.59.36v.12c.12.12.12.12.24.12l.59-.12Zm1.56-.6c0-.12-.12-.24-.24-.36h-.36l.12.12a.42.42,0,0,1-.12.24l.12.12v.12a.12.12,0,0,0,.12.12l.12-.12a.42.42,0,0,0,.24-.12Zm1.67-.95h-.12a.12.12,0,0,1-.12-.12h-.24l-1.31.59.12.12c.23,0,.23,0,.35-.12h.24l.12-.11.84-.12A.37.37,0,0,1,362.18,484.33Zm3.1-2.63v-.12H365C365,481.7,365.28,481.7,365.28,481.7Zm4.66-4.78c.12,0,2.27-2.15,2.27-2.15a1.6,1.6,0,0,1,.83-.36h.13c0,.36-1.92,1.8-1.92,2s-1.19,1.08-1.19,1.2a7.13,7.13,0,0,1-1,.95s-.35.48-.47.48-.24-.71-.48-.71S369.82,476.92,369.94,476.92Zm-1.67.36h.12a.12.12,0,0,1-.12.12h-.12C368.15,477.28,368.15,477.28,368.27,477.28Zm2-.95-.6.47a1.76,1.76,0,0,1-.72.6c-.11.12-.23-.24-.35-.24s-.24-.12-.24-.12l.48-.83h.47Zm.72-.84c0,.36-.48.48-.72.6s-.24-.12-.36-.12h-.24v-.36h.12l.24-.24-.12-.12.12-.12h.24a15.84,15.84,0,0,1,2-.84A13,13,0,0,1,371,475.49Z" transform="translate(-81.55 -294.56)"/><path class="cls-1" d="M371.61,487.48h-.35v-.23a11.54,11.54,0,0,1,2.74-1.32,1.39,1.39,0,0,1,1.2-.48v.12a1.24,1.24,0,0,1,1.19-1.07,1.6,1.6,0,0,0,.84-.36l.24-.24-.12-.12L375.91,482l-1.19-2a9.4,9.4,0,0,0-1.55-2,1.71,1.71,0,0,0-.24-.48l-1.2-.83-1-1.32-.84-1.55a1.76,1.76,0,0,1-.48-.24,2.75,2.75,0,0,0-.71-1.91c-.12-.12-.12-.48-.12-.72v-.47l.36-2.15a1.08,1.08,0,0,0,.12-.6.44.44,0,0,0-.12-.36l.12-.6a2.62,2.62,0,0,1,.83-.83v-.24c0-.24,0-.48.12-.48v.12a8.86,8.86,0,0,0,1-1.67l.71-.72c.48-.59,1.44-1.19,1.79-1.91l.48-.36a9,9,0,0,1,2.27-1.67h.12a4.22,4.22,0,0,1,1.91-1.31l.84-.6,1.55-.6c.24-.35,1-.59,1.31-.83l.6-.24a3.29,3.29,0,0,1,1.07-.12h2.51a9.22,9.22,0,0,1,.84.72l.6.24h-.12c.24.12.24.35.24.59s0,.36-.12.36a.12.12,0,0,0,0,.24c.47.12.83.24.83.6s-.12.48-.59.83H388a5.31,5.31,0,0,1-.59.48,4.24,4.24,0,0,1-.72.12h-1c-.12,0-.12,0-.36.12a9.34,9.34,0,0,0-4.66,2.15,26.28,26.28,0,0,0-3.82,2.63,28.5,28.5,0,0,0-2.87,3.22,6.58,6.58,0,0,0-.83,3,6.2,6.2,0,0,0,.83,1.91h-.12a8.6,8.6,0,0,1,1.55,2.39,10.27,10.27,0,0,1,1.44,2c.48.35.6.83.83,1.07a3.52,3.52,0,0,0,1.08,1.2l.83,1.43a6,6,0,0,0,1,1.55,3.7,3.7,0,0,0,1.31.12,1.71,1.71,0,0,1,.72-.24c.24,0,.24,0,.36.12h.24l.12-.12h-.12a2.54,2.54,0,0,1,.36-.84,13.38,13.38,0,0,0,3.46-1.31l3.7-1.07,1.91-1h1c0,.24.36.24.48.24a.43.43,0,0,0,.35-.12.12.12,0,0,0,.12-.12h.12c.36,0,.6-.12,1-.12l1.43-.36h.72c.12,0,.24,0,.35.24a1.74,1.74,0,0,1,.72-.12c.12-.12.48-.12.84-.12H400c.12.12.12.12.35.12a2.64,2.64,0,0,0,1,.12h.6a.26.26,0,0,1,.24.24c0,.12-.12.12-.24.36-.48.12-.6.36-.72.36s-.48.47-.48.47l-2,.72h.12l-1.55.48-4.42.95L393,481l-.48.23a1.64,1.64,0,0,1-1.07.6,9.35,9.35,0,0,0-3.11,1.2V483a3.57,3.57,0,0,1-1.07.47h-.36a1.78,1.78,0,0,0-1.19,1,2.36,2.36,0,0,0-1.2.36l-.95.36c-.24.11-.6.47-.72.47s-.36.36-.36.6v.12l-.12-.12a.91.91,0,0,1,.12.48l.84,2.51a.41.41,0,0,0,.12.35,1.69,1.69,0,0,1,.23.72c-.11.24-.11,1.08-.23,1.43a2.34,2.34,0,0,1,.12,1,1.52,1.52,0,0,1-.12.72,8.1,8.1,0,0,1-.48,1.31,1.66,1.66,0,0,0-.6,1.31.44.44,0,0,0-.12.36l-.83.84h.24a8.35,8.35,0,0,1-1.32,1.43,2.44,2.44,0,0,1-1.07,1.43,2.52,2.52,0,0,0-.72,1c-.6.48-1.55.95-2,1.43l-.84.6a26.6,26.6,0,0,1-3.22,1.55h-.12a3.39,3.39,0,0,0-1.19.6l-.84.12a6.51,6.51,0,0,0-1.43.48c-.6.59-1.91.59-3.11.71-.24.12-.36.24-.6.24h-.47a2.44,2.44,0,0,0-.6.12A3,3,0,0,1,363,507a25.48,25.48,0,0,1-2.74-.24A4.86,4.86,0,0,1,358,505a4.78,4.78,0,0,1-1.31-2.39l-.24-1.07c.12-.12.12-.48.24-.72s0-.72.95-1.79V499a1.09,1.09,0,0,1,.36-1c.24,0,.36-.12.48-.47v.12c0-.12.36-.24.36-.36s.23-.12.23-.24v-.72c.6-.12.84-.12,1.08-.36l.6-.71,2.38-1.91c0-.48.36-.72.84-1a.44.44,0,0,0,.36-.12c.95-.48,1.43-.95,2-1.19h.12l.36-.12.83-.84c0-.12.12-.36.12-.48H368c0,.12.24.12.24.12v-.12H368a10.43,10.43,0,0,1,1.08-.35q-.36-.18-.36-.36c0-.12.12-.24.71-.36l-.24-.12a6.77,6.77,0,0,1,.84.12,1,1,0,0,0,.72-.48v.12c.12,0,.24-.12.36-.24a1.57,1.57,0,0,1,.59.12v-.36h-.36Zm7.41,0h-.24a5.59,5.59,0,0,1-1.55,1v-.12l-1.32.72a.53.53,0,0,1-.36.12,1.12,1.12,0,0,0-.35.12l-.72.59c0,.24-.24.36-.84.6l.24-.12-1.31.72a16.53,16.53,0,0,0-2.51,1.31l-.36.36c-.48.36-.95.48-1.43.83a7.11,7.11,0,0,0-.72.48,11.13,11.13,0,0,1-.95.6c-.48.36-1.55,1.31-1.55,1.31a8.19,8.19,0,0,0-2.15,1.68s-.84.59-1,.95a4.79,4.79,0,0,0-1.67,2.15c-.12,0-.36.48-.36.48l-.24.24v.35c.12.84.48,1.32,1.67,1.32h1A8.4,8.4,0,0,1,364,503a11.32,11.32,0,0,1,1.79-.36l1.91-.72c1.55-.59,3.7-1.55,5.26-2.27l.95-.83c.48-.6,1.44-1,1.91-1.67a.72.72,0,0,0,.48-.12l1.2-1.44h-.12c.23-.47.71-.83.95-1.31a4.59,4.59,0,0,0,.72-2.15l.24-1.07v-.48c0-.12.24-.24.24-.48Zm-11.23,2v.12H368a.12.12,0,0,0-.12-.12Zm3.58-1.91-.11-.12-.48.6c.12,0,.24-.12.36-.12Zm23.77-10a.59.59,0,0,1-.36.12c-.12,0-.12,0-.24-.12l.12.24a4.24,4.24,0,0,1,.72-.12A.42.42,0,0,1,395.14,477.57Z" transform="translate(-81.55 -294.56)"/></svg>