<?xml version="1.0" encoding="UTF-8"?>
<svg version="1.1" viewBox="0 0 185 38" xmlns="http://www.w3.org/2000/svg">
<title>Group</title>
<desc>Created with Sketch.</desc>
<g fill="none" fill-rule="evenodd">
<g fill="#FF6900">
<g transform="translate(8.8e-5 .29664)">
<path d="m24.594 10.743h0.0023567l3.2673-3.2929h-0.0026513l7.3932-7.4498c-4.937 1.1439-9.63 3.6228-13.506 7.4498h-19.835c-1.0567 0-1.9136 0.86361-1.9136 1.9282v24.224c0 1.0646 0.85695 1.9282 1.9136 1.9282h24.037c1.0567 0 1.9133-0.86361 1.9133-1.9282v-19.982l-3.2673 3.2935v15.323h-21.329v-21.495h15.613c-2.4315 3.265-4.0809 6.9344-4.9508 10.747l10.664-10.747z"/>
<polygon points="89.24 13.97 89.24 31.561 78.778 13.962 75.227 13.962 75.227 35.514 77.966 35.514 77.966 17.92 88.427 35.516 91.98 35.516 91.98 13.97"/>
<path d="m62.405 13.948v14.2c0 2.8963-2.3378 5.2529-5.2115 5.2529-2.8746 0-5.2136-2.3566-5.2136-5.2529v-14.2h-2.7391v14.2c0 4.419 3.5677 8.013 7.9526 8.013 4.3843 0 7.9503-3.594 7.9503-8.013v-14.2h-2.7388z"/>
<path d="m160.41 13.948v14.2c0 2.8963-2.3387 5.2529-5.2133 5.2529-2.874 0-5.2127-2.3566-5.2127-5.2529v-14.2h-2.7399v14.2c0 4.419 3.5671 8.013 7.9526 8.013 4.3858 0 7.955-3.594 7.955-8.013v-14.2h-2.7417z"/>
<polygon points="103.13 35.524 105.87 35.524 105.87 13.948 103.13 13.948"/>
<polygon points="184.92 16.699 184.92 13.943 173.25 13.943 173.25 35.497 184.92 35.497 184.92 32.736 175.99 32.736 175.99 25.828 184.6 25.828 184.6 23.067 175.99 23.067 175.99 16.699"/>
<path d="m126.67 16.077c4.7393 0 8.5957 3.8855 8.5957 8.6613 0 4.777-3.8564 8.6631-8.5957 8.6631-4.7405 0-8.5969-3.8861-8.5969-8.6631 0-4.7758 3.8564-8.6613 8.5969-8.6613zm7.7915 16.951c2.2607-2.158 3.543-5.138 3.543-8.2899 0-6.2988-5.0846-11.423-11.334-11.423-6.2505 0-11.336 5.1244-11.336 11.423 0 6.2994 5.0854 11.423 11.336 11.423 1.8671 0 3.7162-0.47352 5.3665-1.3725l4.7093 2.7998 1.3878-2.3753-3.672-2.1853z"/>
</g>
</g>
</g>
</svg>
