<?xml version="1.0" encoding="UTF-8"?>
<svg version="1.1" viewBox="0 0 187 37" xmlns="http://www.w3.org/2000/svg">
<title>Group 18</title>
<desc>Created with Sketch.</desc>
<g fill="none" fill-rule="evenodd">
<g fill="#FF6900">
<path d="m132.91 23.013h-4.1096v-6.154l4.1096-0.0024176c1.6084 0 2.9182 1.3778 2.9182 3.0715 0 1.7008-1.3098 3.0848-2.9182 3.0848zm-4.1096 2.7672h4.9101c1.9589 0 3.5526 1.6611 3.5526 3.704 0 2.0603-1.5923 3.7371-3.5493 3.7371h-4.9133v-7.4411zm8.1322-1.826c0.98184-1.0857 1.5317-2.5153 1.5317-4.026 0-3.2255-2.4931-5.8496-5.558-5.8496h-6.739v21.922l7.5432-0.0036263c3.4087 0 6.1816-2.9219 6.1816-6.5127 0-2.31-1.117-4.3652-2.9595-5.53z"/>
<polygon points="63.65 14 56.996 23.676 50.357 14 47 14 55.614 26.548 55.623 36 58.369 36 58.378 26.549 67 14"/>
<path d="m24.99 10.878h0.00192l3.3202-3.2813h-0.00288l7.5118-7.4227c-5.016 1.1396-9.7848 3.6094-13.723 7.4227h-20.154c-1.074 0-1.9447 0.86071-1.9447 1.9214v24.137c0 1.0609 0.87072 1.9214 1.9447 1.9214h24.423c1.0745 0 1.945-0.86048 1.945-1.9214v-19.909l-3.3202 3.2816v15.268h-21.672v-21.417h15.865c-2.4708 3.2529-4.1472 6.9092-5.0306 10.709l10.836-10.709z"/>
<polygon points="178.6 33.214 178.6 14 176 14 176 36 187 36 187 33.214"/>
<polygon points="112.25 14.009 112.25 32.034 101.59 14 98 14 98 35.994 100.75 35.994 100.75 17.964 111.42 36 115 36 115 14.009"/>
<polygon points="158.69 14.466 158.51 14 155.48 14 147 36 149.95 36 157 17.739 163.87 35.548 164.06 36 167 36"/>
<polygon points="80.707 14.541 80.53 14.074 77.516 14.074 69.09 36.042 72.024 36.042 79.021 17.808 86.019 36.042 88.954 36.042"/>
</g>
</g>
</svg>
