<?xml version="1.0" encoding="UTF-8"?>
<svg width="88px" height="90px" viewBox="0 0 88 90" version="1.1" xmlns="http://www.w3.org/2000/svg" xmlns:xlink="http://www.w3.org/1999/xlink">
    <title>3. icons/seal/bloque3/cleanbeauty</title>
    <g id="Yanbal-UI-Visual-Kit" stroke="none" stroke-width="1" fill="none" fill-rule="evenodd">
        <g id="yanbal-styleguide-pag2" transform="translate(-124.000000, -5750.000000)" fill="#1C1F28">
            <g id="Group" transform="translate(120.000000, 5747.000000)">
                <g id="elements" transform="translate(4.000400, 3.000000)">
                    <path d="M78.189013,18.5315 L78.2140871,18.5625 C84.5247322,26.3355 88,36.1265 88,46.1315 C88,70.3205 68.2606793,90.0005 43.998997,90.0005 C19.7373148,90.0005 0,70.3205 0,46.1315 C0,36.1265 3.47426487,26.3355 9.78490996,18.5625 L9.78490996,18.5625 L9.81098701,18.5315 L10.4709369,19.0655 L10.4458628,19.0965 C4.25757921,26.7175 0.849509916,36.3195 0.849509916,46.1315 C0.849509916,69.8525 20.2067016,89.1515 43.998997,89.1515 C67.7922954,89.1515 87.1504901,69.8525 87.1504901,46.1315 C87.1504901,36.3235 83.7434238,26.7215 77.5561432,19.0965 L77.5561432,19.0965 L77.5300661,19.0655 L78.189013,18.5315 Z M45.2656394,78.7195 C46.1923775,78.7195 46.8252473,79.2695 46.8483155,80.1045 C46.862357,80.6035 46.6557465,81.0175 46.2916708,81.2275 C46.7831229,81.4195 47.0970504,81.8965 47.1130978,82.4895 C47.1411808,83.5525 46.4882517,84.1325 45.2275268,84.1665 L45.2275268,84.1665 L43.2426624,84.2195 L43.2416594,84.1795 L43.0962298,78.7775 L43.1363483,78.7765 L45.2024527,78.7205 C45.2245179,78.7195 45.2455801,78.7195 45.2656394,78.7195 Z M36.175783,77.8612 L36.2148986,77.8692 L36.9711329,78.0072 L36.9791566,78.0292 L38.5598268,82.6572 L39.3301026,78.4342 L39.3692181,78.4422 L40.0371917,78.5632 L40.029168,78.6022 L39.0582995,83.9212 L39.019184,83.9132 L38.25292,83.7742 L38.2458992,83.7522 L36.667235,79.1262 L35.8949533,83.3472 L35.8558377,83.3402 L35.1968908,83.2192 L35.2049145,83.1802 L36.175783,77.8612 Z M51.1462138,77.9999 L51.1522316,78.0389 L51.2565398,78.6709 L51.2174242,78.6769 L48.6889537,79.0949 L48.9607568,80.7109 L51.3127057,80.3219 L51.3187235,80.3609 L51.4190198,80.9609 L51.3799043,80.9669 L49.065065,81.3519 L49.363948,83.1349 L51.9315341,82.7089 L51.9375519,82.7479 L52.0398541,83.3799 L52.0007385,83.3859 L48.7701938,83.9199 L48.7651789,83.8809 L47.8765535,78.5419 L47.915669,78.5359 L51.1462138,77.9999 Z M45.2094734,81.6375 C45.1713608,81.6375 45.1322453,81.6385 45.0911238,81.6395 L45.0911238,81.6395 L43.8845589,81.6725 L43.9357101,83.5225 L45.1242216,83.4915 C46.0329063,83.4665 46.4130294,83.1725 46.3949761,82.5085 C46.3789287,81.8875 46.0439389,81.6375 45.2094734,81.6375 Z M54.1039526,77.166 L54.121003,77.188 L57.5962708,81.776 L57.5421108,81.793 L56.8921906,81.997 L56.8761432,81.974 L56.2091726,81.078 L53.9545111,81.778 L53.9184044,82.92 L53.8913244,82.929 L53.2143241,83.139 L53.2163301,83.082 L53.465065,77.364 L53.492145,77.356 L54.1039526,77.166 Z M33.1034055,76.8917 L33.7392842,77.1077 L33.7392842,77.1347 L33.8215272,82.8917 L33.1224618,82.6537 L33.1224618,82.6247 L33.117447,81.5077 L30.8808388,80.7437 L30.1717438,81.6447 L30.1456667,81.6357 L29.4746843,81.4067 L29.509788,81.3617 L33.1034055,76.8917 Z M54.0848963,78.225 L53.9846,81.108 L55.8119991,80.54 L54.0848963,78.225 Z M45.1743697,79.4015 C45.1523045,79.4015 45.1302393,79.4015 45.1061682,79.4025 L45.1061682,79.4025 L43.8243811,79.4375 L43.8665056,81.0345 L45.1502986,80.9985 C45.5183861,80.9895 45.7861773,80.9005 45.9446455,80.7345 C46.0750308,80.5975 46.1392204,80.4025 46.1321997,80.1545 C46.1171552,79.6545 45.795204,79.4015 45.1743697,79.4015 Z M27.9167814,74.5768 L27.9518851,74.5948 L30.8695054,76.0618 L30.5636016,76.6668 L30.5284978,76.6498 L28.2437474,75.4998 L27.5055664,76.9618 L29.6308457,78.0298 L29.3409893,78.6078 L29.3058856,78.5898 L27.2116982,77.5378 L26.397292,79.1498 L28.7181491,80.3158 L28.4112423,80.9218 L28.3761386,80.9038 L25.4575154,79.4358 L25.4755687,79.4008 L27.9167814,74.5768 Z M59.8754046,74.7146 L59.8934579,74.7506 L61.4570777,78.0206 C61.9866424,79.1306 61.6436289,80.0426 60.492227,80.5896 C60.1261454,80.7626 59.7841349,80.8486 59.4702074,80.8486 C58.8032368,80.8486 58.2626396,80.4616 57.9035788,79.7086 L57.9035788,79.7086 L56.3209027,76.4056 L56.9648051,76.0976 L56.9828584,76.1336 L58.525416,79.3626 C58.7069524,79.7426 58.9416458,79.9876 59.2204696,80.0896 C59.4972874,80.1906 59.8272624,80.1546 60.1993618,79.9776 C60.9425576,79.6226 61.148165,79.0426 60.793116,78.3006 L60.793116,78.3006 L59.2254844,75.0236 L59.2615911,75.0056 L59.8754046,74.7146 Z M33.0953818,77.9487 L31.3020834,80.2197 L33.1154411,80.8397 L33.0953818,77.9487 Z M24.6074037,72.4448 L25.1961432,72.8418 L25.174078,72.8748 L22.5332756,76.7858 L24.543214,78.1348 L24.1660998,78.6958 L24.1319991,78.6728 L21.566419,76.9508 L21.5884842,76.9178 L24.6074037,72.4448 Z M63.8477411,72.1233 L64.2268612,72.6853 L64.1927604,72.7083 L62.8357511,73.6163 L65.4966127,77.5803 L64.8998496,77.9793 L64.8777844,77.9463 L62.236982,74.0153 L60.8448689,74.9463 L60.4667518,74.3823 L60.4998496,74.3593 L63.8477411,72.1233 Z M18.8212081,71.0909 C19.9525507,69.8209 21.4058445,69.5839 22.4348849,70.4969 C23.2733622,71.2379 23.3917119,72.3419 22.7377798,73.3099 L22.7377798,73.3099 L22.7157146,73.3419 L22.1069159,72.9629 L22.1279781,72.9289 C22.6013768,72.1699 22.5512286,71.5039 21.9835514,71.0039 C21.2503852,70.3549 20.246419,70.5689 19.3587964,71.5649 C18.4591384,72.5749 18.3668657,73.5729 19.1090586,74.2329 C19.7128425,74.7629 20.4078961,74.7019 21.118997,74.0519 L21.118997,74.0519 L21.1490859,74.0239 L21.6325142,74.5769 L21.6054342,74.6039 C21.1230089,75.0679 20.5794028,75.3019 20.0408115,75.3019 C19.5603921,75.3019 19.0829815,75.1149 18.6577251,74.7389 C17.6106314,73.8119 17.6748211,72.3799 18.8212081,71.0909 Z M67.4941144,68.9253 L67.507153,68.9943 L68.1971917,72.5623 L69.7176841,74.2483 L69.6865922,74.2743 L69.1831046,74.7273 L69.1570276,74.6973 L67.6636152,73.0413 L64.1131251,71.9503 L64.1652792,71.9023 L64.7319535,71.3973 L64.7540187,71.4043 L67.4620196,72.2843 L66.877292,69.4793 L66.8943424,69.4653 L67.4941144,68.9253 Z M43.9985959,10.4118 C63.7549669,10.4118 79.8294598,26.4358 79.8294598,46.1318 C79.8294598,54.3878 76.9359106,62.4408 71.6833918,68.8078 L71.6833918,68.8078 L71.6573148,68.8388 L71.6262229,68.8138 L71.0013768,68.3008 L71.0264509,68.2698 C76.1566082,62.0518 78.9809528,54.1908 78.9809528,46.1318 C78.9809528,26.9028 63.288589,11.2588 43.9985959,11.2588 C24.7116116,11.2588 9.02025074,26.9028 9.02025074,46.1318 C9.02025074,54.1918 11.8445954,62.0538 16.9727468,68.2698 L16.9727468,68.2698 L16.9978208,68.3008 L16.966729,68.3258 L16.3418828,68.8388 L16.3168088,68.8078 C11.062284,62.4388 8.16973786,54.3848 8.16973786,46.1318 C8.16973786,26.4358 24.2422248,10.4118 43.9985959,10.4118 Z M49.2050786,41.1402 L49.2050786,41.9882 L47.3435788,41.9882 L47.3435788,49.2882 L54.8046227,61.8092 C55.0322954,62.1542 55.152651,62.5532 55.152651,62.9622 C55.152651,64.0892 54.2660315,65.0072 53.1336859,65.0522 L53.1336859,65.0522 L34.4464737,65.0522 C33.317137,65.0072 32.4335263,64.0892 32.4335263,62.9622 C32.4335263,62.5402 32.5588967,62.1352 32.7955961,61.7902 L32.7955961,61.7902 L40.2446045,49.2882 L40.2446045,41.9882 L38.3800957,41.9882 L38.3800957,41.1402 L49.2050786,41.1402 Z M46.4950718,41.9882 L41.0931115,41.9882 L41.0931115,49.5182 L41.0870937,49.5282 L33.5107089,62.2432 C33.3602644,62.4682 33.2830362,62.7092 33.2830362,62.9622 C33.2830362,63.6342 33.8126009,64.1802 34.4875952,64.2052 L34.4875952,64.2052 L34.4996307,64.2032 L34.5878915,64.2052 L53.0043036,64.2032 L53.1015911,64.2052 C53.7745794,64.1802 54.3031411,63.6342 54.3031411,62.9622 C54.3031411,62.7172 54.2309277,62.4782 54.0935218,62.2732 L54.0935218,62.2732 L54.0654388,62.2252 L51.3323638,57.6382 L47.5110736,57.6382 L47.5110736,56.7922 L50.8268703,56.7922 L49.2391794,54.1282 L45.422904,54.1282 L45.422904,53.2802 L48.7336859,53.2802 L46.4950718,49.5182 L46.4950718,41.9882 Z M56.0026624,24.0557 C56.5011352,24.0557 57.0026168,24.0837 57.5061044,24.1407 L57.5061044,24.1407 L57.8410941,24.1787 L57.8772008,24.5157 C58.3305402,28.4787 56.970522,32.3657 54.1481833,35.1777 C51.6879143,37.6307 48.4202599,38.9827 44.9500068,38.9827 C44.4415044,38.9827 43.9370139,38.9537 43.4505767,38.8987 L43.4505767,38.8987 L43.4295145,38.8947 L43.4124641,38.8987 C43.0704536,38.9367 42.7274402,38.9557 42.3944563,38.9557 C40.0445133,38.9557 37.8319763,38.0407 36.1630454,36.3787 C34.2513973,34.4677 33.329674,31.8337 33.6365808,29.1527 L33.6365808,29.1527 L33.6746934,28.8187 L34.0096832,28.7807 C36.7046455,28.4707 39.3414361,29.3917 41.2580989,31.2997 C42.1547481,32.1957 42.8317483,33.2427 43.2740552,34.4157 C43.7885753,31.9197 45.0071757,29.6557 46.8064919,27.8607 C49.2727787,25.4017 52.5614953,24.0557 56.0026624,24.0557 Z M57.0708183,24.9497 C53.4882334,24.6317 49.9638204,25.9127 47.4072669,28.4587 C44.9881194,30.8727 43.7324094,34.0847 43.8658035,37.5107 L43.8658035,37.5107 L52.5314064,28.8727 L53.1331844,29.4717 L44.4695874,38.1097 C44.6350764,38.1167 44.7995623,38.1187 44.9640483,38.1187 C48.2156553,38.1187 51.2446045,36.8737 53.5474083,34.5787 C56.094935,32.0387 57.3777251,28.5307 57.0708183,24.9497 Z M35.0176613,29.5687 C34.8281012,29.5687 34.6385411,29.5757 34.4469752,29.5887 C34.2834921,31.8917 35.1259813,34.1467 36.7638204,35.7807 C38.2662594,37.2787 40.2932482,38.1107 42.4014771,38.1107 C42.5910372,38.1107 42.7826031,38.1037 42.9731662,38.0897 C43.1356462,35.7857 42.2931571,33.5317 40.6583269,31.8987 C39.1538819,30.4007 37.1248872,29.5687 35.0176613,29.5687 Z M75.5339685,12.3573 L76.0254206,12.8183 L76.014388,12.8433 L73.7015546,18.1263 L73.1639663,17.6193 L73.6333531,16.5753 L71.9122681,14.9553 L70.8912514,15.4853 L70.3546661,14.9783 L70.4048142,14.9523 L75.5339685,12.3573 Z M13.3900615,11.4819 L13.4181445,11.5109 L13.8584454,11.9729 L13.8283565,12.0009 L11.9698655,13.7679 L13.24062,15.0969 L14.9747436,13.4509 L15.0028265,13.4809 L15.4220652,13.9209 L15.3929793,13.9489 L13.6899476,15.5659 L15.2726237,17.2219 L14.7571005,17.7119 L14.7290176,17.6829 L10.9849556,13.7659 L11.0150444,13.7369 L13.3900615,11.4819 Z M75.0896558,13.3193 L72.5120401,14.6513 L73.9071621,15.9643 L75.0896558,13.3193 Z M70.1406337,8.0178 L70.1727285,8.0408 L71.7473809,9.2028 C72.6701071,9.8808 72.8596672,10.7768 72.2528744,11.5988 C71.7413631,12.2858 71.0081969,12.4638 70.2329063,12.0858 L70.2329063,12.0858 L69.8658217,14.5918 L69.1908274,14.0948 L69.1948393,14.0708 L69.5729565,11.6668 L68.7605562,11.0678 L67.4617187,12.8188 L66.8900296,12.3978 L66.9130978,12.3648 L70.1406337,8.0178 Z M16.1961523,9.1136 C17.3014178,8.2896 18.7286346,8.6486 19.7506542,10.0076 C20.767659,11.3686 20.7104901,12.8356 19.6062275,13.6596 L19.6062275,13.6596 C19.210057,13.9536 18.772765,14.0956 18.3284522,14.0956 C17.5300935,14.0956 16.7066606,13.6356 16.0517256,12.7636 C15.0337178,11.4056 15.0908867,9.9386 16.1961523,9.1136 Z M17.4548712,9.3606 C17.1539822,9.3606 16.8691406,9.4596 16.6043583,9.6576 C16.2182175,9.9446 16.0166218,10.3426 16.0195975,10.8096 C16.0226396,11.2816 16.2332619,11.8086 16.6274265,12.3336 C17.022594,12.8616 17.4699157,13.2116 17.9232551,13.3486 C18.3725826,13.4826 18.8128835,13.4036 19.1980214,13.1156 C19.5219786,12.8746 19.7135446,12.5646 19.7667016,12.1916 C19.8439298,11.6636 19.6373194,11.0566 19.1729473,10.4386 C18.7105813,9.8196 18.1860315,9.4516 17.6574698,9.3746 C17.5882653,9.3656 17.5210668,9.3606 17.4548712,9.3606 Z M21.3329291,5.8989 C21.8173604,5.6219 22.2957739,5.5209 22.7150125,5.6119 C23.1342512,5.7009 23.4872943,5.9779 23.7350262,6.4099 C24.1532619,7.1429 24.014853,7.8999 23.3669387,8.4469 L23.3669387,8.4469 L25.516289,9.7969 L24.7881377,10.2099 L24.7670755,10.1959 L22.7160155,8.8799 L21.8364167,9.3789 L22.9176111,11.2739 L22.8825074,11.2939 L22.3007887,11.6239 L22.2807294,11.5889 L19.5917848,6.8899 L19.6268885,6.8689 Z M70.3081286,8.9838 L69.1647504,10.5228 L70.158687,11.2548 C70.4976886,11.5048 70.8055984,11.6108 71.0804103,11.5698 C71.3040711,11.5348 71.5036608,11.4018 71.6731616,11.1718 C71.8597128,10.9198 71.9228995,10.6708 71.8637246,10.4298 C71.8025439,10.1858 71.6129838,9.9448 71.3010622,9.7158 L71.3010622,9.7158 L70.3081286,8.9838 Z M65.0805835,5.0126 L65.697406,5.3636 L65.6783497,5.3976 L63.9161432,8.5016 C63.7055209,8.8716 63.6393253,9.2046 63.7205653,9.4946 C63.7987964,9.7746 64.0164395,10.0176 64.3694826,10.2156 C65.0855984,10.6216 65.6783497,10.4566 66.0845498,9.7436 L66.0845498,9.7436 L67.8748393,6.5886 L68.4996854,6.9436 L68.4806291,6.9776 L66.6943515,10.1226 C66.3132254,10.7946 65.778646,11.1396 65.1588147,11.1396 C64.8087805,11.1396 64.4306633,11.0296 64.0364987,10.8076 C63.4918897,10.4996 63.1488762,10.1166 63.018491,9.6656 C62.8881058,9.2166 62.9743606,8.7206 63.2742466,8.1936 L63.2742466,8.1936 L65.0805835,5.0126 Z M29.3638568,2.2702 L29.3778983,2.3072 L31.382822,7.3372 L30.7148484,7.6012 L30.7008069,7.5642 L29.1462138,3.6642 L29.0760064,8.2522 L28.7761204,8.3712 L28.7570641,8.3522 L25.5656348,5.0852 L27.1352724,9.0202 L26.4723137,9.2832 L26.4572692,9.2462 L24.4523456,4.2172 L25.3018555,3.8812 L25.3219147,3.9002 L28.4732254,7.1662 L28.5143469,2.6062 L28.540424,2.5962 L29.3638568,2.2702 Z M16.2267426,7.4053 L16.1244404,8.6943 L15.6199499,9.0703 L15.6139321,8.9973 L15.5357009,7.9223 L15.5527513,7.9083 L16.2267426,7.4053 Z M23.1091771,6.7649 C22.7952496,6.2179 22.2957739,6.1339 21.6227855,6.5159 L21.6227855,6.5159 L20.5476088,7.1279 L21.4984181,8.7899 L22.5745977,8.1799 C23.2465831,7.7959 23.4271165,7.3199 23.1091771,6.7649 Z M59.7798222,3.4207 C60.3525142,3.1077 60.9934078,3.0757 61.6302895,3.3347 C62.6523091,3.7507 63.1427581,4.7157 62.8809847,5.7927 L62.8809847,5.7927 L62.8709551,5.8297 L62.1648689,5.6847 L62.1738956,5.6447 C62.3474083,4.8277 62.0715933,4.2467 61.3765398,3.9647 C60.9994256,3.8117 60.633344,3.8097 60.2833098,3.9557 C59.7908548,4.1627 59.375628,4.6517 59.0837657,5.3677 C58.8350308,5.9767 58.7648233,6.5397 58.8811671,6.9977 C58.9975108,7.4507 59.294388,7.7857 59.7397037,7.9667 C60.1318623,8.1267 60.5049647,8.1387 60.8208981,8.0007 C61.1558879,7.8557 61.425685,7.5477 61.5991976,7.1107 L61.5991976,7.1107 L60.332455,6.5977 L60.3464965,6.5607 L60.5882106,5.9677 L60.6253203,5.9827 L62.5068794,6.7487 L62.2852245,7.2897 C61.8940688,8.2457 61.1749442,8.7737 60.3404787,8.7737 C60.0646638,8.7737 59.7768133,8.7157 59.4829451,8.5967 C58.1821017,8.0677 57.7648689,6.6937 58.418801,5.0967 C58.7387463,4.3147 59.2091361,3.7357 59.7798222,3.4207 Z M54.9407249,1.2635 L54.9798404,1.2745 L58.1321541,2.1445 L57.9516207,2.7975 L55.4462184,2.1065 L55.0059175,3.6865 L57.3067153,4.3205 L57.1342056,4.9435 L54.8334078,4.3095 L54.3509824,6.0525 L56.8573877,6.7445 L56.6768543,7.3975 L56.6377388,7.3865 L53.4824162,6.5165 L53.4934488,6.4775 L54.9407249,1.2635 Z M35.1821473,0.7874 L35.1911739,0.8254 L36.0346661,4.3444 C36.174078,4.9224 36.1209209,5.4164 35.8782038,5.8104 C35.625457,6.2204 35.1811443,6.5044 34.5562982,6.6524 L34.5562982,6.6524 C34.3266196,6.7074 34.1099795,6.7344 33.9093868,6.7344 C33.0378117,6.7344 32.4440574,6.2244 32.21137,5.2564 L32.21137,5.2564 L31.3588512,1.6994 L31.3969638,1.6894 L32.0498929,1.5344 L32.0589195,1.5724 L32.8903761,5.0464 C32.9896695,5.4554 33.167194,5.7424 33.4189378,5.9004 C33.6706816,6.0584 34.0006565,6.0884 34.39783,5.9934 C34.8000182,5.8984 35.0818509,5.7204 35.2383132,5.4654 C35.3947755,5.2114 35.4268703,4.8804 35.3295829,4.4814 L35.3295829,4.4814 L34.4830818,0.9534 L34.5221974,0.9434 L35.1821473,0.7874 Z M50.8947709,0.4178 C51.0181354,0.4178 51.1475177,0.4278 51.2789059,0.4488 C52.2989195,0.6108 52.9739138,1.3518 52.996982,2.3358 L52.996982,2.3358 L52.997985,2.3748 L52.285881,2.4118 L52.2828721,2.3728 C52.2277091,1.6578 51.8425712,1.2248 51.1675769,1.1178 C50.8135309,1.0618 50.5016093,1.1138 50.290987,1.2668 C50.1395395,1.3758 50.044258,1.5348 50.0131662,1.7268 C49.9509824,2.1128 50.209747,2.3668 51.1204377,2.8168 C52.4423433,3.4868 52.8836471,4.0508 52.7462412,4.8968 C52.6870663,5.2698 52.4985092,5.5818 52.1976202,5.7998 C51.8997401,6.0158 51.5085845,6.1278 51.0662776,6.1278 C50.9218509,6.1278 50.7714064,6.1148 50.617953,6.0908 C49.2980533,5.8828 48.6150353,5.0808 48.6952724,3.8338 L48.6952724,3.8338 L48.6982813,3.7968 L48.7353909,3.7968 L49.4154,3.7898 L49.4133941,3.8318 C49.3742786,4.7698 49.7925142,5.2758 50.7312879,5.4228 C51.4423889,5.5338 51.9659357,5.2818 52.0451698,4.7948 C52.1264098,4.2768 51.8094734,3.9298 50.7894598,3.4228 C49.5698564,2.7998 49.196754,2.3438 49.3110919,1.6148 C49.4284386,0.8768 50.0582995,0.4178 50.8947709,0.4178 Z M37.8158286,0.4126 L37.8198404,0.4516 L38.3804969,5.1366 L40.7896148,4.8496 L40.8708548,5.5236 L40.8307363,5.5286 L37.7566537,5.8936 L37.7516389,5.8536 L37.1107454,0.4946 L37.8158286,0.4126 Z M44.0580716,0 L44.0681012,0.026 L46.0991019,5.411 L45.358915,5.421 L45.3508913,5.394 L44.9677593,4.349 L42.6037748,4.385 L42.2447139,5.471 L42.216631,5.471 L41.5065329,5.481 L41.5255892,5.428 L43.3870891,0.011 L43.4151721,0.01 L44.0580716,0 Z M43.7381263,1.012 L42.8224208,3.748 L44.7370777,3.72 L43.7381263,1.012 Z" id="Fill-59"></path>
                </g>
            </g>
        </g>
    </g>
</svg>