<?xml version="1.0" encoding="UTF-8"?>
<svg width="92px" height="90px" viewBox="0 0 92 90" version="1.1" xmlns="http://www.w3.org/2000/svg" xmlns:xlink="http://www.w3.org/1999/xlink">
    <title>3. icons/seal/bloque3/dermatologicamentetestato</title>
    <defs>
        <path d="M88.9777444,47.913 L89.7873899,47.944 C88.8547982,71.528 69.6432093,90 46.0375441,90 C22.431879,90 3.22029011,71.528 2.28869798,47.944 L2.28869798,47.944 L3.0983435,47.913 C4.01294308,71.06 22.8686878,89.188 46.0375441,89.188 C69.205401,89.188 88.0621452,71.06 88.9777444,47.913 L88.9777444,47.913 Z M44.5401997,78.7224 L45.2248999,78.7474 L46.9951249,84.2734 L46.2344579,84.2474 L45.9026032,83.1714 L45.8976054,83.1554 L43.5786207,83.0764 L43.5606286,83.0764 L43.1488089,84.1404 L42.390141,84.1154 L44.5401997,78.7224 Z M52.9125342,78.1348 L53.6212239,83.5528 L52.8885447,83.6488 L52.3627749,79.6288 L52.3467819,79.5038 L51.1672983,83.8728 L50.8334444,83.9168 L48.6324081,80.1068 L48.5704352,79.9978 L49.112198,84.1428 L48.3875153,84.2378 L47.6788256,78.8178 L48.5994225,78.6988 L50.8084554,82.5808 L50.8394418,82.6338 L51.9929368,78.2548 L52.9125342,78.1348 Z M39.9464109,78.1052 C40.0813519,78.1052 40.2192915,78.1172 40.3592302,78.1422 C41.4627471,78.3392 42.143449,79.2232 42.0934709,80.3952 L42.0934709,80.3952 L42.0904722,80.4442 L41.3537948,80.4392 L41.3537948,80.3862 C41.3607917,79.5022 40.9749606,78.9632 40.2372836,78.8322 C40.1443243,78.8152 40.0543637,78.8072 39.9664022,78.8072 C39.1457615,78.8072 38.5250332,79.4952 38.3151251,80.6682 C38.0792284,81.9902 38.5170367,82.8822 39.4846131,83.0552 C39.5865685,83.0752 39.6845256,83.0842 39.779484,83.0842 C40.4062096,83.0842 40.8540136,82.6682 41.0819138,81.8642 L41.0819138,81.8642 L41.0959077,81.8122 L41.8195908,82.0402 L41.8065965,82.0892 C41.5297177,83.1512 40.780046,83.7852 39.8024739,83.7852 C39.6565378,83.7852 39.5086026,83.7722 39.3626665,83.7462 C37.9812713,83.4982 37.2845763,82.2392 37.5874437,80.5392 C37.7353789,79.7152 38.0792284,79.0512 38.5810087,78.6192 C38.9758359,78.2792 39.4416319,78.1052 39.9464109,78.1052 Z M57.1825647,76.848 L57.3854759,77.518 L54.9315502,78.261 L54.9075607,78.268 L55.368359,79.787 L55.3753559,79.811 L57.6473612,79.124 L57.8412763,79.765 L55.5932605,80.446 L55.569271,80.453 L56.0780483,82.133 L56.0850452,82.157 L58.5629604,81.407 L58.764872,82.078 L55.5892623,83.04 L54.0059555,77.809 L57.1825647,76.848 Z M36.4276515,77.3265 L37.1263456,77.5345 L35.5850204,82.7645 L34.8863263,82.5575 L36.4276515,77.3265 Z M44.8470654,79.7864 L43.8305104,82.3954 L43.8175161,82.4274 L45.6557113,82.4924 L45.6916956,82.4934 L44.8690557,79.8534 L44.8470654,79.7864 Z M32.7221738,75.9825 C33.0070491,75.9825 33.2989213,76.0405 33.5927926,76.1625 C34.6103471,76.5875 35.0921362,77.5605 34.8202552,78.6395 L34.8202552,78.6395 L34.8082605,78.6885 L34.0855769,78.5315 L34.0975716,78.4795 C34.2734946,77.6725 34.0066115,77.0945 33.3229108,76.8095 C32.8841029,76.6235 32.4432959,76.6535 32.0454701,76.8935 C31.643646,77.1345 31.298797,77.5815 31.0469073,78.1845 C30.7980162,78.7825 30.723049,79.3375 30.8310018,79.7915 C30.9399541,80.2485 31.2298272,80.5865 31.6706342,80.7705 C32.0544661,80.9325 32.4253038,80.9475 32.7391664,80.8115 C33.0610254,80.6745 33.3239103,80.3845 33.4988338,79.9725 L33.4988338,79.9725 L33.5088294,79.9495 L32.2513799,79.4235 L32.5202622,78.7775 L34.4454193,79.5805 L34.2165196,80.1305 C33.8256907,81.0675 33.1190001,81.6035 32.2783681,81.6035 C31.9924933,81.6035 31.6966228,81.5405 31.4007523,81.4175 C30.7650307,81.1535 30.3312206,80.6795 30.1463015,80.0505 C29.9633816,79.4245 30.0383488,78.6795 30.3642061,77.8995 C30.8789808,76.6675 31.7525983,75.9825 32.7221738,75.9825 Z M61.5250635,74.8929 L63.8370513,79.8529 L63.0813821,80.2039 L59.210077,77.4009 L59.1321112,77.3449 L60.932323,81.2079 L60.2696132,81.5179 L57.9566258,76.5569 L58.705298,76.2089 L62.5776027,79.0109 L62.6555686,79.0669 L60.8543572,75.2049 L61.5250635,74.8929 Z M27.881693,73.4849 C28.2715224,73.4849 28.6553543,73.5979 29.0151968,73.8209 C30.1896826,74.5479 30.3776003,76.0099 29.482992,77.4589 C28.8772572,78.4369 28.0296283,78.9979 27.1550112,78.9979 C26.7611836,78.9979 26.3803503,78.8859 26.0205079,78.6629 C25.4447599,78.3069 25.0949131,77.7719 25.0109499,77.1169 C24.9259871,76.4609 25.1129052,75.7379 25.5537122,75.0249 C25.9935197,74.3149 26.5542742,73.8239 27.1740029,73.6069 C27.4098996,73.5249 27.6467959,73.4849 27.881693,73.4849 Z M28.6463582,74.4169 C28.2475329,74.1699 27.8077254,74.1269 27.3719162,74.2969 C26.936107,74.4729 26.5252869,74.8579 26.1814374,75.4149 C25.8405866,75.9659 25.6796571,76.5029 25.7146418,76.9679 C25.750626,77.4359 25.9835241,77.8159 26.3893464,78.0669 C26.6292414,78.2169 26.8821306,78.2919 27.1390182,78.2919 C27.312942,78.2919 27.488865,78.2569 27.6627889,78.1869 C28.0985981,78.0129 28.5104178,77.6259 28.8542672,77.0679 C29.5499626,75.9439 29.4709972,74.9279 28.6463582,74.4169 Z M65.5653946,72.3241 L65.9492265,72.9091 L64.5768274,73.8111 L64.5558366,73.8251 L67.1716913,77.8051 L66.5549614,78.2111 L66.5269736,78.1681 L63.9531005,74.2531 L63.9401062,74.2321 L62.5467162,75.1481 L62.1618847,74.5631 L65.5653946,72.3241 Z M24.3111563,70.4851 L24.8739099,70.9511 L21.8572306,74.6021 L21.8412376,74.6211 L23.7044219,76.1621 L23.2586171,76.7021 L20.8326792,74.6961 L24.3111563,70.4851 Z M68.6757328,69.648 L69.1355315,70.178 L67.2003788,71.859 L67.1813871,71.875 L68.220932,73.074 L68.2379245,73.093 L70.0301399,71.536 L70.4699473,72.041 L68.6967237,73.583 L68.677732,73.598 L69.8282283,74.925 L69.8452208,74.943 L71.7993653,73.246 L72.259164,73.774 L69.7522615,75.954 L66.16983,71.827 L68.6757328,69.648 Z M20.5834883,67.4536 C21.1862244,67.4536 21.7239889,67.6976 22.1498025,68.1616 C22.6086017,68.6616 22.8005176,69.2736 22.7025605,69.9286 C22.6046034,70.5776 22.2277684,71.2206 21.6140371,71.7836 C20.9613229,72.3826 20.2216467,72.7116 19.5309491,72.7116 C18.9272134,72.7116 18.3834515,72.4676 17.9606366,72.0046 C17.0290445,70.9886 17.2439504,69.5326 18.496402,68.3816 C19.1111329,67.8186 19.7828388,67.4986 20.4385517,67.4586 C20.4875303,67.4546 20.5355093,67.4536 20.5834883,67.4536 Z M20.6034795,68.1676 C20.0917036,68.1676 19.5349473,68.4296 18.9941841,68.9246 C18.5133946,69.3676 18.2115268,69.8446 18.1215661,70.3036 C18.0336046,70.7576 18.1555513,71.1826 18.4754112,71.5326 C18.7582874,71.8396 19.1111329,71.9996 19.5039609,71.9996 C19.5579373,71.9996 19.6139128,71.9966 19.6688887,71.9906 C20.1336852,71.9416 20.6334664,71.6826 21.116255,71.2406 C22.0908283,70.3466 22.2887417,69.3476 21.6350279,68.6336 C21.3551504,68.3286 20.9983067,68.1676 20.6034795,68.1676 Z M72.9525604,64.6475 L73.5033193,65.0785 L72.4877639,66.3705 L72.4717709,66.3905 L76.2121333,69.3345 L75.7563329,69.9145 L72.0359617,66.9875 L72.0159704,66.9715 L70.9844221,68.2845 L70.4346628,67.8515 L72.9525604,64.6475 Z M18.0197107,62.9227 L20.3207033,66.2807 L19.7439558,66.6767 L18.8163619,65.3217 L18.8023681,65.3007 L14.8800853,67.9897 L14.4622682,67.3827 L18.3645598,64.7077 L18.3855506,64.6947 L17.4429632,63.3187 L18.0197107,62.9227 Z M75.00916,61.1596 L75.6128957,61.5146 L74.312465,63.7236 L74.3004703,63.7446 L75.689862,64.5636 L76.8933351,62.5176 L77.4700826,62.8566 L76.2796038,64.8816 L76.2666095,64.9036 L77.7789473,65.7936 L77.8009377,65.8066 L79.1133631,63.5756 L79.7170988,63.9306 L78.0338357,66.7916 L73.3268965,64.0206 L75.00916,61.1596 Z M16.9580755,60.8333 L17.2739372,61.4413 L13.3246663,65.7043 L12.9738199,65.0273 L13.7464816,64.2113 L13.7594759,64.1973 L12.6889446,62.1323 L12.6809481,62.1173 L11.5484439,62.2823 L11.1985971,61.6053 L16.9580755,60.8333 Z M48.0768263,27.58975 L48.132427,27.5915 L48.0924445,28.4015 C48.0614581,28.4005 48.0294721,28.4005 47.9974861,28.4005 C45.3736348,28.4005 41.988117,31.8905 41.956131,31.9255 L41.956131,31.9255 L28.5869842,45.3005 C28.1691672,45.7175 27.9392678,46.2745 27.9392678,46.8665 C27.9392678,47.4575 28.1691672,48.0145 28.5869842,48.4315 C28.9848101,48.8305 29.5545606,49.0605 30.1512994,49.0605 L30.1512994,49.0605 C30.7480381,49.0605 31.3187882,48.8315 31.716614,48.4335 L31.716614,48.4335 L37.9238964,42.2245 L38.4976452,42.7985 L29.5525615,51.7465 C29.1347444,52.1645 28.9048451,52.7215 28.9048451,53.3135 C28.9048451,53.9065 29.1347444,54.4615 29.5525615,54.8795 C30.4151838,55.7445 31.8205685,55.7445 32.6831909,54.8795 L32.6831909,54.8795 L42.1180602,45.4405 L42.6928085,46.0145 L31.266811,57.4455 C30.4031891,58.3085 30.4031891,59.7145 31.266811,60.5785 C31.6836285,60.9955 32.2403847,61.2255 32.8331252,61.2255 C33.4248661,61.2255 33.9816224,60.9955 34.3974403,60.5785 L34.3974403,60.5785 L46.6770642,48.2915 L47.2518125,48.8665 L36.5624925,59.5595 C35.6988706,60.4235 35.6988706,61.8295 36.5624925,62.6925 C36.97931,63.1105 37.5350666,63.3395 38.1278071,63.3395 C38.7195481,63.3395 39.2763043,63.1105 39.6941214,62.6925 L39.6941214,62.6925 L52.5135089,49.8665 C53.6859956,48.6985 55.5931606,48.6965 56.7666468,49.8665 C57.314407,50.4145 57.62727,51.1435 57.6462617,51.9175 L57.6462617,51.9175 L57.6472613,58.7835 C57.6472613,60.0035 58.6408263,60.9975 59.8622915,60.9975 C61.0827572,60.9975 62.0763222,60.0035 62.0763222,58.7835 L62.0763222,58.7835 L62.0763222,47.4145 L62.8879668,47.4145 L62.8879668,58.7835 C62.8879668,60.4525 61.5305611,61.8085 59.8622915,61.8085 C58.1930223,61.8085 56.8356166,60.4525 56.8356166,58.7835 L56.8356166,58.7835 L56.8356166,51.9935 C56.8226223,51.3845 56.5997199,50.8475 56.1918984,50.4405 C55.336273,49.5835 53.9428831,49.5835 53.0872577,50.4405 L53.0872577,50.4405 L40.2678702,63.2665 C39.6961205,63.8365 38.9374527,64.1505 38.1288067,64.1505 C37.3201607,64.1505 36.5604933,63.8365 35.9887436,63.2665 C35.4069983,62.6845 35.0951349,61.9055 35.1101283,61.0735 L35.1101283,61.0735 L35.1111279,61.0115 L34.9711891,61.1515 C34.4024382,61.7215 33.6417712,62.0355 32.8321257,62.0355 C32.0224801,62.0355 31.2628127,61.7215 30.6930622,61.1515 C29.5135786,59.9715 29.5135786,58.0515 30.6930622,56.8705 L30.6930622,56.8705 L31.2298272,56.3325 L31.1698534,56.3325 C31.1518613,56.3325 31.1348687,56.3375 31.1178762,56.3375 C30.3082307,56.3375 29.5485632,56.0245 28.9778131,55.4545 C28.407063,54.8805 28.0932004,54.1215 28.0932004,53.3135 C28.0932004,52.5055 28.407063,51.7455 28.9778131,51.1725 L28.9778131,51.1725 L30.2632503,49.8865 L30.2032766,49.8865 C30.1872836,49.8865 30.1692915,49.8915 30.1522989,49.8915 C29.3456521,49.8915 28.5849851,49.5775 28.0132354,49.0065 C26.8337518,47.8265 26.8337518,45.9065 28.0132354,44.7255 L28.0132354,44.7255 L41.3763849,31.3565 C41.4133687,31.3185 45.0457784,27.5895 48.020476,27.5895 C48.0584594,27.5895 48.0954432,27.5895 48.132427,27.5915 Z M16.1824151,61.6223 L13.4056308,62.0193 L13.3706462,62.0243 L14.2192746,63.6613 L14.2352676,63.6923 L16.1344361,61.6743 L16.1824151,61.6223 Z M75.9221603,58.8192 C76.3239843,57.8662 77.2095966,57.3852 78.1781726,57.6012 L78.1781726,57.6012 L78.2271511,57.6122 L78.0872124,58.3342 L78.0372343,58.3252 C77.3375406,58.2062 76.8277638,58.4772 76.5638793,59.0982 C76.3219852,59.6752 76.4429323,60.1652 76.8727441,60.3462 C77.2275887,60.4952 77.5344544,60.3052 78.1831704,59.5402 C79.154745,58.4152 79.8114575,58.1192 80.6071091,58.4582 C81.0109323,58.6282 81.2978067,58.9572 81.4147555,59.3842 C81.5327039,59.8092 81.4797271,60.3072 81.2628221,60.8222 C80.8619975,61.7732 80.2062846,62.2772 79.3676518,62.2772 C79.1237586,62.2772 78.8648719,62.2352 78.5969892,62.1512 L78.5969892,62.1512 L78.5520089,62.1362 L78.7219345,61.4152 L78.7729122,61.4302 C79.6655214,61.6962 80.2532641,61.4162 80.6191039,60.5432 C80.7580431,60.2172 80.8020238,59.9092 80.7460483,59.6542 C80.6930715,59.4072 80.5491345,59.2282 80.3282312,59.1352 C79.844443,58.9372 79.4506155,59.1492 78.7109393,60.0192 C77.8083345,61.0572 77.2735686,61.3122 76.5888684,61.0212 C75.7912176,60.6842 75.5173375,59.7782 75.9221603,58.8192 Z M14.2227731,53.5961 L14.5066488,54.4821 L11.080149,57.3531 L11.0331695,57.3931 L15.5501919,57.7461 L15.8330681,58.6301 L10.6253481,60.2981 L10.4004465,59.5951 L14.3847022,58.3181 L9.87067849,57.9371 L9.76772356,57.6171 L13.124254,54.7681 L13.220212,54.6871 L9.23895506,55.9621 L9.01505309,55.2641 L14.2227731,53.5961 Z M78.0293377,52.6495 L78.7050419,52.8305 L78.2782287,54.4175 L78.2712318,54.4425 L82.8652205,55.6765 L82.6753037,56.3905 L78.1053045,55.1615 L78.081315,55.1555 L77.6485045,56.7665 L76.9718007,56.5845 L78.0293377,52.6495 Z M84.0120184,49.1558 L83.9070644,49.9088 L82.8025479,50.1308 L82.7845558,50.1338 L82.466695,52.4358 L82.4636963,52.4538 L83.4822504,52.9748 L83.3782959,53.7288 L78.2335483,51.0268 L78.3275072,50.3488 L84.0120184,49.1558 Z M13.5635617,49.0479 L13.8384413,51.0359 C13.9164072,51.5959 13.8314444,52.0799 13.5935486,52.4349 C13.3556527,52.7869 12.966823,53.0109 12.4680413,53.0799 C12.3720833,53.0939 12.279124,53.1009 12.1881639,53.1009 C11.5034636,53.1009 10.9646995,52.7119 10.7178076,52.0209 L10.7178076,52.0209 L10.7068124,51.9899 L8.6587091,53.4799 L8.54076074,52.6279 L10.5278907,51.2139 L10.5398855,51.2049 L10.4049446,50.2229 L8.24888853,50.5219 L8.14893229,49.7979 L13.5635617,49.0479 Z M12.9708212,49.8679 L11.1226304,50.1249 L11.0976413,50.1279 L11.2655678,51.3389 C11.3235424,51.7539 11.4634811,52.0479 11.6813857,52.2109 C11.8173262,52.3129 11.9842531,52.3629 12.1791678,52.3629 C12.2391415,52.3629 12.302114,52.3579 12.3670855,52.3489 C12.6729516,52.3069 12.8928553,52.1799 13.0207993,51.9709 C13.1507424,51.7579 13.1897254,51.4569 13.1377481,51.0769 L13.1377481,51.0769 L12.9708212,49.8679 Z M82.1048534,50.2708 L79.390042,50.8178 L79.3200726,50.8318 L81.8169794,52.1138 L81.8479659,52.1298 L82.1048534,50.2708 Z M78.6211786,44.6788 L79.3208723,44.6888 L79.2948836,46.3318 L79.2948836,46.3568 L84.0528006,46.4298 L84.0428049,47.1688 L79.3098771,47.0968 L79.284888,47.0968 L79.259899,48.7648 L78.5592057,48.7548 L78.6211786,44.6788 Z M13.4527102,44.8072 L13.5036879,48.1252 L12.8039942,48.1352 L12.7650113,45.5752 L12.7640117,45.5502 L11.1787058,45.5732 L11.1537168,45.5742 L11.189701,47.9462 L10.5209938,47.9562 L10.4850095,45.6092 L10.48401,45.5842 L8.73077755,45.6112 L8.70578849,45.6122 L8.74577098,48.1972 L8.04507776,48.2082 L7.9960992,44.8902 L13.4527102,44.8072 Z M81.3115007,39.4165 C81.9072399,39.4165 82.4410062,39.5535 82.8748163,39.8225 C83.4385695,40.1715 83.7814194,40.7125 83.8663822,41.3875 C83.9533441,42.0635 83.7554308,42.6715 83.2966316,43.1505 C82.8398316,43.6255 82.1621283,43.9325 81.3354902,44.0375 C81.1575681,44.0595 80.9746482,44.0715 80.7927279,44.0715 C79.3623541,44.0715 78.3787847,43.3175 78.2238526,42.1045 C78.1378902,41.4265 78.3358035,40.8175 78.7946027,40.3415 C79.2494036,39.8655 79.9271068,39.5595 80.7547445,39.4545 C80.9456609,39.4295 81.1315795,39.4165 81.3115007,39.4165 Z M89.3712721,39.2984 C90.1049509,39.2984 90.7496686,39.4994 91.2174638,39.8774 C91.6602699,40.2374 91.9261535,40.7394 91.9871268,41.3314 C92.1290647,42.7064 91.0865211,43.7484 89.3912633,43.9234 C89.234332,43.9404 89.081399,43.9484 88.9354629,43.9484 C88.2967425,43.9484 87.7239933,43.7954 87.279188,43.5064 C86.7224318,43.1444 86.3915766,42.5944 86.3226068,41.9164 C86.2516379,41.2394 86.4625455,40.6334 86.9333394,40.1654 C87.4011346,39.7004 88.0868344,39.4094 88.9174707,39.3234 C89.0714034,39.3074 89.2233368,39.2984 89.3712721,39.2984 Z M1.06653306,39.9445 C1.59230287,39.5615 2.30599041,39.4055 3.12863024,39.4935 C4.04522894,39.5875 4.72193267,39.8835 5.14074931,40.3735 C5.52757995,40.8275 5.68451125,41.4335 5.60654538,42.1735 L5.60654538,42.1735 L5.43562021,43.8425 L0,43.2785 L0.176922541,41.5665 C0.24789147,40.8755 0.555756682,40.3155 1.06653306,39.9445 Z M56.0770487,24.4045 L61.2947643,32.4915 C62.620184,34.6715 62.8880668,35.8175 62.8880668,36.9575 C62.8880668,40.7145 59.8324046,43.7715 56.0770487,43.7715 C52.3216929,43.7715 49.2660307,40.7145 49.2660307,36.9575 C49.2660307,35.8175 49.5319143,34.6725 50.8523362,32.5005 L50.8523362,32.5005 L56.0770487,24.4045 Z M8.61013037,39.2057 L14.0247598,39.9347 L13.79586,41.6417 C13.6279335,42.8867 12.6783492,43.6597 11.3169453,43.6597 C11.1450206,43.6597 10.9640998,43.6477 10.7801803,43.6227 C9.02894701,43.3857 8.17931899,42.4067 8.38722796,40.8657 L8.38722796,40.8657 L8.61013037,39.2057 Z M82.4639962,40.4115 C82.053176,40.1805 81.4954202,40.1005 80.8477038,40.1875 C80.1989878,40.2685 79.6772163,40.4835 79.3383646,40.8085 C79.0035112,41.1255 78.8585747,41.5435 78.9185484,42.0155 C78.9315427,42.1195 78.9795217,42.2005 79.0105081,42.2935 C79.0195042,42.3195 79.0265011,42.3465 79.0364968,42.3725 C79.2783909,42.9775 79.8851252,43.3345 80.7657397,43.3345 C80.9176732,43.3345 81.0776031,43.3255 81.2425309,43.3035 C81.8922465,43.2215 82.414018,43.0065 82.7518701,42.6845 C83.0867235,42.3655 83.2326596,41.9475 83.1726859,41.4745 C83.1127121,41.0035 82.8678194,40.6365 82.4639962,40.4115 Z M89.4062567,40.0364 C89.2803119,40.0364 89.145371,40.0434 88.9934375,40.0594 C88.3417228,40.1264 87.8149534,40.3294 87.4681053,40.6444 C87.1252554,40.9574 86.9703232,41.3714 87.0183022,41.8454 C87.0682803,42.3184 87.3051766,42.6924 87.704002,42.9264 C88.0228624,43.1144 88.4356817,43.2094 88.9124729,43.2094 C89.0434156,43.2094 89.177357,43.2034 89.3162961,43.1884 C89.9670112,43.1214 90.4937806,42.9184 90.8416283,42.6034 L90.8416283,42.6034 L90.9486665,42.4953492 C91.2156004,42.1974617 91.3339683,41.8228444 91.2904318,41.4024 C91.2494498,41.0054 91.0815233,40.6844 90.7906506,40.4484 C90.4597955,40.1794 89.9810051,40.0364 89.4062567,40.0364 Z M3.05366307,40.2285 C2.36096634,40.1535 1.79421447,40.2785 1.4133812,40.5865 C1.36640177,40.6245 1.34341184,40.6825 1.30242978,40.7255 C1.28243853,40.7455 1.2674451,40.7705 1.24945297,40.7915 C1.12950549,40.9335 1.03754575,41.0975 0.976572444,41.2865 C0.968575945,41.3115 0.96257857,41.3355 0.955581634,41.3615 C0.926594325,41.4655 0.880614455,41.5575 0.868619707,41.6745 L0.868619707,41.6745 L0.774660843,42.5985 L0.772661718,42.6235 L4.78990292,43.0385 L4.81489198,43.0415 L4.90785128,42.1405 C4.96482633,41.5825 4.85587403,41.1605 4.57799569,40.8485 C4.27712742,40.5105 3.76435192,40.3015 3.05366307,40.2285 Z M56.0770487,25.9025 L51.5390355,32.9325 C50.3165707,34.9425 50.0776753,35.9305 50.0776753,36.9575 C50.0776753,40.2675 52.7684972,42.9595 56.0770487,42.9595 C59.3856002,42.9595 62.0764221,40.2675 62.0764221,36.9575 C62.0764221,35.9305 61.8355276,34.9405 60.6070654,32.9215 L60.6070654,32.9215 L56.0980395,25.9345 L56.0770487,25.9025 Z M9.20686911,40.0227 L9.0849225,40.9227 C9.01095488,41.4777 9.10591331,41.9027 9.37579515,42.2237 C9.66566824,42.5697 10.1714468,42.7947 10.8781374,42.8897 C11.0410661,42.9107 11.1949987,42.9217 11.3409348,42.9217 C12.1935615,42.9217 12.7573147,42.5457 12.9922118,41.8837 C12.9972096,41.8687 13.0012079,41.8537 13.0062057,41.8377 C13.0411904,41.7297 13.0901689,41.6337 13.1071615,41.5097 L13.1071615,41.5097 L13.2301077,40.5907 L13.2341059,40.5667 L9.23085861,40.0267 L9.20686911,40.0227 Z M1.44796606,34.3273 L2.13166673,34.4793 L1.57491048,36.9823 L1.56891311,37.0063 L3.1182348,37.3513 L3.14222429,37.3573 L3.65799848,35.0403 L4.31171227,35.1853 L3.80193546,37.4783 L3.79593809,37.5033 L5.51018757,37.8833 L5.53417706,37.8893 L6.09693068,35.3633 L6.78063135,35.5143 L6.05794775,38.7553 L0.726282024,37.5683 L1.44796606,34.3273 Z M90.4237113,33.5953 L90.8245358,35.2693 C91.1563905,36.6673 90.3327511,37.8173 88.7244553,38.2023 C88.3746084,38.2853 88.0437533,38.3273 87.742885,38.3273 C86.564401,38.3273 85.7887405,37.6943 85.5008666,36.4963 L85.5008666,36.4963 L85.1120368,34.8663 L90.4237113,33.5953 Z M89.9129349,34.4693 L85.9876535,35.4093 L85.963664,35.4153 L86.1735721,36.2953 C86.3065139,36.8513 86.5743966,37.2323 86.9682242,37.4283 C87.1841296,37.5363 87.4450154,37.5903 87.7448841,37.5903 C87.9877778,37.5903 88.2586592,37.5543 88.5535301,37.4843 C89.8029831,37.1843 90.3797305,36.4223 90.1348378,35.3953 L90.1348378,35.3953 L89.9129349,34.4693 Z M46.0375441,10.5126 C61.2788713,10.5126 74.805949,20.2606 79.7078029,34.7726 L79.7078029,34.7726 L78.9381398,35.0336 C74.1492365,20.8506 60.930024,11.3246 46.0375441,11.3246 C31.1450643,11.3246 17.9268514,20.8506 13.137948,35.0336 L13.137948,35.0336 L12.368285,34.7726 C17.2701389,20.2606 30.7972166,10.5126 46.0375441,10.5126 Z M2.57457282,30.7959 C2.9524074,29.7089 3.75405642,29.2629 4.72363193,29.5979 C5.50528971,29.8679 5.90811335,30.5189 5.8031593,31.3359 L5.8031593,31.3359 L5.79816149,31.3689 L8.30006612,30.9719 L8.01918909,31.7859 L5.60624551,32.1429 L5.59125208,32.1449 L5.2743908,33.0569 L5.26539474,33.0799 L7.32249411,33.7929 L7.08259914,34.4829 L1.91686077,32.6919 Z M89.0743021,29.6818 L89.3141971,30.3228 L84.8971309,34.0708 L84.6312473,33.3588 L85.4948692,32.6418 L85.5088631,32.6298 L84.6942197,30.4608 L84.6872228,30.4438 L83.5477217,30.4728 L83.2808385,29.7608 L89.0743021,29.6818 Z M4.48173784,30.2959 C4.18986562,30.1949 3.93697634,30.2089 3.72906736,30.3349 C3.51616058,30.4649 3.34523541,30.7149 3.21829099,31.0779 L3.21829099,31.0779 L2.8274621,32.2069 L2.8194656,32.2299 L4.57969495,32.8419 L4.60368445,32.8509 L5.00450896,31.6969 C5.25439955,30.9749 5.07847658,30.5029 4.48173784,30.2959 Z M88.2126793,30.3728 L85.4169033,30.4338 L85.3819187,30.4348 L86.027636,32.1538 L86.0396307,32.1878 L88.1577034,30.4188 L88.2126793,30.3728 Z M6.24366644,22.7794 L11.0955422,25.2804 L10.7576901,25.9364 L7.15526733,24.0794 L7.0443159,24.0214 L9.96403761,27.4784 L9.81010501,27.7784 L5.42602441,27.4184 L5.30107912,27.4094 L9.01445335,29.3224 L8.68059952,29.9724 L3.82772417,27.4704 L4.25253818,26.6464 L8.69759208,27.0394 L8.75856538,27.0434 L5.81785287,23.6034 L6.24366644,22.7794 Z M86.15538,23.3925 L87.1299533,25.2695 C87.5747586,26.1255 87.3608523,26.9695 86.5981862,27.3675 C86.1753713,27.5835 85.7365634,27.5925 85.3917144,27.3935 L85.3917144,27.3935 L85.3527314,27.3705 L85.353731,27.4155 C85.3667253,27.9225 85.072854,28.3835 84.5660758,28.6465 C84.2812006,28.7945 84.0053214,28.8695 83.7474343,28.8695 C83.1446981,28.8695 82.6299235,28.4695 82.2201029,27.6805 L82.2201029,27.6805 L81.3025047,25.9135 L86.15538,23.3925 Z M83.8843743,25.3965 L82.2830754,26.2275 L82.261085,26.2395 L82.8038474,27.2835 C83.0427428,27.7455 83.2876356,28.0095 83.5525196,28.0925 C83.615492,28.1145 83.6814631,28.1235 83.7504329,28.1235 C83.8953695,28.1235 84.0513012,28.0785 84.2262246,27.9895 C84.4681187,27.8635 84.6150544,27.7115 84.6750281,27.5265 C84.7569923,27.2705 84.6790264,26.9295 84.433134,26.4535 L84.433134,26.4535 L83.8963691,25.4185 L83.8843743,25.3965 Z M85.8705047,24.3645 L84.4941074,25.0795 L84.472117,25.0915 L85.056861,26.2165 C85.2297853,26.5505 85.4207017,26.7455 85.6386063,26.8135 C85.6965809,26.8315 85.7565546,26.8405 85.8175279,26.8405 C85.9454719,26.8405 86.0814124,26.8025 86.2293476,26.7245 C86.4552487,26.6075 86.587191,26.4415 86.6251743,26.2335 C86.6621582,26.0285 86.6041835,25.7785 86.4552487,25.4905 L86.4552487,25.4905 L85.8814999,24.3865 L85.8705047,24.3645 Z M8.6194263,19.2569 L14.2109782,20.8259 L13.7701712,21.4459 L12.6896443,21.1309 L12.6726517,21.1259 L11.3272408,23.0199 L11.3172452,23.0349 L11.9809546,23.9679 L11.539148,24.5889 L8.22260004,19.8149 L8.6194263,19.2569 Z M80.3704128,19.6068 C81.767801,18.6418 83.2321599,18.7508 84.0168163,19.8828 C84.403647,20.4408 84.5096006,21.0708 84.3246815,21.7068 C84.1397625,22.3378 83.6809634,22.9208 82.9962631,23.3958 C82.377534,23.8248 81.728818,24.0518 81.1230832,24.0518 C80.3984005,24.0518 79.7686762,23.7208 79.3498596,23.1188 C78.9630289,22.5598 78.8580749,21.9298 79.0429939,21.2938 C79.2289125,20.6618 79.6877117,20.0788 80.3704128,19.6068 Z M82.2735795,19.6648 C81.8177791,19.6648 81.3060031,19.8548 80.7922281,20.2108 C80.253464,20.5828 79.8906228,21.0138 79.7406885,21.4568 C79.5907541,21.8938 79.6547261,22.3298 79.9236084,22.7198 C80.2084837,23.1298 80.6153055,23.3358 81.0930964,23.3358 C81.5409003,23.3358 82.0506771,23.1538 82.5764469,22.7888 C83.1122124,22.4178 83.4760531,21.9878 83.626987,21.5448 C83.7759218,21.1068 83.7119498,20.6698 83.4430675,20.2808 C83.1641896,19.8788 82.7593668,19.6648 82.2735795,19.6648 Z M9.27813791,20.1449 L10.8984285,22.4359 L10.9194193,22.4639 L11.9859524,20.9609 L12.0059436,20.9319 L9.34610815,20.1649 L9.27813791,20.1449 Z M79.1812334,14.1097 L80.5186479,15.6007 C81.2853122,16.4547 81.2883109,17.3737 80.5266444,18.0597 C79.9109139,18.6087 79.1492474,18.6477 78.4875371,18.1597 L78.4875371,18.1597 L78.4605489,18.1407 L77.596927,20.5187 L77.0231782,19.8797 L77.8788036,17.5987 L77.8838014,17.5837 L77.2240903,16.8497 L75.6077979,18.3017 L75.1180123,17.7567 L79.1812334,14.1097 Z M12.6850463,14.3158 L13.2108161,14.7788 L12.1262909,16.0148 L12.1092984,16.0328 L15.6867321,19.1748 L15.1999453,19.7318 L11.6405036,16.6058 L11.6215119,16.5888 L10.5199942,17.8428 L9.9942244,17.3798 L12.6850463,14.3158 Z M79.1482478,15.1217 L77.7448623,16.3817 L78.558506,17.2877 C78.8363844,17.5967 79.1132632,17.7607 79.383145,17.7757 C79.3951398,17.7767 79.4081341,17.7767 79.4211284,17.7767 C79.6300369,17.7767 79.8359468,17.6867 80.0328605,17.5087 C80.2617603,17.3027 80.3727118,17.0747 80.3637157,16.8317 C80.3527205,16.5827 80.2177796,16.3137 79.9618916,16.0287 L79.9618916,16.0287 L79.1482478,15.1217 Z M16.5478551,11.2697 C16.6668031,11.2697 16.7877501,11.2797 16.9106963,11.3007 C17.5604118,11.4047 18.1971331,11.7887 18.7548889,12.4087 C19.3106455,13.0307 19.6235086,13.7067 19.6574937,14.3627 C19.6924784,15.0257 19.4425878,15.6137 18.9368092,16.0687 C18.5269886,16.4367 18.0352039,16.6307 17.5144319,16.6307 C16.7557641,16.6307 15.9761054,16.2267 15.319393,15.4937 C14.7616372,14.8727 14.4487741,14.1957 14.4157886,13.5407 C14.3818035,12.8797 14.6306945,12.2897 15.1374726,11.8347 C15.5512914,11.4617 16.0330805,11.2697 16.5478551,11.2697 Z M16.5368599,11.9847 C16.1930105,11.9847 15.8791479,12.1097 15.6052678,12.3557 C15.2524223,12.6717 15.0884941,13.0827 15.1324748,13.5437 C15.1774551,14.0097 15.4323435,14.5137 15.8681527,15.0007 C16.3039619,15.4867 16.7777545,15.7947 17.2365536,15.8897 C17.3375094,15.9107 17.4374656,15.9217 17.5354228,15.9217 C17.875274,15.9217 18.1931348,15.7947 18.4680145,15.5477 C18.8228591,15.2297 18.9847882,14.8157 18.9378088,14.3477 C18.8908293,13.8827 18.6369405,13.3837 18.2051296,12.9027 C17.6743619,12.3107 17.082621,11.9847 16.5368599,11.9847 Z M75.0979211,10.3565 L76.6892244,11.7545 C77.5428507,12.5045 77.6428069,13.4625 76.9491107,14.2525 C76.6062608,14.6435 76.1954406,14.8555 75.7636297,14.8655 L75.7636297,14.8655 L75.7306441,14.8655 C75.3068297,14.8655 74.8640235,14.6725 74.4492051,14.3065 L74.4492051,14.3065 L73.4246537,13.4085 L73.405662,13.3915 L72.0432585,14.9455 L71.4934992,14.4615 L75.0979211,10.3565 Z M75.1848831,11.3665 L73.8864515,12.8445 L73.869459,12.8635 L74.8820157,13.7545 C75.1828839,14.0185 75.4497671,14.1475 75.6956594,14.1475 C75.7116524,14.1475 75.7266459,14.1465 75.7416393,14.1455 C75.96854,14.1305 76.1824463,14.0065 76.393354,13.7655 C76.6202546,13.5085 76.7152131,13.2625 76.6852262,13.0135 C76.6532402,12.7655 76.489312,12.5115 76.1984393,12.2565 L76.1984393,12.2565 L75.2038747,11.3825 L75.1848831,11.3665 Z M18.8746364,8.9185 L21.6204343,12.7865 L21.6354277,12.8065 L23.6085639,11.4045 L24.0153857,11.9745 L21.4445113,13.8005 L18.2788973,9.3415 L18.8746364,8.9185 Z M69.0352754,6.1898 L71.8580396,7.9368 L71.4902006,8.5328 L69.3101551,7.1828 L69.2881647,7.1698 L68.4405358,8.5408 L70.4586523,9.7908 L70.1058067,10.3608 L68.1096807,9.1238 L68.0886899,9.1108 L67.1520999,10.6248 L69.3521367,11.9878 L68.9832982,12.5838 L66.160534,10.8368 L69.0352754,6.1898 Z M24.8125367,5.3858 C25.0804195,5.3858 25.3493017,5.4398 25.6131862,5.5478 C26.2229193,5.7958 26.7606838,6.3148 27.1655066,7.0458 C27.5693298,7.7778 27.7222628,8.5098 27.6073132,9.1588 C27.4913639,9.8138 27.1145289,10.3338 26.5177902,10.6638 C26.1809376,10.8498 25.8270926,10.9428 25.4672501,10.9428 C24.5536501,10.9428 23.695026,10.3398 23.1132807,9.2858 C22.7084579,8.5528 22.5565245,7.8228 22.6704746,7.1728 C22.7874234,6.5198 23.1642584,5.9988 23.7609971,5.6688 C24.1008483,5.4808 24.455693,5.3858 24.8125367,5.3858 Z M25.3812877,6.2288 C24.9624711,6.0348 24.5146672,6.0538 24.1008483,6.2838 C23.6840308,6.5138 23.4311415,6.8788 23.3701682,7.3388 C23.3091949,7.8048 23.4441358,8.3538 23.7609971,8.9268 C24.0778584,9.5028 24.471686,9.9098 24.8974995,10.1058 C25.0894155,10.1938 25.2863293,10.2378 25.4822435,10.2378 C25.7171407,10.2378 25.9520379,10.1748 26.1789385,10.0488 C26.5947565,9.8188 26.8466462,9.4538 26.9076195,8.9928 C26.9695924,8.5258 26.8336519,7.9788 26.5167906,7.4058 C26.2009289,6.8308 25.8071013,6.4238 25.3812877,6.2288 Z M63.9973811,3.656 L67.681768,5.413 L67.3808997,6.047 L65.8725601,5.327 L63.8204586,9.634 L63.1527509,9.314 L65.1938573,5.032 L65.2048524,5.01 L63.6965128,4.29 L63.9973811,3.656 Z M30.1513993,2.9315 C30.8740829,2.9315 31.5267971,3.3165 31.9306203,4.0215 L31.9306203,4.0215 L31.9556094,4.0645 L31.3258851,4.4535 L31.2988969,4.4105 C30.867086,3.7045 30.2743455,3.4745 29.5846474,3.7425 C29.1438404,3.9145 28.8459708,4.2425 28.7260234,4.6885 C28.6020776,5.1395 28.6630509,5.7005 28.8999472,6.3105 C29.1378431,6.9195 29.4716969,7.3725 29.866524,7.6225 C30.2593521,7.8715 30.6991595,7.9125 31.1389669,7.7385 C31.5287963,7.5855 31.8046755,7.3395 31.9376173,7.0265 C32.0735578,6.7065 32.061563,6.3165 31.9026326,5.8965 L31.9026326,5.8965 L31.8936365,5.8725 L30.6251919,6.3675 L30.371303,5.7145 L32.3124532,4.9585 L32.5273591,5.5125 C32.7732514,6.1445 32.7962414,6.7485 32.5933302,7.2605 C32.3924182,7.7715 31.9766002,8.1625 31.3938554,8.3895 C31.1149774,8.4975 30.8360995,8.5525 30.5662177,8.5525 C29.5586588,8.5525 28.7010343,7.8335 28.2132479,6.5785 C27.9063822,5.7895 27.8494072,5.0465 28.0483201,4.4275 C28.2462334,3.8025 28.6900391,3.3415 29.3317582,3.0925 C29.6086369,2.9845 29.8845162,2.9315 30.1513993,2.9315 Z M58.8154498,1.824 L59.5991067,2.086 L60.4837194,6.782 L60.500712,6.877 L61.8471225,2.836 L62.5478157,3.07 L60.8205719,8.26 L60.0289185,7.996 L59.1443058,3.3 L59.1273133,3.205 L57.7809028,7.246 L57.0872065,7.015 L58.8154498,1.824 Z M33.566904,1.783 L35.0872383,7.035 L34.384546,7.237 L32.8642116,1.985 L33.566904,1.783 Z M53.8832092,0.7152 L57.1357852,1.3852 L56.9938473,2.0732 L54.4819471,1.5542 L54.4579576,1.5492 L54.1370981,3.1052 L54.1321002,3.1302 L56.4580819,3.6092 L56.323141,4.2662 L54.0211488,3.7912 L53.9971593,3.7862 L53.6423147,5.5072 L53.6373169,5.5312 L56.1742062,6.0542 L56.0322683,6.7412 L52.7796923,6.0692 L53.8832092,0.7152 Z M37.3494479,0.785 C38.447967,0.57 39.402549,1.153 39.7763854,2.26 L39.7763854,2.26 L39.7913788,2.307 L39.1016808,2.568 L39.0826891,2.519 C38.7738243,1.699 38.2210663,1.336 37.4833893,1.472 C36.5348046,1.658 36.0999949,2.579 36.3518847,3.876 C36.6087722,5.191 37.3374532,5.866 38.3010313,5.681 C39.0816895,5.527 39.4485289,4.944 39.3625665,3.994 L39.3625665,3.994 L39.3575687,3.941 L40.1132379,3.892 L40.1192353,3.941 C40.2621727,5.208 39.6164554,6.138 38.4349727,6.366 C38.2840387,6.396 38.128107,6.412 37.9731748,6.412 C37.4723941,6.412 37.0215915,6.248 36.6367599,5.923 C36.1379783,5.505 35.7901306,4.847 35.6292011,4.017 C35.4702706,3.2 35.5491924,2.46 35.8561017,1.878 C36.1659661,1.293 36.6827398,0.915 37.3494479,0.785 Z M46.5911018,0 L47.5186957,0.063 L48.9190826,4.311 L48.9390738,4.37 L50.937199,0.3 L51.8637933,0.362 L51.4879579,5.822 L50.7502809,5.77 L51.0301583,1.719 L51.0391544,1.594 L49.0160401,5.651 L48.6801872,5.629 L47.2718038,1.453 L47.2318213,1.334 L46.9439473,5.509 L46.2152663,5.459 L46.5911018,0 Z M43.1460101,0.1613 L45.4779891,5.4863 L44.7173222,5.5393 L44.2765152,4.5033 L44.2695182,4.4863 L41.9515331,4.6443 L41.9335409,4.6463 L41.6326727,5.7513 L40.8720057,5.8023 L42.4623094,0.2083 L43.1460101,0.1613 Z M24.0479715,3.9677 L23.7630962,5.2597 L23.190347,5.5757 L23.2653141,4.4017 L24.0479715,3.9677 Z M42.8761283,1.2353 L42.1324539,3.9413 L42.1224582,3.9753 L43.961653,3.8503 L43.9976372,3.8473 L42.904116,1.3003 L42.8761283,1.2353 Z" id="path-1"></path>
    </defs>
    <g id="Yanbal-UI-Visual-Kit" stroke="none" stroke-width="1" fill="none" fill-rule="evenodd">
        <g id="yanbal-styleguide-pag2" transform="translate(-1202.000000, -5750.000000)">
            <g id="Group" transform="translate(1200.000000, 5747.000000)">
                <g id="elements" transform="translate(2.000000, 3.000000)">
                    <mask id="mask-2" fill="white">
                        <use xlink:href="#path-1"></use>
                    </mask>
                    <use id="Mask" fill="#1C1F28" fill-rule="nonzero" xlink:href="#path-1"></use>
                </g>
            </g>
        </g>
    </g>
</svg>