<?xml version="1.0" encoding="UTF-8"?>
<svg width="92px" height="90px" viewBox="0 0 92 90" version="1.1" xmlns="http://www.w3.org/2000/svg" xmlns:xlink="http://www.w3.org/1999/xlink">
    <title>3. icons/seal/bloque3/dermatologicamenteaprobado</title>
    <g id="Yanbal-UI-Visual-Kit" stroke="none" stroke-width="1" fill="none" fill-rule="evenodd">
        <g id="yanbal-styleguide-pag2" transform="translate(-1082.000000, -5750.000000)" fill="#1C1F28">
            <g id="Group" transform="translate(1080.000000, 5747.000000)">
                <g id="elements" transform="translate(2.000000, 2.999800)">
                    <path d="M89.0352216,47.8313 L89.075266,47.8333 L89.8821606,47.8653 L89.8801584,47.9053 C88.9591372,71.5103 69.703787,90.0013 46.0445538,90.0013 C22.3853207,90.0013 3.1309716,71.5103 2.21095149,47.9053 L2.21095149,47.9053 L2.20995038,47.8653 L2.24999478,47.8633 L3.05588835,47.8313 L3.05789057,47.8713 C3.9598907,71.0203 22.8418268,89.1533 46.0445538,89.1533 C69.248282,89.1533 88.1322203,71.0203 89.0332193,47.8713 L89.0332193,47.8713 L89.0352216,47.8313 Z M48.6975955,78.5428 C49.7227322,78.5428 50.5156113,79.2138 50.7418622,80.2928 L50.7418622,80.2928 L50.7498711,80.3298 L50.71283,80.3398 L50.0561018,80.5008 L50.0470918,80.4618 C49.8448676,79.6468 49.3803525,79.2198 48.6975955,79.2198 C48.6555489,79.2198 48.6135023,79.2218 48.5694534,79.2248 C48.1690094,79.2528 47.8396442,79.4118 47.5933712,79.6968 C47.2449849,80.0998 47.0908139,80.7178 47.1478772,81.4868 C47.2039394,82.2598 47.4432047,82.8508 47.8406453,83.1948 C48.1249606,83.4398 48.4713446,83.5488 48.8817998,83.5188 C49.6816867,83.4608 50.1201729,82.9228 50.1472028,81.9628 L50.1472028,81.9628 L50.1482039,81.9218 L50.8830187,81.9618 L50.8830187,81.9998 C50.8740087,83.2668 50.1261795,84.1068 48.9308541,84.1938 C48.8687853,84.1978 48.8067165,84.2008 48.7466499,84.2008 C48.1399772,84.2008 47.61039,83.9758 47.2059416,83.5438 C46.7614487,83.0708 46.4951535,82.3768 46.4330846,81.5378 C46.3119503,79.8498 47.1498794,78.6498 48.5193979,78.5498 C48.5794645,78.5458 48.63853,78.5428 48.6975955,78.5428 Z M44.589941,78.7204 L44.6299854,78.7214 L45.2987269,78.7444 L45.2977258,78.7844 L45.1125204,84.1814 L45.0714749,84.1804 L44.4037345,84.1554 L44.4047356,84.1164 L44.589941,78.7204 Z M39.7836118,78.8536 C40.2621423,78.4096 40.8708172,78.2266 41.5545754,78.3216 C42.6437831,78.4766 43.3535701,79.2936 43.361579,80.4026 L43.361579,80.4026 L43.361579,80.4406 L43.3235368,80.4426 L42.6457853,80.4676 L42.6437831,80.4286 C42.6097454,79.5946 42.2002914,79.0986 41.4594699,78.9936 C41.3813834,78.9816 41.305299,78.9766 41.2312169,78.9766 C40.8477917,78.9766 40.5064132,79.1206 40.2311079,79.3996 C39.8997405,79.7366 39.6744908,80.2576 39.5833898,80.9096 C39.39418,82.2286 39.8797183,83.1336 40.8497939,83.2716 C41.2702601,83.3356 41.632662,83.2516 41.9069661,83.0416 C42.1952858,82.8196 42.3804912,82.4576 42.4435611,81.9926 L42.4435611,81.9926 L41.0900603,81.7986 L41.0950659,81.7586 L41.1851658,81.1276 L41.2252102,81.1316 L43.2324358,81.4196 L43.2274302,81.4596 L43.1513459,81.9986 C42.9751505,83.2276 42.1902803,83.9696 41.1100825,83.9696 C40.9949549,83.9696 40.8768239,83.9616 40.7536874,83.9446 C40.0739337,83.8476 39.5373387,83.5006 39.2019668,82.9396 C38.8675961,82.3816 38.7534695,81.6446 38.8726016,80.8076 C38.9917337,79.9726 39.3060823,79.2966 39.7836118,78.8536 Z M53.3469507,77.9336 L53.3629684,77.9576 L56.4183562,82.8306 L56.3622941,82.8416 L55.6985581,82.9876 L55.6835415,82.9636 L55.0998943,82.0126 L52.7973413,82.5156 L52.6611903,83.6496 L51.9413922,83.8076 L51.9484,83.7516 L52.6942269,78.0766 L53.3469507,77.9336 Z M34.7012765,77.4767 C35.2468815,77.1097 35.8815852,77.0167 36.5303045,77.2177 C37.0979339,77.3907 37.5364201,77.7467 37.8017142,78.2457 C38.1390883,78.8797 38.1741272,79.7187 37.9008241,80.6077 C37.4873657,81.9547 36.5753545,82.7477 35.5251901,82.7477 C35.3099514,82.7477 35.0887061,82.7137 34.8644574,82.6457 C33.5459955,82.2417 32.995385,80.8787 33.4949389,79.2547 C33.7392098,78.4587 34.1566727,77.8437 34.7012765,77.4767 Z M56.5028499,77.0445 L56.5168655,77.0815 L58.1196426,81.5305 L60.4031746,80.7095 L60.6314277,81.3465 L60.5943866,81.3605 L57.6821575,82.4075 L57.668142,82.3705 L55.8351095,77.2825 L55.8721506,77.2685 L56.5028499,77.0445 Z M35.8835874,77.7967 C35.58826,77.7967 35.3069481,77.8907 35.0556695,78.0767 C34.6752476,78.3577 34.3719113,78.8377 34.1796982,79.4667 C33.7882642,80.7397 34.1266394,81.7087 35.0636783,81.9977 C35.9967129,82.2777 36.8226286,81.6697 37.217066,80.3967 C37.6074989,79.1227 37.2691237,78.1537 36.3330858,77.8667 C36.1809171,77.8197 36.0297495,77.7967 35.8835874,77.7967 Z M53.2358275,78.9856 L52.8844379,81.8496 L54.7525092,81.4426 L53.2358275,78.9856 Z M31.1581479,75.2024 L31.8018617,75.4984 L31.7848428,75.5344 L29.8016438,79.8214 L31.9990803,80.8384 L31.7177684,81.4524 L31.6817285,81.4354 L28.8736148,80.1404 L28.8906337,80.1044 L31.1581479,75.2024 Z M60.0738094,75.6016 L60.0918294,75.6376 L62.2221915,79.8526 L64.3825869,78.7636 L64.6879255,79.3676 L64.6518855,79.3856 L61.8938274,80.7756 L61.8748063,80.7396 L59.4431101,75.9216 L59.4781489,75.9026 L60.0738094,75.6016 Z M26.662363,73.2635 C27.2870557,73.0575 27.9197572,73.1425 28.4883877,73.5115 C29.6436687,74.2555 29.8028452,75.7115 28.8838262,77.1345 C28.4323255,77.8325 27.863695,78.3095 27.2420057,78.5135 C27.0197593,78.5875 26.7965118,78.6235 26.5752664,78.6235 C26.1748224,78.6235 25.7823873,78.5045 25.415981,78.2665 C24.2617012,77.5225 24.1015236,76.0665 25.0205426,74.6445 C25.4720432,73.9465 26.0386715,73.4695 26.662363,73.2635 Z M65.6871334,72.2756 L65.6901367,72.3466 L65.820281,75.9796 L67.0556508,77.8806 L67.021613,77.9016 L66.4559859,78.2696 L66.4349626,78.2356 L65.219615,76.3706 L61.8839164,74.7456 L62.5796879,74.2956 L62.6007112,74.3046 L65.1345206,75.5916 L64.992363,72.7266 L65.0113841,72.7146 L65.6871334,72.2756 Z M27.3461212,73.8395 C27.1789358,73.8395 27.0087471,73.8705 26.8405606,73.9345 C26.3990711,74.1005 25.9776038,74.4805 25.6222097,75.0325 C24.9004094,76.1465 24.9614771,77.1695 25.7803851,77.7015 C26.6022964,78.2265 27.5613598,77.8605 28.282159,76.7465 C28.700623,76.0985 28.8628029,75.4815 28.7506785,74.9615 C28.6715908,74.5935 28.4603566,74.2955 28.1219814,74.0775 C27.8747073,73.9195 27.6124164,73.8395 27.3461212,73.8395 Z M23.1960196,69.524 L23.2260529,69.55 L26.2604173,72.168 L25.8169256,72.68 L25.7868923,72.653 L24.5565281,71.591 L21.4460792,75.188 L20.9044787,74.72 L20.9305076,74.69 L24.0149276,71.123 L22.7515267,70.034 L23.1960196,69.524 Z M70.1575902,68.2076 L70.1856213,68.2366 L70.6271108,68.6936 L70.5980786,68.7206 L69.4237765,69.8526 L72.7334463,73.2876 L72.2178746,73.7826 L72.1898435,73.7536 L68.9082049,70.3486 L67.7028684,71.5086 L67.6758384,71.4796 L67.2313456,71.0206 L67.2613789,70.9926 L70.1575902,68.2076 Z M21.675834,67.838 L22.1253324,68.332 L22.1113169,68.357 L19.4063176,73.428 L19.3682754,73.385 L18.9117692,72.882 L18.9257848,72.857 L19.4603775,71.881 L17.8776226,70.137 L16.8244548,70.585 L16.8054337,70.564 L16.3319087,70.039 L16.3829653,70.018 L21.675834,67.838 Z M21.157259,68.759 L18.4973097,69.882 L19.7807327,71.294 L21.157259,68.759 Z M72.6890971,65.0597 L73.2196854,65.4817 L73.1946577,65.5137 L71.6088994,67.5037 L72.888318,68.5207 L74.3659564,66.6667 L74.3969908,66.6917 L74.8725181,67.0677 L74.8464892,67.0997 L73.3938786,68.9227 L74.8064448,70.0437 L76.4162297,68.0217 L76.4472641,68.0467 L76.946818,68.4427 L76.9207892,68.4737 L74.8965447,71.0207 L74.8655103,70.9957 L70.6358204,67.6387 L70.6618493,67.6077 L72.6890971,65.0597 Z M17.1572238,61.5567 L17.1792482,61.5907 L17.6517721,62.3197 L17.6367555,62.3407 L15.0448816,66.0437 L19.5168401,65.2057 L19.5308557,65.2277 L20.0083851,65.9687 L19.9743474,65.9907 L15.4383179,68.9147 L15.4162935,68.8797 L15.0498872,68.3147 L15.0839249,68.2937 L18.6018256,66.0247 L14.0988327,66.8407 L14.0848171,66.8187 L13.9246395,66.5707 L13.9396562,66.5487 L16.5185156,62.8127 L12.9725839,65.0977 L12.9505595,65.0637 L12.5891588,64.5037 L12.6231965,64.4827 L17.1572238,61.5567 Z M73.9153568,62.8798 C74.4439429,61.9988 75.3839852,61.6518 76.3080097,61.9988 L76.3080097,61.9988 L76.3450508,62.0118 L76.1107911,62.6838 L76.07375,62.6718 C75.3889907,62.4568 74.845388,62.6528 74.4929973,63.2368 C74.1676365,63.7778 74.2196942,64.2858 74.627146,64.5298 C74.9595145,64.7288 75.2928842,64.5868 76.0507244,63.9138 C77.1649599,62.9428 77.8537236,62.7448 78.5915417,63.1878 C78.9149002,63.3808 79.1331422,63.6718 79.222241,64.0318 C79.3413731,64.5048 79.2282477,65.0628 78.903888,65.6028 C78.4323652,66.3868 77.8136792,66.7898 77.1078966,66.7898 C76.7855392,66.7898 76.4451618,66.7058 76.0907688,66.5368 L76.0907688,66.5368 L76.0577322,66.5198 L76.0717478,66.4858 L76.3190219,65.8538 L76.3570641,65.8718 C77.2120121,66.2568 77.8377058,66.0608 78.3282498,65.2478 C78.5104518,64.9418 78.5975483,64.6418 78.5795284,64.3798 C78.5605073,64.1238 78.4403741,63.9218 78.2321432,63.7978 C77.7766381,63.5258 77.3541697,63.6838 76.4912129,64.4488 C75.4530618,65.3398 74.8894368,65.5148 74.2617408,65.1358 C73.9053457,64.9218 73.6730881,64.5808 73.6120204,64.1718 C73.5489505,63.7608 73.6540671,63.3148 73.9153568,62.8798 Z M48.086543,27.558875 L48.1700105,27.562 L48.2100549,27.564 L48.1680083,28.41 L48.1269628,28.407 C48.064894,28.404 48.001824,28.401 47.9387541,28.401 C45.6867436,28.401 42.8903398,31.0077495 42.1536607,31.7355651 L42.0403066,31.8489167 C41.9963339,31.8934879 41.9718949,31.9190811 41.969135,31.922 L41.969135,31.922 L28.5792885,45.299 C28.1648289,45.711 27.9365759,46.263 27.9365759,46.851 C27.9365759,47.439 28.1648289,47.991 28.5792885,48.405 C28.993748,48.82 29.5463608,49.047 30.1350135,49.047 C30.7236662,49.047 31.2762789,48.82 31.6907384,48.405 L31.6907384,48.405 L37.9526816,42.152 L38.5513454,42.751 L29.5473619,51.745 C29.1319012,52.158 28.9036481,52.71 28.902647,53.298 C28.902647,53.887 29.1319012,54.439 29.5473619,54.853 C29.9618214,55.268 30.5144342,55.496 31.1030869,55.496 L31.1030869,55.496 C31.6937418,55.495 32.2443523,55.267 32.6578107,54.853 L32.6578107,54.853 L42.1553415,45.368 L42.7530042,45.967 L31.2642656,57.442 C30.8488049,57.856 30.6195507,58.407 30.6195507,58.995 C30.6195507,59.584 30.8488049,60.136 31.2642656,60.55 C31.6787251,60.964 32.2313379,61.193 32.8199905,61.193 L32.8199905,61.193 C33.4096444,61.192 33.961256,60.964 34.3747144,60.55 L34.3747144,60.55 L35.9694827,58.958 L46.718401,48.219 L47.3200681,48.819 L36.5691476,59.556 C35.7101952,60.413 35.7101952,61.808 36.5691476,62.665 C36.9816049,63.079 37.5342176,63.308 38.1208681,63.308 L38.1208681,63.308 C38.7105219,63.308 39.2641358,63.079 39.6795964,62.665 L39.6795964,62.665 L52.5178314,49.839 C53.6991412,48.661 55.6232747,48.661 56.8045845,49.839 C57.355195,50.393 57.6705446,51.126 57.6885646,51.904 L57.6885646,51.904 L57.6905668,58.768 C57.6905668,59.98 58.6786624,60.965 59.8920078,60.965 C61.104352,60.965 62.0914465,59.98 62.0914465,58.768 L62.0914465,58.768 L62.0914465,47.335 L62.9383856,47.335 L62.9383856,58.768 C62.9383856,60.446 61.5708693,61.811 59.8920078,61.811 C58.210143,61.811 56.8426267,60.446 56.8426267,58.768 L56.8426267,58.768 L56.8426267,51.979 C56.8286111,51.374 56.6063647,50.841 56.2029174,50.438 C55.7924622,50.027 55.2448551,49.8 54.6612079,49.8 L54.6612079,49.8 C54.0765597,49.8 53.5289525,50.027 53.1174963,50.438 L53.1174963,50.438 L40.2782602,63.264 C39.7056253,63.836 38.9407772,64.152 38.1248726,64.152 C37.3079668,64.152 36.5421176,63.836 35.9694827,63.264 C35.3778267,62.673 35.0684837,61.884 35.0915092,61.031 L35.0915092,61.031 L34.9743793,61.149 C34.4007433,61.722 33.6358952,62.037 32.8209917,62.037 C32.0040859,62.037 31.2382367,61.722 30.6656018,61.149 C30.0909646,60.574 29.7746139,59.81 29.7746139,58.995 C29.7746139,58.182 30.0909646,57.417 30.6656018,56.843 L30.6656018,56.843 L31.1721635,56.336 C31.150139,56.339 31.1271135,56.341 31.104088,56.341 C30.2881833,56.341 29.5233352,56.025 28.947697,55.45 C27.7613816,54.264 27.7613816,52.334 28.947697,51.147 L28.947697,51.147 L30.2040901,49.89 C30.1820656,49.893 30.1590401,49.895 30.1360146,49.895 C29.3201099,49.895 28.5552619,49.578 27.9806247,49.004 C27.4049864,48.43 27.0896368,47.665 27.0896368,46.851 C27.0896368,46.037 27.4049864,45.273 27.9806247,44.698 L27.9806247,44.698 L41.3654657,31.33 C41.5146311,31.174 45.0095062,27.558 48.0038263,27.558 C48.0588873,27.558 48.1139484,27.559 48.1700105,27.562 Z M15.3532235,57.3635 L15.3682402,57.4005 L16.1350905,59.1945 C16.3693502,59.7415 16.4043891,60.2525 16.2362026,60.6705 C16.0880383,61.0385 15.7837008,61.3285 15.357228,61.5105 C14.5863733,61.8385 13.8475541,61.6205 13.3770323,60.9155 L13.3770323,60.9155 L11.7942774,62.8855 L11.4659133,62.1185 L11.48093,62.0995 L13.0226394,60.2235 L12.6251987,59.2975 L10.6239798,60.1505 L10.3466723,59.5005 L10.3837134,59.4845 L15.3532235,57.3635 Z M76.838598,57.1302 L77.4622896,57.3952 L77.4462718,57.4322 L76.8045603,58.9302 L81.1894222,60.8002 L80.9071092,61.4602 L80.8700681,61.4442 L76.5242495,59.5882 L75.8675213,61.1212 L75.245832,60.8562 L75.2608486,60.8192 L76.838598,57.1302 Z M15.0068395,58.2815 L13.2488903,59.0305 L13.7344286,60.1635 C13.8986107,60.5485 14.1098449,60.7945 14.3631257,60.8955 C14.5723577,60.9805 14.8126241,60.9665 15.0759161,60.8515 C15.6535565,60.6045 15.7937119,60.1205 15.4913767,59.4115 L15.4913767,59.4115 L15.0068395,58.2815 Z M14.2079537,53.4288 L14.2179648,53.4668 L15.0889305,56.6078 L14.4352056,56.7908 L14.4251945,56.7518 L13.7424375,54.2918 L12.1626859,54.7288 L12.7973896,57.0198 L12.7593475,57.0298 L12.1716959,57.1918 L12.1616848,57.1538 L11.5369921,54.9008 L9.7960618,55.3838 L10.4878288,57.8808 L10.4497866,57.8908 L9.83410398,58.0608 L9.82409288,58.0228 L8.95312716,54.8808 L8.99116934,54.8718 L14.2079537,53.4288 Z M77.9274053,53.249 L78.5811301,53.43 L77.8893631,55.928 L79.4681136,56.364 L80.1028174,54.073 L80.72751,54.245 L80.0938074,56.536 L81.8367399,57.02 L82.528507,54.522 L83.1822318,54.701 L83.1712196,54.74 L82.301255,57.883 L82.2622117,57.872 L77.0464285,56.431 L77.0574407,56.392 L77.9274053,53.249 Z M79.2886146,49.1007 C79.8242085,48.7387 80.539001,48.6047 81.3599112,48.7137 C83.104846,48.9487 83.9527862,49.9227 83.7485597,51.4577 L83.7485597,51.4577 L83.5243111,53.1077 L83.4852678,53.1027 L78.1253247,52.3807 L78.1303303,52.3417 L78.3525767,50.6857 C78.4446788,50.0017 78.7680374,49.4547 79.2886146,49.1007 Z M13.4553192,48.5286 L13.4613258,48.5686 L13.6715589,50.2246 C13.7586555,50.9086 13.5864646,51.5206 13.1750083,51.9956 C12.7515388,52.4826 12.0948106,52.7956 11.2739004,52.8996 C11.0686729,52.9246 10.8724553,52.9376 10.6852477,52.9376 C9.28869924,52.9376 8.4357535,52.2166 8.26356257,50.8646 L8.26356257,50.8646 L8.05533169,49.2146 L8.09537609,49.2096 L13.4553192,48.5286 Z M81.2638047,49.4247 C80.6090787,49.3327 80.0784904,49.4197 79.6880575,49.6737 C79.3186479,49.9147 79.0873915,50.3087 79.019316,50.8147 L79.019316,50.8147 L78.892175,51.7707 L82.9476717,52.3147 L83.0708083,51.4047 C83.2239781,50.2547 82.6333232,49.6077 81.2638047,49.4247 Z M12.8726731,49.3176 L8.81717642,49.8316 L8.93230407,50.7396 C8.99937844,51.2716 9.1855849,51.6496 9.50393789,51.8946 C9.87735193,52.1846 10.441978,52.2846 11.1838005,52.1876 C11.8385265,52.1066 12.3280693,51.8896 12.6414167,51.5446 C12.9357431,51.2176 13.0588796,50.7776 12.9938074,50.2706 L12.9938074,50.2706 L12.8726731,49.3176 Z M46.0442535,10.4826 C64.9191819,10.4826 80.5675327,25.2346 81.6707559,44.0666 L81.6707559,44.0666 L81.6727581,44.1056 L81.6327137,44.1086 L80.8268201,44.1566 L80.8238168,44.1166 C79.7466224,25.7306 64.4696835,11.3286 46.0442535,11.3286 C27.6208258,11.3286 12.3448879,25.7306 11.2666924,44.1166 L11.2666924,44.1166 L11.2636891,44.1566 L11.2246458,44.1546 L10.4197533,44.1056 L10.4217556,44.0666 C11.5249788,25.2346 27.1713274,10.4826 46.0442535,10.4826 Z M56.0997029,24.3596 L56.1327395,24.4126 L61.3405139,32.4686 C62.6709891,34.6516 62.9382855,35.7996 62.9382855,36.9446 C62.9382855,40.7116 59.8698833,43.7756 56.0997029,43.7756 C52.3295226,43.7756 49.2631226,40.7116 49.2631226,36.9446 C49.2631226,35.7996 49.5284167,34.6536 50.8518842,32.4796 L50.8518842,32.4796 L56.0997029,24.3596 Z M88.9065789,38.8432 C89.7304925,38.7472 90.4613028,38.8832 91.0149166,39.2332 C91.5715338,39.5862 91.9069057,40.1282 91.9839911,40.8002 C92.0610766,41.4722 91.8588524,42.0752 91.3973407,42.5442 C90.9378312,43.0112 90.2590786,43.3082 89.4331628,43.4032 C89.2599708,43.4232 89.0907832,43.4332 88.9276022,43.4332 C88.3099173,43.4332 87.7623102,43.2912 87.3248251,43.0142 C86.7682079,42.6612 86.4328361,42.1202 86.3547495,41.4492 C86.1975752,40.0862 87.2227119,39.0382 88.9065789,38.8432 Z M1.0982177,39.4494 C1.62480157,39.0774 2.33558968,38.9284 3.1564999,39.0244 C4.90343689,39.2264 5.76839595,40.1824 5.59119948,41.7174 L5.59119948,41.7174 L5.40098857,43.3654 L5.36094417,43.3614 L0,42.7424 L0.00400444009,42.7024 L0.193214234,41.0474 C0.273303036,40.3634 0.585649363,39.8104 1.0982177,39.4494 Z M56.0997029,25.9206 L51.5696801,32.9266 C50.3533314,34.9226 50.1090605,35.9436 50.1090605,36.9446 C50.1090605,40.2436 52.7970409,42.9276 56.0997029,42.9276 C59.403366,42.9276 62.0913464,40.2436 62.0913464,36.9446 C62.0913464,35.9446 61.8460744,34.9226 60.6237191,32.9186 L60.6237191,32.9186 L56.0997029,25.9206 Z M89.4431739,39.5272 C89.2970118,39.5272 89.1458442,39.5362 88.9886699,39.5552 C88.3359462,39.6302 87.8093623,39.8392 87.4659816,40.1592 C87.1246031,40.4772 86.9734355,40.8962 87.0294976,41.3702 C87.0745476,41.7692 87.2457374,42.0892 87.5400637,42.3232 C87.9565255,42.6532 88.5842215,42.7842 89.3500707,42.6942 C90.117922,42.6062 90.6975648,42.3392 91.0289322,41.9222 C91.2621908,41.6272 91.3572963,41.2752 91.3102441,40.8772 C91.2651941,40.4792 91.0930032,40.1582 90.7976758,39.9252 C90.4663083,39.6622 90.0037955,39.5272 89.4431739,39.5272 Z M3.07340777,39.7344 C2.41968293,39.6564 1.89410016,39.7524 1.5086728,40.0144 C1.14526987,40.2614 0.921021221,40.6584 0.86295684,41.1644 L0.86295684,41.1644 L0.752834737,42.1194 L4.80833144,42.5874 L4.91244688,41.6774 C4.97751903,41.1204 4.8744047,40.6934 4.59709723,40.3754 C4.29876644,40.0324 3.78619811,39.8164 3.07340777,39.7344 Z M1.53990744,33.8441 L2.19763672,34.0001 L2.18862673,34.0381 L1.60497959,36.5171 L3.19674453,36.8911 L3.74034727,34.5821 L4.37004547,34.7281 L4.36103548,34.7671 L3.82644273,37.0391 L5.58238971,37.4511 L6.17704906,34.9351 L6.83678057,35.0881 L6.82777058,35.1271 L6.07994139,38.2951 L6.04189921,38.2861 L0.78306826,37.0501 L0.79207825,37.0121 L1.53990744,33.8441 Z M90.3467758,33.1099 L90.7642387,34.7659 C90.9324252,35.4349 90.8363186,36.0629 90.484929,36.5819 C90.1235283,37.1179 89.5098478,37.5059 88.7079587,37.7069 C88.3385491,37.7999 87.9951684,37.8469 87.6798187,37.8469 C87.2383292,37.8469 86.8529018,37.7549 86.5275411,37.5719 C86.0109683,37.2809 85.6575765,36.7679 85.4753744,36.0489 L85.4753744,36.0489 L85.0699249,34.4379 L85.1089682,34.4279 L90.3467758,33.1099 Z M89.8622385,33.9629 L85.898844,34.9599 L86.1240937,35.8469 C86.4074079,36.9699 87.1942803,37.3529 88.5327644,37.0139 C89.7861542,36.6989 90.3567869,35.9259 90.0974994,34.8949 L90.0974994,34.8949 L89.8622385,33.9629 Z M2.67126187,30.3937 C3.05468701,29.3187 3.85157059,28.8767 4.81664065,29.2207 C5.61152201,29.5037 6.00095381,30.1677 5.86580396,31.0037 L5.86580396,31.0037 L8.37058124,30.6297 L8.09027043,31.4147 L8.06624379,31.4177 L5.65857418,31.7527 L5.320199,32.7017 L7.37047232,33.4307 L7.35745789,33.4687 L7.13320925,34.0967 L7.09516707,34.0837 L2.00151927,32.2717 L2.01353259,32.2337 Z M89.0009836,29.2969 L89.0109947,29.3239 L89.2422511,29.9239 L89.2212278,29.9429 L84.8523837,33.6969 L84.8323615,33.6439 L84.5900928,33.0079 L84.6121173,32.9909 L85.4640619,32.2709 L84.6181239,30.0699 L83.4738552,30.1069 L83.4638441,30.0799 L83.2095621,29.4169 L83.2666254,29.4159 L89.0009836,29.2969 Z M4.57737536,29.8967 C3.982716,29.6817 3.55123758,29.9457 3.29195009,30.6717 L3.29195009,30.6717 L2.87949276,31.8327 L4.6814908,32.4737 L5.09294702,31.3127 C5.23410353,30.9197 5.24711796,30.5957 5.12998809,30.3487 C5.03388153,30.1447 4.84867617,29.9927 4.57737536,29.8967 Z M88.1850789,29.9699 L85.2908698,30.0559 L85.9756291,31.8389 L88.1850789,29.9699 Z M6.40470148,22.4217 L6.43974033,22.4407 L11.223044,24.9557 L10.8906755,25.5857 L10.8556366,25.5677 L7.14652401,23.6217 L10.0727686,27.1417 L9.92360321,27.4237 L9.89657324,27.4217 L5.36454817,27.0137 L9.10569632,28.9787 L8.77533002,29.6037 L8.74029117,29.5847 L3.95698748,27.0727 L4.3784548,26.2697 L4.40548477,26.2717 L8.90947876,26.7067 L5.98223305,23.2277 L5.99524748,23.2047 L6.40470148,22.4217 Z M86.0147725,23.0348 L86.9988637,24.8918 C87.4493632,25.7388 87.2441356,26.5778 86.4882975,26.9788 C86.0448058,27.2128 85.5832941,27.2098 85.2329056,26.9798 C85.2799578,27.5048 84.990637,27.9978 84.4650542,28.2768 C84.1817401,28.4268 83.9094381,28.5008 83.6491495,28.5008 C83.480963,28.5008 83.3177821,28.4698 83.1616089,28.4068 C82.7631672,28.2468 82.4147809,27.8858 82.1224567,27.3348 L82.1224567,27.3348 L81.1934266,25.5868 L81.2284655,25.5688 L86.0147725,23.0348 Z M83.7642772,25.0278 L82.1254601,25.8938 L82.6810761,26.9438 C82.898317,27.3528 83.1175601,27.6048 83.3498176,27.7158 C83.5770696,27.8238 83.8333538,27.7988 84.1306834,27.6428 C84.7043195,27.3378 84.7603816,26.9028 84.3279021,26.0888 L84.3279021,26.0888 L83.7642772,25.0278 Z M85.7454739,23.9768 L84.3309054,24.7268 L84.9315715,25.8568 C85.1037624,26.1838 85.3039844,26.3838 85.5232275,26.4518 C85.7014251,26.5048 85.9046504,26.4748 86.1248946,26.3588 C86.3241155,26.2528 86.4522576,26.1128 86.5053164,25.9408 C86.574393,25.7168 86.5203331,25.4368 86.3461399,25.1078 L86.3461399,25.1078 L85.7454739,23.9768 Z M8.76912314,18.9884 L8.79615311,18.9964 L14.3312904,20.5774 L13.9018142,21.1754 L13.8747843,21.1664 L12.8045976,20.8494 L11.4290725,22.7634 L12.0878029,23.6994 L11.6583267,24.2974 L8.37869023,19.5294 L8.39470799,19.5074 L8.76912314,18.9884 Z M80.2374667,19.3415 C81.6250052,18.3655 83.0876269,18.4635 83.880506,19.5855 C84.270939,20.1385 84.3830633,20.7655 84.2028635,21.3995 C84.0236648,22.0295 83.5701619,22.6155 82.8904082,23.0935 C82.2537023,23.5425 81.5989763,23.7635 81.0023147,23.7635 C80.2985344,23.7635 79.6748428,23.4575 79.2473689,22.8515 C78.4544897,21.7285 78.8529315,20.3185 80.2374667,19.3415 Z M82.1535913,19.3645 C81.6990873,19.3645 81.1825145,19.5515 80.6519262,19.9245 C79.5647207,20.6925 79.2383589,21.6645 79.7999816,22.4605 C80.0332402,22.7895 80.3395799,22.9885 80.7119928,23.0525 C81.2365745,23.1385 81.8462505,22.9545 82.4749476,22.5105 C83.0115425,22.1325 83.3749455,21.6955 83.5231098,21.2495 C83.6712741,20.8065 83.6021975,20.3665 83.3268922,19.9765 C83.0385725,19.5685 82.6301196,19.3645 82.1535913,19.3645 Z M9.38981135,19.8454 L11.0486507,22.2094 L12.1638872,20.6594 L9.38981135,19.8454 Z M79.0040991,13.8542 L79.0311291,13.8832 L80.3515932,15.3282 C81.123449,16.1742 81.1344613,17.0892 80.3816265,17.7752 C79.748925,18.3522 78.9970914,18.3832 78.3093288,17.8642 L78.3093288,17.8642 L77.465393,20.2512 L76.8997659,19.6352 L76.9087758,19.6122 L77.7457038,17.3282 L77.0639479,16.5842 L75.454163,18.0502 L74.9746313,17.5252 L75.0036635,17.4992 L79.0040991,13.8542 Z M12.8666665,14.0768 L13.3762315,14.5248 L13.3502026,14.5548 L12.2670016,15.7738 L15.8309532,18.9338 L15.355426,19.4678 L15.3253927,19.4418 L11.7894721,16.3078 L10.6832455,17.5558 L10.1736805,17.1078 L10.1997094,17.0778 L12.8666665,14.0768 Z M78.9820747,14.8342 L77.565504,16.1262 L78.3984276,17.0352 C78.9190048,17.6062 79.4235642,17.6812 79.8980904,17.2462 C80.1293468,17.0362 80.2394689,16.8042 80.2264545,16.5562 C80.21344,16.3052 80.0752869,16.0322 79.8139971,15.7472 L79.8139971,15.7472 L78.9820747,14.8342 Z M15.3108766,11.6443 C16.3380155,10.7323 17.7876228,10.9713 18.9148727,12.2383 C20.0401203,13.5063 20.1051925,14.9713 19.0770525,15.8843 C18.6595896,16.2533 18.1730501,16.4333 17.6674896,16.4333 C16.9246659,16.4333 16.1407968,16.0443 15.4710542,15.2903 C14.9184415,14.6683 14.6111007,13.9933 14.5810674,13.3383 C14.550033,12.6803 14.8033138,12.0953 15.3108766,11.6443 Z M16.6944106,11.7823 C16.3580377,11.7823 16.0386836,11.9033 15.7593739,12.1513 C15.4580398,12.4183 15.2928566,12.7443 15.2708322,13.1203 C15.2397978,13.6513 15.4940797,14.2373 16.006648,14.8143 C16.4441331,15.3053 16.9186593,15.6163 17.3791699,15.7153 C17.8346749,15.8083 18.2681556,15.6943 18.626553,15.3773 C19.3563622,14.7293 19.2612567,13.7093 18.3782777,12.7143 C17.8316716,12.0993 17.2400156,11.7823 16.6944106,11.7823 Z M74.9396925,10.1888 L76.5314575,11.5708 C76.9739481,11.9548 77.2252267,12.3978 77.2562611,12.8498 C77.2862944,13.2638 77.1301213,13.6798 76.8057616,14.0518 C76.1139946,14.8458 75.1839634,14.8688 74.3170021,14.1198 L74.3170021,14.1198 L73.2588288,13.1998 L71.9023247,14.7618 L71.3667309,14.2968 L71.3927597,14.2668 L74.9396925,10.1888 Z M75.0297924,11.1628 L73.7043228,12.6898 L74.7324628,13.5818 C75.3281232,14.0968 75.8136616,14.0988 76.2641611,13.5818 C76.7196662,13.0578 76.654594,12.5738 76.0589336,12.0578 L76.0589336,12.0578 L75.0297924,11.1628 Z M19.0100782,8.7943 L19.0341049,8.8263 L21.756123,12.7013 L23.7443275,11.3083 L23.7673531,11.3403 L24.1337593,11.8623 L24.1017238,11.8863 L21.5669132,13.6643 L21.5438877,13.6323 L18.4294344,9.2023 L19.0100782,8.7943 Z M68.9007967,6.1027 L68.9338333,6.1237 L71.7069081,7.8237 L71.3545173,8.4017 L71.3204796,8.3807 L69.1500731,7.0477 L68.2931229,8.4397 L70.3153651,9.6797 L69.9759888,10.2297 L67.9557488,8.9887 L67.0107009,10.5237 L69.2141441,11.8767 L68.8607523,12.4517 L68.8277156,12.4307 L66.0546409,10.7287 L66.0756642,10.6957 L68.9007967,6.1027 Z M23.8644607,5.6083 C25.0738016,4.9523 26.433309,5.5053 27.2492137,6.9913 C28.0641173,8.4793 27.7998242,9.9223 26.5924855,10.5833 C26.2561126,10.7673 25.904723,10.8603 25.5513311,10.8603 C25.2840347,10.8603 25.0147361,10.8073 24.7504431,10.6983 C24.1427693,10.4493 23.6101788,9.9323 23.2107359,9.2023 C22.3948312,7.7153 22.6581231,6.2703 23.8644607,5.6083 Z M24.8875952,6.0163 C24.6533354,6.0163 24.4190757,6.0793 24.1918237,6.2033 C23.3338724,6.6733 23.1987226,7.6903 23.8374308,8.8573 C24.4781412,10.0243 25.4111757,10.4563 26.2661237,9.9903 C26.687591,9.7603 26.942874,9.3933 27.0069451,8.9313 C27.070015,8.4633 26.9358663,7.9113 26.6195155,7.3363 C26.3031647,6.7603 25.9097285,6.3503 25.4822545,6.1523 C25.2870381,6.0613 25.0878172,6.0163 24.8875952,6.0163 Z M63.9020541,3.6114 L63.9380941,3.6294 L67.5721234,5.3434 L67.5541035,5.3794 L67.2828026,5.9564 L65.7731287,5.2424 L63.7358698,9.5494 L63.0871505,9.2414 L63.1051705,9.2054 L65.1244094,4.9374 L63.6127333,4.2234 L63.9020541,3.6114 Z M29.4325346,3.0388 C30.4526657,2.6388 31.4687924,3.0038 32.020404,3.9628 L32.020404,3.9628 L32.0394251,3.9968 L31.428748,4.3718 L31.4067235,4.3378 C30.9702396,3.6298 30.373578,3.4008 29.6778065,3.6668 C29.2313114,3.8408 28.9309784,4.1708 28.808843,4.6218 C28.6857065,5.0768 28.7467742,5.6398 28.9850384,6.2488 C29.2233026,6.8608 29.5596755,7.3168 29.9571162,7.5678 C30.3515536,7.8168 30.7960464,7.8568 31.2425415,7.6838 C31.6339755,7.5328 31.911283,7.2858 32.0464328,6.9688 C32.1885905,6.6348 32.1735738,6.2288 31.9993807,5.7928 L31.9993807,5.7928 L30.7279709,6.2878 L30.482699,5.6588 L30.51974,5.6438 L32.4058313,4.9118 L32.6180667,5.4538 C33.1156183,6.7318 32.6721266,7.8548 31.4878134,8.3148 C31.2095049,8.4228 30.9331985,8.4758 30.664901,8.4758 C29.681811,8.4758 28.8078419,7.7688 28.3162969,6.5098 C27.6926053,4.9058 28.1310915,3.5428 29.4325346,3.0388 Z M58.7084955,1.7942 L59.4763469,2.0462 L59.4803513,2.0682 L60.4043759,6.8652 L61.7458633,2.7932 L62.425617,3.0182 L62.4126026,3.0562 L60.7217278,8.1832 L59.9478697,7.9292 L59.9448664,7.9062 L59.0208418,3.1082 L57.6783533,7.1822 L57.0046063,6.9592 L57.0176207,6.9212 L58.7084955,1.7942 Z M33.6881532,1.751 L33.6981643,1.79 L35.1838115,6.981 L35.1447682,6.991 L34.5030567,7.175 L34.4920445,7.136 L33.0063972,1.946 L33.0454405,1.935 L33.6881532,1.751 Z M53.9121774,0.7181 L53.9512207,0.7261 L57.1467639,1.3831 L57.0096118,2.0471 L56.9705685,2.0391 L54.4687946,1.5241 L54.1384283,3.1261 L56.4680113,3.6071 L56.3368659,4.2401 L56.2978226,4.2331 L54.0092851,3.7601 L53.6418777,5.5281 L56.1826949,6.0511 L56.046544,6.7151 L56.0075007,6.7071 L52.8119575,6.0481 L52.8189653,6.0091 L53.9121774,0.7181 Z M37.4315038,0.7791 C38.5267181,0.5701 39.4707649,1.1511 39.8401745,2.2531 L39.8401745,2.2531 L39.8521878,2.2891 L39.1824452,2.5411 L39.1684296,2.5031 C38.8550822,1.6671 38.2974639,1.3051 37.5586447,1.4441 C36.5995813,1.6261 36.1580918,2.5501 36.4063671,3.8551 C36.632618,5.0351 37.2382895,5.7041 38.0561964,5.7041 C38.1553063,5.7041 38.2584206,5.6941 38.3635372,5.6741 C39.1524119,5.5231 39.5248248,4.9381 39.4407316,3.9811 L39.4407316,3.9811 L39.4387294,3.9401 L39.4787738,3.9371 L40.1705408,3.8951 L40.1755463,3.9321 C40.3157017,5.1911 39.6699858,6.1121 38.4926804,6.3381 C38.3385094,6.3671 38.1883429,6.3821 38.0421809,6.3821 C36.8848977,6.3821 35.9899053,5.4861 35.7035879,3.9881 C35.3882382,2.3251 36.0830086,1.0351 37.4315038,0.7791 Z M46.60928,0 L47.5182879,0.063 L47.5272979,0.088 L48.9498752,4.39 L50.9581019,0.298 L51.8691121,0.361 L51.8661087,0.401 L51.495698,5.798 L50.7789033,5.748 L50.7819066,5.708 L51.0702263,1.526 L49.0209541,5.629 L48.6995977,5.606 L48.6905877,5.58 L47.2339727,1.26 L46.9436508,5.486 L46.235866,5.436 L46.2388693,5.396 L46.60928,0 Z M43.1413348,0.1628 L43.1533481,0.1888 L45.4679145,5.4638 L44.7310975,5.5158 L44.7190842,5.4898 L44.2836013,4.4608 L41.9249861,4.6228 L41.6246531,5.7278 L40.8878361,5.7778 L40.9038539,5.7228 L42.4715922,0.2078 L43.1413348,0.1628 Z M24.1348605,3.9268 L23.8535486,5.1838 L23.8375309,5.1928 L23.301937,5.4848 L23.3790225,4.3388 L23.3980436,4.3288 L24.1348605,3.9268 Z M42.8770417,1.1868 L42.1091903,3.9768 L44.0193083,3.8468 L42.8770417,1.1868 Z" id="Fill-106"></path>
                </g>
            </g>
        </g>
    </g>
</svg>