<?xml version="1.0" encoding="UTF-8"?>
<svg width="88px" height="90px" viewBox="0 0 88 90" version="1.1" xmlns="http://www.w3.org/2000/svg" xmlns:xlink="http://www.w3.org/1999/xlink">
    <title>3. icons/seal/bloque3/ecodesign</title>
    <g id="Yanbal-UI-Visual-Kit" stroke="none" stroke-width="1" fill="none" fill-rule="evenodd">
        <g id="yanbal-styleguide-pag2" transform="translate(-364.000000, -5750.000000)" fill="#1C1F28">
            <g id="Group" transform="translate(360.000000, 5747.000000)">
                <g id="elements" transform="translate(4.000100, 3.000200)">
                    <path d="M67.9989059,9.3753 L68.0320036,9.3973 C80.5359471,17.5433 88,31.2773 88,46.1343 C88,70.3223 68.2616822,90.0013 43.998997,90.0013 C19.7383178,90.0013 0,70.3223 0,46.1343 C0,31.2773 7.46405288,17.5433 19.9679964,9.3973 L19.9679964,9.3973 L20.0010941,9.3753 L20.0231593,9.4093 L20.4664691,10.0843 L20.4323684,10.1053 C8.17114201,18.0933 0.851515842,31.5623 0.851515842,46.1343 C0.851515842,69.8553 20.2067016,89.1543 43.998997,89.1543 C67.7943013,89.1543 87.151493,69.8553 87.151493,46.1343 C87.151493,31.5643 79.8318669,18.0953 67.5706405,10.1053 L67.5706405,10.1053 L67.5365398,10.0843 L67.558605,10.0503 L67.9989059,9.3753 Z M46.9810075,78.651 L46.9820105,78.691 L47.0030727,79.326 L46.9639571,79.328 L44.4094096,79.426 L44.4725963,81.062 L46.8526282,80.971 L46.8546341,81.011 L46.8766993,81.617 L46.8375838,81.619 L44.4966674,81.708 L44.5658719,83.513 L47.159535,83.413 L47.1896239,84.091 L47.1495054,84.093 L43.880848,84.217 L43.878842,84.178 L43.6742375,78.777 L43.7133531,78.775 L46.9810075,78.651 Z M38.7303305,78.373 L38.7704491,78.377 L40.438377,78.549 C41.1274128,78.619 41.6880693,78.926 42.0581628,79.435 C42.4382858,79.959 42.5947481,80.67 42.5104992,81.493 C42.3409984,83.11 41.5175655,83.982 40.1756006,83.982 C40.0632687,83.982 39.947928,83.976 39.8295783,83.965 L39.8295783,83.965 L38.1676681,83.794 L38.17168,83.754 L38.7303305,78.373 Z M49.4039663,78.1912 C50.4189651,78.0172 51.2945521,78.5042 51.6335537,79.4272 L51.6335537,79.4272 L51.6475952,79.4642 L51.6114885,79.4782 L50.9836335,79.7252 L50.967586,79.6892 C50.7278778,79.1272 50.3236836,78.8362 49.7901071,78.8362 C49.7008434,78.8362 49.6075678,78.8442 49.5112833,78.8602 C49.1562343,78.9212 48.8774105,79.0702 48.727969,79.2812 C48.619649,79.4312 48.5805334,79.6112 48.6136312,79.8002 C48.6788238,80.1852 49.0047869,80.3442 50.0097561,80.4802 C51.4740825,80.6922 52.0728516,81.0852 52.2162754,81.9282 C52.3687258,82.8182 51.7127878,83.5452 50.585457,83.7372 C50.3928881,83.7702 50.2073399,83.7862 50.0338272,83.7862 C49.0178254,83.7862 48.3197629,83.2422 48.0409391,82.2152 L48.0409391,82.2152 L48.0329154,82.1782 L48.0670162,82.1662 L48.7099157,81.9412 L48.7219512,81.9822 C48.9847276,82.8822 49.5453841,83.2252 50.4791429,83.0692 C50.9003875,82.9972 51.2273535,82.8242 51.3988603,82.5822 C51.5091862,82.4252 51.5513107,82.2442 51.5192159,82.0552 C51.4299521,81.5392 51.0197401,81.3132 49.8924094,81.1602 C48.536403,80.9572 48.0369273,80.6442 47.9165717,79.9202 C47.853385,79.5522 47.9316161,79.2032 48.1422384,78.9072 C48.4040119,78.5392 48.8523364,78.2842 49.4039663,78.1912 Z M39.3682152,79.119 L38.9449647,83.19 L39.8616731,83.285 C41.0170868,83.404 41.6499567,82.796 41.7933804,81.421 C41.9277775,80.131 41.395204,79.328 40.3310599,79.219 L40.3310599,79.219 L39.3682152,79.119 Z M35.1375154,77.4866 C35.3280784,77.4866 35.5216503,77.5116 35.7192341,77.5636 C36.379184,77.7366 36.870636,78.1476 37.1414361,78.7496 C37.4122362,79.3496 37.4413221,80.0926 37.2276909,80.8996 C36.9909916,81.7986 36.5165899,82.4936 35.8927468,82.8566 C35.5707955,83.0436 35.2167495,83.1386 34.8496649,83.1386 C34.6580989,83.1386 34.4625211,83.1126 34.2659403,83.0616 C32.9289902,82.7086 32.3221974,81.3676 32.7554775,79.7246 C33.1275769,78.3236 34.0472943,77.4866 35.1375154,77.4866 Z M53.1114201,77.4595 L53.1204468,77.4975 L54.5667199,82.7115 L53.8816959,82.9025 L53.8716663,82.8645 L52.4263962,77.6475 L52.4645088,77.6375 L53.1114201,77.4595 Z M35.1495509,78.1656 C34.8326145,78.1656 34.5357374,78.2726 34.2749669,78.4816 C33.9048735,78.7776 33.6220378,79.2716 33.454543,79.9066 C33.2549533,80.6546 33.2930659,81.2936 33.56186,81.7556 C33.7524231,82.0826 34.0472943,82.3016 34.4394529,82.4036 C34.8306086,82.5066 35.1936813,82.4626 35.5226533,82.2726 C35.9860223,82.0026 36.3350536,81.4646 36.5316344,80.7166 L36.5316344,80.7166 C36.7302211,79.9696 36.6931115,79.3296 36.4243173,78.8676 C36.2327513,78.5406 35.9378801,78.3216 35.5467244,78.2196 C35.4113244,78.1836 35.2789332,78.1656 35.1495509,78.1656 Z M56.1439799,76.293 C57.1639936,75.887 58.1900251,76.243 58.7526875,77.203 L58.7526875,77.203 L58.7717438,77.237 L58.739649,77.258 L58.1599362,77.617 L58.1388739,77.584 C57.6945612,76.874 57.0917803,76.647 56.3937178,76.923 C55.9473991,77.1 55.6475131,77.433 55.5281605,77.887 C55.4078049,78.344 55.4729975,78.908 55.7177205,79.518 C56.0035651,80.237 56.41478,80.729 56.907235,80.941 C57.2562662,81.092 57.6223478,81.091 57.9964532,80.942 C58.3896148,80.786 58.6684386,80.536 58.8018327,80.218 C58.9412446,79.882 58.9221883,79.475 58.7446638,79.039 L58.7446638,79.039 L57.4719034,79.545 L57.2201596,78.913 L59.1458491,78.15 L59.3624892,78.693 C59.614233,79.322 59.6443219,79.925 59.4457351,80.436 C59.2481514,80.948 58.8349305,81.342 58.2491999,81.574 C57.9653613,81.686 57.6825256,81.741 57.4097196,81.741 C56.4268156,81.741 55.5482197,81.038 55.0477411,79.784 C54.4088534,78.179 54.8391247,76.809 56.1439799,76.293 Z M29.2239435,76.0266 C29.809674,75.7236 30.4505676,75.7056 31.0714019,75.9776 C32.0964304,76.4256 32.5497698,77.4396 32.2278186,78.5596 L32.2278186,78.5596 L32.216786,78.5966 L32.1796763,78.5876 L31.5217324,78.4246 L31.531762,78.3856 C31.7473991,77.5206 31.4936494,76.9016 30.7995988,76.5966 C30.358295,76.4046 29.9129793,76.4276 29.5067791,76.6606 C29.0965671,76.8966 28.7405152,77.3386 28.4777388,77.9406 C27.9331297,79.1776 28.1527787,80.1536 29.0634693,80.5516 C29.8036563,80.8726 30.4435468,80.5986 30.9159426,79.7606 L30.9159426,79.7606 L30.9370048,79.7246 L31.5698746,80.1056 L31.5518213,80.1386 C31.12155,80.9436 30.4545794,81.3736 29.7043629,81.3736 C29.4094917,81.3736 29.1025849,81.3076 28.7916663,81.1716 C28.2410394,80.9316 27.8408571,80.5286 27.6362526,80.0076 C27.377488,79.3476 27.4426806,78.5116 27.8197948,77.6536 C28.1547846,76.8916 28.6392159,76.3276 29.2239435,76.0266 Z M62.2683747,73.259 L62.288434,73.293 L65.0395623,77.952 L65.0054616,77.971 L64.3344791,78.366 L64.3134169,78.353 L60.0879325,75.879 L62.2693777,79.577 L62.235277,79.596 L61.6565671,79.936 L61.6375108,79.902 L58.8873855,75.244 L58.9224892,75.223 L59.5854479,74.833 L59.6055072,74.845 L63.8319945,77.319 L61.6495464,73.623 L62.2683747,73.259 Z M25.6554,73.169 L25.6905038,73.189 L28.4837566,74.891 L28.1297105,75.472 L28.0956098,75.451 L25.9101527,74.117 L25.0506132,75.515 L27.0846227,76.758 L26.7476271,77.31 L26.7135263,77.29 L24.7106086,76.069 L23.7648142,77.611 L25.984372,78.964 L25.629323,79.544 L25.5952222,79.523 L22.8019695,77.821 L22.8220287,77.787 L25.6554,73.169 Z M43.9990973,10.4133 C63.7564714,10.4133 79.8299612,26.4373 79.8299612,46.1343 C79.8299612,56.6053 75.2263597,66.5183 67.1976385,73.3323 L67.1976385,73.3323 L67.1665466,73.3583 L67.1404696,73.3283 L66.6149168,72.7123 L66.6450057,72.6873 C74.4841669,66.0363 78.9814543,56.3583 78.9814543,46.1343 C78.9814543,26.9053 63.2880875,11.2613 43.9990973,11.2613 C24.7111101,11.2613 9.02075222,26.9053 9.02075222,46.1343 C9.02075222,56.3583 13.5170367,66.0363 21.3572008,72.6873 L21.3572008,72.6873 L21.3872897,72.7123 L20.8356599,73.3583 L20.804568,73.3323 C12.7758468,66.5183 8.17023934,56.6053 8.17023934,46.1343 C8.17023934,26.4373 24.2437292,10.4133 43.9990973,10.4133 Z M29.1521313,50.7559 L29.1641669,50.7939 C30.3165717,54.4579 32.8009118,57.5509 36.1608388,59.5069 C38.7294279,56.9189 41.6440392,55.6059 44.8274447,55.6059 L44.8274447,55.6059 L44.8655573,55.6059 C51.6937315,55.6299 57.3534534,61.5629 57.5911557,61.8159 L57.5911557,61.8159 L58.3183041,62.5889 L57.2611808,62.5269 C57.2521541,62.5279 57.2421245,62.5289 57.2300889,62.5289 C56.543059,62.5579 53.9624345,62.8749 49.6115797,65.7659 C47.4782767,67.1829 45.3078641,67.9319 43.3320264,67.9319 C42.060269,67.9319 40.8727604,67.6299 39.7985867,67.0359 C37.4085252,65.7149 35.7987691,62.9979 35.7887395,60.2709 C32.220196,58.2119 29.5813996,54.9369 28.3557784,51.0469 L28.3557784,51.0469 L28.3447458,51.0089 L29.1521313,50.7559 Z M44.8595395,56.4529 L44.8274447,56.4529 C41.9409163,56.4529 39.2770458,57.6319 36.9090495,59.9579 C39.0834739,61.0639 41.5337132,61.6479 44.001003,61.6479 C45.830408,61.6479 47.6176886,61.3359 49.3136996,60.7209 L49.3136996,60.7209 L49.3508092,60.7069 L49.6426715,61.5009 L49.6045589,61.5149 C47.8102576,62.1669 45.9246866,62.4969 44.001003,62.4969 C41.4344199,62.4969 38.9671302,61.9169 36.6673353,60.7729 C36.8629132,63.0489 38.2480055,65.2099 40.2108047,66.2949 C42.6971507,67.6749 45.8685206,67.2359 49.138181,65.0609 C52.717757,62.6839 55.1549578,61.9799 56.3314338,61.7739 C54.549168,60.1339 49.9906998,56.4679 44.8595395,56.4529 L44.8595395,56.4529 Z M51.3528243,25.6504 L51.8202052,26.6004 C51.8703533,26.6954 53.1130248,28.9764 58.4026533,31.6564 C62.1988694,33.5834 64.3020834,36.3894 64.3232824,39.5584 C64.340196,42.2704 62.7615318,44.9964 60.3915295,46.3484 C60.3433873,50.2804 58.8810668,54.0584 56.2733622,56.9914 L56.2733622,56.9914 L56.2462822,57.0214 L55.6134124,56.4574 L55.6394894,56.4284 C58.0937406,53.6704 59.47783,50.1104 59.5410166,46.4014 C55.9865147,45.4294 53.3978664,43.5314 51.8462822,40.7594 C48.489364,34.7684 50.9285708,26.9884 51.0348849,26.6604 L51.0348849,26.6604 L51.3528243,25.6504 Z M44.0014041,29.8017 C45.1177023,29.8017 46.2289856,29.9137 47.3071712,30.1347 L47.3071712,30.1347 L47.3462868,30.1427 L47.176786,30.9717 L47.1376704,30.9637 C46.1176567,30.7547 45.0625393,30.6487 44.0014041,30.6487 C41.4077411,30.6487 38.8311283,31.3027 36.5483839,32.5407 C37.4640894,36.0947 37.0869752,39.2827 35.4270709,42.0177 C31.9006519,47.8217 23.8739366,49.6197 23.5339321,49.6937 L23.5339321,49.6937 L22.4948621,49.9157 L23.0946341,49.0397 C23.1086756,49.0187 24.5258628,46.7717 24.2480419,40.8377 C24.0484522,36.5947 25.4546068,33.3847 28.2077411,31.7997 C30.5566811,30.4487 33.7089948,30.4677 36.0609437,31.8417 C38.486109,30.5067 41.2312195,29.8017 44.0014041,29.8017 Z M32.1102713,31.6387 C30.8515523,31.6387 29.6489993,31.9477 28.6340005,32.5327 C26.1667107,33.9517 24.9110007,36.8867 25.0965489,40.7977 C25.2971416,45.0917 24.6472213,47.5297 24.217953,48.6377 C26.5438249,47.9627 32.0380579,45.9637 34.7009255,41.5757 C36.1993526,39.1057 36.5644313,36.2137 35.7831229,32.9827 C31.9859038,35.3297 29.3912377,39.1997 28.6620834,43.6097 L28.6620834,43.6097 L28.6560656,43.6487 L27.8195943,43.5097 L27.826615,43.4697 C28.5858582,38.8827 31.2727969,34.8317 35.2024071,32.3457 C34.2505949,31.8827 33.183442,31.6387 32.1102713,31.6387 Z M51.6145977,27.7744 C51.0539412,30.1244 50.0810668,35.8764 52.590481,40.3514 C53.9876088,42.8444 56.3164896,44.5794 59.5139366,45.5104 C59.3324003,41.0134 57.2151447,36.8324 53.6987554,34.0324 L53.6987554,34.0324 L53.6676636,34.0064 L53.6927376,33.9754 L54.1992341,33.3444 L54.230326,33.3704 C57.9031776,36.2974 60.133768,40.6674 60.3584317,45.3694 C62.236982,44.1034 63.4876772,41.7804 63.4747397,39.5624 C63.4565854,36.7254 61.5188603,34.1864 58.0165124,32.4134 C54.1781719,30.4654 52.370832,28.6954 51.6145977,27.7744 Z M25.0927376,3.9889 L25.3936266,4.5969 L25.356517,4.6139 L23.0657488,5.7419 L23.7918942,7.2099 L25.9262001,6.1579 L26.2130476,6.7379 L26.176941,6.7559 L24.0787417,7.7899 L24.8791065,9.4069 L27.2079872,8.2619 L27.5088762,8.8699 L27.4727695,8.8879 L24.5421108,10.3289 L24.5240574,10.2929 L22.1259722,5.4479 L22.1620789,5.4309 L25.0927376,3.9889 Z M62.2674721,4.4371 C62.8672441,4.1551 63.5051288,4.1631 64.1179394,4.4571 C65.3596079,5.0551 65.6966036,6.4831 64.9574196,8.0101 C64.4037839,9.1511 63.5201732,9.7891 62.5904263,9.7891 C62.2754958,9.7891 61.9565535,9.7171 61.6426259,9.5661 C60.4009574,8.9671 60.0629587,7.5381 60.8031457,6.0111 C61.1672213,5.2611 61.6737178,4.7181 62.2674721,4.4371 Z M63.1861865,4.9151 C62.5222248,4.9151 61.8913608,5.4121 61.450057,6.3231 C61.1120584,7.0171 61.0268065,7.6501 61.2023251,8.1531 C61.3266925,8.5101 61.5744244,8.7801 61.9385001,8.9551 C62.3025758,9.1311 62.6686574,9.1561 63.0237064,9.0321 C63.5291999,8.8561 63.9745156,8.3961 64.3105083,7.7001 C64.8912241,6.5021 64.7046729,5.4931 63.8230682,5.0671 C63.6104399,4.9651 63.3968088,4.9151 63.1861865,4.9151 Z M56.638842,1.7009 L57.4071119,1.9529 L57.4111238,1.9749 L58.3378619,6.7729 L59.6818327,2.7009 L60.3658537,2.9259 L60.3528151,2.9639 L58.6578072,8.0959 L57.8815136,7.8399 L57.8775017,7.8169 L56.9507636,3.0199 L55.6057898,7.0939 L54.9297926,6.8709 L54.9428311,6.8329 L56.638842,1.7009 Z M28.4408297,2.5441 C29.4889264,2.1661 30.5239845,2.5901 31.0665876,3.6261 L31.0665876,3.6261 L31.084641,3.6601 L30.4587919,4.0151 L30.4387326,3.9801 C29.9984317,3.2031 29.38863,2.9251 28.6715113,3.1821 C28.2181719,3.3441 27.9072532,3.6681 27.7738591,4.1161 C27.6384591,4.5681 27.6855984,5.1341 27.9092592,5.7541 C28.1730385,6.4871 28.5662001,6.9931 29.0446136,7.2181 C29.3856212,7.3791 29.7537087,7.3891 30.1408525,7.2501 C30.9010987,6.9791 31.1789195,6.3411 30.9442261,5.4031 L30.9442261,5.4031 L30.9341965,5.3631 L31.657333,5.2031 L31.6673627,5.2391 C32.0013494,6.4681 31.5048826,7.4821 30.3715341,7.8891 C30.1077547,7.9841 29.8459813,8.0301 29.5932346,8.0301 C28.5832505,8.0301 27.7006428,7.2951 27.230253,5.9971 C26.6535491,4.3991 27.1409893,3.0111 28.4408297,2.5441 Z M51.7428767,0.6192 L51.7819922,0.6272 L54.985457,1.2722 L54.850057,1.9362 L52.3045361,1.4232 L51.9785731,3.0292 L54.3144746,3.4992 L54.1860953,4.1332 L51.8511967,3.6632 L51.4901299,5.4332 L54.0386597,5.9472 L53.9032596,6.6092 L53.8641441,6.6012 L50.6606793,5.9562 L50.6677,5.9172 L51.7428767,0.6192 Z M34.0866104,0.9478 C35.4285753,0.6538 36.5819831,1.5688 36.9480647,3.2278 C37.1265922,4.0408 37.0644085,4.7798 36.7695373,5.3668 C36.4736631,5.9558 35.9651607,6.3438 35.301199,6.4878 C35.1327012,6.5248 34.9682152,6.5428 34.8077411,6.5428 C33.6814133,6.5428 32.760693,5.6608 32.4407477,4.2108 C32.076672,2.5538 32.7396307,1.2418 34.0866104,0.9478 Z M34.5660269,1.5718 C34.4567039,1.5718 34.3463779,1.5848 34.2330431,1.6088 C33.7626533,1.7118 33.4136221,1.9908 33.2220561,2.4178 C33.0294871,2.8488 33.0004012,3.4148 33.141819,4.0578 C33.4286665,5.3558 34.2019512,6.0298 35.1577752,5.8278 C36.1146022,5.6178 36.5328379,4.6808 36.2469934,3.3798 C35.9942466,2.2348 35.3653886,1.5718 34.5660269,1.5718 Z M39.8477319,0.1939 C41.2689309,0.0749 42.2869387,1.0569 42.4273535,2.6989 C42.5045817,3.6129 42.3400957,4.3289 41.9379075,4.8279 C41.5658081,5.2899 41.0011397,5.5559 40.2589469,5.6179 L40.2589469,5.6179 L38.5960337,5.7589 L38.5920219,5.7189 L38.1396854,0.3369 L38.179804,0.3329 Z M47.795514,0.0522 C47.8677274,0.0522 47.9419467,0.0552 48.0191748,0.0622 C49.0452063,0.1542 49.7703488,0.8462 49.8636243,1.8272 L49.8636243,1.8272 L49.8676362,1.8662 L49.1565352,1.9492 L49.1505174,1.9112 C49.0482152,1.2042 48.6339913,0.7972 47.9519763,0.7362 C47.8988192,0.7312 47.8476681,0.7292 47.796517,0.7292 C47.2509049,0.7292 46.8838204,0.9912 46.8447048,1.4222 C46.8106041,1.8122 47.085416,2.0482 48.0221837,2.4332 C49.3882197,3.0112 49.8666332,3.5432 49.790408,4.3952 C49.7181947,5.2122 48.998067,5.7442 48.0071393,5.7442 C47.9238933,5.7442 47.8376385,5.7402 47.7503807,5.7322 C46.4204513,5.6162 45.6822703,4.8642 45.6752496,3.6142 L45.6752496,3.6142 L45.6752496,3.5772 L46.3923684,3.5212 L46.3923684,3.5632 C46.4154365,4.5002 46.867773,4.9742 47.8165762,5.0582 C48.2418327,5.1002 48.6028995,5.0112 48.8295692,4.8212 C48.9770048,4.6972 49.0642626,4.5312 49.079307,4.3402 C49.1294552,3.8142 48.8024892,3.5032 47.7343333,3.0612 C46.4756143,2.5202 46.0714201,2.0912 46.1366127,1.3612 C46.2068202,0.5692 46.8757967,0.0522 47.795514,0.0522 Z M43.8619922,0 L43.9021108,0.001 L44.5710873,0.012 L44.5700843,0.052 L44.4858354,5.452 L44.4457169,5.451 L43.7777433,5.44 L43.7787463,5.4 L43.8619922,0 Z M40.0310156,0.863797119 L39.8647823,0.8719 L38.9039435,0.9529 L39.2469569,5.0229 L40.1646683,4.9449 C40.7002507,4.9009 41.0873946,4.7299 41.3471621,4.4249 C41.6520629,4.0649 41.7744244,3.5049 41.7112377,2.7589 C41.6550718,2.1019 41.458491,1.6029 41.1265101,1.2769 C40.8095737,0.9689 40.3712788,0.8269 39.8647823,0.8719 Z M57.5532437,1.5572 C57.7287623,1.1282 58.0747846,0.9422 58.4619284,1.0642 C58.6785685,1.1352 58.8079508,1.2742 58.9242945,1.3952 C59.0175701,1.4952 59.0998131,1.5802 59.2091361,1.6162 C59.3335035,1.6602 59.4207613,1.6162 59.5050103,1.4802 L59.5050103,1.4802 L59.5210577,1.4532 L59.9342786,1.5892 L59.9182311,1.6282 C59.7788192,1.9702 59.5310873,2.1592 59.2422339,2.1592 C59.1680146,2.1592 59.0907864,2.1462 59.0115523,2.1212 C58.7939093,2.0492 58.6625211,1.9112 58.5471803,1.7892 C58.4529018,1.6892 58.3716617,1.6042 58.2623387,1.5682 C58.1359654,1.5272 58.0477046,1.5672 57.9674675,1.7052 L57.9674675,1.7052 L57.9514201,1.7322 L57.9203282,1.7222 L57.5361933,1.5962 Z" id="Fill-49"></path>
                </g>
            </g>
        </g>
    </g>
</svg>