<?xml version="1.0" encoding="UTF-8"?>
<svg width="88px" height="90px" viewBox="0 0 88 90" version="1.1" xmlns="http://www.w3.org/2000/svg" xmlns:xlink="http://www.w3.org/1999/xlink">
    <title>3. icons/seal/bloque3/formulasicura</title>
    <g id="Yanbal-UI-Visual-Kit" stroke="none" stroke-width="1" fill="none" fill-rule="evenodd">
        <g id="yanbal-styleguide-pag2" transform="translate(-244.000000, -5750.000000)" fill="#1D1F28">
            <g id="Group" transform="translate(240.000000, 5747.000000)">
                <g id="elementos" transform="translate(3.999599, 2.999700)">
                    <path d="M78.2316093,18.6058 C84.5317577,26.3748 88.0004013,36.1548 88.0004013,46.1478 C88.0004013,70.3288 68.2621436,90.0008 43.999699,90.0008 C19.7382577,90.0008 0,70.3288 0,46.1478 C0,36.1538 3.46964697,26.3738 9.7707988,18.6058 L9.7707988,18.6058 L10.4029207,19.1168 C4.22016633,26.7398 0.815738285,36.3388 0.815738285,46.1478 C0.815738285,69.8788 20.1877667,89.1888 43.999699,89.1888 C67.8136381,89.1888 87.1876732,69.8788 87.1876732,46.1478 C87.1876732,36.3398 83.7822418,26.7418 77.5994874,19.1168 L77.5994874,19.1168 Z M45.086146,78.7295 L47.1781685,84.1505 L46.4146054,84.1675 L46.0192784,83.1125 L46.0122548,83.0955 L43.6844407,83.1485 L43.6663801,83.1495 L43.3131945,84.2385 L42.5496314,84.2575 L44.3968321,78.7455 L45.086146,78.7295 Z M38.9028899,78.3929 L39.6303318,78.4759 L39.1055703,83.1779 L39.1025602,83.2039 L41.5116471,83.4719 L41.4343877,84.1669 L38.2958522,83.8169 L38.9028899,78.3929 Z M51.1190975,77.8555 C52.1294892,77.6305 53.036534,78.0735 53.4268442,78.9905 L53.4268442,78.9905 L53.4459082,79.0375 L52.7746549,79.3415 L52.7515775,79.2955 C52.4425401,78.6595 51.9268089,78.4015 51.2655893,78.5425 C50.9645788,78.6085 50.7247738,78.7365 50.5722619,78.9145 C50.4247668,79.0885 50.373595,79.2975 50.4237634,79.5165 C50.507043,79.8925 50.8391578,80.0325 51.8445327,80.1165 C53.3295175,80.2575 53.9506024,80.6235 54.1392356,81.4655 C54.3328856,82.3415 53.6947435,83.1245 52.5890318,83.3705 C52.3472201,83.4245 52.1134353,83.4505 51.8936977,83.4505 C50.9374879,83.4505 50.2662346,82.9375 49.9521804,81.9665 L49.9521804,81.9665 L49.9371299,81.9225 L50.624437,81.6405 L50.6424977,81.6925 C50.9425047,82.5645 51.5314818,82.8875 52.4415367,82.6845 C52.8579345,82.5915 53.1739954,82.4045 53.3305209,82.1565 C53.4338678,81.9945 53.4649722,81.8175 53.4218274,81.6315 C53.3084468,81.1205 52.9040894,80.9255 51.7592464,80.8275 C50.3866388,80.6895 49.8689008,80.3985 49.7073586,79.6755 C49.5187254,78.8305 50.0986721,78.0825 51.1190975,77.8555 Z M33.9597903,77.244 L34.6711849,77.427 L33.7711637,80.937 C33.66581,81.345 33.6898908,81.682 33.8413994,81.937 C33.9868878,82.184 34.2588006,82.361 34.6511175,82.462 C35.0554749,82.562 35.3755493,82.538 35.6324115,82.387 C35.8892738,82.235 36.0688767,81.957 36.1682101,81.564 L36.1682101,81.564 L37.0742515,78.038 L37.7936665,78.222 L36.8816048,81.777 C36.6397931,82.715 36.0267352,83.231 35.156815,83.231 C34.9400875,83.231 34.7113196,83.201 34.4775348,83.14 C33.2484089,82.826 32.7407046,81.995 33.0467319,80.8 L33.0467319,80.8 L33.9597903,77.244 Z M44.7660716,79.7875 L43.8861177,82.4885 L45.7333184,82.4485 L45.7684363,82.4475 L44.7921591,79.8535 L44.7660716,79.7875 Z M54.7838996,76.9411 L56.5418005,82.1131 L55.8464664,82.3481 L54.0885655,77.1761 L54.7838996,76.9411 Z M28.0809627,74.7517 L28.9288088,75.1327 L28.763253,79.6027 L28.7612463,79.6647 L32.061324,76.5447 L32.9111768,76.9277 L30.6515918,81.9127 L29.9763251,81.6087 L31.6519498,77.9117 L31.7031216,77.7967 L28.3859866,80.8917 L28.0759458,80.7537 L28.2164174,76.2217 L26.4876141,80.0377 L25.8173642,79.7357 L28.0809627,74.7517 Z M58.6759645,75.3969 C59.380329,75.3969 60.0375351,75.7689 60.4800204,76.4609 L60.4800204,76.4609 L60.506108,76.5029 L59.8940534,76.9199 L59.8649558,76.8779 C59.3632717,76.1489 58.7361666,75.9289 58.0498628,76.2429 C57.6174112,76.4429 57.3394782,76.7869 57.2451616,77.2419 C57.150845,77.7029 57.246165,78.2589 57.5220912,78.8529 C58.0839774,80.0679 58.9549009,80.5519 59.8579322,80.1419 C60.5853741,79.8069 60.803105,79.1519 60.4890507,78.2469 L60.4890507,78.2469 L60.4729969,78.1979 L61.198432,77.9699 L61.2154893,78.0159 C61.658978,79.2149 61.2526139,80.2729 60.1529224,80.7789 C59.8388682,80.9219 59.5208005,80.9949 59.2067463,80.9949 C58.2475264,80.9949 57.3886432,80.3269 56.8478278,79.1619 C56.4956456,78.4009 56.3963122,77.6609 56.5608645,77.0179 C56.7254169,76.3779 57.1388046,75.8899 57.755876,75.6059 C58.0629066,75.4649 58.3739507,75.3969 58.6759645,75.3969 Z M24.2852211,72.2227 L25.9508122,73.3467 C26.4173783,73.6627 26.7193921,74.0477 26.8247458,74.4627 C26.9300994,74.8797 26.8367862,75.3197 26.5558431,75.7337 C26.089277,76.4167 25.3568182,76.6407 24.5922517,76.3257 L24.5922517,76.3257 L24.5611473,76.3127 L24.2952548,78.8327 L23.5798533,78.3497 L23.8617997,75.9267 L23.8628031,75.9117 L23.0621153,75.3727 L23.0410446,75.3577 L21.8159321,77.1597 L21.207891,76.7477 L24.2852211,72.2227 Z M63.6948119,72.241 L65.7306458,75.306 C66.4049092,76.322 66.1871783,77.304 65.1316351,78.001 C64.7112238,78.279 64.3038564,78.419 63.9195664,78.419 C63.3396196,78.419 62.8379355,78.106 62.4255512,77.488 L62.4255512,77.488 L60.3897173,74.421 L61.004782,74.019 L63.0125216,77.044 C63.4790878,77.743 64.0610413,77.867 64.7413249,77.416 C65.4336489,76.96 65.5530497,76.379 65.0955138,75.689 L65.0955138,75.689 L63.0747304,72.65 L63.6948119,72.241 Z M24.4989385,73.2127 L23.4494154,74.7557 L23.4353683,74.7767 L24.4487701,75.4617 C24.7317199,75.6527 24.993599,75.7497 25.2263804,75.7497 C25.2524679,75.7497 25.2775521,75.7487 25.3026363,75.7457 C25.552475,75.7197 25.7671958,75.5757 25.9407785,75.3187 C26.0973039,75.0887 26.1554993,74.8637 26.1153645,74.6497 C26.0641928,74.3857 25.8615124,74.1317 25.5113369,73.8967 L25.5113369,73.8967 L24.5200092,73.2267 L24.4989385,73.2127 Z M67.4082773,69.6106 L67.4825266,69.6126 C67.8798603,69.6336 68.2561234,69.8306 68.5721844,70.1816 C69.1250402,70.7976 69.1631682,71.5596 68.6735245,72.2236 L68.6735245,72.2236 L68.6534572,72.2506 L71.0424767,73.1146 L70.4003211,73.6896 L68.1116384,72.8336 L68.0965879,72.8286 L67.3581089,73.4886 L68.8160028,75.1066 L68.2691672,75.5976 L64.6068735,71.5286 L66.1049021,70.1906 C66.5293269,69.8096 66.9788358,69.6106 67.4082773,69.6106 L67.4082773,69.6106 Z M20.4892788,69.4775 C21.0200605,69.4775 21.5127143,69.6745 21.9311188,70.0555 C22.4348096,70.5165 22.6796314,71.1095 22.6374899,71.7695 C22.5973552,72.4275 22.2762774,73.0985 21.7093744,73.7155 C21.1454815,74.3285 20.5003158,74.7055 19.8471232,74.8045 C19.7327392,74.8215 19.620362,74.8295 19.5130016,74.8295 C18.9832232,74.8295 18.4855526,74.6295 18.072165,74.2505 C17.5684742,73.7915 17.322649,73.1985 17.3647904,72.5375 C17.4059285,71.8805 17.7270063,71.2075 18.292906,70.5935 C18.8578022,69.9775 19.5029679,69.6005 20.1571639,69.5025 C20.2685378,69.4855 20.3799117,69.4775 20.4892788,69.4775 Z M20.5073394,70.1895 C20.4170363,70.1895 20.3217163,70.1995 20.2233862,70.2185 C19.7608335,70.3075 19.2832303,70.6095 18.8397416,71.0925 C17.9427305,72.0675 17.8303533,73.0805 18.5457547,73.7365 C18.8256944,73.9915 19.148779,74.1175 19.4929342,74.1175 C20.0297362,74.1175 20.6167065,73.8105 21.1645455,73.2155 C21.6070309,72.7335 21.8679066,72.2325 21.918075,71.7655 C21.96724,71.3065 21.8077045,70.8935 21.457529,70.5725 C21.1826062,70.3225 20.8535014,70.1895 20.5073394,70.1895 Z M67.3701493,70.3446 L67.3390449,70.3446 C67.0892063,70.3556 66.8182969,70.4906 66.5333403,70.7476 L66.5333403,70.7476 L65.6232854,71.5616 L66.8875293,72.9666 L67.7995909,72.1526 C68.3685006,71.6406 68.4427499,71.1446 68.0213353,70.6756 C67.8206616,70.4566 67.6019274,70.3446 67.3701493,70.3446 L67.3701493,70.3446 Z M69.3837085,66.7278 L74.8520648,68.7288 L74.3624211,69.3128 L73.3058745,68.9148 L73.2888172,68.9088 L71.7948021,70.6898 L71.7827617,70.7038 L72.3727421,71.6828 L71.8830985,72.2668 L68.9422265,67.2538 L69.3837085,66.7278 Z M69.973689,67.6638 L71.4305795,70.1018 L72.6155572,68.6898 L72.6386347,68.6638 L70.0409146,67.6888 L69.973689,67.6638 Z M17.7082434,65.5988 L19.82234,68.1768 L19.2785145,68.6218 L17.6430244,66.6278 L17.6269705,66.6088 L16.2383091,67.7418 L16.2182417,67.7568 L17.7333276,69.6028 L17.2115761,70.0268 L15.7135475,68.2008 L15.6974936,68.1808 L13.9245422,69.6268 L13.4589793,69.0618 L17.7082434,65.5988 Z M49.1430643,40.2915 L49.1430643,41.1035 L47.3279714,41.1035 L47.3279714,48.4265 L54.795037,60.9525 C55.0217982,61.2945 55.141199,61.6915 55.141199,62.0975 C55.141199,63.2165 54.2612451,64.1255 53.1394796,64.1695 L53.1394796,64.1695 L34.4377011,64.1695 C33.3219557,64.1255 32.4480221,63.2155 32.4480221,62.0975 C32.4480221,61.6795 32.5714364,61.2755 32.8042178,60.9315 L32.8042178,60.9315 L40.2582396,48.4315 L40.2612497,48.4265 L40.2612497,41.1035 L38.44415,41.1035 L38.44415,40.2915 L49.1430643,40.2915 Z M43.9994983,10.4418 C63.7548133,10.4418 79.8267639,26.4588 79.8267639,46.1478 C79.8267639,52.3198 78.2153547,58.4098 75.166119,63.7578 L75.166119,63.7578 L74.4587445,63.3558 C77.4387478,58.1268 79.0130324,52.1758 79.0130324,46.1478 C79.0130324,26.9078 63.3063078,11.2528 43.9994983,11.2528 C24.6946956,11.2528 8.98897435,26.9078 8.98897435,46.1478 C8.98897435,52.1798 10.5632589,58.1308 13.5422589,63.3558 L13.5422589,63.3558 L12.8348844,63.7578 C9.78564864,58.4108 8.17423944,52.3218 8.17423944,46.1478 C8.17423944,26.4588 24.2451867,10.4418 43.9994983,10.4418 Z M46.5142398,41.1035 L41.0749812,41.1035 L41.0749812,48.6495 L33.4925283,61.3685 C33.339013,61.5975 33.2617537,61.8425 33.2617537,62.0975 C33.2617537,62.7775 33.7975522,63.3315 34.483856,63.3585 L34.483856,63.3585 L53.1053651,63.3585 C53.7906655,63.3315 54.3274674,62.7775 54.3274674,62.0975 C54.3274674,61.8515 54.2532182,61.6095 54.1147534,61.3995 L54.1147534,61.3995 L51.3534843,56.7665 L51.3454574,56.7545 L47.5788134,56.7545 L47.5788134,55.9415 L50.8618339,55.9415 L49.2604584,53.2575 L49.2534348,53.2445 L45.489801,53.2445 L45.489801,52.4315 L48.768808,52.4315 L46.5142398,48.6495 L46.5142398,41.1035 Z M55.9944632,23.2019 C56.4971507,23.2019 57.0028482,23.2309 57.5095491,23.2879 L57.5095491,23.2879 L57.8316303,23.3269 L57.8687549,23.6479 C58.3202705,27.6049 56.9607067,31.4869 54.1402389,34.2989 C51.681987,36.7479 48.4180305,38.0979 44.9503903,38.0979 C44.4497096,38.0979 43.9450154,38.0709 43.4523617,38.0149 L43.4523617,38.0149 L43.4282808,38.0129 L43.4092168,38.0149 C43.0750953,38.0519 42.7339501,38.0709 42.3948117,38.0709 C40.0479336,38.0709 37.838517,37.1569 36.1719226,35.4989 C34.2645198,33.5949 33.3444312,30.9669 33.6494551,28.2869 L33.6494551,28.2869 L33.6865797,27.9649 L34.0076575,27.9279 C34.3488027,27.8899 34.6879411,27.8699 35.0270795,27.8699 C37.3508801,27.8699 39.5743439,28.7809 41.2459552,30.4449 C42.1218955,31.3189 42.7941522,32.3579 43.2426577,33.5309 L43.2426577,33.5309 L43.2737622,33.6109 L43.2908194,33.5269 C43.8065506,31.0479 45.0266463,28.7929 46.8196651,27.0049 C49.2889541,24.5459 52.5679611,23.2019 55.9944632,23.2019 Z M56.0065036,24.0159 C52.7897054,24.0159 49.6993316,25.2849 47.3966018,27.5789 C44.9814947,29.9879 43.7222677,33.1999 43.8517022,36.6249 L43.8517022,36.6249 L43.8537089,36.6829 L52.5017388,28.0629 L53.0786755,28.6379 L44.4707803,37.2179 L44.4296422,37.2579 L44.4878376,37.2609 C44.6453664,37.2669 44.8028952,37.2699 44.960424,37.2699 C46.4845401,37.2699 47.9715317,36.9919 49.3862808,36.4439 C50.9585586,35.8339 52.3642774,34.9189 53.5633023,33.7239 C56.113864,31.1839 57.400182,27.6699 57.0931513,24.0849 L57.0931513,24.0849 L57.0911446,24.0639 L57.0700739,24.0619 C56.7148815,24.0319 56.3596892,24.0159 56.0065036,24.0159 Z M35.0330997,28.6839 C34.8394497,28.6839 34.6447963,28.6909 34.4501429,28.7039 L34.4501429,28.7039 L34.4290721,28.7059 L34.4270654,28.7279 C34.2635164,31.0319 35.1093557,33.2889 36.7498626,34.9239 C38.2579249,36.4269 40.2827218,37.2609 42.3787578,37.2609 C42.5744146,37.2609 42.7710747,37.2539 42.9677349,37.2399 L42.9677349,37.2399 L42.9888056,37.2379 L42.9908123,37.2159 C43.153358,34.9109 42.3075186,32.6539 40.6680151,31.0199 C39.1609562,29.5169 37.1341526,28.6839 35.0330997,28.6839 Z M75.7453634,12.565 L76.2400239,13.039 L73.8720751,18.335 L73.321226,17.809 L73.7908023,16.787 L73.7978259,16.771 L72.1161809,15.167 L72.1031371,15.155 L71.0837151,15.674 L70.532866,15.149 L75.7453634,12.565 Z M13.1734208,11.6616 L13.6630644,12.1676 L11.8008132,13.9536 L11.7837559,13.9696 L13.026929,15.2596 L13.0449897,15.2776 L14.7687761,13.6236 L15.237349,14.1066 L13.5306198,15.7436 L13.5125592,15.7596 L15.103901,17.4076 L14.5741227,17.9156 L10.7653373,13.9736 L13.1734208,11.6616 Z M75.2637467,13.56 L72.7603432,14.828 L72.7282355,14.845 L74.0627151,16.116 L74.0877993,16.14 L75.234649,13.625 L75.2637467,13.56 Z M70.3709224,8.169 L71.9843383,9.369 C72.9084404,10.06 73.0920567,10.962 72.4769921,11.784 C72.0050077,12.4093333 71.3389853,12.6095644 70.6355538,12.3472936 L70.484303,12.284 L70.4531986,12.269 L70.0719187,14.776 L69.3816014,14.259 L69.7759251,11.851 L69.7779318,11.836 L69.0023283,11.258 L68.9822609,11.243 L67.6728655,12.988 L67.0858952,12.549 L70.3709224,8.169 Z M17.2976651,8.7958 C17.4722512,8.7958 17.6498473,8.8178 17.8274435,8.8628 C18.4706025,9.0228 19.0766368,9.4588 19.5803276,10.1248 C20.0850218,10.7898 20.341884,11.4898 20.3208133,12.1488 C20.2987392,12.8108 19.9987321,13.3778 19.4539032,13.7898 C19.0585762,14.0868 18.6241178,14.2378 18.1615651,14.2378 C17.9859757,14.2378 17.8083795,14.2158 17.6337934,14.1718 C16.9916378,14.0148 16.3856035,13.5788 15.8819127,12.9118 C15.3762152,12.2478 15.1203563,11.5468 15.141427,10.8868 C15.1635011,10.2248 15.4625048,9.6588 16.0083371,9.2458 C16.4036641,8.9478 16.842136,8.7958 17.2976651,8.7958 Z M17.2796045,9.5088 C16.9775907,9.5088 16.6916308,9.6098 16.4307551,9.8068 C15.6561549,10.3908 15.6722088,11.4108 16.4718932,12.4658 C17.0016715,13.1638 17.6077059,13.5278 18.1816324,13.5278 C18.4786294,13.5278 18.7665961,13.4298 19.0304819,13.2308 C19.8060854,12.6448 19.7900315,11.6268 18.9893438,10.5708 C18.4706025,9.8868 17.8635647,9.5088 17.2796045,9.5088 Z M21.130732,6.0115 C21.6514801,5.7105 22.158181,5.6105 22.5956495,5.7295 C22.9819462,5.8325 23.311051,6.1035 23.5488492,6.5125 C23.9632402,7.2275 23.8428361,7.9835 23.2257647,8.5315 L23.2257647,8.5315 L23.2006805,8.5535 L25.3589253,9.8915 L24.611416,10.3225 L22.5464844,9.0125 L22.5334407,9.0055 L21.6956283,9.4865 L21.6735542,9.4995 L22.7662221,11.3845 L22.1300867,11.7495 L19.3878816,7.0135 Z M70.5384849,9.168 L69.4167193,10.661 L69.4016688,10.681 L70.3839662,11.413 C70.6769497,11.63 70.9428422,11.739 71.1826472,11.739 C71.4485398,11.739 71.6813212,11.606 71.8809914,11.34 C72.0666145,11.093 72.1308301,10.848 72.0726347,10.61 C72.022753,10.4034286 71.8792509,10.1983265 71.644024,9.99973178 L71.5187755,9.901 L70.5585522,9.184 L70.5384849,9.168 Z M65.2708022,5.1114 L65.907941,5.4764 L64.1048885,8.6114 C63.6894941,9.3354 63.8369892,9.9074 64.5443637,10.3104 C65.2617719,10.7174 65.8346951,10.5624 66.2430659,9.8514 L66.2430659,9.8514 L68.0551488,6.7004 L68.6973044,7.0684 L66.8721777,10.2444 C66.5671538,10.7724 66.1798537,11.0994 65.7183044,11.2144 C65.59188,11.2454 65.4624455,11.2624 65.333011,11.2624 C64.9778187,11.2624 64.5955355,11.1454 64.196195,10.9184 C63.6513661,10.6064 63.3092175,10.2194 63.1817898,9.7674 C63.0523553,9.3144 63.1406517,8.8174 63.4436689,8.2894 L63.4436689,8.2894 L65.2708022,5.1114 Z M29.2098522,2.3183 L31.2597332,7.3873 L30.5734294,7.6643 L29.0031583,3.7843 L28.9570034,8.3133 L28.6429492,8.4403 L25.5455518,5.3023 L25.4572554,5.2133 L27.0265231,9.0883 L26.3462395,9.3633 L24.2943517,4.2943 L25.159255,3.9453 L28.2817366,7.1513 L28.3248815,7.1953 L28.3439455,2.6673 L29.2098522,2.3183 Z M16.0502779,7.5248 L15.9519478,8.8418 L15.4281896,9.2368 L15.3358798,8.0648 L16.0502779,7.5248 Z M22.3769152,6.4295 C22.1150362,6.3625 21.8070021,6.4315 21.4357559,6.6455 L21.4357559,6.6455 L20.3962666,7.2435 L20.3751958,7.2565 L21.3103349,8.8695 L21.3223753,8.8905 L22.3829354,8.2825 C22.744148,8.0745 22.9628822,7.8365 23.033118,7.5745 C23.0913133,7.3585 23.0481685,7.1265 22.9066936,6.8825 C22.7652187,6.6385 22.5876225,6.4865 22.3769152,6.4295 Z M58.5405098,5.1552 C59.2007261,3.5612 60.4709901,2.8712 61.7733619,3.4062 C62.7957941,3.8272 63.2824276,4.7992 63.0135249,5.8782 L63.0135249,5.8782 L63.0004812,5.9272 L62.275046,5.7722 L62.2860831,5.7212 C62.4606691,4.9132 62.1897597,4.3362 61.5044593,4.0532 C61.0619739,3.8712 60.6164785,3.9052 60.2141279,4.1502 C59.8147874,4.3952 59.4736422,4.8392 59.2268136,5.4362 C58.93082,6.1492 58.881655,6.7812 59.0853387,7.2702 C59.2298237,7.6142 59.4906995,7.8672 59.8609423,8.0202 C60.247239,8.1772 60.6194886,8.1912 60.9335428,8.0572 C61.255624,7.9192 61.5175031,7.6272 61.6920891,7.2152 L61.6920891,7.2152 L61.7011194,7.1912 L60.4368756,6.6702 L60.7067816,6.0232 L62.640272,6.8202 L62.4115041,7.3692 C62.1516317,7.9972 61.7502845,8.4492 61.2506072,8.6802 C60.7519332,8.9102 60.1759999,8.9072 59.5910363,8.6662 C58.9528941,8.4042 58.5174324,7.9332 58.3287992,7.3042 C58.1431761,6.6792 58.2164219,5.9352 58.5405098,5.1552 Z M55.0486884,1.3043 L58.2504361,2.2023 L58.0618029,2.8773 L55.5874971,2.1823 L55.5634163,2.1753 L55.1259478,3.7263 L57.4166372,4.3703 L57.2340242,5.0143 L54.9664123,4.3773 L54.9423314,4.3703 L54.4597113,6.0843 L56.9560912,6.7853 L56.7664547,7.4593 L53.5627002,6.5603 L55.0486884,1.3043 Z M35.1271153,0.8014 L35.9839917,4.3714 C36.1234599,4.9524 36.0702814,5.4484 35.8254596,5.8464 C35.5716074,6.2594 35.1241052,6.5434 34.4949934,6.6934 C34.2692356,6.7474 34.0515047,6.7744 33.8468176,6.7744 C33.5046691,6.7744 33.2016519,6.6954 32.9467964,6.5394 C32.550466,6.2974 32.2775499,5.8754 32.1350716,5.2884 L32.1350716,5.2884 L31.2791986,1.7194 L31.9935967,1.5494 L32.839436,5.0734 C32.9367627,5.4824 33.1143589,5.7684 33.3692144,5.9244 C33.6150396,6.0774 33.9391275,6.1064 34.330441,6.0114 C34.7297816,5.9164 35.011728,5.7404 35.1652433,5.4904 C35.319762,5.2394 35.3498631,4.9104 35.2535397,4.5134 L35.2535397,4.5134 L34.4056937,0.9744 L35.1271153,0.8014 Z M49.8800382,0.7315 C50.2502811,0.4615 50.7619988,0.3645 51.3188681,0.4505 C52.3453137,0.6115 53.0235906,1.3575 53.0476714,2.3495 L53.0476714,2.3495 L53.0486748,2.3995 L52.3111992,2.4365 L52.3071857,2.3865 C52.2560139,1.6785 51.8737307,1.2485 51.2034808,1.1425 C50.5954397,1.0495 50.132887,1.2895 50.0596411,1.7415 C50.0014458,2.1215 50.258308,2.3735 51.1593326,2.8195 C52.487792,3.4915 52.9312807,4.0575 52.795826,4.9125 C52.727597,5.3455 52.4777583,5.7025 52.0904582,5.9185 C51.7041615,6.1345 51.2145178,6.2025 50.653635,6.1165 C49.3251756,5.9065 48.6378685,5.1005 48.7181379,3.8465 L48.7181379,3.8465 L48.7221514,3.7985 L49.4646438,3.7895 L49.4626371,3.8455 C49.4204956,4.7755 49.83589,5.2775 50.7690224,5.4245 C51.1874269,5.4915 51.5526529,5.4325 51.7924579,5.2595 C51.9459732,5.1465 52.0402898,4.9935 52.0713942,4.8045 C52.1536704,4.2885 51.8496498,3.9585 50.8201942,3.4465 C49.5930749,2.8185 49.219822,2.3575 49.3372161,1.6265 C49.394408,1.2565 49.5820379,0.9475 49.8800382,0.7315 Z M37.7944692,0.4148 L38.3563553,5.1188 L38.3593654,5.1428 L40.7694556,4.8558 L40.8497251,5.5508 L37.7141997,5.9248 L37.0650205,0.5008 L37.7944692,0.4148 Z M43.9991973,0 L46.0500818,5.434 L45.2855152,5.447 L44.8982151,4.389 L44.8921949,4.372 L42.5633775,4.408 L42.5463203,4.408 L42.1871145,5.494 L41.4215446,5.505 L43.3138969,0.011 L43.9991973,0 Z M43.6731027,1.058 L42.7821118,3.715 L42.7720781,3.748 L44.6202822,3.721 L44.6554001,3.72 L43.6731027,1.058 Z" id="cleanbeauty-it"></path>
                </g>
            </g>
        </g>
    </g>
</svg>