<?xml version="1.0" encoding="UTF-8"?>
<svg width="88px" height="90px" viewBox="0 0 88 90" version="1.1" xmlns="http://www.w3.org/2000/svg" xmlns:xlink="http://www.w3.org/1999/xlink">
    <title>3. icons/seal/bloque3/metalliregolamentati</title>
    <g id="Yanbal-UI-Visual-Kit" stroke="none" stroke-width="1" fill="none" fill-rule="evenodd">
        <g id="yanbal-styleguide-pag2" transform="translate(-964.000000, -5750.000000)" fill="#1D1F28">
            <g id="Group" transform="translate(960.000000, 5747.000000)">
                <g id="elements" transform="translate(3.999798, 3.000000)">
                    <path d="M86.8182527,36.3869 C87.6025179,39.6869 88.0002019,43.0589 88.0002019,46.4079 C88.0002019,70.4449 68.2613483,89.9999 43.9995963,89.9999 C19.7378442,89.9999 0,70.4449 0,46.4079 C0,43.0589 0.397684,39.6869 1.18194915,36.3869 L1.18194915,36.3869 L1.9742891,36.5719 C1.2051642,39.8089 0.815555005,43.1179 0.815555005,46.4079 C0.815555005,69.9999 20.1870051,89.1929 43.9995963,89.1929 C67.8121874,89.1929 87.1846469,69.9999 87.1846469,46.4079 C87.1846469,43.1179 86.7950377,39.8089 86.0259128,36.5719 L86.0259128,36.5719 Z M42.2282875,78.7866 L44.2379039,78.8176 C45.3926005,78.8346 46.0718933,79.4546 46.0557437,80.4726 C46.0436315,81.2936 45.5510685,81.8766 44.7395509,82.0326 L44.7395509,82.0326 L44.7072517,82.0376 L45.8710326,84.2766 L45.0070287,84.2636 L43.9038089,82.0836 L42.9368514,82.0696 L42.9116176,82.0696 L42.8772997,84.2306 L42.1445114,84.2206 L42.2282875,78.7866 Z M50.1420982,78.2845 L50.2369771,78.9745 L47.6843303,79.3155 L47.6590965,79.3185 L47.8750975,80.9105 L50.2389958,80.5945 L50.328828,81.2545 L47.9901634,81.5675 L47.9649297,81.5705 L48.2041457,83.3275 L50.7810169,82.9845 L50.8748864,83.6745 L47.5702737,84.1155 L46.8374854,78.7245 L50.1420982,78.2845 Z M37.0665712,80.2769 C37.1836559,80.2769 37.3037685,80.2929 37.4258999,80.3239 C37.8336774,80.4259 38.1385012,80.6679 38.3060533,81.0229 C38.4756242,81.3809 38.4978299,81.8329 38.3706518,82.3319 C38.244483,82.8269 38.0123324,83.2139 37.6974151,83.4499 C37.4733394,83.6179 37.2189831,83.7019 36.9404025,83.7019 C36.8223085,83.7019 36.7001771,83.6859 36.5790551,83.6549 C36.1692589,83.5539 35.8664538,83.3129 35.702939,82.9639 C35.538415,82.6109 35.5192373,82.1579 35.6494435,81.6509 C35.7746029,81.1539 36.0047348,80.7669 36.3146053,80.5299 C36.5376717,80.3619 36.7930373,80.2769 37.0665712,80.2769 Z M37.713161,77.6584 L38.1754434,78.1284 L32.9651774,83.2654 L32.4877547,82.8134 L37.713161,77.6584 Z M37.0958424,80.9019 C36.7324763,80.9019 36.4599517,81.2189 36.3065305,81.8159 C36.218717,82.1659 36.2126609,82.4499 36.2863435,82.6609 C36.3600261,82.8669 36.5094099,82.9999 36.731467,83.0559 C36.7970747,83.0709 36.8566264,83.0789 36.9121406,83.0789 C37.2785348,83.0789 37.5530781,82.7629 37.7054899,82.1649 C37.7933034,81.8149 37.7993595,81.5309 37.7236583,81.3209 C37.650985,81.1149 37.4995825,80.9819 37.2724787,80.9249 C37.212927,80.9099 37.1533754,80.9019 37.0958424,80.9019 Z M53.5155486,77.3964 C54.335141,77.3964 55.0416862,77.8574 55.4060616,78.6674 L55.4060616,78.6674 L55.4262486,78.7124 L54.75604,79.0334 L54.7348437,78.9884 C54.3724869,78.2444 53.8022041,77.9584 53.084556,78.1534 C52.1458603,78.4114 51.7824942,79.3614 52.1357668,80.6324 C52.4890394,81.8964 53.2904635,82.5264 54.2352153,82.2764 C54.6399648,82.1654 54.9417605,81.9474 55.1072939,81.6494 C55.2768648,81.3464 55.3041172,80.9574 55.1870326,80.5234 L55.1870326,80.5234 L55.1799672,80.4994 L53.8587277,80.8634 L53.6699792,80.1904 L55.6927171,79.6354 L55.8521944,80.2074 C56.0338775,80.8584 55.9965315,81.4584 55.7452033,81.9454 C55.490847,82.4344 55.032602,82.7804 54.4229545,82.9474 C54.2089722,83.0054 53.9959993,83.0354 53.7900919,83.0354 C52.6929281,83.0354 51.8067186,82.2104 51.4201375,80.8284 C50.9568457,79.1684 51.5372221,77.8544 52.8958075,77.4814 C53.1067617,77.4234 53.3146879,77.3964 53.5155486,77.3964 Z M42.976216,79.4946 L42.9509823,79.4946 L42.9227205,81.3476 L42.9227205,81.3716 L44.146053,81.3916 L44.186427,81.3916 C44.9252714,81.3916 45.3057964,81.0786 45.3158899,80.4616 C45.3199273,80.1506 45.2270671,79.9126 45.0362999,79.7566 C44.8455327,79.5986 44.563924,79.5196 44.1743148,79.5136 L44.1743148,79.5136 L42.976216,79.4946 Z M58.4637873,75.5903 C58.7070407,75.5903 58.9482754,75.6333 59.183454,75.7193 C59.8627467,75.9693 60.4511979,76.5713 60.8387884,77.4123 C61.1880236,78.1663 61.2859306,78.8993 61.1214065,79.5343 C60.9578917,80.1703 60.5430488,80.6563 59.921289,80.9383 C59.6194933,81.0753 59.3106321,81.1433 59.0037897,81.1433 C58.0418789,81.1433 57.1536506,80.4623 56.6267698,79.3233 C56.2775346,78.5673 56.180637,77.8313 56.3471798,77.1943 C56.5127132,76.5603 56.9265468,76.0763 57.5442692,75.7963 C57.8460649,75.6603 58.1559354,75.5903 58.4637873,75.5903 Z M29.3796625,75.4805 C29.6642993,75.4805 29.9529735,75.5455 30.2335728,75.6765 C30.8179866,75.9465 31.2015397,76.4145 31.3418394,77.0305 C31.4841578,77.6535 31.3670732,78.3915 31.0047164,79.1635 C30.6413503,79.9355 30.1457594,80.4975 29.5724484,80.7885 C29.0072123,81.0775 28.3975647,81.0875 27.8131509,80.8185 C27.3215973,80.5915 26.9673154,80.2105 26.7866417,79.7195 C26.5413696,79.0515 26.6322111,78.2055 27.044026,77.3315 C27.4063828,76.5615 27.9009644,75.9985 28.4752847,75.7055 C28.7690056,75.5555 29.07282,75.4805 29.3796625,75.4805 Z M33.6426533,77.2244 C33.7597379,77.2244 33.8798506,77.2404 34.0029913,77.2714 C34.4107688,77.3734 34.7145833,77.6144 34.8831448,77.9704 C35.0527156,78.3284 35.0749213,78.7804 34.9477432,79.2804 C34.7297235,80.1364 34.1927492,80.6494 33.5114378,80.6494 C33.3963718,80.6494 33.2762592,80.6344 33.1551371,80.6034 C32.7463503,80.4994 32.4425359,80.2564 32.2790211,79.8984 C32.1175251,79.5464 32.0993568,79.0974 32.2255256,78.5994 C32.3516943,78.1014 32.5818262,77.7134 32.8916967,77.4784 C33.1127444,77.3104 33.3671007,77.2244 33.6426533,77.2244 Z M59.1188556,76.4693 C58.7141061,76.2483 58.2679733,76.2353 57.8369808,76.4283 C56.9537993,76.8303 56.7478918,77.8233 57.2989971,79.0173 C57.5735403,79.6093 57.9348877,80.0413 58.3467026,80.2643 C58.5627036,80.3833 58.788798,80.4433 59.0189299,80.4433 C59.2208,80.4433 59.4256981,80.3973 59.6285775,80.3053 C60.0615887,80.1093 60.3411787,79.7663 60.4360577,79.3163 C60.5329553,78.8603 60.4380764,78.3083 60.1665611,77.7173 C59.8930272,77.1273 59.5316798,76.6963 59.1188556,76.4693 Z M29.9358145,76.3095 C29.5472147,76.1285 29.1404465,76.1505 28.7558841,76.3705 C28.3602188,76.5995 27.9998807,77.0395 27.7162533,77.6435 C27.4316165,78.2485 27.3226067,78.8035 27.4003267,79.2515 C27.4740092,79.6825 27.7202907,80.0045 28.1109092,80.1855 C28.2895642,80.2685 28.4692286,80.3095 28.6488929,80.3095 C28.7861646,80.3095 28.9234362,80.2855 29.0596985,80.2365 C29.548224,80.0605 29.9883007,79.5815 30.3314798,78.8515 C30.6161166,78.2475 30.7251264,77.6925 30.6463971,77.2445 C30.5727145,76.8115 30.326433,76.4885 29.9358145,76.3095 Z M33.6729338,77.8494 C33.2126701,77.8494 32.9896037,78.3474 32.8836219,78.7644 C32.7958084,79.1144 32.788743,79.3974 32.8634349,79.6074 C32.9361081,79.8144 33.085492,79.9474 33.3085584,80.0024 C33.3751755,80.0184 33.4357365,80.0264 33.4922601,80.0264 C33.8616823,80.0264 34.1372349,79.7104 34.2896468,79.1154 C34.3784696,78.7654 34.3845257,78.4814 34.3078151,78.2694 C34.2331232,78.0634 34.0786926,77.9294 33.8495701,77.8724 C33.7890091,77.8574 33.7294574,77.8494 33.6729338,77.8494 Z M61.0899148,74.0547 L63.649627,78.0287 L63.6627486,78.0497 L65.7107202,76.7547 L66.0892266,77.3417 L63.4225232,79.0277 L60.4711831,74.4457 L61.0899148,74.0547 Z M24.841321,72.9544 C25.2208367,72.9544 25.5902589,73.0684 25.9304099,73.2934 C26.4714216,73.6504 26.7792735,74.1704 26.8216662,74.8014 C26.8650682,75.4344 26.6379644,76.1404 26.1655885,76.8444 C25.5155669,77.8124 24.7000119,78.3444 23.8662886,78.3444 C23.4837449,78.3444 23.1143227,78.2304 22.7701342,78.0034 C22.239216,77.6544 21.9343922,77.1374 21.8869528,76.5084 C21.838504,75.8694 22.0635891,75.1604 22.5379837,74.4544 C23.0123783,73.7474 23.5856892,73.2644 24.1943275,73.0624 C24.4113378,72.9904 24.6283481,72.9544 24.841321,72.9544 Z M25.5428194,73.8734 C25.1865188,73.6384 24.7777319,73.6004 24.3709637,73.7584 C23.9450179,73.9274 23.5231095,74.3074 23.152678,74.8604 C22.7812371,75.4144 22.5904699,75.9464 22.6005634,76.3984 C22.6076289,76.8354 22.8004148,77.1894 23.1587341,77.4244 C23.3777631,77.5684 23.607895,77.6384 23.8440829,77.6384 C24.4173939,77.6384 25.019976,77.2244 25.5488755,76.4394 C26.293776,75.3274 26.2917573,74.3674 25.5428194,73.8734 Z M65.4817996,70.8569 L70.5325882,73.7199 L69.9522119,74.2099 L68.9791982,73.6459 L68.9630486,73.6369 L67.194667,75.1349 L67.1815454,75.1459 L67.5984071,76.2019 L67.0180307,76.6929 L64.9589561,71.2999 L65.4817996,70.8569 Z M21.2919408,70.935 L22.8423028,71.136 L23.3197255,71.539 L19.7617658,75.666 L19.1985484,75.189 L22.1620007,71.752 L22.1912719,71.717 L20.7771722,71.529 L21.2919408,70.935 Z M65.9047173,71.8719 L66.921133,74.4669 L66.9342546,74.4999 L68.3372514,73.3129 L68.3645039,73.2889 L65.9047173,71.8719 Z M70.7809893,65.1973 L74.9869519,68.6793 L74.5115479,69.2433 L71.3906369,66.6583 L71.2937393,66.5783 L73.3931878,70.5683 L73.1771868,70.8243 L68.9601215,69.5213 L68.8400088,69.4833 L72.0588268,72.1493 L71.5884695,72.7063 L67.3835164,69.2233 L67.9800424,68.5153 L72.2506033,69.8633 L72.310155,69.8813 L70.183454,65.9043 L70.7809893,65.1973 Z M19.3533827,67.7 L19.8429176,68.244 L15.7419275,71.873 L15.2513833,71.329 L19.3533827,67.7 Z M16.8785568,64.5739 L17.3156055,65.1599 L13.4851213,67.9639 L13.4649343,67.9799 L14.9113332,69.9169 L14.3450877,70.3309 L12.4626495,67.8089 L16.8785568,64.5739 Z M73.0810967,61.3938 L73.6836788,61.7508 L72.3674861,63.9388 L72.3553739,63.9598 L73.7240528,64.7668 L73.7452492,64.7788 L74.9635349,62.7518 L75.5408833,63.0928 L74.3337004,65.0988 L74.3205788,65.1198 L75.8346042,66.0128 L75.8568099,66.0248 L77.1841055,63.8168 L77.7887063,64.1708 L76.0849231,67.0048 L71.3763041,64.2268 L73.0810967,61.3938 Z M14.8658115,61.2048 L15.2291776,61.8378 L11.0908415,64.1758 L11.0686358,64.1878 L12.2738,66.2818 L11.6621338,66.6268 L10.0936035,63.9008 L14.8658115,61.2048 Z M74.9832173,57.0257 L80.0471275,59.1197 L79.7251448,59.8837 L74.9630303,60.4187 L74.8661326,60.4297 L78.8086547,62.0607 L78.5260366,62.7307 L73.4621264,60.6357 L73.7810811,59.8797 L78.5431956,59.3447 L78.6400932,59.3337 L74.6985805,57.7037 L74.9832173,57.0257 Z M13.5371028,58.2596 L13.7954965,58.8926 L9.44519687,62.7306 L9.1585414,62.0296 L10.010433,61.2926 L10.0235546,61.2816 L9.15147595,59.1406 L9.14541984,59.1246 L7.99980731,59.1806 L7.71315183,58.4786 L13.5371028,58.2596 Z M12.6882392,58.9676 L9.87820813,59.0956 L9.84288087,59.0976 L10.5342858,60.7946 L10.5474073,60.8266 L12.6347437,59.0146 L12.6882392,58.9676 Z M11.8617832,52.834 L12.9236197,56.749 L12.2453363,56.929 L11.8163625,55.35 L11.8103064,55.327 L7.19454767,56.556 L7.00277113,55.846 L11.5932961,54.625 L11.6185298,54.618 L11.1834999,53.015 L11.8617832,52.834 Z M76.2206807,52.4027 L76.9009827,52.5727 L76.4972426,54.1567 L76.4911865,54.1817 L81.1261229,55.3387 L80.9444399,56.0497 L76.3357466,54.8987 L76.3105128,54.8927 L75.901726,56.5017 L75.2214239,56.3307 L76.2206807,52.4027 Z M51.2193777,29.6127 L53.0685074,34.5957 L53.0725448,34.6067 L56.9989172,36.0357 L58.5331296,36.0377 L64.2934915,55.3027 L23.7065085,55.3027 L29.4678797,36.0377 L45.4317633,36.0377 L49.3561171,34.6107 L49.36722,34.6067 L51.2193777,29.6127 Z M57.9244914,36.8447 L57.0080014,36.8447 L53.0836476,38.2737 L53.0725448,38.2777 L51.2193777,43.2697 L49.370248,38.2877 L49.36722,38.2777 L45.4408475,36.8467 L30.0765179,36.8447 L24.8067003,54.4647 L24.7966067,54.4967 L63.2033933,54.4967 L57.9295382,36.8627 L57.9244914,36.8447 Z M82.1910884,48.8939 L82.0952001,49.6439 L80.9899616,49.8749 L80.9728026,49.8789 L80.680091,52.1699 L80.6780723,52.1869 L81.7055909,52.6919 L81.6086933,53.4419 L76.4176049,50.8169 L76.5023903,50.1429 L82.1910884,48.8939 Z M11.3502445,48.9619 L11.7711436,52.2359 L11.0736826,52.3239 L10.7496811,49.7959 L10.7466531,49.7699 L9.16601059,49.9699 L9.14077683,49.9729 L9.44156321,52.3139 L8.77337334,52.3979 L8.47763372,50.0819 L8.47359631,50.0559 L6.72540168,50.2769 L6.70016792,50.2799 L7.02820675,52.8329 L6.33074573,52.9199 L5.90984667,49.6449 L11.3502445,48.9619 Z M80.2925005,50.0199 L77.5753296,50.5969 L77.5056845,50.6109 L80.023004,51.8569 L80.0553032,51.8729 L80.2925005,50.0199 Z M76.7412026,44.359 L77.4447197,44.369 L77.419486,46.005 L77.4184766,46.029 L82.1987594,46.101 L82.1886659,46.836 L77.4336169,46.764 L77.4083831,46.764 L77.3831494,48.423 L76.6796322,48.413 L76.7412026,44.359 Z M5.92296822,42.3823 L11.4057588,42.5893 L11.3704315,43.5133 L7.15538488,45.0353 L7.09785192,45.0553 L11.2402254,46.9163 L11.2038888,47.8393 L5.72109817,47.6323 L5.74935998,46.8973 L9.8190602,47.0513 L9.94623834,47.0553 L5.81496775,45.1723 L5.82909865,44.8363 L9.97147209,43.3123 L10.0895661,43.2683 L5.89571577,43.1103 L5.92296822,42.3823 Z M81.988108,42.4145 L82.0567438,43.1385 L76.5941403,43.6555 L76.5255044,42.9325 L81.988108,42.4145 Z M51.2193777,31.9517 L50.0010919,35.2347 L46.7519935,36.4177 L46.6884044,36.4417 L50.0010919,37.6487 L51.1961626,40.8667 L51.2193777,40.9307 L52.4376634,37.6487 L55.6867619,36.4647 L55.7513603,36.4417 L52.4376634,35.2347 L51.2436021,32.0157 L51.2193777,31.9517 Z M43.9995963,10.914 C60.6023986,10.914 74.9079197,22.081 78.7969463,38.075 L78.7969463,38.075 L78.0046063,38.265 C74.2033933,22.636 60.2228829,11.72 43.9995963,11.72 C27.7763096,11.72 13.7968086,22.636 9.99559556,38.265 L9.99559556,38.265 L9.20325561,38.075 C13.0922821,22.081 27.3978033,10.914 43.9995963,10.914 Z M2.21562474,26.4517 L7.27953496,28.5267 L6.99590754,29.2037 L3.2391059,27.6647 L3.12101192,27.6167 L6.33276443,30.7987 L6.20255824,31.1077 L1.79068829,31.1147 L1.66351015,31.1157 L5.53638708,32.7037 L5.25679706,33.3747 L0.192886833,31.3007 L0.549187473,30.4477 L5.02767455,30.4667 L5.08924491,30.4667 L1.8593241,27.3057 L2.21562474,26.4517 Z M85.255072,28.6315 C85.6466999,28.4815 86.0635615,28.5075 86.427937,28.7085 C86.7953405,28.9125 87.0860333,29.2665 87.2697351,29.7355 C87.6472321,30.6925 87.3434177,31.6465 86.4975821,32.1635 L86.4975821,32.1635 L86.4541801,32.1895 L86.0514493,31.5795 L86.0928327,31.5515 C86.6782558,31.1505 86.8589295,30.6085 86.6136574,29.9835 C86.5006102,29.6955 86.3370955,29.4815 86.1412815,29.3615 C85.9515237,29.2475 85.7375414,29.2275 85.5215405,29.3065 C85.2035951,29.4295 85.0653141,29.6815 85.1420248,30.7855 C85.2278195,32.2565 84.9603417,32.9195 84.1548802,33.2315 C83.9843,33.2965 83.8117011,33.3295 83.6421303,33.3295 C83.3968582,33.3295 83.1495674,33.2605 82.9285197,33.1315 C82.5449666,32.9075 82.235096,32.5165 82.0342353,32.0025 C81.5457098,30.7635 81.897973,29.7735 83.0233986,29.2135 L83.0233986,29.2135 L83.0657913,29.1925 L83.4473257,29.8235 L83.3988769,29.8485 C82.5732284,30.2795 82.3471339,30.8845 82.690313,31.7555 C82.8164818,32.0795 82.9961461,32.3265 83.2071003,32.4695 C83.4220919,32.6145 83.6542425,32.6445 83.8803369,32.5575 C84.3698718,32.3695 84.5020967,31.9445 84.4263954,30.8095 C84.3537222,29.4475 84.5626577,28.8985 85.255072,28.6315 Z M81.2309944,23.8683 C81.9708481,23.4703 82.7066645,23.3263 83.3627421,23.4483 C84.0147824,23.5703 84.5305604,23.9493 84.8565805,24.5443 C85.1805819,25.1373 85.2179279,25.7733 84.964581,26.3803 C84.7102247,26.9913 84.1843532,27.5233 83.4444995,27.9193 C82.8701792,28.2263 82.3089805,28.3823 81.7750342,28.3823 C81.6175755,28.3823 81.4651637,28.3693 81.3198172,28.3413 C80.6637396,28.2203 80.1449335,27.8413 79.8189134,27.2453 C79.4928933,26.6473 79.4555473,26.0103 79.7119223,25.3993 C79.9672879,24.7943 80.4931594,24.2653 81.2309944,23.8683 Z M82.9378057,24.1243 C82.5249814,24.1243 82.0697645,24.2553 81.5852763,24.5153 C81.0059093,24.8263 80.593085,25.2133 80.394243,25.6373 C80.195401,26.0553 80.2115506,26.4963 80.4386544,26.9123 C80.7101697,27.4083 81.1704334,27.6623 81.7397069,27.6623 C82.143447,27.6623 82.6037107,27.5333 83.0902176,27.2733 C84.2620732,26.6443 84.7011406,25.7263 84.2368394,24.8763 C84.0460723,24.5263 83.7654729,24.2943 83.4051348,24.1883 C83.2587791,24.1463 83.1013204,24.1243 82.9378057,24.1243 Z M4.91392078,21.7538 L5.51852158,22.1048 L4.2235252,24.3038 L4.21040365,24.3248 L5.58513869,25.1188 L5.60633505,25.1318 L6.80746185,23.0958 L7.3868289,23.4318 L6.19882365,25.4458 L6.18570209,25.4678 L7.70578358,26.3468 L7.72798928,26.3588 L9.03610721,24.1408 L9.64272671,24.4888 L7.96417724,27.3378 L3.23436195,24.6008 L4.91392078,21.7538 Z M80.3965645,17.9893 L81.4119709,19.3733 C81.8278232,19.9403 81.9701416,20.5683 81.8258045,21.1903 C81.6804581,21.8123 81.2545123,22.3913 80.5943972,22.8673 C79.9514411,23.3293 79.3357374,23.5633 78.7634358,23.5633 C78.0619374,23.5633 77.4512805,23.2153 76.9476147,22.5293 L76.9476147,22.5293 L75.9604702,21.1823 L80.3965645,17.9893 Z M80.2582836,18.9853 L76.9799139,21.3453 L76.9587176,21.3603 L77.4946826,22.0893 C77.8237307,22.5403 78.1870968,22.7813 78.6049678,22.8273 C78.6483699,22.8323 78.691772,22.8343 78.7371927,22.8343 C79.1580918,22.8343 79.6466173,22.6423 80.1583579,22.2733 C81.202026,21.5213 81.4432608,20.6023 80.8204916,19.7523 L80.8204916,19.7523 L80.2734238,19.0053 L80.2582836,18.9853 Z M8.15666034,17.2811 L8.72088713,17.6981 L7.73172388,19.0081 L7.71658362,19.0271 L11.5490865,21.8661 L11.1039631,22.4551 L7.29265652,19.6331 L7.27246951,19.6181 L6.26917536,20.9471 L5.70494857,20.5311 L8.15666034,17.2811 Z M10.1923179,15.0471 L15.567108,17.3021 L15.048302,17.8571 L14.0106899,17.4111 L13.9945403,17.4031 L12.3997669,19.1171 L12.9427974,20.1221 L12.422982,20.6791 L9.72599811,15.5481 L10.1923179,15.0471 Z M77.7080592,14.9662 L78.174379,15.4662 L75.4925354,20.5832 L74.97272,20.0292 L75.5107037,19.0262 L73.9300612,17.3352 L73.9169397,17.3212 L72.8672154,17.7772 L72.3494187,17.2232 L77.7080592,14.9662 Z M10.7353484,16.0071 L12.0757655,18.5051 L13.3313972,17.1541 L13.3556216,17.1291 L10.8009561,16.0341 L10.7353484,16.0071 Z M77.1690662,15.9252 L74.592195,17.0382 L74.5588864,17.0512 L75.8377332,18.4192 L77.1347483,15.9882 L77.1690662,15.9252 Z M73.0284086,10.6512 L73.5845606,11.1242 L70.4999862,14.7002 L70.4828273,14.7192 L72.3279195,16.2812 L71.8727026,16.8112 L69.4714583,14.7772 L73.0284086,10.6512 Z M13.1516319,12.1868 L16.2735523,15.7468 L16.2897019,15.7658 L18.1247006,14.1878 L18.5869831,14.7118 L16.1968417,16.7708 L12.5974986,12.6638 L13.1516319,12.1868 Z M18.8825208,7.8095 L19.2872703,8.3805 L17.1757095,9.8495 L17.1555225,9.8645 L18.0740313,11.1595 L18.0881622,11.1795 L20.0432736,9.8195 L20.4298547,10.3665 L18.4959397,11.7105 L18.4747433,11.7255 L19.491159,13.1585 L19.5062993,13.1785 L21.6370376,11.6955 L22.0417871,12.2665 L19.3084666,14.1675 L16.1492003,9.7105 L18.8825208,7.8095 Z M68.2605408,7.2807 L68.8681697,7.6887 L66.8292822,10.6697 C66.3599343,11.3577 66.4649067,11.9357 67.1421807,12.3917 C67.8285389,12.8497 68.4099247,12.7387 68.8742258,12.0597 L68.8742258,12.0597 L70.9211881,9.0667 L71.5358824,9.4797 L69.4717611,12.4977 C69.0690304,13.0847 68.5542618,13.3947 67.9799415,13.3947 C67.5852855,13.3947 67.1704426,13.2507 66.7475248,12.9677 C66.2267001,12.6187 65.9148108,12.2077 65.8199319,11.7487 C65.7270717,11.2897 65.8542498,10.8017 66.1964196,10.2997 L66.1964196,10.2997 L68.2605408,7.2807 Z M21.6904323,6.066 C22.6028849,5.576 23.5960856,5.749 24.2228921,6.512 L24.2228921,6.512 L24.2551913,6.552 L23.6939925,7.026 L23.660684,6.99 C23.1832613,6.465 22.6180252,6.358 22.0214992,6.682 C21.7096099,6.852 21.496637,7.08 21.4249732,7.325 C21.3724869,7.502 21.392674,7.676 21.4855342,7.844 C21.672264,8.18 22.0305833,8.223 23.0187372,8.026 C24.4782577,7.749 25.1787468,7.923 25.5976271,8.68 C26.0286197,9.463 25.6359824,10.386 24.6407631,10.928 C24.199677,11.166 23.7737312,11.287 23.3780659,11.287 C22.7260256,11.287 22.1517053,10.951 21.7176847,10.314 L21.7176847,10.314 L21.6904323,10.274 L22.271818,9.817 L22.3031079,9.862 C22.8421009,10.62 23.4779916,10.764 24.3096962,10.31 C24.6811371,10.11 24.9314559,9.845 25.015232,9.563 C25.0687276,9.38 25.0495499,9.203 24.957699,9.035 C24.7053615,8.579 24.2622567,8.503 23.1358218,8.725 C21.7792551,8.971 21.2008974,8.84 20.8425781,8.193 C20.63768,7.822 20.6114369,7.423 20.7648581,7.036 C20.91727,6.652 21.2463182,6.307 21.6904323,6.066 Z M63.0567347,5.2875 C63.65427,5.0175 64.2982355,5.0385 64.9179765,5.3495 C65.9061304,5.8435 66.3189547,6.8425 65.9697195,7.8935 L65.9697195,7.8935 L65.9535699,7.9395 L65.2409686,7.7335 L65.2550995,7.6845 C65.4922968,6.8955 65.2662024,6.3025 64.6010405,5.9705 C64.1771134,5.7585 63.73199,5.7535 63.3151283,5.9635 C62.896248,6.1735 62.5177416,6.5925 62.222002,7.1725 C61.9262624,7.7545 61.8111964,8.3045 61.8909351,8.7625 C61.9686551,9.2165 62.2351236,9.5705 62.6610694,9.7835 C63.0365477,9.9715 63.4049605,10.0115 63.7289619,9.9005 C64.0600288,9.7875 64.3446656,9.5195 64.5515824,9.1215 L64.5515824,9.1215 L64.5626852,9.0995 L63.3393527,8.4885 L63.6562887,7.8665 L65.5256054,8.8005 L65.2561089,9.3285 C64.827135,10.1715 64.1316927,10.6555 63.3494462,10.6555 C63.0153513,10.6555 62.677219,10.5715 62.3441334,10.4045 C61.7274204,10.0965 61.3277177,9.5965 61.187418,8.9585 C61.049137,8.3255 61.1783338,7.5925 61.5608776,6.8425 C61.9414026,6.0915 62.4591993,5.5535 63.0567347,5.2875 Z M58.3250016,2.7553 L61.4519687,3.8773 L61.2127527,4.5313 L58.7963682,3.6663 L58.7731531,3.6573 L58.2321414,5.1383 L58.2240666,5.1623 L60.4607867,5.9633 L60.2326736,6.5893 L58.0191685,5.7953 L57.9959534,5.7873 L57.3974087,7.4253 L57.3883246,7.4493 L59.8279241,8.3243 L59.5887081,8.9763 L56.461741,7.8563 L58.3250016,2.7553 Z M28.6184105,3.1179 L30.5220451,8.2179 L29.8276122,8.4729 L28.2399042,4.2239 L28.2237546,4.1809 L27.3678256,5.3149 L27.0942917,4.5779 L28.0299594,3.3329 L28.6184105,3.1179 Z M53.0555877,1.3785 L55.0137272,1.8425 C55.560795,1.9715 55.9806847,2.2265 56.2259568,2.5765 C56.4722383,2.9255 56.5408741,3.3665 56.4237895,3.8515 C56.2330223,4.6385 55.6607207,5.0905 54.8552592,5.0905 C54.8360815,5.0905 54.8169039,5.0905 54.7957075,5.0895 L54.7957075,5.0895 L54.762399,5.0885 L55.4063644,7.5245 L54.566585,7.3265 L53.9720777,4.9735 L53.9680403,4.9585 L53.0010828,4.7295 L52.4933796,6.8345 L51.7787596,6.6655 L53.0555877,1.3785 Z M32.3309017,1.8787 C32.9526615,1.7177 33.5491875,1.8347 34.054872,2.2227 C34.5656032,2.6137 34.9491563,3.2537 35.1641479,4.0757 C35.3801488,4.8997 35.3609712,5.6467 35.1066149,6.2337 C34.8562961,6.8147 34.3940136,7.2047 33.7702352,7.3647 C33.4623834,7.4447 33.164625,7.4527 32.8809976,7.3987 C32.8739322,7.3967 32.8668667,7.3967 32.8598012,7.3947 C32.5741551,7.3357 32.3036493,7.2107 32.052321,7.0207 C31.5375524,6.6287 31.1519806,5.9877 30.936989,5.1667 C30.7209881,4.3417 30.7401657,3.5957 30.994522,3.0097 C31.2458502,2.4297 31.7081326,2.0377 32.3309017,1.8787 Z M32.8386049,2.5097 C32.7336325,2.5097 32.6226039,2.5247 32.507538,2.5527 C32.0916857,2.6597 31.7908993,2.9337 31.6384874,3.3437 C31.4810288,3.7717 31.4870849,4.3367 31.654637,4.9797 C31.9503767,6.1037 32.5357998,6.7347 33.2584946,6.7347 C33.3664951,6.7347 33.478533,6.7197 33.5935989,6.6917 C34.0094512,6.5847 34.3102376,6.3107 34.4626495,5.9007 C34.6201081,5.4737 34.614052,4.9067 34.4464998,4.2637 C34.276929,3.6177 34.0033951,3.1207 33.6551692,2.8237 C33.4098971,2.6147 33.1353539,2.5097 32.8386049,2.5097 Z M46.999789,0 L47.5569503,0.358 L43.6013066,6.503 L43.0360705,6.163 L46.999789,0 Z M38.3636872,0.7744 C38.8976335,0.7744 39.3760656,0.9694 39.7586093,1.3474 C40.2128169,1.7964 40.5105752,2.4814 40.6185757,3.3264 C40.7275855,4.1684 40.6115103,4.9044 40.2844808,5.4554 C39.9604793,5.9984 39.4527762,6.3274 38.8148668,6.4074 C38.726044,6.4174 38.6362118,6.4234 38.5483983,6.4234 C37.3765427,6.4234 36.4903332,5.4214 36.2914912,3.8714 C36.1834907,3.0264 36.299566,2.2904 36.6265955,1.7414 C36.9505969,1.1994 37.4583001,0.8704 38.0962094,0.7904 C38.1860416,0.7804 38.2758738,0.7744 38.3636872,0.7744 Z M47.2852584,2.6638 L47.3078427,2.6643 L47.4478113,2.67408909 C48.2236037,2.76395123 48.7002413,3.4333 48.6745029,4.4193 C48.6452317,5.4413 48.0900891,6.1003 47.2583845,6.1003 C47.2452629,6.1003 47.2291133,6.0993 47.2159918,6.0993 C46.790046,6.0883 46.4387921,5.9173 46.2015948,5.6033 C45.9684349,5.2943 45.8513502,4.8593 45.8654811,4.3453 C45.879612,3.8303 46.0189024,3.4013 46.2682119,3.1063 C46.513484,2.8163 46.8576724,2.6633 47.2634312,2.6633 C47.2775621,2.6633 47.2927024,2.6643 47.3078427,2.6643 Z M38.3596498,1.4674 C38.3031262,1.4674 38.2435746,1.4724 38.1830136,1.4804 C37.2897386,1.5934 36.8567273,2.4534 37.0262982,3.7784 C37.1120929,4.4384 37.3200191,4.9644 37.6248429,5.3014 C37.6954974,5.3784 37.7833109,5.4214 37.8630495,5.4784 C37.8711243,5.4844 37.8781898,5.4904 37.8862646,5.4954 C38.089144,5.6314 38.3091823,5.7274 38.5544544,5.7274 C38.6109781,5.7274 38.668511,5.7234 38.7270533,5.7154 C39.6203283,5.6034 40.0543489,4.7444 39.8847781,3.4174 C39.7253007,2.1794 39.1701581,1.4674 38.3596498,1.4674 Z M47.291693,3.2833 L47.2694873,3.2833 C46.8152797,3.2833 46.5649609,3.6573 46.5447739,4.3623 C46.5255962,5.0823 46.7638029,5.4673 47.2331507,5.4813 L47.2331507,5.4813 L47.2543471,5.4813 C47.7136015,5.4813 47.9669484,5.1083 47.986126,4.4013 C47.9982382,3.9733 47.9124435,3.6503 47.7378259,3.4663 C47.6267973,3.3503 47.4774135,3.2893 47.291693,3.2833 L47.291693,3.2833 Z M53.6056836,2.2265 L53.1645975,4.0525 L54.3566401,4.3345 C54.5191455,4.3735 54.6695387,4.3935 54.805801,4.3935 C55.0066617,4.3935 55.1772419,4.3515 55.3165322,4.2675 C55.5072994,4.1515 55.6364963,3.9545 55.702104,3.6805 C55.7737679,3.3815 55.7354126,3.1325 55.5880475,2.9385 C55.4376543,2.7425 55.1711858,2.5965 54.7967169,2.5075 L54.7967169,2.5075 L53.6056836,2.2265 Z M43.2704416,0.423225 L43.2926473,0.4241 C44.1495857,0.4461 44.68656,1.1361 44.6593076,2.1791 C44.6300364,3.2011 44.0748938,3.8621 43.2431892,3.8621 C43.2290583,3.8621 43.2149274,3.8611 43.1997871,3.8611 C42.7768694,3.8501 42.4276342,3.6781 42.1884182,3.3631 C41.9532396,3.0541 41.8361549,2.6201 41.8502858,2.1051 C41.8644167,1.5901 42.0037071,1.1621 42.2530166,0.8671 C42.4982887,0.5761 42.8424771,0.4231 43.2482359,0.4231 C43.2623668,0.4221 43.2785164,0.4241 43.2926473,0.4241 Z M43.2754884,1.0441 L43.2532827,1.0441 C42.7990751,1.0441 42.5487562,1.4171 42.5295786,2.1231 C42.5174663,2.5531 42.6032611,2.8761 42.7778787,3.0591 C42.8889072,3.1751 43.0362724,3.2351 43.2169461,3.2411 L43.2169461,3.2411 L43.2401611,3.2411 C43.7044622,3.2411 43.9598279,2.8681 43.9790055,2.1621 C43.9971738,1.4431 43.7549298,1.0571 43.2754884,1.0441 L43.2754884,1.0441 Z" id="reguledmaterials-it"></path>
                </g>
            </g>
        </g>
    </g>
</svg>