<?xml version="1.0" encoding="UTF-8"?>
<svg width="88px" height="90px" viewBox="0 0 88 90" version="1.1" xmlns="http://www.w3.org/2000/svg" xmlns:xlink="http://www.w3.org/1999/xlink">
    <title>3. icons/seal/bloque3/metalesregulados</title>
    <g id="Yanbal-UI-Visual-Kit" stroke="none" stroke-width="1" fill="none" fill-rule="evenodd">
        <g id="yanbal-styleguide-pag2" transform="translate(-844.000000, -5750.000000)" fill="#1C1F28">
            <g id="Group" transform="translate(840.000000, 5747.000000)">
                <g id="elements" transform="translate(3.999900, 2.999600)">
                    <path d="M86.8034349,36.3051 L86.813524,36.3441 C87.6004724,39.6521 88,43.0321 88,46.3931 C88,70.4381 68.2607111,90.0001 43.9994955,90.0001 C19.7392889,90.0001 0,70.4381 0,46.3931 C0,43.0361 0.399527648,39.6561 1.18647604,36.3441 L1.18647604,36.3441 L1.19656513,36.3051 L2.02386985,36.4981 L2.01478968,36.5361 C1.241966,39.7801 0.849500705,43.0951 0.849500705,46.3931 C0.849500705,69.9741 20.2064134,89.1581 43.9994955,89.1581 C67.7925776,89.1581 87.1504993,69.9741 87.1504993,46.3931 C87.1504993,43.0981 86.7590429,39.7821 85.9872281,36.5361 L85.9872281,36.5361 L85.978148,36.4981 L86.0174954,36.4891 L86.8034349,36.3051 Z M47.6571913,78.6676 L47.9285876,84.0776 L47.1103631,84.1166 L47.0972473,84.0966 L44.5033443,79.9726 L44.7172328,84.2356 L44.0059526,84.2696 L43.7345563,78.8596 L44.5447095,78.8206 L44.5578253,78.8406 L47.1537461,82.9646 L46.9378398,78.7016 L47.6571913,78.6676 Z M40.5688041,78.6308 L40.5970535,78.6328 L41.2387191,78.6908 L41.2457815,78.7178 L42.6895291,84.2578 L41.9520172,84.1908 L41.6775942,83.0888 L39.3228025,82.8728 L38.8476067,83.9088 L38.8193573,83.9068 L38.1131215,83.8408 L38.1373353,83.7908 L40.5688041,78.6308 Z M51.2287264,77.9447 C52.1246369,77.9447 52.8732467,78.4917 53.2041686,79.4277 L53.2041686,79.4277 L53.2172844,79.4647 L53.1809637,79.4787 L52.5483783,79.7237 L52.5332447,79.6867 C52.2073673,78.8607 51.6474233,78.5037 50.8967956,78.6527 C49.9353061,78.8497 49.5055112,79.7777 49.7758986,81.0757 C49.9100833,81.7227 50.166346,82.2287 50.5164372,82.5407 C50.8635016,82.8487 51.2953143,82.9597 51.7725279,82.8617 C52.5614941,82.7007 52.9277278,82.1117 52.8298637,81.1567 L52.8298637,81.1567 L52.825828,81.1157 L53.5633399,81.0617 L53.5673756,81.0997 C53.7257742,82.3537 53.090162,83.2827 51.9097394,83.5227 C51.7442785,83.5567 51.5818442,83.5737 51.4224367,83.5737 C50.936143,83.5737 50.4871788,83.4147 50.1048026,83.1037 C49.5993396,82.6937 49.2421861,82.0437 49.0716806,81.2207 C48.7286518,79.5677 49.4056292,78.2697 50.7575662,77.9937 C50.9179826,77.9607 51.0763812,77.9447 51.2287264,77.9447 Z M37.2531282,78.1231 L37.9502838,78.2611 L37.9422125,78.3001 L36.8868945,83.5671 L36.1917568,83.4291 L36.199828,83.3901 L37.2531282,78.1231 Z M33.3789207,77.1005 L34.0609426,77.3015 L34.0488357,77.3405 L32.7120324,81.8375 L35.035548,82.5155 L34.8448643,83.1615 L34.8055169,83.1495 L31.8383179,82.2845 L31.8494159,82.2455 L33.3789207,77.1005 Z M56.7260654,76.3019 L56.9571054,76.9379 L56.9197757,76.9519 L54.5084851,77.8119 L55.0664114,79.3459 L57.3132499,78.5419 L57.3263658,78.5799 L57.5311741,79.1509 L57.4938445,79.1649 L55.2873623,79.9509 L55.9017874,81.6429 L58.3504076,80.7679 L58.5804386,81.4039 L58.543109,81.4169 L55.4608945,82.5149 L55.4467698,82.4779 L53.608539,77.4169 L53.6458686,77.4029 L56.7260654,76.3019 Z M40.8129599,79.6588 L39.6073146,82.2688 L41.5141511,82.4428 L40.8129599,79.6588 Z M29.1416071,75.3178 L31.0797198,76.1718 C32.1310021,76.6378 32.5022804,77.4938 32.0674409,78.4608 C31.6356282,79.4168 30.7518246,79.7118 29.6965067,79.2448 L29.6965067,79.2448 L28.4101487,78.6758 L27.5646836,80.5598 L26.9129289,80.2718 L26.9290715,80.2348 L29.1416071,75.3178 Z M23.723871,71.9711 L23.7581739,71.9931 L24.4835789,72.4721 L24.4775254,72.4981 L23.5816149,76.9011 L27.3539227,74.3651 L27.3761187,74.3791 L28.1136306,74.8651 L28.0904257,74.8981 L25.0919505,79.3671 L24.493668,78.9711 L24.5158639,78.9381 L26.8373617,75.4771 L23.0287332,78.0041 L22.7603637,77.8281 L22.7654082,77.8021 L23.6381138,73.3701 L21.29442,76.8621 L21.2611261,76.8391 L20.7021909,76.4721 L20.7253958,76.4391 L23.723871,71.9711 Z M60.9479426,73.9957 C62.1263474,73.2837 63.5146051,73.7767 64.3994176,75.2177 C65.2812034,76.6607 65.0824484,78.1067 63.9030348,78.8157 C63.5438634,79.0327 63.1645139,79.1367 62.7861734,79.1367 C61.9235569,79.1367 61.0680027,78.5937 60.4545865,77.5917 C60.020756,76.8847 59.8381436,76.1697 59.9259186,75.5227 C60.0147025,74.8737 60.3678204,74.3447 60.9479426,73.9957 Z M29.5149032,76.2208 L28.6886074,78.0598 L29.9396535,78.6138 C30.671112,78.9338 31.1251207,78.7998 31.4106417,78.1688 C31.5428087,77.8718 31.5670225,77.6198 31.4822742,77.3988 C31.3844101,77.1488 31.1503434,76.9438 30.7649404,76.7738 L30.7649404,76.7738 L29.5149032,76.2208 Z M62.0476526,74.3517 C61.7934077,74.3517 61.5442074,74.4247 61.3030783,74.5707 C60.4656845,75.0747 60.3748828,76.0917 61.0680027,77.2217 C61.7621315,78.3527 62.713532,78.7427 63.5509258,78.2387 C63.9605425,77.9917 64.1996538,77.6167 64.241019,77.1547 C64.284402,76.6867 64.1260035,76.1457 63.7829747,75.5877 C63.3814292,74.9307 62.8931176,74.5167 62.3745388,74.3907 C62.2645678,74.3647 62.1566147,74.3517 62.0476526,74.3517 Z M66.1967875,70.2607 L66.2240281,70.2927 L66.631627,70.7817 L66.6003508,70.8077 L64.6238997,72.4267 L65.796251,73.8327 L67.6395263,72.3237 L68.0521697,72.8197 L68.0208936,72.8457 L66.2109123,74.3297 L67.6697935,76.0787 L67.6385174,76.1047 L67.1229653,76.5277 L67.0967337,76.4967 L63.6432409,72.3567 L63.674517,72.3307 L66.1967875,70.2607 Z M17.879972,70.2335 C19.0573679,69.0105 20.518267,68.8255 21.518095,69.7685 C22.517923,70.7145 22.4008897,72.170501 21.2265205,73.3925 C20.550552,74.0955 19.7807551,74.4555 19.0583768,74.4555 C18.5226465,74.4555 18.0141568,74.2585 17.5883976,73.8565 C17.0940325,73.3905 16.8629926,72.7995 16.9164647,72.1455 C16.9699368,71.4945 17.3028765,70.8335 17.879972,70.2335 Z M21.0479438,70.2585 C20.3376724,69.5885 19.3237197,69.7675 18.4015776,70.7255 C17.9455511,71.1995 17.6741548,71.6955 17.6156381,72.1615 C17.5561125,72.6225 17.7104754,73.0395 18.0575399,73.3685 C18.7678112,74.0405 19.781764,73.8605 20.704915,72.9015 C21.6270571,71.9415 21.7582151,70.9295 21.0479438,70.2585 Z M71.4058815,64.2608 L71.4371576,64.2858 L75.7179551,67.5848 L75.2770622,68.1488 L75.2457861,68.1238 L71.9284959,65.5648 L74.1945037,69.5258 L74.1773523,69.5458 L73.9957488,69.7798 L73.9695172,69.7728 L69.5676507,68.5778 L72.9141992,71.1568 L72.477342,71.7138 L72.4450569,71.6898 L68.1652683,68.3898 L68.7252124,67.6738 L68.7504351,67.6818 L73.1220343,68.8968 L70.8459374,64.9748 L71.4058815,64.2608 Z M14.5657086,66.0751 C15.3042294,65.5091 16.1012669,65.2521 16.8216273,65.3411 C17.3825803,65.4141 17.8708919,65.7001 18.232081,66.1661 C18.9171297,67.0471 18.825319,68.1491 17.9990232,68.9731 L17.9990232,68.9731 L17.9707738,69.0001 L17.4431148,68.5171 L17.4703553,68.4881 C18.0787269,67.8361 18.155404,67.1751 17.693324,66.5771 C17.4481593,66.2601 17.13338,66.0761 16.7580661,66.0271 C16.693496,66.0181 16.6258991,66.0141 16.5583023,66.0141 C16.0770531,66.0141 15.5453584,66.2271 15.0055926,66.6381 C13.9311053,67.4581 13.6506288,68.4141 14.2569827,69.1971 C14.7503388,69.8311 15.4444676,69.9001 16.2657189,69.3951 L16.2657189,69.3951 L16.3010307,69.3731 L16.6733178,70.0071 L16.6410328,70.0281 C16.2021577,70.3111 15.7521846,70.4511 15.3254165,70.4511 C14.715027,70.4511 14.1490295,70.1651 13.7182257,69.6101 C12.8626715,68.5071 13.1956112,67.1191 14.5657086,66.0751 Z M73.5399241,60.4276 L74.1371978,60.7516 L74.1170196,60.7866 L72.8891783,63.0106 L74.3278814,63.7926 L75.4729922,61.7196 L76.0420164,62.0296 L76.0218383,62.0646 L74.8989234,64.1016 L76.485936,64.9636 L77.7339555,62.7046 L78.3302202,63.0296 L78.311051,63.0646 L76.7401809,65.9066 L76.7048691,65.8866 L71.947867,63.3036 L71.9680451,63.2686 L73.5399241,60.4276 Z M10.768279,61.4107 C11.307036,61.1767 11.801401,61.1357 12.2029465,61.2917 C12.5116724,61.4117 12.7538103,61.6507 12.900102,61.9837 C13.0494205,62.3197 13.0615273,62.6637 12.9384405,62.9767 C12.7810509,63.3767 12.416835,63.7087 11.8831226,63.9387 C11.5663254,64.0767 11.2596173,64.1457 10.9781319,64.1457 C10.8409204,64.1457 10.7097623,64.1297 10.5856666,64.0957 C10.2042993,63.9937 9.91373376,63.7357 9.74322828,63.3517 C9.40221731,62.5767 9.7956915,61.8337 10.768279,61.4107 Z M11.724724,61.8357 C11.526978,61.8357 11.2939202,61.8927 11.0305951,62.0087 C10.6966465,62.1517 10.4656065,62.3217 10.3405019,62.5117 C10.218424,62.6987 10.2032904,62.9007 10.2971189,63.1137 C10.5412747,63.6637 11.1486374,63.5407 11.6177797,63.3357 C12.0173074,63.1617 12.2776057,62.9447 12.3704252,62.7087 C12.4299508,62.5547 12.4228885,62.3917 12.3482293,62.2237 C12.2544008,62.0107 12.0949933,61.8847 11.8730335,61.8467 C11.8266237,61.8397 11.7771872,61.8357 11.724724,61.8357 Z M7.91246346,59.6484 L7.95281978,59.6534 L15.1987985,60.5824 L15.1937539,60.6224 L15.1110235,61.2084 L15.071676,61.2034 L7.8438577,60.2774 L7.91246346,59.6484 Z M75.2749435,56.1109 L75.9115646,56.3519 L75.3102553,57.9049 L79.7777008,59.6029 L79.5204292,60.2689 L75.0529837,58.5699 L74.4516744,60.1229 L73.8150534,59.8799 L75.2749435,56.1109 Z M11.1066668,56.8605 C11.5788359,56.6565 12.0257822,56.5975 12.401096,56.6955 C12.7804455,56.7945 13.0710111,57.0505 13.2415166,57.4345 C13.5845454,58.2175 13.1951068,58.9675 12.2215104,59.3895 C11.8976508,59.5285 11.5899338,59.5985 11.3114752,59.5985 C10.7555668,59.5985 10.313665,59.3235 10.0836339,58.8005 C9.93734221,58.4715 9.92422641,58.1335 10.0463043,57.8245 C10.203694,57.4265 10.5699277,57.0925 11.1066668,56.8605 Z M12.0681563,57.2825 C11.8401431,57.2825 11.5889249,57.3605 11.368983,57.4565 C10.9704642,57.6285 10.7101659,57.8455 10.6163374,58.0815 C10.5558029,58.2335 10.5628653,58.3945 10.6375245,58.5615 C10.7323619,58.7795 10.8937872,58.9105 11.115747,58.9495 C11.3437602,58.9935 11.6252456,58.9365 11.9591942,58.7915 C12.3627575,58.6175 12.6149846,58.4075 12.7108309,58.1675 C12.7723743,58.0135 12.764303,57.8475 12.687626,57.6735 C12.5605035,57.3835 12.3284547,57.2825 12.0681563,57.2825 Z M81.5914151,53.3564 L81.4128384,54.0664 L81.3845889,54.0694 L80.273781,54.1714 L79.7047568,56.4414 L80.6632196,57.0614 L80.4866606,57.7704 L80.4392419,57.7384 L75.6671062,54.5824 L75.8285315,53.9374 L75.8577898,53.9344 L81.5914151,53.3564 Z M8.95738968,52.0671 C10.6432753,51.6861 11.9225709,52.2681 12.2161632,53.5421 C12.3574103,54.1601 12.2191899,54.7431 11.8176444,55.2281 C11.4090366,55.7191 10.7522374,56.0781 9.91686138,56.2661 C9.57585041,56.3421 9.24997306,56.3801 8.94326496,56.3801 C8.49934536,56.3801 8.09578208,56.3001 7.75073547,56.1411 C7.1766667,55.8751 6.79933504,55.4081 6.65707898,54.7901 C6.36651342,53.5151 7.26948626,52.4461 8.95738968,52.0671 Z M79.6048749,54.2304 L76.7244419,54.5004 L79.1448127,56.0714 L79.6048749,54.2304 Z M51.2179311,29.9295 L51.2552607,30.0315 L53.0823934,34.9575 L57.0009929,36.3875 L58.5405868,36.3875 L58.548658,36.4155 L64.3095239,55.6855 L23.6908797,55.6855 L23.7070222,55.6345 L29.4598168,36.3875 L45.4328514,36.3875 L49.350442,34.9575 L51.2179311,29.9295 Z M9.97033351,52.6581 C9.70902629,52.6581 9.42350527,52.6931 9.11578827,52.7621 C7.79210071,53.0591 7.12218566,53.7621 7.32295839,54.6421 C7.52474003,55.5181 8.43477523,55.8661 9.7594717,55.5711 C10.415262,55.4231 10.9277874,55.1661 11.2385311,54.8291 C11.5391858,54.5041 11.6481479,54.1111 11.5512927,53.6921 C11.4756245,53.3551 11.2920033,53.0941 11.0074911,52.9151 C10.734077,52.7441 10.3839859,52.6581 9.97033351,52.6581 Z M45.4328514,37.2285 L30.0964379,37.2285 L24.8289281,54.8445 L63.1714754,54.8445 L57.9049746,37.2285 L57.0009929,37.2285 L53.0823934,38.6555 L51.2179311,43.6845 L51.1806014,43.5825 L49.350442,38.6555 L45.4328514,37.2285 Z M81.4470403,48.8687 L81.4863878,48.8727 L82.120991,48.9417 L82.1169554,48.9817 L81.7729177,52.0297 L81.7325614,52.0257 L76.3570985,51.4307 L76.3611341,51.3907 L76.4357933,50.7327 L76.4761496,50.7367 L81.1776619,51.2567 L81.4470403,48.8687 Z M8.48955895,46.7796 C9.34309528,46.7206 10.0755626,46.8716 10.6082662,47.2216 C11.1349162,47.5676 11.4365798,48.0846 11.4829896,48.7156 C11.5778269,50.0146 10.5275535,50.9356 8.80635612,51.0606 C8.68427823,51.0696 8.56522706,51.0736 8.4471848,51.0736 C6.92373342,51.0736 5.90372723,50.3326 5.81494331,49.1246 C5.76853353,48.4996 5.99352006,47.9476 6.46266237,47.5266 C6.93987595,47.0986 7.64207606,46.8416 8.48955895,46.7796 Z M10.8050033,48.7646 C10.7404331,47.8816 9.87680772,47.3936 8.54403999,47.4876 C7.87412494,47.5356 7.33032342,47.7126 6.97316992,47.9986 C6.62711441,48.2746 6.46165346,48.6466 6.49292962,49.0746 C6.55951756,49.9696 7.40901826,50.4436 8.7538929,50.3516 C10.0846428,50.2546 10.8705823,49.6466 10.8050033,48.7646 Z M80.7590658,43.768 C81.6529585,43.768 82.2623391,44.517 82.2794905,45.641 C82.3006776,46.966 81.6267269,47.77 80.3797164,47.903 L80.3797164,47.903 L80.3433957,47.907 L80.2112287,47.208 L80.2536028,47.203 C81.1868429,47.083 81.61462,46.588 81.5994864,45.645 C81.5883884,44.941 81.252422,44.471 80.7641104,44.471 L80.7641104,44.471 L80.7530124,44.471 C80.229389,44.481 79.9418502,44.849 79.6159729,45.93 C79.207365,47.227 78.8209532,47.668 78.0844502,47.68 L78.0844502,47.68 L78.0582186,47.68 C77.2117446,47.68 76.6114442,46.976 76.5932839,45.957 C76.5801681,44.934 77.1976199,44.15 78.1661718,43.959 L78.1661718,43.959 L78.2045103,43.952 L78.3598821,44.641 L78.3215436,44.651 C77.6274148,44.826 77.2642078,45.277 77.2742969,45.954 C77.2853949,46.576 77.5931119,46.975 78.0592275,46.975 L78.0592275,46.975 L78.0723433,46.975 C78.4648086,46.97 78.6716348,46.675 78.9591736,45.71 C79.395022,44.306 79.8772801,43.78 80.735861,43.768 L80.735861,43.768 Z M9.76885455,43.6573 L10.5305802,43.6943 L10.5416782,43.7133 L11.3195464,45.0253 L11.3195464,45.0363 L11.291297,45.6333 L11.2509407,45.6313 L5.83411256,45.3833 L5.86639762,44.6733 L5.90675395,44.6753 L10.489215,44.8813 L9.76885455,43.6573 Z M51.2179311,32.3685 L50.0143036,35.6145 L49.9961432,35.6205 L46.7383786,36.8085 L50.0143036,38.0015 L50.020357,38.0185 L51.2179311,41.2445 L52.4215585,38.0015 L52.4397189,37.9955 L55.6954656,36.8085 L52.4215585,35.6145 L52.416514,35.5975 L51.2179311,32.3685 Z M43.9994955,10.8802 C60.9784117,10.8802 75.7447921,22.8332 79.1115188,39.3022 L79.1115188,39.3022 L79.11959,39.3412 L78.2882497,39.5072 L78.2801784,39.4682 C74.9911377,23.3922 60.5748484,11.7232 43.9994955,11.7232 C27.4261605,11.7232 13.0098712,23.3922 9.72083051,39.4682 L9.72083051,39.4682 L9.71275925,39.5072 L8.88040998,39.3412 L8.88848125,39.3022 C12.2552079,22.8332 27.0215883,10.8802 43.9994955,10.8802 Z M2.46314848,26 L2.50047808,26.016 L7.4844846,28.126 L7.2019903,28.782 L7.1646607,28.766 L3.30457792,27.132 L6.50786146,30.389 L6.38376575,30.681 L6.35753414,30.681 L1.7881889,30.635 L5.69064582,32.287 L5.41218715,32.935 L5.37485755,32.919 L0.388833221,30.809 L0.74800454,29.976 L0.775245062,29.976 L5.31129633,30.05 L2.10498607,26.833 L2.11406624,26.809 L2.46314848,26 Z M85.0490444,28.1985 C85.845073,27.8825 86.6723777,28.3285 87.0557628,29.2815 C87.4361212,30.2295 87.1435378,31.1795 86.3101797,31.6995 L86.3101797,31.6995 L86.2768857,31.7205 L85.8813937,31.1325 L85.9126698,31.1095 C86.4988455,30.6995 86.6743955,30.1515 86.4211596,29.5245 C86.2889926,29.1945 86.0851931,28.9565 85.8460819,28.8555 C85.6765853,28.7815 85.4919551,28.7815 85.3113605,28.8535 C84.9461358,28.9975 84.8593697,29.3465 84.9390734,30.3475 C85.0359286,31.8105 84.7756303,32.4715 83.9796017,32.7845 C83.8080873,32.8525 83.6335462,32.8875 83.4590051,32.8875 C83.2774016,32.8875 83.096807,32.8495 82.9222659,32.7755 C82.4733018,32.5845 82.0979879,32.1605 81.865939,31.5815 C81.3705651,30.3525 81.7115761,29.3655 82.8244018,28.8025 L82.8244018,28.8025 L82.8576958,28.7845 L83.2340186,29.3915 L83.19568,29.4115 C82.3683753,29.8505 82.1474244,30.4635 82.5005423,31.3385 C82.657932,31.7315 82.8940165,32.0125 83.1674306,32.1285 C83.3419717,32.2045 83.5306376,32.2055 83.7102232,32.1355 C84.2015615,31.9395 84.3317107,31.5125 84.2449446,30.3715 L84.2449446,30.3715 C84.1622141,29.0165 84.3650046,28.4695 85.0490444,28.1985 Z M81.0070555,23.5304 C82.4941862,22.7144 83.9419694,22.9664 84.6118845,24.1614 C85.2797817,25.3564 84.7299267,26.7094 83.2427961,27.5264 C82.6616649,27.8464 82.0865873,28.0024 81.5609461,28.0024 C80.7437304,28.0024 80.0465749,27.6234 79.638976,26.8954 C79.3100719,26.3064 79.2666888,25.6744 79.5138713,25.0664 C79.7610539,24.4624 80.2776148,23.9314 81.0070555,23.5304 Z M82.7262351,23.7474 C82.309556,23.7474 81.8404137,23.8864 81.3561377,24.1534 C80.6781514,24.5234 80.2423031,24.9894 80.0950025,25.4984 C79.990076,25.8584 80.0354769,26.2194 80.232214,26.5684 C80.7074097,27.4184 81.7284248,27.5464 82.8937138,26.9034 C83.4708093,26.5874 83.8784082,26.1944 84.0741364,25.7694 C84.2698646,25.3484 84.2486775,24.9044 84.0166286,24.4884 C83.7825619,24.0724 83.4143104,23.8214 82.9512216,23.7614 C82.8785802,23.7524 82.803921,23.7474 82.7262351,23.7474 Z M5.15370487,21.4038 L5.73685381,21.7478 L5.71667565,21.7818 L4.41013953,23.9588 L5.81756647,24.7898 L7.03632757,22.7608 L7.5932449,23.0888 L7.57306674,23.1238 L6.3754927,25.1178 L7.93022024,26.0348 L9.25794343,23.8258 L9.84210128,24.1698 L9.82091421,24.2038 L8.15016223,26.9838 L8.11585935,26.9628 L3.46277473,24.2178 L3.4839618,24.1838 L5.15370487,21.4038 Z M80.1650207,17.7307 L80.1882256,17.7627 L81.1809913,19.1017 C82.029483,20.2457 81.7167215,21.6117 80.3859716,22.5817 C79.7422882,23.0487 79.1258452,23.2817 78.5578299,23.2817 C77.8727813,23.2817 77.2593651,22.9407 76.7569288,22.2637 L76.7569288,22.2637 L75.7712255,20.9307 L75.8035105,20.9077 L80.1650207,17.7307 Z M80.0378983,18.6967 L76.7377595,21.1007 L77.2835789,21.8347 C77.9686275,22.7607 78.8443599,22.8177 79.9622301,22.0067 C80.4939248,21.6187 80.8167754,21.1937 80.9217018,20.7437 C81.0215838,20.3177 80.9136306,19.8767 80.6099492,19.4677 L80.6099492,19.4677 L80.0378983,18.6967 Z M8.39926166,17.0053 L8.43154673,17.0283 L8.94104537,17.4123 L8.91784048,17.4443 L7.92507481,18.7363 L11.7377389,21.6093 L11.7135251,21.6423 L11.3008816,22.1783 L11.2685966,22.1543 L7.49124428,19.3043 L6.47426482,20.6283 L6.44197975,20.6053 L5.9314722,20.2203 L5.95467709,20.1883 L8.39926166,17.0053 Z M10.4567282,14.8109 L10.4819509,14.8219 L15.7726655,17.0929 L15.7323091,17.1339 L15.2682114,17.6259 L14.2219736,17.1639 L12.6067115,18.8729 L13.1394151,19.8779 L12.6339521,20.4109 L12.6087293,20.3609 L9.99666602,15.2959 L10.4567282,14.8109 Z M77.4643752,14.7041 L77.9264552,15.1911 L77.9123305,15.2161 L75.291187,20.3211 L74.7826972,19.7861 L74.795813,19.7611 L75.3143918,18.7781 L73.6900496,17.0711 L72.6428029,17.5351 L72.136331,17.0031 L72.1887942,16.9801 L77.4643752,14.7041 Z M10.9632001,15.7369 L12.3000034,18.2779 L13.6075485,16.8949 L10.9632001,15.7369 Z M76.9589122,15.6361 L74.3095193,16.8041 L75.6251356,18.1861 L76.9589122,15.6361 Z M72.8067505,10.4808 L72.8380267,10.5068 L73.3515609,10.9348 L73.3253293,10.9648 L70.2693464,14.5508 L72.1227108,16.1038 L71.6828268,16.6168 L71.6525595,16.5898 L69.2866698,14.6108 L69.3129014,14.5808 L72.8067505,10.4808 Z M13.3672265,12.0076 L13.3934581,12.0376 L16.4857618,15.6016 L18.3280282,14.0326 L18.7729567,14.5456 L18.7426894,14.5716 L16.3889066,16.5746 L16.362675,16.5446 L12.8274606,12.4676 L13.3672265,12.0076 Z M19.1237541,7.6905 L19.5121837,8.2435 L19.4788897,8.2665 L17.3813696,9.7065 L18.3136008,11.0405 L20.266847,9.6975 L20.2910608,9.7305 L20.6361074,10.2255 L20.6028135,10.2495 L18.6818523,11.5685 L19.7099297,13.0405 L21.8417527,11.5775 L22.2291735,12.1285 L22.1958795,12.1515 L19.5152104,13.9945 L19.4920055,13.9615 L16.409791,9.5555 L16.443085,9.5315 L19.1237541,7.6905 Z M68.0028341,7.1344 L68.5930454,7.5254 L68.5708494,7.5594 L66.5913715,10.5094 C66.355287,10.8594 66.2654942,11.1864 66.3250198,11.4794 C66.3835365,11.7634 66.5833003,12.0204 66.9202756,12.2414 C67.2622955,12.4674 67.5851461,12.5574 67.8787384,12.4934 C68.1713218,12.4354 68.4356557,12.2324 68.6626601,11.8944 L68.6626601,11.8944 L70.6734141,8.8954 L70.707717,8.9184 L71.2727056,9.2884 L71.2505096,9.3224 L69.2427823,12.3144 C68.8361923,12.9194 68.3317382,13.2254 67.7657407,13.2254 C67.3823556,13.2254 66.9717299,13.0854 66.5429439,12.8034 C66.015285,12.4554 65.7015145,12.0454 65.607686,11.5834 C65.5168843,11.1344 65.6399711,10.6534 65.9739197,10.1574 L65.9739197,10.1574 L68.0028341,7.1344 Z M21.8917946,5.954 C22.799812,5.465 23.7895509,5.646 24.4130562,6.411 L24.4130562,6.411 L24.43727,6.441 L23.8904417,6.899 L23.8642101,6.87 C23.3849787,6.337 22.8129278,6.229 22.2106096,6.551 C21.9361866,6.699 21.7394495,6.888 21.6425943,7.1 C21.546748,7.308 21.5548193,7.525 21.6647903,7.727 C21.8524472,8.07 22.2136363,8.115 23.2104376,7.922 C24.6753723,7.656 25.3674833,7.835 25.7760912,8.586 C25.986953,8.973 26.0061222,9.392 25.8285544,9.797 C25.6519955,10.201 25.3008954,10.552 24.8085482,10.815 C24.3696731,11.051 23.9509762,11.167 23.5605288,11.167 C22.9077652,11.167 22.3387409,10.839 21.9018837,10.191 L21.9018837,10.191 L21.8806966,10.16 L21.9099549,10.137 L22.4497208,9.718 L22.4739346,9.753 C23.0106738,10.522 23.6533483,10.667 24.491751,10.217 C25.1334166,9.873 25.3927061,9.368 25.1525859,8.928 C24.8993499,8.465 24.4513947,8.386 23.316373,8.602 L23.316373,8.602 C21.9634271,8.847 21.3893583,8.708 21.0382583,8.064 C20.6276326,7.312 20.9797416,6.444 21.8917946,5.954 Z M61.3829838,6.7494 C62.1558075,5.2134 63.4663793,4.6214 64.72247,5.2414 C65.7101911,5.7294 66.1258613,6.7224 65.7828325,7.7714 L65.7828325,7.7714 L65.7717345,7.8084 L65.0796235,7.6114 L65.0917304,7.5734 C65.3227704,6.7734 65.0917304,6.1764 64.4208064,5.8454 C63.5410385,5.4124 62.6239409,5.8814 62.0286851,7.0664 C61.4324203,8.2544 61.6079704,9.2614 62.4867294,9.6944 C62.86507,9.8824 63.2403838,9.9174 63.5652523,9.8074 C63.9102989,9.6874 64.1998555,9.4034 64.4056728,8.9854 L64.4056728,8.9854 L63.1788404,8.3784 L63.4825218,7.7734 L65.3399218,8.6894 L65.0776057,9.2114 C64.7749332,9.8134 64.3431205,10.2344 63.831604,10.4284 C63.6227601,10.5064 63.403827,10.5464 63.1788404,10.5464 C62.853972,10.5464 62.5180056,10.4634 62.184057,10.2984 C61.6432822,10.0314 61.2639327,9.6114 61.084347,9.0834 C60.8563338,8.4144 60.963278,7.5854 61.3829838,6.7494 Z M58.2063355,2.6996 L58.244674,2.7126 L61.3248707,3.8116 L61.3117549,3.8496 L61.0938308,4.4466 L61.0554922,4.4336 L58.6462195,3.5726 L58.0882932,5.1066 L60.3341229,5.9066 L60.322016,5.9446 L60.1141809,6.5146 L60.0758424,6.5026 L57.8693601,5.7116 L57.2549351,7.4036 L59.7015374,8.2776 L59.6884216,8.3156 L59.4725153,8.9106 L59.4341768,8.8976 L56.35398,7.7996 L56.3670958,7.7616 L58.2063355,2.6996 Z M28.75459,3.0788 L28.7687147,3.1158 L30.6301503,8.1578 L29.9551907,8.4038 L29.941066,8.3658 L28.3671692,4.1018 L27.5075794,5.2318 L27.4833656,5.1628 L27.2462722,4.5208 L27.259388,4.5028 L28.1785034,3.2868 L28.75459,3.0788 Z M52.9152173,1.3526 L52.9535558,1.3616 L54.8603923,1.8066 C55.9762448,2.0676 56.501886,2.8106 56.2688282,3.7956 C56.0821802,4.5876 55.5212272,5.0296 54.7191452,5.0296 C54.6828245,5.0296 54.6465038,5.0296 54.6101831,5.0276 L54.6101831,5.0276 L55.2619378,7.4586 L54.44674,7.2666 L54.4406865,7.2436 L53.8393772,4.9036 L52.8556917,4.6746 L52.3562822,6.7786 L51.6651801,6.6186 L51.6742602,6.5796 L52.9152173,1.3526 Z M32.3688018,1.866 C32.9832269,1.706 33.5794916,1.823 34.0819279,2.208 C34.5904177,2.597 34.9727939,3.236 35.1887002,4.057 C35.4035977,4.878 35.3824106,5.622 35.1291746,6.207 C34.8799743,6.784 34.4199122,7.172 33.8004425,7.331 C33.619848,7.377 33.443289,7.401 33.2717746,7.401 C32.2255368,7.401 31.3578758,6.565 30.9825619,5.139 C30.5477225,3.479 31.091524,2.194 32.3688018,1.866 Z M34.4915447,4.237 C34.1535604,2.954 33.4059594,2.292 32.5403162,2.519 C31.6605482,2.746 31.3397154,3.659 31.6797175,4.961 C32.0156839,6.243 32.762276,6.906 33.630946,6.678 C34.4975981,6.455 34.8275111,5.519 34.4915447,4.237 Z M47.0030153,0 L47.0363092,0.023 L47.5387455,0.347 L47.5185674,0.38 L43.5979501,6.473 L43.0521307,6.144 L43.0733178,6.11 L47.0030153,0 Z M38.1002075,0.7872 C38.6369467,0.7202 39.1403919,0.8512 39.5530353,1.1682 C40.1139883,1.5982 40.4882932,2.3602 40.6103711,3.3132 C40.8262775,5.0122 40.1230685,6.2162 38.8165323,6.3822 C38.7227039,6.3942 38.6308932,6.4002 38.5400915,6.4002 C37.3717758,6.4002 36.5081504,5.4322 36.3063687,3.8552 C36.1984156,3.0132 36.3134311,2.2802 36.6403173,1.7342 C36.9611502,1.1942 37.4656043,0.8662 38.1002075,0.7872 Z M47.3066966,2.6619 C47.675957,2.6699 47.994772,2.8039 48.2288387,3.0479 C48.5274756,3.3599 48.676794,3.8289 48.6626693,4.4049 C48.6334109,5.4399 48.0966717,6.0759 47.2592779,6.0769 C47.2441443,6.0769 47.2310285,6.0759 47.2158949,6.0759 C46.8496612,6.0659 46.5338729,5.9329 46.3048508,5.6929 C46.0092407,5.3819 45.8609312,4.9129 45.8780826,4.3319 C45.8922073,3.7489 46.0657395,3.2869 46.37951,2.9929 C46.6206391,2.7659 46.940463,2.6479 47.3066966,2.6619 Z M38.3574791,1.4442 C38.3009802,1.4442 38.2434725,1.4482 38.1849558,1.4552 C37.7551609,1.5092 37.4191945,1.7442 37.2143861,2.1352 C37.0015065,2.5392 36.9349185,3.1032 37.0196668,3.7652 C37.1034062,4.4262 37.3112413,4.9552 37.6179494,5.2942 C37.9155773,5.6222 38.2989624,5.7722 38.7297662,5.7122 C39.6307213,5.5992 40.0665696,4.7362 39.897073,3.4032 C39.7396833,2.1762 39.1565344,1.4442 38.3574791,1.4442 Z M47.2905541,3.2589 L47.2683581,3.2589 C46.8143494,3.2589 46.5530422,3.6449 46.532864,4.3479 C46.5147037,5.0639 46.7618862,5.4649 47.2320374,5.4779 L47.2320374,5.4779 L47.2552423,5.4779 C47.841418,5.4779 47.9826651,4.8869 47.9967898,4.3869 C48.0078878,3.9479 47.9231395,3.6309 47.7435539,3.4449 C47.6295473,3.3259 47.4772021,3.2629 47.2905541,3.2589 L47.2905541,3.2589 Z M53.4519565,2.1706 L53.0120725,4.0196 L54.2136822,4.3006 C54.6253167,4.3966 54.9491762,4.3696 55.1812251,4.2266 C55.3739266,4.1086 55.5040758,3.9086 55.5686459,3.6336 C55.6342249,3.3596 55.6079933,3.1266 55.49096,2.9396 C55.347695,2.7116 55.0662096,2.5466 54.6545751,2.4506 L54.6545751,2.4506 L53.4519565,2.1706 Z M43.2703828,0.4205 L43.2924527,0.421 C44.157087,0.446 44.6756658,1.114 44.6484253,2.165 C44.619167,3.201 44.0824278,3.837 43.2470518,3.837 C43.2319182,3.837 43.2167846,3.836 43.2016509,3.836 C42.7819451,3.825 42.4348807,3.655 42.1987962,3.342 C41.9647295,3.035 41.848705,2.602 41.8628298,2.091 C41.8769545,1.58 42.0151749,1.154 42.2633663,0.861 C42.5065132,0.573 42.8465153,0.42 43.2490696,0.42 C43.2631943,0.42 43.2773191,0.421 43.2924527,0.421 Z M43.2763101,1.018 L43.2541142,1.018 C42.8001055,1.018 42.5387983,1.405 42.5186201,2.11 C42.5004597,2.825 42.7476423,3.226 43.2177935,3.239 L43.2177935,3.239 L43.2399895,3.239 C43.8342364,3.239 43.9764924,2.648 43.9896082,2.148 C44.003733,1.642 43.8907352,1.036 43.2763101,1.018 L43.2763101,1.018 Z" id="Fill-3"></path>
                </g>
            </g>
        </g>
    </g>
</svg>