<?xml version="1.0" encoding="UTF-8"?>
<svg width="88px" height="90px" viewBox="0 0 88 90" version="1.1" xmlns="http://www.w3.org/2000/svg" xmlns:xlink="http://www.w3.org/1999/xlink">
    <title>3. icons/seal/bloque3/notesteadoanimales</title>
    <g id="Yanbal-UI-Visual-Kit" stroke="none" stroke-width="1" fill="none" fill-rule="evenodd">
        <g id="yanbal-styleguide-pag2" transform="translate(-484.000000, -5750.000000)" fill="#1C1F28">
            <g id="Group" transform="translate(480.000000, 5747.000000)">
                <g id="elements" transform="translate(3.999900, 2.999742)">
                    <path d="M86.6654352,35.4178578 L86.6754695,35.4568578 C87.5544761,38.9548578 88,42.5548578 88,46.1548578 C88,70.3318578 68.2614853,90.0008578 43.9994983,90.0008578 C19.7385147,90.0008578 0,70.3318578 0,46.1548578 C0,42.5498578 0.446527326,38.9498578 1.32653736,35.4568578 L1.32653736,35.4568578 L1.33657168,35.4178578 L2.15838265,35.6258578 L2.14935176,35.6648578 C1.28640007,39.0928578 0.849907068,42.6218578 0.849907068,46.1548578 C0.849907068,69.8648578 20.2071175,89.1548578 43.9994983,89.1548578 C67.7938859,89.1548578 87.1520998,69.8648578 87.1520998,46.1548578 C87.1520998,42.6208578 86.7146034,39.0908578 85.8516517,35.6648578 L85.8516517,35.6648578 L85.8416174,35.6258578 L86.6654352,35.4178578 Z M47.5942941,78.4530578 C48.1732745,78.4530578 48.6900421,78.6670578 49.098439,79.0800578 C49.5610212,79.5470578 49.8490063,80.2310578 49.9322911,81.0600578 C50.015576,81.8880578 49.8690749,82.6170578 49.5068359,83.1650578 C49.1445969,83.7170578 48.594716,84.0430578 47.9173993,84.1100578 C47.8361213,84.1180578 47.7548433,84.1220578 47.6755721,84.1220578 C47.1798766,84.1220578 46.7243184,83.9630578 46.3470279,83.6560578 C45.7881162,83.2010578 45.4298909,82.4410578 45.3365717,81.5160578 C45.2542902,80.6880578 45.4017948,79.9600578 45.7630304,79.4110578 C46.1252694,78.8590578 46.6751502,78.5320578 47.352467,78.4650578 C47.4347484,78.4570578 47.515023,78.4530578 47.5942941,78.4530578 Z M38.5722346,78.3494578 L38.6113684,78.3534578 L40.2810796,78.5314578 C40.9704375,78.6044578 41.5283458,78.9124578 41.8976089,79.4234578 C42.2759028,79.9494578 42.4294279,80.6604578 42.3411259,81.4824578 C42.2427895,82.3964578 41.9447702,83.0694578 41.4530884,83.4844578 C41.0757979,83.8034578 40.5941504,83.9634578 40.0181804,83.9634578 C39.8997754,83.9634578 39.7783601,83.9564578 39.652931,83.9444578 L39.652931,83.9444578 L37.9892405,83.7644578 L37.9932542,83.7254578 L38.5722346,78.3494578 Z M34.5335203,77.4059578 L34.5726542,77.4159578 L37.7404896,78.2109578 L37.5749233,78.8669578 L35.0573119,78.2349578 L34.6559391,79.8189578 L36.9638331,80.3989578 L36.8052908,81.0269578 L34.4984002,80.4469578 L34.0548832,82.1949578 L36.5714911,82.8269578 L36.4059248,83.4839578 L36.366791,83.4739578 L33.2019658,82.6799578 L33.2109967,82.6399578 L34.5335203,77.4059578 Z M47.5842598,79.1310578 C47.5310779,79.1310578 47.4758891,79.1340578 47.4196969,79.1390578 C46.4453643,79.2360578 45.9205692,80.1200578 46.0530223,81.4450578 C46.1784513,82.6950578 46.797569,83.4460578 47.6866099,83.4460578 C47.7407952,83.4460578 47.7939771,83.4430578 47.8501693,83.4370578 C48.2515422,83.3970578 48.5776577,83.2290578 48.817478,82.9360578 C49.156638,82.5220578 49.2951117,81.8980578 49.2158405,81.1320578 C49.1516209,80.4770578 48.949931,79.9460578 48.631843,79.5960578 C48.3538923,79.2900578 47.9946636,79.1310578 47.5842598,79.1310578 Z M54.2603952,77.1784578 L54.2704295,77.2174578 L55.6561694,82.4294578 L55.6170355,82.4404578 L54.8664683,82.6374578 L54.8504133,82.6194578 L51.4558022,79.1114578 L52.5545605,83.2484578 L52.5164301,83.2594578 L51.8692163,83.4304578 L51.8581785,83.3914578 L50.4744455,78.1774578 L50.5135794,78.1664578 L51.2541124,77.9714578 L51.2701673,77.9894578 L54.6657818,81.4964578 L53.5660201,77.3614578 L53.605154,77.3504578 L54.2603952,77.1784578 Z M39.2074072,79.0974578 L38.7689073,83.1674578 L39.6860443,83.2644578 C40.2539869,83.3234578 40.674425,83.2184578 40.9935165,82.9384578 C41.3366903,82.6364578 41.5494179,82.1204578 41.6266822,81.4074578 C41.7651558,80.1184578 41.2343402,79.3144578 40.1696986,79.2014578 L40.1696986,79.2014578 L39.2074072,79.0974578 Z M30.0266046,75.6947578 L30.0637316,75.7097578 L33.8125543,77.1947578 L33.5626997,77.8247578 L32.0033661,77.2077578 L30.2353185,81.6407578 L29.5670327,81.3757578 L29.5820842,81.3387578 L31.3370871,76.9427578 L29.7757466,76.3247578 L30.0266046,75.6947578 Z M58.8878231,75.1813578 L58.9078918,75.2013578 L63.0801628,79.1893578 L62.4178976,79.5183578 L62.3968255,79.4973578 L61.5960866,78.7173578 L59.4758344,79.7683578 L59.6233389,80.9043578 L58.9600702,81.2333578 L58.9530462,81.1763578 L58.2857638,75.4803578 L58.8878231,75.1813578 Z M25.638696,74.8007578 C26.0641512,74.0567578 26.9893157,73.8927578 27.8914013,74.3977578 C28.7884697,74.9027578 29.1597396,75.8307578 28.835631,76.7617578 L28.835631,76.7617578 L28.8235898,76.7987578 L28.1442662,76.5827578 L28.1553039,76.5457578 C28.3539835,75.8577578 28.1452696,75.3167578 27.5502343,74.9827578 C27.2351566,74.8067578 26.9230892,74.7517578 26.674238,74.8167578 C26.4956271,74.8667578 26.3531397,74.9807578 26.2588171,75.1477578 C26.0661581,75.4877578 26.2176764,75.8167578 26.9100446,76.5547578 C27.9114699,77.6437578 28.1262044,78.3247578 27.7037594,79.0687578 C27.4860147,79.4527578 27.1378237,79.6907578 26.6983204,79.7587578 C26.6150355,79.7707578 26.5297438,79.7767578 26.4434486,79.7767578 C26.075189,79.7767578 25.682847,79.6637578 25.290505,79.4427578 C24.1305374,78.7877578 23.7733155,77.8007578 24.2840625,76.6607578 L24.2840625,76.6607578 L24.299114,76.6277578 L24.3342341,76.6397578 L24.9744239,76.8707578 L24.9573655,76.9097578 C24.5901094,77.7707578 24.8048438,78.3907578 25.631672,78.8577578 C26.2638343,79.2157578 26.8337837,79.1627578 27.0816315,78.7287578 C27.3435273,78.2677578 27.1749507,77.8497578 26.3882598,77.0077578 C25.4651022,75.9967578 25.2774604,75.4397578 25.638696,74.8007578 Z M59.038338,76.2333578 L59.3985701,79.1003578 L61.1154426,78.2483578 L59.038338,76.2333578 Z M64.3473973,71.7602578 L64.3704763,71.7932578 L67.4730886,76.2222578 L67.4399754,76.2462578 L66.8027959,76.6872578 L66.7817239,76.6772578 L62.3756531,74.5382578 L64.8370723,78.0522578 L64.2540782,78.4582578 L64.2309992,78.4252578 L61.1303937,73.9972578 L61.792659,73.5352578 L61.8137311,73.5442578 L66.2187984,75.6842578 L63.7583826,72.1672578 L63.7914959,72.1442578 L64.3473973,71.7602578 Z M23.0903796,71.2706578 L23.1234929,71.2936578 L25.7273994,73.2556578 L25.7043205,73.2876578 L25.3179991,73.7956578 L25.2858892,73.7726578 L23.246915,72.2346578 L22.2575309,73.5406578 L24.1580314,74.9716578 L24.1339491,75.0036578 L23.7676963,75.4866578 L23.7355865,75.4636578 L21.8681992,74.0566578 L20.776465,75.4936578 L22.847549,77.0546578 L22.8244701,77.0866578 L22.4381487,77.5946578 L22.4060388,77.5706578 L19.8011289,75.6096578 L19.8252112,75.5766578 L23.0903796,71.2706578 Z M65.7705652,70.4759578 L65.7976579,70.5069578 L69.3738902,74.5669578 L68.8390609,75.0339578 L68.8129716,75.0039578 L65.2367393,70.9439578 L65.7705652,70.4759578 Z M19.5982349,67.9447578 L19.626331,67.9737578 L22.5011642,70.7917578 L22.0225271,71.2747578 L21.994431,71.2467578 L20.8284427,70.1037578 L17.4729655,73.5017578 L17.4448694,73.4737578 L16.9602116,72.9987578 L16.9893112,72.9707578 L20.3156889,69.6007578 L19.1206011,68.4267578 L19.5982349,67.9447578 Z M70.231323,65.8088578 L70.261426,65.8348578 L74.3132852,69.4218578 L73.8366549,69.9558578 L73.8075554,69.9298578 L70.6658092,67.1498578 L72.666653,71.2688578 L72.4519185,71.5088578 L72.4278361,71.4998578 L68.109064,70.0148578 L71.28292,72.8218578 L70.8113069,73.3508578 L70.7822073,73.3238578 L66.7283413,69.7388578 L66.7544305,69.7098578 L67.3354177,69.0598578 L67.3605035,69.0678578 L71.6401418,70.5688578 L69.62525,66.4878578 L69.6423084,66.4688578 L70.231323,65.8088578 Z M71.9246149,63.1446578 L71.9537144,63.1496578 L77.589993,64.3776578 L77.1976511,64.9996578 L77.1705584,64.9936578 L76.0788242,64.7466578 L74.8255373,66.7426578 L75.5449982,67.6326578 L75.5299467,67.6566578 L75.1516528,68.2566578 L75.1165327,68.2116578 L71.5714067,63.7116578 L71.5854548,63.6876578 L71.9246149,63.1446578 Z M15.8289422,62.8641578 L15.8510177,62.8971578 L18.1268019,66.2051578 L17.5658833,66.5871578 L17.5438078,66.5531578 L16.6186433,65.2121578 L12.6811754,67.9001578 L12.6590999,67.8671578 L12.2747853,67.3111578 L12.3078986,67.2891578 L16.2142601,64.6211578 L15.2680236,63.2461578 L15.8289422,62.8641578 Z M72.6019316,63.9616578 L74.4101164,66.2146578 L75.4255898,64.5986578 L72.6019316,63.9616578 Z M11.1731171,59.6868578 C12.7003409,58.9388578 14.1362524,59.2638578 14.7463392,60.4948578 C15.008235,61.0228578 15.0513826,61.5848578 14.8707648,62.1178578 C14.6399754,62.7988578 14.0529675,63.3998578 13.2171085,63.8108578 C12.6692345,64.0798578 12.1323983,64.2108578 11.6427234,64.2108578 C10.7667271,64.2108578 10.0362285,63.7948578 9.64488991,63.0048578 C9.03480313,61.7708578 9.64890364,60.4378578 11.1731171,59.6868578 Z M14.1372558,60.7948578 C13.7027697,59.9168578 12.6893032,59.7398578 11.4912051,60.3288578 C10.295114,60.9178578 9.82049054,61.8278578 10.2529698,62.7048578 C10.6854491,63.5798578 11.6989156,63.7588578 12.8990205,63.1688578 C14.0951117,62.5798578 14.5697351,61.6698578 14.1372558,60.7948578 Z M78.8679643,60.0229578 L79.4860785,60.3049578 L79.4690202,60.3419578 L78.1806132,63.1579578 L78.1444897,63.1409578 L73.2035896,60.8939578 L73.4985986,60.2499578 L73.5347222,60.2659578 L77.8565046,62.2309578 L78.8679643,60.0229578 Z M44.1256297,31.0060578 C52.3106261,25.2500578 56.6394326,27.4280578 56.8170401,27.5240578 L56.8170401,27.5240578 L57.0086957,27.6260578 L57.0127094,27.6450578 L57.0408055,27.8370578 C57.0658913,28.0100578 57.5656005,32.1350578 51.2118679,37.2870578 L51.2118679,37.2870578 L51.3051871,37.2750578 C51.4065337,37.2620578 51.5108907,37.2500578 51.616251,37.2500578 C53.9291622,37.2500578 56.1407268,37.9980578 58.0141347,39.4130578 C58.6593416,38.2850578 59.8333573,37.5870578 61.0876475,37.5870578 C63.0553781,37.5870578 64.6558524,39.1820578 64.6558524,41.1440578 C64.6558524,42.8280578 63.4577544,44.2800578 61.7990809,44.6160578 C62.2235328,45.8240578 62.4382673,47.0710578 62.4382673,48.3230578 C62.4382673,54.3120578 57.854589,59.1680578 52.0025724,59.3770578 L52.0025724,59.3770578 L51.6513712,59.3960578 L29.9672015,59.3960578 L29.9431191,58.9960578 C29.9429233,58.9929358 29.9413426,58.9593558 29.9407205,58.8984954 L29.9407993,58.7871417 C29.9488699,58.0228609 30.1200413,55.29157 32.0242374,52.7220578 C31.9479766,52.7320578 31.8717158,52.7430578 31.7954549,52.7540578 C31.5516209,52.7880578 31.2997594,52.8230578 31.0599391,52.8230578 C28.3055177,52.8230578 26.0257198,51.5620578 24.9590714,49.4490578 C23.1739655,45.9080578 25.3263276,41.0150578 29.7554773,38.5420578 C32.25302,37.1500578 35.0244997,36.7590578 37.3574796,37.4680578 C37.4417679,37.4940578 37.5180287,37.5280578 37.5932861,37.5610578 C37.6374371,37.5820578 37.6825916,37.6010578 37.727746,37.6190578 C38.9920706,35.3270578 41.1444327,33.1020578 44.1256297,31.0060578 Z M12.1710305,53.9776578 L12.4128576,54.7466578 L12.3968027,54.7636578 L9.02326366,58.2986578 L13.1262979,57.0246578 L13.340029,57.7066578 L13.3018985,57.7186578 L8.13020901,59.3256578 L7.88938528,58.5486578 L7.9054402,58.5316578 L11.2749655,54.9976578 L7.17594499,56.2716578 L6.96321737,55.5956578 L7.00134779,55.5836578 L12.1710305,53.9776578 Z M76.9975667,54.3284578 C77.0798481,54.3284578 77.163133,54.3334578 77.2484247,54.3434578 L77.2484247,54.3434578 L77.2865551,54.3484578 L77.2835449,54.3874578 L77.2223355,55.0574578 L77.1832016,55.0554578 C77.1370438,55.0524578 77.0918893,55.0504578 77.0477383,55.0504578 C76.4035348,55.0504578 75.9670418,55.3704578 75.7794,55.9824578 C75.6740396,56.3254578 75.6830705,56.6404578 75.8054892,56.8694578 C75.8927878,57.0334578 76.0362786,57.1494578 76.2219136,57.2054578 C76.5951904,57.3204578 76.8841788,57.1024578 77.4601489,56.2664578 C78.3120629,55.0564578 78.9351942,54.6994578 79.7590121,54.9504578 C80.6139363,55.2114578 80.9791856,56.1464578 80.6470496,57.2214578 C80.3159169,58.2964578 79.6285659,58.8654578 78.6853396,58.8654578 C78.509739,58.8654578 78.3261109,58.8454578 78.1334519,58.8054578 L78.1334519,58.8054578 L78.0963249,58.7974578 L78.1896441,58.0854578 L78.2317883,58.0934578 C79.1509322,58.2654578 79.7178714,57.9234578 79.9988324,57.0144578 C80.1242614,56.6084578 80.1172374,56.2404578 79.9777603,55.9774578 C79.8874514,55.8064578 79.7419537,55.6864578 79.5573222,55.6294578 C79.0455718,55.4684578 78.6753053,55.7284578 78.0190607,56.6784578 C77.2253458,57.7964578 76.7206194,58.1044578 76.0142031,57.8834578 C75.6138337,57.7614578 75.3067834,57.4844578 75.1482411,57.1034578 C74.987692,56.7184578 74.9816714,56.2594578 75.1311828,55.7754578 C75.4071266,54.8754578 76.1245807,54.3284578 76.9975667,54.3284578 Z M51.616251,38.0970578 C51.0733942,38.0970578 50.5154859,38.1460578 49.9575776,38.2430578 C49.8923545,38.2900578 49.8311452,38.3370578 49.7699358,38.3840578 C49.6826372,38.4500578 49.5923283,38.5180578 49.4949954,38.5870578 C46.7184985,40.5390578 44.0654238,41.7830578 41.6100252,42.2840578 C42.1037138,45.6280578 39.9202454,49.3710578 36.285814,51.3990578 C35.3175019,51.9400578 34.2839667,52.3330578 33.2163149,52.5680578 C31.1733269,54.8630578 30.8401875,57.4850578 30.795033,58.5510578 L30.795033,58.5510578 L40.0165749,58.5430578 C40.2473643,54.5140578 43.5757489,51.3640578 47.6105497,51.3640578 L47.6105497,51.3640578 L47.650687,51.3640578 L47.650687,52.2120578 L47.6105497,52.2120578 C44.0513757,52.2120578 41.0962679,54.9880578 40.8664819,58.5410578 L40.8664819,58.5410578 L51.9654454,58.5330578 C57.3619038,58.3380578 61.5893636,53.8530578 61.5893636,48.3230578 C61.5893636,42.6840578 57.1150595,38.0970578 51.616251,38.0970578 Z M34.9472354,37.9680578 C33.3798743,37.9680578 31.7201975,38.4150578 30.1688913,39.2800578 C26.1290733,41.5370578 24.1332467,45.9280578 25.719673,49.0690578 C26.8786372,51.3710578 29.6882473,52.4390578 32.8831754,51.7860578 C33.9056728,51.5770578 34.9111119,51.1990578 35.870393,50.6620578 C39.9122179,48.4050578 41.9080446,44.0130578 40.3196114,40.8710578 C39.6914628,39.6240578 38.5806634,38.7260578 37.1066215,38.2760578 C36.4222808,38.0690578 35.6957958,37.9680578 34.9472354,37.9680578 Z M43.9991973,10.4500578 C63.7567772,10.4500578 79.8307575,26.4680578 79.8307575,46.1550578 C79.8307575,47.4830578 79.7374383,48.8650578 79.5397621,50.5030578 L79.5397621,50.5030578 L79.534745,50.5430578 L78.6898551,50.4410578 L78.6948722,50.4010578 C78.8905415,48.8080578 78.9808504,47.4600578 78.9808504,46.1550578 C78.9808504,26.9350578 63.2891778,11.2990578 43.9991973,11.2990578 C24.712227,11.2990578 9.02155783,26.9350578 9.02155783,46.1550578 C9.02155783,47.4480578 9.11387359,48.8360578 9.30653257,50.3990578 L9.30653257,50.3990578 L9.31154973,50.4390578 L8.46766326,50.5430578 L8.4626461,50.5030578 C8.26697682,48.8980578 8.17064733,47.4760578 8.17064733,46.1550578 C8.17064733,26.4680578 24.2436242,10.4500578 43.9991973,10.4500578 Z M30.0393482,42.9636578 C30.4066044,42.9636578 30.7056272,43.2596578 30.7056272,43.6236578 C30.7056272,43.9896578 30.4066044,44.2886578 30.0393482,44.2886578 C29.6730955,44.2886578 29.3750761,43.9896578 29.3750761,43.6236578 C29.3750761,43.2596578 29.6730955,42.9636578 30.0393482,42.9636578 Z M61.0876475,38.4330578 C60.0832119,38.4330578 59.1399856,39.0260578 58.6764,39.9470578 C59.867474,41.0010578 60.835786,42.3290578 61.4789861,43.7910578 C62.8306092,43.5920578 63.8069488,42.4830578 63.8069488,41.1440578 C63.8069488,39.6490578 62.5867752,38.4330578 61.0876475,38.4330578 Z M56.2069533,28.1880578 C55.7523985,28.0320578 54.5482799,27.7280578 52.6337313,28.0440578 C50.1903739,28.4430578 47.4921447,29.6720578 44.6143012,31.6960578 C41.7786018,33.6910578 39.7295933,35.7930578 38.5224643,37.9450578 C39.6653736,38.5350578 40.5243116,39.3910578 41.080213,40.4910578 C41.2327347,40.7980578 41.3270573,41.1260578 41.4193731,41.4420578 L41.4193731,41.4420578 L41.4243902,41.4600578 C43.7674044,40.9850578 46.3171256,39.7860578 49.004317,37.8950578 C51.8821606,35.8720578 53.947224,33.7520578 55.1433152,31.5930578 C56.0815243,29.8990578 56.2009327,28.6670578 56.2069533,28.1880578 Z M2.09647088,26.4531578 L7.13771423,28.5711578 L6.81862279,29.3231578 L6.79454042,29.3261578 L1.91284279,29.8581578 L5.88643428,31.5261578 L5.61149386,32.1801578 L0.569247084,30.0641578 L0.885328225,29.3201578 L0.908407165,29.3171578 L5.78809793,28.7831578 L1.8165133,27.1151578 L2.09647088,26.4531578 Z M84.8244381,27.3669578 C85.211763,27.2079578 85.6241736,27.2279578 85.9894229,27.4209578 C86.3566791,27.6149578 86.653695,27.9649578 86.8473574,28.4309578 C87.238696,29.3799578 86.957735,30.3379578 86.1299034,30.8719578 L86.1299034,30.8719578 L86.0977936,30.8929578 L85.6934104,30.3059578 L85.7245168,30.2839578 C86.3075109,29.8669578 86.477091,29.3129578 86.217202,28.6829578 C85.9743714,28.0999578 85.5318578,27.8429578 85.0963683,28.0209578 C84.7341292,28.1699578 84.6508444,28.5219578 84.7421567,29.5269578 C84.8555445,30.9999578 84.6026796,31.6679578 83.8099682,31.9939578 C83.635371,32.0649578 83.4587669,32.0999578 83.2841697,32.0999578 C82.6359525,32.0999578 82.0208486,31.6249578 81.6796816,30.8079578 C81.1729484,29.5779578 81.5020741,28.5799578 82.6078564,27.9989578 L82.6078564,27.9989578 L82.6399662,27.9809578 L82.6610383,28.0129578 L83.0232773,28.5889578 L82.9861504,28.6089578 C82.1623325,29.0589578 81.9486015,29.6779578 82.3118439,30.5549578 C82.4743999,30.9489578 82.7152237,31.2279578 82.9911675,31.3419578 C83.1677716,31.4159578 83.3564168,31.4159578 83.5330209,31.3419578 C84.0186821,31.1419578 84.1491283,30.6929578 84.048785,29.5629578 L84.048785,29.5629578 C83.9494453,28.1999578 84.1451145,27.6449578 84.8244381,27.3669578 Z M83.8479983,22.6523578 L83.8680669,22.6873578 L85.4404452,25.5443578 L84.843403,25.8703578 L84.8233344,25.8353578 L83.5941299,23.5983578 L82.1552082,24.3843578 L83.3001243,26.4673578 L82.7291714,26.7793578 L82.7101062,26.7443578 L81.5852587,24.6953578 L79.9968255,25.5623578 L81.2440917,27.8323578 L80.6490564,28.1593578 L80.6289878,28.1233578 L79.0566095,25.2663578 L79.0917297,25.2463578 L83.8479983,22.6523578 Z M5.46248418,21.8052578 C6.11672197,21.7032578 6.83818972,21.8772578 7.5576506,22.2952578 C8.27610805,22.7132578 8.77983101,23.2592578 9.01363071,23.8722578 C9.24743042,24.4872578 9.18923135,25.1222578 8.84706097,25.7072578 C8.54904161,26.2152578 8.10251428,26.5602578 7.55664717,26.7032578 C7.36699848,26.7532578 7.16932234,26.7772578 6.96462217,26.7772578 C6.4137379,26.7772578 5.81669574,26.6002578 5.23069134,26.2582578 C4.42794559,25.7932578 3.88508877,25.1532578 3.70346754,24.4602578 C3.55997674,23.9162578 3.64225818,23.3592578 3.94128097,22.8492578 C4.28345135,22.2652578 4.80824639,21.9052578 5.46248418,21.8052578 Z M7.19240128,22.9112578 C6.04146455,22.2412578 5.01997058,22.3482578 4.52728537,23.1902578 C4.28545822,23.6032578 4.25535525,24.0482578 4.43998677,24.4762578 C4.62662516,24.9092578 5.02498774,25.3112578 5.59293036,25.6422578 C6.16187642,25.9722578 6.71376413,26.1232578 7.1803601,26.0712578 C7.6449492,26.0212578 8.01822598,25.7762578 8.26105657,25.3632578 C8.46374987,25.0172578 8.51893864,24.6582578 8.42260915,24.2942578 C8.28714581,23.7792578 7.86169056,23.3002578 7.19240128,22.9112578 Z M81.2606484,18.7905578 L81.2837273,18.8235578 L81.6640281,19.3705578 L81.6309148,19.3945578 L77.7416116,22.0805578 L79.1233378,24.0665578 L79.0902245,24.0895578 L78.5654295,24.4505578 L78.5423505,24.4175578 L76.781327,21.8855578 L76.8144403,21.8625578 L81.2606484,18.7905578 Z M78.7272831,15.6737578 L79.1687933,16.1787578 L76.3280767,21.2237578 L75.8444224,20.6667578 L75.8584705,20.6427578 L76.4143719,19.6747578 L74.8620623,17.8957578 L73.7984242,18.3197578 L73.3147698,17.7637578 L73.3669483,17.7427578 L78.7272831,15.6737578 Z M9.93006534,14.9068578 L9.9601683,14.9338578 L10.4488398,15.3438578 L10.4227505,15.3738578 L9.36914674,16.6168578 L13.0166228,19.6878578 L12.9895301,19.7188578 L12.5530371,20.2338578 L12.5219307,20.2078578 L8.90556107,17.1628578 L7.82386116,18.4358578 L7.30609015,17.9988578 L7.33318282,17.9688578 L9.93006534,14.9068578 Z M78.1864331,16.5857578 L75.4912143,17.6527578 L76.7485148,19.0947578 L78.1864331,16.5857578 Z M13.4045497,11.5053578 L13.4326458,11.5353578 L13.8731525,11.9963578 L13.8430495,12.0243578 L11.9897103,13.7853578 L13.1235886,14.9693578 L14.8504954,13.3313578 L15.2990296,13.7993578 L15.2689267,13.8283578 L13.5711194,15.4393578 L14.8203925,16.7473578 L16.7028313,14.9583578 L17.1744444,15.4513578 L17.1443414,15.4793578 L14.7762415,17.7273578 L14.7481454,17.6983578 L11.0053433,13.7833578 L11.0344428,13.7543578 L13.4045497,11.5053578 Z M72.3978335,9.64865777 L73.0871914,10.2436578 L73.0781605,10.2696578 L71.6171633,14.5546578 L75.6931048,12.5006578 L75.7141769,12.5186578 L76.3824627,13.0966578 L76.3563735,13.1266578 L72.8002098,17.2086578 L72.257353,16.7376578 L72.2834422,16.7076578 L75.0418773,13.5436578 L70.9278053,15.5856578 L70.6839713,15.3736578 L70.6919988,15.3486578 L72.1349343,11.0286578 L69.3524168,14.2236578 L68.8155806,13.7566578 L68.8416698,13.7266578 L72.3978335,9.64865777 Z M15.8625572,9.39145777 C16.6853716,8.76845777 17.6888037,8.79345777 18.4223127,9.45945777 L18.4223127,9.45945777 L18.4514122,9.48645777 L17.9828094,10.0254578 L17.951703,10.0004578 C17.3947981,9.54345777 16.8128074,9.52145777 16.2699506,9.93645777 C15.982969,10.1534578 15.8053615,10.4144578 15.7702414,10.6724578 C15.7451556,10.8564578 15.7943238,11.0344578 15.9117253,11.1874578 C16.1495388,11.5004578 16.5117778,11.4924578 17.4690521,11.1454578 C18.8698434,10.6584578 19.5842872,10.7294578 20.1070753,11.4114578 C20.6559527,12.1314578 20.4111153,13.0804578 19.4969886,13.7744578 C19.0012931,14.1494578 18.5076044,14.3364578 18.0359913,14.3364578 C17.4941379,14.3364578 16.9823875,14.0904578 16.5278327,13.5984578 L16.5278327,13.5984578 L16.5027469,13.5714578 L16.9934252,13.0454578 L17.0235282,13.0764578 C17.6747557,13.7574578 18.3330072,13.8064578 19.0905985,13.2284578 C19.4317655,12.9714578 19.6424862,12.6674578 19.6826235,12.3724578 C19.7087128,12.1824578 19.6615514,11.9994578 19.5441499,11.8474578 C19.2220481,11.4224578 18.7695002,11.4124578 17.6787694,11.8054578 L17.6787694,11.8054578 C16.3783213,12.2504578 15.7893066,12.2024578 15.3437827,11.6184578 C14.8230014,10.9334578 15.035729,10.0184578 15.8625572,9.39145777 Z M70.2087458,8.14645777 L70.7917399,8.55045777 L67.6670521,13.0144578 L67.0850614,12.6084578 L70.2087458,8.14645777 Z M65.2663406,5.15755777 L65.9657328,5.55755777 L65.9657328,5.58055777 L65.9085372,10.4525578 L68.0428374,6.74155777 L68.663962,7.09755777 L68.6438933,7.13155777 L65.954695,11.8085578 L65.2472753,11.4055578 L65.2472753,11.3825578 L65.3064778,6.50855777 L63.1741844,10.2215578 L62.5590805,9.86855777 L62.5781457,9.83455777 L65.2663406,5.15755777 Z M22.0578479,5.51025777 L22.4050354,6.09225777 L22.3709187,6.11325777 L20.9671171,6.94625777 L23.409471,11.0362578 L22.7953705,11.4012578 L22.7742985,11.3672578 L20.3510097,7.31225777 L18.9110845,8.16525777 L18.5649004,7.58525777 L18.5990171,7.56525777 L22.0578479,5.51025777 Z M26.4449538,3.43145777 L26.7259148,4.04945777 L26.6897912,4.06645777 L24.3568114,5.12545777 L25.0401487,6.61745777 L27.211576,5.62945777 L27.4804958,6.21845777 L27.4443722,6.23545777 L25.3090685,7.20645777 L26.0616427,8.85245777 L28.4317495,7.77645777 L28.7147174,8.39245777 L28.6785938,8.40845777 L25.6984002,9.76145777 L25.6813419,9.72545777 L23.4286366,4.80245777 L23.4647601,4.78545777 L26.4449538,3.43145777 Z M61.5134038,3.45685777 L61.539493,3.46785777 L62.1335249,3.71685777 L62.1325215,3.74485777 L61.8375124,9.48985777 L61.1551785,9.20885777 L61.1571854,9.18085777 L61.2244153,8.06485777 L59.0429537,7.15885777 L58.277335,8.01085777 L58.2512457,7.99985777 L57.5950011,7.72585777 L57.6341349,7.68385777 L61.5134038,3.45685777 Z M30.1681889,2.13665777 L30.1852473,2.15865777 L33.7012737,6.73165777 L32.9978677,6.95465777 L32.9798059,6.93265777 L32.3054995,6.03865777 L30.0517908,6.75865777 L30.0226913,7.90165777 L29.996602,7.91065777 L29.3192853,8.12765777 L29.3212921,8.07065777 L29.5279992,2.34065777 L30.1681889,2.13665777 Z M61.4351361,4.51585777 L59.4975085,6.66185777 L61.265556,7.39785777 L61.4351361,4.51585777 Z M52.3887935,0.75195777 L53.1805015,0.92995777 L53.1855186,0.95195777 L54.5672448,5.64695777 L55.5195019,1.45795777 L56.220901,1.61695777 L56.2118701,1.65595777 L55.0137721,6.92995777 L54.2150401,6.75095777 L54.2090195,6.72795777 L52.8272934,2.03395777 L51.8760396,6.22195777 L51.1816646,6.06695777 L51.1906954,6.02795777 L52.3887935,0.75195777 Z M35.0891207,0.91435777 C36.4969361,0.64335777 37.6027184,1.51635777 37.9127789,3.13135777 C38.0853693,4.03135777 37.9970672,4.75935777 37.6498797,5.29635777 C37.327778,5.79335777 36.793952,6.11735777 36.0634534,6.25535777 L36.0634534,6.25535777 L34.4268555,6.56635777 L34.4198315,6.52735777 L33.4073684,1.23035777 L33.4465022,1.22335777 Z M30.1541409,3.19565777 L30.0758732,6.08565777 L31.9031232,5.50465777 L30.1541409,3.19565777 Z M47.4888334,0.13995777 L47.5279673,0.14395777 L50.7820979,0.49195777 L50.7108542,1.16695777 L50.6717203,1.16295777 L48.1219991,0.89095777 L47.9484053,2.51995777 L50.3215225,2.77295777 L50.3175088,2.81195777 L50.2512822,3.41695777 L50.2121484,3.41295777 L47.8781651,3.16195777 L47.6845027,4.95995777 L50.2713509,5.23695777 L50.1991038,5.90995777 L50.1599699,5.90595777 L46.9048359,5.55595777 L46.9088496,5.51695777 L47.4888334,0.13995777 Z M36.3855551,1.79235777 C36.0504088,1.56435777 35.6420119,1.49835777 35.1784262,1.58335777 L35.1784262,1.58335777 L34.2311862,1.76435777 L34.996805,5.76935777 L35.899894,5.59935777 C37.0387895,5.38235777 37.467255,4.61935777 37.2083695,3.26535777 C37.0769199,2.57835777 36.7929486,2.06835777 36.3855551,1.79235777 Z M41.1741343,0.00435777027 C41.8504476,-0.0356422297 42.4494966,0.20035777 42.8960239,0.68635777 C43.3405444,1.17135777 43.6024402,1.86735777 43.6536152,2.69935777 C43.7579722,4.39235777 42.9020445,5.58835777 41.5223252,5.67435777 L41.5223252,5.67435777 C41.4721536,5.67735777 41.4229854,5.67835847 41.3738173,5.67835847 C40.0713623,5.67935777 39.1411806,4.61335777 39.039834,2.97935777 C38.9374839,1.28435777 39.794415,0.0883577703 41.1741343,0.00435777027 Z M41.3196319,0.67935777 C41.2845118,0.67935777 41.2503951,0.68035777 41.2162784,0.68235777 C40.2349217,0.74235777 39.6770134,1.60535777 39.7582914,2.93635777 C39.838566,4.21935777 40.4556768,4.99935777 41.3768276,4.99935777 C41.4109443,4.99935777 41.4460644,4.99835777 41.4801811,4.99635777 C41.9608251,4.96735777 42.3491534,4.74435777 42.6040251,4.35135777 C42.8619072,3.95435777 42.9762985,3.39835777 42.9351578,2.74235777 C42.8950205,2.08535777 42.7133992,1.54735777 42.4103627,1.18535777 C42.1314086,0.85335777 41.7551215,0.67935777 41.3196319,0.67935777 Z" id="Fill-3"></path>
                </g>
            </g>
        </g>
    </g>
</svg>