<?xml version="1.0" encoding="UTF-8"?>
<svg width="88px" height="90px" viewBox="0 0 88 90" version="1.1" xmlns="http://www.w3.org/2000/svg" xmlns:xlink="http://www.w3.org/1999/xlink">
    <title>3. icons/seal/bloque3/notestadoanimales</title>
    <g id="Yanbal-UI-Visual-Kit" stroke="none" stroke-width="1" fill="none" fill-rule="evenodd">
        <g id="yanbal-styleguide-pag2" transform="translate(-604.000000, -5750.000000)" fill="#1C1F28">
            <g id="Group" transform="translate(600.000000, 5747.000000)">
                <g id="elements" transform="translate(3.999800, 3.000900)">
                    <path d="M86.663,35.3949 L86.676,35.4439 C87.555,38.9399 88,42.5399 88,46.1429 C88,70.3249 68.262,89.9999 44,89.9999 C19.738,89.9999 0,70.3249 0,46.1429 C0,42.5409 0.447,38.9399 1.326,35.4429 L1.326,35.4429 L1.339,35.3949 L1.388,35.4069 L2.18,35.6069 L2.168,35.6549 C1.306,39.0809 0.869,42.6089 0.869,46.1429 C0.869,69.8479 20.218,89.1329 44,89.1329 C67.782,89.1329 87.131,69.8479 87.131,46.1429 C87.131,42.6089 86.695,39.0809 85.833,35.6549 L85.833,35.6549 L85.822,35.6069 L86.663,35.3949 Z M47.3894,78.4309 C48.7684,78.2899 49.8144,79.3329 49.9904,81.0279 C50.0764,81.8579 49.9314,82.5899 49.5714,83.1419 C49.2094,83.6969 48.6574,84.0279 47.9774,84.0979 C47.8934,84.1069 47.8114,84.1109 47.7294,84.1109 C46.4744,84.1109 45.5434,83.0939 45.3774,81.5029 C45.2914,80.6729 45.4354,79.9409 45.7964,79.3879 C46.1584,78.8329 46.7094,78.5019 47.3894,78.4309 Z M38.527,78.3184 L38.576,78.3224 L40.244,78.5064 C41.678,78.6664 42.486,79.8334 42.303,81.4804 C42.122,83.0924 41.297,83.9604 39.964,83.9604 C39.844,83.9604 39.72,83.9534 39.592,83.9404 L39.592,83.9404 L37.919,83.7544 L37.925,83.7044 L38.527,78.3184 Z M34.4377,77.3485 L34.4867,77.3595 L37.6607,78.1705 L37.6487,78.2195 L37.4877,78.8465 L37.4387,78.8345 L34.9707,78.2045 L34.5687,79.7705 L36.8767,80.3585 L36.8657,80.4075 L36.7107,81.0045 L36.6627,80.9925 L34.4037,80.4155 L33.9597,82.1455 L36.4757,82.7865 L36.4637,82.8355 L36.3017,83.4625 L36.2527,83.4505 L33.0797,82.6405 L33.0907,82.5915 L34.4377,77.3485 Z M54.3221,77.1455 L54.3351,77.1935 L55.7241,82.4155 L54.9191,82.6285 L54.8981,82.6075 L51.5311,79.1235 L52.6231,83.2335 L51.9191,83.4215 L51.9061,83.3725 L50.5171,78.1495 L51.3141,77.9395 L51.3341,77.9595 L54.7021,81.4425 L53.6091,77.3335 L53.6581,77.3195 L54.3221,77.1455 Z M47.6314,79.1179 C47.5754,79.1179 47.5194,79.1209 47.4624,79.1269 C47.0614,79.1679 46.7384,79.3369 46.5014,79.6289 C46.1664,80.0409 46.0314,80.6619 46.1114,81.4269 C46.2404,82.6689 46.8564,83.4119 47.7364,83.4119 C47.7924,83.4119 47.8484,83.4089 47.9064,83.4029 C48.3054,83.3619 48.6284,83.1939 48.8654,82.9019 C49.2004,82.4909 49.3354,81.8689 49.2564,81.1029 C49.1284,79.8619 48.5114,79.1179 47.6314,79.1179 Z M39.176,79.0924 L38.725,83.1414 L39.631,83.2404 C40.78,83.3704 41.414,82.7674 41.568,81.3984 C41.641,80.7444 41.544,80.2184 41.282,79.8354 C41.034,79.4744 40.636,79.2534 40.128,79.1974 L40.128,79.1974 L39.176,79.0924 Z M29.9396,75.6407 L29.9856,75.6597 L33.7296,77.1647 L33.7106,77.2107 L33.4666,77.8107 L31.9146,77.1867 L30.1286,81.6027 L29.4436,81.3277 L29.4636,81.2817 L31.2296,76.9117 L29.6776,76.2867 L29.6976,76.2407 L29.9396,75.6407 Z M59.013,75.0994 L59.038,75.1234 L63.234,79.0934 L62.556,79.4334 L62.529,79.4084 L61.732,78.6394 L59.634,79.6924 L59.786,80.8244 L59.108,81.1664 L59.099,81.0964 L58.402,75.4064 L59.013,75.0994 Z M25.555,74.7239 C25.985,73.9719 26.92,73.8099 27.823,74.3229 C28.725,74.8359 29.095,75.7709 28.767,76.7079 L28.767,76.7079 L28.751,76.7539 L28.052,76.5279 L28.066,76.4819 C28.267,75.7989 28.061,75.2599 27.471,74.9269 C26.927,74.6179 26.424,74.6769 26.189,75.0849 C25.997,75.4209 26.149,75.7479 26.835,76.4829 C27.839,77.5809 28.053,78.2669 27.624,79.0159 C27.359,79.4819 26.895,79.7229 26.355,79.7229 C25.989,79.7229 25.591,79.6139 25.194,79.3879 C24.027,78.7239 23.67,77.7279 24.189,76.5849 L24.189,76.5849 L24.208,76.5429 L24.904,76.7949 L24.882,76.8429 C24.513,77.6999 24.724,78.3159 25.546,78.7849 C26.174,79.1389 26.739,79.0929 26.987,78.6629 C27.246,78.2059 27.078,77.7899 26.297,76.9489 C25.373,75.9279 25.186,75.3679 25.555,74.7239 Z M59.18,76.1864 L59.549,79.0064 L61.235,78.1594 L59.18,76.1864 Z M64.4827,71.5987 L64.5117,71.6387 L67.6607,76.0567 L66.9797,76.5377 L66.9537,76.5247 L62.5587,74.4347 L65.0367,77.9137 L64.9967,77.9427 L64.4417,78.3357 L64.4127,78.2957 L61.2637,73.8767 L61.9387,73.4007 L61.9647,73.4137 L66.3587,75.5027 L63.8807,72.0257 L63.9207,71.9967 L64.4827,71.5987 Z M22.9836,71.1342 L25.6356,73.1462 L25.2126,73.7032 L23.1416,72.1322 L22.1586,73.4192 L24.0566,74.8612 L23.6516,75.3922 L21.7526,73.9532 L20.6666,75.3732 L22.7366,76.9452 L22.3126,77.5002 L19.6606,75.4892 L19.6906,75.4492 L22.9836,71.1342 Z M65.961,70.2842 L65.994,70.3212 L69.598,74.3682 L69.052,74.8502 L69.019,74.8132 L65.415,70.7672 L65.961,70.2842 Z M19.4697,67.7725 L19.5047,67.8075 L22.3717,70.6475 L22.3347,70.6825 L21.8767,71.1415 L21.8417,71.1065 L20.6877,69.9625 L17.3147,73.3435 L16.7917,72.8245 L16.8277,72.7895 L20.1657,69.4435 L18.9757,68.2655 L19.0117,68.2305 L19.4697,67.7725 Z M70.3877,65.5848 L70.4257,65.6168 L74.5057,69.1878 L74.0197,69.7418 L73.9817,69.7098 L70.8617,66.9768 L72.8677,71.0488 L72.6457,71.3008 L72.6147,71.2908 L68.3397,69.8458 L71.4937,72.6078 L71.0117,73.1548 L70.9737,73.1228 L66.8947,69.5508 L67.5067,68.8538 L67.5397,68.8658 L71.8037,70.3348 L69.7767,66.2808 L70.3877,65.5848 Z M72.0732,62.8737 L72.1072,62.8807 L77.7612,64.0607 L77.3632,64.7057 L76.2452,64.4607 L75.0172,66.4527 L75.7422,67.3367 L75.3442,67.9797 L75.3002,67.9247 L71.7142,63.4537 L72.0732,62.8737 Z M15.7001,62.5852 L15.7281,62.6262 L17.9771,65.9742 L17.3961,66.3622 L17.3671,66.3212 L16.4631,64.9732 L12.4881,67.6272 L12.0771,67.0162 L12.1191,66.9882 L16.0521,64.3632 L15.1191,62.9742 L15.7001,62.5852 Z M72.7852,63.7087 L74.5842,65.9127 L75.5692,64.3127 L72.7852,63.7087 Z M11.0553,59.3694 C12.5893,58.6294 14.0283,58.9654 14.6313,60.2104 C14.8903,60.7444 14.9293,61.3104 14.7423,61.8444 C14.5043,62.5254 13.9103,63.1224 13.0683,63.5274 C12.5253,63.7884 11.9953,63.9154 11.5103,63.9154 C10.6203,63.9154 9.8813,63.4894 9.4913,62.6864 C9.2323,62.1534 9.1933,61.5874 9.3803,61.0544 C9.6173,60.3724 10.2123,59.7754 11.0553,59.3694 Z M14.0023,60.5144 C13.5773,59.6404 12.5703,59.4564 11.3743,60.0314 C10.6783,60.3674 10.2183,60.8104 10.0443,61.3114 C9.9213,61.6634 9.9473,62.0244 10.1213,62.3824 C10.5443,63.2564 11.5513,63.4414 12.7483,62.8644 C13.4433,62.5294 13.9033,62.0884 14.0783,61.5874 C14.2013,61.2354 14.1763,60.8734 14.0023,60.5144 Z M78.9802,59.6812 L79.6212,59.9662 L78.3322,62.8482 L78.2862,62.8272 L73.3162,60.6192 L73.6142,59.9522 L73.6602,59.9722 L77.9902,61.8962 L78.9802,59.6812 Z M44.1208,30.9862 C52.2878,25.2402 56.6378,27.4082 56.8198,27.5042 L56.8198,27.5042 L57.0148,27.6062 L57.0468,27.8252 C57.0718,27.9982 57.5718,32.1162 51.2408,37.2622 C51.2628,37.2592 51.2868,37.2562 51.3088,37.2542 C51.4078,37.2422 51.5108,37.2292 51.6148,37.2292 C53.9218,37.2292 56.1318,37.9752 58.0088,39.3882 C58.6558,38.2622 59.8278,37.5662 61.0828,37.5662 C63.0558,37.5662 64.6608,39.1662 64.6608,41.1332 C64.6608,42.8172 63.4648,44.2712 61.8098,44.6122 C62.2308,45.8212 62.4448,47.0662 62.4448,48.3122 C62.4448,54.3042 57.8568,59.1642 51.9998,59.3762 L51.9998,59.3762 L51.6518,59.3942 L30.3708,59.3952 L29.9608,59.3952 L29.9368,58.9862 C29.9298,58.8532 29.7878,55.7242 32.0058,52.7252 C31.9318,52.7342 31.8578,52.7452 31.7838,52.7542 C31.5438,52.7882 31.2968,52.8212 31.0628,52.8212 C28.3058,52.8212 26.0228,51.5582 24.9548,49.4432 C23.1658,45.8972 25.3188,40.9982 29.7528,38.5222 C32.2518,37.1282 35.0238,36.7362 37.3608,37.4472 C37.4488,37.4742 37.5298,37.5102 37.6078,37.5442 L37.6078,37.5442 L37.7258,37.5962 C38.9908,35.3042 41.1408,33.0802 44.1208,30.9862 Z M12.1052,53.618 L12.3432,54.406 L12.3222,54.427 L8.9312,57.895 L13.0222,56.676 L13.2342,57.38 L13.1862,57.395 L7.9872,58.943 L7.7492,58.149 L7.7702,58.128 L11.1592,54.66 L7.0692,55.878 L6.8592,55.181 L6.9072,55.167 L12.1052,53.618 Z M51.6148,38.0952 C51.0788,38.0952 50.5208,38.1442 49.9588,38.2412 C49.9018,38.2842 49.8458,38.3262 49.7908,38.3682 C49.6968,38.4392 49.6028,38.5102 49.4978,38.5832 C46.7228,40.5372 44.0728,41.7802 41.6218,42.2812 C42.1088,45.6252 39.9238,49.3692 36.2908,51.3972 C35.3288,51.9352 34.2958,52.3292 33.2228,52.5662 C31.1878,54.8542 30.8538,57.4592 30.8078,58.5292 L30.8078,58.5292 L40.0078,58.5212 C40.2448,54.4922 43.5748,51.3432 47.6098,51.3432 L47.6098,51.3432 L47.6598,51.3432 L47.6598,52.2092 L47.6098,52.2092 C44.0598,52.2092 41.1128,54.9772 40.8778,58.5212 L40.8778,58.5212 L51.9628,58.5122 C57.3538,58.3172 61.5758,53.8372 61.5758,48.3122 C61.5758,42.6782 57.1068,38.0952 51.6148,38.0952 Z M77.173567,53.9711273 L77.3359,53.9818 L77.3849,53.9868 L77.3269,54.7148 L77.2789,54.7118 C76.5709,54.6778 76.0899,54.9958 75.8999,55.6428 C75.7989,55.9828 75.8109,56.2938 75.9329,56.5188 C76.0209,56.6798 76.1629,56.7928 76.3459,56.8468 C76.7159,56.9508 77.0009,56.7338 77.5599,55.9008 C78.3999,54.6788 79.0229,54.3168 79.8459,54.5588 C80.2109,54.6668 80.4989,54.8958 80.6779,55.2228 C80.9109,55.6538 80.9429,56.2218 80.7639,56.8258 C80.4419,57.9148 79.7509,58.4918 78.7929,58.4918 C78.6249,58.4918 78.4489,58.4738 78.2639,58.4378 L78.2639,58.4378 L78.2189,58.4298 L78.2239,58.3838 L78.3059,57.6988 L78.3579,57.7088 C79.2759,57.8698 79.8289,57.5248 80.0959,56.6208 C80.2149,56.2168 80.2039,55.8508 80.0639,55.5938 C79.9729,55.4278 79.8289,55.3118 79.6489,55.2588 C79.1419,55.1098 78.7769,55.3698 78.1359,56.3168 C77.3559,57.4448 76.8479,57.7528 76.1409,57.5438 C75.7809,57.4378 75.4969,57.2128 75.3229,56.8908 C75.1049,56.4928 75.0729,55.9758 75.2319,55.4378 C75.5249,54.4498 76.3529,53.8808 77.3359,53.9818 Z M34.9498,37.9652 C33.3858,37.9652 31.7278,38.4132 30.1768,39.2772 C26.1438,41.5322 24.1488,45.9172 25.7318,49.0542 C26.8888,51.3502 29.6978,52.4122 32.8838,51.7652 C33.9088,51.5542 34.9128,51.1762 35.8678,50.6412 C39.9018,48.3892 41.8958,44.0032 40.3128,40.8652 C39.6848,39.6192 38.5758,38.7232 37.1058,38.2752 C36.4228,38.0682 35.6978,37.9652 34.9498,37.9652 Z M44.0001,10.4291 C63.7581,10.4291 79.8311,26.4511 79.8311,46.1431 C79.8311,47.4731 79.7391,48.8551 79.5411,50.4921 L79.5411,50.4921 L79.5351,50.5411 L78.6721,50.4391 L78.6781,50.3891 C78.8721,48.7961 78.9631,47.4481 78.9631,46.1431 C78.9631,26.9281 63.2781,11.2951 44.0001,11.2951 C24.7221,11.2951 9.0381,26.9281 9.0381,46.1431 C9.0381,47.4291 9.1321,48.8181 9.3231,50.3881 L9.3231,50.3881 L9.3291,50.4381 L8.4671,50.5431 L8.4611,50.4941 C8.2651,48.8871 8.1701,47.4641 8.1701,46.1431 C8.1701,26.4511 24.2431,10.4291 44.0001,10.4291 Z M30.0432,42.942 C30.4152,42.942 30.7182,43.244 30.7182,43.614 C30.7182,43.984 30.4152,44.286 30.0432,44.286 C29.6712,44.286 29.3692,43.984 29.3692,43.614 C29.3692,43.244 29.6712,42.942 30.0432,42.942 Z M61.0828,38.4322 C60.0838,38.4322 59.1468,39.0202 58.6838,39.9342 C59.8708,40.9842 60.8378,42.3082 61.4818,43.7682 C62.8228,43.5662 63.7918,42.4642 63.7918,41.1332 C63.7918,39.6442 62.5768,38.4322 61.0828,38.4322 Z M56.1948,28.1832 C55.3748,27.9052 51.3718,26.9432 44.6198,31.6952 C41.7898,33.6842 39.7448,35.7812 38.5378,37.9302 C39.6758,38.5212 40.5348,39.3762 41.0888,40.4752 C41.2398,40.7732 41.3308,41.0912 41.4208,41.4002 L41.4208,41.4002 L41.4318,41.4372 C43.7668,40.9622 46.3128,39.7642 48.9988,37.8752 C51.8738,35.8532 53.9378,33.7332 55.1328,31.5762 C56.0648,29.8942 56.1878,28.6662 56.1948,28.1832 Z M3.222,24.2385 L3.267,24.2605 L8.155,26.6335 L8.133,26.6785 L7.79,27.3805 L7.761,27.3825 L2.901,27.6485 L6.747,29.5165 L6.426,30.1715 L6.381,30.1505 L1.493,27.7755 L1.516,27.7315 L1.855,27.0365 L1.884,27.0345 L6.745,26.7695 L2.899,24.9005 L3.222,24.2385 Z M83.7892,25.2623 C84.5732,24.8903 85.4332,25.2863 85.8832,26.2263 C86.3292,27.1593 86.0972,28.1393 85.2912,28.7213 L85.2912,28.7213 L85.2522,28.7493 L84.8062,28.1663 L84.8442,28.1363 C85.4002,27.6913 85.5402,27.1313 85.2482,26.5193 C84.9772,25.9523 84.5292,25.7193 84.1042,25.9203 C83.7542,26.0863 83.6902,26.4413 83.8342,27.4373 C84.0292,28.9093 83.8112,29.5953 83.0292,29.9663 C82.8272,30.0623 82.6212,30.1093 82.4182,30.1093 C81.7932,30.1093 81.1952,29.6693 80.8202,28.8863 C80.2422,27.6773 80.5202,26.6573 81.6032,26.0133 L81.6032,26.0133 L81.6432,25.9903 L82.0672,26.5923 L82.0222,26.6193 C81.2282,27.1143 81.0482,27.7403 81.4562,28.5933 C81.7622,29.2343 82.2642,29.5213 82.7072,29.3123 C83.1842,29.0853 83.2852,28.6493 83.1242,27.5123 L83.1242,27.5123 C82.9502,26.1483 83.1182,25.5793 83.7892,25.2623 Z M82.506,20.5133 L82.532,20.5553 L84.257,23.3333 L83.662,23.7003 L83.637,23.6583 L82.294,21.4973 L80.916,22.3493 L82.17,24.3693 L81.6,24.7203 L81.574,24.6783 L80.346,22.7003 L78.824,23.6393 L80.192,25.8423 L79.596,26.2083 L79.57,26.1663 L77.844,23.3863 L77.887,23.3603 L82.506,20.5133 Z M5.258,20.7006 C6.018,19.5456 7.488,19.3976 8.915,20.3336 C9.696,20.8456 10.206,21.5166 10.353,22.2226 C10.467,22.7756 10.355,23.3306 10.029,23.8266 C9.601,24.4746 8.949,24.8056 8.209,24.8056 C7.629,24.8056 6.995,24.6036 6.369,24.1926 C5.589,23.6816 5.078,23.0106 4.933,22.3056 C4.819,21.7506 4.931,21.1956 5.258,20.7006 Z M7.044,20.4376 C6.546,20.4376 6.126,20.6536 5.843,21.0836 C5.622,21.4166 5.549,21.7706 5.624,22.1366 C5.732,22.6556 6.129,23.1546 6.776,23.5786 C7.885,24.3066 8.907,24.2546 9.444,23.4436 C9.663,23.1096 9.737,22.7546 9.66,22.3886 C9.553,21.8696 9.155,21.3716 8.51,20.9486 C7.989,20.6066 7.486,20.4376 7.044,20.4376 Z M79.7207,16.7891 L79.7507,16.8291 L80.1687,17.3651 L80.1287,17.3951 L76.3957,20.2891 L77.8867,22.2021 L77.8467,22.2321 L77.3337,22.6301 L77.3037,22.5901 L75.3947,20.1431 L75.4347,20.1131 L79.7207,16.7891 Z M76.9712,13.7717 L76.9952,13.7967 L77.4492,14.2617 L77.4342,14.2937 L74.8922,19.4787 L74.3612,18.9347 L74.3772,18.9027 L74.8752,17.9127 L73.2342,16.2327 L72.1952,16.7187 L72.1702,16.6927 L71.6642,16.1737 L71.7302,16.1437 L76.9712,13.7717 Z M11.7165,13.0323 L12.2265,13.5103 L12.1915,13.5463 L11.0765,14.7263 L14.5575,17.9973 L14.0515,18.5323 L14.0155,18.4983 L10.5695,15.2613 L9.4185,16.4783 L8.9105,16.0003 L11.7165,13.0323 Z M76.4592,14.7447 L73.8672,15.9457 L75.1852,17.2957 L76.4592,14.7447 Z M15.3925,9.8408 L15.8455,10.3718 L13.8645,12.0518 L14.9165,13.2838 L16.7335,11.7438 L17.1665,12.2538 L15.3495,13.7928 L16.5105,15.1538 L18.4925,13.4738 L18.9465,14.0078 L16.4065,16.1578 L16.3745,16.1198 L12.8545,11.9908 L15.3925,9.8408 Z M70.2675,8.0782 L70.3065,8.1092 L71.0025,8.6472 L70.9925,8.6792 L69.7735,13.0112 L73.7155,10.7502 L74.4495,11.3192 L74.4185,11.3582 L71.0845,15.6322 L71.0455,15.6012 L70.5015,15.1802 L70.5325,15.1412 L73.0815,11.8732 L69.1235,14.1112 L68.8575,13.9072 L68.8665,13.8732 L70.0595,9.5292 L67.4795,12.8372 L66.9025,12.3912 L66.9335,12.3522 L70.2675,8.0782 Z M18.0027,7.8438 C18.8617,7.2628 19.8657,7.3448 20.5617,8.0528 L20.5617,8.0528 L20.5967,8.0878 L20.0867,8.6118 L20.0507,8.5798 C19.5267,8.0998 18.9517,8.0488 18.3897,8.4258 C18.0937,8.6248 17.9047,8.8738 17.8567,9.1268 C17.8227,9.3048 17.8607,9.4828 17.9667,9.6388 C18.1857,9.9588 18.5447,9.9668 19.5097,9.6788 C20.9387,9.2658 21.6497,9.3788 22.1337,10.0908 C22.3477,10.4048 22.4237,10.7638 22.3537,11.1308 C22.2607,11.6118 21.9207,12.0718 21.3967,12.4258 C20.9157,12.7508 20.4447,12.9128 20.0017,12.9128 C19.4207,12.9128 18.8867,12.6368 18.4347,12.0878 L18.4347,12.0878 L18.4047,12.0518 L18.9367,11.5428 L18.9707,11.5828 C19.5807,12.2888 20.2277,12.3738 21.0107,11.8448 C21.3627,11.6068 21.5867,11.3178 21.6427,11.0288 C21.6787,10.8418 21.6417,10.6648 21.5347,10.5068 C21.2377,10.0718 20.7917,10.0378 19.6907,10.3658 L19.6907,10.3658 C18.3687,10.7408 17.7797,10.6608 17.3637,10.0488 C17.1527,9.7388 17.0777,9.3868 17.1457,9.0278 C17.2317,8.5808 17.5357,8.1598 18.0027,7.8438 Z M67.9887,6.6944 L68.0317,6.7204 L68.6107,7.0764 L68.5827,7.1194 L65.7257,11.7224 L65.6827,11.6964 L65.1037,11.3404 L65.1307,11.2974 L67.9887,6.6944 Z M62.811,3.9413 L63.55,4.3083 L63.551,4.3373 L63.777,9.1863 L65.683,5.3653 L66.345,5.6953 L63.899,10.5913 L63.154,10.2193 L63.153,10.1903 L62.927,5.3443 L61.02,9.1613 L60.365,8.8363 L62.811,3.9413 Z M24.5019,4.2501 L24.8249,4.8701 L24.7809,4.8921 L23.3359,5.6401 L25.5409,9.8751 L24.8859,10.2131 L24.8639,10.1691 L22.6799,5.9791 L21.1909,6.7501 L20.8679,6.1301 L20.9119,6.1081 L24.5019,4.2501 Z M27.2848,3.1125 L27.3068,3.1395 L31.1398,7.4725 L30.4318,7.7515 L30.4088,7.7255 L29.6808,6.8855 L27.4938,7.7525 L27.5438,8.8965 L27.5108,8.9095 L26.8368,9.1765 L26.8348,9.1065 L26.6468,3.3655 L26.6788,3.3525 L27.2848,3.1125 Z M58.9947,2.5079 L59.6397,2.7339 L59.6397,2.7689 L59.6727,8.5289 L58.9567,8.2779 L58.9617,7.1349 L56.7477,6.3589 L56.0337,7.2519 L55.3177,7.0009 L55.3627,6.9459 L58.9947,2.5079 Z M32.2079,1.5265 C33.6029,1.1655 34.7749,1.9665 35.1939,3.5695 C35.4309,4.4835 35.3819,5.2335 35.0489,5.8015 C34.7539,6.3015 34.2469,6.6485 33.5419,6.8305 L33.5419,6.8305 L31.9159,7.2515 L31.9039,7.2035 L30.5369,1.9595 L30.5849,1.9465 Z M27.3518,4.2105 L27.4698,7.0605 L29.2278,6.3625 L27.3518,4.2105 Z M58.9697,3.6039 L57.1857,5.8219 L58.9637,6.4469 L58.9697,3.6039 Z M34.4779,3.7555 C34.1539,2.5085 33.3789,1.9425 32.3469,2.2125 L32.3469,2.2125 L31.4199,2.4515 L32.4479,6.3925 L33.3289,6.1635 C33.8489,6.0295 34.2009,5.7965 34.4029,5.4515 C34.6409,5.0475 34.6659,4.4765 34.4779,3.7555 Z M49.5904,0.3059 L50.4044,0.4389 L50.4144,0.4669 L52.0704,5.0269 L52.7564,0.8189 L53.4854,0.9369 L53.4774,0.9859 L52.6064,6.3329 L51.7844,6.1989 L51.7744,6.1709 L50.1174,1.6129 L49.4324,5.8189 L48.7124,5.7029 L48.7204,5.6539 L49.5904,0.3059 Z M38.2499,0.2667 C39.6159,0.0987 40.6869,1.1177 40.8959,2.8067 C40.9969,3.6347 40.8669,4.3677 40.5189,4.9257 C40.1669,5.4867 39.6239,5.8277 38.9469,5.9107 C38.8479,5.9227 38.7499,5.9287 38.6539,5.9287 C37.4219,5.9287 36.4929,4.9367 36.2999,3.3697 C36.1989,2.5427 36.3279,1.8097 36.6769,1.2517 C37.0289,0.6907 37.5729,0.3507 38.2499,0.2667 Z M44.6127,0 L44.6627,0.002 L47.9377,0.151 L47.9067,0.847 L47.8567,0.845 L45.3107,0.729 L45.2367,2.344 L47.6177,2.454 L47.6147,2.504 L47.5857,3.119 L47.5367,3.117 L45.2057,3.01 L45.1237,4.794 L47.7187,4.913 L47.6877,5.609 L47.6377,5.607 L44.3627,5.458 L44.3647,5.408 L44.6127,0 Z M38.5329,0.9447 C38.4679,0.9447 38.4029,0.9487 38.3349,0.9577 C37.8619,1.0167 37.4909,1.2607 37.2619,1.6637 C37.0309,2.0717 36.9509,2.6317 37.0319,3.2807 C37.1929,4.5947 37.8899,5.3417 38.8619,5.2197 C39.3339,5.1607 39.7049,4.9167 39.9329,4.5137 C40.1639,4.1047 40.2429,3.5457 40.1629,2.8957 C40.0129,1.6737 39.3959,0.9447 38.5329,0.9447 Z" id="Fill-83"></path>
                </g>
            </g>
        </g>
    </g>
</svg>