<?xml version="1.0" encoding="UTF-8"?>
<svg width="88px" height="90px" viewBox="0 0 88 90" version="1.1" xmlns="http://www.w3.org/2000/svg" xmlns:xlink="http://www.w3.org/1999/xlink">
    <title>3. icons/seal/bloque3/notestatosuanimali</title>
    <g id="Yanbal-UI-Visual-Kit" stroke="none" stroke-width="1" fill="none" fill-rule="evenodd">
        <g id="yanbal-styleguide-pag2" transform="translate(-724.000000, -5750.000000)" fill="#1D1F28">
            <g id="Group" transform="translate(720.000000, 5747.000000)">
                <g id="elements" transform="translate(4.000000, 3.000000)">
                    <path d="M57.4207502,75.953 L58.7254799,79.381 C58.9432694,79.95 58.9502948,80.457 58.7465563,80.888 C58.5428177,81.316 58.1393552,81.648 57.5472086,81.873 C56.9590767,82.094 56.4381884,82.11 56.0086313,81.923 C55.5750596,81.733 55.2458663,81.349 55.0290804,80.779 L55.0290804,80.779 L53.7223435,77.352 L54.4098357,77.091 L55.6985071,80.477 C55.8480492,80.869 56.0618241,81.13 56.3338101,81.252 C56.6007778,81.373 56.924953,81.36 57.2973027,81.218 C57.6806925,81.072 57.9366202,80.862 58.0570568,80.592 C58.1784971,80.323 58.1664534,79.994 58.0209259,79.615 L58.0209259,79.615 L56.7262326,76.215 L57.4207502,75.953 Z M29.9291933,75.6639 L33.724953,77.1879 L33.4609961,77.8379 L31.9294442,77.2229 L31.9063606,77.2139 L30.1198846,81.6309 L29.4313888,81.3549 L31.2098357,76.9599 L31.2188684,76.9369 L29.6652365,76.3129 L29.9291933,75.6639 Z M61.832543,73.4853 L66.4412495,77.0383 L65.7969138,77.4493 L64.9107013,76.7513 L64.8956467,76.7403 L62.9305231,77.9893 L62.9164722,77.9993 L63.1824363,79.1113 L62.5381006,79.5213 L61.2524401,73.8533 L61.832543,73.4853 Z M62.1105507,74.5553 L62.7538828,77.2863 L62.7619119,77.3203 L64.320562,76.3303 L64.3506712,76.3103 L62.1667545,74.5993 L62.1105507,74.5553 Z M66.9318279,69.478 L70.5318781,73.605 L69.899586,74.152 L65.3922469,72.526 L65.3019195,72.493 L68.1040773,75.707 L67.550069,76.188 L63.9500188,72.06 L64.576289,71.518 L69.0836282,73.144 L69.1749592,73.177 L66.3717978,69.963 L66.9318279,69.478 Z M44.1338853,31.02 C52.0540306,25.4473478 56.3782379,27.322419 56.7876591,27.5236925 L56.8138502,27.537 L56.997516,27.634 L57.0276251,27.839 C57.0310124,27.8631875 57.0438272,27.9650923 57.0457312,28.1366914 L57.0451609,28.2613279 C57.0219022,29.4519329 56.4635334,32.9976406 51.21656,37.26 L51.21656,37.26 L51.1573454,37.307 L51.2326182,37.305 C51.2938402,37.302 51.3540585,37.294 51.4122695,37.287 C51.4795132,37.278 51.5497679,37.27 51.6180153,37.27 C53.9213649,37.27 56.1283653,38.015 58.0031615,39.425 L58.0031615,39.425 L58.0262451,39.442 L58.0392924,39.418 C58.6826245,38.301 59.8528666,37.606 61.0933634,37.606 C63.0524652,37.606 64.6462426,39.195 64.6462426,41.147 C64.6462426,42.813 63.4549241,44.267 61.8139757,44.604 L61.8139757,44.604 L61.7858738,44.609 L61.7959102,44.636 C62.2154309,45.845 62.4282022,47.087 62.4282022,48.328 C62.4282022,54.309 57.8486012,59.158 52.0034124,59.369 L52.0034124,59.369 L51.6541463,59.386 L29.976565,59.387 L29.954485,59.005 C29.9542892,59.001878 29.9526127,58.9684884 29.9518124,58.9079734 L29.951564,58.7972498 C29.9573855,58.0372713 30.1205259,55.3208049 32.0199724,52.753 L32.0199724,52.753 L32.0530925,52.708 L31.9978924,52.714 C31.8834776,52.725 31.7680592,52.74 31.6546481,52.756 C31.4549241,52.783 31.2481746,52.812 31.0544725,52.812 C28.3055075,52.812 26.0302597,51.554 24.9674068,49.447 C23.1839418,45.915 25.3327312,41.03 29.7567683,38.559 C32.2528165,37.167 35.0198469,36.779 37.3472839,37.486 C37.4205495,37.509 37.4898005,37.54 37.5570443,37.569 C37.6082298,37.593 37.6614227,37.616 37.7156191,37.636 L37.7156191,37.636 L37.7366955,37.644 L37.7467319,37.624 C39.0093087,35.334 41.1580981,33.111 44.1338853,31.02 Z M51.6180153,38.081 C51.0800652,38.081 50.5210388,38.131 49.9539832,38.231 L49.9539832,38.231 L49.9439468,38.234 C49.8787103,38.282 49.8164848,38.329 49.7552628,38.377 C49.6699536,38.441 49.5816334,38.508 49.4862878,38.575 C46.7142391,40.524 44.0636307,41.767 41.6087317,42.268 L41.6087317,42.268 L41.585648,42.272 L41.5886589,42.296 C42.076427,45.631 39.8894994,49.371 36.2723874,51.391 C35.3169238,51.926 34.2871911,52.317 33.2112909,52.556 L33.2112909,52.556 L33.2032618,52.558 C31.1427926,54.872 30.8166102,57.519 30.7714465,58.549 L30.7714465,58.549 L30.7704429,58.575 L40.0089324,58.567 L40.0330197,58.567 L40.0340233,58.543 C40.267871,54.539 43.5838916,51.4 47.5864007,51.388 L47.5864007,51.388 L47.5864007,52.2 C44.040547,52.214 41.0838289,54.993 40.8489775,58.54 L40.8489775,58.54 L40.8479739,58.567 L51.9662778,58.559 C57.3758876,58.362 61.6122444,53.869 61.6122444,48.328 C61.6122444,42.679 57.1289926,38.081 51.6180153,38.081 Z M37.108418,38.264 C34.9917451,37.614 32.456555,37.981 30.1552126,39.268 C26.1055326,41.527 24.104278,45.931 25.6950445,49.083 C26.6354535,50.945 28.6417263,52.002 31.0534688,52.002 C31.6416008,52.002 32.2548237,51.939 32.8820976,51.81 C33.9048049,51.6 34.911454,51.221 35.8729394,50.682 C39.9236231,48.423 41.9248777,44.02 40.3341112,40.867 C39.7018191,39.613 38.5867771,38.714 37.108418,38.264 Z M30.0627776,42.9736 C30.4090327,42.9736 30.6910551,43.2536 30.6910551,43.6006 C30.6910551,43.9466 30.4090327,44.2266 30.0627776,44.2266 C29.7155188,44.2266 29.4345001,43.9466 29.4345001,43.6006 C29.4345001,43.2536 29.7155188,42.9736 30.0627776,42.9736 Z M61.0933634,38.419 C60.0716598,38.419 59.1432944,39.002 58.6685736,39.939 L58.6685736,39.939 L58.6605445,39.957 L58.6745954,39.97 C59.8578848,41.017 60.8233848,42.339 61.4657132,43.793 L61.4657132,43.793 L61.474746,43.811 L61.4938151,43.808 C62.847723,43.604 63.8302848,42.484 63.8302848,41.147 C63.8302848,39.643 62.6028353,38.419 61.0933634,38.419 Z M56.2116673,28.169 C55.1678836,27.813 51.2446619,27.013 44.6045916,31.684 C41.7733283,33.673 39.7238991,35.774 38.5125078,37.929 L38.5125078,37.929 L38.5004642,37.952 L38.5225442,37.964 C39.6546481,38.551 40.5087442,39.404 41.0627525,40.503 C41.19724,40.768 41.2815456,41.056 41.3638439,41.334 L41.3638439,41.334 L41.4070004,41.481 L41.4300841,41.477 C43.7755865,41.001 46.3278384,39.802 49.0165851,37.911 C55.6506335,33.247 56.2136746,29.293 56.2287291,28.192 L56.2287291,28.192 L56.2287291,28.175 Z M3.19508217,24.2449 L8.13498934,26.6439 L7.76765776,27.3929 L2.97628905,27.6529 L2.87893614,27.6589 L6.72487768,29.5259 L6.40170618,30.1869 L1.4638063,27.7859 L1.82611968,27.0449 L6.6174884,26.7839 L6.7148413,26.7779 L2.8699034,24.9109 L3.19508217,24.2449 Z M7.04303099,19.7281 C7.64220299,19.7281 8.27650232,19.9381 8.89373981,20.3411 C9.5952829,20.8011 10.072011,21.3781 10.2727387,22.0091 C10.4724627,22.6381 10.3811316,23.2701 10.0057709,23.8371 C9.58926107,24.4681 8.94291808,24.8161 8.18617488,24.8161 C7.59202108,24.8161 6.95471083,24.6031 6.34449881,24.2031 C5.64295571,23.7441 5.16622757,23.1711 4.96650358,22.5431 C4.76376866,21.9111 4.85509974,21.2771 5.23146406,20.7081 C5.60682474,20.1391 6.15581483,19.8041 6.81721239,19.7381 C6.89148162,19.7321 6.96675449,19.7281 7.04303099,19.7281 Z M7.01794003,20.4441 C6.98783089,20.4441 6.95872538,20.4451 6.92861623,20.4471 C6.46393175,20.4731 6.08054196,20.6951 5.8185924,21.0931 C5.55664283,21.4901 5.50345001,21.9301 5.66403212,22.3641 C5.8266215,22.8041 6.20298582,23.2261 6.75197591,23.5871 C7.2668423,23.9251 7.76565048,24.0981 8.21226948,24.0981 C8.32266968,24.0981 8.43005896,24.0881 8.5334337,24.0661 C8.78333961,24.0141 8.99109271,23.8791 9.17576214,23.7061 C9.17977669,23.7021 9.18278761,23.6971 9.18680216,23.6931 C9.26709321,23.6161 9.35541337,23.5511 9.41964622,23.4521 C9.95358173,22.6411 9.59628654,21.6861 8.48525906,20.9581 C7.97340359,20.6221 7.46556266,20.4441 7.01794003,20.4441 Z M11.6951951,13.0348 L12.2090578,13.5168 L11.073943,14.7148 L11.0568812,14.7338 L14.541513,18.0058 L14.0316648,18.5438 L10.5661021,15.2878 L10.5480366,15.2718 L9.39585999,16.4878 L8.88400452,16.0068 L11.6951951,13.0348 Z M15.3742316,9.8437 L15.8298833,10.3767 L13.866767,12.0397 L13.8476979,12.0567 L14.8804416,13.2697 L14.8975035,13.2877 L16.7150922,11.7467 L17.1506712,12.2587 L15.3521515,13.7827 L15.3330824,13.7987 L16.4762263,15.1407 L16.4922845,15.1587 L18.47447,13.4797 L18.9331326,14.0127 L16.3889098,16.1667 L12.8310124,11.9967 L15.3742316,9.8437 Z M17.9856982,7.8467 C18.8458161,7.2707 19.8514615,7.3527 20.5469828,8.0567 L20.5469828,8.0567 L20.5841174,8.0927 L20.0712583,8.6187 L20.0341237,8.5847 C19.5072136,8.1067 18.932129,8.0527 18.3741061,8.4317 C18.1171748,8.6047 17.9425417,8.8117 17.8672688,9.0297 C17.7940033,9.2437 17.8231088,9.4567 17.9515745,9.6437 C18.1673567,9.9627 18.5296701,9.9717 19.4931627,9.6837 C20.9243508,9.2687 21.6359302,9.3817 22.1216911,10.0957 C22.3695898,10.4587 22.4308117,10.8897 22.2963242,11.3117 C22.160833,11.7337 21.844687,12.1207 21.3820098,12.4337 C20.9022707,12.7577 20.4325681,12.9207 19.9849454,12.9207 C19.3958098,12.9207 18.8688998,12.6427 18.4162589,12.0947 L18.4162589,12.0947 L18.3861498,12.0577 L18.9200853,11.5447 L18.9552126,11.5867 C19.564421,12.2947 20.2117677,12.3767 20.9946054,11.8487 C21.3458788,11.6127 21.5696901,11.3237 21.6258939,11.0337 C21.6620248,10.8457 21.6258939,10.6697 21.5175009,10.5127 C21.2244386,10.0787 20.7748087,10.0457 19.6738176,10.3707 C18.3500188,10.7497 17.7608832,10.6687 17.3433697,10.0547 C16.8566052,9.3387 17.120562,8.4317 17.9856982,7.8467 Z M27.2715594,3.1144 L31.1335592,7.4774 L30.4219797,7.7594 L29.6822983,6.9054 L29.6702547,6.8914 L27.5003889,7.7524 L27.4833271,7.7584 L27.5345126,8.9024 L26.8239368,9.1834 L26.6322419,3.3674 L27.2715594,3.1144 Z M27.3428177,4.2194 L27.461247,7.0614 L29.1814829,6.3794 L29.2146029,6.3664 L27.3899887,4.2744 L27.3428177,4.2194 Z M49.5917702,0.3068 L50.4097353,0.4398 L52.0406473,4.9328 L52.074771,5.0228 L52.7592523,0.8188 L53.4919082,0.9388 L52.6127211,6.3388 L51.7877305,6.2038 L50.1538076,1.7118 L50.1216911,1.6218 L49.4382135,5.8238 L48.7125831,5.7078 L49.5917702,0.3068 Z M38.5343872,0.25 C39.7688621,0.25 40.701242,1.243 40.8939405,2.81 C40.9963116,3.64 40.864835,4.376 40.512558,4.937 C40.160281,5.494 39.6183164,5.833 38.9428679,5.916 C38.8415004,5.929 38.7431439,5.935 38.6508092,5.935 C37.4103124,5.935 36.484958,4.93 36.2932631,3.374 C36.190892,2.544 36.3203613,1.812 36.6696274,1.255 C37.0219044,0.691 37.5658763,0.351 38.2443357,0.268 C38.3436959,0.256 38.4400452,0.25 38.5343872,0.25 Z M38.529369,0.949 C38.4691507,0.949 38.4039142,0.954 38.3306486,0.963 C37.8569314,1.021 37.4855852,1.264 37.258763,1.667 C37.0279262,2.074 36.9476352,2.634 37.0279262,3.283 C37.178472,4.505 37.8007276,5.233 38.6688747,5.233 C38.7300966,5.233 38.7933258,5.23 38.856555,5.222 C39.8220549,5.103 40.3218668,4.213 40.1592774,2.9 C40.0789863,2.251 39.8652114,1.728 39.5420399,1.387 C39.2690503,1.101 38.9197842,0.949 38.529369,0.949 Z M85.7528541,32.396 C87.2432568,36.886 88,41.516 88,46.159 C88,70.333 68.2614477,90 43.9994982,90 C19.7385523,90 0,70.333 0,46.159 C0,41.514 0.755739556,36.885 2.2471459,32.396 L2.2471459,32.396 L3.01994731,32.652 C1.55664283,37.06 0.814954209,41.604 0.814954209,46.159 C0.814954209,69.886 20.1871785,89.189 43.9994982,89.189 C67.8118178,89.189 87.1850458,69.886 87.1850458,46.159 C87.1850458,41.604 86.4433572,37.061 84.9800527,32.652 L84.9800527,32.652 Z M44.2004265,78.6378 C44.8678459,78.6378 45.4409233,78.9018 45.8584368,79.4008 C46.2809685,79.9048 46.5118053,80.6128 46.5248526,81.4488 C46.5378999,82.2838 46.3301468,82.9998 45.921666,83.5178 C45.5121817,84.0388 44.9340861,84.3208 44.2496048,84.3308 L44.2496048,84.3308 L44.2114666,84.3308 C43.5430435,84.3308 42.9699661,84.0688 42.5534563,83.5698 C42.1309246,83.0648 41.9010915,82.3558 41.8870405,81.5208 C41.8599423,79.8188 42.7752603,78.6598 44.1612847,78.6378 L44.1612847,78.6378 Z M37.5402835,78.1753 L41.6010036,78.7193 L41.5076653,79.4153 L39.8697278,79.1963 L39.8446368,79.1923 L39.2053193,83.9193 L38.4716598,83.8193 L39.1059591,79.1183 L39.10897,79.0933 L37.4469452,78.8703 L37.5402835,78.1753 Z M44.1984193,79.3388 L44.1723247,79.3388 C43.6966002,79.3458 43.3021704,79.5478 43.0311881,79.9248 C42.7581985,80.3068 42.6176891,80.8548 42.6287291,81.5078 C42.6477983,82.8178 43.256003,83.6308 44.2134738,83.6308 L44.2134738,83.6308 L44.2395684,83.6308 C45.2120938,83.6148 45.8042404,82.7838 45.783164,81.4608 C45.7640948,80.1518 45.1558901,79.3388 44.1984193,79.3388 L44.1984193,79.3388 Z M35.2956467,77.5956 L35.9600552,77.7716 L36.4568561,83.5466 L35.719182,83.3526 L35.6338728,82.2316 L35.6318655,82.2136 L33.3827123,81.6196 L33.3656505,81.6166 L32.7253293,82.5636 L31.9876553,82.3686 L35.2956467,77.5956 Z M50.8677958,77.9227 C51.8814703,77.7047 52.7807301,78.1547 53.1641199,79.0737 L53.1641199,79.0737 L53.1831891,79.1177 L52.5097478,79.4157 L52.4876678,79.3707 C52.1815581,78.7317 51.6676954,78.4717 51.0073015,78.6087 C50.70621,78.6727 50.4663405,78.7987 50.3137875,78.9747 C50.1662527,79.1447 50.1130598,79.3527 50.1612345,79.5747 C50.2435328,79.9497 50.5737298,80.0927 51.5753607,80.1837 C53.055727,80.3347 53.6739681,80.7047 53.8556266,81.5467 C53.9479614,81.9757 53.8425794,82.3987 53.5615607,82.7387 C53.2765274,83.0787 52.8379375,83.3207 52.292962,83.4377 C52.0601179,83.4877 51.8332957,83.5127 51.6175135,83.5127 C50.6540208,83.5127 49.9805796,82.9957 49.671459,82.0177 L49.671459,82.0177 L49.6564045,81.9717 L50.3449003,81.6977 L50.3629658,81.7487 C50.6610463,82.6307 51.2321164,82.9487 52.1534563,82.7517 C52.856003,82.6007 53.2434074,82.1897 53.1400326,81.7077 C53.0296324,81.1977 52.6261699,80.9987 51.4840296,80.8937 C50.1150671,80.7457 49.6012044,80.4507 49.4446368,79.7287 C49.2629783,78.8837 49.8480994,78.1417 50.8677958,77.9227 Z M35.3578723,78.6986 L33.7821603,81.0146 L33.7620876,81.0426 L35.5455526,81.5146 L35.5796763,81.5236 L35.3638941,78.7696 L35.3578723,78.6986 Z M26.3156944,74.0893 C26.7603061,73.9703 27.2721616,74.0583 27.7589261,74.3353 C28.6561786,74.8473 29.0235102,75.7823 28.6943169,76.7163 L28.6943169,76.7163 L28.677255,76.7633 L27.9777192,76.5373 L27.9917702,76.4893 C28.1924978,75.8093 27.9887593,75.2733 27.4026346,74.9393 C27.1326559,74.7853 26.868699,74.7203 26.6418768,74.7503 C26.4170618,74.7783 26.2384143,74.8973 26.1260068,75.0933 C25.9353155,75.4273 26.0848576,75.7533 26.7683352,76.4863 C27.7679589,77.5843 27.9797265,78.2683 27.5501694,79.0163 C27.3303726,79.3973 26.9690629,79.6413 26.5334839,79.7063 C26.4521892,79.7173 26.3688872,79.7223 26.2855852,79.7223 C25.9162464,79.7223 25.5137875,79.6053 25.1223686,79.3833 C23.9581483,78.7183 23.6048676,77.7243 24.1247522,76.5833 L24.1247522,76.5833 L24.1458286,76.5393 L24.8413499,76.7933 L24.8182662,76.8433 C24.4489274,77.6973 24.6586877,78.3113 25.4786601,78.7783 C25.7917953,78.9573 26.0888722,79.0423 26.3427926,79.0103 C26.5947058,78.9883 26.7914189,78.8663 26.9098482,78.6603 C27.1707941,78.2073 27.0041902,77.7923 26.2273742,76.9523 C25.307038,75.9333 25.1213649,75.3723 25.4907038,74.7313 C25.6763769,74.4063 25.9624137,74.1843 26.3156944,74.0893 Z M22.9228955,71.1386 L25.5674821,73.1546 L25.1409359,73.7086 L23.0995358,72.1546 L23.0784594,72.1386 L22.1129595,73.3986 L22.0979049,73.4186 L23.9897629,74.8596 L23.5802785,75.3906 L21.7094969,73.9666 L21.6894242,73.9516 L20.6205495,75.3436 L20.6054949,75.3646 L22.6669678,76.9346 L22.2404215,77.4916 L19.5958349,75.4756 L22.9228955,71.1386 Z M19.4534186,67.7913 L22.3589512,70.6703 L21.8621503,71.1673 L20.6909045,70.0063 L20.672839,69.9883 L17.2976038,73.3703 L16.7716974,72.8473 L20.1288671,69.4833 L20.1469326,69.4663 L18.9566177,68.2873 L19.4534186,67.7913 Z M68.2720863,68.0206 L72.28965,71.7336 L71.7908418,72.2696 L67.7732781,68.5566 L68.2720863,68.0206 Z M72.2103626,62.8563 L76.6895998,66.0253 L76.259039,66.6283 L72.9349893,64.2753 L72.8316146,64.2033 L75.2483754,68.0473 L75.0506586,68.3223 L70.7380253,67.3443 L70.6155815,67.3173 L74.0409986,69.7403 L73.6144524,70.3373 L69.1362188,67.1693 L69.6771798,66.4103 L74.0490277,67.4303 L74.109246,67.4443 L71.6694016,63.6143 L72.2103626,62.8563 Z M15.5681345,62.4099 L16.0227826,63.0989 L13.7605821,67.4179 L17.3285159,65.0779 L17.7369966,65.6959 L13.153381,68.6979 L12.6937147,68.0039 L14.9107515,63.7719 L14.9559152,63.6859 L11.3889851,66.0249 L10.9845189,65.4139 L15.5681345,62.4099 Z M73.6144524,60.0209 L79.4094593,60.6339 L79.0762514,61.3179 L77.9551876,61.1899 L77.9371221,61.1869 L76.9234475,63.2779 L76.9154184,63.2939 L77.7283653,64.1019 L77.3961611,64.7869 L73.3153682,60.6389 L73.6144524,60.0209 Z M12.2202986,58.2389 C13.145653,58.2389 13.9054071,58.6869 14.2847823,59.5229 C14.8558525,60.7819 14.1924476,62.1019 12.6337975,62.8039 C12.1139129,63.0369 11.6090829,63.1549 11.1333584,63.1549 C10.9105507,63.1549 10.6927613,63.1279 10.4870154,63.0739 C9.84368335,62.9069 9.35390792,62.4909 9.07188559,61.8679 C8.49981182,60.6089 9.16321666,59.2899 10.7218668,58.5879 C11.2457659,58.3529 11.7536068,58.2389 12.2202986,58.2389 Z M74.414352,60.7869 L76.4015556,62.7719 L76.4266466,62.7969 L77.2305608,61.1389 L77.2456154,61.1079 L74.4856103,60.7959 L74.414352,60.7869 Z M12.6468448,58.9999 C12.1791494,58.9009 11.6241375,58.9929 11.0279764,59.2629 C10.3254297,59.5779 9.85472337,60.0069 9.66704303,60.5049 C9.57671559,60.7419 9.58173378,60.9899 9.62890478,61.2379 C9.63091206,61.2439 9.63191569,61.2489 9.63392297,61.2549 C9.65600301,61.3629 9.66503575,61.4729 9.71321039,61.5799 C9.96713085,62.1389 10.4609208,62.4289 11.0952202,62.4289 C11.4655627,62.4289 11.8820725,62.3299 12.3276879,62.1299 C12.920838,61.8619 13.356417,61.5069 13.5872538,61.1009 C13.8211015,60.6919 13.8401706,60.2459 13.6424539,59.8129 C13.4467444,59.3789 13.1035002,59.0979 12.6468448,58.9999 Z M80.1904905,56.1309 L80.8579099,56.3499 L79.8683227,59.3449 L74.6574332,57.6349 L74.88827,56.9409 L79.4076527,58.4229 L79.4317401,58.4309 L80.1904905,56.1309 Z M11.9180028,52.8442 L12.1367959,53.6402 L8.64012044,57.0492 L12.7630661,55.9272 L12.9577719,56.6402 L7.66358048,58.0802 L7.44177644,57.2762 L10.9384519,53.8682 L6.81650985,54.9892 L6.62280768,54.2832 L11.9180028,52.8442 Z M75.9586501,53.1063 L81.3150671,54.3373 L81.1504705,55.0493 L75.7930498,53.8203 L75.9586501,53.1063 Z M43.9992975,10.4622 C63.7549116,10.4622 79.8271735,26.4752 79.8271735,46.1592 C79.8271735,47.1822 79.7629407,48.2522 79.620424,49.6252 L79.620424,49.6252 L78.8114917,49.5402 C78.9499937,48.1972 79.0112157,47.1542 79.0112157,46.1592 C79.0112157,26.9242 63.3052816,11.2742 43.9992975,11.2742 C24.6943169,11.2742 8.98838289,26.9242 8.98838289,46.1592 C8.98838289,47.1532 9.05161209,48.2272 9.18810689,49.5402 L9.18810689,49.5402 L8.37817087,49.6252 C8.23866516,48.2812 8.17342868,47.1802 8.17342868,46.1592 C8.17342868,26.4752 24.244687,10.4622 43.9992975,10.4622 Z M83.8138251,25.2698 C84.1982185,25.0878 84.6036884,25.0828 84.9860745,25.2588 C85.3634425,25.4328 85.6926358,25.7798 85.9104253,26.2358 C86.3580479,27.1708 86.1252039,28.1518 85.3172751,28.7328 L85.3172751,28.7328 L85.276126,28.7628 L84.8285033,28.1768 L84.8686489,28.1458 C85.4246644,27.6998 85.5641701,27.1428 85.2711078,26.5298 C85.1376239,26.2508 84.9579727,26.0478 84.7532305,25.9418 C84.5474846,25.8348 84.3327061,25.8328 84.1289675,25.9318 C83.7797014,26.0968 83.7174758,26.4508 83.8599925,27.4468 C84.0557019,28.9218 83.8369088,29.6078 83.054071,29.9798 C82.8603688,30.0708 82.6586376,30.1168 82.454899,30.1168 C81.8095597,30.1168 81.2063731,29.6608 80.8410488,28.8988 C80.2629532,27.6878 80.540961,26.6658 81.6238866,26.0218 L81.6238866,26.0218 L81.6650358,25.9968 L82.0945929,26.6038 L82.0474219,26.6318 C81.2525405,27.1238 81.0728892,27.7508 81.48137,28.6038 C81.6630285,28.9868 81.9169489,29.2508 82.1959604,29.3488 C82.3816334,29.4128 82.5562665,29.4028 82.7308995,29.3208 C83.206624,29.0958 83.3079915,28.6588 83.1464057,27.5228 C82.9727763,26.1578 83.1403839,25.5898 83.8138251,25.2698 Z M82.5299711,20.5185 L84.2843307,23.3425 L83.6861623,23.7125 L82.3312508,21.5315 L82.3171998,21.5095 L80.9612847,22.3445 L80.9402083,22.3585 L82.1957596,24.3795 L81.6226822,24.7325 L80.3811818,22.7335 L80.3681345,22.7115 L78.868699,23.6355 L78.8476226,23.6495 L80.2155815,25.8525 L79.6174131,26.2205 L77.8630536,23.3955 L82.5299711,20.5185 Z M79.7434701,16.7954 L80.1941036,17.3724 L76.4374859,20.2834 L76.4174131,20.2984 L77.9098231,22.2104 L77.3548112,22.6404 L75.4117677,20.1514 L79.7434701,16.7954 Z M76.9912934,13.7773 L77.4720361,14.2673 L74.9107515,19.4893 L74.3778196,18.9423 L74.892686,17.9203 L73.2647848,16.2553 L73.2517375,16.2423 L72.2119684,16.7273 L71.6780329,16.1803 L76.9912934,13.7773 Z M76.4754234,14.7563 L73.9201606,15.9383 L73.8880442,15.9533 L75.1787229,17.2743 L75.2038138,17.2993 L76.443307,14.8193 L76.4754234,14.7563 Z M70.2833772,8.0815 L71.0200477,8.6515 L69.8086564,12.9565 L69.7915945,13.0145 L73.734889,10.7535 L74.4695521,11.3255 L71.1003387,15.6405 L70.514214,15.1865 L73.0142768,11.9845 L73.0915569,11.8845 L69.1382261,14.1195 L68.8712583,13.9135 L70.0716096,9.5435 L67.4942667,12.8455 L66.9141638,12.3965 L70.2833772,8.0815 Z M68.0017062,6.6957 L68.6279764,7.0797 L65.7395057,11.7307 L65.1142391,11.3467 L68.0017062,6.6957 Z M62.8210262,3.9426 L63.5637185,4.3106 L63.7855225,9.0866 L63.7895371,9.1836 L65.6944424,5.3676 L66.3608581,5.6976 L63.9119809,10.5986 L63.1622632,10.2266 L62.9404592,5.4506 L62.9364446,5.3536 L61.0305357,9.1686 L60.3731527,8.8416 L62.8210262,3.9426 Z M24.489374,4.2518 L24.8135491,4.8738 L23.3462301,5.6338 L23.32415,5.6458 L25.5311504,9.8798 L24.8727638,10.2208 L22.6757998,6.0078 L22.6647598,5.9858 L21.1753607,6.7568 L20.8511855,6.1348 L24.489374,4.2518 Z M59.0022833,2.5083 L59.6506335,2.7353 L59.6837536,8.5373 L58.964145,8.2843 L58.9691632,7.1593 L58.9691632,7.1413 L56.756141,6.3663 L56.0415506,7.2593 L55.3209384,7.0063 L59.0022833,2.5083 Z M32.1993225,1.5292 C32.8245891,1.3632 33.4227575,1.4322 33.9275875,1.7282 C34.5287668,2.0782 34.9643458,2.7172 35.1881571,3.5722 C35.4210011,4.4672 35.379852,5.2042 35.0667168,5.7662 C34.7756618,6.2892 34.2607954,6.6482 33.5361686,6.8352 L33.5361686,6.8352 L31.9062602,7.2592 L30.525254,1.9622 Z M58.9761887,3.6133 L57.1967382,5.8243 L58.9711705,6.4483 L58.9761887,3.6843 L58.9761887,3.6133 Z M33.6676452,2.4232 C33.3003136,2.1562 32.841651,2.0862 32.3388283,2.2162 L32.3388283,2.2162 L31.4375612,2.4492 L31.4134738,2.4562 L32.4401957,6.3942 L33.32139,6.1682 C33.8653619,6.0272 34.225668,5.7772 34.4223811,5.4062 C34.6341488,5.0052 34.650207,4.4512 34.4695521,3.7602 C34.30897,3.1412 34.0389913,2.6922 33.6676452,2.4232 Z M44.6108142,0 L47.9418893,0.151 L47.9097729,0.853 L45.3374482,0.734 L45.3123573,0.734 L45.2390917,2.32 L45.2390917,2.344 L47.6207251,2.454 L47.5886087,3.124 L45.2320662,3.017 L45.2069753,3.016 L45.1276879,4.772 L45.1266842,4.796 L47.7220926,4.915 L47.6909798,5.615 L44.358901,5.463 L44.6108142,0 Z" id="Fill-7"></path>
                </g>
            </g>
        </g>
    </g>
</svg>