<?xml version="1.0" encoding="UTF-8"?>
<svg width="60px" height="60px" viewBox="0 0 60 60" version="1.1" xmlns="http://www.w3.org/2000/svg" xmlns:xlink="http://www.w3.org/1999/xlink">
    <title>3. icons/seal/bloque1/seal02</title>
    <defs>
        <path d="M30,0 C46.5417559,0 60,13.4572858 60,30.0006177 C60,46.5427142 46.5417559,60 30,60 C13.4582441,60 0,46.5427142 0,30.0006177 C0,13.4572858 13.4582441,0 30,0 Z M30,1.48248811 C14.2748312,1.48248811 1.48245759,14.2751251 1.48245759,30.0006177 C1.48245759,45.7248749 14.2748312,58.5175119 30,58.5175119 C45.7251688,58.5175119 58.516307,45.7248749 58.516307,30.0006177 C58.516307,14.2751251 45.7251688,1.48248811 30,1.48248811 Z M30.0301433,13.6413614 C39.0508977,13.6413614 46.3890628,20.9796776 46.3890628,29.9993823 C46.3890628,31.8228427 46.0752759,33.5993576 45.4909405,35.3017481 C46.772031,36.4667367 47.5910888,38.1295942 47.5910888,39.993823 C47.5910888,43.5036136 44.7361225,46.3586386 41.2264042,46.3586386 C39.6216439,46.3586386 38.1700708,45.7421706 37.04958,44.7575514 C34.8493658,45.8076472 32.494729,46.3586386 30.0301433,46.3586386 C21.0106243,46.3586386 13.6724592,39.0203224 13.6724592,29.9993823 C13.6724592,27.2777812 14.3506836,24.7155476 15.5304727,22.4547532 C13.8664141,21.7468652 12.7298633,20.1111866 12.7298633,18.2395454 C12.7298633,15.7044907 14.7929501,13.6413614 17.3291879,13.6413614 C19.0624279,13.6413614 20.6115961,14.6346285 21.3874156,16.1368831 C23.9001812,14.5654457 26.8564487,13.6413614 30.0301433,13.6413614 Z M41.2264042,35.1114955 C38.5345083,35.1114955 36.3441772,37.3018716 36.3441772,39.993823 C36.3441772,42.6857743 38.5345083,44.8761505 41.2264042,44.8761505 C43.9183001,44.8761505 46.1086312,42.6857743 46.1086312,39.993823 C46.1086312,37.3018716 43.9183001,35.1114955 41.2264042,35.1114955 Z M30.0301433,15.1238495 C21.8284467,15.1238495 15.1549168,21.7975168 15.1549168,29.9993823 C15.1549168,38.2024832 21.8284467,44.8761505 30.0301433,44.8761505 C32.1179377,44.8761505 34.1155493,44.4326394 35.9957997,43.6049169 C35.2829847,42.5770585 34.8617197,41.3354747 34.8617197,39.993823 C34.8617197,36.4840324 37.7166859,33.6290074 41.2264042,33.6290074 C42.3184813,33.6290074 43.331494,33.9304466 44.2296162,34.4159615 C44.6731181,32.9927729 44.9066052,31.513991 44.9066052,29.9993823 C44.9066052,21.7975168 38.2330753,15.1238495 30.0301433,15.1238495 Z M26.1806951,24.05164 L26.1806951,29.2959417 L33.0642398,29.2959417 L33.0642398,24.05164 L34.5466974,24.05164 L34.5466974,36.0227315 L33.0642398,36.0227315 L33.0642398,30.7784298 L26.1806951,30.7784298 L26.1806951,36.0227315 L24.6982375,36.0227315 L24.6982375,24.05164 L26.1806951,24.05164 Z M17.3291879,15.1238495 C15.6107725,15.1238495 14.2123209,16.5210946 14.2123209,18.2395454 C14.2123209,19.5713139 15.0597925,20.7313608 16.2840553,21.166224 C17.323011,19.5540182 18.6386921,18.1419482 20.1619173,16.9843721 C19.6702355,15.8700352 18.5658046,15.1238495 17.3291879,15.1238495 Z" id="path-1"></path>
    </defs>
    <g id="Yanbal-UI-Visual-Kit" stroke="none" stroke-width="1" fill="none" fill-rule="evenodd">
        <g id="yanbal-styleguide-pag2" transform="translate(-210.000000, -5445.000000)">
            <g id="Group" transform="translate(208.000000, 5443.000000)">
                <g id="elements" transform="translate(2.000000, 2.000000)">
                    <mask id="mask-2" fill="white">
                        <use xlink:href="#path-1"></use>
                    </mask>
                    <use id="icon" fill="#1B1F28" xlink:href="#path-1"></use>
                    <g id="Group" mask="url(#mask-2)">
                        <g transform="translate(-2.000000, -2.000000)" id="color">
                            <rect id="box" fill="#1C1F28" fill-rule="nonzero" x="0" y="0" width="64" height="64"></rect>
                        </g>
                    </g>
                </g>
            </g>
        </g>
    </g>
</svg>