<?xml version="1.0" encoding="UTF-8"?>
<svg width="60px" height="60px" viewBox="0 0 60 60" version="1.1" xmlns="http://www.w3.org/2000/svg" xmlns:xlink="http://www.w3.org/1999/xlink">
    <title>3. icons/seal/bloque1/seal11</title>
    <defs>
        <path d="M30,0 C46.5417559,0 60,13.4570087 60,29.9987646 C60,46.5417559 46.5417559,60 30,60 C13.4582441,60 0,46.5417559 0,29.9987646 C0,13.4570087 13.4582441,0 30,0 Z M30,1.48245759 C14.2748312,1.48245759 1.48369297,14.2748312 1.48369297,29.9987646 C1.48369297,45.7239335 14.2748312,58.516307 30,58.516307 C45.7251688,58.516307 58.516307,45.7239335 58.516307,29.9987646 C58.516307,14.2748312 45.7251688,1.48245759 30,1.48245759 Z M30.0311316,13.6410805 C39.0506506,13.6410805 46.3900511,20.9792456 46.3900511,30 C46.3900511,31.8221874 46.0774996,33.5986658 45.4919288,35.3010212 C46.7730193,36.4672212 47.5920771,38.1300445 47.5920771,39.9929995 C47.5920771,43.5027178 44.7371109,46.3576841 41.2261571,46.3576841 C39.6213968,46.3576841 38.1710591,45.7412288 37.0493329,44.7566299 C34.8503541,45.806704 32.4957173,46.3576841 30.0311316,46.3576841 C21.0103772,46.3576841 13.6722122,39.019519 13.6722122,30 C13.6722122,27.2772196 14.3504365,24.7150387 15.5302257,22.4542909 C13.866167,21.745182 12.7296162,20.1095371 12.7296162,18.2391698 C12.7296162,15.7041674 14.792703,13.6410805 17.3289409,13.6410805 C19.0621809,13.6410805 20.611349,14.6343271 21.3884039,16.1365508 C23.8999341,14.5639104 26.8562016,13.6410805 30.0311316,13.6410805 Z M30.0311316,15.1235381 C21.8281996,15.1235381 15.1546697,21.797068 15.1546697,30 C15.1546697,38.2016966 21.8281996,44.8752265 30.0311316,44.8752265 C32.118926,44.8752265 34.1153023,44.4317246 35.9955526,43.6040191 C35.283973,42.5761818 34.8614726,41.3346236 34.8614726,39.9929995 C34.8614726,36.4832812 37.7164388,33.6283149 41.2261571,33.6283149 C42.3182342,33.6283149 43.3312469,33.929748 44.2306045,34.4164882 C44.672871,32.9908582 44.9075935,31.5121067 44.9075935,30 C44.9075935,21.797068 38.2340636,15.1235381 30.0311316,15.1235381 Z M41.2261571,35.1107725 C38.5342612,35.1107725 36.3439302,37.3011036 36.3439302,39.9929995 C36.3439302,42.6848954 38.5342612,44.8752265 41.2261571,44.8752265 C43.9192884,44.8752265 46.1096195,42.6848954 46.1096195,39.9929995 C46.1096195,37.3011036 43.9192884,35.1107725 41.2261571,35.1107725 Z M34.3322352,23.5064652 L34.3322352,24.9889227 L26.2120738,24.9889227 L26.2120738,29.3312881 L32.9535497,29.3312881 L32.9535497,30.8149811 L26.2120738,30.8149811 L26.2120738,35.010336 L34.3322352,35.010336 L34.3322352,36.4927936 L24.7296162,36.4927936 L24.7296162,23.5064652 L34.3322352,23.5064652 Z M17.3289409,15.1235381 C15.6105254,15.1235381 14.2133092,16.5207544 14.2133092,18.2391698 C14.2133092,19.5709109 15.0607808,20.7309339 16.2838083,21.1657882 C17.3239993,19.5536155 18.6384451,18.1415747 20.1616702,16.9840224 C19.6699885,15.8697085 18.5655576,15.1235381 17.3289409,15.1235381 Z" id="path-1"></path>
    </defs>
    <g id="Yanbal-UI-Visual-Kit" stroke="none" stroke-width="1" fill="none" fill-rule="evenodd">
        <g id="yanbal-styleguide-pag2" transform="translate(-1002.000000, -5445.000000)">
            <g id="Group" transform="translate(1000.000000, 5443.000000)">
                <g id="elements" transform="translate(2.000000, 2.000000)">
                    <mask id="mask-2" fill="white">
                        <use xlink:href="#path-1"></use>
                    </mask>
                    <use id="icon" fill="#1B1F28" xlink:href="#path-1"></use>
                    <g id="Group" mask="url(#mask-2)">
                        <g transform="translate(-2.000000, -2.000000)" id="color">
                            <rect id="box" fill="#1C1F28" fill-rule="nonzero" x="0" y="0" width="64" height="64"></rect>
                        </g>
                    </g>
                </g>
            </g>
        </g>
    </g>
</svg>