<?xml version="1.0" encoding="UTF-8"?>
<svg width="60px" height="60px" viewBox="0 0 60 60" version="1.1" xmlns="http://www.w3.org/2000/svg" xmlns:xlink="http://www.w3.org/1999/xlink">
    <title>3. icons/seal/bloque1/seal09</title>
    <defs>
        <path d="M29.9993834,0 C46.5411571,0 60,13.4588429 60,30.0006166 C60,46.5423903 46.5411571,60 29.9993834,60 C13.4576097,60 0,46.5423903 0,30.0006166 C0,13.4588429 13.4576097,0 29.9993834,0 Z M29.9993834,1.48103998 C14.2739698,1.48103998 1.4798068,14.275203 1.4798068,30.0006166 C1.4798068,45.7260302 14.2739698,58.5201932 29.9993834,58.5201932 C45.724797,58.5201932 58.51896,45.7260302 58.51896,30.0006166 C58.51896,14.275203 45.724797,1.48103998 29.9993834,1.48103998 Z M30.7391635,46.4402836 L30.7391635,54.793793 L29.2593567,54.793793 L29.2593567,46.4402836 L30.7391635,46.4402836 Z M38.5466242,11.4576508 L39.8685849,12.1223307 L29.2596033,33.2243757 L29.2596033,17.5285582 L30.7394101,17.5285582 L30.7394101,26.9857569 L38.5466242,11.4576508 Z M16.1100401,29.2609598 L16.1100401,30.7407666 L7.75653068,30.7407666 L7.75653068,29.2609598 L16.1100401,29.2609598 Z M52.2432227,29.2609598 L52.2432227,30.7407666 L43.8897133,30.7407666 L43.8897133,29.2609598 L52.2432227,29.2609598 Z" id="path-1"></path>
    </defs>
    <g id="Yanbal-UI-Visual-Kit" stroke="none" stroke-width="1" fill="none" fill-rule="evenodd">
        <g id="yanbal-styleguide-pag2" transform="translate(-826.000000, -5445.000000)">
            <g id="Group" transform="translate(824.000000, 5443.000000)">
                <g id="elements" transform="translate(2.000000, 2.000000)">
                    <mask id="mask-2" fill="white">
                        <use xlink:href="#path-1"></use>
                    </mask>
                    <use id="icon" fill="#1B1F28" xlink:href="#path-1"></use>
                    <g id="Group" mask="url(#mask-2)">
                        <g transform="translate(-2.000000, -2.000000)" id="color">
                            <rect id="box" fill="#1C1F28" fill-rule="nonzero" x="0" y="0" width="64" height="64"></rect>
                        </g>
                    </g>
                </g>
            </g>
        </g>
    </g>
</svg>