<?xml version="1.0" encoding="UTF-8"?>
<svg width="60px" height="60px" viewBox="0 0 60 60" version="1.1" xmlns="http://www.w3.org/2000/svg" xmlns:xlink="http://www.w3.org/1999/xlink">
    <title>3. icons/seal/bloque2/seal22</title>
    <defs>
        <path d="M30,0 C46.542,0 60,13.458 60,30 C60,46.542 46.542,60 30,60 C13.458,60 0,46.542 0,30 C0,13.458 13.458,0 30,0 Z M30,1.5 C14.285,1.5 1.5,14.285 1.5,30 C1.5,45.715 14.285,58.5 30,58.5 C45.715,58.5 58.5,45.715 58.5,30 C58.5,14.285 45.715,1.5 30,1.5 Z M45.1032,18.4664 L45.3222,19.0214 C46.7732,22.7004 46.4712,26.7704 44.4972,30.1904 C42.5912,33.4964 39.3622,35.7384 35.6092,36.4124 L35.6092,36.4124 L30.6502,44.9994 L29.3512,44.9994 L14.7262,19.6714 L16.0252,18.9214 L30.0012,43.1244 L33.9442,36.2944 C30.4372,35.5054 27.4342,33.3314 25.6202,30.1904 C23.6472,26.7734 23.3462,22.7034 24.7942,19.0224 L24.7942,19.0224 L25.0122,18.4664 L25.6032,18.5544 C29.5132,19.1404 32.8882,21.4354 34.8612,24.8534 C34.9332,24.9784 34.9872,25.1114 35.0552,25.2384 C35.1232,25.1104 35.1842,24.9784 35.2572,24.8534 C37.2302,21.4364 40.6042,19.1404 44.5132,18.5544 L44.5132,18.5544 L45.1032,18.4664 Z M25.9812,20.1444 C24.9462,23.2424 25.2782,26.5974 26.9192,29.4404 C28.3842,31.9754 30.7242,33.8054 33.4812,34.6344 L33.4812,34.6344 L28.0082,25.1554 L29.3062,24.4054 L34.7802,33.8864 C35.4412,31.0834 35.0262,28.1404 33.5622,25.6034 C31.9212,22.7604 29.1812,20.7954 25.9812,20.1444 Z M44.1352,20.1444 C40.9372,20.7954 38.1972,22.7604 36.5552,25.6034 C36.2862,26.0714 36.0552,26.5614 35.8542,27.0584 C36.3832,28.5674 36.6372,30.1444 36.5822,31.7274 L36.5822,31.7274 L40.8102,24.4054 L42.1092,25.1554 L36.6392,34.6274 C39.3962,33.7944 41.7372,31.9724 43.1982,29.4404 C44.8412,26.5954 45.1732,23.2404 44.1352,20.1444 Z" id="path-1"></path>
    </defs>
    <g id="Yanbal-UI-Visual-Kit" stroke="none" stroke-width="1" fill="none" fill-rule="evenodd">
        <g id="yanbal-styleguide-pag2" transform="translate(-914.000000, -5597.000000)">
            <g id="Group" transform="translate(912.000000, 5595.000000)">
                <g id="elements" transform="translate(2.000000, 2.000000)">
                    <mask id="mask-2" fill="white">
                        <use xlink:href="#path-1"></use>
                    </mask>
                    <use id="icon" fill="#1C1F28" xlink:href="#path-1"></use>
                    <g id="Group" mask="url(#mask-2)">
                        <g transform="translate(-2.000000, -2.000000)" id="color">
                            <rect id="box" fill="#1C1F28" fill-rule="nonzero" x="0" y="0" width="64" height="64"></rect>
                        </g>
                    </g>
                </g>
            </g>
        </g>
    </g>
</svg>