<?xml version="1.0" encoding="UTF-8"?>
<svg width="60px" height="60px" viewBox="0 0 60 60" version="1.1" xmlns="http://www.w3.org/2000/svg" xmlns:xlink="http://www.w3.org/1999/xlink">
    <title>3. icons/seal/bloque1/seal12</title>
    <defs>
        <path d="M23.3887333,28.1088393 L30.0004942,17.8697881 L36.5986658,28.0915436 C38.4023225,31.054049 38.7544062,32.5019458 38.7544062,34.0004942 C38.7544062,38.8272284 34.827129,42.7545864 30.0004942,42.7545864 C25.1726239,42.7545864 21.2453467,38.8272284 21.2453467,34.0004942 C21.2453467,32.5019458 21.5974304,31.054049 23.3887333,28.1088393 M30,0 C46.5417559,0 60,13.4572858 60,29.9993823 C60,46.5427142 46.5417559,60 30,60 C13.4582441,60 0,46.5427142 0,29.9993823 C0,13.4572858 13.4582441,0 30,0 Z M30,1.48248811 C14.2748312,1.48248811 1.48369297,14.2751251 1.48369297,29.9993823 C1.48369297,45.7248749 14.2748312,58.5175119 30,58.5175119 C45.7251688,58.5175119 58.516307,45.7248749 58.516307,29.9993823 C58.516307,14.2751251 45.7251688,1.48248811 30,1.48248811 Z M30.0004942,15.1370684 L37.8550486,27.3045895 C39.8403064,30.5660634 40.2368638,32.2832788 40.2368638,34.0004942 C40.2368638,39.6450676 35.6449514,44.2370746 30.0004942,44.2370746 C24.3548015,44.2370746 19.7628891,39.6450676 19.7628891,34.0004942 C19.7628891,32.2832788 20.1594465,30.5672988 22.1323505,27.3218852 L22.1323505,27.3218852 L30.0004942,15.1370684 Z" id="path-1"></path>
    </defs>
    <g id="Yanbal-UI-Visual-Kit" stroke="none" stroke-width="1" fill="none" fill-rule="evenodd">
        <g id="yanbal-styleguide-pag2" transform="translate(-1090.000000, -5445.000000)">
            <g id="Group" transform="translate(1088.000000, 5443.000000)">
                <g id="elements" transform="translate(2.000000, 2.000000)">
                    <mask id="mask-2" fill="white">
                        <use xlink:href="#path-1"></use>
                    </mask>
                    <use id="icon" fill="#1B1F28" xlink:href="#path-1"></use>
                    <g id="Group" mask="url(#mask-2)">
                        <g transform="translate(-2.000000, -2.000000)" id="color">
                            <rect id="box" fill="#1C1F28" fill-rule="nonzero" x="0" y="0" width="64" height="64"></rect>
                        </g>
                    </g>
                </g>
            </g>
        </g>
    </g>
</svg>