<?xml version="1.0" encoding="UTF-8"?>
<svg width="60px" height="60px" viewBox="0 0 60 60" version="1.1" xmlns="http://www.w3.org/2000/svg" xmlns:xlink="http://www.w3.org/1999/xlink">
    <title>3. icons/seal/bloque1/seal05</title>
    <defs>
        <path d="M30,0 C46.5417559,0 60,13.4572858 60,29.9993823 C60,46.5427142 46.5417559,60 30,60 C13.4582441,60 0,46.5427142 0,29.9993823 C0,13.4572858 13.4582441,0 30,0 Z M50.6666941,10.381123 L28.6756712,32.3725987 C29.1006424,32.2638829 29.5404381,32.1872877 30,32.1872877 C32.9599736,32.1872877 35.3677318,34.5963308 35.3677318,37.55513 C35.3677318,40.5151646 32.9599736,42.9229724 30,42.9229724 C27.0400264,42.9229724 24.6322682,40.5151646 24.6322682,37.55513 C24.6322682,37.0955587 24.7088618,36.6569893 24.8175754,36.230774 L24.8175754,36.230774 L20.6802833,40.3693866 C21.5401087,44.3819878 25.1301268,47.0479956 30,47.0479956 C35.6073958,47.0479956 39.5223192,43.5159676 39.5223192,38.4606832 C39.5223192,36.0714065 38.4228298,32.950769 36.2535002,29.1840138 C35.9866579,28.7034406 35.8470598,28.1672741 35.8470598,27.6224597 C35.8470598,25.849651 37.2899852,24.4066959 39.0627574,24.4066959 L39.0627574,24.4066959 L45.994482,24.4091667 L45.994482,25.8916548 L39.0590512,25.8916548 C38.5970186,25.8916548 38.1646352,26.0707888 37.8384945,26.3969362 C37.5111184,26.7230836 37.3307528,27.1591822 37.3307528,27.6224597 C37.3307528,27.9152511 37.4036403,28.2031009 37.5432383,28.4563593 C39.8373415,32.4368398 41.0047768,35.8057941 41.0047768,38.4606832 C41.0047768,44.3894002 36.479575,48.5304837 30,48.5304837 C24.7360402,48.5304837 20.7618185,45.7977639 19.4560204,41.5924393 L19.4560204,41.5924393 L10.3809092,50.6677374 C15.4978587,55.5265921 22.4036403,58.5175119 30,58.5175119 C45.7251688,58.5175119 58.516307,45.7248749 58.516307,29.9993823 C58.516307,22.4041016 55.5254489,15.4969424 50.6666941,10.381123 L50.6666941,10.381123 Z M30,1.48248811 C14.2748312,1.48248811 1.48245759,14.2751251 1.48245759,29.9993823 C1.48245759,37.5958984 4.47331576,44.5030576 9.33330588,49.618877 L9.33330588,49.618877 L19.0928183,39.8579282 C19.0359908,39.4032985 18.9952232,38.940021 18.9952232,38.4606832 C18.9952232,35.8181481 20.1527755,32.4652542 22.4345248,28.4909506 C22.5506506,28.1919822 22.6692472,27.7867688 22.6692472,27.6236951 L22.6692472,27.6236951 C22.6692472,26.6662549 21.8921924,25.889184 20.9372426,25.889184 L20.9372426,25.889184 L14.0042827,25.8916548 L14.0042827,24.4091667 L20.9421842,24.4091667 C21.797068,24.4091667 22.6025366,24.7414911 23.2091089,25.3468404 C23.8169165,25.9546606 24.1529402,26.7626166 24.1529402,27.6224597 C24.1529402,28.1709803 23.8515072,28.9431095 23.7909735,29.0913583 C21.5771702,32.950769 20.4776808,36.0714065 20.4776808,38.4606832 L20.4776808,38.4606832 L20.4776808,38.4730372 L49.6178554,9.33226265 C44.5021413,4.47340787 37.5963597,1.48248811 30,1.48248811 Z M30,33.6710112 C27.8578488,33.6710112 26.1147257,35.4129347 26.1147257,37.55513 C26.1147257,39.6973253 27.8578488,41.4404843 30,41.4404843 C32.1421512,41.4404843 33.8852743,39.6973253 33.8852743,37.55513 C33.8852743,35.4129347 32.1421512,33.6710112 30,33.6710112 Z M21.2745017,14.4596949 L24.7471586,19.1171783 L23.5587218,20.0042004 L20.0860649,15.3467169 L21.2745017,14.4596949 Z M38.7253747,14.4594478 L39.9138116,15.3464698 L36.4411547,20.0039533 L35.2527178,19.1169312 L38.7253747,14.4594478 Z M30.7409817,10.9756007 L30.7409817,18.1607264 L29.2585241,18.1607264 L29.2585241,10.9756007 L30.7409817,10.9756007 Z" id="path-1"></path>
    </defs>
    <g id="Yanbal-UI-Visual-Kit" stroke="none" stroke-width="1" fill="none" fill-rule="evenodd">
        <g id="yanbal-styleguide-pag2" transform="translate(-474.000000, -5445.000000)">
            <g id="Group" transform="translate(472.000000, 5443.000000)">
                <g id="elements" transform="translate(2.000000, 2.000000)">
                    <mask id="mask-2" fill="white">
                        <use xlink:href="#path-1"></use>
                    </mask>
                    <use id="icon" fill="#1B1F28" xlink:href="#path-1"></use>
                    <g id="Group" mask="url(#mask-2)">
                        <g transform="translate(-2.000000, -2.000000)" id="color">
                            <rect id="box" fill="#1C1F28" fill-rule="nonzero" x="0" y="0" width="64" height="64"></rect>
                        </g>
                    </g>
                </g>
            </g>
        </g>
    </g>
</svg>