<?xml version="1.0" encoding="UTF-8"?>
<svg width="60px" height="60px" viewBox="0 0 60 60" version="1.1" xmlns="http://www.w3.org/2000/svg" xmlns:xlink="http://www.w3.org/1999/xlink">
    <title>3. icons/seal/bloque1/seal07</title>
    <defs>
        <path d="M30,0 C46.5417559,0 60,13.4572858 60,30.0006177 C60,46.5427142 46.5417559,60 30,60 C13.4582441,60 0,46.5427142 0,30.0006177 C0,13.4572858 13.4582441,0 30,0 Z M30,1.48248811 C14.2748312,1.48248811 1.48369297,14.2751251 1.48369297,30.0006177 C1.48369297,45.7248749 14.2748312,58.5175119 30,58.5175119 C45.7251688,58.5175119 58.516307,45.7248749 58.516307,30.0006177 C58.516307,14.2751251 45.7251688,1.48248811 30,1.48248811 Z M35.1305386,8.55333869 L36.5796409,8.8658966 C36.3214462,10.0630057 35.8952397,10.9636173 35.157717,11.8778183 C34.804398,12.3139169 34.3386592,12.6808327 33.851919,13.0045092 C41.8015978,14.7699055 47.7684895,21.8685527 47.7684895,30.3422077 C47.7684895,40.1402187 39.7978093,48.1110631 30,48.1110631 C20.2021907,48.1110631 12.2315105,40.1402187 12.2315105,30.3422077 C12.2315105,20.5441967 20.2021907,12.5721169 30,12.5721169 C30.4299127,12.5721169 30.8511777,12.6067083 31.2736781,12.636358 L31.2736781,12.636358 C32.3459891,12.3003274 33.4701861,11.6060288 34.0051062,10.9450862 C34.694449,10.0914201 34.9538791,9.37117796 35.1305386,8.55333869 L35.1305386,8.55333869 Z M30,14.054605 C21.0200132,14.054605 13.713968,21.3608005 13.713968,30.3422077 C13.713968,39.3223794 21.0200132,46.628575 30,46.628575 C38.9799868,46.628575 46.286032,39.3223794 46.286032,30.3422077 C46.286032,21.3608005 38.9799868,14.054605 30,14.054605 Z M33.1391039,37.9845574 L34.0014001,39.1903144 C33.9272772,39.2446723 32.1359743,40.5109642 30,40.5109642 C27.8640257,40.5109642 26.0727228,39.2446723 25.9985999,39.1903144 L25.9985999,39.1903144 L26.8608961,37.9845574 C26.8757206,37.9956761 28.3507659,39.0284761 30,39.0284761 C31.6492341,39.0284761 33.1242794,37.9956761 33.1391039,37.9845574 L33.1391039,37.9845574 Z M25.3480481,26.9694237 L26.2103443,28.1751807 C26.1362214,28.2295386 24.3461538,29.4958305 22.2089442,29.4958305 C20.0717345,29.4958305 18.2829023,28.2295386 18.2075441,28.1751807 L18.2075441,28.1751807 L19.0698402,26.9694237 C19.0846648,26.9793069 20.5597101,28.0133424 22.2089442,28.0133424 C23.8594136,28.0133424 25.3332235,26.9793069 25.3480481,26.9694237 L25.3480481,26.9694237 Z M40.9115055,26.9690531 L41.7738017,28.1748101 C41.6996788,28.229168 39.9083759,29.4954599 37.7724016,29.4954599 C35.6364273,29.4954599 33.8451244,28.229168 33.7710015,28.1748101 L33.7710015,28.1748101 L34.6332976,26.9690531 L34.6332976,26.9690531 L34.6666808,26.9919288 C34.8951727,27.1451328 36.2606037,28.0129718 37.7724016,28.0129718 C39.2841995,28.0129718 40.6496304,27.1451328 40.8781223,26.9919288 L40.9115055,26.9690531 Z" id="path-1"></path>
    </defs>
    <g id="Yanbal-UI-Visual-Kit" stroke="none" stroke-width="1" fill="none" fill-rule="evenodd">
        <g id="yanbal-styleguide-pag2" transform="translate(-650.000000, -5445.000000)">
            <g id="Group" transform="translate(648.000000, 5443.000000)">
                <g id="elements" transform="translate(2.000000, 2.000000)">
                    <mask id="mask-2" fill="white">
                        <use xlink:href="#path-1"></use>
                    </mask>
                    <use id="icon" fill="#1B1F28" xlink:href="#path-1"></use>
                    <g id="Group" mask="url(#mask-2)">
                        <g transform="translate(-2.000000, -2.000000)" id="color">
                            <rect id="box" fill="#1C1F28" fill-rule="nonzero" x="0" y="0" width="64" height="64"></rect>
                        </g>
                    </g>
                </g>
            </g>
        </g>
    </g>
</svg>