<?xml version="1.0" encoding="UTF-8"?>
<svg width="60px" height="60px" viewBox="0 0 60 60" version="1.1" xmlns="http://www.w3.org/2000/svg" xmlns:xlink="http://www.w3.org/1999/xlink">
    <title>3. icons/seal/bloque2/seal14</title>
    <defs>
        <path d="M33.157264,22.3094694 C33.4834047,21.8758416 33.9590265,21.5941689 34.4964174,21.5188091 C34.5940125,21.5052196 34.6903723,21.4978072 34.786732,21.4978072 C35.224057,21.4978072 35.6490282,21.6398789 36.004818,21.9067268 C36.9004694,22.5812589 37.0820705,23.8586695 36.4075523,24.7543394 C35.7886263,25.5783557 33.8836683,26.2862437 32.4160352,26.666749 C32.3653846,25.3325097 32.4493905,23.2508493 33.157264,22.3094694 L33.157264,22.3094694 Z M30,0 C46.5417559,0 60,13.4572858 60,30.0006177 C60,46.5427142 46.5417559,60 30,60 C13.4582441,60 0,46.5427142 0,30.0006177 C0,13.4572858 13.4582441,0 30,0 Z M30,1.48248811 C14.2748312,1.48248811 1.48369297,14.2751251 1.48369297,30.0006177 C1.48369297,45.7248749 14.2748312,58.5175119 30,58.5175119 C45.7251688,58.5175119 58.5175424,45.7248749 58.5175424,30.0006177 C58.5175424,14.2751251 45.7251688,1.48248811 30,1.48248811 Z M30,11.2908765 C40.3166694,11.2908765 48.7086147,19.68423 48.7086147,29.9998765 C48.7086147,40.3167583 40.3166694,48.7088764 30,48.7088764 C19.684566,48.7088764 11.2913853,40.3167583 11.2913853,29.9998765 C11.2913853,19.68423 19.684566,11.2908765 30,11.2908765 Z M30,12.7733646 C20.5023884,12.7733646 12.7750782,20.5020693 12.7750782,29.9998765 C12.7750782,39.498919 20.5023884,47.2263883 30,47.2263883 C39.4976116,47.2263883 47.2261571,39.498919 47.2261571,29.9998765 C47.2261571,20.5020693 39.4976116,12.7733646 30,12.7733646 Z M29.9913523,32.5206004 L30.5423324,33.1123602 C30.8474716,33.439743 33.5158952,36.3713633 33.5158952,38.6865155 C33.5158952,40.6248687 31.9383133,42.2024832 30,42.2024832 C28.0616867,42.2024832 26.4841048,40.6248687 26.4841048,38.6865155 C26.4841048,36.4751374 29.1463515,33.4582741 29.4490199,33.1222435 L29.4490199,33.1222435 L29.9913523,32.5206004 Z M30.0061769,34.7591575 C29.0623456,35.9451479 27.9665623,37.6561863 27.9665623,38.6865155 C27.9665623,39.8082649 28.8782738,40.7199951 30,40.7199951 C31.1217262,40.7199951 32.0334377,39.8082649 32.0334377,38.6865155 C32.0334377,37.5128791 30.848707,35.7968991 30.0061769,34.7591575 Z M32.9386015,30.5650751 C33.3425712,30.373587 36.9387663,28.7132003 39.1500988,29.4112051 C40.0457503,29.6941133 40.777096,30.3093459 41.2107149,31.14201 C41.6430983,31.9759096 41.7258689,32.9284082 41.4429666,33.8240781 C41.1588289,34.7185126 40.543609,35.4511088 39.710962,35.8835011 C39.2032202,36.1478782 38.6497694,36.2813021 38.0938478,36.2813021 C37.738058,36.2813021 37.378562,36.2269442 37.0289491,36.1157576 C34.9213886,35.448638 32.8484187,32.0006177 32.6174024,31.6102292 L32.6174024,31.6102292 L32.2084912,30.9122243 Z M20.8503953,29.4109581 C23.0580217,28.7129532 26.6579229,30.3733399 27.0606572,30.564828 L27.0606572,30.564828 L27.7907676,30.9132127 L27.3818564,31.6099821 C27.1520754,32.0003706 25.0791056,35.4483909 22.9715451,36.1167459 C22.6194614,36.2266971 22.2636716,36.2798196 21.9128233,36.2798196 C20.4204826,36.2798196 19.031914,35.321144 18.5575276,33.823831 C18.2746253,32.9281611 18.3573958,31.9756625 18.7910147,31.1429983 C19.2233981,30.3090988 19.9547439,29.6938662 20.8503953,29.4109581 Z M22.0919535,30.7192538 C21.7991682,30.7192538 21.529855,30.7513744 21.2976034,30.8242634 C20.7787432,30.9885725 20.3562428,31.3443696 20.1054604,31.8261783 C19.854678,32.3079869 19.8077335,32.8589783 19.9720392,33.3766138 C20.3105337,34.446476 21.4557322,35.0419421 22.524337,34.7022052 C23.5064652,34.3921181 24.8073217,32.830564 25.6523225,31.5729199 C24.6677236,31.1837668 23.211209,30.7192538 22.0919535,30.7192538 Z M38.7028908,30.8245105 C37.5811646,30.4662425 35.5884945,31.0814751 34.3469363,31.573167 C35.1931725,32.8295756 36.494029,34.3911298 37.4773925,34.7024523 C37.9950173,34.865526 38.544762,34.8185805 39.0265607,34.5677929 C39.5095948,34.3182408 39.8653846,33.8944963 40.0284549,33.3768608 C40.1927607,32.8592254 40.1445808,32.308234 39.8950338,31.8264254 C39.6442514,31.3433813 39.2205156,30.9875842 38.7028908,30.8245105 Z M34.2901087,20.0511458 C35.2178801,19.9214281 36.1444161,20.1573908 36.8955279,20.7219717 C38.4446961,21.8869603 38.758483,24.0958676 37.592283,25.6450676 C36.2630127,27.4129347 32.3221463,28.2245969 31.877409,28.30984 L31.877409,28.30984 L31.0842942,28.4642659 L30.9990529,27.6612515 C30.9521084,27.216505 30.581494,23.268145 31.9725334,21.4187411 C32.5371026,20.6676138 33.3598666,20.182099 34.2901087,20.0511458 Z M23.1290562,20.7223423 C24.6782243,19.5561184 26.8858508,19.8699117 28.0532861,21.4178763 L28.0532861,21.4178763 C29.4443255,23.2697511 29.0724757,27.2168757 29.0255312,27.6603867 L29.0255312,27.6603867 L28.9402899,28.4646365 L28.1471751,28.3102106 C27.7024378,28.2237322 23.7615714,27.4133053 22.4323011,25.6454383 C21.2673365,24.0962382 21.579888,21.8873309 23.1290562,20.7223423 Z M25.2403228,21.4994132 C24.8153517,21.4994132 24.385439,21.6316017 24.0197661,21.9070974 C23.1241146,22.5803941 22.943749,23.8590401 23.6170318,24.75471 C24.2384286,25.5799617 26.1421512,26.2878498 27.6073135,26.6671196 C27.6579641,25.3316449 27.5727228,23.2475137 26.8685554,22.30984 C26.4682919,21.7786151 25.8580135,21.4994132 25.2403228,21.4994132 Z" id="path-1"></path>
    </defs>
    <g id="Yanbal-UI-Visual-Kit" stroke="none" stroke-width="1" fill="none" fill-rule="evenodd">
        <g id="yanbal-styleguide-pag2" transform="translate(-210.000000, -5597.000000)">
            <g id="Group" transform="translate(208.000000, 5595.000000)">
                <g id="elements" transform="translate(2.000000, 2.000000)">
                    <mask id="mask-2" fill="white">
                        <use xlink:href="#path-1"></use>
                    </mask>
                    <use id="icon" fill="#1B1F28" xlink:href="#path-1"></use>
                    <g id="Group" mask="url(#mask-2)">
                        <g transform="translate(-2.000000, -2.000000)" id="color">
                            <rect id="box" fill="#1C1F28" fill-rule="nonzero" x="0" y="0" width="64" height="64"></rect>
                        </g>
                    </g>
                </g>
            </g>
        </g>
    </g>
</svg>