<?xml version="1.0" encoding="UTF-8"?>
<svg width="60px" height="60px" viewBox="0 0 60 60" version="1.1" xmlns="http://www.w3.org/2000/svg" xmlns:xlink="http://www.w3.org/1999/xlink">
    <title>3. icons/seal/bloque1/seal10</title>
    <defs>
        <path d="M33.223604,36.1082194 C32.3773678,36.9717509 31.240817,37.4535497 29.9794927,37.4646681 C27.5186131,37.4646681 25.5037061,35.4497612 25.4864108,32.9715862 C25.4765278,31.7856202 25.9397958,30.6601878 26.7909735,29.8028331 C27.6532696,28.9294185 28.7997035,28.4463845 30.0177895,28.4426783 C32.4267831,28.4426783 34.4849283,30.4724098 34.5133421,32.8739911 C34.5281667,34.0945479 34.0698402,35.2422171 33.223604,36.1082194 M30,0 C46.5417559,0 60,13.4582441 60,30.0012354 C60,46.5429913 46.5417559,60 30,60 C13.4582441,60 0,46.5429913 0,30.0012354 C0,13.4582441 13.4582441,0 30,0 Z M30,1.48369297 C14.2748312,1.48369297 1.48369297,14.2760665 1.48369297,30.0012354 C1.48369297,45.7251688 14.2748312,58.5175424 30,58.5175424 C45.7251688,58.5175424 58.516307,45.7251688 58.516307,30.0012354 C58.516307,14.2760665 45.7251688,1.48369297 30,1.48369297 Z M30.7412288,13.2766431 L30.7412288,20.9421842 C33.8852743,21.0867238 36.9131939,22.1330917 39.6236205,23.9639269 L39.6236205,23.9639269 L44.0154011,18.0723933 L45.2038379,18.9593971 L40.820705,24.8373415 C43.2951738,26.7904793 45.4570911,29.4193708 47.1347389,32.6091254 L47.1347389,32.6091254 L47.31634,32.9537967 L47.1347389,33.2984681 C43.28282,40.623044 36.8773678,44.9950585 30,44.9950585 C23.1226322,44.9950585 16.71718,40.623044 12.8652611,33.2984681 L12.8652611,33.2984681 L12.68366,32.9537967 L12.8652611,32.6091254 C14.5416735,29.4193708 16.7035908,26.7917147 19.1768242,24.8385768 L19.1768242,24.8385768 L14.7924559,18.9593971 L15.9808928,18.0723933 L20.3751441,23.9651622 C23.0855707,22.1330917 26.1147257,21.0867238 29.2587712,20.9421842 L29.2587712,20.9421842 L29.2587712,13.2766431 L30.7412288,13.2766431 Z M30,22.3949926 C23.7885027,22.3949926 17.9673859,26.3346236 14.3625432,32.9537967 C17.9686213,39.5742052 23.7897381,43.5126009 30,43.5126009 C36.2102619,43.5126009 42.0313787,39.5742052 45.6374568,32.9537967 C42.0313787,26.3346236 36.2102619,22.3949926 30,22.3949926 Z M30.0177895,26.9602207 C33.2211333,26.9602207 35.9587383,29.6607643 35.9957997,32.8566958 C36.0155658,34.4725745 35.4065228,35.9957997 34.2835612,37.1447043 C33.1581288,38.2923736 31.6509636,38.9323011 30.0375556,38.9471257 C26.7069676,38.9471257 24.0274255,36.2712897 24.0039532,32.9827047 C23.9915994,31.3989458 24.6068193,29.8991929 25.7384286,28.7601713 C26.8786856,27.6038544 28.3982046,26.9651622 30.0153187,26.9602207 L30.0153187,26.9602207 Z" id="path-1"></path>
    </defs>
    <g id="Yanbal-UI-Visual-Kit" stroke="none" stroke-width="1" fill="none" fill-rule="evenodd">
        <g id="yanbal-styleguide-pag2" transform="translate(-914.000000, -5445.000000)">
            <g id="Group" transform="translate(912.000000, 5443.000000)">
                <g id="elements" transform="translate(2.000000, 2.000000)">
                    <mask id="mask-2" fill="white">
                        <use xlink:href="#path-1"></use>
                    </mask>
                    <use id="icon" fill="#1B1F28" xlink:href="#path-1"></use>
                    <g id="Group" mask="url(#mask-2)">
                        <g transform="translate(-2.000000, -2.000000)" id="color">
                            <rect id="box" fill="#1C1F28" fill-rule="nonzero" x="0" y="0" width="64" height="64"></rect>
                        </g>
                    </g>
                </g>
            </g>
        </g>
    </g>
</svg>