<?xml version="1.0" encoding="UTF-8"?>
<svg width="60px" height="60px" viewBox="0 0 60 60" version="1.1" xmlns="http://www.w3.org/2000/svg" xmlns:xlink="http://www.w3.org/1999/xlink">
    <title>3. icons/seal/bloque1/seal08</title>
    <defs>
        <path d="M30,0 C46.5421137,0 60,13.4588429 60,30.0006166 C60,46.5423903 46.5421137,60 30,60 C13.4578863,60 0,46.5423903 0,30.0006166 C0,13.4588429 13.4578863,0 30,0 Z M30,1.48103998 C14.2742632,1.48103998 1.47983722,14.275203 1.47983722,30.0006166 C1.47983722,45.7260302 14.2742632,58.5201932 30,58.5201932 C45.7257368,58.5201932 58.5201628,45.7260302 58.5201628,30.0006166 C58.5201628,14.275203 45.7257368,1.48103998 30,1.48103998 Z M30.7397953,45.9716781 L30.7397953,54.3251875 L29.2599581,54.3251875 L29.2599581,45.9716781 L30.7397953,45.9716781 Z M30.7399186,11.3707122 L30.7399186,31.9622238 L20.7867801,21.4568287 L21.8608953,20.4382283 L29.2600814,28.2479087 L29.2600814,11.3707122 L30.7399186,11.3707122 Z M16.1103712,29.2609598 L16.1103712,30.7407666 L7.7566901,30.7407666 L7.7566901,29.2609598 L16.1103712,29.2609598 Z M52.2430633,29.2609598 L52.2430633,30.7407666 L43.8893822,30.7407666 L43.8893822,29.2609598 L52.2430633,29.2609598 Z" id="path-1"></path>
    </defs>
    <g id="Yanbal-UI-Visual-Kit" stroke="none" stroke-width="1" fill="none" fill-rule="evenodd">
        <g id="yanbal-styleguide-pag2" transform="translate(-738.000000, -5445.000000)">
            <g id="Group" transform="translate(736.000000, 5443.000000)">
                <g id="elements" transform="translate(2.000000, 2.000000)">
                    <mask id="mask-2" fill="white">
                        <use xlink:href="#path-1"></use>
                    </mask>
                    <use id="icon" fill="#1B1F28" xlink:href="#path-1"></use>
                    <g id="Group" mask="url(#mask-2)">
                        <g transform="translate(-2.000000, -2.000000)" id="color">
                            <rect id="box" fill="#1C1F28" fill-rule="nonzero" x="0" y="0" width="64" height="64"></rect>
                        </g>
                    </g>
                </g>
            </g>
        </g>
    </g>
</svg>