<?xml version="1.0" encoding="UTF-8"?>
<svg width="60px" height="60px" viewBox="0 0 60 60" version="1.1" xmlns="http://www.w3.org/2000/svg" xmlns:xlink="http://www.w3.org/1999/xlink">
    <title>3. icons/seal/bloque1/seal01</title>
    <defs>
        <path d="M44.1646352,25.8903805 L44.1646352,34.1106078 L34.1098666,34.1106078 L34.1098666,44.1653764 L25.8896393,44.1653764 L25.8896393,34.1106078 L15.8348707,34.1106078 L15.8348707,25.8903805 L25.8896393,25.8903805 L25.8896393,15.8356119 L34.1098666,15.8356119 L34.1098666,25.8903805 L44.1646352,25.8903805 Z M30,0 C46.5417559,0 60,13.4582441 60,30.0012354 C60,46.5429913 46.5417559,60 30,60 C13.4582441,60 0,46.5429913 0,30.0012354 C0,13.4582441 13.4582441,0 30,0 Z M30,1.48369297 C14.2748312,1.48369297 1.48369297,14.2760665 1.48369297,30.0012354 C1.48369297,45.7251688 14.2748312,58.5175424 30,58.5175424 C45.7251688,58.5175424 58.516307,45.7251688 58.516307,30.0012354 C58.516307,14.2760665 45.7251688,1.48369297 30,1.48369297 Z M35.5935595,14.3531543 L35.5935595,24.4079229 L45.6470927,24.4079229 L45.6470927,35.5930654 L35.5935595,35.5930654 L35.5935595,45.647834 L24.4071817,45.647834 L24.4071817,35.5930654 L14.3524131,35.5930654 L14.3524131,24.4079229 L24.4071817,24.4079229 L24.4071817,14.3531543 L35.5935595,14.3531543 Z" id="path-1"></path>
    </defs>
    <g id="Yanbal-UI-Visual-Kit" stroke="none" stroke-width="1" fill="none" fill-rule="evenodd">
        <g id="yanbal-styleguide-pag2" transform="translate(-122.000000, -5445.000000)">
            <g id="Group" transform="translate(120.000000, 5443.000000)">
                <g id="elements" transform="translate(2.000000, 2.000000)">
                    <mask id="mask-2" fill="white">
                        <use xlink:href="#path-1"></use>
                    </mask>
                    <use id="icon" fill="#1B1F28" xlink:href="#path-1"></use>
                    <g id="Group" mask="url(#mask-2)">
                        <g transform="translate(-2.000000, -2.000000)" id="color">
                            <rect id="box" fill="#1C1F28" fill-rule="nonzero" x="0" y="0" width="64" height="64"></rect>
                        </g>
                    </g>
                </g>
            </g>
        </g>
    </g>
</svg>