<?xml version="1.0" encoding="UTF-8"?>
<svg width="60px" height="60px" viewBox="0 0 60 60" version="1.1" xmlns="http://www.w3.org/2000/svg" xmlns:xlink="http://www.w3.org/1999/xlink">
    <title>3. icons/seal/bloque1/seal03</title>
    <defs>
        <path d="M24.7007083,24.7007227 C29.1184319,20.2829081 35.1693296,18.0826487 41.3820623,18.6175798 C41.915747,24.8304404 39.7167682,30.8814627 35.2990446,35.2992773 C31.1234558,39.4737167 25.4864108,41.6356785 19.6344095,41.4145407 L34.545462,26.5044166 L33.4966233,25.4555562 L18.5855707,40.3681512 C18.3632021,34.514794 20.5251194,28.8763976 24.7007083,24.7007227 L24.7007083,24.7007227 Z M30,0 C46.5417559,0 60,13.4572858 60,29.9993823 C60,46.5427142 46.5417559,60 30,60 C13.4582441,60 0,46.5427142 0,29.9993823 C0,13.4572858 13.4582441,0 30,0 Z M30,1.48248811 C14.2748312,1.48248811 1.48369297,14.2751251 1.48369297,29.9993823 C1.48369297,45.7248749 14.2748312,58.5175119 30,58.5175119 C45.7251688,58.5175119 58.516307,45.7248749 58.516307,29.9993823 C58.516307,14.2751251 45.7251688,1.48248811 30,1.48248811 Z M23.6518695,23.6518624 C28.5316258,18.7720057 35.2681601,16.422262 42.1442925,17.2030391 L42.1442925,17.2030391 L42.7298633,17.2697511 L42.7965739,17.8553339 C43.5773349,24.7279017 41.2264042,31.4682809 36.346648,36.3469022 C32.0833471,40.6102909 26.3993576,42.9439743 20.4485258,42.9439743 C19.5887004,42.9439743 18.7239335,42.8957934 17.8554604,42.7969609 L17.8554604,42.7969609 L17.2698896,42.7302489 L17.203179,42.1446661 C16.4224181,35.2720983 18.7733487,28.5329545 23.6518695,23.6518624 Z" id="path-1"></path>
    </defs>
    <g id="Yanbal-UI-Visual-Kit" stroke="none" stroke-width="1" fill="none" fill-rule="evenodd">
        <g id="yanbal-styleguide-pag2" transform="translate(-298.000000, -5445.000000)">
            <g id="Group" transform="translate(296.000000, 5443.000000)">
                <g id="elements" transform="translate(2.000000, 2.000000)">
                    <mask id="mask-2" fill="white">
                        <use xlink:href="#path-1"></use>
                    </mask>
                    <use id="icon" fill="#1B1F28" xlink:href="#path-1"></use>
                    <g id="Group" mask="url(#mask-2)">
                        <g transform="translate(-2.000000, -2.000000)" id="color">
                            <rect id="box" fill="#1C1F28" fill-rule="nonzero" x="0" y="0" width="64" height="64"></rect>
                        </g>
                    </g>
                </g>
            </g>
        </g>
    </g>
</svg>