<?xml version="1.0" encoding="UTF-8"?>
<svg width="60px" height="60px" viewBox="0 0 60 60" version="1.1" xmlns="http://www.w3.org/2000/svg" xmlns:xlink="http://www.w3.org/1999/xlink">
    <title>3. icons/seal/bloque1/seal04</title>
    <defs>
        <path d="M30,0 C46.5417559,0 60,13.4572858 60,29.9993823 C60,46.5427142 46.5417559,60 30,60 C13.4582441,60 0,46.5427142 0,29.9993823 C0,13.4572858 13.4582441,0 30,0 Z M30,1.48248811 C14.2748312,1.48248811 1.48369297,14.2751251 1.48369297,29.9993823 C1.48369297,45.7248749 14.2748312,58.5175119 30,58.5175119 C45.7251688,58.5175119 58.5175424,45.7248749 58.5175424,29.9993823 C58.5175424,14.2751251 45.7251688,1.48248811 30,1.48248811 Z M21.5580217,17.8734943 C27.2988387,16.9074063 32.6999259,16.9061709 38.4419783,17.8734943 C41.4649563,18.3837173 43.3884451,18.9680647 43.4687449,18.9927729 L43.4687449,18.9927729 L43.9937819,19.1533757 L43.9937819,28.1397245 C43.9937819,36.9506455 38.3369708,45.0178516 30.2378109,47.7579838 L30.2378109,47.7579838 L30.0006177,47.8382853 L29.7634245,47.7579838 C21.6642645,45.0178516 16.0074535,36.9506455 16.0074535,28.1397245 L16.0074535,28.1397245 L16.0074535,19.1533757 L16.5312551,18.9927729 C16.6115549,18.9680647 18.536279,18.3837173 21.5580217,17.8734943 Z M38.1961374,19.3362159 C32.6159199,18.3960714 27.3840801,18.3960714 21.8038626,19.3362159 C19.7815434,19.6771882 18.2471998,20.0589289 17.4899111,20.262771 L17.4899111,20.262771 L17.4899111,28.1397245 C17.4899111,36.2378158 22.6216851,43.6564334 30.0006177,46.2717895 C37.3795503,43.6564334 42.5100889,36.2378158 42.5100889,28.1397245 L42.5100889,28.1397245 L42.5100889,20.262771 C41.7528002,20.0589289 40.2184566,19.6771882 38.1961374,19.3362159 Z M36.2295338,25.8843659 L37.2783726,26.9332263 L28.5800527,35.6317252 L24.6972492,31.7476064 L25.746088,30.6999815 L28.5800527,33.5340046 L36.2295338,25.8843659 Z" id="path-1"></path>
    </defs>
    <g id="Yanbal-UI-Visual-Kit" stroke="none" stroke-width="1" fill="none" fill-rule="evenodd">
        <g id="yanbal-styleguide-pag2" transform="translate(-386.000000, -5445.000000)">
            <g id="Group" transform="translate(384.000000, 5443.000000)">
                <g id="elements" transform="translate(2.000000, 2.000000)">
                    <mask id="mask-2" fill="white">
                        <use xlink:href="#path-1"></use>
                    </mask>
                    <use id="icon" fill="#1B1F28" xlink:href="#path-1"></use>
                    <g id="Group" mask="url(#mask-2)">
                        <g transform="translate(-2.000000, -2.000000)" id="color">
                            <rect id="box" fill="#1C1F28" fill-rule="nonzero" x="0" y="0" width="64" height="64"></rect>
                        </g>
                    </g>
                </g>
            </g>
        </g>
    </g>
</svg>