<?xml version="1.0" encoding="UTF-8"?>
<svg width="60px" height="60px" viewBox="0 0 60 60" version="1.1" xmlns="http://www.w3.org/2000/svg" xmlns:xlink="http://www.w3.org/1999/xlink">
    <title>3. icons/seal/bloque2/seal23</title>
    <defs>
        <path d="M30,58.6213235 C14.2176011,58.6213235 1.37867647,45.7823989 1.37867647,30.0017233 C1.37867647,14.2193244 14.2176011,1.38039982 30,1.38039982 C45.7806756,1.38039982 58.6196002,14.2193244 58.6196002,30.0017233 C58.6196002,45.7823989 45.7806756,58.6213235 30,58.6213235 M30,5.68434189e-14 C13.4576057,5.68434189e-14 0,13.459329 0,30.0017233 C0,46.5423943 13.4576057,60.0017233 30,60.0017233 C46.5423943,60.0017233 60,46.5423943 60,30.0017233 C60,13.459329 46.5423943,5.68434189e-14 30,5.68434189e-14 M42.4804688,31.5148208 L17.5195312,31.5148208 C17.8779871,24.9419807 23.3392693,19.7047335 30,19.7047335 C31.5234375,19.7047335 32.9986213,19.9873621 34.4048713,20.5181526 C34.6116728,22.120864 35.9713925,23.3685662 37.6309743,23.3685662 C37.9859835,23.3685662 38.3220358,23.297909 38.6425781,23.1910616 C40.9277344,25.3848805 42.3081342,28.359375 42.4804688,31.5148208 M36.2454044,18.7655101 L37.6309743,16.6216682 L39.0044807,18.75 C39.4784007,19.5306756 39.5163143,19.8339844 39.5163143,20.0993796 C39.5163143,21.1420037 38.6701517,21.9881664 37.6309743,21.9881664 C36.5883502,21.9881664 35.7421875,21.1420037 35.7421875,20.0993796 C35.7421875,19.8339844 35.7801011,19.5306756 36.2454044,18.7655101 M40.8967142,20.0993796 C40.8967142,19.4514017 40.7036994,18.889591 40.1711857,18.0175781 L37.6309743,14.0797335 L35.0769761,18.0330882 C34.827091,18.4449678 34.6564798,18.7861903 34.542739,19.1015625 C33.0847886,18.5948989 31.5647978,18.3243336 30,18.3243336 C22.3483456,18.3243336 16.121898,24.5507813 16.121898,32.204159 L16.121898,32.8934972 L29.3106618,32.8934972 L29.3106618,41.7221967 C29.3106618,42.9595588 28.3059513,43.9659926 27.0685892,43.9659926 C25.831227,43.9659926 24.8247932,42.9595588 24.8247932,41.7221967 L23.4443934,41.7221967 C23.4443934,43.7212776 25.0712316,45.3463925 27.0685892,45.3463925 C29.0642233,45.3463925 30.6893382,43.7212776 30.6893382,41.7221967 L30.6893382,32.8934972 L43.8798254,32.8934972 L43.8798254,32.204159 C43.8798254,28.5523897 42.416705,25.0574449 39.8678768,22.4689798 C40.4986213,21.8744256 40.8967142,21.0334329 40.8967142,20.0993796" id="path-1"></path>
    </defs>
    <g id="Yanbal-UI-Visual-Kit" stroke="none" stroke-width="1" fill="none" fill-rule="evenodd">
        <g id="yanbal-styleguide-pag2" transform="translate(-1002.000000, -5597.000000)">
            <g id="Group" transform="translate(1000.000000, 5595.000000)">
                <g id="elements" transform="translate(2.000000, 2.000000)">
                    <mask id="mask-2" fill="white">
                        <use xlink:href="#path-1"></use>
                    </mask>
                    <use id="icon" fill="#1C1F28" xlink:href="#path-1"></use>
                    <g id="Group" mask="url(#mask-2)">
                        <g transform="translate(-2.000000, -2.000000)" id="color">
                            <rect id="box" fill="#1C1F28" fill-rule="nonzero" x="0" y="0" width="64" height="64"></rect>
                        </g>
                    </g>
                </g>
            </g>
        </g>
    </g>
</svg>