<?xml version="1.0" encoding="UTF-8"?>
<svg width="60px" height="60px" viewBox="0 0 60 60" version="1.1" xmlns="http://www.w3.org/2000/svg" xmlns:xlink="http://www.w3.org/1999/xlink">
    <title>3. icons/seal/bloque1/seal06</title>
    <defs>
        <path d="M30,58.5175119 C22.3258112,58.5175119 15.3545544,55.4648218 10.2227804,50.5157823 L17.8277878,42.9106183 C19.5190249,45.2653036 22.2739252,46.8070912 25.3883215,46.8070912 C30.5213309,46.8070912 34.6981552,42.6314164 34.6981552,37.4970659 C34.6981552,35.9342764 34.3386592,34.375193 32.5374732,31.4151584 L31.2761489,29.4619804 L34.221298,26.5180061 C35.251606,27.532275 36.6624115,28.1635679 38.2189919,28.1635679 C41.3642728,28.1635679 43.9239829,25.6038051 43.9239829,22.4584594 C43.9239829,21.4997838 43.7077911,20.5509914 42.621891,18.7670641 L42.366167,18.3717339 L50.5159776,10.2229909 C55.4649152,15.3548706 58.5175424,22.3250355 58.5175424,30.0006177 C58.5175424,45.7248749 45.7251688,58.5175119 30,58.5175119 L30,58.5175119 Z M30.2050733,30.5343134 L31.2810904,32.2021125 C32.89944,34.8619433 33.2156976,36.1566496 33.2156976,37.4970659 C33.2156976,41.8135771 29.7047439,45.3246031 25.3883215,45.3246031 C22.6816011,45.3246031 20.293609,43.9446538 18.8865096,41.8518747 L30.2050733,30.5343134 Z M18.1563993,40.4855149 C17.7734311,39.5639014 17.5597101,38.5558095 17.5597101,37.4970659 C17.5597101,36.1566496 17.8759677,34.8619433 19.4819634,32.2194082 L25.3883215,23.073692 L29.3823093,29.2593736 L18.1563993,40.4855149 Z M34.4041344,24.2374452 C34.1496459,23.6951016 33.997694,23.0959293 33.997694,22.4584594 C33.997694,21.8592872 34.0792291,21.1859905 35.0613573,19.5713139 L38.2189919,14.6803385 L40.4723275,18.1703626 L34.4041344,24.2374452 Z M41.3655082,19.5540182 C42.3587547,21.1859905 42.4402899,21.8592872 42.4402899,22.4584594 C42.4402899,24.7859658 40.5476857,26.6798443 38.2189919,26.6798443 C37.0713227,26.6798443 36.0311316,26.2165668 35.2689013,25.4703811 L41.2950914,19.444067 L41.3655082,19.5540182 Z M30,1.48248811 C37.5172953,1.48248811 44.3600725,4.41163753 49.4597266,9.18154302 L41.5434031,17.0980295 L38.2189919,11.9476188 L33.8049745,18.7831243 C32.7301927,20.5509914 32.5152364,21.4997838 32.5152364,22.4584594 C32.5152364,23.5085552 32.8203756,24.4795849 33.3169988,25.3258385 L30.4533849,28.188276 L25.3883215,20.3409723 L18.226816,31.4324541 C16.4367485,34.375193 16.0772525,35.9342764 16.0772525,37.4970659 C16.0772525,38.9709062 16.4305716,40.3595034 17.0420853,41.5998518 L9.18135398,49.4595095 C4.4115467,44.3609859 1.48369297,37.5180678 1.48369297,30.0006177 C1.48369297,14.2751251 14.2748312,1.48248811 30,1.48248811 L30,1.48248811 Z M30,0 C13.4582441,0 0,13.4572858 0,30.0006177 C0,46.5427142 13.4582441,60 30,60 C46.5417559,60 60,46.5427142 60,30.0006177 C60,13.4572858 46.5417559,0 30,0 L30,0 Z" id="path-1"></path>
    </defs>
    <g id="Yanbal-UI-Visual-Kit" stroke="none" stroke-width="1" fill="none" fill-rule="evenodd">
        <g id="yanbal-styleguide-pag2" transform="translate(-562.000000, -5445.000000)">
            <g id="Group" transform="translate(560.000000, 5443.000000)">
                <g id="elements" transform="translate(2.000000, 2.000000)">
                    <mask id="mask-2" fill="white">
                        <use xlink:href="#path-1"></use>
                    </mask>
                    <use id="icon" fill="#1B1F28" xlink:href="#path-1"></use>
                    <g id="Group" mask="url(#mask-2)">
                        <g transform="translate(-2.000000, -2.000000)" id="color">
                            <rect id="box" fill="#1C1F28" fill-rule="nonzero" x="0" y="0" width="64" height="64"></rect>
                        </g>
                    </g>
                </g>
            </g>
        </g>
    </g>
</svg>