<?xml version="1.0" encoding="UTF-8"?>
<svg width="60px" height="60px" viewBox="0 0 60 60" version="1.1" xmlns="http://www.w3.org/2000/svg" xmlns:xlink="http://www.w3.org/1999/xlink">
    <title>3. icons/seal/bloque2/seal24</title>
    <defs>
        <path d="M28.615252,15.0952176 L29.9991383,12.9530375 L31.3744076,15.0779836 C31.8483412,15.8621284 31.8879793,16.1654459 31.8879793,16.4308488 C31.8879793,17.4735028 31.0417923,18.3196898 29.9991383,18.3196898 C28.9582077,18.3196898 28.1120207,17.4735028 28.1120207,16.4308488 C28.1120207,16.1654459 28.1499354,15.8621284 28.615252,15.0952176 M29.9991383,19.7001293 C31.8018096,19.7001293 33.2666954,18.23352 33.2666954,16.4308488 C33.2666954,15.7811288 33.0736751,15.2210254 32.5428695,14.3472641 L29.9991383,10.4110297 L27.4467902,14.3644981 C26.9263249,15.2210254 26.7333046,15.7811288 26.7333046,16.4308488 C26.7333046,18.23352 28.1981904,19.7001293 29.9991383,19.7001293 M42.4816889,34.4523912 L17.5183111,34.4523912 C17.6423955,32.1258078 18.4282637,29.9336493 19.7604481,28.0241275 C20.1706161,28.2085308 20.6221456,28.3188281 21.1012495,28.3188281 C22.9039207,28.3188281 24.3688065,26.8522189 24.3688065,25.0495476 C24.3688065,24.7238259 24.3205515,24.4205084 24.205084,24.0896165 C27.3295993,22.4575614 31.1141749,22.2283498 34.4041361,23.4605773 C34.6143903,25.0633348 35.9724257,26.307626 37.6286084,26.307626 C37.9853511,26.307626 38.3214132,26.2369668 38.6419647,26.1301163 C40.9271866,28.3239983 42.3059026,31.3003016 42.4816889,34.4523912 M19.7173632,23.7156398 L21.1012495,21.5717363 L22.4765187,23.7001293 C22.9504524,24.4808272 22.9900905,24.7841448 22.9900905,25.0495476 C22.9900905,26.0922016 22.1439035,26.9383886 21.1012495,26.9383886 C20.0603188,26.9383886 19.2124084,26.0922016 19.2124084,25.0495476 C19.2124084,24.7841448 19.2520465,24.4808272 19.7173632,23.7156398 M36.2447221,21.7044377 L37.6286084,19.5605343 L39.0038776,21.6889272 C39.4795347,22.4696252 39.5191728,22.7729427 39.5191728,23.0383455 C39.5191728,24.0809996 38.6712624,24.9271866 37.6286084,24.9271866 C36.5876777,24.9271866 35.7397673,24.0809996 35.7397673,23.0383455 C35.7397673,22.7729427 35.7794054,22.4696252 36.2447221,21.7044377 M40.8961654,23.0383455 C40.8961654,22.3886256 40.7031452,21.8285222 40.1723395,20.9564843 L37.6286084,17.0185265 L35.0779836,20.9719948 C34.8246445,21.3856097 34.652305,21.7320121 34.538561,22.0508402 C30.9711331,20.8255062 26.9332184,21.11676 23.5777682,22.8642826 L21.1012495,19.0297286 L18.5489013,22.9831969 C18.028436,23.8397243 17.8354158,24.3998277 17.8354158,25.0495476 C17.8354158,25.8767773 18.1525205,26.6230073 18.660922,27.2003447 C17.0185265,29.5389918 16.1206377,32.2602327 16.1206377,35.1434726 L16.1206377,35.8328307 L29.3115037,35.8328307 L29.3115037,44.6617837 C29.3115037,45.8991814 28.3033175,46.9056441 27.0676433,46.9056441 C25.8302456,46.9056441 24.8220595,45.8991814 24.8220595,44.6617837 L23.4450668,44.6617837 C23.4450668,46.6591986 25.068505,48.2860836 27.0676433,48.2860836 C29.0650582,48.2860836 30.6902197,46.6591986 30.6902197,44.6617837 L30.6902197,35.8328307 L43.8793623,35.8328307 L43.8793623,35.1434726 C43.8793623,31.4915984 42.4179233,27.9965532 39.8655752,25.4080138 C40.4980612,24.8134425 40.8961654,23.9741491 40.8961654,23.0383455 M29.9991383,58.6230073 C14.2180095,58.6230073 1.37699268,45.7837139 1.37699268,30.0008617 C1.37699268,14.2197329 14.2180095,1.38043947 29.9991383,1.38043947 C45.7819905,1.38043947 58.6212839,14.2197329 58.6212839,30.0008617 C58.6212839,45.7837139 45.7819905,58.6230073 29.9991383,58.6230073 M29.9991383,1.24344979e-13 C13.4579922,1.24344979e-13 0,13.4597156 0,30.0008617 C0,46.5437312 13.4579922,60.0034468 29.9991383,60.0034468 C46.5420078,60.0034468 60,46.5437312 60,30.0008617 C60,13.4597156 46.5420078,1.24344979e-13 29.9991383,1.24344979e-13" id="path-1"></path>
    </defs>
    <g id="Yanbal-UI-Visual-Kit" stroke="none" stroke-width="1" fill="none" fill-rule="evenodd">
        <g id="yanbal-styleguide-pag2" transform="translate(-1090.000000, -5597.000000)">
            <g id="Group" transform="translate(1088.000000, 5595.000000)">
                <g id="elements" transform="translate(2.000000, 2.000000)">
                    <mask id="mask-2" fill="white">
                        <use xlink:href="#path-1"></use>
                    </mask>
                    <use id="icon" fill="#1C1F28" xlink:href="#path-1"></use>
                    <g id="Group" mask="url(#mask-2)">
                        <g transform="translate(-2.000000, -2.000000)" id="color">
                            <rect id="box" fill="#1C1F28" fill-rule="nonzero" x="0" y="0" width="64" height="64"></rect>
                        </g>
                    </g>
                </g>
            </g>
        </g>
    </g>
</svg>