<?xml version="1.0" encoding="UTF-8"?>
<svg width="60px" height="60px" viewBox="0 0 60 60" version="1.1" xmlns="http://www.w3.org/2000/svg" xmlns:xlink="http://www.w3.org/1999/xlink">
    <title>3. icons/seal/bloque2/seal20</title>
    <defs>
        <path d="M30,0 C46.542,0 60,13.458 60,30 C60,46.542 46.542,60 30,60 C13.458,60 0,46.542 0,30 C0,13.458 13.458,0 30,0 Z M30,1.5 C14.285,1.5 1.5,14.285 1.5,30 C1.5,45.715 14.285,58.5 30,58.5 C45.715,58.5 58.5,45.715 58.5,30 C58.5,14.285 45.715,1.5 30,1.5 Z M37.2486,14.6274 C39.4186,14.6274 41.4596,15.4724 42.9946,17.0074 C46.1626,20.1764 46.1626,25.3324 42.9946,28.5014 L42.9946,28.5014 L30.9126,40.5834 L20.4806,40.5834 L15.9076,45.1564 L14.8466,44.0954 L19.4186,39.5234 L19.4186,29.0924 L31.5036,17.0074 C33.0376,15.4724 35.0796,14.6274 37.2486,14.6274 Z M34.6956,34.6784 L26.3846,34.6784 L21.9806,39.0834 L30.2906,39.0834 L34.6956,34.6784 Z M37.2486,16.1274 C35.4796,16.1274 33.8156,16.8164 32.5646,18.0684 L32.5646,18.0684 L26.8186,23.8144 L26.8186,29.3524 L25.3186,29.3524 L25.3186,25.3144 L20.9186,29.7134 L20.9186,38.0234 L38.1786,20.7634 L39.2396,21.8244 L27.8846,33.1784 L36.1956,33.1784 L41.9336,27.4404 C44.5176,24.8564 44.5176,20.6524 41.9336,18.0684 C40.6826,16.8164 39.0186,16.1274 37.2486,16.1274 Z" id="path-1"></path>
    </defs>
    <g id="Yanbal-UI-Visual-Kit" stroke="none" stroke-width="1" fill="none" fill-rule="evenodd">
        <g id="yanbal-styleguide-pag2" transform="translate(-738.000000, -5597.000000)">
            <g id="Group" transform="translate(736.000000, 5595.000000)">
                <g id="elements" transform="translate(2.000000, 2.000000)">
                    <mask id="mask-2" fill="white">
                        <use xlink:href="#path-1"></use>
                    </mask>
                    <use id="icon" fill="#1C1F28" xlink:href="#path-1"></use>
                    <g id="Group" mask="url(#mask-2)">
                        <g transform="translate(-2.000000, -2.000000)" id="color">
                            <rect id="box" fill="#1C1F28" fill-rule="nonzero" x="0" y="0" width="64" height="64"></rect>
                        </g>
                    </g>
                </g>
            </g>
        </g>
    </g>
</svg>