<?xml version="1.0" encoding="UTF-8"?>
<svg width="60px" height="60px" viewBox="0 0 60 60" version="1.1" xmlns="http://www.w3.org/2000/svg" xmlns:xlink="http://www.w3.org/1999/xlink">
    <title>3. icons/seal/bloque2/seal17</title>
    <defs>
        <path d="M42.4841459,24.7779356 C42.4829106,24.7816419 42.4804398,24.7841127 42.477969,24.7878189 L42.4717921,24.7989376 C42.0072887,25.5895979 41.2401169,25.8243252 40.6755477,25.8811539 C39.51676,25.9935759 38.2023143,25.4709988 37.4079641,24.5691519 C36.8495717,23.9353882 36.64944,23.2645624 36.8582194,22.7271604 C37.0237605,22.2984743 37.4351425,21.9982704 37.9305304,21.9439125 C38.6977022,21.851257 39.5118185,22.3565384 40.1455691,23.3065662 L41.3784797,22.4837853 C40.427236,21.0568905 39.1103196,20.3168818 37.7699308,20.4700723 C36.882927,20.5676694 36.1392275,21.0680091 35.7019025,21.7882513 L35.6759595,21.7734264 L26.3834212,37.9893755 L27.6694531,38.7269133 L35.7056086,24.7038112 C35.8612667,24.9928964 36.0552215,25.2758046 36.2961209,25.5488295 C37.4091995,26.8126506 39.1869132,27.5180678 40.8250288,27.3562295 C40.890504,27.3500525 40.9559792,27.3414047 41.0202191,27.3315214 L30.6541344,45.4203471 C30.2921677,46.0528754 29.5509389,46.4457348 28.56634,46.5260362 C27.4643798,46.6199271 26.224057,46.3024276 25.073917,45.6427204 C23.9225416,44.9817778 23.0244194,44.071283 22.543856,43.0755451 C22.1164141,42.1860523 22.080588,41.3472111 22.4425548,40.7146828 L34.3405123,19.9536722 C34.6542991,19.4063871 35.2213392,19.1593057 35.6413688,19.0481191 C35.9489788,18.9665822 36.2825317,18.9270492 36.6358508,18.9270492 C37.679748,18.9270492 38.8805386,19.2741985 39.9664388,19.9141392 C42.1901252,21.2249058 43.2957915,23.3609241 42.4841459,24.7779356 M22.8749382,14.8576194 C23.7705897,13.9743035 25.37535,13.4307246 27.0591748,13.4603743 C29.6398863,13.4912595 31.6609702,14.7946136 31.6609702,16.4278214 C31.6609702,17.3580826 31.106284,17.9510779 30.6405452,18.2846377 C29.6917724,18.9641114 28.2908499,19.1593057 27.1530637,18.7701526 C26.353772,18.4983631 25.8460303,18.015319 25.7595536,17.4457965 C25.6903723,16.9911668 25.8979163,16.5266539 26.3006506,16.2326271 C26.9294597,15.7755266 27.8769972,15.8039409 28.8998929,16.3141639 L29.5620573,14.9873371 C28.0277137,14.2226203 26.5217839,14.2386806 25.4284714,15.0342825 C24.5760583,15.6556921 24.1412041,16.6650195 24.293156,17.6681697 C24.4661094,18.8035086 25.3345824,19.7164741 26.6749712,20.1735746 C28.2686131,20.7171536 30.163688,20.4478349 31.5028414,19.4903947 C31.5621397,19.4483909 31.6041426,19.394033 31.6609702,19.3483229 L31.6609702,21.6486503 L22.1967139,38.1635679 L22.1967139,16.2919266 C22.1967139,15.6618692 22.5648575,15.1640002 22.8749382,14.8576194 M30,0 C46.5417559,0 60,13.4572858 60,30.0006177 C60,46.5427142 46.5417559,60 30,60 C13.4582441,60 0,46.5427142 0,30.0006177 C0,13.4572858 13.4582441,0 30,0 Z M30,1.48248811 C14.2748312,1.48248811 1.48369297,14.2751251 1.48369297,30.0006177 C1.48369297,45.7248749 14.2748312,58.5175119 30,58.5175119 C45.7251688,58.5175119 58.5175424,45.7248749 58.5175424,30.0006177 C58.5175424,14.2751251 45.7251688,1.48248811 30,1.48248811 Z M27.0764701,11.9778434 C30.5355378,12.01989 33.1434278,13.9322997 33.1434278,16.4278214 C33.1434278,16.4315276 33.1421924,16.4352338 33.1421924,16.43894 L33.1421924,16.43894 L33.1434278,16.43894 L33.1434278,19.0938291 C33.6005189,18.3785286 34.3232169,17.863364 35.2621067,17.6150473 C36.8693378,17.1863611 38.9101878,17.5705726 40.7200214,18.6367286 C43.6997612,20.3934771 45.0105007,23.3498054 43.7701779,25.5154735 C43.7652364,25.5241213 43.7602948,25.5327692 43.7553533,25.541417 L43.7553533,25.541417 L31.9401664,46.157885 C31.3373003,47.2116869 30.1513342,47.8849836 28.6874073,48.0035827 C28.5255724,48.0171722 28.3612667,48.0233492 28.1957256,48.0233492 C26.9344013,48.0233492 25.5816587,47.6428439 24.3363943,46.9287788 C22.9268242,46.1208228 21.8174518,44.9817778 21.2084088,43.7179566 C20.8452067,42.9643585 20.706844,42.203348 20.7463762,41.4880474 L20.7463762,41.4880474 L20.7130209,41.4880474 L20.7130209,16.2919266 C20.7130209,15.3876089 21.1009307,14.5265304 21.8335118,13.802582 C23.0170071,12.6338872 24.954085,11.9717092 27.0764701,11.9778434 Z" id="path-1"></path>
    </defs>
    <g id="Yanbal-UI-Visual-Kit" stroke="none" stroke-width="1" fill="none" fill-rule="evenodd">
        <g id="yanbal-styleguide-pag2" transform="translate(-474.000000, -5597.000000)">
            <g id="Group" transform="translate(472.000000, 5595.000000)">
                <g id="elements" transform="translate(2.000000, 2.000000)">
                    <mask id="mask-2" fill="white">
                        <use xlink:href="#path-1"></use>
                    </mask>
                    <use id="icon" fill="#1B1F28" xlink:href="#path-1"></use>
                    <g id="Group" mask="url(#mask-2)">
                        <g transform="translate(-2.000000, -2.000000)" id="color">
                            <rect id="box" fill="#1C1F28" fill-rule="nonzero" x="0" y="0" width="64" height="64"></rect>
                        </g>
                    </g>
                </g>
            </g>
        </g>
    </g>
</svg>