<?xml version="1.0" encoding="UTF-8"?>
<svg width="20px" height="20px" viewBox="0 0 20 20" version="1.1" xmlns="http://www.w3.org/2000/svg" xmlns:xlink="http://www.w3.org/1999/xlink">
    <title>3. icons/outline/icon-travel</title>
    <defs>
        <path d="M20,1.87500628 C20,0.839489418 19.1603318,0 18.1247872,0 L18.1247872,0 C16.7046105,0.0020535783 15.419237,0.577167111 14.4870214,1.50641129 L14.4871776,1.50625504 L12.918358,3.12501046 L6.04312853,2.24375751 C5.97305946,2.23931553 5.89120431,2.23674856 5.80874647,2.23674856 C5.72628863,2.23674856 5.64443348,2.23927089 5.56322568,2.24429323 L5.57434208,2.24375751 C5.56869459,2.24373519 5.56202028,2.24371287 5.55527901,2.24371287 C4.75891573,2.24371287 4.02163904,2.49654854 3.41927714,2.92639373 L3.43050516,2.91878209 L1.75545468,4.11253609 C1.62888837,4.2083623 1.54281435,4.35200118 1.5244879,4.51608655 L1.52422004,4.51876513 C1.51991187,4.54501522 1.51750109,4.57532782 1.51750109,4.60610917 C1.51750109,4.74148909 1.56480162,4.86586451 1.6438665,4.96356573 L1.64299594,4.96251662 C1.69623415,5.03662401 1.76552195,5.09595456 1.84603777,5.13604398 L1.84922983,5.1375172 L8.03068842,8.1250272 L5.53061309,10.9812868 L2.59302457,10.9812868 C2.13859123,10.9851707 1.72831101,11.1707294 1.43051186,11.4687661 L0.180451866,12.7187926 C0.0691761917,12.8248644 0,12.9742175 0,13.1397315 C0,13.397969 0.168420254,13.6168759 0.401373702,13.6925682 L0.405436325,13.6937289 L4.82431948,15.1874839 L6.24936242,19.6062487 C6.31530191,19.8054011 6.47950329,19.9551115 6.68299156,19.9992857 L6.68687561,20 L6.87438126,20 C6.87500628,20 6.87576523,20 6.87650186,20 C7.03768975,20 7.18322985,19.9329016 7.28678208,19.8252003 L7.28698298,19.8249771 L8.53702065,18.5749729 C8.83062324,18.2750835 9.01339661,17.8655732 9.01828515,17.4134065 L9.01828515,14.4624591 L11.8746212,12.0061786 L14.8497332,18.1936993 C14.9474147,18.3766017 15.1285586,18.5038343 15.3409087,18.5247049 L15.3435204,18.5249281 L15.3997721,18.5249281 C15.5932154,18.5183656 15.7634884,18.4249278 15.8737373,18.2826282 L15.8747864,18.2811773 L17.0685724,16.6061717 C17.5069338,16.0097634 17.7700891,15.260944 17.7700891,14.450718 C17.7700891,14.27853 17.7581914,14.1091544 17.7352443,13.943261 L17.7374318,13.9624128 L16.8749058,7.08113978 L18.4687039,5.48738444 C19.4007855,4.56401082 19.9830575,3.28905119 20,1.87808665 L20,1.87487235 L20,1.87500628 Z M15.8496964,6.47502168 C15.7398493,6.58754438 15.6720348,6.74158507 15.6720348,6.91149636 C15.6720348,6.93169732 15.6729723,6.95163042 15.6748473,6.97127334 L15.6746241,6.96877333 L16.5746512,14.1187973 C16.5876427,14.2146458 16.595076,14.3253605 16.595076,14.4378608 C16.595076,14.9896707 16.4162759,15.4997617 16.113499,15.9132899 L16.1183875,15.9062363 L15.4933687,16.7624892 L12.6745337,10.8124692 C12.5802898,10.6341427 12.4070257,10.5084727 12.2027115,10.4815306 L12.1995417,10.4812181 C12.1662595,10.4749235 12.1279771,10.4713743 12.0888687,10.4713743 C11.9382615,10.4713743 11.8000877,10.5246558 11.692205,10.6133838 L11.6932541,10.6124909 L8.03689397,13.7375014 C7.91032765,13.8459392 7.83063775,14.0059398 7.83063775,14.1845341 C7.83063775,14.1855609 7.83063775,14.186677 7.83063775,14.1877038 L7.83063775,14.1875252 L7.83063775,17.418786 C7.8306824,17.4210628 7.83070472,17.423853 7.83070472,17.4265985 C7.83070472,17.5477373 7.77768973,17.65651 7.69351309,17.7309299 L7.69308897,17.7312647 L7.12432183,18.3062667 L5.87428416,14.5562318 C5.81698332,14.3804946 5.68126495,14.2447798 5.50958567,14.1886189 L5.50552305,14.1874805 L1.71790891,12.9374764 L2.29292624,12.3562244 C2.37065179,12.2760456 2.47891399,12.2259561 2.59896225,12.224974 L5.83678303,12.224974 C6.01460089,12.2225409 6.17413694,12.1462014 6.28648408,12.0253304 L6.28679659,12.0249733 L9.41189076,8.36246104 C9.50345602,8.25444728 9.5590827,8.11348699 9.5590827,7.95960254 C9.5590827,7.92087474 9.55560045,7.88297282 9.54879221,7.84616466 L9.54937258,7.85000396 C9.51271969,7.66683371 9.39403308,7.51725731 9.23405058,7.43906509 L9.23061298,7.43750258 L3.28043367,4.50624277 L4.14295967,3.88124067 C4.54732453,3.58811469 5.05338889,3.4123775 5.60057055,3.4123775 C5.60891902,3.4123775 5.61720052,3.41242214 5.62552666,3.41253375 L5.91801315,3.41253375 L13.0620008,4.33128682 C13.080796,4.33347433 13.1025377,4.33470201 13.1246142,4.33470201 C13.2921639,4.33470201 13.443106,4.2637866 13.5492699,4.15039336 L13.5495824,4.15008086 L15.362137,2.35630253 C16.0667342,1.64259479 17.043393,1.19895491 18.1237827,1.19379864 L18.1247203,1.19379864 C18.1340509,1.19330757 18.1450111,1.19297274 18.1559712,1.19297274 C18.5011825,1.19297274 18.7809901,1.47277279 18.7809901,1.81797484 C18.7809901,1.81828734 18.7809901,1.81851055 18.7809901,1.81884538 L18.7809901,1.81880073 C18.7809901,1.8207427 18.7809901,1.8230195 18.7809901,1.82536325 C18.7809901,2.91416154 18.3390348,3.8997452 17.6247945,4.61256009 L17.6247275,4.61262705 L15.8496964,6.47502168 Z" id="path-1"></path>
    </defs>
    <g id="Yanbal-UI-Visual-Kit" stroke="none" stroke-width="1" fill="none" fill-rule="evenodd">
        <g id="yanbal-styleguide-pag2" transform="translate(-698.000000, -4684.000000)">
            <g id="Group" transform="translate(696.000000, 4682.000000)">
                <g id="colors/brand-secondary" transform="translate(2.000000, 2.000000)">
                    <mask id="mask-2" fill="white">
                        <use xlink:href="#path-1"></use>
                    </mask>
                    <use id="Mask" fill="#000000" fill-rule="nonzero" xlink:href="#path-1"></use>
                    <g id="Group" mask="url(#mask-2)">
                        <g transform="translate(-4.000000, -3.000000)" id="colors/brand-secondary">
                            <rect id="box" fill="#1C1F28" fill-rule="nonzero" x="0" y="0" width="26.4058266" height="25.7456809"></rect>
                        </g>
                    </g>
                </g>
            </g>
        </g>
    </g>
</svg>