<?xml version="1.0" encoding="UTF-8"?>
<svg width="20px" height="20px" viewBox="0 0 20 20" version="1.1" xmlns="http://www.w3.org/2000/svg" xmlns:xlink="http://www.w3.org/1999/xlink">
    <title>3. icons/outline/icon-award</title>
    <defs>
        <path d="M19.4750586,1.55961332 L16.2125399,1.55961332 L16.2125399,0.52613677 C16.209079,0.236976369 15.9760595,0.00344611529 15.6878441,4.54747351e-13 L4.31246853,4.54747351e-13 C4.02394054,0.00346849266 3.79092104,0.236998747 3.78748246,0.525845865 L3.78748246,1.55970283 L0.524963744,1.55970283 C0.524963744,1.55970283 0.524941416,1.55970283 0.524919087,1.55970283 C0.237083282,1.55970283 0.00348323526,1.7917338 -4.54747351e-13,2.07928303 L-4.54747351e-13,4.38457752 C0.102152572,6.74982098 1.91401544,8.66064715 4.22275289,8.91136323 L4.24376395,8.91322055 L4.41872953,8.91322055 L4.41872953,8.97587719 C5.20064886,10.5153733 6.55480123,11.6682107 8.19330616,12.1650555 L8.23758344,12.176647 L8.32511089,12.176647 L8.32511089,12.2643663 C8.10008496,13.4954126 7.55096185,14.5714286 6.77038223,15.4327784 L6.77502654,15.4274973 L6.74376674,15.4650913 L6.05000006,15.4650913 C5.76278945,15.4686045 5.53126594,15.7028733 5.53126594,15.9912057 C5.53126594,15.9912281 5.53126594,15.9912281 5.53126594,15.9912504 L5.53126594,15.9912504 L5.53126594,19.4738856 C5.53126594,19.4738856 5.53126594,19.473908 5.53126594,19.4739304 C5.53126594,19.7623971 5.76278945,19.9965091 6.04970979,20 L13.9500669,20 C14.2372775,19.9964868 14.468801,19.762218 14.468801,19.4738856 C14.468801,19.4738632 14.468801,19.4738632 14.468801,19.4738409 L14.468801,19.4738409 L14.468801,16.0350653 C14.468801,16.0350653 14.468801,16.035043 14.468801,16.0350206 C14.468801,15.7465539 14.2372775,15.5124418 13.9503572,15.5089509 L13.2312701,15.5089509 L13.2000103,15.471357 C12.4232488,14.626544 11.8738801,13.560486 11.6559323,12.3780433 L11.6500376,12.3395095 L11.6500376,12.2455245 L11.737565,12.2455245 C13.4202802,11.7371106 14.774321,10.5842508 15.5399182,9.08017812 L15.5563296,9.04473237 L15.5875894,8.98834139 L15.768807,8.98834139 C18.1165075,8.72319191 19.9337739,6.77653956 20,4.39117884 L20,4.38464465 L20,2.07957393 C19.9964944,1.7917338 19.7627381,1.55970283 19.4750363,1.55970283 C19.4750139,1.55970283 19.4750139,1.55970283 19.4749916,1.55970283 L19.4749916,1.55970283 L19.4750586,1.55961332 Z M18.9500725,2.60557644 L18.9500725,4.38448801 C18.8752499,6.02385428 17.7289083,7.37506713 16.2000583,7.75546008 L16.1750951,7.76074114 L15.9938775,7.81088883 L16.0376413,7.62927408 C16.1439469,7.20204529 16.2075383,6.71023541 16.2125399,6.20455156 L16.2125622,6.2011502 L16.2125622,2.60580021 L18.9500725,2.60557644 Z M6.57500846,18.9914518 L6.57500846,16.5611574 L13.4500217,16.5611574 L13.4500217,18.9914518 L6.57500846,18.9914518 Z M15.1625454,1.05213928 L15.1625454,6.21970104 C15.1625454,9.07711242 12.8511955,11.3935285 10.0000335,11.3935285 C7.14887147,11.3935285 4.83752159,9.07711242 4.83752159,6.21970104 L4.83752159,6.21970104 L4.83752159,1.05213928 L15.1625454,1.05213928 Z M8.12504815,15.5088167 L8.24388006,15.339778 C8.80383245,14.5442624 9.20228331,13.5942759 9.36988051,12.5664384 L9.37515002,12.5273451 L9.37515002,12.4333602 L9.71266658,12.4333602 C9.826162,12.4473237 9.95752016,12.4552676 10.0908209,12.4552676 C10.2241216,12.4552676 10.3555021,12.447346 10.4845604,12.4318609 L10.4689752,12.4334497 L10.5752809,12.4334497 L10.6253189,12.5274347 C10.8021601,13.6002059 11.2071085,14.5543323 11.7893,15.3730755 L11.7753001,15.3523317 L11.894132,15.5213704 L8.12504815,15.5088167 Z M3.96251503,7.64782492 L4.00627875,7.82943967 L3.82506121,7.77929198 C2.26539797,7.39193967 1.11635457,6.03150734 1.05026241,4.39144737 L1.0500168,4.38430899 L1.0500168,2.60539742 L3.7874378,2.60539742 L3.7874378,6.21952202 C3.79257334,6.72856248 3.85609773,7.22039474 3.97155804,7.69166219 L3.96247037,7.64762352 L3.96251503,7.64782492 Z" id="path-1"></path>
    </defs>
    <g id="Yanbal-UI-Visual-Kit" stroke="none" stroke-width="1" fill="none" fill-rule="evenodd">
        <g id="yanbal-styleguide-pag2" transform="translate(-602.000000, -4588.000000)">
            <g id="Group" transform="translate(600.000000, 4586.000000)">
                <g id="colors/brand-secondary" transform="translate(2.000000, 2.000000)">
                    <mask id="mask-2" fill="white">
                        <use xlink:href="#path-1"></use>
                    </mask>
                    <use id="Mask" fill="#000000" fill-rule="nonzero" xlink:href="#path-1"></use>
                    <g id="Group" mask="url(#mask-2)">
                        <g transform="translate(-4.000000, -3.000000)" id="colors/brand-secondary">
                            <rect id="box" fill="#1C1F28" fill-rule="nonzero" x="0" y="0" width="26.4058266" height="25.7456809"></rect>
                        </g>
                    </g>
                </g>
            </g>
        </g>
    </g>
</svg>