<?xml version="1.0" encoding="UTF-8"?>
<svg width="20px" height="20px" viewBox="0 0 20 20" version="1.1" xmlns="http://www.w3.org/2000/svg" xmlns:xlink="http://www.w3.org/1999/xlink">
    <title>3. icons/outline/icon-whatsapp</title>
    <defs>
        <path d="M10,1.0658141e-13 C15.5125,1.0658141e-13 20,4.33614495 20,9.64698532 C20,14.9578257 15.5125,19.2752265 10,19.2752265 C8.81637044,19.2683688 7.6428376,19.0569875 6.53125,18.6504217 L6.53125,18.6504217 L4.175,19.868791 C4.01276149,19.9532049 3.83288823,19.9981592 3.65,20 L3.65,20 L3.5875,20 C3.38426332,19.9812136 3.18989677,19.9078091 3.025,19.7875664 C2.86061869,19.6692743 2.73631912,19.5035933 2.66875,19.3127148 C2.5946149,19.1325306 2.57930326,18.9335416 2.625,18.7441425 L2.625,18.7441425 L3.125,16.5948141 C1.13985896,14.8198091 0.00361366618,12.2845019 0,9.62199313 C0,4.31740081 4.4875,1.0658141e-13 10,1.0658141e-13 Z M10.2604123,1.11142912 L10,1.11215245 C5.21026241,1.02849891 1.25539226,4.83404688 1.15625,9.62199313 C1.1627437,12.1943076 2.34909057,14.6215289 4.375,16.2074352 L4.375,16.2074352 L4.15,17.1758825 L3.75,18.8441112 L5.625,17.8756639 L6.4875,17.4070603 C7.59942577,17.8752319 8.79347742,18.117366 10,18.1193377 C14.7849633,18.2030552 18.7378281,14.4050222 18.84375,9.62199313 C18.7446077,4.83404688 14.7897376,1.02849891 10,1.11215245 Z M7,5.20462356 C7.14375,5.20462356 7.35625,5.11715089 7.5625,5.59825055 C7.76875,6.0793502 8.26875,7.25398313 8.33125,7.37269603 C8.40736608,7.5018623 8.40736608,7.66214894 8.33125,7.79131521 C8.2698177,7.93710082 8.18541442,8.07210388 8.08125,8.19119025 C7.95625,8.3286473 7.8125,8.49109653 7.70625,8.60980943 C7.6,8.72852234 7.45625,8.85973133 7.6,9.09715714 C7.97844021,9.71249483 8.44602042,10.2683624 8.9875,10.7466417 C9.58657487,11.2529637 10.2670063,11.654335 11,11.9337707 C11.25,12.0524836 11.39375,12.0337395 11.54375,11.8712902 C11.8220274,11.5746597 12.084874,11.2639303 12.33125,10.9403311 C12.5,10.7029053 12.6625,10.7403936 12.89375,10.8216182 C13.125,10.9028429 14.3625,11.4776632 14.60625,11.5963761 C14.85,11.715089 15.01875,11.7713215 15.08125,11.8712902 C15.167115,12.2822358 15.1166495,12.7099622 14.9375,13.0896595 C14.5561338,13.6853231 13.9454023,14.0968728 13.25,14.2268041 C12.7875,14.2268041 12.79375,14.5579506 10.25,13.6019994 C7.70625,12.6460481 6.10625,10.1593252 5.98125,9.99687598 C5.3952043,9.286833 5.03980049,8.41494887 4.96245509,7.49765698 C4.95807226,6.73485383 5.28124136,6.00681294 5.85,5.49828179 C6.02403672,5.31403924 6.26528757,5.20810235 6.51875,5.20462356 L6.51875,5.20462356 Z" id="path-1"></path>
    </defs>
    <g id="Yanbal-UI-Visual-Kit" stroke="none" stroke-width="1" fill="none" fill-rule="evenodd">
        <g id="yanbal-styleguide-pag2" transform="translate(-746.000000, -4540.000000)">
            <g id="Group" transform="translate(744.000000, 4538.000000)">
                <g id="elements" transform="translate(2.000000, 2.000000)">
                    <mask id="mask-2" fill="white">
                        <use xlink:href="#path-1"></use>
                    </mask>
                    <use id="icon" fill="#000000" fill-rule="nonzero" xlink:href="#path-1"></use>
                    <g id="Group" mask="url(#mask-2)">
                        <g transform="translate(-2.000000, -2.000000)" id="color">
                            <rect id="box" fill="#1C1F28" fill-rule="nonzero" x="0" y="0" width="24" height="24"></rect>
                        </g>
                    </g>
                </g>
            </g>
        </g>
    </g>
</svg>