<?xml version="1.0" encoding="UTF-8"?>
<svg width="16px" height="18px" viewBox="0 0 16 18" version="1.1" xmlns="http://www.w3.org/2000/svg" xmlns:xlink="http://www.w3.org/1999/xlink">
    <title>3. icons/outline/icon-funnel</title>
    <defs>
        <path d="M15.9399586,1.02070315 C15.9676231,0.911986144 15.9888903,0.782626074 15.999414,0.650397605 L16,0.64195699 C16,0.639793935 16,0.637254697 16,0.634691948 C16,0.314136659 15.7559764,0.0484336141 15.4370659,0.000470229263 L15.4333057,0 L0.546745595,0 C0.233695163,0.0565920918 0,0.317757424 0,0.631470877 C0,0.635138665 0,0.638829965 0,0.642474242 L0,0.641933478 C0.00590891541,0.758244686 0.0397997195,0.865833142 0.0953484078,0.960020063 L0.0934194643,0.956493344 L5.53340628,11.5548967 L5.53340628,17.3580195 C5.52830312,17.3859981 5.5253975,17.4182324 5.5253975,17.4511014 C5.5253975,17.4839704 5.52830312,17.5162046 5.53389462,17.5475454 L5.53340628,17.5441833 C5.61036868,17.7542817 5.79156728,17.9117615 6.01561773,17.9606418 L6.02006162,17.9614647 L6.14671263,18 L9.79336804,18 L9.94670683,17.9550696 C10.1387222,17.8918943 10.2883984,17.7519776 10.3584996,17.574325 L10.3600135,17.5699283 C10.3803529,17.5145353 10.3924881,17.4506547 10.3933427,17.3841407 L10.3933427,11.4907574 L15.9399586,1.02070315 Z M9.13335195,11.1504995 L9.13335195,16.6198301 L6.8533652,16.6198301 L6.8533652,11.099174 L1.70005845,1.28391398 L14.2933245,1.28391398 L14.2466636,1.38021693 L9.13335195,11.1504995 Z" id="path-1"></path>
    </defs>
    <g id="Yanbal-UI-Visual-Kit" stroke="none" stroke-width="1" fill="none" fill-rule="evenodd">
        <g id="yanbal-styleguide-pag2" transform="translate(-220.000000, -4637.000000)">
            <g id="Group" transform="translate(216.000000, 4634.000000)">
                <g id="colors/brand-secondary" transform="translate(4.000000, 3.000000)">
                    <mask id="mask-2" fill="white">
                        <use xlink:href="#path-1"></use>
                    </mask>
                    <use id="Mask" fill="#000000" fill-rule="nonzero" xlink:href="#path-1"></use>
                    <g id="Group" mask="url(#mask-2)">
                        <g transform="translate(-6.000000, -4.000000)" id="colors/brand-secondary">
                            <rect id="box" fill="#1C1F28" fill-rule="nonzero" x="0" y="0" width="26.4058266" height="25.7456809"></rect>
                        </g>
                    </g>
                </g>
            </g>
        </g>
    </g>
</svg>