<?xml version="1.0" encoding="UTF-8"?>
<svg width="20px" height="20px" viewBox="0 0 20 20" version="1.1" xmlns="http://www.w3.org/2000/svg" xmlns:xlink="http://www.w3.org/1999/xlink">
    <title>3. icons/outline/icon-play</title>
    <defs>
        <path d="M10,0 C15.5139013,0 20,4.48589749 20,9.99955159 C20,15.5141025 15.5139013,20 10,20 C4.48609865,20 0,15.5141025 0,9.99955159 C0,4.48589749 4.48609865,0 10,0 Z M10,1.24658087 C5.17309417,1.24658087 1.24573991,5.1728622 1.24573991,9.99955159 C1.24573991,14.8271378 5.17309417,18.7534191 10,18.7534191 C14.8269058,18.7534191 18.7542601,14.8271378 18.7542601,9.99955159 C18.7542601,5.1728622 14.8269058,1.24658087 10,1.24658087 Z M7.33374313,6.07671365 C7.54594867,5.96772638 7.79928656,5.97570105 7.99746971,6.09532124 L7.99746971,6.09532124 L13.6971049,9.50759765 C13.8878094,9.62190138 14.0009234,9.81772405 13.9999943,10.0312682 C13.9999943,10.2430402 13.885005,10.4379768 13.6933656,10.5513945 L13.6933656,10.5513945 L8.01990554,13.906076 C7.91520501,13.9672152 7.79648208,14 7.67588951,14 C7.5683845,14 7.45994466,13.9734177 7.36272274,13.9229114 C7.15612616,13.8139242 7.02712014,13.6083547 7.02712014,13.3850637 L7.02712014,13.3850637 L7.00000506,6.61810573 C6.99907536,6.39392865 7.12621172,6.18747308 7.33374313,6.07671365 Z M8.3040927,7.7363329 L8.32185439,12.2765833 L12.1275317,10.0250657 L8.3040927,7.7363329 Z" id="path-1"></path>
    </defs>
    <g id="Yanbal-UI-Visual-Kit" stroke="none" stroke-width="1" fill="none" fill-rule="evenodd">
        <g id="yanbal-styleguide-pag2" transform="translate(-218.000000, -4540.000000)">
            <g id="Group" transform="translate(216.000000, 4538.000000)">
                <g id="elements" transform="translate(2.000000, 2.000000)">
                    <mask id="mask-2" fill="white">
                        <use xlink:href="#path-1"></use>
                    </mask>
                    <use id="icon" fill="#1E1210" xlink:href="#path-1"></use>
                    <g id="Group" mask="url(#mask-2)">
                        <g transform="translate(-2.000000, -2.000000)" id="color">
                            <rect id="box" fill="#1C1F28" fill-rule="nonzero" x="0" y="0" width="24" height="24"></rect>
                        </g>
                    </g>
                </g>
            </g>
        </g>
    </g>
</svg>