<?xml version="1.0" encoding="UTF-8"?>
<svg width="14px" height="20px" viewBox="0 0 14 20" version="1.1" xmlns="http://www.w3.org/2000/svg" xmlns:xlink="http://www.w3.org/1999/xlink">
    <title>3. icons/outline/icon-bookmark</title>
    <defs>
        <path d="M7.00015909,22.3746566 C7,22.3780941 7,22.3819743 7,22.3860629 C7,22.6188251 7.12950098,22.8217434 7.32155168,22.9293744 L7.32465397,22.930937 C7.40913189,22.9744269 7.50930689,23 7.61550088,23 C7.62281911,23 7.63024341,23 7.6374821,22.9996875 L7.63647452,22.9997135 C7.63899348,22.9997656 7.64193668,22.9997917 7.64506549,22.9997917 C7.76502095,22.9997917 7.87641194,22.9647914 7.96971947,22.9045826 L7.96749218,22.9059888 L14.0001326,18.8373112 L14.0446784,18.8373112 L20.0582277,22.8810147 C20.1495466,22.9336974 20.2592406,22.9647393 20.3764119,22.9647393 C20.4935833,22.9647393 20.6032773,22.9336974 20.6975129,22.8794261 L20.6945697,22.8809887 C20.8713475,22.7743212 20.9899772,22.5891114 21,22.376167 L21,22.3747347 L21,3.62497884 C21,3.27976781 20.7151456,3 20.3636581,3 L20.3636581,3 L7.63655406,3 C7.28506655,3 7.00021212,3.27976781 7.00021212,3.62497884 L7.00021212,3.62497884 L7.00015909,22.3746566 Z M8.27286949,4.2811298 L19.7272631,4.2811298 L19.7272631,21.2121996 L14.3182373,17.543473 C14.2269184,17.4907903 14.1172244,17.4597484 14.000053,17.4597484 C13.8828817,17.4597484 13.7731877,17.4907903 13.6789521,17.5450615 L13.6818953,17.543499 L8.27286949,21.2121996 L8.27286949,4.2811298 Z" id="path-1"></path>
    </defs>
    <g id="Yanbal-UI-Visual-Kit" stroke="none" stroke-width="1" fill="none" fill-rule="evenodd">
        <g id="yanbal-styleguide-pag2" transform="translate(-797.000000, -4588.000000)">
            <g id="Group" transform="translate(792.000000, 4586.000000)">
                <g id="colors/brand-secondary" transform="translate(-2.000000, -1.000000)">
                    <mask id="mask-2" fill="white">
                        <use xlink:href="#path-1"></use>
                    </mask>
                    <use id="Shape" fill="#000000" fill-rule="nonzero" xlink:href="#path-1"></use>
                    <g id="Group" mask="url(#mask-2)" fill="#1C1F28" fill-rule="nonzero">
                        <g id="colors/brand-secondary">
                            <rect id="box" x="0" y="0" width="26.4058266" height="25.7456809"></rect>
                        </g>
                    </g>
                </g>
            </g>
        </g>
    </g>
</svg>