<?xml version="1.0" encoding="UTF-8"?>
<svg width="18px" height="18px" viewBox="0 0 18 18" version="1.1" xmlns="http://www.w3.org/2000/svg" xmlns:xlink="http://www.w3.org/1999/xlink">
    <title>3. icons/outline/icon-alert </title>
    <defs>
        <path d="M9.00231029,1.95399252e-14 C9.20716256,1.95399252e-14 9.38461281,0.117872127 9.47180109,0.292520568 L9.47180109,0.292520568 L17.807563,17.0100509 L17.9020036,17.1430313 C17.9593992,17.2272917 17.9945558,17.3279059 17.9989152,17.4375006 L17.9988147,17.4359336 L17.998,17.436 L18,17.4713735 C18,17.7277309 17.8175539,17.9414979 17.5749909,17.9898582 L17.4814507,18 L0.562464843,18 L0.471219718,17.9926384 C0.203942825,17.949048 1.95399252e-14,17.7171149 1.95399252e-14,17.4375006 L1.95399252e-14,17.4375006 C0.00556478183,17.3156305 0.0491790105,17.2048503 0.118105965,17.1168933 L0.118105965,17.1168933 L8.476348,0.388112111 L8.54382852,0.269998895 C8.63983607,0.113753534 8.80649827,0.00890017937 8.99941741,1.95399252e-14 L8.99941741,1.95399252e-14 Z M8.99933705,1.68751821 L1.42854177,16.9144192 L16.5701323,16.9144192 L8.99933705,1.68751821 Z M8.99931696,13.6631415 C9.40391878,13.6662355 9.73063376,13.9949595 9.73063376,14.3999879 L9.73051322,14.4118615 L9.73051322,14.4118615 C9.72115153,14.8078291 9.3974098,15.125664 8.99957812,15.125664 C8.59575978,15.125664 8.26836177,14.7982659 8.26836177,14.3944027 C8.26836177,14.0242684 8.543332,13.7183693 8.90011047,13.6698481 L8.99931696,13.6631415 Z M9.03308735,6.39565282 L9.13069562,6.40514752 C9.35176559,6.44525675 9.53053013,6.60774279 9.59555219,6.8231427 L9.59555219,6.8231427 L9.59555219,6.93565061 L9.62932258,7.00876066 L9.62932258,7.00876066 L9.62932258,12.1781375 L9.62152038,12.2748639 C9.57532049,12.5581963 9.32950138,12.7743893 9.03310744,12.7743893 C8.70378084,12.7743893 8.43689229,12.5074843 8.43689229,12.1781375 L8.43689229,12.1781375 L8.43675167,6.99748978 C8.43675167,6.66705806 8.70311788,6.39874679 9.03308735,6.39565282 L9.03308735,6.39565282 Z" id="path-1"></path>
    </defs>
    <g id="Yanbal-UI-Visual-Kit" stroke="none" stroke-width="1" fill="none" fill-rule="evenodd">
        <g id="yanbal-styleguide-pag2" transform="translate(-171.000000, -4493.000000)">
            <g id="Group" transform="translate(168.000000, 4490.000000)">
                <g id="elements" transform="translate(3.000000, 3.000000)">
                    <mask id="mask-2" fill="white">
                        <use xlink:href="#path-1"></use>
                    </mask>
                    <use id="icon" fill="#000000" fill-rule="nonzero" xlink:href="#path-1"></use>
                    <g id="Group" mask="url(#mask-2)">
                        <g transform="translate(-3.000000, -3.000000)" id="color">
                            <rect id="box" fill="#1C1F28" fill-rule="nonzero" x="0" y="0" width="24" height="24"></rect>
                        </g>
                    </g>
                </g>
            </g>
        </g>
    </g>
</svg>