<?xml version="1.0" encoding="UTF-8"?>
<svg width="20px" height="18px" viewBox="0 0 20 18" version="1.1" xmlns="http://www.w3.org/2000/svg" xmlns:xlink="http://www.w3.org/1999/xlink">
    <title>3. icons/outline/icon-filter</title>
    <defs>
        <path d="M13.2142857,13.2398411 C14.4754464,13.2398411 15.515625,14.1780911 15.6897321,15.3998411 L15.6897321,15.3998411 L19.4642857,15.3998411 C19.7589286,15.3998411 20,15.6428411 20,15.9398411 C20,16.2368411 19.7589286,16.4798411 19.4642857,16.4798411 L19.4642857,16.4798411 L15.6138393,16.4798411 C15.3058036,17.5215911 14.3504464,18.2798411 13.2165179,18.2798411 C12.0825893,18.2798411 11.1272321,17.5215911 10.8191964,16.4798411 L10.8191964,16.4798411 L0.535714286,16.4798411 C0.241071429,16.4798411 0,16.2368411 0,15.9398411 C0,15.6428411 0.241071429,15.3998411 0.535714286,15.3998411 L0.535714286,15.3998411 L10.7388393,15.3998411 C10.9129464,14.1780911 11.953125,13.2398411 13.2142857,13.2398411 Z M13.2142857,14.2973411 C12.4129464,14.2973411 11.7633929,14.9520911 11.7633929,15.7598411 C11.7633929,16.5675911 12.4129464,17.2223411 13.2142857,17.2223411 C14.015625,17.2223411 14.6651786,16.5675911 14.6651786,15.7598411 C14.6651786,14.9520911 14.015625,14.2973411 13.2142857,14.2973411 Z M5.35714286,6.75984109 C6.61830357,6.75984109 7.65848214,7.69809109 7.83258929,8.91984109 L7.83258929,8.91984109 L19.4642857,8.91984109 C19.7589286,8.91984109 20,9.16284109 20,9.45984109 C20,9.75684109 19.7589286,9.99984109 19.4642857,9.99984109 L19.4642857,9.99984109 L7.75669643,9.99984109 C7.44866071,11.0415911 6.49330357,11.7998411 5.359375,11.7998411 C4.22544643,11.7998411 3.27008929,11.0415911 2.96205357,9.99984109 L2.96205357,9.99984109 L0.535714286,9.99984109 C0.241071429,9.99984109 0,9.75684109 0,9.45984109 C0,9.16284109 0.241071429,8.91984109 0.535714286,8.91984109 L0.535714286,8.91984109 L2.88169643,8.91984109 C3.05580357,7.69809109 4.09598214,6.75984109 5.35714286,6.75984109 Z M5.35714286,7.81734109 C4.55580357,7.81734109 3.90625,8.47209109 3.90625,9.27984109 C3.90625,10.0875911 4.55580357,10.7423411 5.35714286,10.7423411 C6.15848214,10.7423411 6.80803571,10.0875911 6.80803571,9.27984109 C6.80803571,8.47209109 6.15848214,7.81734109 5.35714286,7.81734109 Z M14.6651786,0.279841092 C15.9263393,0.279841092 16.9665179,1.21809109 17.140625,2.43984109 L17.140625,2.43984109 L19.4642857,2.43984109 C19.7589286,2.43984109 20,2.68284109 20,2.97984109 C20,3.27684109 19.7589286,3.51984109 19.4642857,3.51984109 L19.4642857,3.51984109 L17.0647321,3.51984109 C16.7566964,4.56159109 15.8013393,5.31984109 14.6674107,5.31984109 C13.5334821,5.31984109 12.578125,4.56159109 12.2700893,3.51984109 L12.2700893,3.51984109 L0.535714286,3.51984109 C0.241071429,3.51984109 0,3.27684109 0,2.97984109 C0,2.68284109 0.241071429,2.43984109 0.535714286,2.43984109 L0.535714286,2.43984109 L12.1897321,2.43984109 C12.3638393,1.21809109 13.4040179,0.279841092 14.6651786,0.279841092 Z M14.6651786,1.33734109 C13.8638393,1.33734109 13.2142857,1.99209109 13.2142857,2.79984109 C13.2142857,3.60759109 13.8638393,4.26234109 14.6651786,4.26234109 C15.4665179,4.26234109 16.1160714,3.60759109 16.1160714,2.79984109 C16.1160714,1.99209109 15.4665179,1.33734109 14.6651786,1.33734109 Z" id="path-1"></path>
    </defs>
    <g id="Yanbal-UI-Visual-Kit" stroke="none" stroke-width="1" fill="none" fill-rule="evenodd">
        <g id="yanbal-styleguide-pag2" transform="translate(-1514.000000, -4541.000000)">
            <g id="Group" transform="translate(1512.000000, 4538.000000)">
                <g id="Group-2" transform="translate(2.000000, 2.720159)">
                    <mask id="mask-2" fill="white">
                        <use xlink:href="#path-1"></use>
                    </mask>
                    <use id="Mask" fill="#000000" fill-rule="nonzero" xlink:href="#path-1"></use>
                    <g id="Group" mask="url(#mask-2)">
                        <g transform="translate(-2.000000, -2.720159)" id="colors/brand-secondary">
                            <rect id="box" fill="#1C1F28" fill-rule="nonzero" x="0" y="0" width="24" height="24"></rect>
                        </g>
                    </g>
                </g>
            </g>
        </g>
    </g>
</svg>