<?xml version="1.0" encoding="UTF-8"?>
<svg width="16px" height="20px" viewBox="0 0 16 20" version="1.1" xmlns="http://www.w3.org/2000/svg" xmlns:xlink="http://www.w3.org/1999/xlink">
    <title>3. icons/outline/icon-plug</title>
    <defs>
        <path d="M15.4667767,13.0304349 L12.4107966,13.0304349 C10.7220442,13.0500999 9.36006385,14.5454403 9.36006385,16.3871832 C9.36006385,16.3933661 9.36008435,16.3995491 9.36010484,16.4057098 L9.36010484,16.4047946 L9.36010484,16.7009966 C9.33474937,17.8804924 8.47229436,18.8318657 7.39607036,18.8787848 L7.39209384,18.8789411 L7.32812098,18.8789411 C6.21819901,18.8758831 5.31704461,17.9067198 5.29611661,16.7031172 L5.29607562,16.700952 C5.29607562,15.0631578 5.29607562,14.2675417 5.29607562,13.8841531 L5.29607562,13.6112097 L5.33340166,13.6112097 C7.65995585,13.3744713 9.46673311,11.2585574 9.46673311,8.68318434 C9.46673311,8.68014866 9.46673311,8.67715762 9.46673311,8.67414426 L9.46673311,8.67459069 L9.46673311,4.51037377 C9.46673311,4.51012824 9.46673311,4.50992734 9.46673311,4.50961485 C9.46673311,4.1990826 9.24292034,3.94549168 8.96140695,3.92962132 L8.96009511,3.92955436 L7.36011766,3.92955436 L7.36011766,0.833963907 C7.39375414,0.759946876 7.41343179,0.672938918 7.41343179,0.580797089 C7.41343179,0.260019419 7.1746558,0 6.88008547,0 C6.58551515,0 6.34673916,0.260019419 6.34673916,0.580797089 C6.34673916,0.672938918 6.36645781,0.759969197 6.40150862,0.837334405 L6.40009429,0.833919264 L6.40009429,3.94689791 L3.11472608,3.94689791 L3.11472608,0.833919264 C3.12991477,0.782379661 3.13870822,0.723139251 3.13870822,0.661689044 C3.13870822,0.340911374 2.89993223,0.0808919543 2.6053619,0.0808919543 C2.31079158,0.0808919543 2.07201559,0.340911374 2.07201559,0.661689044 C2.07201559,0.723228535 2.08080904,0.782468946 2.0970226,0.838071004 L2.09601822,0.83403087 L2.09601822,3.94700952 L0.533366813,3.94700952 C0.238796486,3.94700952 0,4.20702894 0,4.52780661 L0,4.52780661 L0,8.67459069 C0,8.67961295 0,8.68550574 0,8.69153246 C0,11.2982891 1.8575292,13.4325956 4.20988981,13.6104508 L4.22403312,13.6113436 L4.26672953,13.6113436 L4.26672953,16.7127376 C4.29569257,18.5072934 5.61805117,19.9552907 7.26021259,20 L7.26402513,20 L7.33334785,20 C9.00127469,19.9745539 10.3485993,18.5154184 10.3839781,16.7047243 L10.3840396,16.7011306 L10.3840396,16.4223614 C10.3869502,15.2000982 11.2900314,14.2084798 12.4092593,14.1921407 L12.4106736,14.1921184 L15.4666537,14.1921184 C15.761224,14.1921184 16,13.932099 16,13.6113213 C16,13.2905436 15.761224,13.0305242 15.4666537,13.0305242 L15.4666537,13.0305242 L15.4667767,13.0304349 Z M4.99750827,12.4496378 L4.46416195,12.4496378 C2.56596561,12.4172275 1.03649974,10.7435631 1.01883085,8.67635406 L1.01883085,8.67452372 L1.01883085,5.07360409 L8.48549478,5.07360409 L8.48549478,8.67452372 C8.48549478,8.6797692 8.48549478,8.68590752 8.48549478,8.69206817 C8.48549478,10.7828484 6.93663822,12.4796821 5.02024005,12.4961105 L5.01883085,12.4961105 L4.99750827,12.4496378 Z" id="path-1"></path>
    </defs>
    <g id="Yanbal-UI-Visual-Kit" stroke="none" stroke-width="1" fill="none" fill-rule="evenodd">
        <g id="yanbal-styleguide-pag2" transform="translate(-1084.000000, -4636.000000)">
            <g id="Group" transform="translate(1080.000000, 4634.000000)">
                <g id="colors/brand-secondary" transform="translate(4.000000, 2.000000)">
                    <mask id="mask-2" fill="white">
                        <use xlink:href="#path-1"></use>
                    </mask>
                    <use id="Mask" fill="#000000" fill-rule="nonzero" xlink:href="#path-1"></use>
                    <g id="Group" mask="url(#mask-2)">
                        <g transform="translate(-6.000000, -3.000000)" id="colors/brand-secondary">
                            <rect id="box" fill="#1C1F28" fill-rule="nonzero" x="0" y="0" width="26.4058266" height="25.7456809"></rect>
                        </g>
                    </g>
                </g>
            </g>
        </g>
    </g>
</svg>