<?xml version="1.0" encoding="UTF-8"?>
<svg width="20px" height="15px" viewBox="0 0 20 15" version="1.1" xmlns="http://www.w3.org/2000/svg" xmlns:xlink="http://www.w3.org/1999/xlink">
    <title>3. icons/outline/icon-fabric</title>
    <defs>
        <path d="M19.4519932,0.00574490069 C19.373256,0.00602357124 19.2988054,0.0230867837 19.2319732,0.0535476191 L19.2350827,0.0522828835 L14.2171327,3.50584708 L14.2171327,0.523321867 C14.2015407,0.236741355 13.9569999,0.0101178848 13.6576207,0.0101178848 C13.6425174,0.0101178848 13.6275695,0.0106966621 13.6126439,0.0118113443 L13.6145984,0.0116612909 C13.5403478,0.0137191658 13.4702505,0.0285315777 13.4057282,0.0537405449 L13.4097927,0.0523471921 L8.36769961,3.49410004 L8.36769961,0.52319325 C8.36614485,0.375412111 8.29920154,0.243065033 8.1935004,0.151532474 L8.19301176,0.151125186 C8.09697232,0.0577062412 7.96386306,0 7.81676102,0 C7.81351824,0 7.81025326,0 7.80701048,0 L7.80749912,0 C7.73493648,0.00180064051 7.66677157,0.0187781082 7.60586959,0.0478027184 L7.60866815,0.0465808552 L0.325662001,4.20353097 C0.132761309,4.28464554 0.000385014095,4.46704613 0.000385014095,4.67928592 C0.000385014095,4.67960746 0.000385014095,4.68003618 0.000385014095,4.68033629 L0.000385014095,4.68027198 L0.000385014095,14.093056 C0.000385014095,14.3837522 -0.0537204649,15 1.12085262,15 L19.072322,15 C19.7710956,15 20,14.8197216 20,14.3139345 L20,0.52336474 C19.996624,0.236869972 19.7551927,0.00589495406 19.4578791,0.00589495406 C19.4557469,0.00589495406 19.4536368,0.00591639026 19.4515046,0.00593782646 L19.4517933,0.00593782646 L19.4519932,0.00574490069 Z M4.69925485,9.05205566 L7.15101487,9.05205566 L7.15101487,13.7032816 L4.69925485,13.7032816 L4.69925485,9.05205566 Z M18.9098279,13.9475256 L8.2353011,13.9475256 L8.2353011,8.52899103 C8.23194727,8.2413387 7.99129339,8.00897033 7.69346893,8.00571203 L4.1570451,8.00571203 C3.85899854,8.0089489 3.6182336,8.24121009 3.61485756,8.52864805 L3.61485756,13.9475256 L1.09082364,13.9475256 L1.09082364,5.02897459 L7.28947692,1.33714707 L7.28947692,4.31399169 C7.29285296,4.60048646 7.53428422,4.83146148 7.83159782,4.83146148 C7.83373006,4.83146148 7.83584008,4.83144004 7.83797232,4.8314186 L7.83768358,4.8314186 C7.91642082,4.83113993 7.99087138,4.81407672 8.05770364,4.78361589 L8.05459413,4.78488062 L13.0906459,1.33723282 L13.0906459,4.31407744 C13.09782,4.60089375 13.3404729,4.83077552 13.6386971,4.83077552 C13.7194778,4.83077552 13.7961494,4.81390523 13.8652027,4.78361589 L13.8617601,4.78496637 L18.9098279,1.32572158 L18.9098279,13.9475256 Z" id="path-1"></path>
    </defs>
    <g id="Yanbal-UI-Visual-Kit" stroke="none" stroke-width="1" fill="none" fill-rule="evenodd">
        <g id="yanbal-styleguide-pag2" transform="translate(-1466.000000, -4591.000000)">
            <g id="Group" transform="translate(1464.000000, 4586.000000)">
                <g id="colors/brand-secondary" transform="translate(2.000000, 5.000000)">
                    <mask id="mask-2" fill="white">
                        <use xlink:href="#path-1"></use>
                    </mask>
                    <use id="Mask" fill="#000000" fill-rule="nonzero" xlink:href="#path-1"></use>
                    <g id="Group" mask="url(#mask-2)">
                        <g transform="translate(-4.000000, -6.000000)" id="colors/brand-secondary">
                            <rect id="box" fill="#1C1F28" fill-rule="nonzero" x="0" y="0" width="26.4058266" height="25.7456809"></rect>
                        </g>
                    </g>
                </g>
            </g>
        </g>
    </g>
</svg>