<?xml version="1.0" encoding="UTF-8"?>
<svg width="20px" height="20px" viewBox="0 0 20 20" version="1.1" xmlns="http://www.w3.org/2000/svg" xmlns:xlink="http://www.w3.org/1999/xlink">
    <title>3. icons/outline/icon-target</title>
    <defs>
        <path d="M19.535422,9.53524657 L17.8588967,9.53524657 C17.6092081,5.55612599 14.4439707,2.39090984 10.4874575,2.14231665 L10.4646896,2.14120058 L10.4646896,0.464686463 C10.4646896,0.208079893 10.2566306,0 10,0 C9.74336939,0 9.53531043,0.208057571 9.53531043,0.464686463 L9.53531043,2.14120058 C5.5561632,2.39088752 2.39092585,5.55610367 2.14233099,9.51259037 L2.14121492,9.53535818 L0.464689575,9.53535818 C0.208081286,9.53535818 0,9.74341575 0,10.0000446 C0,10.2566735 0.208058965,10.4647311 0.464689575,10.4647311 L2.14121492,10.4647311 C2.38833656,14.4450347 5.5550248,17.6117464 9.51283265,17.8577057 L9.53531043,17.8587994 L9.53531043,19.5353135 C9.53531043,19.7919201 9.74336939,20 10,20 C10.2566306,20 10.4646896,19.7919424 10.4646896,19.5353135 L10.4646896,17.8587994 C14.4438368,17.6091125 17.6090741,14.4438963 17.857669,10.4874096 L17.8587851,10.4646418 L19.5353104,10.4646418 C19.7919187,10.4646418 20,10.2565842 20,9.99995536 C20,9.74332647 19.791941,9.53526889 19.5353104,9.53526889 L19.5353104,9.53526889 L19.535422,9.53524657 Z M10.4647565,16.9469934 L10.4647565,14.9587613 C10.4647565,14.7021547 10.2566976,14.4940748 10.000067,14.4940748 C9.74343635,14.4940748 9.53537739,14.7021324 9.53537739,14.9587613 L9.53537739,14.9587613 L9.53537739,16.9469934 C6.06625476,16.6986011 3.31316211,13.9455046 3.06606279,10.4988159 L3.06476815,10.4764275 L5.04127251,10.4764275 C5.29788079,10.4764275 5.50596208,10.2683699 5.50596208,10.011741 C5.50596208,9.75511215 5.29790312,9.54705458 5.04127251,9.54705458 L5.04127251,9.54705458 L3.05302702,9.54705458 C3.30142099,6.07795518 6.05453596,3.32488097 9.50124777,3.07778331 L9.52363627,3.07648867 L9.52363627,5.04117178 C9.52363627,5.29777835 9.73169523,5.50585825 9.98832584,5.50585825 C10.2449565,5.50585825 10.4530154,5.29780067 10.4530154,5.04117178 L10.4530154,5.04117178 L10.4530154,3.05293961 C13.922138,3.30133192 16.6752307,6.05442845 16.92233,9.50111719 L16.9236247,9.52350553 L14.9589284,9.52350553 C14.7023201,9.52350553 14.4942388,9.7315631 14.4942388,9.98819199 C14.4942388,10.2448209 14.7022978,10.4528785 14.9589284,10.4528785 L14.9589284,10.4528785 L16.9471739,10.4528785 C16.7096282,13.9357055 13.9464015,16.7030208 10.4868325,16.9456988 L10.4647789,16.9469934 L10.4647565,16.9469934 Z M10.000067,7.45877799 C8.5966232,7.45877799 7.45889491,8.59652099 7.45889491,9.99993304 C7.45889491,11.4033451 8.59664552,12.5410881 10.000067,12.5410881 C11.4035107,12.5410881 12.541239,11.4033451 12.541239,9.99993304 L12.541239,9.99993304 C12.5378908,8.59779331 11.4021714,7.4621262 10.0003348,7.45877799 L10.0000223,7.45877799 L10.000067,7.45877799 Z M10.000067,11.6116928 C9.10988442,11.6116928 8.38829638,10.8901096 8.38829638,9.99993304 C8.38829638,9.10975645 9.10988442,8.38817324 10.000067,8.38817324 C10.8902495,8.38817324 11.6118376,9.10975645 11.6118376,9.99993304 L11.6118376,9.99993304 C11.6118376,10.8901096 10.8902495,11.6116928 10.000067,11.6116928 L10.000067,11.6116928 Z" id="path-1"></path>
    </defs>
    <g id="Yanbal-UI-Visual-Kit" stroke="none" stroke-width="1" fill="none" fill-rule="evenodd">
        <g id="yanbal-styleguide-pag2" transform="translate(-554.000000, -4684.000000)">
            <g id="Group" transform="translate(552.000000, 4682.000000)">
                <g id="colors/brand-secondary" transform="translate(2.000000, 2.000000)">
                    <mask id="mask-2" fill="white">
                        <use xlink:href="#path-1"></use>
                    </mask>
                    <use id="Mask" fill="#000000" fill-rule="nonzero" xlink:href="#path-1"></use>
                    <g id="Group" mask="url(#mask-2)">
                        <g transform="translate(-4.000000, -3.000000)" id="colors/brand-secondary">
                            <rect id="box" fill="#1C1F28" fill-rule="nonzero" x="0" y="0" width="26.4058266" height="25.7456809"></rect>
                        </g>
                    </g>
                </g>
            </g>
        </g>
    </g>
</svg>