<?xml version="1.0" encoding="UTF-8"?>
<svg width="18px" height="18px" viewBox="0 0 18 18" version="1.1" xmlns="http://www.w3.org/2000/svg" xmlns:xlink="http://www.w3.org/1999/xlink">
    <title>3. icons/outline/icon-fragance</title>
    <defs>
        <path d="M17.5755993,9.64445696 C16.1628898,7.68845197 12.9194781,6.71576471 12.2528062,6.53504686 L12.6020153,5.16903251 C12.6456801,5.00676196 12.6103619,4.83330569 12.5067764,4.70129218 C12.4058116,4.57293358 12.2516318,4.49843217 12.0887837,4.49931341 L11.6443358,4.49931341 C11.917814,4.03594693 12.0621884,3.50721427 12.0623285,2.9685269 C12.0283413,1.70723971 11.2249917,0.597092478 10.041173,0.175495883 C8.85735417,-0.246100713 7.53732796,0.107842945 6.72010523,1.06598643 C5.9028825,2.02412991 5.7570839,3.38877585 6.35328901,4.49931341 L5.88767689,4.49931341 C5.72482887,4.49843217 5.57064907,4.57293358 5.46968419,4.70129218 C5.36609877,4.83330569 5.33078051,5.00676196 5.37444535,5.16903251 L5.57021408,5.9237953 C5.62312455,6.13640454 5.67603502,6.34901378 5.73423653,6.56162301 C4.49901968,6.87587363 3.31689417,7.37202062 2.2262725,8.03394198 L2.2262725,8.03394198 L2.09399633,8.11367045 L1.88764551,8.24123599 C1.33746313,8.60038151 0.851017691,9.04952569 0.448480781,9.57004373 C0.131820134,9.93473892 -0.028004507,10.4106703 0.00403284981,10.8935362 C0.0850342489,11.4709737 0.416294526,11.9827846 0.908801852,12.291442 L1.20510047,12.5093664 L1.20510047,12.5093664 C2.72892195,13.6149345 4.4643853,14.8746442 4.93528847,16.1875062 C5.40619163,17.5003683 5.64428874,18 6.46440099,18 L11.4856044,18 C12.3004256,18 12.5120675,17.5428901 12.9988438,16.2193976 C13.4856201,14.8959051 15.2210834,13.673402 16.755487,12.5784644 L17.0676588,12.3499095 C17.5646063,12.0470254 17.9033703,11.5394737 17.993592,10.9626342 C18.0338212,10.4849395 17.8834598,10.0107614 17.5755993,9.64445696 Z M8.99881241,0.84243452 C10.1676782,0.84243452 11.1152311,1.7943185 11.1152311,2.9685269 C11.1144149,3.54643606 10.8794504,4.09911149 10.4644324,4.49931341 L7.53319244,4.49931341 C7.1145093,4.10166645 6.87883828,3.54732916 6.88235403,2.9685269 C6.88235403,1.7943185 7.82994662,0.84243452 8.99881241,0.84243452 Z M6.59138611,5.5623596 L11.4062387,5.5623596 L11.3639103,5.72713176 C11.3639103,5.81749068 11.3162909,5.90253438 11.2951267,5.9928933 L11.215761,6.29586147 L11.1787237,6.43405747 L6.81890113,6.43405747 C6.79244589,6.34901378 6.7712817,6.26397008 6.75011752,6.17361115 L6.66546077,5.84406684 C6.63900553,5.77496883 6.6125503,5.65803375 6.59138611,5.5623596 Z M11.554388,16.96353 L11.554388,16.96353 L6.40090843,16.96353 C6.21254581,16.610682 6.05839599,16.2404554 5.94058736,15.8579619 C5.2897886,14.0560986 3.03051162,12.5040512 1.94584702,11.7546036 C1.79240667,11.648299 1.6495484,11.5526249 1.53843642,11.4675812 C1.29102803,11.3212088 1.11772964,11.0755478 1.06224221,10.7925468 C1.04710574,10.5881764 1.11593935,10.3864941 1.25271989,10.2344476 L1.25271989,10.2344476 L1.25271989,10.2025562 C2.57548159,8.37411676 6.12048295,7.45989704 6.48027413,7.45989704 L11.5438059,7.45989704 C12.307697,7.60008586 13.052027,7.83207914 13.7607545,8.15087706 C14.9030675,8.58578521 15.9170105,9.30445837 16.7078676,10.2397628 L16.750196,10.2982304 C16.8649775,10.4513063 16.9263439,10.6381149 16.9248289,10.8297535 C16.8632349,11.1076538 16.6859998,11.3456925 16.4380242,11.4835269 C16.3374943,11.5579401 16.2105092,11.6429838 16.0253226,11.7652341 C14.9565311,12.5253121 12.7025452,14.0560986 12.0200001,15.8739076 C11.8967099,16.250055 11.7409125,16.6146512 11.554388,16.96353 Z" id="path-1"></path>
    </defs>
    <g id="Yanbal-UI-Visual-Kit" stroke="none" stroke-width="1" fill="none" fill-rule="evenodd">
        <g id="yanbal-styleguide-pag2" transform="translate(-1131.000000, -4493.000000)">
            <g id="Group" transform="translate(1128.000000, 4490.000000)">
                <g id="Group-2" transform="translate(3.000000, 3.000000)">
                    <mask id="mask-2" fill="white">
                        <use xlink:href="#path-1"></use>
                    </mask>
                    <use id="Mask" fill="#000000" fill-rule="nonzero" xlink:href="#path-1"></use>
                    <g id="Group" mask="url(#mask-2)">
                        <g transform="translate(-3.000000, -3.000000)" id="color">
                            <rect id="box" fill="#1C1F28" fill-rule="nonzero" x="0" y="0" width="24" height="24"></rect>
                        </g>
                    </g>
                </g>
            </g>
        </g>
    </g>
</svg>