<?xml version="1.0" encoding="UTF-8"?>
<svg width="16px" height="18px" viewBox="0 0 16 18" version="1.1" xmlns="http://www.w3.org/2000/svg" xmlns:xlink="http://www.w3.org/1999/xlink">
    <title>3. icons/outline/icon-upload</title>
    <defs>
        <path d="M15.3334168,11.5409546 C15.7015109,11.5409546 16,11.8509256 16,12.233179 L16,12.233179 L16,17.3077756 C16,17.690029 15.7015109,18 15.3334168,18 L15.3334168,18 L0.666583159,18 C0.29848907,18 0,17.690029 0,17.3077756 L0,17.3077756 L0,12.2399291 C0,11.8576757 0.29848907,11.5477047 0.666583159,11.5477047 L0.666583159,11.5477047 C1.03467725,11.5477047 1.33316632,11.8576757 1.33316632,12.2399291 L1.33316632,12.2399291 L1.33316632,16.6153543 L14.7331887,16.6153543 L14.7331887,12.2399291 C14.7331887,11.8576757 15.0316777,11.5477047 15.3997718,11.5477047 L15.3997718,11.5477047 L15.3334168,11.5409546 Z M8.00008125,0 C8.17206252,0.00947828791 8.32698109,0.0786107261 8.44774715,0.187596974 L8.44693464,0.18675321 L12.1202379,3.87681663 C12.244579,4.02065035 12.3207925,4.21187552 12.3207925,4.42160725 C12.3207925,4.59592899 12.2681689,4.75756615 12.1786032,4.89014967 L12.1802824,4.88761838 C12.059408,5.01407055 11.8919226,5.09242815 11.7069683,5.09242815 C11.5220139,5.09242815 11.3545286,5.01407055 11.2337354,4.88770276 L11.2336542,4.88761838 L8.66696233,2.28460489 L8.66696233,14.0540791 C8.67969165,14.1045362 8.68692299,14.1625872 8.68692299,14.2224663 C8.68692299,14.6047198 8.38843392,14.9146907 8.02033983,14.9146907 C7.65224574,14.9146907 7.35375667,14.6047198 7.35375667,14.2224663 C7.35375667,14.1625872 7.36106926,14.1046205 7.37469235,14.0494665 L7.37371733,14.0542478 L7.37371733,2.28477364 L4.79364617,4.88100889 C4.67277178,5.00746107 4.50528639,5.08581866 4.32033205,5.08581866 C4.1353777,5.08581866 3.96789232,5.00746107 3.84709917,4.88109327 L3.84701792,4.88100889 C3.75390428,4.7507879 3.69784109,4.58673196 3.69784109,4.40934454 C3.69784109,4.20113158 3.77481287,4.01162207 3.90069774,3.86967276 L3.90023732,3.87023527 L7.57354061,0.180171847 C7.6843128,0.0702012066 7.83438339,0.00191253287 7.99994583,0.000196878384 L8.00021667,0.000196878384 L8.00008125,0 Z" id="path-1"></path>
    </defs>
    <g id="Yanbal-UI-Visual-Kit" stroke="none" stroke-width="1" fill="none" fill-rule="evenodd">
        <g id="yanbal-styleguide-pag2" transform="translate(-796.000000, -4685.000000)">
            <g id="Group" transform="translate(792.000000, 4682.000000)">
                <g id="colors/brand-secondary" transform="translate(4.000000, 3.000000)">
                    <mask id="mask-2" fill="white">
                        <use xlink:href="#path-1"></use>
                    </mask>
                    <use id="Mask" fill="#000000" fill-rule="nonzero" xlink:href="#path-1"></use>
                    <g id="Group" mask="url(#mask-2)">
                        <g transform="translate(-6.000000, -4.000000)" id="colors/brand-secondary">
                            <rect id="box" fill="#1C1F28" fill-rule="nonzero" x="0" y="0" width="26.4058266" height="25.7456809"></rect>
                        </g>
                    </g>
                </g>
            </g>
        </g>
    </g>
</svg>