<?xml version="1.0" encoding="UTF-8"?>
<svg width="16px" height="16px" viewBox="0 0 16 16" version="1.1" xmlns="http://www.w3.org/2000/svg" xmlns:xlink="http://www.w3.org/1999/xlink">
    <title>3. icons/outline/icon-organigram</title>
    <defs>
        <path d="M13.3285143,9.57394835 L13.3285143,8.04019271 C13.3118579,7.75223369 13.0884037,7.52143624 12.8055785,7.49397279 L12.8032646,7.49374306 L8.49044642,7.49374306 L8.49044642,6.31588455 C10.0139125,6.06535101 11.1621823,4.75593943 11.1621823,3.17780368 C11.1621823,1.4226905 9.74203173,0 7.9901917,0 C6.23835166,0 4.81820112,1.42275316 4.81820112,3.17780368 C4.81820112,4.75593943 5.96634585,6.06535101 7.47159201,6.31337838 L7.48995782,6.31588455 L7.48995782,7.49374306 L3.17211565,7.49374306 C2.89437703,7.53348675 2.68170051,7.76549551 2.67177755,8.04908962 L2.67173585,8.0500712 L2.67173585,9.68411545 C1.1482698,9.93464899 0,11.2440606 0,12.8221963 C0,14.5773095 1.42015054,16 3.17199057,16 C4.92383061,16 6.34398114,14.5772468 6.34398114,12.8221963 C6.34398114,11.2440606 5.19583642,9.93464899 3.69059026,9.68662162 L3.67222444,9.68411545 L3.67222444,8.49621137 L12.3277547,8.49621137 L12.3277547,9.56891513 C10.8042887,9.81944867 9.65601886,11.1288603 9.65601886,12.706996 C9.65601886,14.4621092 11.0761694,15.8847997 12.8280094,15.8847997 C14.5798495,15.8847997 16,14.4620465 16,12.706996 C16,11.1288603 14.8518553,9.81944867 13.3466091,9.5714213 L13.3282433,9.56891513 L13.3285143,9.57394835 Z M5.84866706,3.16819669 C5.85158558,1.99664539 6.80020794,1.04799709 7.97007477,1.04799709 C9.14167187,1.04799709 10.0914408,1.99948571 10.0914408,3.1732508 C10.0914408,4.33999862 9.15301239,5.28699702 7.99112979,5.29846275 L7.99002492,5.29846275 C7.98556376,5.29852541 7.98028958,5.29852541 7.97501541,5.29852541 C6.80064572,5.29852541 5.84866706,4.34478123 5.84866706,3.16828023 C5.84866706,3.16825935 5.84866706,3.16823846 5.84866706,3.16821758 L5.84866706,3.16821758 L5.84866706,3.16819669 Z M5.27826369,12.8219666 C5.27547025,13.9935805 4.3267645,14.9422288 3.15689767,14.9422288 C1.98530057,14.9422288 1.03553165,13.9907402 1.03553165,12.8169751 C1.03553165,11.64321 1.98527973,10.6917214 3.15689767,10.6917214 L3.15689767,10.6917214 C4.32905762,10.69452 5.27826369,11.6472199 5.27826369,12.8219666 C5.27826369,12.8219666 5.27826369,12.8219666 5.27826369,12.8219666 L5.27826369,12.8219666 L5.27826369,12.8219666 Z M12.8231313,14.8570399 C12.8201711,14.8570399 12.8166481,14.8570399 12.8131041,14.8570399 C11.6360036,14.8570399 10.6817526,13.9010193 10.6817526,12.7217615 C10.6817526,11.5425037 11.6360036,10.586504 12.8131041,10.586504 C13.9902047,10.586504 14.9444557,11.542462 14.9444557,12.7217615 L14.9444557,12.7217615 C14.9444557,12.7232652 14.9444557,12.7250195 14.9444557,12.7267948 C14.9444557,13.9015414 13.995333,14.8541787 12.8233815,14.8570399 L12.8231313,14.8570399 L12.8231313,14.8570399 Z" id="path-1"></path>
    </defs>
    <g id="Yanbal-UI-Visual-Kit" stroke="none" stroke-width="1" fill="none" fill-rule="evenodd">
        <g id="yanbal-styleguide-pag2" transform="translate(-844.000000, -4638.000000)">
            <g id="Group" transform="translate(840.000000, 4634.000000)">
                <g id="colors/brand-secondary" transform="translate(4.000000, 4.000000)">
                    <mask id="mask-2" fill="white">
                        <use xlink:href="#path-1"></use>
                    </mask>
                    <use id="Mask" fill="#000000" fill-rule="nonzero" xlink:href="#path-1"></use>
                    <g id="Group" mask="url(#mask-2)">
                        <g transform="translate(-6.000000, -5.000000)" id="colors/brand-secondary">
                            <rect id="box" fill="#1C1F28" fill-rule="nonzero" x="0" y="0" width="26.4058266" height="25.7456809"></rect>
                        </g>
                    </g>
                </g>
            </g>
        </g>
    </g>
</svg>