<?xml version="1.0" encoding="UTF-8"?>
<svg width="20px" height="20px" viewBox="0 0 20 20" version="1.1" xmlns="http://www.w3.org/2000/svg" xmlns:xlink="http://www.w3.org/1999/xlink">
    <title>3. icons/outline/icon-off</title>
    <defs>
        <path d="M13.058805,0.743694805 C13.0065036,0.727841106 12.9463671,0.718775469 12.8841546,0.718775469 C12.6153036,0.718775469 12.3861641,0.888588686 12.298013,1.12684076 L12.2965843,1.13117262 C12.2840838,1.17786288 12.276896,1.23147518 12.276896,1.28682915 C12.276896,1.55609642 12.4471489,1.78559546 12.6858424,1.87348301 L12.6901729,1.87491208 C16.2507297,2.99572397 18.7890098,6.2659179 18.7942109,10.1300227 L18.7942109,10.1306256 C18.6634463,14.885083 14.779304,18.6894126 10.0067972,18.6894126 C5.23429033,18.6894126 1.35014805,14.885083 1.21969595,10.142728 L1.21940576,10.1306032 C1.22159335,6.26674407 3.7579984,2.99608123 7.25600779,1.8915473 L7.31721582,1.87488975 C7.56106572,1.78599739 7.73198833,1.55611875 7.73198833,1.28629325 C7.73198833,1.22892965 7.72422014,1.17335239 7.70979987,1.12054394 L7.71080438,1.12494278 C7.62122458,0.882336523 7.39208515,0.712545635 7.12323416,0.712545635 C7.06102163,0.712545635 7.00086276,0.721633601 6.94414154,0.738581429 L6.94856138,0.737464971 C2.89110798,2.01578671 0,5.74544764 0,10.1506325 C0,15.590327 4.40836152,20 9.8463884,20 C9.90168099,20 9.95686196,19.9995534 10.0119536,19.9986156 L10.0036497,19.9987496 C10.0204362,19.9988835 10.0403031,19.9989282 10.0601924,19.9989282 C15.5214345,19.9989282 19.9540605,15.5933414 20,10.1412096 L20,10.1368554 C19.9939953,5.74091483 17.1080438,2.02081077 13.1285402,0.762741574 L13.058872,0.743694805 L13.058805,0.743694805 Z M10.0037167,10.7305429 C10.3487763,10.7305429 10.628476,10.4507586 10.628476,10.1055946 L10.628476,10.1055946 L10.628476,0.624948364 C10.628476,0.2797843 10.3487763,0 10.0037167,0 C9.65865702,0 9.37895734,0.2797843 9.37895734,0.624948364 L9.37895734,0.624948364 L9.37895734,10.1368331 C9.39607862,10.468287 9.668903,10.7305429 10.0029131,10.7305429 C10.0032033,10.7305429 10.0034488,10.7305429 10.0037613,10.7305429 L10.0037167,10.7305429 L10.0037167,10.7305429 Z" id="path-1"></path>
    </defs>
    <g id="Yanbal-UI-Visual-Kit" stroke="none" stroke-width="1" fill="none" fill-rule="evenodd">
        <g id="yanbal-styleguide-pag2" transform="translate(-698.000000, -4636.000000)">
            <g id="Group" transform="translate(696.000000, 4634.000000)">
                <g id="colors/brand-secondary" transform="translate(2.000000, 2.000000)">
                    <mask id="mask-2" fill="white">
                        <use xlink:href="#path-1"></use>
                    </mask>
                    <use id="Mask" fill="#000000" fill-rule="nonzero" xlink:href="#path-1"></use>
                    <g id="Group" mask="url(#mask-2)">
                        <g transform="translate(-4.000000, -3.000000)" id="colors/brand-secondary">
                            <rect id="box" fill="#1C1F28" fill-rule="nonzero" x="0" y="0" width="26.4058266" height="25.7456809"></rect>
                        </g>
                    </g>
                </g>
            </g>
        </g>
    </g>
</svg>