<?xml version="1.0" encoding="UTF-8"?>
<svg width="20px" height="17px" viewBox="0 0 20 17" version="1.1" xmlns="http://www.w3.org/2000/svg" xmlns:xlink="http://www.w3.org/1999/xlink">
    <title>3. icons/outline/icon-tv</title>
    <defs>
        <path d="M20,0.564745948 C20,0.561063742 20,0.556635143 20,0.552256303 C20,0.253425359 19.7701856,0.0101260673 19.4830502,0 L19.4822065,0 L0.517793502,0 C0.229814406,0.0100265482 0,0.253425359 0,0.552231423 C0,0.556660022 0,0.560989103 0.000216942485,0.565243544 L0,0.56454691 L0,13.4419935 C0,13.4456757 0,13.4501043 0,13.4544832 C0,13.7533141 0.229814406,13.9966134 0.516949837,14.0067146 L0.517793502,14.0067395 L9.41178456,14.0067395 L9.41178456,15.8584663 L6.51174563,15.8584663 C6.20631471,15.8584663 5.95875923,16.1139816 5.95875923,16.4292331 C5.95875923,16.7444847 6.20631471,17 6.51174563,17 L13.4881821,17 C13.793613,17 14.0411685,16.7444847 14.0411685,16.4292331 C14.0411685,16.1139816 13.793613,15.8584663 13.4881821,15.8584663 L10.5881431,15.8584663 L10.5881431,14.0067395 L19.4821342,14.0067395 C19.4848339,14.006839 19.4879434,14.0068639 19.4911011,14.0068639 C19.6167832,14.0068639 19.73022,13.9534719 19.8115011,13.8672635 L19.8116457,13.8671142 L19.8469109,13.8367111 C19.8469109,13.8367111 19.8469109,13.8367111 19.8469109,13.800312 C19.9273243,13.7107946 19.9765702,13.590476 19.9765702,13.4583644 C19.9765702,13.4527167 19.9764497,13.4469446 19.9763051,13.4413218 L19.9763292,13.4421179 L20,0.564745948 Z M1.03537006,12.8775462 C1.03382736,12.8494569 1.03298369,12.8165907 1.03298369,12.7834011 C1.03298369,12.7502115 1.03382736,12.7173453 1.03561111,12.6848026 L1.03534596,12.6893058 L1.03534596,1.1536004 L18.9762725,1.1536004 L18.9762725,12.8775462 L1.03537006,12.8775462 Z" id="path-1"></path>
    </defs>
    <g id="Yanbal-UI-Visual-Kit" stroke="none" stroke-width="1" fill="none" fill-rule="evenodd">
        <g id="yanbal-styleguide-pag2" transform="translate(-746.000000, -4686.000000)">
            <g id="Group" transform="translate(744.000000, 4682.000000)">
                <g id="colors/brand-secondary" transform="translate(2.000000, 4.000000)">
                    <mask id="mask-2" fill="white">
                        <use xlink:href="#path-1"></use>
                    </mask>
                    <use id="Mask" fill="#000000" fill-rule="nonzero" xlink:href="#path-1"></use>
                    <g id="Group" mask="url(#mask-2)">
                        <g transform="translate(-4.000000, -5.000000)" id="colors/brand-secondary">
                            <rect id="box" fill="#1C1F28" fill-rule="nonzero" x="0" y="0" width="26.4058266" height="25.7456809"></rect>
                        </g>
                    </g>
                </g>
            </g>
        </g>
    </g>
</svg>