<?xml version="1.0" encoding="UTF-8"?>
<svg width="20px" height="17px" viewBox="0 0 20 17" version="1.1" xmlns="http://www.w3.org/2000/svg" xmlns:xlink="http://www.w3.org/1999/xlink">
    <title>3. icons/outline/icon-photo</title>
    <defs>
        <path d="M10.0000119,13.8026808 C12.2851741,13.791534 14.1333041,11.9721226 14.1333041,9.72934179 C14.1333041,7.47966723 12.2738087,5.65595604 9.98004501,5.65595604 C7.68628133,5.65595604 5.82678591,7.47964386 5.82678591,9.72929505 L5.82678591,9.72929505 C5.83436285,11.9805587 7.69690811,13.8026808 9.9934357,13.8026808 C9.99581839,13.8026808 9.99810577,13.8026808 10.0004885,13.8026808 L10.0001549,13.8026808 L10.0000119,13.8026808 Z M10.0000119,6.85880949 C11.6171406,6.8625251 12.9266645,8.14913172 12.9266645,9.73574479 C12.9266645,11.3246013 11.6133759,12.6127035 9.99329274,12.6127035 C8.37320956,12.6127035 7.05992097,11.3246714 7.05992097,9.73574479 C7.05992097,9.73340793 7.05992097,9.73118791 7.05992097,9.72885105 L7.05992097,9.72917821 C7.06749791,8.14235482 8.38081033,6.85880949 9.99984513,6.85880949 C9.99984513,6.85880949 9.99986895,6.85880949 9.99986895,6.85880949 L9.99986895,6.85880949 L10.0000119,6.85880949 Z M19.0599591,2.53699185 L15.6866959,2.53699185 L15.6132854,2.46499311 L13.0866618,0 L6.91336198,0 L4.31339939,2.53694512 L0.946736257,2.53694512 C0.944806282,2.53692175 0.942423596,2.53692175 0.940040911,2.53692175 C0.420829913,2.53692175 0,2.94965847 0,3.45888427 C0,3.45888427 0,3.45890764 0,3.45890764 L0,3.45890764 L0,16.0780141 C0,16.0780141 0,16.0780375 0,16.0780375 C0,16.5872633 0.420829913,17 0.940040911,17 C0.942423596,17 0.944687147,17 0.947069833,17 L19.0599591,17 C19.5791701,17 20,16.5872399 20,16.0780141 L20,3.45890764 C20,2.94968184 19.5791701,2.53694512 19.0599591,2.53694512 L19.0599591,2.53694512 L19.0599591,2.53699185 Z M7.46002152,1.22926 L12.6000222,1.22926 L13.9333253,2.53692175 L6.0799939,2.53692175 L7.46002152,1.22926 Z M18.7932651,15.7707166 L1.26003557,15.7707166 L1.26003557,3.75963853 L18.7999604,3.75963853 L18.7932651,15.7707166 Z" id="path-1"></path>
    </defs>
    <g id="Yanbal-UI-Visual-Kit" stroke="none" stroke-width="1" fill="none" fill-rule="evenodd">
        <g id="yanbal-styleguide-pag2" transform="translate(-986.000000, -4638.000000)">
            <g id="Group" transform="translate(984.000000, 4634.000000)">
                <g id="colors/brand-secondary" transform="translate(2.000000, 4.000000)">
                    <mask id="mask-2" fill="white">
                        <use xlink:href="#path-1"></use>
                    </mask>
                    <use id="Mask" fill="#000000" fill-rule="nonzero" xlink:href="#path-1"></use>
                    <g id="Group" mask="url(#mask-2)">
                        <g transform="translate(-4.000000, -5.000000)" id="colors/brand-secondary">
                            <rect id="box" fill="#1C1F28" fill-rule="nonzero" x="0" y="0" width="26.4058266" height="25.7456809"></rect>
                        </g>
                    </g>
                </g>
            </g>
        </g>
    </g>
</svg>