<?xml version="1.0" encoding="UTF-8"?>
<svg width="20px" height="20px" viewBox="0 0 20 20" version="1.1" xmlns="http://www.w3.org/2000/svg" xmlns:xlink="http://www.w3.org/1999/xlink">
    <title>3. icons/outline/icon-config</title>
    <defs>
        <path d="M20,11.2500251 L20,8.75001953 C19.9914733,8.47481802 19.8062741,8.24513001 19.5544236,8.16988431 L17.1500254,7.57501691 C17.0257632,7.20421251 16.8946706,6.89434575 16.7435782,6.59639865 L16.7625289,6.63751482 L18.0125177,4.52503242 C18.0627628,4.4370858 18.0923161,4.33166145 18.0923161,4.21940674 C18.0923161,4.05467423 18.0287006,3.90505336 17.9246167,3.79342365 L17.9249739,3.79378079 L16.1999893,2.06252693 C16.093584,1.94830792 15.9427594,1.87654437 15.7752609,1.87502651 L15.7749038,1.87502651 C15.6635432,1.87538365 15.5598834,1.90788372 15.4726744,1.96386599 L15.4749065,1.96250438 L13.3561754,3.21250717 C13.1020259,3.08132384 12.7923858,2.9483548 12.4732592,2.83556437 L12.4186838,2.81875629 L11.8249391,0.431250963 C11.7428862,0.184643269 11.5180891,0.00850448327 11.250837,0 L11.2498549,0 L8.74987723,0 C8.4746788,0.00852680475 8.24499335,0.193728111 8.16974848,0.445581352 L8.16863242,0.450001004 L7.54366032,2.85000636 C7.1720565,2.977462 6.86243873,3.11047569 6.56451728,3.26315461 L6.60619102,3.24375724 L4.4937322,1.99375445 C4.41775073,1.93266056 4.32422478,1.89027208 4.22181498,1.87527204 L4.21875698,1.8749149 C4.05340131,1.8773033 3.90396068,1.94357577 3.79353756,2.0501385 L3.79373845,2.04993761 L2.06250391,3.7936915 C1.9588218,3.90494175 1.89520629,4.05467423 1.89520629,4.21931745 C1.89520629,4.33157217 1.92482656,4.43697419 1.97665646,4.5280235 L1.97504933,4.52496546 L3.22503817,6.64372019 C3.08655726,6.90456898 2.95334417,7.21445807 2.84468442,7.53564182 L2.8312024,7.58122228 L0.437496094,8.1749736 C0.188391175,8.25490682 0.00950884367,8.48033143 0,8.74892578 L0,8.74997489 L0,11.2499805 C0.00852670958,11.525182 0.193725949,11.75487 0.445576379,11.8301157 L2.84997455,12.4249831 C2.97202704,12.7917696 3.10532942,13.1016141 3.26072981,13.3979763 L3.24372104,13.3624629 L1.9937322,15.4749453 C1.94348711,15.5628919 1.9139338,15.6683162 1.9139338,15.7805709 C1.9139338,15.9453034 1.97754931,16.0949243 2.0816332,16.206554 L2.08127606,16.2061969 L3.79376077,17.9374508 C3.90500978,18.041134 4.05474058,18.1047502 4.21938197,18.1047502 C4.33163543,18.1047502 4.43703628,18.0751296 4.52808457,18.0232992 L4.52502656,18.0249063 L6.64375765,16.7749035 C6.90460353,16.913386 7.21448916,17.0466006 7.53566932,17.1552615 L7.58124927,17.1687437 L8.17499397,19.556249 C8.25285042,19.8079683 8.47889751,19.9896205 8.74882814,20 L8.74998884,20 L11.2499665,20 C11.525165,19.9914732 11.7548504,19.8062719 11.8300953,19.5544186 L11.8312113,19.549999 L12.424956,17.1499936 C12.7917385,17.0279398 13.1015795,16.8946359 13.3979384,16.7392338 L13.3624253,16.7562428 L15.4748842,18.0062455 C15.5583656,18.0611341 15.6608646,18.0938574 15.7708637,18.0938574 C15.7744797,18.0938574 15.7780957,18.0938127 15.7817341,18.0937234 L15.7811984,18.0937234 C15.946554,18.091335 16.0959947,18.0250626 16.2064178,17.9184998 L17.9374515,16.1874468 C18.0411336,16.0761966 18.1047491,15.9264641 18.1047491,15.7618209 C18.1047491,15.6495662 18.0751288,15.5441642 18.0232989,15.4531149 L18.024906,15.4561729 L16.7749172,13.3374182 C16.9071482,13.0806096 17.0381514,12.7707428 17.1473469,12.4507644 L17.162436,12.3999161 L19.5499147,11.8061647 C19.7986848,11.7326824 19.9805582,11.5148695 19.9997768,11.2519671 L20,11.2498912 L20,11.2500251 Z M18.8062607,10.7875241 L18.8062607,10.7875241 L16.5437809,11.3500253 C16.3396755,11.4101148 16.1817975,11.566008 16.1199677,11.7643343 L16.1187847,11.7687763 C15.9740538,12.2785096 15.7845912,12.7223721 15.5471603,13.1353865 L15.5625619,13.1062793 C15.5153302,13.1921277 15.4875403,13.2943824 15.4875403,13.4031549 C15.4875403,13.5119275 15.5153972,13.6141822 15.5641467,13.7032895 L15.5625396,13.7000306 L16.7750288,15.7125351 L15.6875608,16.7625374 L13.7500781,15.6250349 C13.7282256,15.6063741 13.703583,15.5896777 13.6772216,15.5759276 L13.6749895,15.5749455 C13.588718,15.5251909 13.4855046,15.4952132 13.3754163,15.4936953 L13.3750145,15.4936953 C13.2665333,15.4963516 13.1657753,15.5261507 13.0782538,15.5765526 L13.0812671,15.5749455 C12.6973643,15.7969995 12.2534174,15.9865535 11.7859216,16.1209288 L11.7436898,16.131286 C11.5356783,16.1886076 11.37626,16.3522686 11.3258141,16.5585191 L11.3249435,16.5626263 L10.7562209,18.831359 L9.23748449,18.831359 L8.67498951,16.5626263 C8.61670878,16.3560187 8.46025928,16.1955272 8.26068517,16.1325807 L8.25626557,16.1313753 C7.74653798,15.9866428 7.30268033,15.7971781 6.88967063,15.5597446 L6.91877751,15.5751464 C6.83605504,15.5279141 6.73703806,15.5001016 6.63152561,15.5001016 C6.62929349,15.5001016 6.62694976,15.5001239 6.62471764,15.5001462 L6.62507478,15.5001462 C6.62221766,15.5001016 6.61909269,15.5000792 6.61581147,15.5000792 C6.50699547,15.5000792 6.40469728,15.5279364 6.315457,15.5767535 L6.3187159,15.5751464 L4.31248382,16.7626267 L3.23751574,15.6876466 L4.37500558,13.7501423 L4.42500513,13.6751421 C4.47223686,13.5892937 4.50002679,13.487039 4.50002679,13.3782665 C4.50002679,13.2694939 4.47216989,13.1672392 4.42342033,13.0781319 L4.42502746,13.0813908 C4.20297587,12.6974837 4.01342399,12.2535318 3.87905019,11.7860308 L3.86869314,11.7437985 C3.80454192,11.5396909 3.643963,11.383329 3.44186659,11.3260967 L3.43746931,11.3250699 L1.16876189,10.7625687 L1.16876189,9.23758758 L3.43746931,8.67508633 C3.64407461,8.61680495 3.80456424,8.46035371 3.86751011,8.26077737 L3.86871546,8.25635772 C4.01344631,7.74662443 4.2029089,7.30276184 4.44033982,6.88974752 L4.42493817,6.91885473 C4.47759395,6.82912239 4.5086651,6.72142125 4.5086651,6.60635403 C4.5086651,6.49128681 4.47759395,6.38349639 4.42330872,6.29095154 L4.42491585,6.29387566 C4.42589798,6.28637564 4.42636673,6.27769258 4.42636673,6.2688756 C4.42636673,6.26005862 4.42585334,6.25139788 4.4247596,6.24287108 L4.42489353,6.24387554 L3.23742645,4.31264356 L4.31239453,3.23766348 L6.24987723,4.40641609 L6.31235435,4.45016618 C6.39822412,4.49739843 6.50052232,4.52523332 6.60933831,4.52523332 C6.61259721,4.52523332 6.61594539,4.52521099 6.61907037,4.52516635 L6.61860162,4.52516635 C6.62208373,4.52523332 6.62585602,4.52530028 6.62987384,4.52530028 C6.73382381,4.52530028 6.83123365,4.49744307 6.91509451,4.44869297 L6.912349,4.45016618 C7.2966536,4.22543354 7.74084606,4.03558937 8.20934635,3.90355782 L8.24981473,3.89382566 C8.45392005,3.82967373 8.61028027,3.66909301 8.6675119,3.46699435 L8.66853867,3.46259701 L9.23726127,1.19386427 L10.7559977,1.19386427 L11.3184927,3.46259701 C11.3767734,3.66920462 11.5332229,3.82969605 11.732797,3.89264262 L11.7372166,3.89384798 C12.2461853,4.03550008 12.6903778,4.22545586 13.1021375,4.46483139 L13.0747047,4.45009922 C13.1557977,4.49733147 13.2532299,4.52521099 13.3571798,4.52521099 C13.361153,4.52521099 13.3650592,4.52516635 13.3690101,4.52505474 L13.3684297,4.52505474 C13.3694119,4.52505474 13.370461,4.52505474 13.3715547,4.52505474 C13.4803261,4.52505474 13.5825796,4.49719754 13.671686,4.44844743 L13.6684271,4.45005458 L15.687159,3.23755187 L16.7621271,4.30630426 L15.6246373,6.25003627 C15.6059767,6.271889 15.5892805,6.29653191 15.5755306,6.32289358 L15.5745484,6.32512573 C15.5218927,6.41485807 15.4908215,6.5225592 15.4908215,6.63762642 C15.4908215,6.75269364 15.5218927,6.86048406 15.5761779,6.95302891 L15.5745708,6.9501048 C15.7966224,7.33401191 15.9861742,7.77796379 16.120548,8.24546483 L16.1309051,8.28769707 C16.1950563,8.49180467 16.3556352,8.64816663 16.5577316,8.7053989 L16.5621289,8.70642568 L18.8308363,9.26892694 L18.8062607,10.7875241 Z M10.0001339,5.79378525 C7.67714128,5.79378525 5.7939438,7.67700374 5.7939438,10.0000223 C5.7939438,12.3230409 7.67714128,14.2062594 10.0001339,14.2062594 C12.3231266,14.2062594 14.2063241,12.3230409 14.2063241,10.0000223 L14.2063241,10.0000223 C14.2027973,7.6785216 12.3217203,5.79731205 10.0004018,5.79378525 L10.0000446,5.79378525 L10.0001339,5.79378525 Z M10.0001339,12.9500512 C8.36744761,12.9500512 7.04393264,11.6264992 7.04393264,9.99379463 C7.04393264,8.36109009 8.36744761,7.03756035 10.0001339,7.03756035 C11.6328426,7.03756035 12.9563352,8.36109009 12.9563352,9.99379463 C12.9563352,9.99602678 12.9563352,9.99819196 12.9563352,10.0004018 L12.9563352,10.0000446 C12.9563352,10.0000446 12.9563352,10.0000446 12.9563352,10.0000446 C12.9563352,11.629267 11.6355881,12.9500512 10.0063616,12.9500512 C10.0041294,12.9500512 10.0019643,12.9500512 9.99975447,12.9500512 L10.0001116,12.9500512 L10.0001339,12.9500512 Z" id="path-1"></path>
    </defs>
    <g id="Yanbal-UI-Visual-Kit" stroke="none" stroke-width="1" fill="none" fill-rule="evenodd">
        <g id="yanbal-styleguide-pag2" transform="translate(-1226.000000, -4588.000000)">
            <g id="Group" transform="translate(1224.000000, 4586.000000)">
                <g id="colors/brand-secondary" transform="translate(2.000000, 2.000000)">
                    <mask id="mask-2" fill="white">
                        <use xlink:href="#path-1"></use>
                    </mask>
                    <use id="Mask" fill="#000000" fill-rule="nonzero" xlink:href="#path-1"></use>
                    <g id="Group" mask="url(#mask-2)">
                        <g transform="translate(-4.000000, -3.000000)" id="colors/brand-secondary">
                            <rect id="box" fill="#1C1F28" fill-rule="nonzero" x="0" y="0" width="26.4058266" height="25.7456809"></rect>
                        </g>
                    </g>
                </g>
            </g>
        </g>
    </g>
</svg>