<?xml version="1.0" encoding="UTF-8"?>
<svg width="18px" height="18px" viewBox="0 0 18 18" version="1.1" xmlns="http://www.w3.org/2000/svg" xmlns:xlink="http://www.w3.org/1999/xlink">
    <title>3. icons/outline/icon-phone</title>
    <defs>
        <path d="M3.4596147,1.2 C3.95570675,1.21261571 4.42451826,1.427726 4.75519187,1.79446487 C4.99511357,2.00847222 5.24103331,2.25220282 5.45696284,2.48404412 C5.56053415,2.60670537 5.67065579,2.72378428 5.78685517,2.83477839 L5.78685517,2.83477839 L6.82451651,3.91075981 C7.19744736,4.2538297 7.41390408,4.73223128 7.42432076,5.23641647 C7.40857366,5.73940004 7.19299649,6.21585767 6.82451651,6.56207313 L6.82451651,6.56207313 L6.74654196,6.63935356 L6.50662026,6.87713951 L6.47663005,6.87713951 C6.21271619,7.13870405 5.93680623,7.41215789 5.65489824,7.67372244 C5.91351539,8.23549134 6.24851777,8.75952328 6.65057328,9.2312204 C7.20711212,9.91956928 7.82983734,10.5526784 8.50996644,11.1216187 L8.50996644,11.1216187 L8.55795078,11.1632312 C8.79787248,11.3594046 9.04379222,11.5496334 9.29571,11.7220282 L9.29571,11.7220282 L9.34969238,11.7576961 L9.7335671,12.0073713 L9.85952599,12.0727625 L10.0934496,12.1916555 L10.2434007,12.2689359 L10.3633616,12.3283824 L11.5269818,11.1691759 C11.8675896,10.8022643 12.3436667,10.587792 12.8465511,10.574711 C13.3510448,10.5807555 13.8298037,10.796436 14.1661205,11.1691759 L14.1661205,11.1691759 L16.217451,13.2735815 C16.5886833,13.6113371 16.8,14.0878996 16.8,14.5873489 C16.8,15.0867982 16.5886833,15.5633607 16.217451,15.9011162 C16.0651017,16.0769153 15.8964143,16.2381301 15.7136154,16.3826328 C15.4821001,16.5891341 15.2656292,16.811624 15.0658268,17.0484334 L15.0658268,17.0484334 L14.9323921,17.1862756 C14.3821391,17.7180507 13.6382651,18.0127396 12.8645453,17.9995772 L12.8645453,17.9995772 L12.6246236,17.9995772 C11.4598609,17.8912628 10.3273308,17.5601808 9.28971196,17.0246548 C7.01176029,15.9287121 4.9956246,14.3642076 3.37564211,12.435386 C2.13653146,11.0214926 1.1597721,9.40134326 0.490583692,7.64994384 C0.134588476,6.76424628 -0.030889744,5.81463618 0.00474225436,4.8619036 C0.053916128,4.18656299 0.350423634,3.55231542 0.838470154,3.07850899 L0.838470154,3.07850899 L2.14004536,1.79446487 C2.48383517,1.43193211 2.95796671,1.21833625 3.4596147,1.2 Z M3.43562253,2.3235386 C3.2276499,2.33575086 3.03325717,2.4299413 2.89579871,2.58510315 L2.89579871,2.58510315 L1.61821567,3.88698121 C1.33131368,4.17815697 1.15352877,4.55783096 1.11438011,4.96296263 C1.07250954,5.7530574 1.21409658,6.54214062 1.52824504,7.26948633 C2.171119,8.89687303 3.08782273,10.4044118 4.23936022,11.7279729 C5.75804102,13.5317972 7.64479656,14.9965654 9.7755534,16.0259539 C10.6958074,16.488351 11.6903964,16.788095 12.7145942,16.9117065 L12.7145942,16.9117065 L12.8885374,16.9117065 C13.4139653,16.9318627 13.9198743,16.7129084 14.2620891,16.3172417 C14.428271,16.0868083 14.6106654,15.8682942 14.807911,15.6633303 L14.807911,15.6633303 L14.9638601,15.5087694 L15.083821,15.3958211 C15.1941491,15.2908807 15.2982876,15.1797299 15.3957192,15.0629208 C15.5658159,14.9092497 15.6690423,14.6961091 15.6836252,14.4684559 C15.6726477,14.2619868 15.5773695,14.0688344 15.4197113,13.9334375 L15.4197113,13.9334375 L13.3323926,11.8646998 C13.1975323,11.7244118 13.0169215,11.6359633 12.822559,11.6150245 C12.6165311,11.6343198 12.424639,11.7272986 12.2827351,11.8765891 L12.2827351,11.8765891 L10.987158,13.1606332 C10.8337077,13.3297022 10.616737,13.4286202 10.3873537,13.434087 C10.2548818,13.4320228 10.1250144,13.3972912 10.0094771,13.333028 C9.9978341,13.3371078 9.98513175,13.3371078 9.9734888,13.333028 L9.9734888,13.333028 L9.90266867,13.3008604 L9.90266867,13.3008604 L9.83553382,13.2616922 L9.72082126,13.2000165 L9.72082126,13.2000165 L9.60161017,13.1427992 L9.44566106,13.0595742 C9.34369434,13.0060723 9.23572958,12.9466258 9.13376286,12.8812347 C7.85744456,12.0647891 6.72648413,11.0443347 5.78685517,9.86135316 C5.29118265,9.26991971 4.88690136,8.6087937 4.58724668,7.89961909 C4.56797774,7.88591143 4.55675973,7.86367512 4.55725647,7.8401726 C4.4429512,7.53061828 4.52819284,7.18329999 4.773186,6.96036459 L4.773186,6.96036459 L5.09152655,6.65872871 C5.29768149,6.4610141 5.49495044,6.26682224 5.70288258,6.05677799 L5.70288258,6.05677799 L6.03277491,5.72982231 C6.20150409,5.59272674 6.3056717,5.3926986 6.32068095,5.17696998 C6.3056717,4.96124136 6.20150409,4.76121322 6.03277491,4.62411765 L6.03277491,4.62411765 L4.65922319,3.25684845 L4.46728583,3.06661969 L4.42529954,3.0190625 L3.9814444,2.58510315 C3.83906986,2.43311754 3.64423552,2.33975053 3.43562253,2.3235386 Z M10.2295077,3.00185622 L10.325735,3.01797388 C11.4936423,3.20937238 12.5687714,3.77277882 13.3915066,4.62454884 C14.2170962,5.46608039 14.7736809,6.53473615 14.9902922,7.69425457 C15.0494951,8.02361748 14.8318324,8.33899245 14.503207,8.4 L14.503207,8.4 L14.4057899,8.4 C14.1043844,8.3967962 13.8474227,8.18038285 13.7926356,7.88360091 C13.6417663,6.96849574 13.2019307,6.12590378 12.5376749,5.47947623 C11.8804406,4.82174667 11.0391028,4.37952757 10.1251705,4.21142957 C9.95610635,4.19531815 9.80288824,4.10495057 9.70685021,3.96470555 C9.61086031,3.83023966 9.57744503,3.66085771 9.61516359,3.49994637 C9.6362826,3.33698111 9.72617291,3.19090425 9.86205165,3.09873925 C9.99793039,3.00657424 10.1667544,2.97716811 10.325735,3.01797388 Z M10.2612572,-6.50521303e-17 L10.3277732,0.00448125181 C12.2384664,0.319542712 14.0013987,1.23116172 15.3656338,2.60957808 C16.7517673,3.98243201 17.6707066,5.75902754 17.991568,7.6863258 C18.0455696,8.01428213 17.8348867,8.32747065 17.5114963,8.4 L17.5114963,8.4 L17.3784644,8.4 C17.0881471,8.40283771 16.8406971,8.18936841 16.8000648,7.9009997 C16.5092751,6.2314868 15.7136836,4.69206719 14.5211703,3.49148168 C13.3211982,2.29316551 11.7784933,1.50014464 10.1079813,1.2229007 C9.94670787,1.20158169 9.80183858,1.11312594 9.7088856,0.979216814 C9.61030996,0.841771533 9.57650645,0.667989356 9.61634166,0.503453027 C9.65697399,0.215084324 9.90442398,0.00161501951 10.1947413,0.00448125181 C10.2388852,-0.0014937506 10.2836292,-0.0014937506 10.3277732,0.00448125181 Z" id="path-1"></path>
    </defs>
    <g id="Yanbal-UI-Visual-Kit" stroke="none" stroke-width="1" fill="none" fill-rule="evenodd">
        <g id="yanbal-styleguide-pag2" transform="translate(-171.000000, -4541.000000)">
            <g id="Group" transform="translate(168.000000, 4538.000000)">
                <g id="elements" transform="translate(3.000000, 3.000000)">
                    <mask id="mask-2" fill="white">
                        <use xlink:href="#path-1"></use>
                    </mask>
                    <use id="icon" fill="#000000" fill-rule="nonzero" xlink:href="#path-1"></use>
                    <g id="Group" mask="url(#mask-2)">
                        <g transform="translate(-3.000000, -3.000000)" id="color">
                            <rect id="box" fill="#1C1F28" fill-rule="nonzero" x="0" y="0" width="24" height="24"></rect>
                        </g>
                    </g>
                </g>
            </g>
        </g>
    </g>
</svg>