<?xml version="1.0" encoding="UTF-8"?>
<svg width="20px" height="12px" viewBox="0 0 20 12" version="1.1" xmlns="http://www.w3.org/2000/svg" xmlns:xlink="http://www.w3.org/1999/xlink">
    <title>3. icons/outline/icon-eye</title>
    <defs>
        <path d="M10,2.33571429 C8.19638393,2.37544643 6.74948661,3.84694196 6.74948661,5.65638393 C6.74948661,5.67674107 6.74966518,5.69705357 6.75004464,5.71732143 L6.75,5.71426339 C6.7496875,5.73149554 6.74948661,5.75180804 6.74948661,5.77216518 C6.74948661,7.58160714 8.19638393,9.05310268 9.99629464,9.09283482 L9.99997768,9.09283482 C11.8035937,9.05310268 13.2504911,7.58160714 13.2504911,5.77216518 C13.2504911,5.75180804 13.2503125,5.73149554 13.249933,5.71122768 L13.2499777,5.71428571 C13.2502902,5.69705357 13.2504911,5.67674107 13.2504911,5.65638393 C13.2504911,3.84694196 11.8035937,2.37544643 10.003683,2.33571429 L10,2.33571429 Z M12.2428571,5.71428571 C12.1954911,6.91553571 11.2102009,7.87142857 10.0016295,7.87142857 C8.76292411,7.87142857 7.75877232,6.86727679 7.75877232,5.62857143 C7.75877232,4.39044643 8.76200893,3.38665179 9.99991071,3.38571429 L10,3.38571429 C11.2439732,3.40955357 12.2432589,4.42359375 12.2432589,5.67102679 C12.2432589,5.68622768 12.2431027,5.70140625 12.2428125,5.71654018 L12.2428571,5.71428571 Z M19.8,5.41428571 C17.6875893,2.17203125 14.0969643,0.0469196429 10.0070089,0 L10,0 C5.90029018,0.044375 2.30658482,2.17011161 0.220669643,5.36881696 L0.192857143,5.41428571 L0,5.71428571 L0.2,6.01428571 C2.31241071,9.25654018 5.90303571,11.3816518 9.99299107,11.4285714 L10,11.4285714 C14.0969643,11.3816518 17.6875893,9.25654018 19.7722098,6.05973214 L19.8,6.01428571 L20,5.71428571 L19.8,5.41428571 Z M18.7714286,5.71428571 C16.8153571,8.51325893 13.624933,10.3330134 10.0070089,10.3785714 L10,10.3785714 C6.37475446,10.3342857 3.18386161,8.51412946 1.25176339,5.74930804 L1.22857143,5.71428571 C3.18386161,2.91444196 6.37475446,1.09428571 9.99316964,1.05 L10,1.05 C13.6252455,1.09428571 16.8161384,2.91444196 18.7482366,5.67926339 L18.7714286,5.71428571 L18.7714286,5.71428571 Z" id="path-1"></path>
    </defs>
    <g id="Yanbal-UI-Visual-Kit" stroke="none" stroke-width="1" fill="none" fill-rule="evenodd">
        <g id="yanbal-styleguide-pag2" transform="translate(-1082.000000, -4496.000000)">
            <g id="Group" transform="translate(1080.000000, 4490.000000)">
                <g id="elements" transform="translate(2.000000, 6.000000)">
                    <mask id="mask-2" fill="white">
                        <use xlink:href="#path-1"></use>
                    </mask>
                    <use id="icon" fill="#000000" fill-rule="nonzero" xlink:href="#path-1"></use>
                    <g id="Group" mask="url(#mask-2)">
                        <g transform="translate(-2.000000, -6.000000)" id="color">
                            <rect id="box" fill="#1C1F28" fill-rule="nonzero" x="0" y="0" width="24" height="24"></rect>
                        </g>
                    </g>
                </g>
            </g>
        </g>
    </g>
</svg>