<?xml version="1.0" encoding="UTF-8"?>
<svg width="8px" height="18px" viewBox="0 0 8 18" version="1.1" xmlns="http://www.w3.org/2000/svg" xmlns:xlink="http://www.w3.org/1999/xlink">
    <title>3. icons/outline/icon-saving-bulb</title>
    <defs>
        <path d="M7.99959591,10.4731758 L7.56629041,10.4731758 L7.56629041,1.86478587 C7.56681335,1.84945776 7.56719367,1.83145778 7.56719367,1.81335735 C7.56719367,0.829063807 6.63963608,0.0278035404 5.48295831,0 L5.47996328,0 C4.89257986,0.00275222907 4.36550124,0.219093505 4.00177087,0.561776159 L4.00010697,0.563343121 C3.63466515,0.219093505 3.10768161,0.00273213981 2.52086868,0 L2.5202982,0 C1.36934903,0.0369843337 0.452939621,0.834467819 0.452939621,1.81283503 C0.452939621,1.83111626 0.453272403,1.84927695 0.453937966,1.86743765 L0.453866656,1.86480595 L0.453866656,10.4731959 L0.0405755934,10.4731959 L0.00057048286,14.4506491 C0.000237701192,14.4610754 0,14.4734303 0,14.485745 C0,15.0846863 0.502761791,15.5844871 1.17105869,15.6999802 L1.1805192,15.7013865 L1.23385935,15.7013865 L1.23385935,15.7464668 C1.45382803,16.7830728 2.12043725,18 3.98696209,18 C5.48015344,18 6.45334966,17.1943402 6.74006483,15.7464668 L6.74006483,15.6957615 L6.79340498,15.6957615 C7.48528184,15.5806902 8,15.0721104 8,14.4619191 C8,14.4579816 8,14.4540441 8,14.4501066 L8,14.4507093 L7.99959591,10.4731758 Z M4.83985774,1.28444723 C5.00094783,1.13849873 5.22980654,1.04757472 5.48379026,1.04757472 C5.49175325,1.04757472 5.49969247,1.04769526 5.50758415,1.04785597 L5.50644319,1.04783588 C6.01474342,1.06330462 6.41992887,1.41538905 6.41992887,1.84736847 C6.41992887,1.85347561 6.41985756,1.85956266 6.4196674,1.8656497 L6.41969117,1.86476578 L6.41969117,10.4731557 L4.58651581,10.4731557 L4.58651581,1.86476578 C4.58651581,1.86476578 4.58651581,1.81968547 4.58651581,1.79714532 C4.60336882,1.59906518 4.69642884,1.42167698 4.84078477,1.28352312 L4.83978643,1.28442714 L4.83985774,1.28444723 Z M1.60686006,1.84789079 C1.60469698,1.82816314 1.60353224,1.8052212 1.60353224,1.78199801 C1.60353224,1.35574402 2.0124496,1.01014843 2.51680399,1.01014843 C3.02115838,1.01014843 3.43007574,1.35574402 3.43007574,1.78199801 C3.43007574,1.80520111 3.42886346,1.82814305 3.42646268,1.85082383 L3.42674792,1.84787071 L3.42674792,10.4731758 L1.6069076,10.4731758 L1.60686006,1.84789079 Z M5.65978423,15.8252569 C5.33315902,17.0703493 4.35323586,17.0703493 3.99994057,17.0703493 C3.64664529,17.0703493 2.72671791,17.0703493 2.37347017,15.842152 L2.37347017,15.7576163 L5.70646874,15.7576163 L5.65978423,15.8252569 Z M6.90631305,14.461899 C6.90866629,14.4731088 6.91004496,14.4859861 6.91004496,14.4991646 C6.91004496,14.5513364 6.88848546,14.5992895 6.85252127,14.636977 L6.85287782,14.6365752 C6.79140829,14.7053407 6.6948303,14.7493362 6.58622462,14.7493362 C6.58389515,14.7493362 6.58158945,14.7493161 6.57923621,14.7492759 L1.420122,14.7492759 C1.42005069,14.7492759 1.41990807,14.7492759 1.41978922,14.7492759 C1.23937401,14.7492759 1.09316401,14.6257069 1.09316401,14.4732294 C1.09316401,14.4692718 1.09328286,14.4653142 1.09349679,14.4613968 L1.09347302,14.4619593 L1.09347302,13.521159 L6.90621797,13.521159 L6.90631305,14.461899 Z M6.90631305,12.5351378 L1.12689381,12.5351378 L1.12689381,11.3520208 L6.90631305,11.3520208 L6.90631305,12.5351378 Z" id="path-1"></path>
    </defs>
    <g id="Yanbal-UI-Visual-Kit" stroke="none" stroke-width="1" fill="none" fill-rule="evenodd">
        <g id="yanbal-styleguide-pag2" transform="translate(-224.000000, -4685.000000)">
            <g id="Group" transform="translate(216.000000, 4682.000000)">
                <g id="colors/brand-secondary" transform="translate(8.000000, 3.000000)">
                    <mask id="mask-2" fill="white">
                        <use xlink:href="#path-1"></use>
                    </mask>
                    <use id="Mask" fill="#000000" fill-rule="nonzero" xlink:href="#path-1"></use>
                    <g id="Group" mask="url(#mask-2)">
                        <g transform="translate(-10.000000, -4.000000)" id="colors/brand-secondary">
                            <rect id="box" fill="#1C1F28" fill-rule="nonzero" x="0" y="0" width="26.4058266" height="25.7456809"></rect>
                        </g>
                    </g>
                </g>
            </g>
        </g>
    </g>
</svg>