<?xml version="1.0" encoding="UTF-8"?>
<svg width="8px" height="20px" viewBox="0 0 8 20" version="1.1" xmlns="http://www.w3.org/2000/svg" xmlns:xlink="http://www.w3.org/1999/xlink">
    <title>3. icons/outline/icon-thermometer</title>
    <defs>
        <path d="M4.69710745,7.54067221 L5.73709249,7.54067221 L5.73709249,9.08762786 L4.69710745,9.08762786 L4.69710745,7.54067221 L4.69710745,7.54067221 Z M4.69710745,4.64086696 L5.73709249,4.64086696 L5.73709249,6.18188515 L4.69710745,6.18188515 L4.69710745,4.64086696 Z M5.79425501,12.640242 L5.73711417,12.640242 L5.73711417,10.4639371 L4.69712913,10.4639371 L4.69712913,13.3461086 L4.74288518,13.3461086 C5.99603701,13.6495444 6.9210898,14.772172 6.95997159,16.1239056 L6.96008002,16.1282136 C6.91655756,17.7174904 5.65447138,18.9887556 4.10401368,18.9887556 C4.06745222,18.9887556 4.03106423,18.9880414 3.9948931,18.9866128 L4.0000759,18.9867914 C3.96919599,18.9880414 3.93289475,18.9887556 3.89646339,18.9887556 C2.34192886,18.9887556 1.07741392,17.710928 1.04013683,16.1200217 L1.04007178,16.1164949 C1.07838976,14.7619935 2.00077525,13.6399685 3.23208995,13.3383631 L3.25152001,13.3343229 L3.30291424,13.3343229 L3.30291424,2.1763941 C3.3443549,1.82034698 3.63597921,1.54695565 3.98971031,1.54695565 C3.99335345,1.54695565 3.9969749,1.54697797 4.00059635,1.54704494 L4.00005421,1.54704494 C4.00523701,1.54688869 4.01137396,1.54677708 4.01755427,1.54677708 C4.38518567,1.54677708 4.68459501,1.84704326 4.6971725,2.22221974 L4.69721587,2.22338045 L4.69721587,3.28212454 L5.71436626,3.28212454 L5.71436626,2.22338045 C5.71436626,0.811758863 5.10292671,0 4.00005421,0 C2.89718172,0 2.28574217,0.811669578 2.28574217,2.22338045 L2.28574217,12.6167153 L2.22860132,12.6167153 C0.912648782,13.2283414 0.0110595181,14.5626419 0,16.114977 L0,16.1164726 C0.0690244041,18.2761703 1.78656756,20 3.89518396,20 C3.93202733,20 3.96880565,19.9994643 4.0053888,19.9983929 L4.00001084,19.9985268 C4.03128109,19.9994643 4.06799435,20 4.10483773,20 C6.21343244,20 7.93099728,18.276215 7.99982652,16.1229904 L8,16.1164726 C7.98529735,14.5763919 7.09498445,13.2539885 5.81754506,12.6501303 L5.79421164,12.6402866 L5.79425501,12.640242 Z" id="path-1"></path>
    </defs>
    <g id="Yanbal-UI-Visual-Kit" stroke="none" stroke-width="1" fill="none" fill-rule="evenodd">
        <g id="yanbal-styleguide-pag2" transform="translate(-608.000000, -4684.000000)">
            <g id="Group" transform="translate(600.000000, 4682.000000)">
                <g id="colors/brand-secondary" transform="translate(8.000000, 2.000000)">
                    <mask id="mask-2" fill="white">
                        <use xlink:href="#path-1"></use>
                    </mask>
                    <use id="Mask" fill="#000000" fill-rule="nonzero" xlink:href="#path-1"></use>
                    <g id="Group" mask="url(#mask-2)">
                        <g transform="translate(-10.000000, -3.000000)" id="colors/brand-secondary">
                            <rect id="box" fill="#1C1F28" fill-rule="nonzero" x="0" y="0" width="26.4058266" height="25.7456809"></rect>
                        </g>
                    </g>
                </g>
            </g>
        </g>
    </g>
</svg>