<?xml version="1.0" encoding="UTF-8"?>
<svg width="20px" height="20px" viewBox="0 0 20 20" version="1.1" xmlns="http://www.w3.org/2000/svg" xmlns:xlink="http://www.w3.org/1999/xlink">
    <title>3. icons/outline/icon-check-circle</title>
    <defs>
        <path d="M14.575,6.725 C14.463817,6.62162946 14.314308,6.55825893 14.15,6.55825893 C13.985692,6.55825893 13.8361607,6.62169643 13.7246429,6.72540179 L13.725,6.72508929 L8.45625,11.9938393 L6.25,9.81883929 C6.13881696,9.71546875 5.98930804,9.65209821 5.825,9.65209821 C5.66069196,9.65209821 5.51116071,9.71553571 5.39964286,9.81924107 L5.4,9.81892857 C5.2878125,9.92611607 5.218125,10.076875 5.218125,10.2439286 C5.218125,10.4109821 5.2878125,10.5617411 5.39973214,10.6687054 L8.00622768,13.2752009 C8.11642857,13.3815402 8.26589286,13.4478125 8.43078125,13.4502009 L8.43122768,13.4502009 C8.43424107,13.4503125 8.4378125,13.4503125 8.44145089,13.4503125 C8.59171875,13.4503125 8.72863839,13.3933036 8.83176339,13.2997991 L8.83129464,13.3002232 L8.88131696,13.3002232 L8.88131696,13.2502009 L14.550067,7.58145089 C14.6628795,7.46841518 14.7325893,7.31238839 14.7325893,7.14002232 C14.7325893,6.98051339 14.6728795,6.83497768 14.5745313,6.72457589 L14.575067,6.72520089 L14.575,6.725 Z M10,-4.54747351e-13 C4.4771875,-4.54747351e-13 4.54747351e-13,4.4771875 4.54747351e-13,10 C4.54747351e-13,15.5228125 4.4771875,20 10,20 C15.5228125,20 20,15.5228125 20,10 L20,10 C20,4.4771875 15.5228125,-4.54747351e-13 10,-4.54747351e-13 L10,-4.54747351e-13 Z M10,18.84375 C5.11575893,18.84375 1.15625,14.8842634 1.15625,10 C1.15625,5.11573661 5.11573661,1.15625 10,1.15625 C14.8842411,1.15625 18.84375,5.11573661 18.84375,10 L18.84375,10 C18.8402232,14.8828125 14.8828125,18.8402232 10.0003125,18.84375 L10,18.84375 L10,18.84375 Z" id="path-1"></path>
    </defs>
    <g id="Yanbal-UI-Visual-Kit" stroke="none" stroke-width="1" fill="none" fill-rule="evenodd">
        <g id="yanbal-styleguide-pag2" transform="translate(-458.000000, -4588.000000)">
            <g id="Group" transform="translate(456.000000, 4586.000000)">
                <g id="colors/brand-secondary" transform="translate(2.000000, 2.000000)">
                    <mask id="mask-2" fill="white">
                        <use xlink:href="#path-1"></use>
                    </mask>
                    <use id="Mask" fill="#000000" fill-rule="nonzero" xlink:href="#path-1"></use>
                    <g id="Group" mask="url(#mask-2)">
                        <g transform="translate(-4.000000, -3.000000)" id="colors/brand-secondary">
                            <rect id="box" fill="#1C1F28" fill-rule="nonzero" x="0" y="0" width="26.4058266" height="25.7456809"></rect>
                        </g>
                    </g>
                </g>
            </g>
        </g>
    </g>
</svg>