<?xml version="1.0" encoding="UTF-8"?>
<svg width="20px" height="14px" viewBox="0 0 20 14" version="1.1" xmlns="http://www.w3.org/2000/svg" xmlns:xlink="http://www.w3.org/1999/xlink">
    <title>3. icons/outline/icon-relax</title>
    <defs>
        <path d="M0.873371102,6.11688585 L2.04798,3.78488671 L2.11844076,3.83150881 L5.91827632,6.27428294 C5.98531317,6.31459931 6.06629349,6.33843584 6.15290527,6.33843584 C6.15506775,6.33843584 6.15723023,6.33841348 6.1593927,6.33839111 L6.15907734,6.33839111 C6.16299684,6.33850292 6.16768221,6.33857 6.17227747,6.33857 C6.32621893,6.33857 6.46425715,6.27097355 6.55789699,6.16413405 L6.55843761,6.16348559 C6.60179981,6.09863951 6.62759188,6.01903536 6.62759188,5.9334609 C6.62759188,5.91181572 6.62594749,5.89046124 6.62274883,5.86968813 L6.62301914,5.87205837 C6.59763254,5.75484349 6.53226261,5.65574079 6.44209175,5.58724992 L6.44094293,5.58640021 L2.24762634,2.92212082 L0.87332605,0.263655211 C0.797368984,0.116007398 0.648383209,0.0149369588 0.474979445,0.00711070791 L0.473943257,0.00711070791 C0.394539741,0.00722251149 0.319776544,0.0265868921 0.254023675,0.0607987887 L0.25663667,0.05959131 C0.137407503,0.113547719 0.0488359782,0.216764788 0.0164889004,0.342320212 L0.0158356516,0.345249466 C0.0057891358,0.378119719 0,0.41588697 0,0.454951142 C0,0.521429553 0.0167141586,0.584039559 0.0462229831,0.638845676 L0.0451642695,0.636766129 L1.40768356,3.21359276 L0.062779461,5.79041939 C0.0460653024,5.83006494 0.036334148,5.87617274 0.036334148,5.92451661 C0.036334148,5.97286048 0.0460653024,6.01892356 0.0636579679,6.06093934 L0.0628019868,6.05854675 C0.0991586606,6.17734923 0.184599097,6.27171146 0.295043193,6.31987644 L0.297723766,6.32094976 C0.345388401,6.34773789 0.402401252,6.3635022 0.463130864,6.3635022 C0.475227229,6.3635022 0.487143388,6.36285374 0.498901866,6.36164626 L0.497415162,6.36178042 C0.662416795,6.35413306 0.802977913,6.2575124 0.872154707,6.11945734 L0.873280998,6.11693058 L0.873371102,6.11688585 Z M19.9371755,5.77293331 L18.5922714,3.19024817 L19.9371755,0.590076953 C19.9688468,0.530798693 19.9874306,0.460451878 19.9874306,0.385811806 C19.9874306,0.226111567 19.9023055,0.0861334807 19.7746742,0.00816166159 L19.7727145,0.00706598647 L19.7374616,0.00706598647 C19.7100927,0.0025491217 19.6786016,0 19.6464573,0 C19.6143129,0 19.5827768,0.0025491217 19.5520515,0.00751320081 L19.5553854,0.00706598647 C19.3815761,0.00769208654 19.2303378,0.103038183 19.1513848,0.243754173 L19.1502134,0.246124409 L17.7759131,2.92209846 L17.7289468,2.92209846 L13.5590796,5.59223636 C13.4658903,5.65638926 13.4009709,5.75535779 13.3831755,5.86977757 L13.3829052,5.87210309 C13.3789406,5.89245134 13.3766655,5.91584065 13.3766655,5.93974426 C13.3766655,6.02160684 13.4032234,6.09732023 13.4482751,6.1588122 L13.4475543,6.15771652 C13.5376575,6.26842443 13.6743667,6.33861472 13.8276549,6.33861472 C13.8323403,6.33861472 13.8370933,6.33854764 13.8417561,6.33839111 L13.8411029,6.33841348 C13.8439186,6.33848056 13.8471398,6.33852528 13.8504511,6.33852528 C13.9360267,6.33852528 14.0159483,6.31464403 14.0838186,6.27318726 L14.0818588,6.27428294 L17.9521552,3.78488671 L17.9932873,3.86068954 L19.1678962,6.10525828 C19.2419611,6.24993212 19.3898656,6.3478497 19.5610844,6.35010813 L19.5613772,6.35010813 C19.5886785,6.35766605 19.6200345,6.36198167 19.6523815,6.36198167 C19.6847286,6.36198167 19.716062,6.35766605 19.7459087,6.34950439 L19.7434534,6.35010813 C19.8617365,6.29295414 19.9506685,6.19132468 19.9892101,6.06771464 L19.9900886,6.06442761 C19.9963959,6.03884695 20,6.00953205 20,5.97934509 C20,5.90246894 19.9765506,5.83095937 19.9363646,5.77159167 L19.937198,5.77293331 L19.9371755,5.77293331 Z M19.0914661,7.13132449 L14.5281404,7.13132449 C14.370347,7.13713828 14.2348767,7.22673767 14.1651593,7.35640746 L14.1640555,7.35871062 C13.3903612,8.91430096 11.8035523,9.96550061 9.96940994,9.96550061 C8.14677824,9.96550061 6.56834897,8.92751614 5.80134479,7.41450061 L5.7891358,7.38791371 L5.73038846,7.32959696 L5.73038846,7.2887663 L5.61879554,7.17217752 L0.820548053,7.17217752 C0.81662856,7.17202099 0.811988242,7.17195391 0.807438026,7.17195391 C0.680279771,7.17195391 0.567695721,7.23362477 0.498293669,7.32850129 L0.497550317,7.32959696 C0.450719137,7.38845037 0.422426707,7.46369418 0.422426707,7.54546732 C0.422426707,7.58940613 0.430581054,7.63144428 0.445493147,7.67015068 L0.444704743,7.66773572 C1.66044579,11.5038508 5.38979806,13.9990608 9.91789339,13.9990608 C9.95981394,13.9996869 10.0093257,14 10.0588374,14 C12.4033023,14 14.5712548,13.2499098 16.3325036,11.9783005 L16.301846,11.9994314 C16.4486693,11.8944926 16.5778999,11.7895761 16.695327,11.6962872 L16.7893047,11.6204843 C18.0094608,10.5755233 18.9371192,9.22587518 19.4548752,7.68985047 L19.4732562,7.62697214 C19.490556,7.58860115 19.5006026,7.54376791 19.5006026,7.49665388 C19.5006026,7.41476893 19.4702378,7.33990525 19.4200728,7.28259474 L19.4204106,7.28297487 C19.3477649,7.19015553 19.2352935,7.13098908 19.1089236,7.13098908 C19.1028191,7.13098908 19.0967597,7.1311456 19.0906777,7.13139157 L19.0915337,7.13134685 L19.0914661,7.13132449 Z M7.24563281,12.8971471 C5.94129771,12.5507796 4.80538818,11.9658903 3.83366934,11.1871784 L3.8510818,11.2006619 C2.84456058,10.4006849 2.04644824,9.38418906 1.52215978,8.21955349 L1.50186401,8.16906299 L1.3902711,7.918377 L5.05504184,7.918377 L5.05504184,8.058288 C5.44266616,10.104629 6.22965074,11.6320225 7.36315001,12.5881667 L7.95042067,13.1011886 L7.24563281,12.8971471 Z M18.4043159,8.16904063 C17.797628,9.51994097 16.8751957,10.6376414 15.7263338,11.4642724 L15.7027493,11.4804615 C14.3503666,12.3708876 12.705779,12.9284074 10.9351594,13.0014375 L10.9162828,13.0020859 C10.9019564,13.0022425 10.8849494,13.0023095 10.8679874,13.0023095 C10.2929708,13.0023095 9.74002951,12.9083498 9.22394044,12.7350543 L9.26007186,12.7455862 C7.94911417,12.2306859 6.94223253,11.1931263 6.48642256,9.89873151 L6.47626342,9.86559293 L6.2354624,9.28262668 L6.71701938,9.64411003 C7.61431291,10.317503 8.74875826,10.7226792 9.97855542,10.7226792 C9.98407425,10.7226792 9.98952549,10.7226792 9.99506685,10.7226568 L9.99423339,10.7226568 C10.0014867,10.7227016 10.0100015,10.7227239 10.0185838,10.7227239 C11.0300157,10.7227239 11.9778121,10.4521369 12.7924358,9.97994563 L12.7662834,9.99394344 C13.6026445,9.50178407 14.2812799,8.82628918 14.7606068,8.02016298 L14.7748657,7.99426927 L14.821832,7.91267501 L18.5511843,7.91267501 L18.4043159,8.16904063 Z" id="path-1"></path>
    </defs>
    <g id="Yanbal-UI-Visual-Kit" stroke="none" stroke-width="1" fill="none" fill-rule="evenodd">
        <g id="yanbal-styleguide-pag2" transform="translate(-1466.000000, -4639.000000)">
            <g id="Group" transform="translate(1464.000000, 4634.000000)">
                <g id="colors/brand-secondary" transform="translate(2.000000, 5.000000)">
                    <mask id="mask-2" fill="white">
                        <use xlink:href="#path-1"></use>
                    </mask>
                    <use id="Mask" fill="#000000" fill-rule="nonzero" xlink:href="#path-1"></use>
                    <g id="Group" mask="url(#mask-2)">
                        <g transform="translate(-4.000000, -6.000000)" id="colors/brand-secondary">
                            <rect id="box" fill="#1C1F28" fill-rule="nonzero" x="0" y="0" width="26.4058266" height="25.7456809"></rect>
                        </g>
                    </g>
                </g>
            </g>
        </g>
    </g>
</svg>