<?xml version="1.0" encoding="UTF-8"?>
<svg width="20px" height="17px" viewBox="0 0 20 17" version="1.1" xmlns="http://www.w3.org/2000/svg" xmlns:xlink="http://www.w3.org/1999/xlink">
    <title>3. icons/outline/icon-sound</title>
    <defs>
        <path d="M12.2987263,0.06607789 C12.2154943,0.0243630694 12.1178104,0 12.0147372,0 C11.8758481,0 11.7467951,0.0442116569 11.6398551,0.119797701 L11.642151,0.118234026 L6.44005863,4.09851896 L0.625278678,4.09851896 C0.279928997,4.09851896 0,4.39064881 0,4.75105073 L0,4.75105073 L0,11.9285472 C0,12.2889491 0.279928997,12.5810789 0.625278678,12.5810789 L0.625278678,12.5810789 L6.02116807,12.5810789 L11.6484345,16.8745025 C11.7504202,16.9528628 11.878434,17 12.0170814,17 C12.1222088,17 12.2214153,16.9728879 12.308369,16.924994 L12.3050097,16.9267342 C12.5071686,16.8157637 12.6426984,16.5981355 12.6426984,16.3474178 C12.6426984,16.3469386 12.6426984,16.3464846 12.6426984,16.3460307 L12.6426984,16.3461063 L12.6426984,0.653389274 C12.6426984,0.652052583 12.6426984,0.650463688 12.6426984,0.648874792 C12.6426984,0.395609841 12.5044619,0.175989128 12.3023514,0.0679442121 L12.2988471,0.0662039929 L12.2987263,0.06607789 Z M11.3859542,1.95832672 L11.3859542,15.0083569 L6.59033045,11.3413114 C6.48877976,11.2638339 6.36144264,11.2172767 6.22361694,11.2172767 C6.22284359,11.2172767 6.22204607,11.2172767 6.22132105,11.2172767 L1.25065403,11.2172767 L1.25065403,5.40993809 L6.6340973,5.40993809 C6.63479815,5.40993809 6.63552317,5.40993809 6.63636902,5.40993809 C6.77407388,5.40993809 6.90145934,5.36345658 7.00477424,5.28469275 L7.00298586,5.28602944 L11.3859542,1.95832672 Z M15.4813326,4.56835293 C15.367215,4.443612 15.2066963,4.36600831 15.0286805,4.36600831 C15.025152,4.36600831 15.0216478,4.36600831 15.0181435,4.36613441 L15.0186752,4.36613441 C15.0173944,4.36613441 15.0158718,4.36610919 15.0143493,4.36610919 C14.8692493,4.36610919 14.7356528,4.41768526 14.6296312,4.50421703 L14.6309846,4.50313254 C14.4763143,4.60207283 14.3672476,4.76522469 14.3375703,4.95611918 L14.3370869,4.95990226 C14.3302717,4.99589201 14.3264533,5.03732941 14.3264533,5.07969996 C14.3264533,5.24093506 14.3825213,5.38857627 14.4753476,5.50237148 L14.4745743,5.50148876 C15.0298647,6.33581039 15.3652333,7.3677604 15.374876,8.48094586 L15.3749002,8.4834427 C15.375166,8.50172761 15.3752143,8.52324075 15.3752143,8.54480434 C15.3752143,9.65188642 15.0378157,10.6767495 14.4643999,11.513467 L14.4744293,11.4979564 C14.4026526,11.6108437 14.3599249,11.7494559 14.3599249,11.8984086 C14.3599249,12.0920521 14.4320158,12.2679656 14.5498068,12.3987594 L14.5494927,12.3984064 L14.6119891,12.4636267 C14.7135398,12.5411043 14.8408769,12.5876615 14.9787026,12.5876615 C14.979476,12.5876615 14.9802735,12.5876615 14.9809985,12.5876615 L14.9808535,12.5876615 C15.2143814,12.5860474 15.4209146,12.466401 15.5483967,12.2830727 L15.5497742,12.2809289 C16.2625141,11.2194961 16.696775,9.90651329 16.718888,8.48914255 L16.7189605,8.4834427 C16.719468,8.45305191 16.7197339,8.41728914 16.7197339,8.38132461 C16.7197339,6.98039768 16.2906931,5.68403523 15.5622203,4.62764649 L15.5747148,4.64676368 C15.5434182,4.61410305 15.5184535,4.5684286 15.4808976,4.5684286 L15.4813326,4.56835293 Z M18.1323808,2.25204546 C18.1051444,2.20795991 18.0762887,2.16952376 18.0444846,2.13416452 L18.044823,2.13456805 C17.9216426,2.01956226 17.7581271,1.94937342 17.5788788,1.94937342 C17.2444285,1.94937342 16.9646929,2.19401293 16.8952121,2.52127503 L16.8943904,2.52616782 C16.8873819,2.56288897 16.8833702,2.60505776 16.8833702,2.6482606 C16.8833702,2.80258526 16.9346289,2.94429963 17.0204467,3.05600153 L17.0195283,3.05466484 C18.0365578,4.54941229 18.6453302,6.41142165 18.6453302,8.42185407 C18.6453302,8.44351854 18.6452577,8.46515778 18.6450644,8.48684747 L18.6450886,8.48349314 C18.6407626,10.5174563 18.0232658,12.4001214 16.9754715,13.9417791 L16.9944911,13.9122962 C16.9177118,14.0236955 16.8716249,14.1629634 16.8716249,14.3134294 C16.8716249,14.4998094 16.9422657,14.6690646 17.0571809,14.793402 L17.0569392,14.7931498 C17.0569392,14.7931498 17.0569392,14.7931498 17.0569392,14.7931498 L17.1381894,14.8714849 C17.2397401,14.9489877 17.3671256,14.9955196 17.5049754,14.9955196 C17.5078997,14.9955196 17.5108481,14.9955196 17.5138931,14.9955196 L17.5134581,14.9955196 C17.7438685,14.9943595 17.9479365,14.8772352 18.0747903,14.6973116 L18.0761195,14.6953192 C19.2789466,12.9563862 20,10.7821967 20,8.43214406 C20,6.11790468 19.3007938,3.97415633 18.1107028,2.218376 L18.1323325,2.25212112 L18.1323808,2.25204546 Z" id="path-1"></path>
    </defs>
    <g id="Yanbal-UI-Visual-Kit" stroke="none" stroke-width="1" fill="none" fill-rule="evenodd">
        <g id="yanbal-styleguide-pag2" transform="translate(-362.000000, -4686.000000)">
            <g id="Group" transform="translate(360.000000, 4682.000000)">
                <g id="colors/brand-secondary" transform="translate(2.000000, 4.000000)">
                    <mask id="mask-2" fill="white">
                        <use xlink:href="#path-1"></use>
                    </mask>
                    <use id="Mask" fill="#000000" fill-rule="nonzero" xlink:href="#path-1"></use>
                    <g id="Group" mask="url(#mask-2)">
                        <g transform="translate(-4.000000, -5.000000)" id="colors/brand-secondary">
                            <rect id="box" fill="#1C1F28" fill-rule="nonzero" x="0" y="0" width="26.4058266" height="25.7456809"></rect>
                        </g>
                    </g>
                </g>
            </g>
        </g>
    </g>
</svg>