<?xml version="1.0" encoding="UTF-8"?>
<svg width="10px" height="22px" viewBox="0 0 10 22" version="1.1" xmlns="http://www.w3.org/2000/svg" xmlns:xlink="http://www.w3.org/1999/xlink">
    <title>3. icons/outline/icon-bottle</title>
    <defs>
        <path d="M9.6787042,7.70390402 L7.0750331,3.58995313 C7.23340653,3.41464063 7.33180438,3.18987723 7.33895272,2.94453795 L7.33897979,2.94313839 L7.33897979,1.08025893 C7.33897979,0.483680804 6.80561685,0 6.14769967,0 L6.14769967,0 L3.85086525,0 C3.19297514,0 2.65958513,0.48365625 2.65958513,1.08025893 L2.65958513,1.08025893 L2.65958513,2.92379018 C2.65958513,2.92511607 2.65958513,2.92676116 2.65958513,2.92825893 C2.65958513,3.17129018 2.75094296,3.39512054 2.90409052,3.57283929 L2.90219513,3.57045759 L0.312766539,7.72327679 C0.11916592,8.08266741 0.00609232719,8.50530804 0.00609232719,8.95191295 C0.00609232719,8.95208482 0.00609232719,8.9522567 0.00609232719,8.9522567 L0.00609232719,8.95223214 L0.00609232719,19.6834442 C0.00219323779,19.7304397 0,19.7851205 0,19.8403906 C0,20.8630469 0.758589504,21.7251719 1.79341866,21.989 L1.81072087,21.9927813 C1.86947798,21.9972991 1.93779328,22 2.00683965,22 C2.07588603,22 2.14430963,21.9974219 2.21192092,21.9922411 L2.2031209,21.9927567 C2.20515167,21.9927567 2.20761568,21.9927567 2.21013384,21.9927567 C2.7626673,21.9927567 3.26372737,21.7928661 3.63024177,21.4685134 L3.62986269,21.4688571 C3.99339863,21.7816451 4.48595651,21.9739978 5.02798409,21.9739978 C5.57001167,21.9739978 6.06248832,21.7816696 6.42705318,21.4680714 L6.42610549,21.4688571 C6.79527344,21.792154 7.29822889,21.9917009 7.85257651,21.9928304 L7.96692272,21.9928304 C9.12654982,21.8185491 10,20.9158125 10,19.8279911 C10,19.7680558 9.99734645,19.7087098 9.99209351,19.6499777 L9.99260798,19.6577366 L9.99260798,8.94597098 C9.99263505,8.94248438 9.99263505,8.93835938 9.99263505,8.93423438 C9.99263505,8.48637723 9.87677253,8.06314732 9.67071648,7.68772321 L9.67873128,7.70392857 L9.6787042,7.70390402 Z M3.85081109,1.12551116 L6.24043843,1.12551116 L6.24043843,2.85263393 C6.22643962,2.85508929 6.21049126,2.85651339 6.19405551,2.85651339 C6.17761977,2.85651339 6.16167141,2.85506473 6.14607505,2.85233929 L6.1476726,2.85260938 L3.75804526,2.85260938 L3.75804526,1.15139063 C3.78395795,1.13523438 3.81604421,1.12556027 3.85051324,1.12556027 C3.85064863,1.12556027 3.85075694,1.12556027 3.85089232,1.12556027 L3.85086525,1.12556027 L3.85081109,1.12551116 Z M8.89406661,19.6576875 C8.89636816,19.6834687 8.89766786,19.7136205 8.89766786,19.7439688 C8.89766786,20.3040112 8.44916427,20.7691786 7.85999561,20.8599286 L7.85265774,20.8609107 C7.83500353,20.861942 7.81439793,20.8625312 7.79379232,20.8625312 C7.48235256,20.8625312 7.20391967,20.7342143 7.01941692,20.5326049 L7.01811723,20.5310826 C6.86670259,20.3684888 6.64169264,20.2659777 6.39039091,20.2659286 L6.39039091,20.2659286 C6.13919749,20.2669598 5.91464785,20.3692746 5.76369352,20.530125 L5.76266459,20.5311562 C5.57591446,20.7293527 5.3002705,20.8542321 4.99235074,20.854625 L4.99226951,20.854625 C4.68616392,20.8523906 4.41181966,20.7307522 4.22279505,20.5386451 L4.22184736,20.5376629 C4.07286965,20.3709442 3.84707446,20.2652165 3.59412104,20.2652165 C3.34116761,20.2652165 3.11534535,20.3708705 2.96750488,20.5363125 L2.96636765,20.5376629 C2.77682858,20.7380201 2.49742091,20.8640536 2.18538545,20.8640536 C2.11847816,20.8640536 2.05308719,20.8582098 1.98978114,20.8472098 L1.99622546,20.848192 C1.47079609,20.7024911 1.09518381,20.2666406 1.09518381,19.7512857 C1.09518381,19.727567 1.09599612,19.7040937 1.09756659,19.6807679 L1.09734997,19.6839107 L1.09734997,8.93978348 C1.09734997,8.93806473 1.0973229,8.93595313 1.0973229,8.93384152 C1.0973229,8.68668527 1.16057479,8.45288616 1.27299854,8.24494196 L1.26850375,8.25422321 L3.9148753,3.99798438 L6.05477138,3.99798438 L8.73683042,8.25422321 C8.84792739,8.45627455 8.91369745,8.69419866 8.91518668,8.94592187 L8.91518668,8.94631473 L8.89406661,19.6576875 Z" id="path-1"></path>
    </defs>
    <g id="Yanbal-UI-Visual-Kit" stroke="none" stroke-width="1" fill="none" fill-rule="evenodd">
        <g id="yanbal-styleguide-pag2" transform="translate(-847.000000, -4587.000000)">
            <g id="Group" transform="translate(840.000000, 4586.000000)">
                <g id="colors/brand-secondary" transform="translate(7.000000, 1.000000)">
                    <mask id="mask-2" fill="white">
                        <use xlink:href="#path-1"></use>
                    </mask>
                    <use id="Mask" fill="#000000" fill-rule="nonzero" xlink:href="#path-1"></use>
                    <g id="Group" mask="url(#mask-2)">
                        <g transform="translate(-9.000000, -2.000000)" id="colors/brand-secondary">
                            <rect id="box" fill="#1C1F28" fill-rule="nonzero" x="0" y="0" width="26.4058266" height="25.7456809"></rect>
                        </g>
                    </g>
                </g>
            </g>
        </g>
    </g>
</svg>