<?xml version="1.0" encoding="UTF-8"?>
<svg width="20px" height="20px" viewBox="0 0 20 20" version="1.1" xmlns="http://www.w3.org/2000/svg" xmlns:xlink="http://www.w3.org/1999/xlink">
    <title>3. icons/outline/icon-banking</title>
    <defs>
        <path d="M19.324294,15.4708509 L17.9885119,15.4708509 L17.9885119,8.87490702 L19.5125945,8.87490702 C19.784584,8.86135591 20,8.63615377 20,8.36037291 C20,8.17965374 19.9075051,8.02073417 19.7676254,7.92875435 L19.765621,7.92755333 L10.2444572,0.59740244 C10.1723441,0.552670197 10.0849165,0.526315789 9.99143065,0.526315789 C9.89794482,0.526315789 9.81044965,0.552738179 9.73635464,0.59864878 L9.73844912,0.597425101 L0.211384732,7.92757599 C0.0825179692,8.02467714 -4.54747351e-13,8.17790887 -4.54747351e-13,8.35058348 C-4.54747351e-13,8.50714634 0.067856616,8.64768807 0.175553376,8.7442227 L0.176048844,8.74465325 C0.246562971,8.82623181 0.349913124,8.87755832 0.465199555,8.87755832 C0.509138572,8.87755832 0.551433536,8.87012561 0.590710648,8.85639322 L0.588030615,8.85723167 L1.98856144,8.85723167 L1.98856144,15.4709415 L0.652779295,15.4709415 C0.355138061,15.4742273 0.114655835,15.7161984 0.11139025,16.0154104 L0.11139025,18.9229156 C0.11139025,18.9229156 0.11139025,18.9229383 0.11139025,18.9229609 C0.11139025,19.2250056 0.353043582,19.4702624 0.652509039,19.4736842 L19.3244967,19.4736842 C19.3273344,19.4736842 19.330645,19.4736842 19.3341584,19.4736842 C19.4651646,19.4736842 19.5841896,19.4217685 19.67191,19.3371761 L19.6716848,19.3373574 L19.7069981,19.3373574 L19.7364109,19.2959109 C19.8167669,19.2085992 19.8661335,19.0913074 19.8661335,18.9623453 C19.8661335,18.9567481 19.8660434,18.9512642 19.8658633,18.945735 L19.8658858,18.9465734 L19.8658858,16.015705 C19.8626202,15.716221 19.622138,15.47425 19.324767,15.4709642 L19.3244967,15.4709642 L19.324294,15.4708509 Z M1.94723489,7.86242644 L9.99140813,1.66909545 L18.0355814,7.86242644 L1.94723489,7.86242644 Z M16.8998558,8.94594835 L16.8998558,15.459022 L14.3400871,15.459022 L14.3400871,8.94594835 L16.8998558,8.94594835 Z M13.2278962,8.94594835 L13.2278962,15.459022 L10.5445308,15.459022 L10.5445308,8.94594835 L13.2278962,8.94594835 Z M9.43238492,8.94594835 L9.43238492,15.459022 L6.75492006,15.459022 L6.75492006,8.94594835 L9.43238492,8.94594835 Z M5.63685112,8.94594835 L5.63685112,15.459022 L3.07708246,15.459022 L3.07708246,8.94594835 L5.63685112,8.94594835 Z M1.19403321,18.3780388 L1.19403321,16.6017563 L18.7828374,16.6017563 L18.7828374,18.4135708 L1.19403321,18.3780388 Z" id="path-1"></path>
    </defs>
    <g id="Yanbal-UI-Visual-Kit" stroke="none" stroke-width="1" fill="none" fill-rule="evenodd">
        <g id="yanbal-styleguide-pag2" transform="translate(-698.000000, -4588.000000)">
            <g id="Group" transform="translate(696.000000, 4586.000000)">
                <g id="colors/brand-secondary" transform="translate(2.000000, 2.000000)">
                    <mask id="mask-2" fill="white">
                        <use xlink:href="#path-1"></use>
                    </mask>
                    <use id="Mask" fill="#000000" fill-rule="nonzero" xlink:href="#path-1"></use>
                    <g id="Group" mask="url(#mask-2)">
                        <g transform="translate(-4.000000, -3.000000)" id="colors/brand-secondary">
                            <rect id="box" fill="#1C1F28" fill-rule="nonzero" x="0" y="0" width="26.4058266" height="25.7456809"></rect>
                        </g>
                    </g>
                </g>
            </g>
        </g>
    </g>
</svg>