<?xml version="1.0" encoding="UTF-8"?>
<svg width="20px" height="20px" viewBox="0 0 20 20" version="1.1" xmlns="http://www.w3.org/2000/svg" xmlns:xlink="http://www.w3.org/1999/xlink">
    <title>3. icons/outline/icon-businesssetings</title>
    <defs>
        <path d="M18.1725664,-1.7408297e-13 C19.159292,-1.7408297e-13 19.9623894,0.803097345 19.9623894,1.78982301 L19.9623894,1.78982301 L19.9623894,13.6084071 C19.9535398,14.5884956 19.1504425,15.3849558 18.1725664,15.3849558 L18.1725664,15.3849558 L12.7411504,15.3849558 L12.7411504,16.3849558 L13.5707965,16.3849558 C14.5575221,16.3849558 15.3606195,17.1880531 15.3606195,18.1747788 L15.3606195,18.1747788 L15.3606195,19.0176991 L16.9955752,19.0176991 L16.9955752,19.9778761 L2.94469027,19.9778761 L2.94469027,19.0154867 L4.56637168,19.0154867 L4.56637168,18.1858407 C4.56637168,17.199115 5.36946903,16.3960177 6.35619469,16.3960177 L6.35619469,16.3960177 L7.19247788,16.3960177 L7.19247788,15.3960177 L1.78982301,15.3960177 C0.803097345,15.3960177 2.30926389e-14,14.5929204 2.30926389e-14,13.6061947 L2.30926389e-14,13.6061947 L2.30926389e-14,1.78982301 C2.30926389e-14,0.803097345 0.803097345,-1.7408297e-13 1.78982301,-1.7408297e-13 L1.78982301,-1.7408297e-13 Z M13.5707965,17.3030973 L6.35840708,17.3517699 C5.91150442,17.3584071 5.54424779,17.7278761 5.5420354,18.1747788 L5.5420354,18.1747788 L5.5420354,18.960177 L14.4004425,18.960177 L14.4004425,18.1327434 C14.4004425,17.6747788 14.0287611,17.3030973 13.5707965,17.3030973 L13.5707965,17.3030973 Z M11.7809735,15.3827434 L8.16150442,15.3827434 L8.16150442,16.340708 L11.7809735,16.340708 L11.7809735,15.3827434 Z M18.1482301,1.01769912 L1.78982301,1.01769912 C1.34070796,1.01769912 0.977876106,1.36725664 0.960176991,1.81415929 L0.960176991,1.81415929 L0.960176991,13.6061947 C0.960176991,14.0641593 1.33185841,14.4358407 1.78982301,14.4358407 L1.78982301,14.4358407 L18.1150442,14.4358407 C18.5730088,14.4358407 18.9446903,14.0641593 18.9446903,13.6061947 L18.9446903,13.6061947 L18.9446903,1.81415929 C18.9292035,1.38495575 18.579646,1.03539823 18.1482301,1.01769912 L18.1482301,1.01769912 Z M18.4756637,1.48672566 L18.4756637,12.6150442 L1.48451327,12.6150442 L1.48451327,1.48672566 L18.4756637,1.48672566 Z M17.8185841,2.14380531 L2.10840708,2.14380531 L2.10840708,11.9557522 L17.8185841,11.9557522 L17.8185841,2.14380531 Z M14.5575221,4.40265487 C15.1017699,4.40265487 15.5420354,4.84292035 15.5420354,5.38716814 C15.5420354,5.93141593 15.1017699,6.37168142 14.5575221,6.37168142 C14.3473451,6.37168142 14.1526549,6.30530973 13.9955752,6.19469027 L13.9955752,6.19469027 L11.8716814,7.72345133 C11.8982301,7.8119469 11.9137168,7.90265487 11.9137168,8 L11.9137168,8 C11.869469,8.50663717 11.4469027,8.90044248 10.9336283,8.90044248 C10.420354,8.90044248 9.99778761,8.50663717 9.95353982,8 L9.95353982,8 L9.95353982,7.92920354 L8.69247788,7.36946903 L8.61216105,7.44641245 C8.44288423,7.59084342 8.22345133,7.67699115 7.98451327,7.67699115 C7.78761062,7.67699115 7.6039823,7.61725664 7.45353982,7.51769912 L7.45353982,7.51769912 L5.96681416,8.67920354 C6.00221239,8.78318584 6.02212389,8.8960177 6.02212389,9.01106195 C6.02212389,9.57079646 5.56858407,10.0243363 5.00884956,10.0243363 C4.44911504,10.0243363 3.99557522,9.57079646 3.99557522,9.01106195 C3.99557522,8.45132743 4.44911504,7.99778761 5.00884956,7.99778761 C5.21460177,7.99778761 5.40486726,8.05752212 5.5619469,8.16150442 L5.5619469,8.16150442 L7.04867257,7 C7.01327434,6.90486726 6.99336283,6.80309735 6.99115044,6.69469027 L6.991,6.696 L6.99115044,6.69469027 L6.98810841,6.65597345 L6.98810841,6.65597345 L6.98672566,6.61283186 C6.98672566,6.06858407 7.42699115,5.62831858 7.97123894,5.62831858 C8.51548673,5.62831858 8.95575221,6.06858407 8.95575221,6.61283186 C8.95575221,6.64380531 8.95353982,6.67256637 8.95132743,6.69690265 L8.95132743,6.69690265 L8.95132743,6.76769912 L10.2123894,7.32743363 L10.2935318,7.25049021 C10.4642406,7.10605924 10.6839444,7.0199115 10.9247788,7.0199115 C11.1327434,7.0199115 11.3252212,7.0840708 11.4800885,7.19247788 L11.4800885,7.19247788 L13.6039823,5.66371681 C13.5774336,5.57522124 13.5619469,5.48451327 13.5619469,5.38716814 C13.5619469,4.84292035 14.0022124,4.40265487 14.5464602,4.40265487 L14.5464602,4.40265487 Z M4.99557522,8.65044248 C4.80088496,8.65044248 4.64159292,8.80973451 4.64159292,9.00442478 C4.64159292,9.19911504 4.80088496,9.35840708 4.99557522,9.35840708 C5.19026549,9.35840708 5.34955752,9.19911504 5.34955752,9.00442478 C5.34955752,8.80973451 5.19026549,8.65044248 4.99557522,8.65044248 Z M10.9358407,7.61946903 C10.7411504,7.61946903 10.5818584,7.77876106 10.5818584,7.97345133 C10.5818584,8.16814159 10.7411504,8.32743363 10.9358407,8.32743363 C11.130531,8.32743363 11.289823,8.16814159 11.289823,7.97345133 C11.289823,7.77876106 11.130531,7.61946903 10.9358407,7.61946903 Z M7.98893805,6.27654867 C7.79424779,6.27654867 7.63495575,6.43584071 7.63495575,6.63053097 C7.63495575,6.82522124 7.79424779,6.98451327 7.98893805,6.98451327 C8.18362832,6.98451327 8.34292035,6.82522124 8.34292035,6.63053097 C8.34292035,6.43584071 8.18362832,6.27654867 7.98893805,6.27654867 Z M14.5597345,5.02654867 C14.3650442,5.02654867 14.2057522,5.18584071 14.2057522,5.38053097 C14.2057522,5.57522124 14.3650442,5.73451327 14.5597345,5.73451327 C14.7544248,5.73451327 14.9137168,5.57522124 14.9137168,5.38053097 C14.9137168,5.18584071 14.7544248,5.02654867 14.5597345,5.02654867 Z" id="path-1"></path>
    </defs>
    <g id="Yanbal-UI-Visual-Kit" stroke="none" stroke-width="1" fill="none" fill-rule="evenodd">
        <g id="yanbal-styleguide-pag2" transform="translate(-266.000000, -4588.000000)">
            <g id="Group" transform="translate(264.000000, 4586.000000)">
                <g id="colors/brand-secondary" transform="translate(2.000000, 2.000000)">
                    <mask id="mask-2" fill="white">
                        <use xlink:href="#path-1"></use>
                    </mask>
                    <use id="Mask" fill="#000000" fill-rule="nonzero" xlink:href="#path-1"></use>
                    <g id="Group" mask="url(#mask-2)">
                        <g transform="translate(-2.000000, -2.000000)" id="colors/brand-secondary">
                            <rect id="box" fill="#1C1F28" fill-rule="nonzero" x="0" y="0" width="24" height="24"></rect>
                        </g>
                    </g>
                </g>
            </g>
        </g>
    </g>
</svg>