<?xml version="1.0" encoding="UTF-8"?>
<svg width="16px" height="16px" viewBox="0 0 16 16" version="1.1" xmlns="http://www.w3.org/2000/svg" xmlns:xlink="http://www.w3.org/1999/xlink">
    <title>3. icons/outline/icon-link-arrow</title>
    <defs>
        <path d="M7.44552554,1.02182467 C7.76792232,1.02182467 8.0303197,1.2866207 8.0303197,1.6130158 C8.0303197,1.93941091 7.76792232,2.20500692 7.44552554,2.20500692 L7.44552554,2.20500692 L3.1895681,2.20500692 C2.07517925,2.20500692 1.1695883,3.12339315 1.1695883,4.25297621 L1.1695883,4.25297621 L1.1695883,12.7672485 C1.1695883,13.8976315 2.07517925,14.8168177 3.1895681,14.8168177 L3.1895681,14.8168177 L11.7718823,14.8168177 C12.8862711,14.8168177 13.7926621,13.8976315 13.7926621,12.7672485 L13.7926621,12.7672485 L13.7926621,8.51531227 C13.7926621,8.18971715 14.0542595,7.92412114 14.3766562,7.92412114 C14.698253,7.92412114 14.9606504,8.18971715 14.9606504,8.51531227 L14.9606504,8.51531227 L14.9606504,12.7672485 C14.9606504,14.5504217 13.5302647,16 11.7718823,16 L11.7718823,16 L3.1895681,16 C1.4303857,16 1.0658141e-14,14.5504217 1.0658141e-14,12.7672485 L1.0658141e-14,12.7672485 L1.0658141e-14,4.25297621 C1.0658141e-14,2.47140293 1.4303857,1.02182467 3.1895681,1.02182467 L3.1895681,1.02182467 Z M16,-1.19904087e-13 L16,5.81911271 C16,6.14630781 15.7376026,6.41110383 15.4152058,6.41110383 C15.0920091,6.41110383 14.8312117,6.14630781 14.8312117,5.81911271 L14.8312117,5.81911271 L14.8312117,2.02076969 L8.08647914,8.85906711 C7.97688023,8.97026545 7.8296817,9.03106453 7.67288327,9.03106453 C7.51688483,9.03106453 7.3704863,8.97106543 7.26088739,8.8598671 C7.03448966,8.62867057 7.03368966,8.25427619 7.25768742,8.02467963 L7.25768742,8.02467963 L14.0056199,1.18318225 L10.1368586,1.18318225 C9.81446186,1.18318225 9.55286447,0.917586236 9.55286447,0.59199112 C9.55286447,0.265596016 9.81446186,-1.19904087e-13 10.1368586,-1.19904087e-13 L10.1368586,-1.19904087e-13 L16,-1.19904087e-13 Z" id="path-1"></path>
    </defs>
    <g id="Yanbal-UI-Visual-Kit" stroke="none" stroke-width="1" fill="none" fill-rule="evenodd">
        <g id="yanbal-styleguide-pag2" transform="translate(-1276.000000, -4494.000000)">
            <g id="Group" transform="translate(1272.000000, 4490.000000)">
                <g id="elements" transform="translate(4.000000, 4.000000)">
                    <mask id="mask-2" fill="white">
                        <use xlink:href="#path-1"></use>
                    </mask>
                    <use id="icon" fill="#1F1410" xlink:href="#path-1"></use>
                    <g id="Group" mask="url(#mask-2)">
                        <g transform="translate(-4.000000, -4.000000)" id="color">
                            <rect id="box" fill="#1C1F28" fill-rule="nonzero" x="0" y="0" width="24" height="24"></rect>
                        </g>
                    </g>
                </g>
            </g>
        </g>
    </g>
</svg>