<?xml version="1.0" encoding="UTF-8"?>
<svg width="20px" height="20px" viewBox="0 0 20 20" version="1.1" xmlns="http://www.w3.org/2000/svg" xmlns:xlink="http://www.w3.org/1999/xlink">
    <title>3. icons/outline/icon-website</title>
    <defs>
        <path d="M10,0 C4.4771875,0 0,4.4771875 0,10 C0,15.5228125 4.4771875,20 10,20 C15.5228125,20 20,15.5228125 20,10 L20,10 C20,4.4771875 15.5228125,0 10,0 L10,0 Z M12.5333705,1.36662946 C15.0298661,2.12404018 17.0280357,3.86111607 18.1164732,6.11910714 L18.1399777,6.17323661 L18.2666071,6.43988839 L14.7532589,6.43988839 L14.7199107,6.30651786 C14.2217187,4.51270089 13.4005357,2.95265625 12.3146875,1.61627232 L12.333192,1.63979911 L11.953192,1.16642857 L12.5333705,1.36662946 Z M14.0399777,10 C14.0401339,10.0207813 14.0402232,10.0453125 14.0402232,10.0698661 C14.0402232,11.2444643 13.8696875,12.3791518 13.5519643,13.4506696 L13.5733482,13.3666295 L13.5333482,13.5066295 L6.46671875,13.5066295 L6.42671875,13.3332589 C6.13037946,12.3458036 5.95984375,11.2110714 5.95984375,10.0365179 C5.95984375,10.0118973 5.95993304,9.98743304 5.96011161,9.96285714 L5.96008929,9.96662946 C5.96004464,9.95537946 5.96004464,9.94200893 5.96004464,9.92877232 C5.96004464,9.15314732 6.02794643,8.3934375 6.15819196,7.65515625 L6.14671875,7.73337054 L6.14671875,7.58002232 L13.8267187,7.58002232 L13.8267187,7.73337054 C13.9575446,8.41229911 14.0349554,9.19542411 14.0400446,9.99566964 L14.040067,10 L14.0399777,10 Z M9.88,1.06662946 L10,0.97328125 L10.12,1.06662946 C10.8660268,1.69575893 11.5074777,2.41564732 12.0368304,3.21604911 L12.06,3.25328125 C12.6390625,4.10046875 13.1194866,5.07734375 13.4515402,6.12046875 L13.4733482,6.19993304 L13.5533482,6.43993304 L6.44671875,6.43993304 L6.52008929,6.19993304 C6.87977679,5.07712054 7.36207589,4.10069196 7.96566964,3.21339286 L7.94011161,3.25321429 C8.49069196,2.41433036 9.13234375,1.69421875 9.86497768,1.07892857 L9.88011161,1.0665625 L9.88,1.06662946 Z M1.88002232,6.17337054 C2.98582589,3.86341518 4.97709821,2.12674107 7.40272321,1.38359375 L7.46674107,1.36671875 L8.04674107,1.19334821 L7.66674107,1.66671875 C6.59946429,2.97953125 5.77828125,4.53953125 5.30151786,6.24348214 L5.28002232,6.33334821 L5.24667411,6.46671875 L1.73332589,6.46671875 L1.88002232,6.17337054 Z M1.68,13.3733705 C1.260625,12.3760491 1.01591518,11.216942 1.01334821,10.0010491 L1.01334821,10.0001116 C1.01334821,9.99292411 1.01334821,9.98428571 1.01334821,9.97575893 C1.01334821,9.18109375 1.11799107,8.41095982 1.31419643,7.67816964 L1.30013393,7.74008929 L1.30013393,7.60008929 L4.96676339,7.60008929 L4.93341518,7.8134375 C4.84763393,8.40935268 4.79870536,9.09741071 4.79870536,9.79689732 C4.79870536,9.86837054 4.79919643,9.9396875 4.80026786,10.0108705 L4.80013393,10.0000893 C4.80008929,10.0122098 4.80004464,10.0265179 4.80004464,10.0408705 C4.80004464,11.1889955 4.94598214,12.303058 5.2203125,13.3655134 L5.20013393,13.2734821 L5.26013393,13.5068527 L1.70676339,13.5068527 L1.68,13.3733705 Z M7.78662946,18.7066071 C5.56756696,18.1252679 3.72819196,16.7761161 2.52734375,14.9664286 L2.50662946,14.9332366 L2.29328125,14.6665848 L5.62662946,14.6665848 L5.67325893,14.7865848 C6.09415179,15.8327902 6.60716518,16.7359598 7.22247768,17.558125 L7.19988839,17.5265625 C7.44671875,17.86125 7.68928571,18.1545313 7.94667411,18.4340179 L7.93991071,18.4265625 L8.35991071,18.893192 L7.78662946,18.7066071 Z M10.14,18.64 L10.02,18.7333482 L9.88,18.6667187 C8.67169643,17.663817 7.70243304,16.4170312 7.04040179,14.998125 L7.01328125,14.9334375 L6.88665179,14.6667857 L13.1132813,14.6667857 L12.9866518,14.9334375 C12.2958482,16.41625 11.3269196,17.6626339 10.1370982,18.6529018 L10.119933,18.6667857 L10.14,18.64 Z M17.5333482,14.9333705 C16.3117857,16.776183 14.4724107,18.1254018 12.3159375,18.6927232 L12.2533482,18.7067411 L11.6467187,18.8667411 L12.0667187,18.4001116 C12.3160045,18.1283259 12.5585268,17.8350223 12.7857366,17.5296875 L12.8066964,17.5001116 C13.3995089,16.7094643 13.9125223,15.8062946 14.3043527,14.8410491 L14.3334152,14.7601116 L14.3800446,14.6401116 L17.7133929,14.6401116 L17.5333482,14.9333705 Z M18.3133482,13.4866295 L14.74,13.4866295 L14.8,13.2532589 C15.0540625,12.2829464 15.2,11.1689286 15.2,10.0208705 C15.2,10.0135268 15.2,10.006183 15.1999777,9.99877232 L15.1999777,9.99991071 C15.1999777,9.99611607 15.1999777,9.99158482 15.1999777,9.98709821 C15.1999777,9.22470982 15.141808,8.47587054 15.0296652,7.74486607 L15.0399777,7.8265625 L15.0399777,7.61321429 L18.6666071,7.61321429 L18.6666071,7.75321429 C18.8616964,8.42348214 18.9800446,9.19513393 18.9931696,9.99243304 L18.9932812,9.99984375 C18.9907143,11.2167634 18.7460045,12.3758036 18.3047098,13.4323661 L18.3266295,13.3732143 L18.3133482,13.4866295 Z" id="path-1"></path>
    </defs>
    <g id="Yanbal-UI-Visual-Kit" stroke="none" stroke-width="1" fill="none" fill-rule="evenodd">
        <g id="yanbal-styleguide-pag2" transform="translate(-842.000000, -4684.000000)">
            <g id="Group" transform="translate(840.000000, 4682.000000)">
                <g id="colors/brand-secondary" transform="translate(2.000000, 2.000000)">
                    <mask id="mask-2" fill="white">
                        <use xlink:href="#path-1"></use>
                    </mask>
                    <use id="Mask" fill="#000000" fill-rule="nonzero" xlink:href="#path-1"></use>
                    <g id="Group" mask="url(#mask-2)">
                        <g transform="translate(-4.000000, -3.000000)" id="colors/brand-secondary">
                            <rect id="box" fill="#1C1F28" fill-rule="nonzero" x="0" y="0" width="26.4058266" height="25.7456809"></rect>
                        </g>
                    </g>
                </g>
            </g>
        </g>
    </g>
</svg>