<?xml version="1.0" encoding="UTF-8"?>
<svg width="15px" height="20px" viewBox="0 0 15 20" version="1.1" xmlns="http://www.w3.org/2000/svg" xmlns:xlink="http://www.w3.org/1999/xlink">
    <title>3. icons/outline/icon-cash </title>
    <defs>
        <path d="M15,12.9412032 L15,12.6353231 C14.7860782,9.37060999 12.341025,7.24708953 12.0693502,7.02355779 L10.6647452,5.52943768 L10.60116,5.45296248 L10.6531824,5.37061413 C10.7780768,5.14344269 10.8516397,4.87216049 10.8516397,4.5833622 C10.8516397,4.24288422 10.7494035,3.92672609 10.5744375,3.6649154 L10.5780344,3.67060244 L10.5375748,3.60589426 L11.6936305,1.52354797 C11.8595536,1.33839859 11.9650006,1.09455895 11.9767869,0.825923808 L11.9768682,0.823545591 C11.9635984,0.653513402 11.8811144,0.505402172 11.758435,0.40684058 L11.7572157,0.405889293 C11.4020815,0.181799194 10.9712913,0.048991274 10.5100192,0.048991274 C9.96902677,0.048991274 9.46995712,0.231679714 9.06914073,0.5397519 L9.07517614,0.535305668 L8.98269412,0.588246851 L8.91910892,0.535305668 C8.51089559,0.215342396 7.99652404,0.0166888806 7.43730348,0 L7.43358469,0 C6.93225938,0.00275045987 6.47037762,0.172431086 6.09837676,0.457176064 L6.10412768,0.452957313 L6.02897969,0.505898496 L5.95962325,0.447084151 C5.60786236,0.168233016 5.15967713,0 4.67290184,0 C4.67007718,0 4.66723221,0 4.66440755,0 L4.66485462,0 C4.16535822,0.00891314441 3.70152562,0.156610772 3.30678529,0.406675139 L3.31804326,0.400016131 C3.19603446,0.469273951 3.10729155,0.586551078 3.07591553,0.726059367 L3.07528557,0.729409551 C3.07138389,0.764172882 3.06916888,0.804478493 3.06916888,0.845301108 C3.06916888,1.06963937 3.13622901,1.27805392 3.25108473,1.45087792 L3.24868682,1.4470521 L4.40474258,3.58823341 L4.35272017,3.6529416 C4.15314515,3.92699494 4.03324976,4.27181575 4.03324976,4.64511313 C4.03324976,4.94148035 4.10880418,5.21987652 4.24140035,5.46144134 L4.23711257,5.4529418 L4.27757218,5.53529016 L2.24292705,7.6470643 C2.15621627,7.7470735 0.052214704,10.0882319 0.00019229655,12.4764789 C0.00019229655,12.7294178 0.00019229655,12.9176485 0.00019229655,13.1000061 C-0.0287045251,17.0588278 3.20245597,20 7.48564774,20 C11.7688395,20 15,17.0588278 15,13.1176463 C15,13.0588319 15,12.9941237 15,12.9411826 L15,12.9412032 Z M4.41236945,1.16974125 C4.42153722,1.16951842 4.43234209,1.16937662 4.4431879,1.16937662 C4.8511947,1.16937662 5.21602293,1.35244031 5.45839592,1.64013208 L5.46011487,1.64221856 C5.64056447,1.88998352 5.81518188,2.01097936 5.9897993,2.01097936 C6.19034432,1.97913516 6.35859751,1.86373028 6.45962718,1.7026861 L6.46128474,1.69982984 C6.69608613,1.40794485 7.04528004,1.21479311 7.44066069,1.18724341 L7.44499901,1.18700032 C7.83747381,1.2107822 8.18020116,1.40304262 8.40313355,1.69097747 L8.4054255,1.69405656 C8.58587509,1.9475948 8.76049251,2.07434367 8.94675381,2.07434367 C9.1711596,2.04466697 9.3556201,1.90039569 9.43999225,1.70384075 L9.44152704,1.69980958 C9.61694254,1.36597207 9.95768491,1.13854527 10.3534134,1.12365628 L10.3553984,1.12359551 L10.5882353,1.12359551 L10.5067485,1.29069658 C10.3088433,1.68250999 10.0003314,2.27025038 9.55796593,3.07692983 L9.52303426,3.14606742 L5.30876477,3.14606742 L4.19117647,1.16392745 L4.41236945,1.16974125 Z M5.54107485,4.15732505 L9.3531119,4.15732505 C9.58126819,4.16025145 9.76973088,4.33657285 9.80668275,4.56754218 L9.8070715,4.57044691 C9.81286185,4.60016619 9.81617647,4.63435095 9.81617647,4.66933777 C9.81617647,4.77754977 9.78446252,4.87793634 9.73036466,4.96059106 L9.73140816,4.95890025 C9.66628203,5.0637523 9.56633194,5.13947036 9.4493177,5.16791069 L9.44622815,5.16853933 C9.32982773,5.16853933 8.65472984,5.16853933 7.44417774,5.16853933 L5.47122232,5.16853933 C5.34144066,5.1461469 5.23109658,5.07168612 5.15788851,4.96646555 L5.15694733,4.96505654 C5.10467046,4.88201163 5.07352941,4.77991257 5.07352941,4.67009646 C5.07352941,4.63706059 5.07635298,4.60471838 5.08175458,4.57330828 L5.08128398,4.57658152 C5.12087527,4.34056144 5.31062698,4.16283103 5.54050196,4.15730337 L5.54105439,4.15730337 L5.54107485,4.15732505 Z M5.16327775,6.06741573 L9.715131,6.06741573 C10.6840683,6.95335613 11.5747166,7.86023957 12.415836,8.81347915 L12.4439267,8.84582498 C13.4129654,10.0478977 14.0022418,11.6012424 14.0073529,13.2948558 L14.0073529,13.2960147 C13.9265896,16.5806786 11.2323951,18.8764045 7.45939521,18.8764045 C3.6863953,18.8764045 1.09604526,16.5983312 0.997960972,13.3136673 C0.994573859,13.2358345 0.992647059,13.1445502 0.992647059,13.0528105 C0.992647059,11.6997699 1.41157405,10.4465399 2.12428742,9.42082741 L2.11140828,9.44036321 L2.24987425,9.28730516 C2.38255982,9.10481923 2.46910358,9.00476033 2.49218463,8.97531176 C3.3287,7.97459852 4.74214001,6.5265278 5.15175751,6.1085982 L5.16327775,6.06741573 Z M5.62734902,14.5101583 L5.62734902,14.5101583 C6.00771668,14.776653 6.45358351,14.9800867 6.93354412,15.0932616 L6.95977637,15.0984736 L6.95977637,15.8926838 C6.95975601,15.8944418 6.95973564,15.8965101 6.95973564,15.898599 C6.95973564,16.1759728 7.17951222,16.4012059 7.45187551,16.4044944 L7.45218101,16.4044944 C7.7305321,16.4044944 7.95619464,16.1753523 7.95619464,15.8926631 L7.95619464,15.1278635 C8.45202088,15.0878014 8.89153331,14.8706553 9.21919207,14.5394861 L9.2191106,14.5395689 C9.45316421,14.2612644 9.59558824,13.8972307 9.59558824,13.4994224 C9.59558824,13.4513768 9.59351084,13.4038483 9.58943751,13.3568782 L9.58986521,13.3629589 C9.52035381,12.1863489 8.46018791,11.9627911 7.60859693,11.7921807 C7.02928777,11.6745176 6.49050826,11.5745175 6.44995825,11.203886 C6.44869551,11.189946 6.44798268,11.1737516 6.44798268,11.1573917 C6.44798268,11.0219416 6.49698486,10.8980944 6.57796268,10.8031615 L6.57739241,10.803844 C6.74209756,10.6489317 6.96334054,10.553916 7.20641658,10.553916 C7.23173233,10.553916 7.25682405,10.5549501 7.28163064,10.556977 L7.27837197,10.5567702 C7.32350448,10.5531921 7.37609119,10.5511445 7.42916669,10.5511445 C7.91759983,10.5511445 8.36625689,10.7240507 8.71902774,11.0128826 L8.71507661,11.0097596 L8.77299937,11.0097596 C8.84748023,11.0629137 8.93949679,11.0955922 9.03890643,11.0979913 L9.03949707,11.098012 C9.29196213,11.085437 9.49196269,10.8745163 9.49196269,10.6161498 C9.49196269,10.6076906 9.49173866,10.5992728 9.49133132,10.5908964 L9.49137206,10.5920753 C9.4681337,10.4488279 9.39925367,10.3250015 9.30067906,10.2336466 L9.30021063,10.2332123 C8.94768418,9.90518691 8.48890489,9.68965398 7.98189736,9.64549672 L7.9735674,9.64491761 L7.9735674,8.52714948 C7.89619448,8.33509126 7.71358704,8.20224719 7.50042962,8.20224719 C7.48751716,8.20224719 7.4747269,8.20274357 7.46207921,8.20369497 L7.46376964,8.20359156 C7.19110085,8.20690077 6.97132427,8.43213381 6.97132427,8.70950759 C6.97132427,8.71159653 6.97134464,8.71366478 6.971365,8.71573304 L6.971365,8.7154228 L6.971365,9.66847504 C6.14089425,9.7575755 5.49875395,10.4627059 5.49411036,11.3211355 L5.49411036,11.3216112 C5.55783762,12.4982212 6.55425589,12.662937 7.43482862,12.8335475 C8.05470816,12.9570844 8.5934673,13.0688736 8.5934673,13.5100946 C8.5940783,13.520167 8.59442454,13.5319354 8.59442454,13.5438072 C8.59442454,13.7200639 8.51809031,13.8782234 8.39715311,13.9860623 L8.39650138,13.9866414 C8.19436232,14.1516055 7.93464672,14.2514195 7.65197791,14.2514195 C7.64896364,14.2514195 7.64594938,14.2513988 7.64293511,14.2513781 L7.64340354,14.2513781 C7.07352415,14.2129086 6.55258583,14.0295577 6.10710596,13.7376441 L6.11979439,13.7454207 L6.07924438,13.7454207 C5.98952926,13.6786781 5.88189148,13.6310669 5.76508871,13.6107566 L5.76062841,13.6101154 C5.50571935,13.5630419 5.33193068,13.7983681 5.2971648,14.0278204 C5.26239891,14.2572727 5.53468074,14.4396308 5.62736939,14.5102203 L5.62734902,14.5101583 Z" id="path-1"></path>
    </defs>
    <g id="Yanbal-UI-Visual-Kit" stroke="none" stroke-width="1" fill="none" fill-rule="evenodd">
        <g id="yanbal-styleguide-pag2" transform="translate(-749.000000, -4492.000000)">
            <g id="Group" transform="translate(744.000000, 4490.000000)">
                <g id="elements" transform="translate(5.000000, 2.000000)">
                    <mask id="mask-2" fill="white">
                        <use xlink:href="#path-1"></use>
                    </mask>
                    <use id="icon" fill="#000000" fill-rule="nonzero" xlink:href="#path-1"></use>
                    <g id="Group" mask="url(#mask-2)">
                        <g transform="translate(-5.000000, -2.000000)" id="color">
                            <rect id="box" fill="#1C1F28" fill-rule="nonzero" x="0" y="0" width="24" height="24"></rect>
                        </g>
                    </g>
                </g>
            </g>
        </g>
    </g>
</svg>