<?xml version="1.0" encoding="UTF-8"?>
<svg width="20px" height="20px" viewBox="0 0 20 20" version="1.1" xmlns="http://www.w3.org/2000/svg" xmlns:xlink="http://www.w3.org/1999/xlink">
    <title>3. icons/seal/icon-giftbag</title>
    <defs>
        <path d="M10,0 C4.47714892,0 0,4.47716547 0,10.0000107 C0,15.5228559 4.47714892,20 10,20 C15.5228511,20 20,15.5228559 20,10.0000107 C20,9.99853949 20,9.99708965 20,9.99561848 L20,9.99585302 C19.9952667,4.47573694 15.5204205,0.00238798078 10.0002559,0 L10.0000213,0 L10,0 Z M10,19.1773619 C9.99878469,19.1773619 9.99731352,19.1773619 9.99584235,19.1773619 C4.92502372,19.1773619 0.814280993,15.0666662 0.814280993,9.99581037 C0.814280993,4.92495451 4.92498108,0.814258804 9.99584235,0.814258804 C15.066661,0.814258804 19.1774037,4.92495451 19.1774037,9.99581037 L19.1774037,9.99581037 C19.1726704,15.0632548 15.0671514,19.170262 10.0006823,19.1773619 L10,19.1773619 Z M14.5450785,7.00456595 L12.5259533,7.00456595 L12.5259533,5.92436711 C12.5272752,5.89381374 12.5280428,5.85797271 12.5280428,5.82193979 C12.5280428,4.42688994 11.3971408,3.29598915 10.0020895,3.29598915 C8.60703815,3.29598915 7.47613616,4.42688994 7.47613616,5.82193979 C7.47613616,5.85795139 7.4768824,5.89381374 7.47837489,5.92946289 L7.478183,5.92436711 L7.478183,7.00456595 L5.47984606,7.00456595 C5.25038645,7.00456595 5.0643796,7.19057259 5.0643796,7.42003196 L5.0643796,7.42003196 L5.0643796,14.0672963 C5.06674627,15.2265117 6.0070147,16.1653293 7.16655118,16.1653293 C7.16655118,16.1653293 7.16655118,16.1653293 7.16655118,16.1653293 L12.8292059,16.1653293 C13.9869727,16.1629626 14.9248745,15.2250619 14.9272411,14.0674882 L14.9272411,7.419968 C14.9272411,7.41958421 14.9272411,7.41911515 14.9272411,7.41864608 C14.9272411,7.2009134 14.7596985,7.02228391 14.546507,7.00460859 L14.5449932,7.00450198 L14.5450785,7.00456595 Z M7.89780711,8.9862915 C8.12726672,8.9862915 8.31327356,8.80028485 8.31327356,8.57082548 L8.31327356,8.57082548 L8.31327356,7.82714004 L11.7449122,7.82714004 L11.7449122,8.58329842 C11.7884716,8.76971017 11.9532638,8.90644339 12.1499952,8.90644339 C12.3467267,8.90644339 12.5114975,8.76973149 12.5545025,8.5860915 L12.5550569,8.5832771 L12.5550569,7.82714004 L14.1296334,7.82714004 L14.1296334,14.0589384 C14.12974,14.0651428 14.1298253,14.0724134 14.1298253,14.0797479 C14.1298253,14.793349 13.5513363,15.3718374 12.8377344,15.3718374 C12.8347281,15.3718374 12.8317858,15.3718374 12.8288008,15.3718374 L7.17493044,15.3718374 C6.46132853,15.3718374 5.88283957,14.7933064 5.88283957,14.0797053 L5.88283957,14.0797053 L5.88283957,7.84790695 L7.48234065,7.84790695 L7.48234065,8.604044 C7.50007995,8.81874906 7.67870964,8.9862915 7.89648519,8.9862915 C7.89695426,8.9862915 7.89742332,8.9862915 7.89789239,8.9862915 L7.89780711,8.9862915 Z M10.0166306,4.17945676 C10.9662804,4.18883811 11.7324819,4.96083818 11.7324819,5.91180888 C11.7324819,5.91624371 11.7324819,5.92061456 11.7324179,5.92502806 L11.7324179,5.92432446 L11.7324179,7.0045233 L8.28410605,7.0045233 L8.28410605,5.92432446 C8.28410605,5.92180855 8.28410605,5.91886622 8.28410605,5.91588124 C8.28410605,4.96407901 9.04981717,4.19111948 9.99884865,4.17937147 L9.99997868,4.17937147 L10.0166306,4.17945676 Z" id="path-1"></path>
    </defs>
    <g id="Yanbal-UI-Visual-Kit" stroke="none" stroke-width="1" fill="none" fill-rule="evenodd">
        <g id="yanbal-styleguide-pag2" transform="translate(-986.000000, -4684.000000)">
            <g id="Group" transform="translate(984.000000, 4682.000000)">
                <g id="colors/brand-secondary" transform="translate(2.000000, 2.000000)">
                    <mask id="mask-2" fill="white">
                        <use xlink:href="#path-1"></use>
                    </mask>
                    <use id="Mask" fill="#000000" fill-rule="nonzero" xlink:href="#path-1"></use>
                    <g id="Group" mask="url(#mask-2)">
                        <g transform="translate(-4.000000, -3.000000)" id="colors/brand-secondary">
                            <rect id="box" fill="#1C1F28" fill-rule="nonzero" x="0" y="0" width="26.4058266" height="25.7456809"></rect>
                        </g>
                    </g>
                </g>
            </g>
        </g>
    </g>
</svg>