<?xml version="1.0" encoding="UTF-8"?>
<svg width="18px" height="20px" viewBox="0 0 18 20" version="1.1" xmlns="http://www.w3.org/2000/svg" xmlns:xlink="http://www.w3.org/1999/xlink">
    <title>3. icons/outline/icon-moon</title>
    <defs>
        <path d="M17,16.4732143 C17,16.3325893 16.9667969,16.1919643 16.9026042,16.0691964 L16.9026042,16.0691964 C16.7498698,15.8147321 16.4886719,15.6607143 16.2009115,15.6607143 C16.1190104,15.6607143 16.0393229,15.6741071 15.961849,15.6964286 L15.961849,15.6964286 C15.2822917,15.9107143 14.5208333,16.0245536 13.759375,16.0245536 C12.1390625,16.0245536 10.5873698,15.515625 9.2703125,14.5513393 L9.2703125,14.5513393 C8.34283854,13.8638393 7.5703125,12.9575893 7.03463542,11.9285714 C6.47682292,10.8549107 6.18242187,9.6875 6.16028646,8.46205357 L6.16028646,8.45535714 C6.1625,7.00669643 6.55208333,5.59598214 7.28697917,4.37276786 C8.00416667,3.18303571 9.01796875,2.21651786 10.2177083,1.57589286 L10.2619792,1.55580357 C10.5276042,1.41741071 10.6936198,1.14285714 10.6936198,0.837053571 C10.6936198,0.763392857 10.6847656,0.689732143 10.6648437,0.620535714 L10.6648437,0.620535714 C10.5630208,0.256696429 10.2376302,0 9.87239583,0 C9.86354167,0 9.8546875,0 9.84583333,0 L9.83476562,0 C8.46901042,0 7.14752604,0.279017857 5.90351562,0.832589286 C4.7015625,1.36607143 3.62578125,2.12723214 2.70716146,3.09821429 L2.70494792,3.10044643 C0.960677083,4.95535714 0,7.40625 0,9.99776786 C0,11.4553571 0.298828125,12.859375 0.887630208,14.1696429 C1.45651042,15.4375 2.26445313,16.546875 3.28710938,17.46875 L3.29817708,17.4776786 C5.13320312,19.1049107 7.48177083,20 9.91445312,20 L10.5010417,20 L10.5032552,20 C11.977474,19.8794643 13.3675781,19.4486607 14.638151,18.71875 L14.638151,18.7165179 C15.4460937,18.2522321 16.1455729,17.7075893 16.7808594,17.0513393 C16.922526,16.8928571 17,16.6875 17,16.4732143 Z M1.79960938,13.71875 C1.275,12.5446429 1.00716146,11.2857143 1.00716146,9.98214286 C1.00716146,7.65848214 1.86601563,5.45982143 3.42434896,3.79017857 C4.9671875,2.16071429 7.0125,1.18303571 9.19947917,1.02455357 C8.01523438,1.78348214 7.02356771,2.83035714 6.32408854,4.0625 C5.57591146,5.37946429 5.17526042,6.88616071 5.16640625,8.42410714 L5.16640625,8.47991071 L5.20403646,8.47991071 L5.16640625,8.47991071 C5.19075521,9.86830357 5.52278646,11.1875 6.15143229,12.4017857 C6.75130208,13.5625 7.61679688,14.5825893 8.65273437,15.3526786 L8.67708333,15.3705357 C9.39427083,15.8995536 10.1867188,16.3125 11.0322917,16.5959821 C11.9088542,16.890625 12.8252604,17.0401786 13.7549479,17.0401786 C14.368099,17.0401786 14.98125,16.9754464 15.5766927,16.84375 C15.1384115,17.2209821 14.6625,17.5535714 14.1578125,17.8325893 L14.1113281,17.8571429 C12.831901,18.5714286 11.3598958,18.9486607 9.85911458,18.9486607 C8.75234375,18.9486607 7.66992187,18.7455357 6.64283854,18.34375 C5.65559896,17.9575893 4.74804687,17.4017857 3.94453125,16.6897321 L3.94453125,16.6897321 C3.03033854,15.8526786 2.30872396,14.8549107 1.79960938,13.71875 Z" id="path-1"></path>
    </defs>
    <g id="Yanbal-UI-Visual-Kit" stroke="none" stroke-width="1" fill="none" fill-rule="evenodd">
        <g id="yanbal-styleguide-pag2" transform="translate(-1131.000000, -4540.000000)">
            <g id="Group" transform="translate(1128.000000, 4538.000000)">
                <g id="Group" transform="translate(3.500000, 2.000000)">
                    <mask id="mask-2" fill="white">
                        <use xlink:href="#path-1"></use>
                    </mask>
                    <use id="Mask" fill="#000000" fill-rule="nonzero" xlink:href="#path-1"></use>
                    <g mask="url(#mask-2)" id="colors/brand-secondary">
                        <g transform="translate(-4.000000, -2.000000)">
                            <rect id="box" fill="#1C1F28" fill-rule="nonzero" x="0" y="0" width="24" height="24"></rect>
                        </g>
                    </g>
                </g>
            </g>
        </g>
    </g>
</svg>