<?xml version="1.0" encoding="UTF-8"?>
<svg width="20px" height="20px" viewBox="0 0 20 20" version="1.1" xmlns="http://www.w3.org/2000/svg" xmlns:xlink="http://www.w3.org/1999/xlink">
    <title>3. icons/outline/icon-hot-tea</title>
    <defs>
        <path d="M19.9997098,4.38180315 C19.9880572,3.70528604 19.5165944,3.14216167 18.8850307,2.99068863 L18.8751193,2.9886797 C18.7433017,2.96399223 18.5916389,2.94990742 18.43665,2.94990742 C18.4084783,2.94990742 18.3804405,2.95035385 18.3525367,2.95131367 L18.3565995,2.95117974 L17.1070446,2.95117974 L17.1070446,2.22649305 C17.1070446,1.73923913 17.1445473,1.25189592 17.1570259,0.770869675 C17.1677856,0.723057229 17.1739244,0.668235861 17.1739244,0.611941281 C17.1739244,0.435468264 17.1134736,0.273124695 17.012127,0.144531089 L17.0133548,0.146093587 C16.8878099,0.0547320818 16.7305217,0 16.5605094,0 C16.5196582,0 16.479566,0.00316963932 16.4404784,0.00921873971 L16.4448314,0.00868302602 L0.738111582,0.00868302602 C0.707082545,0.00430803091 0.671164761,0.0018080337 0.634666577,0.0018080337 C0.453983827,0.0018080337 0.28761015,0.0631918938 0.155323768,0.16618285 L0.157064966,0.164865887 C0.0590444619,0.293928243 0,0.457365561 0,0.634552863 C0,0.671628715 0.00261179661,0.708034924 0.00758983632,0.743704527 L0.00714337536,0.739642032 C0.0243544454,3.84885731 0.389983648,6.86385395 1.06690776,9.75916322 L1.01304224,9.48577066 C1.59404421,11.9846964 2.68740478,13.7776186 4.51173355,16.0641562 L1.16300848,16.0641562 C0.638238265,16.0641562 0.463270215,16.2453167 0.463270215,16.7763429 L0.463270215,17.2198915 C0.470168037,18.7437291 1.69664094,19.978884 3.21652798,20 L3.21851474,20 L13.9583787,20 C13.9640041,20 13.9705894,20 13.9773086,20 C15.1535993,20 16.1537612,19.2458491 16.5204619,18.1946449 L16.5261989,18.1757386 C16.6288179,17.8203149 16.6921038,17.4106502 16.7010107,16.9877043 L16.7011,16.9825034 L16.7011,16.8075928 C16.7085782,16.7685081 16.7128642,16.7235304 16.7128642,16.6775037 C16.7128642,16.5146914 16.6591996,16.364446 16.5685457,16.2434417 L16.5699297,16.245339 C16.4406123,16.1362766 16.2720956,16.0700267 16.088176,16.0700267 C16.0531735,16.0700267 16.0187067,16.0724151 15.9849989,16.0771026 L15.9889278,16.0767008 L12.7026626,16.0767008 C12.7713952,15.9767456 12.8401056,15.8830403 12.9150664,15.7893574 C13.2649132,15.3021035 13.633556,14.8085103 13.9522175,14.2837787 C15.0456004,12.5033343 15.6265801,11.6349424 16.02018,10.1106137 C16.02018,10.0106585 16.0701613,9.98568082 16.1451221,9.95445318 L19.1127705,8.58005739 C19.637563,8.36224513 20,7.85387516 20,7.2609294 C20,7.25909904 20,7.25724636 20,7.25541601 L20,7.25572851 C20,6.29985904 20,5.34410118 20,4.38200404 L19.9997098,4.38180315 Z M1.52524458,17.1449362 L15.6263345,17.1449362 C15.6266693,17.1583737 15.6269149,17.1742665 15.6269149,17.1902487 C15.6269149,17.5936634 15.4903425,17.9650916 15.2609509,18.2610064 L15.2639198,18.2569662 C14.9860872,18.6071444 14.5747404,18.8410281 14.1080101,18.8812512 L14.1018489,18.881653 C14.0505059,18.8847111 13.9904569,18.8864298 13.9300507,18.8864298 C13.8696446,18.8864298 13.8095956,18.8846887 13.749993,18.8811843 L13.7582526,18.8815191 L3.39332652,18.8815191 C3.35551128,18.8843762 3.31153488,18.8861173 3.26713433,18.8861173 C2.45022239,18.8861173 1.76412351,18.3262295 1.57165419,17.5692438 L1.56902007,17.5571009 C1.54540229,17.4355832 1.52966454,17.2936414 1.52540084,17.1486862 L1.52524458,17.144713 L1.52524458,17.1449362 Z M18.9251006,7.22429997 C18.9132694,7.34885341 18.855542,7.45800507 18.7692857,7.53633087 L18.7689285,7.53664337 C18.0754407,7.88646441 17.3569511,8.22383011 16.6634633,8.54871814 L16.3823268,8.67365103 L17.0570633,4.01320981 L18.5877547,4.01320981 C18.7851797,4.03269639 18.9381373,4.1978971 18.9381373,4.39876741 C18.9381373,4.4059549 18.937914,4.41316472 18.9375569,4.42030757 L18.9376015,4.41934775 C18.9438296,5.28776196 18.9563305,6.2560198 18.9251006,7.22436694 L18.9251006,7.22429997 Z M4.9051996,8.33632998 L4.9051996,5.63126604 L7.14192436,5.63126604 L7.14192436,8.34257997 L4.9051996,8.33632998 Z M11.2529369,15.9704286 C11.1966828,16.0162991 11.1256732,16.0459419 11.0479666,16.0516339 L11.0467835,16.0516339 C9.40990139,16.0516339 7.76676879,16.0516339 6.13611479,16.0516339 C6.04767087,16.0425491 5.96853566,16.0086875 5.90404438,15.9572367 L5.90498195,15.9579286 C5.21274423,15.313532 4.60796821,14.5896712 4.10107876,13.7971944 L4.07444737,13.7525963 C2.96731348,12.0244732 2.15495544,9.99485492 1.76526199,7.81869663 L1.75028322,7.71775924 C1.35085693,5.74414537 1.10461138,3.46001846 1.06963117,1.12479785 L1.06931864,1.09573538 L5.4864248,1.09573538 L5.4864248,4.53794136 L4.48050361,4.53794136 C4.03069419,4.53794136 3.85577079,4.72532955 3.85577079,5.16262817 L3.85577079,8.76731164 C3.85577079,9.21086026 4.05567368,9.39199845 4.48050361,9.39199845 L7.57309403,9.39199845 C8.01667532,9.39199845 8.19782685,9.19211028 8.19782685,8.76731164 L8.19782685,5.18137815 C8.20095208,5.15923531 8.2027156,5.13369963 8.2027156,5.10778448 C8.2027156,4.80068661 7.95374664,4.55180296 7.64669312,4.55180296 C7.62075374,4.55180296 7.5951492,4.55356635 7.57012506,4.55707081 L7.57298242,4.55675831 L6.573334,4.55675831 L6.573334,1.09573538 L16.0886225,1.09573538 L16.0886225,1.17077994 C16.0886225,1.37694043 16.0886225,1.5768286 16.0886225,1.79546675 C15.979061,4.51327621 15.629683,7.08610816 15.0594853,9.57474378 L15.1139759,9.29213249 C14.5767048,11.6348977 13.9019237,12.3157898 13.0022602,13.8401185 C12.5199708,14.662439 11.9386563,15.3650945 11.2621116,15.9624152 L11.2529146,15.970384 L11.2529369,15.9704286 Z" id="path-1"></path>
    </defs>
    <g id="Yanbal-UI-Visual-Kit" stroke="none" stroke-width="1" fill="none" fill-rule="evenodd">
        <g id="yanbal-styleguide-pag2" transform="translate(-362.000000, -4636.000000)">
            <g id="Group" transform="translate(360.000000, 4634.000000)">
                <g id="colors/brand-secondary" transform="translate(2.000000, 2.000000)">
                    <mask id="mask-2" fill="white">
                        <use xlink:href="#path-1"></use>
                    </mask>
                    <use id="Mask" fill="#000000" fill-rule="nonzero" xlink:href="#path-1"></use>
                    <g id="Group" mask="url(#mask-2)">
                        <g transform="translate(-4.000000, -3.000000)" id="colors/brand-secondary">
                            <rect id="box" fill="#1C1F28" fill-rule="nonzero" x="0" y="0" width="26.4058266" height="25.7456809"></rect>
                        </g>
                    </g>
                </g>
            </g>
        </g>
    </g>
</svg>