<?xml version="1.0" encoding="UTF-8"?>
<svg width="18px" height="18px" viewBox="0 0 18 18" version="1.1" xmlns="http://www.w3.org/2000/svg" xmlns:xlink="http://www.w3.org/1999/xlink">
    <title>3. icons/outline/icon-save</title>
    <defs>
        <path d="M18,0.55202951 C17.9966466,0.248560395 17.7515229,0.00333173477 17.4483526,0 L0.552036808,0 C0.248563681,0.00335336942 0.00333177882,0.248473856 0,0.551640086 L0,17.4477325 C0.00335341375,17.7512016 0.248477141,17.9964303 0.55164738,17.999762 L17.4479632,17.999762 C17.4519873,18 17.4566821,18 17.4614418,18 C17.5920302,18 17.7103083,17.9472115 17.795961,17.8618412 L17.7959394,17.8618628 L17.8378895,17.8618628 C17.8384304,17.8555455 17.8387333,17.848233 17.8387333,17.8408123 C17.8387333,17.8333916 17.838452,17.8261008 17.8378462,17.8188748 L17.8379328,17.8197834 C17.9233042,17.7340237 17.9760718,17.6158769 17.9760718,17.4852902 C17.9760718,17.480509 17.9759852,17.4758575 17.9758122,17.4711196 L17.9758338,17.4718551 L18,0.55202951 Z M12.6480166,1.10399412 L12.6480166,4.93795545 L5.35200508,4.93795545 L5.35200508,1.10399412 L12.6480166,1.10399412 Z M3.08998687,1.10399412 L4.24198186,1.10399412 L4.24198186,5.48998496 C4.24537854,5.79559591 4.49385568,6.04201447 4.79994663,6.04201447 C4.79996827,6.04201447 4.79996827,6.04201447 4.7999899,6.04201447 L13.2000317,6.04201447 C13.2000317,6.04201447 13.2000534,6.04201447 13.200075,6.04201447 C13.506166,6.04201447 13.7546431,5.79559591 13.7580398,5.49037439 L13.7580398,1.10399412 L16.8900417,1.10399412 L16.8900417,16.8960059 L1.10997995,16.8960059 L1.10997995,1.10399412 L3.08998687,1.10399412 L3.08998687,1.10399412 Z M8.99997837,14.141916 C10.656846,14.141916 12.0000072,12.7988159 12.0000072,11.1419269 C12.0000072,9.48503784 10.6568893,8.14193767 8.99997837,8.14193767 C7.34311072,8.14193767 5.99994952,9.48503784 5.99994952,11.1419269 L5.99994952,11.1419269 C5.99994952,12.7987726 7.34306745,14.141916 8.99997837,14.141916 L8.99997837,14.141916 L8.99997837,14.141916 Z M8.99997837,9.28199673 C10.0279619,9.28541501 10.8599114,10.1195386 10.8599114,11.1480062 C10.8599114,12.1785723 10.0244354,13.0140156 8.99387732,13.0140156 C7.96331918,13.0140156 7.12784319,12.1785507 7.12784319,11.1480062 C7.12784319,11.1459293 7.12784319,11.1437874 7.12784319,11.1416672 L7.12784319,11.1419485 C7.13123987,10.1139785 7.96535287,9.28199673 8.99387732,9.28199673 C8.99595427,9.28199673 8.99809613,9.28199673 9.00023798,9.28199673 L8.99995673,9.28199673 L8.99997837,9.28199673 Z M8.99997837,3.97800478 C9.41820315,3.97460814 9.75598927,3.63474956 9.75598927,3.21609762 C9.75598927,2.79523894 9.4148281,2.45416882 8.99405039,2.45416882 C8.57327269,2.45416882 8.23211152,2.79532548 8.23211152,3.21607598 L8.23211152,3.21607598 C8.23211152,3.21607598 8.23211152,3.21609762 8.23211152,3.21609762 C8.23211152,3.63695629 8.57327269,3.97802642 8.99405039,3.97802642 C8.99612735,3.97802642 8.99826921,3.97802642 9.00041106,3.97800478 L9.00012981,3.97800478 L8.99997837,3.97800478 Z" id="path-1"></path>
    </defs>
    <g id="Yanbal-UI-Visual-Kit" stroke="none" stroke-width="1" fill="none" fill-rule="evenodd">
        <g id="yanbal-styleguide-pag2" transform="translate(-171.000000, -4685.000000)">
            <g id="Group" transform="translate(168.000000, 4682.000000)">
                <g id="colors/brand-secondary" transform="translate(3.000000, 3.000000)">
                    <mask id="mask-2" fill="white">
                        <use xlink:href="#path-1"></use>
                    </mask>
                    <use id="Mask" fill="#000000" fill-rule="nonzero" xlink:href="#path-1"></use>
                    <g id="Group" mask="url(#mask-2)">
                        <g transform="translate(-5.000000, -4.000000)" id="colors/brand-secondary">
                            <rect id="box" fill="#1C1F28" fill-rule="nonzero" x="0" y="0" width="26.4058266" height="25.7456809"></rect>
                        </g>
                    </g>
                </g>
            </g>
        </g>
    </g>
</svg>