<?xml version="1.0" encoding="UTF-8"?>
<svg width="20px" height="20px" viewBox="0 0 20 20" version="1.1" xmlns="http://www.w3.org/2000/svg" xmlns:xlink="http://www.w3.org/1999/xlink">
    <title>3. icons/outline/icon-link</title>
    <defs>
        <path d="M8.88135422,6.44868745 C10.1257476,6.46495455 11.290609,6.96842148 12.1590333,7.86717908 L12.1590333,7.86717908 L12.2245813,7.94814372 C12.302838,8.06066004 12.3439878,8.19431058 12.3415079,8.33160495 C12.3397876,8.50566299 12.2715027,8.66996076 12.1485897,8.7927774 C11.8947302,9.04410419 11.4834137,9.04003741 11.233571,8.78139043 C10.6061525,8.13151955 9.76584555,7.76794973 8.86609052,7.75737612 C8.85323687,7.75656276 8.84038323,7.75656276 8.82752958,7.75656276 C7.94062819,7.75656276 7.10674807,8.09979869 6.47531284,8.72608227 L6.47531284,8.72608227 L2.30109214,12.8522337 C1.65840997,13.4866508 1.29931131,14.3382338 1.28886772,15.2500051 C1.27922749,16.160963 1.61904569,17.0206796 2.24566081,17.6705504 C2.87066922,18.3179813 3.71177951,18.6799244 4.6139446,18.6921247 L4.6139446,18.6921247 L4.65571895,18.6921247 C5.54101364,18.6921247 6.37489375,18.3505155 7.00472228,17.7274853 L7.00472228,17.7274853 L9.87429817,14.8896887 C10.1193207,14.6456821 10.5450977,14.6513756 10.7861035,14.9002623 C10.9058031,15.0247057 10.9708746,15.1890034 10.9692679,15.3646882 C10.9676612,15.5411863 10.8985729,15.7046707 10.7748566,15.8258606 L10.7748566,15.8258606 L7.90608402,18.6628439 C7.03283962,19.5266272 5.88083183,20 4.65732565,20 C4.63724183,20 4.61876472,20 4.59948426,19.9991866 C3.3534842,19.9853596 2.18942612,19.4818927 1.32180519,18.5847618 C0.45579096,17.6860042 -0.0133670242,16.4960654 0.000289971925,15.2345513 C0.0155536735,13.9738506 0.51202565,12.7961122 1.39812369,11.9168751 L1.39812369,11.9168751 L5.57234439,7.78991033 C6.44639214,6.92368694 7.60000664,6.44868745 8.82351282,6.44868745 L8.82351282,6.44868745 Z M15.4020879,-2.18491891e-13 C16.6464812,0.0146403953 17.8097359,0.518920678 18.6789636,1.41849163 C19.5449778,2.31562252 20.0141358,3.50474796 19.9996754,4.76870209 C19.9844117,6.03184286 19.4879398,7.20958133 18.6010384,8.08475162 L18.6010384,8.08475162 L14.1673347,12.4703634 C13.293287,13.3357734 12.1404758,13.8107729 10.9161663,13.8107729 C10.8960825,13.8107729 10.876802,13.8107729 10.8583249,13.8099595 C9.61393156,13.7969459 8.45148018,13.2934789 7.58225254,12.3930946 C7.46174964,12.2686513 7.39667807,12.1035401 7.39825572,11.9294821 C7.40069483,11.7554241 7.46978316,11.5919396 7.59349948,11.4683096 C7.71560909,11.3487464 7.87547628,11.2828646 8.04659041,11.2828646 L8.04659041,11.2828646 C8.2217213,11.2844913 8.38399855,11.3544399 8.50530481,11.4796966 C9.80271944,12.8225462 11.9388343,12.8469469 13.2651696,11.5366315 L13.2651696,11.5366315 L17.6980699,7.15101974 C18.338342,6.51741597 18.6966373,5.66664633 18.7078843,4.75406169 C18.7183279,3.8406637 18.3801164,2.9801338 17.7559113,2.33270298 C17.1284928,1.68364546 16.2873825,1.320889 15.3868242,1.31031538 L15.3868242,1.31031538 L15.3474599,1.31031538 C14.4597551,1.31031538 13.6266784,1.6519246 12.9968498,2.27495476 L12.9968498,2.27495476 L9.60589803,5.63004534 C9.35203857,5.88055878 8.94152533,5.87567864 8.69168264,5.61865837 C8.44344665,5.36082474 8.44826677,4.94520019 8.70212623,4.69224669 L8.70212623,4.69224669 L12.0938814,1.34040952 C12.9695358,0.474999492 14.1215436,-2.18491891e-13 15.3458532,-2.18491891e-13 L15.3458532,-2.18491891e-13 Z" id="path-1"></path>
    </defs>
    <g id="Yanbal-UI-Visual-Kit" stroke="none" stroke-width="1" fill="none" fill-rule="evenodd">
        <g id="yanbal-styleguide-pag2" transform="translate(-1322.000000, -4492.000000)">
            <g id="Group" transform="translate(1320.000000, 4490.000000)">
                <g id="elements" transform="translate(2.000000, 2.000000)">
                    <mask id="mask-2" fill="white">
                        <use xlink:href="#path-1"></use>
                    </mask>
                    <use id="icon" fill="#1E1210" xlink:href="#path-1"></use>
                    <g id="Group" mask="url(#mask-2)">
                        <g transform="translate(-2.000000, -2.000000)" id="color">
                            <rect id="box" fill="#1C1F28" fill-rule="nonzero" x="0" y="0" width="24" height="24"></rect>
                        </g>
                    </g>
                </g>
            </g>
        </g>
    </g>
</svg>