<?xml version="1.0" encoding="UTF-8"?>
<svg width="20px" height="18px" viewBox="0 0 20 18" version="1.1" xmlns="http://www.w3.org/2000/svg" xmlns:xlink="http://www.w3.org/1999/xlink">
    <title>3. icons/outline/icon-lift-truck</title>
    <defs>
        <path d="M19.8943165,9.20029534 L18.1712842,6.29117941 C18.0553417,6.08922854 17.843315,5.95569831 17.6007161,5.95569831 C17.5945516,5.95569831 17.5883644,5.95579093 17.5822454,5.95597616 L17.5831325,5.95595301 L13.2961492,5.95595301 L13.2961492,0.712315587 C13.2963085,0.706966968 13.2964222,0.700622719 13.2964222,0.694255316 C13.2964222,0.314850713 12.9975695,0.00659894494 12.6263806,0 L8.88564868,0 C8.55069612,0.0092848313 8.27711552,0.265046045 8.23328166,0.5950396 L8.2329177,0.5986285 L6.56279536,10.3137573 L4.56925329,10.3137573 L4.56925329,4.5134468 L3.64601259,4.5134468 L3.64601259,14.6296294 L0,14.6296294 L0,15.6232916 L3.90476201,15.6232916 C4.16321573,15.6037263 4.39262126,15.4908264 4.56343001,15.3179804 L4.56338451,15.3180267 L4.56338451,14.0549655 L5.36902218,14.0549655 L5.1338161,14.7493597 C5.12455799,14.7938158 5.11916691,14.8448476 5.11916691,14.8971761 C5.11916691,15.0674983 5.17553447,15.2243911 5.27029932,15.3497016 L5.26900273,15.3479419 C5.39056378,15.5087015 5.57970677,15.611344 5.79234761,15.611344 C5.79237036,15.611344 5.79237036,15.611344 5.79239311,15.611344 L7.45660118,15.611344 L7.45660118,15.65925 C7.56753929,16.9532916 8.62699024,17.9610546 9.9176665,17.9610546 C11.2083428,17.9610546 12.2677482,16.9533379 12.3780949,15.6687201 L12.3787773,15.6592732 L12.3787773,15.6113672 L13.3961459,15.6113672 L13.3961459,15.6592732 C13.4879537,16.9711434 14.556003,18 15.8601229,18 C17.1642428,18 18.2322922,16.9711434 18.3236677,15.6673772 L18.3240999,15.6593195 L18.3240999,15.6114135 L19.6472819,15.6114135 C19.6540378,15.6119692 19.6618856,15.612247 19.6697561,15.612247 C19.7471876,15.612247 19.8177494,15.5823781 19.8710006,15.5333144 L19.8707276,15.5335922 C19.9518897,15.4008956 20,15.2397887 20,15.0672899 C20,15.0312157 19.9979073,14.9956277 19.9937673,14.960688 L19.9941312,14.9649021 L19.9941312,9.57759292 C19.9941767,9.57506911 19.9941767,9.57212853 19.9941767,9.56911848 C19.9941767,9.43301814 19.9569623,9.30573954 19.892383,9.1972853 L19.89418,9.20045742 L19.8943165,9.20029534 Z M16.0424645,12.6900953 L15.5719613,12.6900953 C14.6880506,12.8273533 13.9643711,13.4150067 13.6259154,14.2118583 L13.6195917,14.2284598 L13.5607674,14.3781054 C13.5595391,14.3844033 13.5588339,14.3916738 13.5588339,14.3990831 C13.5588339,14.4064924 13.5595618,14.4137397 13.5608357,14.4207323 L13.560722,14.4199913 L13.560722,14.5696369 L12.3845551,14.5696369 L12.355143,14.4559035 C12.3554614,14.4496519 12.3557117,14.442312 12.3557117,14.4349258 C12.3557117,14.4275396 12.3554614,14.4202229 12.3550975,14.4129756 L12.355143,14.4139712 L12.355143,14.3421701 C12.355143,14.3421701 12.355143,14.3421701 12.355143,14.3062579 L12.3198621,14.2284135 C11.9841361,13.4051894 11.2605021,12.8076954 10.3875782,12.6679599 L10.3734294,12.6660612 L9.60307269,12.6660612 C8.73428879,12.8052874 8.02239235,13.3791409 7.68061563,14.1581637 L7.67426916,14.1744643 L7.63309672,14.2821776 L7.60368459,14.3539787 L7.60368459,14.3839171 C7.59094616,14.4120726 7.57893564,14.445924 7.56951829,14.4808869 L7.56840368,14.4856798 C7.56899511,14.4901948 7.56931357,14.4953814 7.56931357,14.5006142 C7.56931357,14.5058471 7.56901786,14.5110568 7.56833544,14.5161507 L7.56840368,14.5155255 L7.56840368,14.5574346 L6.19231167,14.5574346 L6.43343202,13.8570897 C6.44198497,13.8145323 6.44685287,13.7655612 6.44685287,13.7154324 C6.44685287,13.5424011 6.38864278,13.3831697 6.29114827,13.2569099 L6.29233112,13.2584844 C6.17425039,13.0978869 5.98779158,12.9950823 5.77776666,12.9950823 C5.77674303,12.9950823 5.77571941,12.9950823 5.77469578,12.9950823 L4.56929878,12.9950823 L4.56929878,11.3130228 L6.78044059,11.3130228 C7.1178271,11.3067943 7.39454681,11.0500143 7.43869913,10.7179832 L7.43906309,10.7143943 L7.87423982,8.02670193 L9.26796091,8.02670193 L10.2206137,9.1161067 C10.3421975,9.25625903 10.5177604,9.34535636 10.7138413,9.34954727 L10.714592,9.34957043 L12.6434865,9.34957043 C12.9493226,9.34957043 13.3139148,9.25378153 13.3139148,8.82278939 L13.3139148,6.96119229 L17.4656659,6.96119229 L19.0299001,9.63091702 L19.0299001,14.6111755 L18.2713264,14.6111755 L18.2713264,14.5692664 C18.2713264,14.539328 18.2713264,14.5093897 18.2419142,14.4734775 C18.2125021,14.4375654 18.2419142,14.4136008 18.2419142,14.3896825 L18.2419142,14.3537703 C17.9218838,13.4855576 17.1749112,12.8506928 16.2682532,12.709429 L16.2542409,12.707623 L16.0895967,12.707623 L16.0424645,12.6900953 Z M12.3788228,8.33838052 L10.8322178,8.33838052 L9.86193586,7.18312522 C9.7619619,7.06939183 9.71492069,7.01553518 9.56203674,7.01553518 L8.03306078,7.01553518 L9.10331666,0.999728581 L12.3788911,0.999728581 L12.3788228,8.33838052 Z M9.86778189,13.7256202 C9.88709426,13.7247867 9.90970498,13.724231 9.93247493,13.724231 C10.8028966,13.724231 11.5084921,14.4424509 11.5084921,15.3284461 C11.5084921,16.2144413 10.8028966,16.9326612 9.93247493,16.9326612 C9.06250817,16.9326612 8.35723117,16.2152054 8.35645776,15.3298353 L8.35645776,15.3297659 C8.3561393,15.31717 8.35588908,15.3024671 8.35588908,15.2876021 C8.35588908,14.4317537 9.02932001,13.7360396 9.86628057,13.7196233 L9.86775914,13.7196233 L9.86778189,13.7256202 Z M15.9072324,16.9280998 C15.8879427,16.9289334 15.8653093,16.9294891 15.8425393,16.9294891 C14.9721176,16.9294891 14.2665221,16.2112691 14.2665221,15.325274 C14.2665221,14.4392788 14.9721176,13.7210589 15.8425393,13.7210589 C16.712961,13.7210589 17.4185565,14.4392788 17.4185565,15.325274 C17.4185565,15.3268948 17.4185565,15.3285155 17.4185565,15.3301363 L17.4185565,15.3298585 C17.418693,15.3370363 17.418784,15.345557 17.418784,15.3540778 C17.418784,16.2097873 16.7454895,16.9054087 15.9087792,16.9220334 L15.9072779,16.9220566 L15.9072324,16.9280998 Z" id="path-1"></path>
    </defs>
    <g id="Yanbal-UI-Visual-Kit" stroke="none" stroke-width="1" fill="none" fill-rule="evenodd">
        <g id="yanbal-styleguide-pag2" transform="translate(-554.000000, -4637.000000)">
            <g id="Group" transform="translate(552.000000, 4634.000000)">
                <g id="colors/brand-secondary" transform="translate(2.000000, 3.000000)">
                    <mask id="mask-2" fill="white">
                        <use xlink:href="#path-1"></use>
                    </mask>
                    <use id="Mask" fill="#000000" fill-rule="nonzero" xlink:href="#path-1"></use>
                    <g id="Group" mask="url(#mask-2)">
                        <g transform="translate(-4.000000, -4.000000)" id="colors/brand-secondary">
                            <rect id="box" fill="#1C1F28" fill-rule="nonzero" x="0" y="0" width="26.4058266" height="25.7456809"></rect>
                        </g>
                    </g>
                </g>
            </g>
        </g>
    </g>
</svg>