<?xml version="1.0" encoding="UTF-8"?>
<svg width="16px" height="16px" viewBox="0 0 16 16" version="1.1" xmlns="http://www.w3.org/2000/svg" xmlns:xlink="http://www.w3.org/1999/xlink">
    <title>3. icons/outline/icon-open-cream</title>
    <defs>
        <path d="M15.9962223,7.00521078 C16.0376962,6.70888379 15.72947,6.46194131 15.4745865,6.46194131 L14.5202453,6.46194131 L14.5202453,4.57290917 C14.5049059,4.26861436 14.2643073,4.02796225 13.9696948,4.02796225 C13.9548347,4.02796225 13.9401089,4.02856134 13.9255556,4.02979944 L13.9274731,4.02967963 L13.7970497,4.02967963 L13.7970497,3.84450272 C13.756918,2.94697481 13.3904979,2.1459394 12.8194693,1.56083388 L12.8190283,1.56037458 C12.4293498,1.17092994 11.9693018,0.854174181 11.4612223,0.633291855 L11.4320007,0.622009104 C10.4786374,0.22831097 9.37412331,0 8.21835647,0 C8.11863114,0 8.01928931,0.00167743562 7.92035013,0.0050722458 L7.93476917,0.00467285637 L7.60876841,0.00467285637 C7.31618838,0.00744861293 7.07999985,0.25512997 7.07999985,0.560243528 C7.07999985,0.78957294 7.21339518,0.986412023 7.40375723,1.07126231 L7.40722777,1.0726402 C7.51391335,1.12204467 7.53765108,1.15291748 7.51391335,1.29486048 C7.44016915,1.6402924 7.15514378,1.89719966 6.81006463,1.91215679 L6.80854986,1.91219673 C6.43217832,1.94638446 6.08876733,2.00753099 5.75549953,2.095177 L5.80092335,2.08507245 C4.52420528,2.46369363 3.41390061,3.07212349 2.45718176,3.87168117 L2.47558905,3.85678394 L2.29182294,4.00493745 L2.07250776,4.00493745 C2.0598911,4.00387907 2.04514609,4.00326002 2.03030522,4.00326002 C1.73569272,4.00326002 1.49507494,4.24391212 1.47981223,4.54676913 L1.4797547,4.54818696 L1.4797547,6.4372191 L0.52541346,6.4372191 C0.270530029,6.4372191 -0.0376961929,6.68416159 0.0037777304,6.98048858 C0.359421896,9.80785957 0.71902235,12.6331804 1.08257909,15.456451 C1.08915586,15.7558532 1.32214229,15.9963456 1.60981371,15.9997204 L14.3897836,15.9997204 C14.3944046,16 14.3998118,16 14.4052381,16 C14.6528736,16 14.8572713,15.8071149 14.8874324,15.557776 L14.8877008,15.5552799 C14.8877008,15.5244071 14.8877008,15.4935742 14.9173442,15.4564909 C15.280901,12.6455614 15.6405014,9.82846806 15.9961456,7.00521078 L15.9962223,7.00521078 Z M6.63076613,3.06048129 L6.81453223,3.06048129 C6.97691904,3.04648269 7.1246567,3.02245942 7.26871292,2.98831162 L7.24723775,2.99260506 C8.0161639,2.79492725 8.57729861,2.08275599 8.57729861,1.23411335 C8.57729861,1.20122363 8.57645494,1.16855357 8.57480595,1.13608321 L8.57497852,1.14061628 L9.22107437,1.20232195 C9.94862247,1.27982347 10.6150814,1.47668252 11.2270662,1.77454716 L11.1890053,1.75791259 C12.0807234,2.10578079 12.7101952,2.97169702 12.7419286,3.99489281 L12.7420177,3.99882679 L12.7420177,4.0296996 L4.2420177,4.0296996 C4.92395024,3.56203454 5.72836795,3.22247364 6.59312706,3.06613265 L6.6307853,3.06050126 L6.63076613,3.06048129 Z M2.61784288,5.12853974 L13.3821763,5.12853974 L13.3821763,6.46813184 L2.61784288,6.46813184 L2.61784288,5.12853974 Z M2.07252694,14.9317731 C1.94806682,13.9748759 1.82951237,13.0180387 1.70499473,12.0673321 L1.24264581,8.43742129 C1.20707756,8.1410943 1.16556529,7.82008504 1.13001621,7.55461089 L14.8758703,7.55461089 C14.8225275,7.99294079 14.7632407,8.43742129 14.703973,8.88190179 C14.4490896,10.9005558 14.1942062,12.9130592 13.9333979,14.9317731 L2.07248859,14.9317731 L2.07252694,14.9317731 Z" id="path-1"></path>
    </defs>
    <g id="Yanbal-UI-Visual-Kit" stroke="none" stroke-width="1" fill="none" fill-rule="evenodd">
        <g id="yanbal-styleguide-pag2" transform="translate(-748.000000, -4638.000000)">
            <g id="Group" transform="translate(744.000000, 4634.000000)">
                <g id="colors/brand-secondary" transform="translate(4.000000, 4.000000)">
                    <mask id="mask-2" fill="white">
                        <use xlink:href="#path-1"></use>
                    </mask>
                    <use id="Mask" fill="#000000" fill-rule="nonzero" xlink:href="#path-1"></use>
                    <g id="Group" mask="url(#mask-2)">
                        <g transform="translate(-6.000000, -5.000000)" id="colors/brand-secondary">
                            <rect id="box" fill="#1C1F28" fill-rule="nonzero" x="0" y="0" width="26.4058266" height="25.7456809"></rect>
                        </g>
                    </g>
                </g>
            </g>
        </g>
    </g>
</svg>