<?xml version="1.0" encoding="UTF-8"?>
<svg width="20px" height="20px" viewBox="0 0 20 20" version="1.1" xmlns="http://www.w3.org/2000/svg" xmlns:xlink="http://www.w3.org/1999/xlink">
    <title>3. icons/outline/icon-sun</title>
    <defs>
        <path d="M10,16.4253798 C10.308311,16.4253798 10.5607685,16.6689008 10.5607685,16.9705094 L10.5607685,16.9705094 L10.5607685,19.4548704 C10.5607685,19.756479 10.308311,20 10,20 C9.69168901,20 9.43923146,19.7542449 9.43923146,19.4548704 L9.43923146,19.4548704 L9.43923146,16.9705094 C9.43923146,16.6689008 9.69168901,16.4253798 10,16.4253798 Z M14.5420018,14.5442359 C14.7609473,14.3252904 15.1117069,14.3208222 15.32395,14.5330652 L15.32395,14.5330652 L17.0822163,16.2913315 C17.2944593,16.5035746 17.2899911,16.8543342 17.0710456,17.0732797 C16.8521001,17.2922252 16.5013405,17.2966935 16.2890974,17.0844504 L16.2890974,17.0844504 L14.5308311,15.3261841 C14.318588,15.113941 14.3230563,14.7631814 14.5420018,14.5442359 Z M4.67605004,14.5330652 C4.88829312,14.3208222 5.23905273,14.3252904 5.45799821,14.5442359 C5.6769437,14.7631814 5.68141197,15.113941 5.4691689,15.3261841 L5.4691689,15.3261841 L3.71090259,17.0844504 C3.49865952,17.2966935 3.14789991,17.2922252 2.92895442,17.0732797 C2.71000894,16.8543342 2.70554066,16.5035746 2.91778374,16.2913315 L2.91778374,16.2913315 Z M10.0111707,4.6849866 C11.4276139,4.69392315 12.75916,5.24798928 13.7600536,6.24888293 L13.7600536,6.24888293 L13.9436636,6.43832264 C14.8350142,7.40455171 15.32395,8.65169794 15.32395,9.97542449 L15.32395,9.97542449 L15.32395,10 C15.3172475,11.4186774 14.7609473,12.7502234 13.7600536,13.7511171 C12.7703307,14.7587131 11.445487,15.3150134 10.0335121,15.3150134 L10.0335121,15.3150134 L10.0089366,15.3150134 C8.59025916,15.3105451 7.26094727,14.756479 6.26005362,13.7533512 C5.2613941,12.7502234 4.70956211,11.4164433 4.70956211,10 C4.70956211,8.58355675 5.25915996,7.25201072 6.26005362,6.24888293 C7.24977659,5.24128686 8.5746202,4.6849866 9.98659517,4.6849866 L9.98659517,4.6849866 Z M9.99553172,5.92716711 C7.75022341,5.92716711 5.92269884,7.75469169 5.92269884,10 C5.92269884,12.2453083 7.75022341,14.0728329 9.99553172,14.0728329 C11.0902592,14.0728329 12.1201966,13.6438785 12.8909741,12.8641644 L12.8909741,12.8641644 L12.9244861,12.8306524 C13.6617516,12.0755139 14.0683646,11.0790885 14.0683646,10.0201072 L14.0683646,10.0201072 L14.0683646,9.99776586 C14.0661305,7.75245755 12.24084,5.92716711 9.99553172,5.92716711 Z M3.02949062,9.43923146 C3.3310992,9.43923146 3.5746202,9.69168901 3.5746202,10 C3.5746202,10.308311 3.3310992,10.5607685 3.02949062,10.5607685 L3.02949062,10.5607685 L0.54512958,10.5607685 C0.243521001,10.5607685 6.52811138e-14,10.308311 6.52811138e-14,10 C6.52811138e-14,9.69168901 0.243521001,9.43923146 0.54512958,9.43923146 L0.54512958,9.43923146 Z M19.4548704,9.43923146 C19.756479,9.43923146 20,9.69168901 20,10 C20,10.308311 19.7542449,10.5607685 19.4548704,10.5607685 L19.4548704,10.5607685 L16.9705094,10.5607685 C16.6689008,10.5607685 16.4253798,10.308311 16.4253798,10 C16.4253798,9.69168901 16.6711349,9.43923146 16.9705094,9.43923146 L16.9705094,9.43923146 Z M2.92895442,2.92895442 C3.14789991,2.71000894 3.49865952,2.70554066 3.71090259,2.91778374 L3.71090259,2.91778374 L5.4691689,4.67381591 C5.68141197,4.88605898 5.6769437,5.23681859 5.45799821,5.45576408 C5.23905273,5.67470956 4.88829312,5.67917784 4.67605004,5.46693476 L4.67605004,5.46693476 L2.91778374,3.71090259 C2.70554066,3.49865952 2.71000894,3.14789991 2.92895442,2.92895442 Z M16.2890974,2.9155496 C16.5013405,2.70330652 16.8521001,2.7077748 17.0710456,2.92672029 C17.2899911,3.14566577 17.2944593,3.49642538 17.0822163,3.70866845 L17.0822163,3.70866845 L15.32395,5.46693476 C15.1117069,5.67917784 14.7609473,5.67470956 14.5420018,5.45576408 C14.3230563,5.23681859 14.318588,4.88605898 14.5308311,4.67381591 L14.5308311,4.67381591 Z M10,6.52811138e-14 C10.308311,6.52811138e-14 10.5607685,0.245755139 10.5607685,0.54512958 L10.5607685,0.54512958 L10.5607685,3.02949062 C10.5607685,3.3310992 10.308311,3.5746202 10,3.5746202 C9.69168901,3.5746202 9.43923146,3.3310992 9.43923146,3.02949062 L9.43923146,3.02949062 L9.43923146,0.54512958 C9.43923146,0.243521001 9.69168901,6.52811138e-14 10,6.52811138e-14 Z" id="path-1"></path>
    </defs>
    <g id="Yanbal-UI-Visual-Kit" stroke="none" stroke-width="1" fill="none" fill-rule="evenodd">
        <g id="yanbal-styleguide-pag2" transform="translate(-1082.000000, -4540.000000)">
            <g id="Group" transform="translate(1080.000000, 4538.000000)">
                <g id="elements" transform="translate(2.000000, 2.000000)">
                    <mask id="mask-2" fill="white">
                        <use xlink:href="#path-1"></use>
                    </mask>
                    <use id="Mask" fill="#000000" fill-rule="nonzero" xlink:href="#path-1"></use>
                    <g id="Group" mask="url(#mask-2)">
                        <g transform="translate(-2.000000, -2.000000)" id="colors/brand-secondary">
                            <rect id="box" fill="#1C1F28" fill-rule="nonzero" x="0" y="0" width="24" height="24"></rect>
                        </g>
                    </g>
                </g>
            </g>
        </g>
    </g>
</svg>