<?xml version="1.0" encoding="UTF-8"?>
<svg width="20px" height="20px" viewBox="0 0 20 20" version="1.1" xmlns="http://www.w3.org/2000/svg" xmlns:xlink="http://www.w3.org/1999/xlink">
    <title>3. icons/outline/icon-businessportal</title>
    <defs>
        <path d="M10.5579112,-4.79616347e-14 C11.5331399,0.00446478402 12.37447,0.654090858 12.6333408,1.5916955 C13.1421558,1.75019533 13.6420442,1.9555754 14.0839098,2.19220895 C14.40973,2.00468802 14.7779514,1.90646277 15.157331,1.90646277 C15.7308636,1.90646277 16.2731533,2.12970198 16.6793127,2.53376493 L16.6793127,2.53376493 L17.4603883,3.31510213 C17.8665476,3.72362987 18.0897121,4.26386874 18.0897121,4.83759348 C18.0897121,5.21933251 17.9915198,5.5876772 17.8040616,5.91137404 C18.0428476,6.3690144 18.2392323,6.8445139 18.4021424,7.36242884 C18.8373131,7.48074562 19.2323142,7.7374707 19.5179647,8.09242103 C19.8237001,8.47192767 19.9933051,8.94965956 19.9955367,9.43855341 L19.9955367,9.43855341 L20,10.552517 C20,11.5325371 19.3505914,12.3763813 18.4088373,12.6353388 C18.2503905,13.1443241 18.0450792,13.64438 17.8085249,14.0863936 C17.995983,14.4123228 18.0941754,14.7806675 18.0941754,15.1601741 C18.0941754,15.7338989 17.8710109,16.2763701 17.4670832,16.6826655 L17.4670832,16.6826655 L16.6860076,17.4640027 C16.2776166,17.870298 15.7375586,18.0935372 15.1640259,18.0935372 C14.7824146,18.0935372 14.4141933,17.995312 14.0906048,17.807791 C13.6331176,18.046657 13.1577773,18.2431075 12.6400357,18.4060721 C12.5217585,18.8413885 12.2651194,19.2365219 11.9102879,19.5222681 C11.5309083,19.8281058 11.0533363,19.9977676 10.5646061,20 L10.5646061,20 L9.4510154,20 C8.95559027,20 8.47132337,19.8281058 8.08971212,19.5155709 C7.73488061,19.2275924 7.48047311,18.8302266 7.36219594,18.388213 C6.85338094,18.2297131 6.35349252,18.0243331 5.91162687,17.7876995 C5.58580674,17.9752204 5.21758536,18.0734457 4.83820576,18.0734457 C4.26467306,18.0734457 3.7223834,17.8502065 3.31622406,17.4461435 L3.31622406,17.4461435 L2.5351484,16.6648063 C2.12898906,16.2562786 1.90582459,15.7160397 1.90582459,15.142315 C1.90582459,14.760576 2.00401696,14.3922313 2.19147512,14.0685344 C1.95268913,13.6108941 1.7563044,13.1353946 1.59339433,12.6174796 C1.15822361,12.4991629 0.763222495,12.2424378 0.477571971,11.8874874 C0.171836644,11.5079808 0.00223164472,11.0302489 1.72306613e-13,10.5413551 L1.72306613e-13,10.5413551 L1.72306613e-13,9.43632102 C0.00446328944,8.94296238 0.178531578,8.46076571 0.490961839,8.08125907 C0.781075653,7.73077352 1.17830841,7.47851323 1.61794242,7.36019645 C1.7763892,6.85344346 1.98170051,6.35338765 2.21825485,5.91137404 C2.0307967,5.5854448 1.93260433,5.21710012 1.93260433,4.83759348 C1.93260433,4.26386874 2.1557688,3.72139748 2.5596965,3.31510213 L2.5596965,3.31510213 L3.33184557,2.53376493 L3.47271776,2.40583264 C3.86066272,2.0828493 4.34402043,1.90646277 4.85382727,1.90646277 C5.23543852,1.90646277 5.6036599,2.00468802 5.92724838,2.19220895 C6.38473555,1.95334301 6.86007588,1.75689251 7.37781745,1.59392789 C7.49609462,1.15861145 7.75273376,0.763478067 8.10756528,0.47773189 C8.48694488,0.171894185 8.96451685,0.00223239201 9.45324704,-4.79616347e-14 L9.45324704,-4.79616347e-14 Z M10.5623745,1.09610448 L9.46663691,1.09610448 C8.91095738,1.09833687 8.4579335,1.51802657 8.41106896,2.07389218 L8.41106896,2.07389218 C8.39098416,2.30382855 8.23253738,2.49134948 8.01160455,2.55385646 L8.01160455,2.55385646 L8.00490962,2.55608885 L7.95358179,2.56725081 C7.32872127,2.73914499 6.71501897,2.99587007 6.17942424,3.31063735 L6.17942424,3.31063735 L6.09288601,3.35156453 C6.03287957,3.37339237 5.96890575,3.38430628 5.90493193,3.38430628 C5.77549654,3.38430628 5.64829279,3.33742605 5.55010042,3.25259516 L5.55010042,3.25259516 L5.45083356,3.17732427 C5.27839768,3.06234575 5.07290039,3.00033486 4.86275385,3.00033486 C4.58156661,3.00033486 4.31600089,3.10972207 4.11515287,3.30840496 L4.11515287,3.30840496 L3.33407721,4.08081259 C3.13546083,4.27949548 3.02611024,4.54738252 3.02611024,4.82866391 C3.02611024,5.08092421 3.11537603,5.32648733 3.2782861,5.51624065 L3.2782861,5.51624065 L3.33463513,5.59493247 C3.38359183,5.6782286 3.40995314,5.77408193 3.40995314,5.87119098 C3.40995314,5.95155709 3.39209998,6.02969081 3.35862531,6.10112736 L3.35862531,6.10112736 L3.34969873,6.1167541 C3.34523544,6.12568367 3.34077215,6.13461324 3.33630886,6.14354281 L3.33630886,6.14354281 C3.00602544,6.71280277 2.75831288,7.31331622 2.57754965,7.97633664 L2.57754965,7.97633664 C2.51283196,8.20404063 2.31644722,8.36254046 2.08658782,8.3803996 L2.08658782,8.3803996 C1.53983486,8.42504744 1.11359072,8.88938498 1.11135907,9.43632102 L1.11135907,9.43632102 L1.11135907,10.5324255 C1.11359072,11.0860587 1.53313992,11.5414667 2.08658782,11.5883469 L2.08658782,11.5883469 C2.31644722,11.6039737 2.51283196,11.7647059 2.57531801,11.9879451 L2.57531801,11.9879451 L2.57754965,11.9946423 L2.58870788,12.0459873 C2.76054452,12.671057 3.01718366,13.2849648 3.33184557,13.8207389 L3.33184557,13.8207389 L3.37275906,13.9073061 C3.39457958,13.9673327 3.40548985,14.0313279 3.40548985,14.0953231 C3.40548985,14.2248019 3.35862531,14.3520482 3.27382281,14.4502735 L3.27382281,14.4502735 L3.19857712,14.5495736 C3.08363708,14.7220672 3.02164695,14.9276333 3.02164695,15.1378502 C3.02164695,15.4191316 3.13099755,15.6847862 3.32961393,15.8857015 L3.32961393,15.8857015 L4.10399464,16.6737359 C4.30484267,16.8724188 4.57040839,16.981806 4.85159563,16.981806 C5.10377148,16.981806 5.34702075,16.8925103 5.5389422,16.7295457 C5.63713457,16.6447148 5.76433832,16.5978346 5.89377371,16.5978346 C5.97411292,16.5978346 6.05222049,16.6156937 6.12363312,16.6491796 L6.12363312,16.6491796 L6.13925463,16.6581092 C6.14594956,16.6625739 6.15487614,16.6670387 6.16380272,16.6715035 L6.16380272,16.6715035 C6.73287213,17.0018975 7.33318456,17.249693 7.99598304,17.4305168 L7.99598304,17.4305168 C8.2236108,17.4952562 8.38205758,17.6917067 8.39991073,17.921643 L8.39991073,17.921643 C8.44454363,18.4685791 8.90872573,18.894966 9.45547869,18.8971983 L9.45547869,18.8971983 L10.5601428,18.8971983 C11.1135907,18.894966 11.5688462,18.4752763 11.6157108,17.921643 L11.6157108,17.921643 C11.6313323,17.6917067 11.7920107,17.4952562 12.0151752,17.4327492 L12.0151752,17.4327492 L12.0218701,17.4305168 L12.0731979,17.4193548 C12.6980585,17.2474607 13.3117608,16.9907356 13.8473555,16.6759683 L13.8473555,16.6759683 L13.9338937,16.6350411 C13.9939002,16.6132133 14.057874,16.6022994 14.1218478,16.6022994 C14.2512832,16.6022994 14.3784869,16.6491796 14.4766793,16.7340105 L14.4766793,16.7340105 L14.5759462,16.8092814 C14.7483821,16.9242599 14.9538793,16.9862708 15.1640259,16.9862708 C15.4452131,16.9862708 15.7107788,16.8768836 15.9116269,16.6782007 L15.9116269,16.6782007 L16.6927025,15.8968635 C16.8913189,15.6981806 17.0006695,15.432526 17.0006695,15.1490122 C17.0006695,14.8967519 16.9114037,14.6511887 16.7484936,14.4614354 C16.6636911,14.3632102 16.6168266,14.2359638 16.6168266,14.1064851 C16.6168266,14.026119 16.6346798,13.9479853 16.6681544,13.8765487 L16.6681544,13.8765487 L16.677081,13.860922 C16.6815443,13.8519924 16.6860076,13.8452952 16.6927025,13.8363657 L16.6927025,13.8363657 L16.8501058,13.5489969 C17.1015274,13.0652603 17.298966,12.5564609 17.4514617,12.0058042 L17.4514617,12.0058042 C17.5139478,11.782565 17.7058692,11.6218328 17.9312653,11.6017413 L17.9312653,11.6017413 C18.4802499,11.5570934 18.9064941,11.0927559 18.9087257,10.5458198 L18.9087257,10.5458198 L18.9154207,9.44748298 C18.913189,8.89161737 18.4958715,8.43844179 17.9401919,8.39156156 L17.9401919,8.39156156 C17.7103325,8.37593481 17.5139478,8.21520259 17.4514617,7.99196339 L17.4514617,7.99196339 L17.4492301,7.98526621 L17.4380719,7.9339212 C17.2662352,7.30885143 17.0095961,6.69494363 16.6949342,6.15916955 L16.6949342,6.15916955 L16.6540207,6.07260235 C16.6322002,6.01257581 16.6212899,5.94858057 16.6212899,5.88458533 C16.6212899,5.7551066 16.6681544,5.62786025 16.7529569,5.529635 L16.7529569,5.529635 L16.8282026,5.4303349 C16.9431427,5.25784128 17.0051328,5.05227518 17.0051328,4.84205827 C17.0051328,4.56077687 16.8957822,4.29512222 16.6971658,4.09420694 L16.6971658,4.09420694 L15.9160902,3.31286974 C15.7174738,3.11418685 15.4519081,3.00479964 15.1684892,3.00479964 C14.9163133,3.00479964 14.673064,3.09409532 14.4811426,3.25705994 C14.3829502,3.34189084 14.2557465,3.38877107 14.1263111,3.38877107 C14.0459719,3.38877107 13.9678643,3.37091193 13.8964517,3.33742605 L13.8964517,3.33742605 L13.8808302,3.32849648 C13.8719036,3.3240317 13.862977,3.31956692 13.8540504,3.31510213 L13.8540504,3.31510213 C13.284981,2.98470811 12.6846686,2.7369126 12.0218701,2.55608885 L12.0218701,2.55608885 C11.7942424,2.49134948 11.6357956,2.29489898 11.6179424,2.06496261 L11.6179424,2.06496261 C11.5688462,1.51132939 11.1135907,1.09833687 10.5623745,1.09610448 L10.5623745,1.09610448 Z M10.0044633,3.23027124 C11.8098639,3.23027124 13.5081455,3.93347472 14.7846463,5.21040295 C16.0611471,6.48733118 16.7641152,8.18618149 16.7641152,9.99218663 L16.7641152,9.99218663 C16.7618835,11.8004242 16.0566838,13.4948097 14.7824146,14.7672731 C13.5059139,16.0397366 11.8120955,16.7407077 10.0111582,16.7407077 C8.20798929,16.7407077 6.5119393,16.0397366 5.23543852,14.7628083 C3.96116938,13.4858801 3.25820129,11.7892622 3.25820129,9.98548945 C3.25820129,8.1839491 3.95893774,6.48733118 5.23097523,5.21263534 C6.50301272,3.9379395 8.19683106,3.23473602 9.99776836,3.23027124 L9.99776836,3.23027124 Z M10.0111582,4.28619266 C8.48917652,4.28619266 7.05646061,4.87554415 5.98080786,5.95378949 C4.9051551,7.03203483 4.3115376,8.4629981 4.3115376,9.98548945 C4.3115376,11.5057484 4.90292345,12.9367117 5.97634457,14.0127246 C7.04976568,15.0887376 8.4780183,15.6825539 9.99776836,15.6870186 L9.99776836,15.6870186 L10.1517518,15.689251 C11.6179424,15.6557652 12.9926356,15.0686461 14.0348137,14.0283514 C15.1126981,12.9523384 15.7063156,11.5236075 15.7107788,10.0011162 L15.7107788,10.0011162 L15.7107788,9.98772184 C15.7107788,8.46523049 15.1171613,7.03203483 14.0415086,5.95602188 C12.9636242,4.88000893 11.5331399,4.28619266 10.0111582,4.28619266 Z M9.96652533,6.17479629 C9.97322026,6.17479629 9.98214684,6.17702869 9.98884178,6.17702869 L9.98884178,6.17702869 L10,6.17702869 C10.1227405,6.17702869 10.2231645,6.26409197 10.2432493,6.38017636 L10.2432493,6.38017636 L10.2432493,6.6480634 C10.9261326,6.6770845 11.7696943,6.90255609 11.7696943,7.28875991 C11.7696943,7.44279495 11.6291006,7.73077352 11.426021,7.73077352 C11.2229413,7.73077352 10.948449,7.40707668 10.2454809,7.37135841 L10.2454809,7.37135841 L10.2454809,9.57919411 C11.0600312,9.87610224 11.9392993,10.2823976 11.9459942,11.577185 C11.9482258,11.617368 11.9504575,11.6642482 11.9526891,11.7111285 C11.9526891,12.6732894 11.1983932,13.4613238 10.2454809,13.5149012 L10.2454809,13.5149012 L10.2454809,13.8899431 C10.2231645,14.0060275 10.1227405,14.0930907 10.0022316,14.0930907 L10.0022316,14.0930907 L9.99107342,14.0930907 L9.97879938,14.0950441 L9.97879938,14.0950441 L9.96652533,14.0953231 C9.84824816,14.0953231 9.75005579,14.0060275 9.73666592,13.8899431 L9.73666592,13.8899431 L9.73666592,13.5729434 C8.52711448,13.5528519 7.77505021,12.8920638 7.77505021,12.4835361 C7.77505021,12.2937828 7.86654765,12.0415225 8.13434501,12.0415225 C8.39991073,12.0415225 8.63200179,12.7670499 9.73666592,12.8161625 L9.73666592,12.8161625 L9.73666592,10.2489117 C8.87971435,9.9453064 7.95135015,9.61491238 7.95135015,8.39156156 C7.95135015,7.16821074 8.86409284,6.74628865 9.73666592,6.66815493 L9.73666592,6.66815493 L9.73666592,6.37794397 C9.75005579,6.26409197 9.84824816,6.17479629 9.96652533,6.17479629 Z M10.200848,10.4297355 L10.200848,12.8139301 C10.7431377,12.7759795 11.1693818,12.3250363 11.1693818,11.7781002 C11.1693818,11.7468467 11.1671502,11.7178257 11.1649185,11.6910369 L11.1649185,11.6910369 L11.1649185,11.6709454 C11.1649185,11.0748968 10.7587592,10.5748409 10.200848,10.4297355 L10.200848,10.4297355 Z M9.77906717,7.38252037 C9.19437626,7.43833017 8.72349922,7.64371024 8.72349922,8.31119545 C8.72349922,8.98091305 9.20999777,9.20415225 9.77906717,9.41622949 L9.77906717,9.41622949 Z" id="path-1"></path>
    </defs>
    <g id="Yanbal-UI-Visual-Kit" stroke="none" stroke-width="1" fill="none" fill-rule="evenodd">
        <g id="yanbal-styleguide-pag2" transform="translate(-314.000000, -4588.000000)">
            <g id="Group" transform="translate(312.000000, 4586.000000)">
                <g id="colors/brand-secondary" transform="translate(2.000000, 2.000000)">
                    <mask id="mask-2" fill="white">
                        <use xlink:href="#path-1"></use>
                    </mask>
                    <use id="Mask" fill="#000000" fill-rule="nonzero" xlink:href="#path-1"></use>
                    <g id="Group" mask="url(#mask-2)">
                        <g transform="translate(-2.000000, -2.000000)" id="colors/brand-secondary">
                            <rect id="box" fill="#1C1F28" fill-rule="nonzero" x="0" y="0" width="24" height="24"></rect>
                        </g>
                    </g>
                </g>
            </g>
        </g>
    </g>
</svg>