<?xml version="1.0" encoding="UTF-8"?>
<svg width="20px" height="16px" viewBox="0 0 20 16" version="1.1" xmlns="http://www.w3.org/2000/svg" xmlns:xlink="http://www.w3.org/1999/xlink">
    <title>3. icons/outline/icon-folder</title>
    <defs>
        <path d="M20,2.29356729 C19.9781558,1.73643016 19.5211264,1.29309403 18.9606768,1.29309403 C18.948711,1.29309403 18.9367695,1.29338527 18.9248765,1.29372505 L18.9266726,1.29367651 L8.52671729,1.29367651 C8.52402317,1.29372505 8.52101352,1.29377359 8.51783398,1.29377359 C8.37747279,1.29377359 8.24815507,1.24598638 8.14541448,1.16606599 L8.1467494,1.16708532 L6.94007527,0.233790819 C6.75772466,0.0913271931 6.52607895,0.00407732353 6.27423949,0.00058247479 L1.07342446,0.00058247479 C1.06323049,0.000266967612 1.05128899,0 1.03932322,0 C0.478825073,0 0.0219170236,0.443360394 0,0.998507408 L0,1.00047326 L0,14.9995267 C0.0217956668,15.5566639 0.478825073,16 1.03927468,16 C1.05124045,16 1.06318195,15.9997088 1.07507491,15.999369 L1.07327883,15.9994175 L18.9265755,15.9994175 C18.9367695,15.999733 18.948711,16 18.9606768,16 C19.5211749,16 19.978083,15.5566396 20,15.0014926 L20,14.9995267 L20,2.29356729 Z M1.33334628,1.62697344 C1.34419557,1.38895968 1.53984687,1.20014076 1.77967202,1.20014076 C1.78447775,1.20014076 1.78938056,1.20023784 1.79416201,1.200432 L1.79345814,1.20040773 L6.00007039,1.20040773 C6.00077426,1.20040773 6.00159948,1.20040773 6.00237616,1.20040773 C6.11259234,1.20040773 6.21394947,1.23807444 6.2943847,1.30120014 L6.29334104,1.30049632 L7.54001434,2.26711323 C7.72319018,2.40790224 7.95425337,2.49490941 8.20526761,2.50032157 L8.20648118,2.50034584 L18.2064205,2.50034584 C18.2124398,2.50005461 18.219527,2.49988472 18.2267113,2.49988472 C18.4651773,2.49988472 18.6593966,2.68967442 18.6665566,2.9263048 L18.6665566,2.92700863 L18.6665566,4.92683874 L1.33315211,4.92683874 L1.33334628,1.62697344 Z M18.7066529,14.7661485 L1.33334628,14.7661485 L1.33334628,6.14673511 L18.7332543,6.14673511 L18.7066529,14.7661485 Z" id="path-1"></path>
    </defs>
    <g id="Yanbal-UI-Visual-Kit" stroke="none" stroke-width="1" fill="none" fill-rule="evenodd">
        <g id="yanbal-styleguide-pag2" transform="translate(-122.000000, -4638.000000)">
            <g id="Group" transform="translate(120.000000, 4634.000000)">
                <g id="colors/brand-secondary" transform="translate(2.000000, 4.000000)">
                    <mask id="mask-2" fill="white">
                        <use xlink:href="#path-1"></use>
                    </mask>
                    <use id="Mask" fill="#000000" fill-rule="nonzero" xlink:href="#path-1"></use>
                    <g id="Group" mask="url(#mask-2)">
                        <g transform="translate(-4.000000, -5.000000)" id="colors/brand-secondary">
                            <rect id="box" fill="#1C1F28" fill-rule="nonzero" x="0" y="0" width="26.4058266" height="25.7456809"></rect>
                        </g>
                    </g>
                </g>
            </g>
        </g>
    </g>
</svg>