<?xml version="1.0" encoding="UTF-8"?>
<svg width="20px" height="17px" viewBox="0 0 20 17" version="1.1" xmlns="http://www.w3.org/2000/svg" xmlns:xlink="http://www.w3.org/1999/xlink">
    <title>3. icons/outline/icon-eye-press </title>
    <defs>
        <path d="M19.8,8.38613839 C18.6503125,6.65803571 17.1232366,5.268125 15.3302009,4.31111607 L15.2642857,4.27899554 L18.0071429,1.54328125 C18.1177455,1.43267857 18.1861384,1.27991071 18.1861384,1.11113839 C18.1861384,0.773616071 17.9125223,0.5 17.575,0.5 C17.4062277,0.5 17.2534598,0.568415179 17.1428571,0.678995536 L17.1428571,0.678995536 L14.0857143,3.74328125 C12.8745982,3.25738839 11.4707143,2.97444196 10.0010491,2.97185268 L10,2.97185268 C5.90029018,3.01622768 2.30658482,5.14196429 0.220669643,8.34066964 L0.192857143,8.38613839 L0,8.68613839 L0.2,8.98613839 C1.34991071,10.7140179 2.87694196,12.1038839 4.66979911,13.0611384 L4.73571429,13.0932813 L1.99285714,15.8289955 C1.88225446,15.9395982 1.81386161,16.0923661 1.81386161,16.2611384 C1.81386161,16.5986607 2.08747768,16.8722768 2.425,16.8722768 C2.59377232,16.8722768 2.74654018,16.8038616 2.85714286,16.6932813 L5.92142857,13.6289955 C7.13033482,14.1141741 8.53165179,14.3970536 9.99861607,14.4004241 L10,14.4004241 C14.0969643,14.3535045 17.6875893,12.2283929 19.7722098,9.03158482 L19.8,8.98613839 L20,8.68613839 L19.8,8.38613839 Z M1.22857143,8.68613839 C3.18386161,5.88629464 6.37475446,4.06613839 9.99316964,4.02185268 L10,4.02185268 C11.1717188,4.02477679 12.2961384,4.22330357 13.3436161,4.58647321 L13.2714286,4.56470982 L11.8857143,5.95042411 C11.3683482,5.55301339 10.7127455,5.31200893 10.0010268,5.30756696 L10,5.30756696 C8.19638393,5.34729911 6.74948661,6.81879464 6.74948661,8.62823661 C6.74948661,8.64859375 6.74966518,8.66890625 6.75004464,8.68917411 L6.75,8.68611607 C6.74997768,8.68988839 6.74997768,8.69435268 6.74997768,8.69883929 C6.74997768,9.38321429 6.94966518,10.0209375 7.29395089,10.5569643 L7.28571429,10.5432812 L5.51428571,12.3147098 C3.77002232,11.4619196 2.32805804,10.2304688 1.25176339,8.72037946 L1.22857143,8.68613839 L1.22857143,8.68613839 Z M12.2428571,8.68613839 C12.243125,8.69901786 12.2432589,8.71417411 12.2432589,8.72939732 C12.2432589,9.97683036 11.2439732,10.9908705 10.0022098,11.0146875 L9.99997768,11.0147321 C9.57799107,11.0114955 9.18580357,10.8867857 8.85582589,10.6739062 L8.86426339,10.6790179 L11.9642634,7.57901786 C12.1387054,7.89948661 12.2417188,8.28066964 12.2428348,8.68582589 L12.2428348,8.68616071 L12.2428571,8.68613839 Z M7.75714286,8.68613839 C7.756875,8.67325893 7.75674107,8.65810268 7.75674107,8.64287946 C7.75674107,7.39544643 8.75602679,6.38140625 9.99779018,6.35758929 L10.0000223,6.35754464 C10.4220089,6.36078125 10.8141964,6.48549107 11.1441741,6.69837054 L11.1357366,6.69325893 L8.03573661,9.79325893 C7.8615625,9.47272321 7.75859375,9.09160714 7.75716518,8.6865625 L7.75716518,8.68611607 L7.75714286,8.68613839 Z M10,13.3504241 C8.83060268,13.346808 7.70875,13.1483259 6.66357143,12.7858036 L6.73571429,12.807567 L8.12142857,11.4218527 C8.63946429,11.8167634 9.29522321,12.0553348 10.0066295,12.057567 L10.0071429,12.057567 C11.807567,12.0138393 13.2503795,10.5439509 13.2503795,8.73705357 C13.2503795,8.71915179 13.2502455,8.70127232 13.2499554,8.6834375 L13.25,8.68613839 C13.25,8.68448661 13.25,8.6825 13.25,8.68053571 C13.25,7.99618304 13.0503125,7.35845982 12.7060491,6.82245536 L12.7142857,6.83613839 L14.4928571,5.05756696 C16.2374554,5.90979911 17.6795313,7.14138393 18.7554018,8.651875 L18.7785714,8.68613839 C16.8211607,11.4869866 13.6276563,13.3073214 10.0066518,13.3504241 L10,13.3504241 L10,13.3504241 Z" id="path-1"></path>
    </defs>
    <g id="Yanbal-UI-Visual-Kit" stroke="none" stroke-width="1" fill="none" fill-rule="evenodd">
        <g id="yanbal-styleguide-pag2" transform="translate(-1034.000000, -4493.000000)">
            <g id="Group" transform="translate(1032.000000, 4490.000000)">
                <g id="elements" transform="translate(2.000000, 3.000000)">
                    <mask id="mask-2" fill="white">
                        <use xlink:href="#path-1"></use>
                    </mask>
                    <use id="icon" fill="#000000" fill-rule="nonzero" xlink:href="#path-1"></use>
                    <g id="Group" mask="url(#mask-2)">
                        <g transform="translate(-2.000000, -3.000000)" id="color">
                            <rect id="box" fill="#1C1F28" fill-rule="nonzero" x="0" y="0" width="24" height="24"></rect>
                        </g>
                    </g>
                </g>
            </g>
        </g>
    </g>
</svg>