<?xml version="1.0" encoding="UTF-8"?>
<svg width="18px" height="20px" viewBox="0 0 18 20" version="1.1" xmlns="http://www.w3.org/2000/svg" xmlns:xlink="http://www.w3.org/1999/xlink">
    <title>3. icons/outline/icon-bulb </title>
    <defs>
        <path d="M8.99343066,3.91437309 C10.3226277,3.91437309 11.5729927,4.45124023 12.5124088,5.42303772 C13.4540146,6.3948352 13.9708029,7.68829992 13.9708029,9.06331408 L13.9708029,9.06331408 L13.972719,9.12759089 L13.972719,9.12759089 L13.9729927,9.19016876 C13.9729927,9.56846755 13.9291971,9.9490316 13.8459854,10.2888209 L13.8459854,10.2888209 L13.8284672,10.3137388 C13.6948905,10.8891154 13.4540146,11.4441047 13.1343066,11.922075 C13.0883212,12.0194813 13.0379562,12.1055612 12.9744526,12.2120285 C12.950365,12.2528033 12.9240876,12.2981085 12.8934307,12.3502095 C12.8583942,12.4136369 12.8211679,12.474799 12.7861314,12.535961 C12.7182482,12.6560199 12.6525547,12.7670178 12.5934307,12.8712198 L12.5934307,12.8712198 L12.5890511,12.8689546 L12.5934307,12.8734851 L12.5890511,12.8802809 L12.4490253,13.0764141 C12.0955123,13.6107301 11.9019465,14.2331458 11.8883212,14.8895685 L11.8883212,14.8895685 L11.8883212,17.037037 C11.8839416,17.5693737 11.520438,18.0292219 11.0211679,18.151546 C10.9708029,18.6499037 10.749635,19.109752 10.3927007,19.4518065 C10.0226277,19.8051875 9.54087591,20 9.03722628,20 L9.03722628,20 L8.98905109,20 C7.92262774,20 7.18467153,19.3294824 6.96350365,18.1560766 C6.45328467,18.047344 6.08978102,17.5874958 6.08978102,17.0460981 L6.08978102,17.0460981 L6.08978102,14.90316 C6.07883212,14.1669498 5.84452555,13.4737796 5.41313869,12.898403 C5.33211679,12.7851399 5.25985401,12.6492241 5.19416058,12.5291653 C5.16350365,12.4725337 5.1350365,12.4181674 5.10656934,12.3705969 C5.08248175,12.3298222 5.06058394,12.2890475 5.03649635,12.250538 C4.9729927,12.1440707 4.91386861,12.0443991 4.86569343,11.9447276 C4.5459854,11.4622268 4.31167883,10.9208291 4.17372263,10.3363914 L4.17372263,10.3363914 L4.1169635,10.0967448 C4.04969343,9.77496885 4.01605839,9.44478423 4.01605839,9.11314985 L4.01605839,9.11314985 L4.01605839,9.06104882 C4.01605839,7.68829992 4.5350365,6.3948352 5.47445255,5.42303772 C6.41386861,4.44897497 7.66423358,3.91437309 8.99343066,3.91437309 Z M10.0248175,18.1741987 L8.00364964,18.1741987 C8.24233577,18.9761015 8.82043796,18.980632 8.99781022,18.9761015 L9.007985,18.9767253 C9.05429973,18.97911 9.2504562,18.9843131 9.42481752,18.9149394 C9.7270073,18.7948805 9.95693431,18.5162533 10.0248175,18.1741987 L10.0248175,18.1741987 Z M3.80364964,14.9779137 C3.94160584,14.9779137 4.06861314,15.0345452 4.16277372,15.1387473 C4.25912409,15.2384188 4.31386861,15.3698041 4.31386861,15.5125156 C4.31386861,15.6552271 4.25912409,15.7888776 4.16058394,15.8885491 L4.16058394,15.8885491 L2.84014599,17.2590327 C2.7459854,17.3587043 2.61678832,17.4153358 2.4810219,17.4153358 C2.34525547,17.4153358 2.21824818,17.3609695 2.12189781,17.2590327 C2.02554745,17.1593612 1.97080292,17.027976 1.97080292,16.8852645 C1.97080292,16.742553 2.02554745,16.6089025 2.12408759,16.5092309 L2.12408759,16.5092309 L3.44452555,15.1387473 C3.53649635,15.0368105 3.66788321,14.9779137 3.80364964,14.9779137 Z M14.1744526,14.9824442 C14.310219,14.9824442 14.4372263,15.0368105 14.5335766,15.136482 L14.5335766,15.136482 L15.8518248,16.5069657 C15.9481752,16.604372 16.0029197,16.7380224 16.0029197,16.8807339 C16.0029197,17.0234455 15.9481752,17.1570959 15.849635,17.2567675 C15.7554745,17.3541737 15.6284672,17.4108053 15.4948905,17.4130706 L15.4948905,17.4130706 C15.3569343,17.4108053 15.2277372,17.356439 15.1313869,17.2567675 L15.1313869,17.2567675 L13.8153285,15.8840186 C13.7167883,15.784347 13.6642336,15.6529618 13.6642336,15.5102503 C13.6642336,15.2180315 13.8941606,14.9824442 14.1744526,14.9824442 Z M10.9226277,16.3982331 L7.1189781,16.3982331 L7.1189781,17.0257107 L7.0620438,17.0257107 L7.1189781,17.027976 C7.1189781,17.0936686 7.16715328,17.1412391 7.22408759,17.1412391 L7.22408759,17.1412391 L10.7715328,17.1412391 L10.7715328,17.1412391 L10.814193,17.1362052 C10.8416058,17.1296611 10.8664234,17.1170763 10.8854015,17.1004644 C10.9094891,17.080077 10.9226277,17.0528939 10.9226277,17.027976 L10.9226277,17.027976 L10.9226277,16.3982331 Z M10.9467153,14.6902254 L7.12554745,14.6902254 C7.12773723,14.7151433 7.12773723,14.7400612 7.12773723,14.764979 C7.12773723,14.8170801 7.12554745,14.8669158 7.1189781,14.9144864 L7.1189781,14.9144864 L7.1189781,15.360743 L10.9467153,15.360743 L10.9467153,14.6902254 Z M9.03065693,4.94280213 C6.83868613,4.94280213 5.0540146,6.78672556 5.0540146,9.05651829 C5.05620438,9.39857288 5.1,9.74062748 5.1810219,10.0464379 L5.1810219,10.0464379 L5.1810219,10.0509684 L5.18759124,10.0804168 C5.3080292,10.5515913 5.50729927,11.0091743 5.76350365,11.4033299 L5.76350365,11.4033299 C5.82481752,11.5052667 5.91240876,11.654774 6.00437956,11.8382603 C6.05912409,11.9447276 6.12043796,12.0466644 6.17956204,12.1463359 C6.21459854,12.2052328 6.24963504,12.2641296 6.28248175,12.3230264 C6.54744526,12.7217125 6.75766423,13.1498471 6.92627737,13.6232869 L6.92627737,13.6232869 L11.1065693,13.6232869 L11.2127825,13.3504406 C11.3625985,12.9893759 11.5440876,12.6410692 11.7437956,12.3275569 C11.8094891,12.2278854 11.8861314,12.0874391 11.9605839,11.9537887 C11.9846715,11.9130139 12.0065693,11.8722392 12.0262774,11.835995 C12.0591241,11.7748329 12.089781,11.7204666 12.1182482,11.6661004 C12.1642336,11.5800204 12.2058394,11.4984709 12.2562044,11.4169215 L12.2562044,11.4169215 L12.2649635,11.4033299 L12.3931164,11.1980091 C12.5959246,10.8512981 12.7452555,10.4809907 12.8474453,10.0713558 L12.8474453,10.0713558 L12.8715328,9.97621475 C12.9328467,9.67720014 12.9788321,9.373655 13.0072993,9.05425303 C13.0072993,6.78672556 11.2226277,4.94280213 9.03065693,4.94280213 Z M2.32554745,9.59112017 C2.58832117,9.62056858 2.78540146,9.85162533 2.78540146,10.1234568 C2.78540146,10.3952883 2.58832117,10.6240797 2.32554745,10.6557934 L2.32554745,10.6557934 L2.32116788,10.6580587 L0.459854015,10.6580587 C0.197080292,10.626345 -2.15161222e-13,10.3952883 -2.15161222e-13,10.1234568 C-2.15161222e-13,9.85162533 0.197080292,9.62283384 0.459854015,9.59112017 L0.459854015,9.59112017 Z M17.5423358,9.58205912 C17.8029197,9.61377279 18,9.84256428 18,10.116661 C18,10.3884925 17.8029197,10.617284 17.540146,10.6489976 L17.540146,10.6489976 L15.670073,10.6489976 C15.4072993,10.617284 15.210219,10.3862272 15.210219,10.1143957 C15.210219,9.84256428 15.4072993,9.61377279 15.670073,9.58205912 L15.670073,9.58205912 Z M15.440146,3.08755238 C15.5759124,3.08755238 15.7029197,3.14191868 15.7992701,3.24385548 C15.8956204,3.34126175 15.950365,3.47491222 15.950365,3.61762374 C15.950365,3.76033526 15.8956204,3.89398573 15.7970803,3.99365727 L15.7970803,3.99365727 L14.4766423,5.3641409 C14.3824818,5.46834296 14.2554745,5.52497452 14.119708,5.52723978 L14.119708,5.52723978 C13.8372263,5.52044399 13.6094891,5.2803262 13.6138686,4.99037264 C13.6138686,4.84992638 13.6664234,4.71627591 13.7605839,4.61660437 L13.7605839,4.61660437 L15.0810219,3.24385548 C15.1751825,3.14418394 15.3043796,3.08755238 15.440146,3.08755238 Z M2.42846715,3.0807566 C2.56642336,3.0807566 2.7,3.14191868 2.79416058,3.24612074 L2.79416058,3.24612074 L4.1080292,4.61660437 L4.15944526,4.6802673 C4.22110949,4.77000793 4.25474453,4.87801563 4.25474453,4.99037264 C4.25474453,5.2803262 4.03357664,5.51817873 3.75328467,5.52723978 L3.75328467,5.52723978 C3.60875912,5.52497452 3.48175182,5.46834296 3.38540146,5.3641409 L3.38540146,5.3641409 L2.06277372,3.991392 C1.96642336,3.89172047 1.91167883,3.76033526 1.91167883,3.61762374 C1.91167883,3.47717748 1.96423358,3.34352701 2.06277372,3.24385548 C2.15693431,3.13965341 2.29051095,3.0807566 2.42846715,3.0807566 Z M8.98686131,2.25597319e-13 C9.26934307,2.25597319e-13 9.49927007,0.237852531 9.49927007,0.530071356 L9.49927007,0.530071356 L9.49927007,2.46007475 C9.49927007,2.75002832 9.28029197,2.98561559 9,2.9969419 L9,2.9969419 L8.997,2.958 L8.99781022,2.9969419 L8.98248175,2.9969419 C8.7,2.99241137 8.47226277,2.75455884 8.47445255,2.46234002 L8.47445255,2.46234002 L8.47445255,0.530071356 C8.47445255,0.237852531 8.70437956,2.25597319e-13 8.98686131,2.25597319e-13 Z" id="path-1"></path>
    </defs>
    <g id="Yanbal-UI-Visual-Kit" stroke="none" stroke-width="1" fill="none" fill-rule="evenodd">
        <g id="yanbal-styleguide-pag2" transform="translate(-1179.000000, -4540.000000)">
            <g id="Group" transform="translate(1176.000000, 4538.000000)">
                <g id="Group" transform="translate(3.000000, 2.000000)">
                    <mask id="mask-2" fill="white">
                        <use xlink:href="#path-1"></use>
                    </mask>
                    <use id="Mask" fill="#000000" fill-rule="nonzero" xlink:href="#path-1"></use>
                    <g mask="url(#mask-2)" id="colors/brand-secondary">
                        <g transform="translate(-3.000000, -2.000000)">
                            <rect id="box" fill="#1C1F28" fill-rule="nonzero" x="0" y="0" width="24" height="24"></rect>
                        </g>
                    </g>
                </g>
            </g>
        </g>
    </g>
</svg>