<?xml version="1.0" encoding="UTF-8"?>
<svg width="20px" height="18px" viewBox="0 0 20 18" version="1.1" xmlns="http://www.w3.org/2000/svg" xmlns:xlink="http://www.w3.org/1999/xlink">
    <title>3. icons/outline/icon-diamond</title>
    <defs>
        <path d="M16.9661401,0.175091246 L16.9661401,0.137194335 C16.9193947,0.0851858712 16.8628557,0.0401510033 16.80131,0.00943900778 L16.7988189,0.00704403566 L16.7520735,0.00704403566 C16.7225462,0.00227757153 16.6856433,0 16.6511337,0 C16.6166242,0 16.57977,0.00239497212 16.5453582,0.00704403566 L3.79436417,0.00704403566 C3.60491584,0.00704403566 3.43759464,0.0874634428 3.32192785,0.21524225 L3.32192785,0.21524225 L3.28250931,0.267250713 L0.147685199,4.37399394 C0.0590301183,4.48047628 0.00249113449,4.61527564 0,4.76190899 L0,4.76190899 C0,4.76430396 0,4.76895302 0,4.77374297 C0,4.91333227 0.0540966951,5.0410876 0.14270293,5.1404085 L0.14270293,5.1404085 L9.59392065,17.8037297 C9.62344793,17.8510656 9.65546633,17.8912166 9.69486045,17.9266951 L9.69486045,17.9266951 L9.75640612,17.966893 L9.83026093,18 L10.2952971,18 L10.2534851,17.9479915 L10.3002306,18 C10.32734,17.983423 10.3494671,17.9644981 10.3666608,17.9432251 L10.3666608,17.9432251 C10.3839034,17.9289961 10.3986059,17.9125131 10.4060793,17.8912166 L10.4060793,17.8912166 L19.8572971,5.20194989 C19.9459522,5.1002575 20,4.96771223 20,4.82107889 C20,4.67444554 19.9459033,4.54429524 19.8572971,4.44020788 L19.8572971,4.44020788 L16.9660668,0.174997326 L16.9661401,0.175091246 Z M18.4056495,5.36764909 L10.3028194,16.2850356 L7.73880699,5.36764909 L18.4056495,5.36764909 L18.4056495,5.36764909 Z M7.74376484,4.16588965 L9.13406211,1.12134004 L16.1148804,1.12134004 L18.2802136,4.16588965 L7.74376484,4.16588965 L7.74376484,4.16588965 Z M8.77717046,14.6574642 L1.85054658,5.36755517 L6.46178307,5.36755517 L8.77726815,14.6574642 L8.77717046,14.6574642 Z M1.85054658,4.16588965 L4.13152213,1.12134004 L7.83232223,1.12134004 L6.44204937,4.16588965 L1.85054658,4.16588965 L1.85054658,4.16588965 Z" id="path-1"></path>
    </defs>
    <g id="Yanbal-UI-Visual-Kit" stroke="none" stroke-width="1" fill="none" fill-rule="evenodd">
        <g id="yanbal-styleguide-pag2" transform="translate(-1322.000000, -4589.000000)">
            <g id="Group" transform="translate(1320.000000, 4586.000000)">
                <g id="colors/brand-secondary" transform="translate(2.000000, 3.000000)">
                    <mask id="mask-2" fill="white">
                        <use xlink:href="#path-1"></use>
                    </mask>
                    <use id="Mask" fill="#000000" fill-rule="nonzero" xlink:href="#path-1"></use>
                    <g id="Group" mask="url(#mask-2)">
                        <g transform="translate(-4.000000, -4.000000)" id="colors/brand-secondary">
                            <rect id="box" fill="#1C1F28" fill-rule="nonzero" x="0" y="0" width="26.4058266" height="25.7456809"></rect>
                        </g>
                    </g>
                </g>
            </g>
        </g>
    </g>
</svg>