<?xml version="1.0" encoding="UTF-8"?>
<svg width="20px" height="17px" viewBox="0 0 20 17" version="1.1" xmlns="http://www.w3.org/2000/svg" xmlns:xlink="http://www.w3.org/1999/xlink">
    <title>3. icons/outline/icon-new</title>
    <defs>
        <path d="M10.8936664,13.7355766 L9.47299878,13.1240377 L8.53592204,12.1728163 C8.48376454,12.1160256 8.41389564,12.0766835 8.33532297,12.0639897 L8.3333261,12.0637243 L8.3333261,11.513222 C8.73749783,11.2389108 9.07605487,10.9000687 9.34365775,10.5072666 L9.35173207,10.4947497 C9.6140389,10.1109926 9.80921167,9.65821537 9.90857788,9.16970072 L9.91259333,9.14603795 C9.94291544,9.14977534 9.97803438,9.15192047 10.0136308,9.15192047 C10.0699991,9.15192047 10.1251302,9.1465687 10.1785683,9.13630746 L10.1730552,9.13719205 C10.6260418,9.0070468 10.9528564,8.59071467 10.9550269,8.09627328 L10.9550269,7.82505808 C10.9512719,7.45846201 10.7703594,7.13571947 10.4954853,6.9410434 L10.4919691,6.93869924 C10.5633139,6.6534633 10.6042499,6.32603243 10.6042499,5.98884897 C10.6042499,5.98774323 10.6042499,5.98663749 10.6042499,5.98553176 L10.6042499,5.98570867 C10.6042499,5.95032509 10.6042499,5.92053653 10.6025135,5.89077009 C10.5950469,5.12922684 10.3888696,4.41830424 10.0344027,3.80729604 L10.0448429,3.8267349 C9.69041934,3.21623534 9.20921601,2.71803444 8.63546189,2.35818337 L8.61751172,2.34770098 C8.60188401,1.05029543 7.5559776,0 6.27335475,0 C4.9907319,0 3.94482549,1.05148962 3.92919778,2.34947016 C2.71920038,3.12850616 1.99598455,4.45125521 1.99021097,5.89136719 L1.99021097,5.89313636 C1.99021097,5.89446325 1.99021097,5.8960334 1.99021097,5.89758143 C1.99021097,6.24703858 2.03370811,6.58612391 2.11547144,6.90957412 L2.10945911,6.88151051 C1.82965793,7.07872978 1.64822452,7.40328573 1.64642299,7.77112023 L1.64642299,8.03678462 C1.64852839,8.5300097 1.97373676,8.94525821 2.41741188,9.07431984 L2.42492186,9.07617748 L2.43534034,9.07794666 C2.48126845,9.08637238 2.53414221,9.09119339 2.58812294,9.09119339 C2.62493488,9.09119339 2.66124761,9.0889598 2.69690919,9.0846032 L2.69261156,9.08502338 C2.89594548,10.0819559 3.46917868,10.9149077 4.25625109,11.4447548 L4.26983851,11.4533574 L4.26983851,12.0690318 C4.1889651,12.0807969 4.11877062,12.1204044 4.06750304,12.1778585 L4.06726428,12.178146 L3.13018753,13.1293673 L1.40679806,13.8927682 C0.986673034,14.0864491 0.641930023,14.3857058 0.395533079,14.7580738 L0.390128495,14.7667428 C0.145728425,15.1363907 0,15.5917111 0,16.0817296 C0,16.0832113 0,16.084693 0,16.0861968 L0,16.0859756 C0,16.1154546 0,16.1449556 0.00173641257,16.1773758 L0.0329918389,16.8555686 L0.756489842,16.8555686 L0.724952249,16.1402231 L0.724952249,16.0924552 C0.725256121,15.7906996 0.805717138,15.5081616 0.945802223,15.2656735 L0.941721653,15.2733252 L1.83886091,16.3899649 C1.94356659,16.5201322 2.0328182,16.6691856 2.10032124,16.8299598 L2.1048142,16.8419902 L2.12217833,16.8877013 L2.8867859,16.8877013 L2.86421254,16.8193004 C2.7516713,16.4769421 2.58647335,16.1809805 2.3758248,15.9252236 L2.3791891,15.9294032 L1.40477948,14.7405147 C1.47677548,14.6900047 1.55903803,14.6435416 1.6456416,14.6053494 L1.65510505,14.6016341 L1.66378712,14.5980958 L3.162029,13.934941 L4.24440007,15.6451404 C4.34802049,15.8158662 4.51803699,15.9361704 4.71683452,15.9689665 L4.72076315,15.9694973 L4.83304393,15.9712664 C5.00492707,15.9696742 5.16176854,15.9053645 5.28286161,15.7997224 L5.28190658,15.8005406 L5.94463014,15.2482692 L5.94463014,16.8682404 L6.66263674,16.8682404 L6.66263674,15.252095 L7.32392777,15.8202891 C7.44382705,15.9253341 7.60069022,15.9896438 7.77226949,15.9907274 L7.8812945,15.9907274 C8.08547491,15.958661 8.25696736,15.8380694 8.3594374,15.669356 L8.3611087,15.6663926 L9.42090641,13.9266922 L10.5706937,14.4196962 C10.6156451,14.4402186 10.6681281,14.4521827 10.7233461,14.4521827 C10.908643,14.4521827 11.0630752,14.3175703 11.0975864,14.1391043 L11.0979771,14.1366496 C11.0979771,14.1325141 11.0994313,14.1284008 11.1002995,14.1239778 C11.1037724,14.1052024 11.1057475,14.0836184 11.1057475,14.06157 C11.1057475,13.9159002 11.019361,13.7907971 10.8959238,13.7365276 L10.8936664,13.735643 L10.8936664,13.7355766 Z M5.74811165,14.4137473 L4.85097239,15.2051676 L3.81172947,13.4905453 L4.34682671,12.9488889 L5.74811165,14.4137473 Z M4.72796927,1.96345734 C4.8211278,1.61961734 5.00950686,1.32905175 5.26217659,1.11436183 L5.26480292,1.11219459 C5.53791891,0.880984965 5.89127887,0.739472733 6.27695781,0.735956489 L6.29566765,0.735956489 C7.04351884,0.737349717 7.67288158,1.2526232 7.86184667,1.95361628 L7.86451641,1.96524863 C7.39761677,1.78485869 6.85778781,1.68041076 6.29401806,1.68041076 C5.73202813,1.68041076 5.19382705,1.78419524 4.69686578,1.97398396 L4.72827314,1.96347946 L4.72796927,1.96345734 Z M5.00405886,11.8876688 C5.38791457,12.0359482 5.83174162,12.1217755 6.29523355,12.1217755 C6.75872547,12.1217755 7.20253082,12.035926 7.61219396,11.8789998 L7.58640823,11.8876688 L7.58640823,12.6142044 L6.29566765,13.9225125 L5.00436274,12.6142044 L5.00405886,11.8876688 Z M3.40569109,8.9526003 C3.34452596,8.62019362 3.06192481,8.37202199 2.72241275,8.37202199 C2.72230422,8.37202199 2.72219569,8.37202199 2.72210887,8.37202199 L2.72213058,8.37202199 C2.72028564,8.37197776 2.71811512,8.37195565 2.7159229,8.37195565 C2.70474475,8.37195565 2.69374023,8.37261909 2.68290936,8.37392386 L2.68421167,8.37379117 L2.68594808,8.40327012 L2.68247526,8.37379117 C2.66901806,8.37547189 2.65343376,8.37644494 2.6376107,8.37644494 C2.62178764,8.37644494 2.60622504,8.37547189 2.5909012,8.37361425 L2.59274614,8.37379117 C2.45817416,8.3238782 2.36371332,8.19486079 2.36325751,8.04330847 L2.36325751,7.75723217 C2.36325751,7.75709948 2.36325751,7.75692256 2.36325751,7.75674565 C2.36325751,7.60685193 2.46444695,7.48101905 2.6010158,7.44632102 L2.60318632,7.44585661 L2.60492273,7.44585661 C2.62217833,7.44247305 2.64199514,7.44054907 2.66228946,7.44054907 C2.6624631,7.44054907 2.66265845,7.44054907 2.66283209,7.44054907 L2.66281038,7.44054907 C2.75770533,7.4407481 2.84224692,7.48584006 2.89705244,7.5560986 L2.89752995,7.55671781 C2.95965011,7.6410192 3.04521184,7.70426736 3.1443393,7.73675392 L3.14787724,7.73774908 L3.15135006,7.73951826 C3.19469526,7.75411399 3.24459542,7.76253971 3.29642733,7.76253971 C3.29822886,7.76253971 3.30003039,7.76253971 3.30183192,7.76251759 L3.30154975,7.76251759 C3.30228772,7.76251759 3.30317764,7.76251759 3.30404584,7.76251759 C3.4116166,7.76251759 3.51119986,7.72759842 3.59244226,7.66830879 L3.59094461,7.66934819 C3.86425595,7.46876748 4.09318024,7.22539475 4.27318111,6.94632882 L4.27943219,6.93602335 L4.28637784,6.92540828 L4.28811426,6.92186992 C4.31183799,6.87472129 4.32583782,6.81903637 4.32603317,6.76005635 L4.32603317,6.75999001 C4.32464404,6.55587094 4.16192047,6.39096131 3.96138653,6.39096131 C3.846805,6.39096131 3.74457371,6.44481071 3.67772183,6.52900153 L3.6771792,6.5297092 L3.67196996,6.53678592 C3.57340684,6.70437143 3.45656798,6.8480288 3.32147508,6.9713406 L3.31976038,6.97288863 C3.17724431,6.85001912 2.99837211,6.76662443 2.80174509,6.74134728 L2.79681802,6.74083864 C2.73211495,6.49885914 2.69493402,6.22103164 2.69493402,5.93435824 C2.69493402,5.93033336 2.69493402,5.92628636 2.69495572,5.92226148 L2.69495572,5.92288069 L2.69495572,5.92111151 C2.73678156,3.9740412 4.295863,2.41192219 6.21301441,2.41192219 C6.21594461,2.41192219 6.2188531,2.41192219 6.2217833,2.41192219 L6.37298142,2.41192219 C6.37569457,2.41192219 6.37888522,2.41192219 6.38209759,2.41192219 C7.33716791,2.41192219 8.20333391,2.79979264 8.8371245,3.42935511 L8.83638653,3.42862532 C9.47271662,4.05487058 9.87482636,4.92453279 9.89783383,5.88995184 L9.89792065,5.89426422 L9.89792065,5.89780258 C9.89781212,6.18686436 9.86256294,6.46750044 9.79631881,6.73557533 L9.80126758,6.71193468 C9.6956937,6.72376606 9.60392429,6.73922427 9.51382619,6.75921599 L9.53181976,6.75585455 L9.26788505,6.537958 C9.1489842,6.44003393 8.99604966,6.38063373 8.8295277,6.38021355 L8.82944088,6.38021355 C8.827444,6.38016932 8.82509984,6.38014721 8.82273398,6.38014721 C8.81112172,6.38014721 8.7996614,6.38081065 8.78839642,6.38211542 L8.78978555,6.38198273 C8.66534989,6.38905945 8.51862302,6.39259781 8.3771054,6.39259781 C8.37636742,6.39259781 8.37549922,6.39259781 8.37463101,6.39259781 C7.80836517,6.39259781 7.25605574,6.33171592 6.72364994,6.21601159 L6.7752648,6.22541036 L6.7752648,6.22364118 L6.72345459,6.21479528 C5.73617381,6.03752351 4.88428981,5.54197638 4.2529519,4.83766609 L4.24993488,4.8342383 L4.24819847,4.83246912 C4.18201945,4.74473994 4.07900677,4.68874542 3.96314464,4.68874542 C3.76510679,4.68874542 3.60457545,4.85230605 3.60457545,5.05408095 C3.60457545,5.14913011 3.64019361,5.23568721 3.69858048,5.30068243 L3.69834173,5.30041706 C4.44356659,6.13642064 5.44604098,6.72221803 6.57770446,6.9278409 L6.6085692,6.93248499 L6.63606963,6.93573586 C7.15556086,7.05124116 7.75227904,7.11738635 8.36419083,7.11738635 C8.36955201,7.11738635 8.37491318,7.11738635 8.38027435,7.11736423 L8.37944956,7.11736423 C8.52270359,7.11736423 8.66884442,7.11382588 8.80921167,7.10674916 L9.21147335,7.44260574 C9.27682757,7.50892785 9.3669908,7.54992858 9.46653065,7.54992858 C9.52387567,7.54992858 9.57809516,7.53632802 9.6262589,7.51211237 L9.62413179,7.51308542 C9.70437576,7.47936044 9.797556,7.45976678 9.89522921,7.45976678 C9.92205678,7.45976678 9.94855878,7.46124847 9.97464838,7.46412338 L9.97141431,7.46383589 C10.1133443,7.50140884 10.216726,7.63007241 10.2182671,7.78359294 L10.2182671,8.06093392 C10.2177895,8.21255259 10.1233504,8.34154788 9.991166,8.39068683 L9.98875673,8.39146085 C9.97662355,8.39305311 9.96258031,8.39395981 9.94834173,8.39395981 C9.9297187,8.39395981 9.91142125,8.39241178 9.89362302,8.38942629 L9.89555478,8.38969167 L9.89381837,8.38969167 C9.8833999,8.38969167 9.87124501,8.38792249 9.85763587,8.38792249 C9.52075013,8.38796672 9.2399071,8.63235673 9.17654975,8.95662519 L9.17581177,8.96113659 L9.17581177,8.96467495 C8.91352665,10.3673909 7.71989495,11.4135951 6.28624761,11.4147008 L6.28611738,11.4147008 C4.87065897,11.4147008 3.65718875,10.3927123 3.40019969,8.9859051 L3.41061816,8.97175167 L3.40540893,8.95257819 L3.40569109,8.9526003 Z M8.82937576,13.4864098 L7.77161834,15.2028013 L6.8455244,14.4149194 L8.29542889,12.9447314 L8.82909359,13.4863877 L8.82937576,13.4864098 Z M14.9823537,6.77562513 C12.2156624,6.77562513 9.96498958,9.06876904 9.96498958,11.8876688 C9.96498958,14.7065686 12.2156624,17 14.9823537,17 C17.749045,17 20,14.706259 20,11.8876688 C20,9.06907865 17.7493271,6.77562513 14.9823537,6.77562513 Z M14.9823537,16.2080048 C12.6448602,16.2080048 10.7423164,14.2698688 10.7423164,11.8876688 C10.7423164,9.50546885 12.6448385,7.56762038 14.9823537,7.56762038 C17.3198689,7.56762038 19.2226732,9.50575634 19.2226732,11.8876688 C19.2226732,14.2695813 17.3218875,16.2080048 14.9823537,16.2080048 Z M16.9256815,11.4562766 L15.3710063,11.4562766 L15.3710063,9.87226395 C15.3710931,9.8690352 15.3711582,9.86525358 15.3711582,9.86144984 C15.3711582,9.64273505 15.1971479,9.46544116 14.9824839,9.46544116 C14.7678199,9.46544116 14.5938097,9.64273505 14.5938097,9.86144984 C14.5938097,9.86525358 14.5938531,9.8690352 14.5939616,9.87281682 L14.5939399,9.87226395 L14.5939399,11.4562766 L13.0387003,11.4562766 C13.0355313,11.4561881 13.0318198,11.4561218 13.0280865,11.4561218 C12.8134225,11.4561218 12.6394122,11.6334156 12.6394122,11.8521304 C12.6394122,12.0708452 12.8134225,12.2481391 13.0280865,12.2481391 C13.0318198,12.2481391 13.0355313,12.2480949 13.0392429,12.2479843 L13.0387003,12.2480064 L14.5933756,12.2480064 L14.5933756,13.832019 C14.5932888,13.8352478 14.5932236,13.8390294 14.5932236,13.8428331 C14.5932236,14.0615479 14.7672339,14.2388418 14.9818979,14.2388418 C15.1965619,14.2388418 15.3705721,14.0615479 15.3705721,13.8428331 C15.3705721,13.8390294 15.3705287,13.8352478 15.3704202,13.8314662 L15.3704419,13.832019 L15.3704419,12.2480064 L16.9251172,12.2480064 C16.9282862,12.2480949 16.9319977,12.2481612 16.935731,12.2481612 C17.150395,12.2481612 17.3244053,12.0708673 17.3244053,11.8521525 C17.3244053,11.6334377 17.150395,11.4561439 16.935731,11.4561439 C16.9319977,11.4561439 16.9282862,11.4561881 16.9245746,11.4562987 L16.9251172,11.4562766 L16.9256815,11.4562766 Z" id="path-1"></path>
    </defs>
    <g id="Yanbal-UI-Visual-Kit" stroke="none" stroke-width="1" fill="none" fill-rule="evenodd">
        <g id="yanbal-styleguide-pag2" transform="translate(-1322.000000, -4686.000000)">
            <g id="Group" transform="translate(1320.000000, 4682.000000)">
                <g id="colors/brand-secondary" transform="translate(2.000000, 4.000000)">
                    <mask id="mask-2" fill="white">
                        <use xlink:href="#path-1"></use>
                    </mask>
                    <use id="Mask" fill="#000000" fill-rule="nonzero" xlink:href="#path-1"></use>
                    <g id="Group" mask="url(#mask-2)">
                        <g transform="translate(-4.000000, -5.000000)" id="colors/brand-secondary">
                            <rect id="box" fill="#1C1F28" fill-rule="nonzero" x="0" y="0" width="26.4058266" height="25.7456809"></rect>
                        </g>
                    </g>
                </g>
            </g>
        </g>
    </g>
</svg>