<?xml version="1.0" encoding="UTF-8"?>
<svg width="20px" height="14px" viewBox="0 0 20 14" version="1.1" xmlns="http://www.w3.org/2000/svg" xmlns:xlink="http://www.w3.org/1999/xlink">
    <title>3. icons/outline/icon-bycicle</title>
    <defs>
        <path d="M15.7991724,5.3788079 C15.4173035,5.3788079 15.0432628,5.428297 14.6889274,5.52340479 L13.5275295,2.42563923 L13.9172715,2.03746724 C14.078693,1.87764962 14.0747339,1.62263723 13.9133349,1.46664654 L13.074735,0.617982367 C12.9960038,0.541878739 12.8503286,0.5 12.7401049,0.5 L10.6535028,0.5 C10.4212232,0.5 10.2243502,0.713133646 10.2204361,0.937661093 C10.2164996,1.16601546 10.405477,1.39054291 10.6417156,1.39054291 L12.5275306,1.39054291 L12.9527242,1.80154599 L12.6613737,2.09078327 C12.5432769,2.20876563 12.5156984,2.33435836 12.5708103,2.47895526 C12.5708103,2.47895526 12.5708103,2.520834 12.5708103,2.520834 L12.9566382,3.45321216 L7.55900623,4.16867324 L7.55900623,3.44942872 L8.80309436,3.44942872 C9.03537393,3.44942872 9.23224696,3.23629507 9.23616102,3.01176763 C9.24009758,2.78341326 9.05112018,2.55888581 8.81488155,2.55888581 L6.31095905,2.55888581 C6.07867948,2.55888581 5.88180645,2.77201946 5.87789239,2.9965469 C5.87395583,3.22490127 6.06293323,3.44942872 6.29917186,3.44942872 L6.72045133,3.44942872 L6.72045133,4.51879341 L6.13383631,5.49302857 C5.55509442,5.20000786 4.89762131,5.03636332 4.20078259,5.03636332 C1.885815,5.03636332 0,6.85545747 0,9.09312157 C0,11.3307857 1.885815,13.1537067 4.20078259,13.1537067 C6.22835876,13.1537067 7.92517386,11.757053 8.31496084,9.90751737 L8.88974368,9.90751737 C9.07478453,10.4060614 9.58266834,10.7561815 10.1692834,10.7181297 C10.795264,10.6724675 11.2991887,10.1777505 11.3346403,9.56883448 C11.3503865,9.26437648 11.25195,8.97896613 11.0708682,8.75822212 L13.4842498,4.67480585 L13.9055293,5.81649074 C12.5393853,6.48628964 11.5984348,7.86011233 11.5984348,9.43941482 C11.5984348,11.6771224 13.4842498,13.5 15.7992174,13.5 C18.114185,13.5 20,11.6771224 20,9.43563138 C20,7.19792379 18.114185,5.37887313 15.7992174,5.37887313 L15.7991724,5.3788079 Z M4.19680104,12.2250903 C2.41333662,12.2250903 0.96058828,10.8208261 0.96058828,9.09688326 C0.96058828,7.37294039 2.41333662,5.96867625 4.19680104,5.96867625 C4.72043109,5.96867625 5.21254616,6.09044205 5.64954938,6.3035757 L3.84640215,9.29096926 C3.7322194,9.47744489 3.79916342,9.71719306 3.99207739,9.82756507 C4.05506236,9.86183345 4.12592045,9.88083761 4.19680104,9.88083761 C4.19680104,9.88083761 4.19680104,9.88083761 4.2007376,9.88083761 L7.33459978,9.88083761 C6.97239121,11.2242189 5.70468372,12.2250903 4.19682353,12.2250903 L4.19680104,12.2250903 Z M5.07476653,8.99414337 L6.43303742,6.74504197 C7.08263741,7.29303158 7.4920847,8.09603358 7.4920847,8.99414337 L5.07476653,8.99414337 Z M8.88972119,9.09309983 L8.39758363,9.09309983 C8.39758363,7.81821185 7.78734924,6.68035389 6.83461159,5.9382348 L7.13774925,5.43590736 L9.11804171,8.71632164 C9.0196052,8.82669364 8.94087398,8.95606981 8.8896762,9.09305634 L8.88972119,9.09309983 Z M10.0786975,9.90749562 C9.8464179,9.90749562 9.657418,9.72482517 9.657418,9.50027598 C9.657418,9.27572679 9.8463954,9.09305634 10.0786975,9.09305634 C10.310977,9.09305634 10.4999769,9.27572679 10.4999769,9.50027598 C10.4999769,9.72482517 10.3109995,9.90749562 10.0786975,9.90749562 L10.0786975,9.90749562 Z M10.3621748,8.22921493 C10.2716114,8.21016728 10.181093,8.19877348 10.0865706,8.19877348 C10.0078394,8.19877348 9.93302223,8.20638384 9.86216414,8.21782113 L7.92911042,5.01351048 L12.6377768,4.37797996 L10.3621748,8.22925842 L10.3621748,8.22921493 Z M15.7991724,12.5752105 C14.0078349,12.5752105 12.5550865,11.1671194 12.5550865,9.43939308 C12.5550865,8.24821909 13.2480112,7.20551241 14.2676929,6.67652696 L15.4212176,9.58020653 C15.4842026,9.73624071 15.6377509,9.83139199 15.7991724,9.83139199 C15.8464112,9.83139199 15.8976089,9.82378163 15.9448477,9.80473398 C16.1535079,9.72480343 16.2598175,9.50027598 16.1771272,9.29857962 L15.0196434,6.39490005 C15.2676693,6.33401715 15.5314413,6.3035757 15.7991724,6.3035757 C17.5865509,6.3035757 19.0432583,7.71166677 19.0432583,9.43939308 C19.0432583,11.1671194 17.59051,12.5752105 15.7991724,12.5752105 L15.7991724,12.5752105 Z" id="path-1"></path>
    </defs>
    <g id="Yanbal-UI-Visual-Kit" stroke="none" stroke-width="1" fill="none" fill-rule="evenodd">
        <g id="yanbal-styleguide-pag2" transform="translate(-938.000000, -4591.000000)">
            <g id="Group" transform="translate(936.000000, 4586.000000)">
                <g id="colors/brand-secondary" transform="translate(2.000000, 5.000000)">
                    <mask id="mask-2" fill="white">
                        <use xlink:href="#path-1"></use>
                    </mask>
                    <use id="Mask" fill="#000000" fill-rule="nonzero" xlink:href="#path-1"></use>
                    <g id="Group" mask="url(#mask-2)">
                        <g transform="translate(-4.000000, -6.000000)" id="colors/brand-secondary">
                            <rect id="box" fill="#1C1F28" fill-rule="nonzero" x="0" y="0" width="26.4058266" height="25.7456809"></rect>
                        </g>
                    </g>
                </g>
            </g>
        </g>
    </g>
</svg>