<?xml version="1.0" encoding="UTF-8"?>
<svg width="16px" height="20px" viewBox="0 0 16 20" version="1.1" xmlns="http://www.w3.org/2000/svg" xmlns:xlink="http://www.w3.org/1999/xlink">
    <title>3. icons/outline/icon-tree</title>
    <defs>
        <path d="M11.5577002,14.731367 L11.6004382,14.731367 C14.1069527,14.2197953 16,10.861709 16,6.92168092 C16,2.57575196 13.7281249,0 10.9390902,0 C8.15005543,0 5.86745384,2.5640622 5.86745384,6.90994486 C5.86745384,7.16871681 5.86745384,7.45089143 5.89948637,7.73334383 L5.89948637,7.83929241 L5.81944701,7.792163 C5.31939519,7.51809019 4.73055069,7.35751223 4.10774246,7.35691038 L4.10746958,7.35691038 C1.824826,7.43160911 0,9.49002551 0,12.0184629 C0,12.0562868 0.000335858834,12.0941801 0.00125947063,12.1319114 L0.00113352357,12.1263327 C0.000671717669,12.152953 0.00029387648,12.1845501 0.00029387648,12.2160314 C0.00029387648,14.6073629 1.61812588,16.5819603 3.7127095,16.8813339 L3.73407852,16.8838339 L3.78200138,16.8838339 L3.78200138,19.4831274 C3.78030109,19.4987986 3.77941946,19.5169698 3.77941946,19.5353262 C3.77941946,19.7918991 3.9680042,20 4.20079635,20 C4.43358851,20 4.62217324,19.792038 4.62217324,19.5353262 C4.62217324,19.5168772 4.62127062,19.4987523 4.61931844,19.4809746 L4.61959133,19.4831737 L4.61959133,16.8721441 L4.66751419,16.8721441 C6.30654728,16.5720298 7.60930172,15.2593275 8.04157303,13.5468354 L8.04866804,13.5142893 L8.04866804,13.4202156 L8.11262816,13.4849144 C8.77886713,14.2050037 9.66593329,14.6789135 10.6517839,14.7715983 L10.6671075,14.7727094 L10.7150303,14.7727094 L10.7150303,19.4773867 C10.7133301,19.4930579 10.7124484,19.5112291 10.7124484,19.5295855 C10.7124484,19.7861584 10.9010332,19.9942593 11.1338253,19.9942593 C11.3666175,19.9942593 11.5552022,19.7862973 11.5552022,19.5295855 C11.5552022,19.5111365 11.5542996,19.4930116 11.5523474,19.4752339 L11.5526203,19.477433 L11.5577002,14.731367 Z M4.69434091,15.8780746 L4.63038079,15.8780746 L4.63038079,11.1733973 C4.63208108,11.1577261 4.63296271,11.1395549 4.63296271,11.1211985 C4.63296271,10.8646256 4.44437797,10.6565247 4.21158582,10.6565247 C3.97879366,10.6565247 3.79020893,10.8644867 3.79020893,11.1211985 C3.79020893,11.1396475 3.79111155,11.1577724 3.79306373,11.1755501 L3.79279084,11.173351 L3.79279084,12.9846853 L2.59287218,11.6143675 C2.51736692,11.5301781 2.41268392,11.477933 2.2968546,11.477933 C2.18102529,11.477933 2.07630031,11.5301318 2.0009,11.6143212 L2.00085801,11.6143675 C1.92501689,11.704344 1.87839549,11.8253156 1.87839549,11.95844 C1.87839549,12.0915644 1.9249959,12.2125129 2.00110991,12.3027671 L2.00081603,12.302443 L3.7926439,14.3783825 L3.7926439,15.9192319 L3.73397356,15.9192319 C2.08866411,15.6438165 0.842375939,14.0948653 0.842375939,12.225036 C0.842375939,12.1903371 0.84275378,12.1555687 0.843740365,12.1209856 L0.843614418,12.1261013 C0.842963692,12.0994347 0.842711798,12.0679302 0.842711798,12.0364026 C0.842711798,10.020486 2.29792515,8.37959084 4.11322116,8.32130407 L4.11804913,8.32114203 C5.9381941,8.37959084 7.39342845,10.0205323 7.39342845,12.0364258 C7.39342845,12.0679997 7.39313457,12.0993421 7.39239988,12.130754 L7.39250484,12.126055 C7.39298763,12.1501289 7.39342845,12.1785779 7.39342845,12.2070037 C7.39342845,14.0045879 6.24707927,15.5068032 4.71659156,15.8735608 L4.69419397,15.8781209 L4.69434091,15.8780746 Z M11.141781,3.61662677 C10.9078133,3.62320082 10.7203831,3.83382484 10.7203831,4.09282827 C10.7203831,4.09692548 10.7204671,4.10127731 10.720572,4.10532822 L10.720551,4.10470322 L10.720551,9.15051319 L9.06736987,8.0095694 C9.0080488,7.96959273 8.93625898,7.94556507 8.85964118,7.94487063 L8.8593683,7.94487063 C8.70222834,7.94769469 8.56662534,8.04591182 8.49785824,8.18940653 L8.49680869,8.19190652 C8.46080882,8.26236916 8.43973367,8.34660488 8.43973367,8.43639613 C8.43973367,8.48109499 8.44510742,8.52465961 8.45486831,8.56604831 L8.45411263,8.56259925 C8.48356325,8.68792274 8.5545974,8.79104726 8.64947752,8.85542197 L8.65145069,8.85657937 L10.741962,10.256272 L10.741962,13.7847047 L10.6673804,13.7847047 C9.82034439,13.6796126 9.07901997,13.248897 8.5360202,12.6106361 L8.53429893,12.6085064 C8.3423556,12.3968408 8.23565745,12.255684 8.23565745,12.1615178 C8.23565745,12.1586706 8.23565745,12.1550595 8.23565745,12.1516567 C8.23565745,10.738492 7.69297255,9.46509507 6.82500836,8.57095569 L6.82244744,8.56831681 L6.82244744,8.48005333 C6.82614189,8.45711362 6.82840893,8.43058597 6.82840893,8.40350276 C6.82840893,8.37641955 6.82630982,8.35005393 6.82213257,8.32440591 L6.82242645,8.32722997 C6.76545639,7.90190786 6.73250025,7.41061384 6.73176555,6.91066245 L6.73176555,6.90978283 C6.7157283,3.09894399 8.60892256,0.952611331 10.939405,0.952611331 C13.2698875,0.952611331 15.1631028,3.08730052 15.1631028,6.89806992 C15.1631028,10.2971283 13.6751851,13.1611196 11.6221221,13.7140106 L11.558162,13.7140106 L11.558162,8.76815385 L13.1206822,6.0983051 C13.1575637,6.02918505 13.1793526,5.94592155 13.1793526,5.85705622 C13.1793526,5.81110736 13.173433,5.76661682 13.1626226,5.7243485 L13.1634412,5.72779756 C13.1376431,5.60221943 13.0678894,5.49830788 12.9732822,5.43497484 L12.971393,5.43388688 C12.9116311,5.38972042 12.8382249,5.3633548 12.7591302,5.3633548 C12.7588363,5.3633548 12.7583115,5.3633548 12.7579967,5.3633548 L12.7580806,5.3633548 C12.6009407,5.36617886 12.4653377,5.464396 12.3965706,5.6078907 L12.395521,5.61039069 L11.558183,6.83362577 L11.558183,4.1049347 C11.5583089,4.10139305 11.5583509,4.09711066 11.5583509,4.09278198 C11.5583509,3.83581557 11.3738594,3.62639525 11.1430824,3.61683511 L11.1422218,3.61681196 L11.141781,3.61662677 Z" id="path-1"></path>
    </defs>
    <g id="Yanbal-UI-Visual-Kit" stroke="none" stroke-width="1" fill="none" fill-rule="evenodd">
        <g id="yanbal-styleguide-pag2" transform="translate(-652.000000, -4684.000000)">
            <g id="Group" transform="translate(648.000000, 4682.000000)">
                <g id="colors/brand-secondary" transform="translate(4.000000, 2.000000)">
                    <mask id="mask-2" fill="white">
                        <use xlink:href="#path-1"></use>
                    </mask>
                    <use id="Mask" fill="#000000" fill-rule="nonzero" xlink:href="#path-1"></use>
                    <g id="Group" mask="url(#mask-2)">
                        <g transform="translate(-6.000000, -3.000000)" id="colors/brand-secondary">
                            <rect id="box" fill="#1C1F28" fill-rule="nonzero" x="0" y="0" width="26.4058266" height="25.7456809"></rect>
                        </g>
                    </g>
                </g>
            </g>
        </g>
    </g>
</svg>