<?xml version="1.0" encoding="UTF-8"?>
<svg width="16px" height="18px" viewBox="0 0 16 18" version="1.1" xmlns="http://www.w3.org/2000/svg" xmlns:xlink="http://www.w3.org/1999/xlink">
    <title>3. icons/outline/icon-pray</title>
    <defs>
        <path d="M11.2658855,10.4405677 L11.2658855,10.466985 L11.366912,13.1101436 C11.3955745,13.4164238 11.5392714,13.6847354 11.754079,13.8756634 L11.7551907,13.8766276 L13.4732065,15.4942316 L14.1806343,15.0184787 L12.4147128,13.3585669 C12.3434404,13.2868685 12.2926038,13.1950406 12.2717032,13.0923446 L12.271117,13.0889696 L12.1700905,10.3664988 C12.1712831,10.3522354 12.1719704,10.3356819 12.1719704,10.3189476 C12.1719704,10.3022133 12.1712831,10.2855794 12.1699895,10.2691866 L12.1701512,10.2713361 C11.6973603,9.03986705 11.2030825,7.45167371 10.7957426,5.82916798 L10.7286746,5.51362663 C10.6729261,5.17359652 10.4949675,4.88246356 10.2419364,4.68038611 L10.2393491,4.67839728 C9.95142978,4.45424178 9.58403143,4.31884045 9.1847768,4.31884045 C9.18154266,4.31884045 9.17826809,4.31884045 9.17499353,4.31884045 L9.17549886,4.31884045 C9.17125405,4.31884045 9.16630177,4.31884045 9.16132928,4.31884045 C8.76844186,4.31884045 8.40437872,4.44156549 8.10588778,4.65047327 L8.11172944,4.64661614 L8.00001011,4.70479452 L7.93621669,4.65724334 C7.64350677,4.45217259 7.27944363,4.32946765 6.88661685,4.32946765 C6.88166457,4.32946765 6.87671229,4.32948774 6.87165895,4.32952791 L6.87244727,4.32952791 C6.86971847,4.32950783 6.86648433,4.32950783 6.86316933,4.32950783 C6.46393491,4.32950783 6.09655678,4.46478862 5.80487774,4.69183697 L5.80861722,4.68900439 C5.55299884,4.89307067 5.37502006,5.1842438 5.32032266,5.51651948 L5.31929177,5.52423374 C4.84734984,7.45818262 4.35293062,9.04643623 3.77567699,10.5948127 L3.8778354,10.2819633 C3.87613748,10.2970102 3.87518745,10.3144677 3.87518745,10.3322065 C3.87518745,10.3499453 3.87613748,10.3673626 3.87805775,10.384559 L3.8778354,10.3824496 L3.7448718,13.0995968 C3.72441586,13.2076567 3.67337709,13.3014733 3.60119512,13.3745378 L3.60127597,13.3744575 L1.8141102,15.0343693 L2.52153799,15.5101222 L4.23955379,13.8977414 C4.45448263,13.7030769 4.59779548,13.4334595 4.62748893,13.1308154 L4.62785277,13.1259538 L4.73423578,10.4404673 C5.23344556,9.15692693 5.73200851,7.54655509 6.12972693,5.89721017 L6.18628396,5.61931601 C6.2120358,5.46002859 6.29523406,5.32364289 6.41376531,5.22908294 L6.41501854,5.22815883 C6.53359021,5.13576852 6.68492777,5.08002094 6.84940402,5.08002094 C6.8537499,5.08002094 6.85817663,5.08006112 6.8625225,5.08014147 L6.86185546,5.08012138 C7.22888997,5.08012138 7.53734611,5.30743089 7.53734611,5.57174474 L7.53734611,9.20349374 L7.40971884,9.17707642 C7.28684172,9.14686223 7.14577256,9.12950515 7.00068094,9.12950515 C6.9986596,9.12950515 6.99655741,9.12950515 6.99453607,9.12952524 L6.99481906,9.12952524 C6.99211047,9.12950515 6.98887633,9.12948506 6.98562197,9.12948506 C6.6189513,9.12948506 6.2853093,9.27025021 6.03652305,9.50037221 L6.03737201,9.49956864 C5.79531681,9.71631122 5.6437367,10.0288794 5.6437367,10.376684 C5.6437367,10.3768447 5.6437367,10.3769653 5.6437367,10.377126 L5.6437367,10.3771059 L5.6437367,13.1365609 L6.46815951,13.1365609 L6.46815951,10.3771059 C6.46815951,10.3767242 6.46815951,10.376222 6.46815951,10.3756996 C6.46815951,10.238209 6.52746556,10.1145197 6.62204395,10.0284977 L6.62236737,10.0282164 C6.72076609,9.94040645 6.85130408,9.88642672 6.99449564,9.88550262 L6.99471799,9.88550262 C6.99508183,9.88550262 6.99556695,9.88550262 6.99605207,9.88550262 C7.27671482,9.88550262 7.50662178,10.1015421 7.52657238,10.3754184 L7.52667345,10.377126 L7.52667345,15.3991493 C7.51513161,15.491158 7.47682726,15.57268 7.41986596,15.6375481 L7.42029044,15.6370258 L5.55859795,17.4713924 L6.22881291,18 L8.00003032,16.260796 L8.03198767,16.2977803 L9.77130837,18 L10.4415233,17.4713924 L8.5905035,15.6528963 C8.53701891,15.5888317 8.4993816,15.5098409 8.48450455,15.423176 L8.4841205,15.4202631 L8.4841205,10.3929362 C8.50419238,10.1173523 8.73401848,9.90131283 9.01472166,9.90131283 C9.01516635,9.90131283 9.01561104,9.90131283 9.01613659,9.90131283 L9.01605574,9.90131283 C9.15946965,9.90223693 9.28996722,9.95621666 9.38889149,10.0444686 L9.38836594,10.0440266 C9.48460183,10.1306313 9.54546431,10.2545014 9.54793034,10.3924942 L9.54793034,13.1365609 L10.3670775,13.1365609 L10.3670775,10.3771059 C10.3670775,10.3769653 10.3670775,10.3768246 10.3670775,10.376684 C10.3670775,10.0288794 10.2155782,9.71631122 9.9745741,9.5005731 L9.973523,9.49966909 C9.7255655,9.27037075 9.39198413,9.12960559 9.02525283,9.12960559 C9.02205911,9.12960559 9.01876433,9.12962568 9.01557062,9.12964577 L9.01603553,9.12964577 C9.01429717,9.12964577 9.01227584,9.12962568 9.01017365,9.12962568 C8.86502138,9.12962568 8.72403307,9.14694259 8.5889875,9.17968801 L8.47346805,9.20359418 L8.47346805,5.57184518 C8.47346805,5.30753134 8.78198483,5.08022183 9.1489587,5.08022183 C9.15102046,5.08020174 9.15352692,5.08018165 9.15603338,5.08018165 C9.32392569,5.08018165 9.4788208,5.1358087 9.60289051,5.2295249 L9.60103088,5.22817892 C9.71954191,5.32376342 9.80114332,5.46041029 9.82402486,5.61602137 L9.8243887,5.61931601 C10.274581,7.54607295 10.7696471,9.15682648 11.3587255,10.7220177 L11.2658047,10.4404874 L11.2658855,10.4405677 Z M7.99998989,3.12421499 C7.99998989,3.12421499 8.00001011,3.12421499 8.00003032,3.12421499 C8.24974639,3.12421499 8.45214293,2.92306164 8.45214293,2.67487944 C8.45214293,2.67299105 8.45212272,2.67120311 8.45210251,2.66931472 L8.45210251,2.66959597 L8.45210251,0.459882389 C8.45210251,0.205914489 8.24491539,0 7.98937787,0 C7.73384035,0 7.52665323,0.205914489 7.52665323,0.459882389 L7.52665323,0.459882389 L7.52665323,2.66959597 C7.52663302,2.67132365 7.52661281,2.67333257 7.52661281,2.67540176 C7.52661281,2.92358396 7.72900936,3.12473731 7.97872542,3.12473731 C7.9862448,3.12473731 7.99370353,3.12451632 8.00108142,3.1241949 L8.00005053,3.12423508 L7.99998989,3.12421499 Z M5.10644491,3.62646554 C5.23540626,3.55482738 5.32123226,3.42002873 5.32123226,3.26526139 C5.32123226,3.17907864 5.29465167,3.09908337 5.24915135,3.03296976 L5.25004074,3.034376 L4.22348415,1.5225016 C4.13446444,1.40130334 3.99208141,1.3234978 3.83138506,1.3234978 C3.74054614,1.3234978 3.65564995,1.34836825 3.58302329,1.39158016 L3.58522655,1.39035472 C3.45743758,1.4636201 3.37272331,1.59867992 3.37272331,1.75340708 C3.37272331,1.83862554 3.39845494,1.91793777 3.44256053,1.98401121 L3.4416105,1.98248443 L4.47350342,3.49435884 C4.55902622,3.61712405 4.6999741,3.69653673 4.85955872,3.69653673 C4.95096361,3.69653673 5.03634492,3.67046092 5.10838539,3.62538072 L5.10640448,3.62650571 L5.10644491,3.62646554 Z M2.86178977,9.13482879 C2.85018729,8.89588763 2.65243982,8.70648647 2.41018249,8.70648647 C2.40628131,8.70648647 2.40238013,8.70654674 2.39849916,8.70664719 L2.39908534,8.7066271 L0.484211457,8.7066271 C0.469779106,8.7049396 0.453062643,8.7040155 0.436123832,8.7040155 C0.195261226,8.7040155 0,8.89809744 0,9.13746048 C0,9.37682352 0.19528144,9.57090545 0.436123832,9.57090545 C0.453062643,9.57090545 0.469799319,9.56996126 0.486212582,9.56807287 L0.484231671,9.56829386 L2.39910556,9.56829386 C2.4023397,9.56837421 2.40618024,9.56843448 2.410041,9.56843448 C2.65419838,9.56843448 2.85309802,9.37612039 2.86191105,9.13559218 L2.86191105,9.13476852 L2.86178977,9.13482879 Z M3.36716463,6.11101972 C3.40722755,6.04773868 3.43099848,5.97069653 3.43099848,5.88819011 C3.43099848,5.73036921 3.34397989,5.59263752 3.21505897,5.52003509 L3.21297699,5.51895027 L1.55879503,4.59910514 C1.4912015,4.56123696 1.41044905,4.53897811 1.32444113,4.53897811 C1.15978296,4.53897811 1.01430728,4.62072114 0.926843997,4.74559572 L0.925813115,4.74716268 C0.886558736,4.80996157 0.863293138,4.88620016 0.863293138,4.96782265 C0.863293138,5.12729087 0.952050079,5.26610737 1.08317426,5.33818748 L1.0853573,5.3392723 L2.73428378,6.25911744 C2.80187732,6.29698561 2.88262976,6.31924447 2.96863768,6.31924447 C3.13329585,6.31924447 3.27877153,6.23750144 3.36623482,6.11262686 L3.3672657,6.1110599 L3.36716463,6.11101972 Z M11.5264966,3.49427848 L12.5583895,1.98240408 C12.6015451,1.9178976 12.627216,1.83862554 12.627216,1.75332672 C12.627216,1.59859956 12.5426029,1.46353974 12.416815,1.39135918 L12.4148139,1.39029445 C12.3443703,1.34830799 12.2594539,1.32343753 12.1686554,1.32343753 C12.007959,1.32343753 11.865576,1.40130334 11.7774861,1.52111544 L11.7765563,1.5225016 L10.7499997,3.034376 C10.7054898,3.09910346 10.678889,3.17911882 10.678889,3.26528148 C10.678889,3.42004882 10.7646342,3.55484747 10.8915135,3.6254209 L10.8935753,3.62648563 C10.9637157,3.67040066 11.0490162,3.69651664 11.1405019,3.69651664 C11.3001068,3.69651664 11.4410344,3.61710396 11.5255668,3.49594588 L11.5265572,3.4944191 L11.5264966,3.49427848 Z M13.6009147,9.56829386 L15.5157885,9.56829386 C15.5302209,9.56998135 15.5469374,9.57090545 15.5638762,9.57090545 C15.8047388,9.57090545 16,9.37682352 16,9.13746048 C16,8.89809744 15.8047186,8.7040155 15.5638762,8.7040155 C15.5469374,8.7040155 15.5302007,8.70495969 15.5137874,8.70684808 L15.5157683,8.7066271 L13.6008944,8.7066271 C13.5864621,8.7049396 13.5697456,8.7040155 13.5528068,8.7040155 C13.3119442,8.7040155 13.116683,8.89809744 13.116683,9.13746048 C13.116683,9.37682352 13.3119644,9.57090545 13.5528068,9.57090545 C13.5697456,9.57090545 13.5864823,9.56996126 13.6028956,9.56807287 L13.6009147,9.56829386 L13.6009147,9.56829386 Z M13.2658173,6.25901699 L14.9147438,5.33917186 C15.0480308,5.26600692 15.1368484,5.12719042 15.1368484,4.96770212 C15.1368484,4.88609971 15.1135828,4.8099214 15.0732773,4.74523411 L15.0743082,4.74706223 C14.9857938,4.62064078 14.8403181,4.53889775 14.6756801,4.53889775 C14.5896722,4.53889775 14.5089198,4.56117669 14.4388602,4.6002904 L14.441306,4.59902478 L12.7871241,5.51886991 C12.6515732,5.59141208 12.5610172,5.73141385 12.5610172,5.89244902 C12.5610172,5.9731675 12.5837977,6.04858243 12.6232744,6.11276748 L12.6222233,6.11087909 C12.7103739,6.23979161 12.8573049,6.32334267 13.0237823,6.32334267 C13.1129233,6.32334267 13.1963843,6.2994365 13.268061,6.25767101 L13.2657769,6.25891654 L13.2658173,6.25901699 Z" id="path-1"></path>
    </defs>
    <g id="Yanbal-UI-Visual-Kit" stroke="none" stroke-width="1" fill="none" fill-rule="evenodd">
        <g id="yanbal-styleguide-pag2" transform="translate(-1228.000000, -4637.000000)">
            <g id="Group" transform="translate(1224.000000, 4634.000000)">
                <g id="colors/brand-secondary" transform="translate(4.000000, 3.000000)">
                    <mask id="mask-2" fill="white">
                        <use xlink:href="#path-1"></use>
                    </mask>
                    <use id="Mask" fill="#000000" fill-rule="nonzero" xlink:href="#path-1"></use>
                    <g id="Group" mask="url(#mask-2)">
                        <g transform="translate(-6.000000, -4.000000)" id="colors/brand-secondary">
                            <rect id="box" fill="#1C1F28" fill-rule="nonzero" x="0" y="0" width="26.4058266" height="25.7456809"></rect>
                        </g>
                    </g>
                </g>
            </g>
        </g>
    </g>
</svg>