<?xml version="1.0" encoding="UTF-8"?>
<svg width="20px" height="20px" viewBox="0 0 20 20" version="1.1" xmlns="http://www.w3.org/2000/svg" xmlns:xlink="http://www.w3.org/1999/xlink">
    <title>3. icons/seal/icon-skintested</title>
    <defs>
        <path d="M10,0 C4.47716428,0 0,4.47716428 0,10 C0,15.5228357 4.47716428,20 10,20 C15.522857,20 20,15.5228357 20,10 C20,9.99853016 20,9.99706033 20,9.99561179 L20,9.99584611 C19.9929064,4.47669564 15.5194913,0.00472903885 10.0004686,0 L10,0 Z M10,19.1773816 C4.92917093,19.1773816 0.818443252,15.0666752 0.818443252,9.99582481 C0.818443252,4.92497444 4.92914963,0.814268064 10,0.814268064 C15.0708291,0.814268064 19.1815567,4.92497444 19.1815567,9.99582481 L19.1815567,9.99582481 C19.1768277,15.0647367 15.0689545,19.1726525 10.0004473,19.1773816 L10,19.1773816 Z M14.6904823,10.4362219 C14.6904823,10.4362219 14.690461,10.4362219 14.690461,10.4362219 C14.4808282,10.4362219 14.3106041,10.6049974 14.3082609,10.8140763 L14.3082609,13.9011162 C14.3082609,14.1305598 14.1222733,14.31659 13.8927872,14.31659 C13.663301,14.31659 13.4773134,14.1306024 13.4773134,13.9011162 L13.4773134,13.9011162 L13.4773134,11.931855 C13.4773986,11.9268703 13.4774625,11.9209484 13.4774625,11.9150477 C13.4774625,11.3001236 12.9789536,10.8016147 12.3640295,10.8016147 C12.3567016,10.8016147 12.3493311,10.8016999 12.3420458,10.801849 L12.3431535,10.8018277 C12.3410233,10.8018064 12.3384458,10.8018064 12.3358896,10.8018064 C11.9609322,10.8018064 11.6280249,10.9817655 11.4187756,11.2600119 L11.4166667,11.2629729 C11.3751278,11.3086656 11.3377215,11.3543797 11.2878962,11.4000724 L7.75653971,14.9563522 C7.68051295,15.0375767 7.57263974,15.0881902 7.45298654,15.0881902 C7.22354294,15.0881902 7.03751278,14.9022026 7.03751278,14.6727164 C7.03751278,14.6672844 7.03761929,14.6618311 7.03781101,14.656463 L7.03778971,14.6572299 C7.03827965,14.541688 7.08586827,14.4373296 7.16234237,14.3623253 L10.2035191,11.3211486 C10.2699813,11.2504047 10.3120314,11.1559731 10.315674,11.0518277 L10.3156953,11.0511247 C10.3156953,11.0507626 10.3156953,11.0503153 10.3156953,11.0498466 C10.3156953,10.9447214 10.2728144,10.8496293 10.2035404,10.7811009 L10.2034978,10.7810583 C10.131348,10.7190482 10.0368311,10.6813224 9.93345262,10.6813224 C9.83007413,10.6813224 9.73553596,10.7190482 9.66285361,10.7815056 L9.66340746,10.781037 L6.23589809,14.2085464 C6.16019087,14.2870654 6.05412832,14.3358257 5.93660532,14.3358257 C5.70716172,14.3358257 5.52113156,14.1498381 5.52113156,13.9203519 C5.52113156,13.9164963 5.52119547,13.9126406 5.52130198,13.9088488 L5.52128067,13.909424 C5.52128067,13.908721 5.52128067,13.9078476 5.52128067,13.9070169 C5.52128067,13.7928809 5.56731425,13.6895024 5.64180726,13.6144129 L8.82832737,10.4278928 C8.93153545,10.3592578 8.99865798,10.2434816 8.99865798,10.1120271 C8.99865798,9.90320382 8.82939247,9.73398091 8.62061179,9.73398091 C8.49439758,9.73398091 8.38264741,9.79582055 8.31394853,9.89084867 L8.31320297,9.89197768 L5.47147665,12.7295501 C5.37838701,12.716705 5.29684305,12.6746975 5.23461997,12.6131774 L5.23466258,12.61322 C5.15752812,12.5377258 5.10968388,12.4325153 5.10968388,12.3161852 C5.10968388,12.1998551 5.15752812,12.0946447 5.23459867,12.0192357 L5.23468388,12.0191505 L7.66509032,9.55551295 C7.7338744,9.4870271 7.77643575,9.3922546 7.77643575,9.28755539 C7.77643575,9.18285617 7.7338744,9.08808367 7.66509032,9.01961912 L7.66506902,9.01959782 C7.59613582,8.95181493 7.50151244,8.90993524 7.39711145,8.90993524 C7.29271046,8.90993524 7.19808708,8.95181493 7.12911128,9.01966172 L7.12917519,9.01959782 L5.23472648,10.9098926 C5.02722393,10.8846711 4.86799165,10.7095688 4.86799165,10.4972946 C4.86799165,10.3826261 4.91447256,10.278779 4.98960464,10.2036256 L8.84502812,6.34820211 C9.15307601,6.01599778 9.51416581,5.73839042 9.91587849,5.52767127 L9.93767042,5.5172546 C10.0431578,5.4612304 10.1654525,5.41670927 10.2942868,5.38999659 L10.3032762,5.38842025 C10.5059219,5.37787577 10.6662193,5.21099608 10.6662193,5.00666752 C10.6662193,4.99478102 10.6656655,4.98302232 10.6646004,4.97145535 L10.6647282,4.97294649 C10.6497316,4.77191973 10.4829371,4.61449813 10.2793541,4.61449813 C10.2687883,4.61449813 10.2582652,4.61492416 10.2478911,4.61575494 L10.2492544,4.61564843 C10.0241564,4.64035873 9.81889059,4.7036256 9.63269001,4.79893064 L9.64270194,4.79428681 C9.1261077,5.06437457 8.686371,5.40599438 8.31669649,5.8124787 L8.31324557,5.81631305 L4.45782209,9.67173654 C4.24631476,9.88490542 4.11562713,10.1785106 4.11562713,10.5026201 C4.11562713,10.8267297 4.24631476,11.1203562 4.45790729,11.333589 L4.45782209,11.3335037 C4.52036469,11.3967493 4.58976653,11.4529652 4.6648986,11.5009799 L4.66971285,11.5038557 C4.46534168,11.7163216 4.3394683,12.0055811 4.3394683,12.3242374 C4.3394683,12.653289 4.47371336,12.9510055 4.69037577,13.1655803 L4.69048228,13.1656868 C4.76111963,13.2340235 4.84014997,13.2944998 4.92557089,13.3452624 L4.93142894,13.348479 C4.83431322,13.5158274 4.7769683,13.7166837 4.7769683,13.9309603 C4.7769683,14.5803085 5.30336145,15.1067016 5.95270961,15.1067016 C6.09760566,15.1067016 6.23636673,15.0805002 6.36451943,15.0325494 L6.35638207,15.0351909 C6.51608299,15.5076261 6.95535106,15.8416837 7.47264826,15.8416837 C7.80191292,15.8416837 8.09956544,15.7063522 8.31296864,15.4882626 L8.31318166,15.4880283 L11.8445382,11.9524966 C11.8944061,11.9068039 11.9400775,11.8569572 11.9940994,11.7987815 C12.1686051,11.6118354 12.1976823,11.5786043 12.3638378,11.5786043 C12.5588787,11.5786043 12.7169819,11.7367289 12.7169819,11.9317485 L12.7169819,11.9317485 L12.7169819,13.9010097 C12.7169819,14.5526585 13.2452284,15.0809049 13.8968771,15.0809049 C14.5485259,15.0809049 15.0767723,14.5526585 15.0767723,13.9010097 L15.0767723,13.9010097 L15.0767723,10.8183154 C15.0767723,10.8183154 15.0767723,10.8182941 15.0767723,10.8182941 C15.0767723,10.6071915 14.9056535,10.4360515 14.6945297,10.4360515 C14.6930598,10.4360515 14.69159,10.4360515 14.6901414,10.4360728 L14.6903758,10.4360728 L14.6904823,10.4362219 Z M14.8982192,6.8965363 C14.7106979,6.43730828 14.5267979,6.06024199 14.3221711,5.69640423 L14.3498211,5.74987219 C14.0880624,5.2596498 13.8180172,4.82338531 13.4607618,4.25423909 C13.4156229,4.18801125 13.3619845,4.13171012 13.3005283,4.08520791 L13.2987602,4.08392979 C13.2132328,4.01446404 13.103059,3.97239264 12.9830223,3.97239264 C12.8629857,3.97239264 12.7527906,4.01444274 12.6663684,4.08465406 L12.6673057,4.08395109 C12.6030377,4.13200835 12.549165,4.18986452 12.5068166,4.25583674 L12.5052403,4.25841428 C12.4754814,4.2995697 12.4452113,4.34709441 12.4176892,4.39634458 L12.4138335,4.40384288 L12.3764485,4.46615116 C12.1146898,4.88162491 11.8779184,5.26380368 11.6618524,5.65020024 C11.4360515,6.04441462 11.2165346,6.50988412 11.032869,6.99301295 L11.0096072,7.06273432 C10.9192868,7.28825835 10.8668626,7.54965491 10.8668626,7.8233001 C10.8668626,7.87730061 10.8689076,7.93081118 10.8729124,7.98376789 L10.8724864,7.97671694 C10.9074003,8.40699557 11.0725971,8.7931152 11.3280291,9.10182345 L11.3253238,9.09843643 C11.701325,9.57419479 12.270812,9.88273262 12.913024,9.90433282 L12.9165389,9.90443933 L12.9497699,9.90443933 C12.960144,9.90463105 12.9723713,9.90471626 12.9846413,9.90471626 C13.1595305,9.90471626 13.3294138,9.88339298 13.4918839,9.84323875 L13.4774199,9.84628494 C14.1740798,9.67682771 14.7243737,9.17320637 14.9560966,8.51891616 L14.96057,8.50438821 C15.0389187,8.30446915 15.0843132,8.07298057 15.0843132,7.83092621 C15.0843132,7.73432175 15.0770706,7.63944274 15.0631391,7.54671524 L15.0644172,7.55717451 C15.0321447,7.31083845 14.9738838,7.08787065 14.891509,6.87700239 L14.8982618,6.8965789 L14.8982192,6.8965363 Z M14.2376449,8.30909168 C14.0949003,8.64097648 13.8330138,8.89883691 13.5070936,9.03286895 L13.4981041,9.03614945 C13.3488412,9.09662577 13.1757626,9.13171012 12.9944402,9.13171012 C12.9933112,9.13171012 12.9922035,9.13171012 12.9910745,9.13171012 L12.9912662,9.13171012 C12.6075963,9.12651244 12.2616948,8.96868609 12.0108853,8.71632157 L12.0108001,8.71623637 C11.8185924,8.53222989 11.6835165,8.2899199 11.6339255,8.01785106 L11.6327539,8.00999063 C11.6310498,7.99382243 11.6300486,7.97501278 11.6300486,7.95596881 C11.6300486,7.93692485 11.6310285,7.91817911 11.6329669,7.89964639 L11.6327539,7.9019683 L11.6327539,7.74409935 C11.6363327,7.57988241 11.6711188,7.42476142 11.7314034,7.28308197 L11.7283359,7.29124063 C11.912385,6.79111282 12.1138804,6.36654312 12.348053,5.96327539 L12.3266019,6.00334441 C12.5467791,5.61696915 12.7877471,5.22641871 12.995484,4.89406527 C13.2156612,5.24720944 13.4649369,5.65848671 13.6892894,6.07396046 C13.8618993,6.37811009 14.0416241,6.74838105 14.1995782,7.12996336 L14.2251832,7.19983384 C14.2890891,7.35478442 14.3359322,7.53467962 14.3572555,7.72226483 L14.3581075,7.73161639 C14.3594922,7.75240712 14.360259,7.77664877 14.360259,7.80108214 C14.360259,7.98653715 14.3149071,8.16142638 14.2346839,8.31524796 L14.2376236,8.30909168 L14.2376449,8.30909168 Z" id="path-1"></path>
    </defs>
    <g id="Yanbal-UI-Visual-Kit" stroke="none" stroke-width="1" fill="none" fill-rule="evenodd">
        <g id="yanbal-styleguide-pag2" transform="translate(-1034.000000, -4684.000000)">
            <g id="Group" transform="translate(1032.000000, 4682.000000)">
                <g id="colors/brand-secondary" transform="translate(2.000000, 2.000000)">
                    <mask id="mask-2" fill="white">
                        <use xlink:href="#path-1"></use>
                    </mask>
                    <use id="Mask" fill="#000000" fill-rule="nonzero" xlink:href="#path-1"></use>
                    <g id="Group" mask="url(#mask-2)">
                        <g transform="translate(-4.000000, -3.000000)" id="colors/brand-secondary">
                            <rect id="box" fill="#1C1F28" fill-rule="nonzero" x="0" y="0" width="26.4058266" height="25.7456809"></rect>
                        </g>
                    </g>
                </g>
            </g>
        </g>
    </g>
</svg>