<?xml version="1.0" encoding="UTF-8"?>
<svg width="20px" height="20px" viewBox="0 0 20 20" version="1.1" xmlns="http://www.w3.org/2000/svg" xmlns:xlink="http://www.w3.org/1999/xlink">
    <title>3. icons/outline/icon-profile</title>
    <defs>
        <path d="M10,0 C15.5228365,0 20,4.47716346 20,10 L20,10 L19.9961582,10.2799043 C19.8479314,15.6733186 15.4292291,20 10,20 C4.47716346,20 0,15.5228365 0,10 C0,4.47716346 4.47716346,0 10,0 Z M9.996875,14.5972115 C8.03353365,14.5972115 6.40324519,16.0228365 6.08125,17.91875 L6.08125,17.91875 L6.03134615,17.8957452 C7.22305288,18.5013942 8.57158654,18.8430288 10,18.84375 L10,18.84375 C11.4264183,18.8397596 12.7722115,18.4984615 13.9125,17.91875 L13.9125,17.91875 L13.9091587,17.8953365 C13.5905048,16.0228125 11.9602163,14.5972115 9.996875,14.5972115 Z M10.0029808,1.15213942 C5.11872596,1.15213942 1.15923077,5.11165865 1.15923077,9.99588942 C1.15923077,12.994351 2.65146635,15.6443029 4.96235577,17.2625721 L4.96235577,17.2625721 L4.97026442,17.224399 C5.16348558,16.4421875 5.52276442,15.7253365 5.99985577,15.124976 L5.99985577,15.124976 L6.00677885,15.11625 C6.89846154,14.0246394 8.25512019,13.3276442 9.77461538,13.3276442 C9.84074519,13.3276442 9.90644231,13.3289904 9.96240385,13.33125 L9.956,13.331 L10.0627644,13.3278876 L10.0627644,13.3278876 L10.1741587,13.3267067 C11.7196635,13.3267067 13.1012981,14.0278365 14.025,15.137476 L14.02,15.131 L14.1904041,15.3583604 C14.5262816,15.8325523 14.7885472,16.3656275 14.9635712,16.9561866 L15.04375,17.25625 L15.0436058,17.2625721 L15.0720673,17.2436779 C17.3544712,15.644351 18.8467308,12.994351 18.8467308,9.99588942 C18.8467308,5.11163462 14.8872356,1.15213942 10.0029808,1.15213942 Z M10.0006731,4.29375 C12.1509856,4.30088942 13.8928846,6.04274038 13.9,8.19375 L13.9,8.19375 C13.9,10.3573317 12.1510817,12.10625 9.99375,12.10625 C7.83641827,12.10625 6.0875,10.3573317 6.0875,8.2 C6.0875,6.04266827 7.83641827,4.29375 9.99375,4.29375 L9.99375,4.29375 Z M9.99375,5.5625 C8.54052885,5.5625 7.3625,6.74052885 7.3625,8.19375 C7.3625,9.64697115 8.54052885,10.8250481 9.99375,10.8250481 L9.99375,10.8250481 C11.4483654,10.8215385 12.6215144,9.64841346 12.625,8.20004808 L12.625,8.20004808 C12.625,6.74052885 11.4469712,5.5625 9.99375,5.5625 Z" id="path-1"></path>
    </defs>
    <g id="Yanbal-UI-Visual-Kit" stroke="none" stroke-width="1" fill="none" fill-rule="evenodd">
        <g id="yanbal-styleguide-pag2" transform="translate(-314.000000, -4540.000000)">
            <g id="Group" transform="translate(312.000000, 4538.000000)">
                <g id="elements" transform="translate(2.000000, 2.000000)">
                    <mask id="mask-2" fill="white">
                        <use xlink:href="#path-1"></use>
                    </mask>
                    <use id="icon" fill="#444444" fill-rule="nonzero" xlink:href="#path-1"></use>
                    <g id="Group" mask="url(#mask-2)">
                        <g transform="translate(-2.000000, -2.000000)" id="color">
                            <rect id="box" fill="#1C1F28" fill-rule="nonzero" x="0" y="0" width="24" height="24"></rect>
                        </g>
                    </g>
                </g>
            </g>
        </g>
    </g>
</svg>