<?xml version="1.0" encoding="UTF-8"?>
<svg width="16px" height="20px" viewBox="0 0 16 20" version="1.1" xmlns="http://www.w3.org/2000/svg" xmlns:xlink="http://www.w3.org/1999/xlink">
    <title>3. icons/outline/icon-bag </title>
    <defs>
        <path d="M15.2908433,6.90590297 C15.2864119,5.95841471 14.5062175,5.18813826 13.5443364,5.18813826 L11.7933981,5.18813826 L11.7933981,4.48136698 C11.7933981,3.22099577 11.4609315,2.13120682 10.8314719,1.33039431 C10.1466199,0.459447092 9.15362876,0 7.95683925,0 C6.76004974,0 5.76703595,0.459536379 5.08220665,1.33039431 C4.4527244,2.13131843 4.12028035,3.22099577 4.12028035,4.48136698 L4.12028035,5.18813826 L2.46904816,5.18813826 C2.46240109,5.18813826 2.45353832,5.18813826 2.44689125,5.18813826 C1.48939634,5.18813826 0.711440199,5.95403967 0.709269726,6.89929575 L0,18.2866996 L0,18.2998248 C0.00443138142,18.7549861 0.186185847,19.181665 0.514221117,19.503298 C0.842256387,19.8249311 1.27669003,20 1.73762152,20 L14.2623785,20 C15.2220665,20 16,19.2297235 16,18.2844675 L16,18.2779049 L15.2907303,6.90576904 L15.2908433,6.90590297 Z M5.3614515,5.18813826 L5.3614515,4.48136698 C5.3614515,3.53166888 5.57865702,2.73081173 5.98867285,2.16622953 C6.43640063,1.5513566 7.09021026,1.24061652 7.93465973,1.24061652 C8.7791092,1.24061652 9.43291883,1.5513566 9.88064662,2.16622953 C10.2906398,2.73081173 10.507868,3.53164656 10.507868,4.48136698 L10.507868,5.18813826 L5.3614515,5.18813826 L5.3614515,5.18813826 Z M4.10703143,8.11377359 C4.14912955,8.42451367 4.41734117,8.65648054 4.73425277,8.65648054 C5.0489939,8.65648054 5.3193986,8.42451367 5.36147411,8.11600576 L5.3636898,8.09850556 L5.3636898,6.393866 L10.5189464,6.393866 L10.5189464,8.10064844 L10.5211621,8.11377359 C10.5632602,8.42451367 10.8314719,8.65648054 11.1483835,8.65648054 C11.4631246,8.65648054 11.7335293,8.42451367 11.7756048,8.11600576 L11.7778205,8.09850556 L11.7778205,6.393866 L13.5354511,6.393866 C13.816889,6.393866 14.0452408,6.61922566 14.0452408,6.89717519 L14.0452408,6.90373776 L14.7545105,18.2736414 C14.7456478,18.5274836 14.5461678,18.7353207 14.2934886,18.7572183 L14.2779787,18.7528432 L1.73549627,18.7528432 C1.4562288,18.7528432 1.22796744,18.5296264 1.22570653,18.2561413 L1.93497626,6.87088026 C1.95270179,6.60614516 2.17436129,6.39819641 2.444766,6.39819641 L4.10260005,6.39819641 L4.10260005,8.10497885 L4.10703143,8.11372895 L4.10703143,8.11377359 Z" id="path-1"></path>
    </defs>
    <g id="Yanbal-UI-Visual-Kit" stroke="none" stroke-width="1" fill="none" fill-rule="evenodd">
        <g id="yanbal-styleguide-pag2" transform="translate(-556.000000, -4491.000000)">
            <g id="Group" transform="translate(552.000000, 4490.000000)">
                <g id="elements" transform="translate(4.000000, 1.000000)">
                    <mask id="mask-2" fill="white">
                        <use xlink:href="#path-1"></use>
                    </mask>
                    <use id="icon" fill="#000000" fill-rule="nonzero" xlink:href="#path-1"></use>
                    <g id="Group" mask="url(#mask-2)">
                        <g transform="translate(-4.000000, -1.000000)" id="color">
                            <rect id="box" fill="#1C1F28" fill-rule="nonzero" x="0" y="0" width="24" height="24"></rect>
                        </g>
                    </g>
                </g>
            </g>
        </g>
    </g>
</svg>