<?xml version="1.0" encoding="UTF-8"?>
<svg width="20px" height="14px" viewBox="0 0 20 14" version="1.1" xmlns="http://www.w3.org/2000/svg" xmlns:xlink="http://www.w3.org/1999/xlink">
    <title>3. icons/outline/icon-card </title>
    <defs>
        <path d="M17.0558036,8.3015625 L12.9352679,8.3015625 C12.515625,8.3015625 12.2366071,8.575 12.2366071,8.98625 C12.2366071,9.3975 12.515625,9.6709375 12.9352679,9.6709375 L17.0580357,9.6709375 C17.4776786,9.6709375 17.7566964,9.3975 17.7566964,8.98625 C17.7544643,8.575 17.40625,8.3015625 17.0558036,8.3015625 Z M18.1428571,0 L1.85714286,0 C0.785714286,0 0,0.84 0,1.89 L0,12.25 C0,13.16 0.857142857,14 1.85714286,14 L18.1428571,14 C19.1428571,14 20,13.16 20,12.18 L20,1.89 C20,0.84 19.1428571,0 18.1428571,0 Z M18.8727679,12.06625 C18.8727679,12.5453125 18.453125,12.9565625 17.9642857,12.9565625 L17.9642857,12.9565625 L2.03571429,12.9565625 C1.546875,12.9565625 1.12723214,12.5453125 1.12723214,12.06625 L1.12723214,6.8621875 L18.875,6.8621875 L18.8727679,12.06625 Z M18.8727679,3.50875 L1.12723214,3.50875 L1.12723214,2.0015625 C1.12723214,1.5225 1.546875,1.11125 2.03571429,1.11125 L17.9665179,1.11125 C18.4553571,1.11125 18.875,1.5225 18.875,2.0015625 L18.875,3.50875 L18.8727679,3.50875 Z" id="path-1"></path>
    </defs>
    <g id="Yanbal-UI-Visual-Kit" stroke="none" stroke-width="1" fill="none" fill-rule="evenodd">
        <g id="yanbal-styleguide-pag2" transform="translate(-698.000000, -4495.000000)">
            <g id="Group" transform="translate(696.000000, 4490.000000)">
                <g id="elements" transform="translate(2.000000, 5.000000)">
                    <mask id="mask-2" fill="white">
                        <use xlink:href="#path-1"></use>
                    </mask>
                    <use id="icon" fill="#000000" fill-rule="nonzero" xlink:href="#path-1"></use>
                    <g id="Group" mask="url(#mask-2)">
                        <g transform="translate(-2.000000, -5.000000)" id="color">
                            <rect id="box" fill="#1C1F28" fill-rule="nonzero" x="0" y="0" width="24" height="24"></rect>
                        </g>
                    </g>
                </g>
            </g>
        </g>
    </g>
</svg>