<?xml version="1.0" encoding="UTF-8"?>
<svg width="8px" height="20px" viewBox="0 0 8 20" version="1.1" xmlns="http://www.w3.org/2000/svg" xmlns:xlink="http://www.w3.org/1999/xlink">
    <title>3. icons/outline/icon-cream </title>
    <defs>
        <path d="M0.985455359,18.0964286 L0.980364453,9.11142857 C0.980364453,8.63428571 1.34254601,8.24642857 1.78836387,8.24571429 L6.2043607,8.24357143 C6.47272414,8.24357143 6.72363305,8.38571429 6.87490567,8.62357143 C6.96581469,8.76642857 7.01381466,8.93357143 7.01381466,9.10785714 L7.01890556,18.0921429 C7.01890556,18.2028571 6.99926921,18.3128571 6.95854197,18.4185714 L6.95636015,18.4264286 C6.91563291,18.53 6.85672386,18.6235714 6.78108755,18.705 C6.70545124,18.785 6.61817858,18.8478571 6.51272411,18.8942857 C6.41381509,18.9364286 6.31126971,18.9585714 6.21017887,18.9585714 L1.79490932,18.9607143 C1.34836419,18.9607143 0.985455359,18.5728571 0.985455359,18.0964286 L0.985455359,18.0964286 Z M4.93381615,4.245 L3.05745387,4.24642857 L3.05599932,1.04142857 L5.93817907,1.04071429 L5.93817907,2.09857143 L5.4218158,2.09928571 C5.15199782,2.10071429 4.93308888,2.33357143 4.93308888,2.61928571 L4.93381615,4.245 Z M2.25163627,5.28642857 L5.64363383,5.285 L5.64508837,7.20285714 L2.25309081,7.205 L2.25163627,5.28642857 Z M7.99563213,9.10785714 C7.99490486,8.22928571 7.42254164,7.46071429 6.62690585,7.25642857 L6.6254513,5.12357143 C6.6254513,4.89 6.53963318,4.66928571 6.38326966,4.50285714 C6.25599702,4.36714286 6.09090623,4.28 5.91345181,4.25357143 L5.91345181,3.13928571 L6.09090623,3.13928571 C6.3141788,3.13928571 6.52217865,3.04714286 6.67636036,2.88 C6.83272388,2.71357143 6.918542,2.49285714 6.918542,2.25857143 L6.918542,0.878571429 C6.91781473,0.642857143 6.83199661,0.422857143 6.67636036,0.258571429 C6.51999683,0.0921428571 6.31272425,0 6.09090623,0 L2.89018126,0.00142857143 C2.43999977,0.00214285714 2.07490912,0.390714286 2.07490912,0.867857143 L2.07563639,4.24714286 C1.86181836,4.25357143 1.66254578,4.34428571 1.51272771,4.505 C1.35636418,4.67142857 1.27054606,4.89142857 1.27054606,5.12642857 L1.27127333,7.28857143 C0.519273876,7.52928571 -0.000725749987,8.27071429 7.60311448e-07,9.11214286 L0.00363788324,18.0964286 C0.00436515544,19.1464286 0.808000941,20 1.79490932,20 L6.21017887,19.9971429 C6.68945126,19.9971429 7.13890548,19.7992857 7.47635978,19.4385714 C7.81454136,19.0771429 8.00072304,18.5992857 8.00000076,18.0921429 L7.99563213,9.10785714 Z" id="path-1"></path>
    </defs>
    <g id="Yanbal-UI-Visual-Kit" stroke="none" stroke-width="1" fill="none" fill-rule="evenodd">
        <g id="yanbal-styleguide-pag2" transform="translate(-896.000000, -4492.000000)">
            <g id="Group" transform="translate(888.000000, 4490.000000)">
                <g id="Group-2" transform="translate(8.000000, 2.000000)">
                    <mask id="mask-2" fill="white">
                        <use xlink:href="#path-1"></use>
                    </mask>
                    <use id="Mask" fill="#1E1210" xlink:href="#path-1"></use>
                    <g id="Group" mask="url(#mask-2)">
                        <g transform="translate(-8.000000, -2.000000)" id="color">
                            <rect id="box" fill="#1C1F28" fill-rule="nonzero" x="0" y="0" width="24" height="24"></rect>
                        </g>
                    </g>
                </g>
            </g>
        </g>
    </g>
</svg>