<?xml version="1.0" encoding="UTF-8"?>
<svg width="20px" height="20px" viewBox="0 0 20 20" version="1.1" xmlns="http://www.w3.org/2000/svg" xmlns:xlink="http://www.w3.org/1999/xlink">
    <title>3. icons/outline/icon-cuenta-ahorros</title>
    <defs>
        <path d="M9.02142857,0 C10.1,0 11.1135714,0.428148148 11.875,1.20518519 C12.1807143,1.51777778 12.4335714,1.87481481 12.6278571,2.26592593 C12.675,2.36222222 12.6828571,2.47111111 12.6507143,2.57407407 C12.6171429,2.67703704 12.5471429,2.76074074 12.4528571,2.80888889 C12.2571429,2.91037037 12.0221429,2.82814815 11.9235714,2.63037037 C11.7692857,2.31555556 11.565,2.02888889 11.3185714,1.77777778 C10.705,1.15185185 9.88928571,0.806666667 9.02142857,0.806666667 C8.15357143,0.806666667 7.33785714,1.15185185 6.72357143,1.77777778 C6.11071429,2.4037037 5.77285714,3.23481481 5.77285714,4.11851852 C5.77285714,5.00296296 6.11071429,5.83407407 6.72357143,6.46 C7.05285714,6.79555556 7.44,7.05037037 7.87428571,7.2162963 C8.635,7.11037037 9.40714286,7.10962963 10.1685714,7.2162963 C10.6028571,7.04962963 10.9907143,6.79481481 11.3185714,6.46 C11.8942857,5.87333333 12.2307143,5.09481481 12.2671429,4.26814815 C12.2714286,4.16074074 12.3157143,4.06148148 12.3935714,3.98888889 C12.4714286,3.91555556 12.5742857,3.87851852 12.6785714,3.88296296 C12.7828571,3.88740741 12.8792857,3.93407407 12.9507143,4.01333333 C13.0221429,4.09259259 13.0585714,4.1962963 13.0535714,4.30444444 C13.0328571,4.78962963 12.93,5.26074074 12.7457143,5.70740741 C12.8878571,5.74 13.0292857,5.77481481 13.1685714,5.81185185 C13.2157143,5.77925926 13.2642857,5.75111111 13.3157143,5.72740741 C15.9335714,4.50518519 16.4214286,4.76740741 16.6064286,4.86740741 C16.9342857,5.04222222 17.1,5.51259259 17.1128571,6.30592593 C17.1207143,6.81555556 17.0607143,7.40666667 16.9464286,7.93703704 C17.1214286,8.1237037 17.2828571,8.32 17.4278571,8.52148148 C17.7728571,9.0037037 18.0357143,9.53555556 18.2085714,10.0992593 C18.2314286,10.1725926 18.2878571,10.2303704 18.3585714,10.2540741 L18.3585714,10.2540741 L19.17,10.5192593 C19.6657143,10.6807407 20,11.1474074 20,11.68 L20,11.68 L20,13.0511111 C20,13.582963 19.6657143,14.0496296 19.17,14.2125926 L19.17,14.2125926 L17.8642857,14.6392593 C17.8164286,14.6540741 17.7757143,14.6896296 17.7485714,14.737037 C17.185,15.7296296 16.3192857,16.5511111 15.1735714,17.1777778 L15.1735714,17.1777778 L14.7764286,19.3244444 C14.7028571,19.7155556 14.3678571,20 13.9785714,20 L13.9785714,20 L12.6185714,20 C12.2292857,20 11.8942857,19.7155556 11.8221429,19.3244444 L11.8221429,19.3244444 L11.6314286,18.2962963 C10.6864286,18.4244444 9.69928571,18.4414815 8.76357143,18.3511111 L8.76357143,18.3511111 L8.58285714,19.3244444 C8.51,19.7155556 8.17428571,20 7.785,20 L7.785,20 L6.42571429,20 C6.03642857,20 5.70142857,19.7155556 5.62857143,19.3244444 L5.62857143,19.3244444 L5.24642857,17.3022222 C4.30285714,16.7688889 3.56,16.0637037 3.03857143,15.2059259 C2.46428571,14.26 2.17285714,13.1503704 2.17285714,11.9059259 C2.17285714,11.7881481 2.175,11.6733333 2.18071429,11.5585185 C2.13214286,11.6488889 2.075,11.7362963 2.01,11.82 C1.44571429,12.5407407 0.855714286,12.6925926 0.46,12.6925926 L0.46,12.6925926 L0.391428571,12.6911111 C0.170714286,12.68 -1.77635684e-15,12.497037 -1.77635684e-15,12.2733333 C-1.77635684e-15,12.0451852 0.174285714,11.862963 0.397857143,11.8555556 C0.654285714,11.8474074 1.02214286,11.7540741 1.34571429,11.3748148 C0.790714286,11.2296296 0.447857143,11.0074074 0.301428571,10.6985185 C0.201428571,10.4911111 0.147857143,10.1548148 0.456428571,9.73925926 C0.670714286,9.45185185 0.982142857,9.31407407 1.30357143,9.35703704 C1.70428571,9.41111111 2.08071429,9.7437037 2.26214286,10.202963 C2.28642857,10.2651852 2.30785714,10.3281481 2.32428571,10.3918519 L2.324,10.39 L2.39175744,10.1049643 C2.76008636,8.68784872 3.59168329,7.53245373 4.8286479,6.72375798 L5.08142857,6.56666667 C5.26928571,6.45555556 5.51,6.52296296 5.61928571,6.71407407 C5.67214286,6.80666667 5.68642857,6.91555556 5.66,7.01925926 C5.63214286,7.12444444 5.56642857,7.21185185 5.475,7.26666667 C4.68071429,7.73555556 4.06428571,8.34888889 3.64285714,9.09037037 C3.19,9.88592593 2.96071429,10.8333333 2.96071429,11.9059259 C2.96071429,14.0244444 3.91214286,15.6622222 5.71285714,16.6422222 C5.86285714,16.7237037 5.96785714,16.8681481 5.99928571,17.0392593 L5.99928571,17.0392593 L6.40214286,19.1718519 C6.405,19.1837037 6.41428571,19.1918519 6.42571429,19.1918519 L6.42571429,19.1918519 L7.785,19.1918519 C7.79642857,19.1918519 7.80714286,19.1844444 7.80857143,19.1740741 L7.80857143,19.1740741 L8.02857143,17.9881481 C8.08285714,17.6948148 8.34785714,17.4933333 8.64428571,17.5259259 C9.64,17.6437037 10.7185714,17.6222222 11.73,17.4666667 C12.03,17.4214815 12.3078571,17.6214815 12.3642857,17.9259259 L12.3642857,17.9259259 L12.5964286,19.1740741 C12.5985714,19.1844444 12.6078571,19.1918519 12.6185714,19.1918519 L12.6185714,19.1918519 L13.9785714,19.1918519 C13.99,19.1918519 14,19.1844444 14.0021429,19.1740741 L14.0021429,19.1740741 L14.4207143,16.9148148 C14.4514286,16.7414815 14.5592857,16.5955556 14.7128571,16.5133333 C15.7714286,15.9518519 16.5642857,15.2177778 17.0678571,14.3311111 C17.1921429,14.1103704 17.3907143,13.9466667 17.6242857,13.8696296 L17.6242857,13.8696296 L18.93,13.442963 C19.0985714,13.3881481 19.2121429,13.2303704 19.2121429,13.0511111 L19.2121429,13.0511111 L19.2121429,11.68 C19.2121429,11.5007407 19.0985714,11.342963 18.93,11.2888889 L18.93,11.2888889 L18.12,11.022963 C17.8064286,10.9207407 17.5585714,10.6659259 17.4578571,10.342963 C17.3092857,9.86074074 17.0857143,9.40888889 16.7921429,8.99851852 C16.7535714,8.94518519 16.7142857,8.89259259 16.6735714,8.84074074 C16.4957143,9.26666667 16.2742857,9.55703704 16.0164286,9.70592593 C15.7592857,9.85481481 15.4142857,9.93703704 15.0464286,9.93703704 C14.5064286,9.93703704 13.9814286,9.76666667 13.5664286,9.45777778 C13.1842857,9.17185185 12.9135714,8.78518519 12.7635714,8.30740741 C12.605,7.79851852 12.5907143,7.20074074 12.7214286,6.52962963 C12.6528571,6.51333333 12.5842857,6.49703704 12.5164286,6.48222222 C12.4614286,6.47037037 12.4064286,6.45777778 12.3514286,6.44740741 C12.2078571,6.65925926 12.0478571,6.85555556 11.875,7.03259259 C11.715,7.19407407 11.5442857,7.34296296 11.3621429,7.47481481 C11.4671429,7.50592593 11.5707143,7.53925926 11.6728571,7.57407407 C11.7735714,7.60814815 11.8542857,7.68 11.9014286,7.77703704 C11.9478571,7.87407407 11.955,7.98296296 11.9214286,8.08518519 C11.855,8.28962963 11.6321429,8.40666667 11.4242857,8.34 C9.875,7.81111111 8.16857143,7.81111111 6.61928571,8.34 C6.41285714,8.40888889 6.19,8.29481481 6.12071429,8.08518519 C6.08785714,7.9837037 6.09428571,7.87407407 6.14142857,7.77777778 C6.18785714,7.68 6.26928571,7.60740741 6.37071429,7.57407407 C6.47214286,7.53925926 6.575,7.50592593 6.68071429,7.47481481 C6.49857143,7.34296296 6.32642857,7.19407407 6.16785714,7.03259259 C5.40428571,6.25407407 4.985,5.21925926 4.985,4.11851852 C4.985,3.01851852 5.40428571,1.9837037 6.16785714,1.20518519 C6.93,0.428148148 7.94357143,0 9.02142857,0 Z M16.7422143,10.9843704 C16.9800714,10.9843704 17.1736429,11.1880741 17.1736429,11.4377037 C17.1736429,12.1177037 16.6507857,12.671037 16.0065,12.671037 C15.3636429,12.671037 14.8400714,12.1177037 14.8400714,11.4377037 C14.8400714,11.1880741 15.0336429,10.9843704 15.2715,10.9843704 C15.5079286,10.9843704 15.7007857,11.1880741 15.7007857,11.4377037 C15.7007857,11.616963 15.8386429,11.7628889 16.0065,11.7628889 C16.1757857,11.7628889 16.3122143,11.616963 16.3122143,11.4377037 C16.3122143,11.1880741 16.5050714,10.9843704 16.7422143,10.9843704 Z M1.2,10.157037 C1.17357143,10.1540741 1.13714286,10.1555556 1.08428571,10.2281481 C1.03428571,10.2948148 1.01785714,10.337037 1.01428571,10.3540741 C1.05428571,10.417037 1.21857143,10.5125926 1.56142857,10.5985185 C1.55214286,10.5614815 1.54071429,10.5296296 1.53214286,10.5059259 C1.445,10.2844444 1.285,10.1688889 1.2,10.157037 Z M16.1807143,5.57851852 C15.8828571,5.57851852 15.04,5.81037037 13.6428571,6.46222222 C13.5714286,6.49555556 13.52,6.55851852 13.5042857,6.63037037 C13.2957143,7.64 13.4771429,8.39259259 14.0307143,8.80518519 C14.5757143,9.21185185 15.3221429,9.18 15.6285714,9.00296296 C15.8592857,8.87037037 16.1664286,8.12962963 16.2821429,7.12 C16.3864286,6.21333333 16.2828571,5.70444444 16.2214286,5.58074074 C16.2114286,5.57925926 16.1985714,5.57851852 16.1807143,5.57851852 Z" id="path-1"></path>
    </defs>
    <g id="Yanbal-UI-Visual-Kit" stroke="none" stroke-width="1" fill="none" fill-rule="evenodd">
        <g id="yanbal-styleguide-pag2" transform="translate(-890.000000, -4540.000000)">
            <g id="Group" transform="translate(888.000000, 4538.000000)">
                <g id="Group-2" transform="translate(2.000000, 2.000000)">
                    <mask id="mask-2" fill="white">
                        <use xlink:href="#path-1"></use>
                    </mask>
                    <use id="Mask" fill="#1E1210" xlink:href="#path-1"></use>
                    <g id="Group" mask="url(#mask-2)">
                        <g transform="translate(-2.000000, -2.000000)" id="colors/brand-secondary">
                            <rect id="box" fill="#1C1F28" fill-rule="nonzero" x="0" y="0" width="24" height="24"></rect>
                        </g>
                    </g>
                </g>
            </g>
        </g>
    </g>
</svg>