<?xml version="1.0" encoding="UTF-8"?>
<svg width="18px" height="18px" viewBox="0 0 18 18" version="1.1" xmlns="http://www.w3.org/2000/svg" xmlns:xlink="http://www.w3.org/1999/xlink">
    <title>3. icons/outline/icon-update</title>
    <defs>
        <path d="M17.4375,8.43745751 C17.7481602,8.43745751 18,8.68929607 18,8.99995467 C18,13.9704924 13.9705627,17.9999549 9,17.9999549 C6.69312769,18.007281 4.4764384,17.1209233 2.81218547,15.5325257 L2.8125,17.4374122 C2.8125,17.7480708 2.56066017,17.9999093 2.25,17.9999093 C1.93933983,17.9999093 1.6875,17.7480708 1.6875,17.4374122 L1.6875,14.3436778 C1.6875,13.8776899 2.06525974,13.499932 2.53125,13.499932 L5.625,13.499932 C5.93566017,13.499932 6.1875,13.7517706 6.1875,14.0624292 C6.1875,14.3730878 5.93566017,14.6249263 5.625,14.6249263 L3.489,14.624 L3.6390826,14.7690884 C5.8883816,16.8602411 9.16004972,17.4580595 12.0137089,16.2760057 C14.956545,15.0570128 16.8752298,12.1852554 16.875,8.99995467 C16.875,8.68929607 17.1268398,8.43745751 17.4375,8.43745751 Z M15.75,0 C16.0606602,0 16.3125,0.25183856 16.3125,0.562497167 L16.3125,3.65623159 C16.3125,4.1222195 15.9347403,4.49997734 15.46875,4.49997734 L12.375,4.49997734 C12.0643398,4.49997734 11.8125,4.24813878 11.8125,3.93748017 C11.8125,3.62682156 12.0643398,3.374983 12.375,3.374983 L14.509,3.374 L14.3609174,3.2308209 C12.1116184,1.13966828 8.83995028,0.541849895 5.98629108,1.72390361 C3.04345502,2.94289651 1.12477016,5.81465399 1.125,8.99995467 C1.125,9.1491382 1.06573678,9.29221155 0.960247564,9.39770024 C0.854758352,9.50318892 0.711684276,9.56245184 0.5625,9.56245184 C0.251839828,9.56245184 5.86197757e-14,9.31061328 5.86197757e-14,8.99995467 C0.00168617393,5.36110877 2.19444563,2.08131524 5.55641272,0.689017317 C8.84343013,-0.67224155 12.6156862,0.0326807062 15.1878196,2.46877405 L15.1875,0.562497167 C15.1875,0.25183856 15.4393398,0 15.75,0 Z" id="path-1"></path>
    </defs>
    <g id="Yanbal-UI-Visual-Kit" stroke="none" stroke-width="1" fill="none" fill-rule="evenodd">
        <g id="yanbal-styleguide-pag2" transform="translate(-651.000000, -4541.000000)">
            <g id="Group" transform="translate(648.000000, 4538.000000)">
                <g id="elements" transform="translate(3.000000, 3.000000)">
                    <mask id="mask-2" fill="white">
                        <use xlink:href="#path-1"></use>
                    </mask>
                    <use id="icon" fill="#000000" fill-rule="nonzero" xlink:href="#path-1"></use>
                    <g id="Group" mask="url(#mask-2)">
                        <g transform="translate(-3.000000, -3.000000)" id="color">
                            <rect id="box" fill="#1C1F28" fill-rule="nonzero" x="0" y="0" width="24" height="24"></rect>
                        </g>
                    </g>
                </g>
            </g>
        </g>
    </g>
</svg>