<?xml version="1.0" encoding="UTF-8"?>
<svg width="18px" height="16px" viewBox="0 0 18 16" version="1.1" xmlns="http://www.w3.org/2000/svg" xmlns:xlink="http://www.w3.org/1999/xlink">
    <title>3. icons/outline/icon-shooping</title>
    <defs>
        <path d="M17.8983335,2.73366524 C17.7703748,2.57645627 17.5758042,2.49141062 17.3754998,2.50513771 L4.24843941,2.50513771 L4.24843941,2.46514539 C4.11913646,1.92810568 4.03480845,1.77384959 3.91674923,1.32250771 L3.91674923,1.20253076 C3.72295428,0.459664877 3.04137329,-0.0419110831 2.28640768,0.00276119492 L0.689797336,0.00276119492 L0.380594628,0.00276119492 C0.13285912,0.0717290473 -0.0275338955,0.315010273 0.0039295116,0.574080033 C-0.00528349971,0.717518138 0.0424711615,0.858722744 0.136508145,0.966098598 C0.230545129,1.07347445 0.363014555,1.13805819 0.504275711,1.14539887 L2.25267648,1.14539887 C2.5146791,1.1065393 2.7611132,1.2818453 2.81486322,1.54532206 L5.62579693,12.40038 L5.59206572,12.40038 C5.17084091,12.5837724 4.82792185,12.9140268 4.62510453,13.3316297 C4.38041272,13.8418904 4.38041272,14.4382013 4.62510453,14.948462 C4.96634616,15.5948122 5.62923913,15.9985699 6.35101782,15.9998464 C6.67086154,16.0000492 6.98577057,15.9195522 7.26738221,15.7654479 C7.73463127,15.5301072 8.07605575,15.0974391 8.2006122,14.5828179 C8.30363135,14.2048959 8.27989554,13.802873 8.13314979,13.4401803 L8.09941859,13.3544824 L13.2602929,13.3544824 L13.2265617,13.4401803 C13.1464756,13.6439965 13.102693,13.8606618 13.0972587,14.0800574 C13.0940682,15.0828094 13.8508774,15.9191152 14.8344157,15.9998464 L15.0143155,15.9998464 C15.9242672,16.0114196 16.7154254,15.3677332 16.903263,14.462841 C17.0927192,13.4619755 16.4528807,12.4930025 15.4696868,12.2918294 C15.1987656,12.2440241 14.9236991,12.2248779 14.6488941,12.2346975 L6.75017041,12.2346975 L6.75017041,12.2004184 C6.75017041,12.0633019 6.32290848,10.4864619 6.31728662,10.4864619 L6.31728662,10.4064772 L14.9356094,10.4064772 C15.094451,10.4364519 15.2584981,10.4008571 15.3914429,10.3075708 C15.5243876,10.2142845 15.6152661,10.071 15.6439647,9.90942985 L17.4823153,4.65900973 C17.6284839,4.24766016 17.791518,3.76775234 17.9489303,3.29927089 C18.0320015,3.11496541 18.012747,2.89972593 17.8983335,2.73366524 L17.8983335,2.73366524 Z M14.4577506,13.5887232 C14.608007,13.439949 14.8101682,13.3577709 15.0199374,13.3601956 L15.0199374,13.3601956 C15.230056,13.3558445 15.432922,13.438309 15.5821241,13.5887232 C15.7388393,13.7347798 15.8233384,13.9442228 15.8126207,14.160042 C15.8127611,14.3711597 15.7283609,14.5732466 15.5788371,14.7198109 C15.4293132,14.8663752 15.2275401,14.9447974 15.0199374,14.9370356 C14.8141714,14.9400882 14.6156421,14.8599363 14.4680347,14.714217 C14.3204273,14.5684978 14.2358364,14.369151 14.2328759,14.160042 C14.2170813,13.9378439 14.2995111,13.720045 14.4577506,13.5658704 L14.4577506,13.5887232 Z M6.33415222,13.3601956 L6.33415222,13.3601956 C6.54184348,13.3540543 6.7432794,13.4328331 6.89333749,13.5788853 C7.04339558,13.7249374 7.129534,13.9260559 7.13245739,14.1371893 C7.13795612,14.3520684 7.0543098,14.5593978 6.90196083,14.7085081 C6.75038664,14.8552094 6.54909082,14.9370356 6.33977409,14.9370356 C5.91247082,14.9434629 5.55934182,14.5998686 5.54709078,14.1657552 C5.53943708,13.9504798 5.6234299,13.7422915 5.77758735,13.5944364 C5.92066194,13.4349344 6.12182393,13.3420118 6.33415222,13.3373429 L6.33415222,13.3601956 Z M16.6277915,3.69919408 L14.6601379,9.30954507 L5.99684017,9.30954507 L5.99684017,9.27526594 L4.50142344,3.61920944 L16.6559008,3.61920944 L16.6277915,3.69919408 Z" id="path-1"></path>
    </defs>
    <g id="Yanbal-UI-Visual-Kit" stroke="none" stroke-width="1" fill="none" fill-rule="evenodd">
        <g id="yanbal-styleguide-pag2" transform="translate(-459.000000, -4542.000000)">
            <g id="Group" transform="translate(456.000000, 4538.000000)">
                <g id="elements" transform="translate(3.000000, 4.000000)">
                    <mask id="mask-2" fill="white">
                        <use xlink:href="#path-1"></use>
                    </mask>
                    <use id="icon" fill="#000000" fill-rule="nonzero" xlink:href="#path-1"></use>
                    <g id="Group" mask="url(#mask-2)">
                        <g transform="translate(-3.000000, -4.000000)" id="color">
                            <rect id="box" fill="#1C1F28" fill-rule="nonzero" x="0" y="0" width="24" height="24"></rect>
                        </g>
                    </g>
                </g>
            </g>
        </g>
    </g>
</svg>