<?xml version="1.0" encoding="UTF-8"?>
<svg width="10px" height="20px" viewBox="0 0 10 20" version="1.1" xmlns="http://www.w3.org/2000/svg" xmlns:xlink="http://www.w3.org/1999/xlink">
    <title>3. icons/outline/icon-cream-tube</title>
    <defs>
        <path d="M9.09367592,16.0117917 C9.11408404,15.9622292 9.1294676,15.904625 9.1370819,15.844625 L9.13739179,15.8412083 L9.99984506,0.494125 C10,0.490541667 10,0.486333333 10,0.482041667 C10,0.221791667 9.78104436,0.0096875 9.50701778,0 L9.50604386,0 L0.493867604,0 C0.21893351,0.00966666667 0,0.221791667 0,0.482041667 C0,0.486270833 0,0.490458333 0.000177076947,0.49475 L0.000154942328,0.494125 L0.862608211,15.8412083 C0.862586076,15.8432292 0.862563941,15.8455833 0.862563941,15.8479583 C0.862563941,16.1105208 1.08014724,16.32525 1.35488212,16.3411458 L1.35636514,16.3412083 L1.55010946,16.3412083 L1.55010946,19.505875 C1.54999878,19.5094583 1.54995451,19.5136667 1.54995451,19.5179583 C1.54995451,19.7782083 1.76891016,19.9903125 2.04293673,20 L2.04391066,20 L7.95617788,20 C8.23111198,19.9903333 8.45004549,19.7782083 8.45004549,19.5179583 C8.45004549,19.5137292 8.44997908,19.5095417 8.44986841,19.50525 L8.44989054,19.505875 L8.44989054,16.3412083 L8.64363486,16.3412083 C8.64549417,16.3412292 8.64770763,16.34125 8.64992109,16.34125 C8.83299652,16.34125 8.98984242,16.235375 9.05507314,16.085125 L9.05611347,16.0823542 C9.0681547,16.0670625 9.07864651,16.049625 9.08674778,16.0310208 L9.08736755,16.0294167 L9.09367592,16.0117917 Z M8.98123206,0.994145833 C8.98123206,1.51179167 8.92496586,2.0294375 8.89373391,2.55297917 L1.10650957,2.55297917 C1.10650957,2.18239583 1.06277156,1.8176875 1.04402354,1.45297917 C1.04402354,1.30004167 1.04402354,1.14708333 1.04402354,0.994145833 L8.98123206,0.994145833 L8.98123206,0.994145833 Z M1.25022965,4.77652083 C1.25022965,4.37060417 1.20020541,3.970625 1.18152379,3.60004167 L8.83751198,3.60004167 C8.61668227,7.52159722 8.39585994,11.4431597 8.17504499,15.3647292 L1.82524276,15.3647292 C1.77521852,14.5353125 1.73148052,13.7059167 1.68150055,12.8764792 L1.25022965,4.77652083 Z M7.50000553,19.0059375 L2.53768972,19.0059375 L2.53768972,16.3412708 L7.46257589,16.3412708 L7.50000553,19.0059375 Z" id="path-1"></path>
    </defs>
    <g id="Yanbal-UI-Visual-Kit" stroke="none" stroke-width="1" fill="none" fill-rule="evenodd">
        <g id="yanbal-styleguide-pag2" transform="translate(-1279.000000, -4588.000000)">
            <g id="Group" transform="translate(1272.000000, 4586.000000)">
                <g id="colors/brand-secondary" transform="translate(7.000000, 2.000000)">
                    <mask id="mask-2" fill="white">
                        <use xlink:href="#path-1"></use>
                    </mask>
                    <use id="Mask" fill="#000000" fill-rule="nonzero" xlink:href="#path-1"></use>
                    <g id="Group" mask="url(#mask-2)">
                        <g transform="translate(-9.000000, -3.000000)" id="colors/brand-secondary">
                            <rect id="box" fill="#1C1F28" fill-rule="nonzero" x="0" y="0" width="26.4058266" height="25.7456809"></rect>
                        </g>
                    </g>
                </g>
            </g>
        </g>
    </g>
</svg>