<?xml version="1.0" encoding="UTF-8"?>
<svg width="20px" height="20px" viewBox="0 0 20 20" version="1.1" xmlns="http://www.w3.org/2000/svg" xmlns:xlink="http://www.w3.org/1999/xlink">
    <title>3. icons/outline/icon-clap</title>
    <defs>
        <path d="M2.49431683,11.1356788 L1.89047695,10.5315447 C1.31854117,9.99096627 1.28663708,9.10092567 1.79507167,8.49688602 C1.98562247,8.27432271 2.23998146,8.11531516 2.52593754,8.0517594 L2.39888793,7.92464787 C1.82695215,7.38406947 1.79504805,6.49402887 2.30348265,5.88998922 C2.55772356,5.60387014 2.93894324,5.41310834 3.3522087,5.41310834 C3.76547416,5.41310834 4.14659938,5.57211589 4.40093475,5.82631532 L5.09996738,6.52568862 C5.16349218,6.2713238 5.29051818,6.01702987 5.48135236,5.82631532 C5.48135236,5.82631532 5.51320923,5.79444293 5.51320923,5.79444293 C5.35427914,5.31756206 5.48135236,4.77710179 5.79918893,4.42745058 C6.05342984,4.14133151 6.43464952,3.95056971 6.84791498,3.95056971 C7.26118044,3.95056971 7.64230566,4.10957725 7.89664103,4.36377668 L8.59567366,5.06314999 C8.75460375,4.4273797 9.32653953,3.95035707 9.9938806,3.95035707 L9.9938806,3.95035707 C10.3752656,3.95035707 10.756627,4.10936461 11.0107262,4.36356404 C11.4873747,4.84044492 11.9958802,5.34919818 12.7903181,6.14402326 L13.6482336,7.00235686 C13.7117584,6.58914988 13.9024745,6.17568301 14.2201694,5.88956394 C14.6331751,5.50799308 15.3005161,5.50799308 15.7138052,5.92143633 L18.1923825,8.4012216 C20.4804091,10.6268074 20.607435,14.219362 18.5102427,16.6036955 C18.0335941,17.1442739 17.4298959,17.5893296 16.7941992,17.9071321 C16.0951666,18.2567833 15.3324675,18.4477105 14.5380768,18.5112662 C14.1566918,18.8609174 13.7436861,19.1470365 13.2668958,19.3695998 L13.2668958,19.3695998 C11.0107734,20.5140289 8.27786071,20.0689731 6.4982924,18.2887266 L1.82711745,13.6152751 C1.25518167,13.0746967 1.22327758,12.1846561 1.73171217,11.5806164 C1.92226297,11.3580531 2.20836075,11.1990456 2.49445852,11.1354898 L2.49431683,11.1356788 Z M7.41982715,4.87241181 C7.26089706,4.71340427 7.07034626,4.6498485 6.84789136,4.6498485 C6.62543647,4.6498485 6.43488567,4.74530028 6.30757629,4.90421332 C6.18052668,5.06322087 6.11702549,5.25386453 6.11702549,5.47642784 C6.14888235,5.47642784 6.14888235,5.47642784 6.18055029,5.47642784 L6.21240716,5.47642784 C6.40295796,5.44455545 6.56188805,5.44455545 6.75272223,5.47642784 L6.78457909,5.47642784 C6.94350918,5.50830023 7.10243927,5.57187962 7.26122767,5.66707151 C7.29308453,5.66707151 7.29308453,5.6989439 7.32475248,5.6989439 C7.38827728,5.73081629 7.45180209,5.79439568 7.48368257,5.82605543 C7.48368257,5.82605543 7.51553943,5.82605543 7.51553943,5.85792782 L8.50069345,6.84356195 C8.85017434,7.19321316 9.3269646,7.6702358 10.1213553,8.46501363 C10.1532121,8.24245032 10.2167606,8.01988701 10.3438102,7.79734733 L7.42032307,4.87243544 L7.41982715,4.87241181 Z M16.4763154,17.3351302 C17.0482512,17.0490111 17.5566622,16.6674639 18.001572,16.1907011 L18.001572,16.1907011 C19.8446887,14.0605671 19.7176155,10.881314 17.7155923,8.91009299 L15.2370149,6.43030772 C15.1734901,6.36675196 15.0464641,6.30319619 14.9510352,6.30319619 C14.8556063,6.30319619 14.7604844,6.33506858 14.6967943,6.39864797 C14.4743394,6.62121128 14.3473134,6.90730673 14.3473134,7.1934258 C14.3473134,7.51144089 14.474363,7.79755997 14.6651736,8.02009965 L14.6651736,8.02009965 L17.0167013,10.3727734 C17.1121066,10.4682252 17.1437509,10.5953367 17.1121066,10.7224246 C17.0804623,10.8495125 16.985057,10.9449879 16.8578657,10.9767894 C16.7306744,11.0085909 16.6036248,10.9767894 16.5083848,10.8813376 L12.282096,6.65298917 C11.5193497,5.88987108 10.9792944,5.34955258 10.5025041,4.87252995 C10.2800492,4.64996664 9.96218904,4.58641087 9.67623296,4.7135224 C9.39027687,4.84063393 9.19958438,5.09509325 9.19958438,5.4128957 C9.19958438,5.60353937 9.26310919,5.79446656 9.42203927,5.9534741 L9.42203927,5.9534741 L10.756745,7.28883033 C11.1062259,7.03446551 11.5511357,7.03446551 11.9006166,7.22527457 C11.9960219,7.25714695 12.0595467,7.32072635 12.1230715,7.38428211 L14.6016488,9.86406738 C14.7286984,9.99117891 14.8876285,10.1501865 15.0146545,10.309194 C15.0465114,10.3410664 15.0465114,10.3410664 15.0465114,10.3727498 C15.1419167,10.4998613 15.2370622,10.6271146 15.3324911,10.7543206 C15.3643479,10.8178764 15.3960159,10.8814321 15.4278964,10.9133282 C15.4914212,11.0087799 15.554946,11.1039718 15.6184472,11.2313433 C15.650304,11.294899 15.681972,11.3903508 15.7454968,11.4539066 C15.7773536,11.5493583 15.8409021,11.6445502 15.8725464,11.7400256 C15.9041907,11.835501 15.9360712,11.8990332 15.9679517,11.9943905 C15.9998085,12.0898422 16.0314765,12.153398 16.0633569,12.2487553 C16.0952374,12.3441125 16.1268818,12.4393989 16.1587622,12.5031201 C16.1906191,12.5985719 16.222287,12.6621276 16.222287,12.7574849 C16.2541439,12.8529367 16.2541439,12.9481286 16.2858118,13.043604 C16.3174798,13.1390794 16.3176687,13.2026115 16.3176687,13.2979688 C16.3176687,13.3934206 16.3495256,13.4886125 16.3495256,13.5840879 C16.3495256,13.6795633 16.3813824,13.7430954 16.3813824,13.8384527 C16.3813824,13.9339045 16.3813824,14.0290964 16.3813824,14.1245718 C16.3813824,14.2200472 16.3813824,14.2835793 16.3813824,14.3789366 C16.3813824,14.4743884 16.3813824,14.5695802 16.3495256,14.6650557 C16.3495256,14.7605074 16.3495256,14.8240632 16.3176687,14.9194205 C16.3176687,15.0148723 16.2858118,15.1100641 16.2858118,15.2055395 C16.2858118,15.301015 16.253955,15.3645471 16.222287,15.4599044 C16.1906191,15.5552616 16.1904302,15.650548 16.1587622,15.7142692 C16.1270943,15.7779903 16.0952374,15.9049128 16.0952374,15.968634 C16.0633806,16.0640858 16.0317126,16.1276415 15.9998321,16.2229988 C15.9679517,16.3183561 15.9363073,16.4136425 15.9044269,16.4773636 C15.87257,16.5409194 15.8409021,16.6363712 15.8090216,16.6999269 C15.7771647,16.7953787 15.7136163,16.8905706 15.681972,16.9542918 C15.6503276,17.0180129 15.6184472,17.0814033 15.5549224,17.1768551 C15.4913975,17.2723069 15.4278727,17.3674987 15.3643715,17.4629741 C15.3325147,17.5265299 15.2689663,17.5900857 15.2373219,17.6536178 C15.2373219,17.6854902 15.2054651,17.6854902 15.2054651,17.7171736 C15.7138761,17.6536178 16.1269054,17.4946103 16.476646,17.3356027 L16.476646,17.3356027 L16.4763154,17.3351302 Z M2.33559928,13.1385123 L7.00677422,17.8119638 C8.59555558,19.4015195 10.9789874,19.7830903 12.9807744,18.7657492 L12.9807744,18.7657492 C13.5527102,18.4796301 14.0611212,18.0980829 14.506031,17.6213201 C14.9509408,17.1126614 15.3004217,16.5404469 15.5228766,15.9044403 C15.9995251,14.537448 15.8723575,13.0113063 15.2050164,11.7396476 C14.9507755,11.2309889 14.6011765,10.7858622 14.2198624,10.3726553 L11.741285,7.89286999 C11.7094282,7.8609976 11.6777602,7.82931422 11.6142354,7.79741821 C11.4871858,7.73386244 11.3282557,7.76554582 11.2012297,7.86097397 C10.9787748,8.08353728 10.8517489,8.36963273 10.8517489,8.6557518 C10.8517489,8.71930757 10.8517489,8.81475935 10.8836057,8.87831511 C10.8836057,8.87831511 10.8836057,8.87831511 10.8836057,8.87831511 C10.9154626,9.10087842 11.0425358,9.32344173 11.2014659,9.48244927 C11.2014659,9.48244927 11.2014659,9.48244927 11.2014659,9.48244927 L11.2014659,9.48244927 L11.2014659,9.48244927 L11.2014659,9.48244927 L13.5211131,11.803227 C13.6165184,11.8986788 13.6481627,12.0257903 13.6165184,12.1528782 C13.5848741,12.2799661 13.4894688,12.3754415 13.3622775,12.407243 C13.2352279,12.4391154 13.1080366,12.407243 13.0127966,12.3117912 L7.00691591,6.30298355 C7.00691591,6.30298355 6.97505905,6.27111116 6.97505905,6.27111116 C6.94320219,6.23923878 6.94320219,6.23923878 6.91153424,6.2075554 C6.91153424,6.2075554 6.87967738,6.2075554 6.87967738,6.17568301 C6.84782052,6.14381062 6.81615258,6.14381062 6.7842721,6.14381062 C6.7842721,6.14381062 6.75241523,6.14381062 6.75241523,6.14381062 C6.72055837,6.14381062 6.68889043,6.1118201 6.65700995,6.1118201 L6.62515309,6.1118201 C6.59329622,6.1118201 6.5297478,6.1118201 6.49810348,6.1118201 L6.46624661,6.1118201 C6.37084133,6.1118201 6.27569581,6.14381062 6.18026691,6.175494 C6.18026691,6.175494 6.18026691,6.175494 6.14841005,6.175494 C6.05300477,6.20736639 5.98947996,6.27094578 5.92595515,6.33450154 C5.63997545,6.62062062 5.63997545,7.09761962 5.92595515,7.41537482 L9.86626422,11.2940485 C9.96166951,11.3895002 9.99331383,11.5166118 9.96166951,11.6436997 C9.93002518,11.7707876 9.8346199,11.866263 9.7074286,11.8980645 C9.58037898,11.9299369 9.45318768,11.8980645 9.35794771,11.8026127 L3.89238208,6.33438341 C3.73345199,6.17537586 3.54290119,6.1118201 3.3204463,6.1118201 C3.0979914,6.1118201 2.9074406,6.20727188 2.78013123,6.36618492 C2.52589031,6.68420001 2.55767633,7.16096275 2.84365603,7.44705819 L3.82881005,8.43269233 L8.30943419,12.8836041 C8.40483947,12.9790559 8.4364838,13.1061674 8.40483947,13.2016192 C8.37298261,13.3287307 8.27778986,13.4241825 8.15059856,13.455984 C8.02340726,13.4877855 7.89635765,13.455984 7.83273838,13.3605322 L3.41563905,8.94128021 C3.25670896,8.78227266 3.06615816,8.7187169 2.84370326,8.7187169 C2.62124837,8.7187169 2.43069757,8.81416868 2.30338819,8.97308172 C2.04914728,9.29109681 2.08093329,9.76785955 2.36691299,10.053955 L6.72044029,14.409604 C6.81584558,14.5050558 6.84748991,14.6321673 6.81584558,14.7592552 C6.78420125,14.8863431 6.68879597,14.9818185 6.56160467,15.01362 C6.43455506,15.0454924 6.30736375,15.01362 6.21212378,14.9181683 L3.32039907,12.0250343 C3.16146898,11.8660267 2.97091818,11.8024709 2.74846328,11.8024709 C2.52600839,11.8024709 2.33545759,11.8979227 2.20814821,12.0568358 C1.98569332,12.3748509 2.01759741,12.8516136 2.33519782,13.137709 L2.33559928,13.1385123 Z M2.43079203,3.12384861 C2.33538674,3.12384861 2.24024123,3.09197622 2.17655111,2.99673708 L0.110979488,0.580507574 C0.0155742041,0.485055794 -0.0160701227,0.357944265 0.0474546827,0.230856362 C0.110979488,0.10376846 0.142859967,0.0402126957 0.269909577,0.00829305335 C0.396959188,-0.0235793356 0.52415049,0.0401654423 0.587769756,0.135404582 L2.68496209,2.55163409 C2.78036738,2.64708587 2.78036738,2.80599891 2.7484869,2.93320494 C2.68496209,3.02865672 2.5579361,3.12384861 2.43062672,3.12384861 L2.43079203,3.12384861 Z M0.0476199888,3.31470491 C0.0794768522,3.21925313 0.1746696,3.15569737 0.23817079,3.15569737 C0.30167198,3.15569737 0.428721591,3.12382498 0.492411702,3.18756976 L1.89061864,3.85523606 C2.04954873,3.95068784 2.14485956,4.14135513 2.04954873,4.33211693 C1.95423791,4.52287873 1.76356903,4.58648175 1.57290016,4.49112448 L0.206573693,3.79175118 C0.111168409,3.75987879 0.047643604,3.66463965 0.047643604,3.60110751 C-0.0158812013,3.47399598 -0.0158812013,3.41046384 0.047643604,3.31498843 L0.047643604,3.31498843 L0.0476199888,3.31470491 Z M3.92440425,2.74227775 C3.89254739,2.77415014 3.82899897,2.77415014 3.79735464,2.77415014 C3.67030503,2.77415014 3.54311373,2.67869836 3.47949446,2.55158683 L2.78046184,0.834707005 C2.71693703,0.644063338 2.78046184,0.453136152 2.97101264,0.389580387 C3.16156344,0.326024623 3.35239762,0.389580387 3.41592243,0.580224054 L4.11495505,2.29710388 C4.14681192,2.39255566 4.14681192,2.48774755 4.11495505,2.5514687 C4.08309819,2.64692048 4.01954977,2.71047625 3.92440425,2.74211237 L3.92440425,2.74227775 Z" id="path-1"></path>
    </defs>
    <g id="Yanbal-UI-Visual-Kit" stroke="none" stroke-width="1" fill="none" fill-rule="evenodd">
        <g id="yanbal-styleguide-pag2" transform="translate(-1418.000000, -4588.000000)">
            <g id="Group" transform="translate(1416.000000, 4586.000000)">
                <g id="colors/brand-secondary" transform="translate(2.000000, 2.000000)">
                    <mask id="mask-2" fill="white">
                        <use xlink:href="#path-1"></use>
                    </mask>
                    <use id="Mask" fill="#000000" fill-rule="nonzero" xlink:href="#path-1"></use>
                    <g id="Group" mask="url(#mask-2)">
                        <g transform="translate(-4.000000, -3.000000)" id="colors/brand-secondary">
                            <rect id="box" fill="#1C1F28" fill-rule="nonzero" x="0" y="0" width="26.4058266" height="25.7456809"></rect>
                        </g>
                    </g>
                </g>
            </g>
        </g>
    </g>
</svg>