<?xml version="1.0" encoding="UTF-8"?>
<svg width="15px" height="20px" viewBox="0 0 15 20" version="1.1" xmlns="http://www.w3.org/2000/svg" xmlns:xlink="http://www.w3.org/1999/xlink">
    <title>3. icons/outline/icon-commission</title>
    <defs>
        <path d="M15,12.9412032 L15,12.6353231 C14.7860782,9.37060999 12.341025,7.24708953 12.0693502,7.02355779 L10.6647452,5.52943768 L10.60116,5.45296248 L10.6531824,5.37061413 C10.7780768,5.14344269 10.8516397,4.87216049 10.8516397,4.5833622 C10.8516397,4.24288422 10.7494035,3.92672609 10.5744375,3.6649154 L10.5780344,3.67060244 L10.5375748,3.60589426 L11.6936305,1.52354797 C11.8595536,1.33839859 11.9650006,1.09455895 11.9767869,0.825923808 L11.9768682,0.823545591 C11.9635984,0.653513402 11.8811144,0.505402172 11.758435,0.40684058 L11.7572157,0.405889293 C11.4020815,0.181799194 10.9712913,0.048991274 10.5100192,0.048991274 C9.96902677,0.048991274 9.46995712,0.231679714 9.06914073,0.5397519 L9.07517614,0.535305668 L8.98269412,0.588246851 L8.91910892,0.535305668 C8.51089559,0.215342396 7.99652404,0.0166888806 7.43730348,-4.54747351e-13 L7.43358469,-4.54747351e-13 C6.93225938,0.00275045987 6.47037762,0.172431086 6.09837676,0.457176064 L6.10412768,0.452957313 L6.02897969,0.505898496 L5.95962325,0.447084151 C5.60786236,0.168233016 5.15967713,-4.54747351e-13 4.67290184,-4.54747351e-13 C4.67007718,-4.54747351e-13 4.66723221,-4.54747351e-13 4.66440755,-4.54747351e-13 L4.66485462,-4.54747351e-13 C4.16535822,0.00891314441 3.70152562,0.156610772 3.30678529,0.406675139 L3.31804326,0.400016131 C3.19603446,0.469273951 3.10729155,0.586551078 3.07591553,0.726059367 L3.07528557,0.729409551 C3.07138389,0.764172882 3.06916888,0.804478493 3.06916888,0.845301108 C3.06916888,1.06963937 3.13622901,1.27805392 3.25108473,1.45087792 L3.24868682,1.4470521 L4.40474258,3.58823341 L4.35272017,3.6529416 C4.15314515,3.92699494 4.03324976,4.27181575 4.03324976,4.64511313 C4.03324976,4.94148035 4.10880418,5.21987652 4.24140035,5.46144134 L4.23711257,5.4529418 L4.27757218,5.53529016 L2.24292705,7.6470643 C2.15621627,7.7470735 0.052214704,10.0882319 0.000192296549,12.4764789 C0.000192296549,12.7294178 0.000192296549,12.9176485 0.000192296549,13.1000061 C-0.0287045251,17.0588278 3.20245597,20 7.48564774,20 C11.7688395,20 15,17.0588278 15,13.1176463 C15,13.0588319 15,12.9941237 15,12.9411826 L15,12.9412032 Z M4.41236945,1.16974125 C4.42153722,1.16951842 4.43234209,1.16937662 4.4431879,1.16937662 C4.8511947,1.16937662 5.21602293,1.35244031 5.45839592,1.64013208 L5.46011487,1.64221856 C5.64056447,1.88998352 5.81518188,2.01097936 5.9897993,2.01097936 C6.19034432,1.97913516 6.35859751,1.86373028 6.45962718,1.7026861 L6.46128474,1.69982984 C6.69608613,1.40794485 7.04528004,1.21479311 7.44066069,1.18724341 L7.44499901,1.18700032 C7.83747381,1.2107822 8.18020116,1.40304262 8.40313355,1.69097747 L8.4054255,1.69405656 C8.58587509,1.9475948 8.76049251,2.07434367 8.94675381,2.07434367 C9.1711596,2.04466697 9.3556201,1.90039569 9.43999225,1.70384075 L9.44152704,1.69980958 C9.61694254,1.36597207 9.95768491,1.13854527 10.3534134,1.12365628 L10.3553984,1.12359551 L10.5882353,1.12359551 L10.5067485,1.29069658 C10.3088433,1.68250999 10.0003314,2.27025038 9.55796593,3.07692983 L9.52303426,3.14606742 L5.30876477,3.14606742 L4.19117647,1.16392745 L4.41236945,1.16974125 Z M5.54107485,4.15732505 L9.3531119,4.15732505 C9.58126819,4.16025145 9.76973088,4.33657285 9.80668275,4.56754218 L9.8070715,4.57044691 C9.81286185,4.60016619 9.81617647,4.63435095 9.81617647,4.66933777 C9.81617647,4.77754977 9.78446252,4.87793634 9.73036466,4.96059106 L9.73140816,4.95890025 C9.66628203,5.0637523 9.56633194,5.13947036 9.4493177,5.16791069 L9.44622815,5.16853933 C9.32982773,5.16853933 8.65472984,5.16853933 7.44417774,5.16853933 L5.47122232,5.16853933 C5.34144066,5.1461469 5.23109658,5.07168612 5.15788851,4.96646555 L5.15694733,4.96505654 C5.10467046,4.88201163 5.07352941,4.77991257 5.07352941,4.67009646 C5.07352941,4.63706059 5.07635298,4.60471838 5.08175458,4.57330828 L5.08128398,4.57658152 C5.12087527,4.34056144 5.31062698,4.16283103 5.54050196,4.15730337 L5.54105439,4.15730337 L5.54107485,4.15732505 Z M9.715131,6.06741573 C10.6840683,6.95335613 11.5747166,7.86023957 12.415836,8.81347915 L12.4439267,8.84582498 C13.4129654,10.0478977 14.0022418,11.6012424 14.0073529,13.2948558 L14.0073529,13.2960147 C13.9265896,16.5806786 11.2323951,18.8764045 7.45939521,18.8764045 C3.6863953,18.8764045 1.09604526,16.5983312 0.997960972,13.3136673 C0.994573859,13.2358345 0.992647059,13.1445502 0.992647059,13.0528105 C0.992647059,11.80385 1.34960261,10.6399351 1.96508721,9.66151093 L2.11140828,9.44036321 L2.24987425,9.28730516 C2.38255982,9.10481923 2.46910358,9.00476033 2.49218463,8.97531176 C2.72455001,8.69733586 3.00143118,8.38484163 3.28894724,8.06949701 L3.63690289,7.69174201 C4.27622956,7.00411424 4.9014357,6.36399962 5.15175751,6.1085982 L5.16327775,6.06741573 L9.715131,6.06741573 Z M9.335,13.3333333 L9.33495154,13.3333333 C8.87380898,13.3333333 8.5,13.7064446 8.5,14.1666667 C8.5,14.6268888 8.87380898,15 9.33495154,15 L9.335,15 C9.79614255,15 10.17,14.6268888 10.17,14.1666667 C10.17,13.7064446 9.79614255,13.3333333 9.335,13.3333333 Z M8.4441838,10.1930361 L5.1716402,13.8746574 C4.94281802,14.132083 4.9427709,14.5493925 5.17159308,14.8068181 C5.40036814,15.0643498 5.77140312,15.0644028 6.00031954,14.8069241 L9.27281603,11.1253028 C9.47625541,10.8964329 9.49882255,10.5411513 9.34058365,10.2842644 L9.2727689,10.1929831 C9.04394672,9.93566347 8.67295886,9.93566347 8.4441838,10.1930361 Z M5.835,10 C5.37380898,10 5,10.3730629 5,10.8333333 C5,11.2935554 5.37380898,11.6666667 5.835,11.6666667 C6.29619102,11.6666667 6.67,11.2935554 6.67,10.8333333 C6.67,10.3730629 6.29619102,10 5.835,10 Z" id="path-1"></path>
    </defs>
    <g id="Yanbal-UI-Visual-Kit" stroke="none" stroke-width="1" fill="none" fill-rule="evenodd">
        <g id="yanbal-styleguide-pag2" transform="translate(-1469.000000, -4684.000000)">
            <g id="Group" transform="translate(1464.000000, 4682.000000)">
                <g id="elements" transform="translate(5.000000, 2.000000)">
                    <mask id="mask-2" fill="white">
                        <use xlink:href="#path-1"></use>
                    </mask>
                    <use id="icon" fill="#000000" fill-rule="nonzero" xlink:href="#path-1"></use>
                    <g id="Group" mask="url(#mask-2)">
                        <g transform="translate(-5.000000, -2.000000)" id="colors/brand-secondary">
                            <rect id="box" fill="#1C1F28" fill-rule="nonzero" x="0" y="0" width="24" height="24"></rect>
                        </g>
                    </g>
                </g>
            </g>
        </g>
    </g>
</svg>