<?xml version="1.0" encoding="UTF-8"?>
<svg width="20px" height="20px" viewBox="0 0 20 20" version="1.1" xmlns="http://www.w3.org/2000/svg" xmlns:xlink="http://www.w3.org/1999/xlink">
    <title>3. icons/outline/icon-sa-message</title>
    <defs>
        <path d="M9.99995534,0.000245534618 C4.48745372,0.000245534618 0,4.31761465 0,9.62846148 C0.0106282739,12.3939179 1.21137761,14.8769425 3.11658502,16.5937652 L3.12502512,16.6011982 L2.62502735,18.7442467 C2.60861605,18.809358 2.59921583,18.8841121 2.59921583,18.9610537 C2.59921583,19.0879282 2.62475941,19.2088651 2.67100134,19.3188646 L2.6687685,19.3127932 C2.73919198,19.5081049 2.86286847,19.6699792 3.02218094,19.7856036 L3.02501663,19.7875902 C3.1819623,19.9031478 3.37418669,19.9797769 3.58297869,19.9996875 L3.58757832,20 L3.65007525,20 C3.84229964,19.9979911 4.02271235,19.9496877 4.1813773,19.8657595 L4.17503606,19.8687952 L6.53127526,18.6503855 C7.56190523,19.0393123 8.75314271,19.2677042 9.99680705,19.2751595 L10.0000447,19.2751818 C15.5125463,19.2751818 20,14.9578127 20,9.65321583 C20,4.34861898 15.5125463,0 10.0000447,0 L9.99995534,0.000245534618 Z M9.99995534,18.1195173 C8.73114933,18.1173522 7.52417039,17.8556346 6.42840875,17.3846769 L6.48748945,17.4072884 L5.62503628,17.8758577 L3.75003907,18.8442909 L4.15000603,17.1760394 L4.37498604,16.2076062 C2.41406951,14.6635506 1.16428721,12.2927353 1.15620437,9.62980076 L1.15620437,9.6284838 C1.25362277,4.90379507 5.10780106,1.11111111 9.84816752,1.11111111 C9.9015545,1.11111111 9.95476285,1.11157986 10.0079042,1.112562 L9.99993302,1.11242807 C10.0450809,1.11155754 10.0983339,1.11111111 10.1516539,1.11111111 C14.8920203,1.11111111 18.7461986,4.90390668 18.8434607,9.61944366 L18.8436393,9.62850612 C18.7324667,14.3422128 14.8837588,18.1209012 10.1521897,18.1209012 C10.0986688,18.1209012 10.0452148,18.1204325 9.9918725,18.119428 L9.99986603,18.119562 L9.99995534,18.1195173 Z" id="path-1"></path>
    </defs>
    <g id="Yanbal-UI-Visual-Kit" stroke="none" stroke-width="1" fill="none" fill-rule="evenodd">
        <g id="yanbal-styleguide-pag2" transform="translate(-122.000000, -4684.000000)">
            <g id="Group" transform="translate(120.000000, 4682.000000)">
                <g id="colors/brand-secondary" transform="translate(2.000000, 2.000000)">
                    <mask id="mask-2" fill="white">
                        <use xlink:href="#path-1"></use>
                    </mask>
                    <use id="Mask" fill="#000000" fill-rule="nonzero" xlink:href="#path-1"></use>
                    <g id="Group" mask="url(#mask-2)">
                        <g transform="translate(-4.000000, -3.000000)" id="colors/brand-secondary">
                            <rect id="box" fill="#1C1F28" fill-rule="nonzero" x="0" y="0" width="26.4058266" height="25.7456809"></rect>
                        </g>
                    </g>
                </g>
            </g>
        </g>
    </g>
</svg>