<?xml version="1.0" encoding="UTF-8"?>
<svg width="20px" height="20px" viewBox="0 0 20 20" version="1.1" xmlns="http://www.w3.org/2000/svg" xmlns:xlink="http://www.w3.org/1999/xlink">
    <title>3. icons/outline/icon-recyclable</title>
    <defs>
        <path d="M9.42166376,14.9355301 C9.33363421,14.8070478 9.1875141,14.7237888 9.02200068,14.7237888 C9.02171023,14.7237888 9.02153149,14.7237888 9.02126338,14.7237888 L9.02130807,14.7237888 C9.01952066,14.7237664 9.0173311,14.7237441 9.01525324,14.7237441 C8.912567,14.7237441 8.81821452,14.7592129 8.74374689,14.8185656 L8.74464059,14.8178737 C8.61659558,14.9071595 8.53381653,15.0536775 8.53381653,15.219459 C8.53381653,15.3271823 8.56869321,15.426669 8.62785621,15.507428 L8.62691783,15.5060218 L9.56892334,16.8530545 L1.32620756,16.8530545 L4.87647935,10.5886056 C4.92558822,10.5137394 4.95487927,10.4220206 4.95487927,10.3234267 C4.95487927,10.0537612 4.73612362,9.83518955 4.46618124,9.83518955 C4.28013504,9.83518955 4.1183975,9.93905127 4.03586422,10.0918639 L4.03456835,10.0944532 L0.0662455846,17.1000414 C0.0246438043,17.1709343 0,17.256113 0,17.3471176 C0,17.4381221 0.0246438043,17.5233008 0.0675191084,17.5964929 L0.0662455846,17.5941714 C0.149895996,17.7416716 0.305489335,17.8399083 0.484095474,17.8412476 L9.57486645,17.8412476 L8.62691783,19.2235036 C8.57023484,19.3028564 8.53620718,19.4018297 8.53620718,19.5087271 C8.53620718,19.6744416 8.61784676,19.8210712 8.74316598,19.9107588 L8.74468527,19.911741 C8.82082859,19.9669196 8.91620883,20 9.0192749,20 C9.02003454,20 9.02079419,20 9.02148681,20 L9.02135275,20 C9.18686617,19.9991295 9.33287457,19.9162053 9.42068069,19.7898435 L9.42170844,19.7882587 L10.9053638,17.6471849 C10.9669621,17.5663589 11.0039613,17.4640373 11.0039613,17.353122 C11.0039613,17.2422067 10.9668727,17.1397959 10.9044477,17.0578092 L10.9053414,17.0589923 L9.42166376,14.9355301 Z M5.01178568,9.04166188 C5.07946119,9.23405048 5.2592068,9.36978724 5.47085753,9.37105957 L5.53574022,9.37105957 L7.84957672,9.06516637 C8.09029508,9.02610382 8.27182809,8.81985359 8.27182809,8.57130421 C8.27182809,8.54842472 8.27026411,8.52588005 8.26727021,8.50375949 L8.26758301,8.50634878 C8.23998999,8.26369226 8.03568995,8.07692866 7.78768793,8.07692866 C7.78668251,8.07692866 7.78561007,8.07692866 7.784627,8.07692866 L7.72001242,8.07692866 L6.16571003,8.28284407 L10.0456905,1.45957752 L13.7549293,7.99460714 C13.8404118,8.14297784 13.998083,8.2412592 14.178767,8.24168331 L14.178834,8.24168331 C14.2676903,8.24023241 14.350648,8.2163931 14.4227697,8.17567877 L14.4202227,8.17701805 C14.567594,8.08967421 14.6648956,7.93150439 14.6648956,7.75063365 C14.6648956,7.65844605 14.6395816,7.57219595 14.5956338,7.49831194 L14.5969073,7.50054409 L10.4755606,0.22437525 C10.391307,0.0888840278 10.2431537,0 10.0741772,0 C10.0641901,0 10.05427,0.000312500349 10.0444616,0.000937501046 L10.0458245,0.000870536686 C10.0420263,0.000758929418 10.0375578,0.000691965058 10.0330669,0.000691965058 C9.86009111,0.000691965058 9.708296,0.0916295666 9.62303693,0.228236862 L9.62187512,0.230312757 L5.5005284,7.47706192 L5.18257194,6.54177069 C5.11431553,6.34516333 4.93048124,6.20645782 4.71427263,6.20645782 C4.71333424,6.20645782 4.71239586,6.20645782 4.71145747,6.20645782 L4.71161387,6.20645782 C4.68770737,6.20243996 4.66018138,6.20018549 4.63211917,6.20018549 C4.60405696,6.20018549 4.57653097,6.20241764 4.54974228,6.20681496 L4.55262446,6.20645782 C4.36025533,6.27906951 4.2258427,6.46154739 4.2258427,6.67538691 C4.2258427,6.73282001 4.23553936,6.78802097 4.25339104,6.83942728 L4.25236328,6.83594513 L5.01178568,9.04166188 Z M19.9546894,17.0589253 L15.8980466,9.89451997 L17.3110772,9.97684149 L17.3405246,9.97684149 C17.3449038,9.97699774 17.3500872,9.97710935 17.355226,9.97710935 C17.6284751,9.97710935 17.8500012,9.75579214 17.8500012,9.48280076 C17.8500012,9.21498796 17.6368089,8.99686272 17.3706871,8.98873771 L17.3699274,8.98871539 L15.0266658,8.8592956 C14.9378096,8.8607465 14.8548518,8.88458581 14.7827301,8.92530014 L14.7852772,8.92396085 C14.7367939,8.95206356 14.695773,8.98739842 14.6623263,9.02900561 L14.661656,9.02987615 L14.661656,9.06518869 C14.661656,9.06518869 14.6322085,9.09460836 14.6263101,9.11809053 L13.6843046,10.9944989 C13.6517515,11.0590079 13.6326934,11.1351017 13.6326934,11.2156375 C13.6326934,11.4074234 13.7407642,11.5740531 13.8994631,11.6578255 L13.9022112,11.6591425 C13.9656417,11.6918211 14.0404668,11.7112854 14.1197827,11.7120443 L14.1200955,11.7120443 C14.1206541,11.7120443 14.1213467,11.7120443 14.1219947,11.7120443 C14.3114593,11.7120443 14.4754757,11.6029817 14.5545236,11.4442315 L14.5557971,11.441419 L15.0856948,10.3767303 L18.7183658,16.7705991 L12.73649,16.7705991 C12.463375,16.7705991 12.2419606,16.9918047 12.2419606,17.2646621 C12.2419606,17.5375196 12.463375,17.7587252 12.73649,17.7587252 L19.5308293,17.7587252 C19.7928178,17.7448636 20,17.5292383 20,17.2652871 C20,17.1903763 19.9833548,17.1193495 19.9534158,17.055711 L19.9547117,17.0587244 L19.9546894,17.0589253 Z" id="path-1"></path>
    </defs>
    <g id="Yanbal-UI-Visual-Kit" stroke="none" stroke-width="1" fill="none" fill-rule="evenodd">
        <g id="yanbal-styleguide-pag2" transform="translate(-1370.000000, -4636.000000)">
            <g id="Group" transform="translate(1368.000000, 4634.000000)">
                <g id="colors/brand-secondary" transform="translate(2.000000, 2.000000)">
                    <mask id="mask-2" fill="white">
                        <use xlink:href="#path-1"></use>
                    </mask>
                    <use id="Mask" fill="#000000" fill-rule="nonzero" xlink:href="#path-1"></use>
                    <g id="Group" mask="url(#mask-2)">
                        <g transform="translate(-4.000000, -3.000000)" id="colors/brand-secondary">
                            <rect id="box" fill="#1C1F28" fill-rule="nonzero" x="0" y="0" width="26.4058266" height="25.7456809"></rect>
                        </g>
                    </g>
                </g>
            </g>
        </g>
    </g>
</svg>