<?xml version="1.0" encoding="UTF-8"?>
<svg width="18px" height="20px" viewBox="0 0 18 20" version="1.1" xmlns="http://www.w3.org/2000/svg" xmlns:xlink="http://www.w3.org/1999/xlink">
    <title>3. icons/outline/icon-delete </title>
    <defs>
        <path d="M9.01801775,17.1620611 C9.35005583,17.1620611 9.61921289,16.8984601 9.61921289,16.5732761 L9.61921289,16.5732761 L9.61921289,8.88954408 C9.61921289,8.56436011 9.35005583,8.30075915 9.01801775,8.30075915 C8.68597966,8.30075915 8.4168226,8.56436011 8.4168226,8.88954408 L8.4168226,8.88954408 L8.4168226,16.5909441 C8.42685006,16.9084357 8.69206857,17.1620611 9.01774612,17.1620611 C9.0178593,17.1620611 9.01794984,17.1620611 9.01806302,17.1620611 L9.01804038,17.1620611 L9.01801775,17.1620611 Z M5.7054008,17.1620611 C6.03743888,17.1620611 6.30659594,16.8984601 6.30659594,16.5732761 L6.30659594,16.5732761 L6.30659594,8.88954408 C6.30659594,8.56436011 6.03743888,8.30075915 5.7054008,8.30075915 C5.37336271,8.30075915 5.10420565,8.56436011 5.10420565,8.88954408 L5.10420565,8.88954408 L5.10420565,16.5909441 C5.11423311,16.9084357 5.37945162,17.1620611 5.70512917,17.1620611 C5.70524235,17.1620611 5.70533289,17.1620611 5.70544607,17.1620611 L5.70542343,17.1620611 L5.7054008,17.1620611 Z M12.3306347,17.1620611 C12.6626728,17.1620611 12.9318298,16.8984601 12.9318298,16.5732761 L12.9318298,16.5732761 L12.9318298,8.88954408 C12.9318298,8.56436011 12.6626728,8.30075915 12.3306347,8.30075915 C11.9985966,8.30075915 11.7294395,8.56436011 11.7294395,8.88954408 L11.7294395,8.88954408 L11.7294395,16.5909441 C11.739467,16.9084357 12.0046855,17.1620611 12.3303631,17.1620611 C12.3304762,17.1620611 12.3305668,17.1620611 12.33068,17.1620611 L12.3306573,17.1620611 L12.3306347,17.1620611 Z M17.4348403,2.80142807 L12.2284134,2.80142807 C12.0374162,1.21720644 10.6743602,0 9.02100561,0 C7.36765105,0 6.00457234,1.21718427 5.81506911,2.7865311 L5.81359781,2.80142807 L0.601195147,2.80142807 C0.269157059,2.80142807 0,3.06502903 0,3.390213 L0,3.390213 L0,5.82192138 C0,6.14710534 0.269157059,6.41070631 0.601195147,6.41070631 L0.601195147,6.41070631 L2.03206676,6.41070631 L2.03206676,19.4112151 C2.03206676,19.736399 2.30122382,20 2.63326191,20 L2.63326191,20 L15.4087946,20 C15.7408327,20 16.0099897,19.736399 16.0099897,19.4112151 L16.0099897,19.4112151 L16.0099897,6.37534818 L17.4348177,6.37534818 C17.4366512,6.37537035 17.4388242,6.37539251 17.4409745,6.37539251 C17.5847091,6.37539251 17.7156546,6.32170136 17.8139826,6.23369397 L17.8135752,6.23404866 L17.8556543,6.23404866 L17.8556543,6.19873487 C17.945064,6.10529629 18,5.97929277 18,5.8407421 C18,5.83825927 18,5.83579861 18,5.83333795 L18,5.83369264 L18,3.37254502 C17.9908553,3.06684682 17.7451938,2.82011578 17.436538,2.80151674 L17.4348403,2.80142807 Z M9.01801775,1.15868264 C9.02150359,1.15866047 9.02557796,1.1586383 9.02969759,1.1586383 C10.0238199,1.1586383 10.8481997,1.87041189 11.0005131,2.80202661 L11.0020296,2.81317717 L7.03411903,2.81317717 C7.18790366,1.87041189 8.01228346,1.15861613 9.00640581,1.15861613 C9.01052544,1.15861613 9.01459981,1.1586383 9.01871944,1.15866047 L9.01808565,1.15866047 L9.01801775,1.15868264 Z M14.8135978,18.8754341 L3.22241504,18.8754341 L3.22241504,6.37537035 L14.8135978,6.37537035 L14.8135978,18.8754341 Z M1.20239029,5.23901099 L1.20239029,3.94955869 L16.8336452,3.94955869 C16.8336452,4.04375098 16.8336452,4.93872181 16.8336452,5.24488554 L1.20239029,5.23901099 Z" id="path-1"></path>
    </defs>
    <g id="Yanbal-UI-Visual-Kit" stroke="none" stroke-width="1" fill="none" fill-rule="evenodd">
        <g id="yanbal-styleguide-pag2" transform="translate(-939.000000, -4492.000000)">
            <g id="Group" transform="translate(936.000000, 4490.000000)">
                <g id="elements" transform="translate(3.000000, 2.000000)">
                    <mask id="mask-2" fill="white">
                        <use xlink:href="#path-1"></use>
                    </mask>
                    <use id="Mask" fill="#444444" fill-rule="nonzero" xlink:href="#path-1"></use>
                    <g id="Group" mask="url(#mask-2)">
                        <g transform="translate(-3.000000, -2.000000)" id="color">
                            <rect id="box" fill="#1C1F28" fill-rule="nonzero" x="0" y="0" width="24" height="24"></rect>
                        </g>
                    </g>
                </g>
            </g>
        </g>
    </g>
</svg>