<?xml version="1.0" encoding="UTF-8"?>
<svg width="20px" height="20px" viewBox="0 0 20 20" version="1.1" xmlns="http://www.w3.org/2000/svg" xmlns:xlink="http://www.w3.org/1999/xlink">
    <title>3. icons/outline/icon-edit</title>
    <defs>
        <path d="M19.1636411,2.16000865 L17.8324261,0.828223057 C17.3216565,0.316609148 16.6155489,0 15.8355255,0 C15.055502,0 14.3496028,0.316557035 13.8386509,0.828197001 L13.8386248,0.828223057 L1.96397968,12.7479543 C1.89256414,12.822006 1.83935408,12.9140106 1.8118505,13.01662 L1.81091288,13.0209453 L0.0203672353,19.1937945 C0.00744888657,19.2428583 0,19.2992961 0,19.3574536 C0,19.5339063 0.0685245475,19.6942302 0.180466207,19.8133853 L0.180153666,19.8130727 C0.288995963,19.9240722 0.44042193,19.9929648 0.608073968,19.9929648 C0.612136997,19.9929648 0.616043756,19.9929127 0.62008074,19.9928085 L0.619507748,19.9928085 C0.644537049,19.9974465 0.673316838,20 0.702773799,20 C0.732230759,20 0.761010548,19.9973423 0.78887876,19.9923655 L0.785987759,19.9927564 L6.96296393,18.2280727 C7.07146764,18.2014693 7.1644485,18.145266 7.23562964,18.0685565 L19.1637974,6.13527609 C19.6801406,5.62645019 20,4.91933645 20,4.13751953 C20,3.3557026 19.6800625,2.64858886 19.1641099,2.14017987 L19.1637974,2.13986719 L19.1636411,2.16000865 Z M6.51691627,17.0496801 L1.55134783,18.461328 L2.96239094,13.5203649 L12.5539523,3.92469231 L16.0817033,7.4539554 L6.51691627,17.0496801 Z M18.2850632,5.2497554 L16.9538482,6.58154099 L13.4260971,3.0522779 L14.7573122,1.72049231 C15.0392499,1.43830343 15.4285975,1.26390914 15.8589921,1.26390914 C16.2893866,1.26390914 16.6787342,1.43845976 16.9606459,1.72046625 L18.2918609,3.05225184 C18.5754656,3.3335027 18.7510874,3.72338194 18.7510874,4.15440396 C18.7510874,4.58542597 18.5754656,4.9752531 18.2920172,5.25639973 L18.2918609,5.25655607 L18.2850632,5.2497554 Z" id="path-1"></path>
    </defs>
    <g id="Yanbal-UI-Visual-Kit" stroke="none" stroke-width="1" fill="none" fill-rule="evenodd">
        <g id="yanbal-styleguide-pag2" transform="translate(-1370.000000, -4588.000000)">
            <g id="Group" transform="translate(1368.000000, 4586.000000)">
                <g id="colors/brand-secondary" transform="translate(2.000000, 2.000000)">
                    <mask id="mask-2" fill="white">
                        <use xlink:href="#path-1"></use>
                    </mask>
                    <use id="Mask" fill="#000000" fill-rule="nonzero" xlink:href="#path-1"></use>
                    <g id="Group" mask="url(#mask-2)">
                        <g transform="translate(-4.000000, -3.000000)" id="colors/brand-secondary">
                            <rect id="box" fill="#1C1F28" fill-rule="nonzero" x="0" y="0" width="26.4058266" height="25.7456809"></rect>
                        </g>
                    </g>
                </g>
            </g>
        </g>
    </g>
</svg>