<?xml version="1.0" encoding="UTF-8"?>
<svg width="16px" height="16px" viewBox="0 0 16 16" version="1.1" xmlns="http://www.w3.org/2000/svg" xmlns:xlink="http://www.w3.org/1999/xlink">
    <title>3. icons/outline/icon-fullscreen</title>
    <defs>
        <path d="M15.7086667,0.297256512 C15.8021711,0.393856025 15.8619638,0.523495613 15.8685727,0.667113694 L15.8686144,0.668363634 L16,4.88805617 C15.9782344,5.1808129 15.7565551,5.41592658 15.4719559,5.45865368 L15.4685368,5.4590495 C15.1529987,5.4590495 14.8971074,5.20335348 14.8971074,4.88805617 L14.8971074,4.88805617 L14.8171336,1.95313507 L10.1828416,6.55537168 C10.0811648,6.64976297 9.9444629,6.70767684 9.79429306,6.70767684 C9.64412321,6.70767684 9.50731708,6.64976297 9.40532751,6.55497587 L9.40564023,6.55524669 C9.31432495,6.45448071 9.25838913,6.32002885 9.25838913,6.17264012 C9.25838913,6.02525139 9.31424156,5.89088286 9.40605719,5.78957524 L9.40564023,5.79005439 L14.045728,1.18206805 L11.057175,1.09636385 C10.7416369,1.09636385 10.4857457,0.840667832 10.4857457,0.525370523 L10.4857457,0.525370523 C10.5292768,0.238946822 10.7648619,0.0191240787 11.0554029,0.000124993978 L11.0572167,0 L15.3086933,0.125660613 C15.4536094,0.132410288 15.5834939,0.19207408 15.6802297,0.285694569 L15.6800213,0.285486246 L15.7086667,0.297256512 Z M0.291354106,15.7085349 C0.199038114,15.6132895 0.139495551,15.4857956 0.13146898,15.3446357 L0.131385587,15.3430941 L0,11.1234016 C0.021765559,10.8306449 0.243444858,10.5955312 0.528044136,10.5528041 L0.531463247,10.5524083 C0.847001307,10.5524083 1.10289256,10.8081043 1.10289256,11.1234016 L1.10289256,11.1234016 L1.19427038,14.0869047 L5.82856234,9.48466806 C5.93023919,9.39027677 6.06694108,9.33236289 6.21711093,9.33236289 C6.36728078,9.33236289 6.50408691,9.39027677 6.60607648,9.48506387 L6.60576376,9.48479305 C6.69707903,9.58555903 6.75301485,9.72001088 6.75301485,9.86739962 C6.75301485,10.0147884 6.69716242,10.1491569 6.60534679,10.2504645 L6.60576376,10.2499854 L1.954272,14.8579717 L4.94282501,14.9436759 C5.25112874,14.9612167 5.49674181,15.2066216 5.51417094,15.5130651 L5.51427518,15.5147109 C5.44814457,15.7909892 5.20578382,15.9942503 4.91493007,16 L4.91424208,16 L0.66276544,15.8687147 C0.661681332,15.8687147 0.660513831,15.8687355 0.659158695,15.8687355 C0.514075817,15.8687355 0.383315677,15.8073843 0.291604285,15.7090973 L0.291354106,15.7088474 L0.291354106,15.7085349 Z" id="path-1"></path>
    </defs>
    <g id="Yanbal-UI-Visual-Kit" stroke="none" stroke-width="1" fill="none" fill-rule="evenodd">
        <g id="yanbal-styleguide-pag2" transform="translate(-172.000000, -4638.000000)">
            <g id="Group" transform="translate(168.000000, 4634.000000)">
                <g id="colors/brand-secondary" transform="translate(4.000000, 4.000000)">
                    <mask id="mask-2" fill="white">
                        <use xlink:href="#path-1"></use>
                    </mask>
                    <use id="Mask" fill="#000000" fill-rule="nonzero" xlink:href="#path-1"></use>
                    <g id="Group" mask="url(#mask-2)">
                        <g transform="translate(-6.000000, -5.000000)" id="colors/brand-secondary">
                            <rect id="box" fill="#1C1F28" fill-rule="nonzero" x="0" y="0" width="26.4058266" height="25.7456809"></rect>
                        </g>
                    </g>
                </g>
            </g>
        </g>
    </g>
</svg>