<?xml version="1.0" encoding="UTF-8"?>
<svg width="10px" height="19px" viewBox="0 0 10 19" version="1.1" xmlns="http://www.w3.org/2000/svg" xmlns:xlink="http://www.w3.org/1999/xlink">
    <title>3. icons/outline/icon-person</title>
    <defs>
        <path d="M9.98829786,13.3772362 C9.96518719,12.2015701 9.54571383,11.1293012 8.85994346,10.2870678 L8.86673825,10.2956771 C7.9820735,9.23984237 6.66979842,8.57410092 5.2038227,8.57410092 C5.12287243,8.57410092 5.0423416,8.57615784 4.96233506,8.58016565 L4.97359679,8.57972034 C4.9164912,8.5771969 4.84954995,8.57579735 4.78231509,8.57579735 C3.33584293,8.57579735 2.04212769,9.23683121 1.18038487,10.2764015 L1.17440797,10.2838233 C0.486079071,11.1211371 0.0511286899,12.1932788 0.000335545135,13.3662942 L0,13.3772362 L0,18.4062507 C0,18.7244579 0.246394987,18.9837991 0.556375777,19 L9.41281699,19 C9.73714233,19 10,18.7341911 10,18.4062719 L9.98829786,13.3772362 Z M1.19202409,17.8125013 L1.19202409,13.5731735 C1.19202409,11.4417406 2.90089255,9.71382398 5.00882903,9.71382398 C7.11676551,9.71382398 8.82563397,11.4417406 8.82563397,13.5731735 L8.82563397,17.8125013 L1.19202409,17.8125013 Z M4.97917523,0 C2.94604434,0 1.29476382,1.65314659 1.26833964,3.70255725 C1.26833964,5.79393327 2.94300346,7.48726397 5.00880806,7.48726397 C7.07461266,7.48726397 8.74927648,5.79393327 8.74927648,3.70510189 C8.72283133,1.65314659 7.07157178,0 5.03844089,0 C5.02803899,0 5.01759515,0 5.00717228,0.000148437334 C5.00002097,0 4.98964004,0 4.97917523,0 Z M4.98515213,6.19901875 C3.61717656,6.19901875 2.5062705,5.08599321 2.4897449,3.7067135 C2.4897449,2.29838248 3.61755404,1.15798085 5.00885,1.15798085 C6.40014596,1.15798085 7.5279551,2.29836127 7.5279551,3.70516551 C7.51142951,5.08601441 6.40052345,6.19901875 5.03254788,6.19901875 C5.02422216,6.19901875 5.01589645,6.19901875 5.00759171,6.19887031 C5.00178258,6.19891272 4.99347784,6.19901875 4.98515213,6.19901875 Z" id="path-1"></path>
    </defs>
    <g id="Yanbal-UI-Visual-Kit" stroke="none" stroke-width="1" fill="none" fill-rule="evenodd">
        <g id="yanbal-styleguide-pag2" transform="translate(-943.000000, -4637.000000)">
            <g id="Group" transform="translate(936.000000, 4634.000000)">
                <g id="colors/brand-secondary" transform="translate(7.000000, 3.000000)">
                    <mask id="mask-2" fill="white">
                        <use xlink:href="#path-1"></use>
                    </mask>
                    <use id="Mask" fill="#000000" fill-rule="nonzero" xlink:href="#path-1"></use>
                    <g id="Group" mask="url(#mask-2)">
                        <g transform="translate(-9.000000, -4.000000)" id="colors/brand-secondary">
                            <rect id="box" fill="#1C1F28" fill-rule="nonzero" x="0" y="0" width="26.4058266" height="25.7456809"></rect>
                        </g>
                    </g>
                </g>
            </g>
        </g>
    </g>
</svg>