<?xml version="1.0" encoding="UTF-8"?>
<svg width="18px" height="18px" viewBox="0 0 18 18" version="1.1" xmlns="http://www.w3.org/2000/svg" xmlns:xlink="http://www.w3.org/1999/xlink">
    <title>3. icons/outline/icon-home</title>
    <defs>
        <path d="M17.778191,8.5838456 L9.36588891,0.146431259 C9.25628045,0.0528427822 9.11725926,0.00105219508 8.97331481,0.000182743961 C8.82037776,-0.00372566684 8.67248701,0.0552008354 8.5639161,0.163306088 L0.151613982,8.60072043 C0.0507324227,8.70868657 -0.00367073335,8.85217378 0.000192543695,9.00009137 C0.00148574689,9.15358369 0.0617492643,9.30066266 0.168438586,9.4107122 C0.276460704,9.50764587 0.416070604,9.56165615 0.561012685,9.56258566 C0.715876661,9.56805264 0.866093976,9.50900796 0.97601959,9.39946232 L2.09765987,8.27447374 L2.09765987,17.4375057 C2.09765987,17.7481627 2.3487476,18 2.65848001,18 L15.2657168,18 C15.5754492,18 15.8265369,17.7481627 15.8265369,17.4375057 L15.8265369,8.3082234 L16.9481772,9.43321197 C17.0691357,9.53653917 17.2281152,9.58355766 17.3856169,9.56258566 C17.6298882,9.58607942 17.861021,9.44756167 17.9561321,9.22067625 C18.0512432,8.99379084 17.9882421,8.73123397 17.8006238,8.57259571 L17.778191,8.5838456 Z M14.6824638,16.8300119 L3.26416577,16.8300119 L3.26416577,7.13261033 L3.26416577,7.13261033 L8.97331481,1.40641847 L9.05743783,1.49079261 L14.6656392,7.1157355 L14.6824638,16.8300119 Z" id="path-1"></path>
    </defs>
    <g id="Yanbal-UI-Visual-Kit" stroke="none" stroke-width="1" fill="none" fill-rule="evenodd">
        <g id="yanbal-styleguide-pag2" transform="translate(-1467.000000, -4541.000000)">
            <g id="Group" transform="translate(1464.000000, 4538.000000)">
                <g id="colors/brand-secondary-2" transform="translate(3.000000, 3.000000)">
                    <mask id="mask-2" fill="white">
                        <use xlink:href="#path-1"></use>
                    </mask>
                    <use id="Mask" fill="#000000" fill-rule="nonzero" xlink:href="#path-1"></use>
                    <g id="Group" mask="url(#mask-2)">
                        <g transform="translate(-3.000000, -3.000000)" id="colors/brand-secondary">
                            <rect id="box" fill="#1C1F28" fill-rule="nonzero" x="0" y="0" width="24" height="24"></rect>
                        </g>
                    </g>
                </g>
            </g>
        </g>
    </g>
</svg>