<?xml version="1.0" encoding="UTF-8"?>
<svg width="20px" height="21px" viewBox="0 0 20 21" version="1.1" xmlns="http://www.w3.org/2000/svg" xmlns:xlink="http://www.w3.org/1999/xlink">
    <title>3. icons/seal/icon-cleansafe</title>
    <defs>
        <path d="M10.7394978,0 C5.61840993,0.00748981996 1.468974,4.16299173 1.46151652,9.29088626 L1.46151652,9.29161385 C1.46551236,9.91258412 1.53049287,10.515964 1.65066727,11.0991428 L1.64043194,11.039802 C1.20403046,11.2058834 0.767628981,11.3938137 0.182847155,11.6472906 L0.182847155,11.6472906 C0.098037016,11.6831134 0.0341462841,11.754288 0.00880367276,11.8418333 L0.00826946931,11.8439733 C0.00303427556,11.8672773 0,11.8940053 0,11.9214608 C0,11.9967656 0.022650226,12.0667633 0.0614761323,12.1249913 L0.060642775,12.1236646 C0.0597025769,12.1282655 0.0591470053,12.1335511 0.0591470053,12.1389652 C0.0591470053,12.1443793 0.0597025769,12.1496649 0.0607282475,12.154758 L0.060642775,12.1542444 C1.12766073,13.5048302 2.24968028,14.7074813 3.46208705,15.8123153 L3.48640399,15.8341856 C2.56122773,17.1453107 1.95898813,18.8934988 1.42219914,20.5630011 L1.42219914,20.5630011 C1.41087403,20.5929604 1.40431401,20.6276276 1.40431401,20.6638141 C1.40431401,20.7239252 1.42239146,20.7797779 1.45341799,20.826279 L1.45273421,20.825209 C1.51089828,20.9018834 1.59675546,20.9548899 1.69513437,20.9691847 L1.69714297,20.9694201 L1.75389675,20.9694201 C2.31248124,20.9694201 2.95399547,21 3.59117197,21 C6.06122185,21 8.5400113,20.8077042 9.94086368,19.4353766 C10.1849092,19.1926208 10.3939323,18.9150267 10.5599627,18.6105334 L10.5692792,18.5918731 C11.8821376,18.5573771 13.1177716,18.2631984 14.2388295,17.7590265 L14.1783577,17.7833577 C15.3428998,17.2628366 16.3386337,16.5748432 17.186265,15.7369249 L17.1851966,15.7379735 C18.027208,14.9131731 18.7171638,13.9368216 19.2117508,12.8523813 L19.2363028,12.7922701 C19.7165089,11.7536033 19.9976281,10.5382623 20,9.25743887 L20,9.25660429 C19.9728411,4.14914626 15.8408416,0.0172479854 10.7411432,0 L10.7394978,0 L10.7394978,0 Z M2.17724229,20.4012852 L2.30380577,20.0472735 C2.86677073,18.4389524 3.39917925,16.9224136 4.25452444,15.8691095 C4.42987137,15.6575756 4.62006917,15.4699021 4.82729737,15.3025368 L4.83494716,15.2965663 C4.8583239,15.2745676 4.88400841,15.2544307 4.91138099,15.2366691 L4.91349644,15.2353852 L4.95715154,15.2004184 C5.11407915,15.0810521 5.29113553,14.9679344 5.47727338,14.8696466 L5.49829963,14.8595246 L5.52013787,14.8595246 L5.66415912,14.7895911 C5.85382271,14.7034582 6.07803858,14.6269336 6.31048118,14.5718299 L6.33622978,14.5666726 L6.41041996,14.5666726 C6.67273522,14.5140513 6.97438922,14.4838138 7.28307334,14.4836426 L7.55380764,14.4836426 C7.73274443,14.4836426 7.91601894,14.5098784 8.10803303,14.5360714 L8.32624445,14.5666512 L8.49646304,14.5972311 C8.96154056,14.685397 9.35593228,14.7882429 9.73991771,14.9141575 L9.67038579,14.8944272 L9.98896336,14.9993274 L4.89612414,18.2771723 C4.81283114,18.3198 4.75680388,18.4051412 4.75680388,18.5036002 C4.75680388,18.5320187 4.7614835,18.5593887 4.77009486,18.5848969 L4.76956066,18.5831207 C4.81509616,18.7172313 4.9288815,18.8166319 5.06839407,18.8406635 L5.07065909,18.8409845 C5.08843738,18.8441944 5.10892942,18.8460348 5.12984883,18.8460348 C5.20399627,18.8460348 5.27275894,18.8228805 5.32927766,18.7833985 L5.32814515,18.7841475 L10.4689986,15.4538525 C10.4805374,15.6267176 10.487076,15.8285575 10.487076,16.0319596 C10.487076,16.5624957 10.4423952,17.0825674 10.3566022,17.5886438 L10.3642306,17.5342035 C10.2350175,18.0754821 9.96896278,18.5420979 9.60461466,18.9111748 L9.60487108,18.910918 C9.10073261,19.4139129 8.47560774,19.7956156 7.77704058,20.0084548 L7.74580036,20.0166294 C6.43659593,20.3924686 4.69096865,20.3924686 2.82313699,20.3924686 L2.66603844,20.3924686 L2.17724229,20.4012852 Z M5.81683446,10.681382 C5.83822397,10.6809327 5.86343837,10.6806545 5.88871688,10.6806545 C6.75245974,10.6806545 7.54453387,10.9878655 8.16198758,11.4990992 L8.15598313,11.4942843 C8.91882565,12.1900244 9.51497533,13.0554624 9.88643903,14.0318995 L9.90156767,14.077245 L10.0063143,14.3219909 L9.97577922,14.3219909 C8.37853229,13.7756835 7.06496875,13.6620736 5.96083434,13.9810971 C5.13771231,14.2315995 4.44435897,14.7040787 3.92846802,15.3289009 L3.92282683,15.3359628 C2.95087572,14.4361144 2.05627726,13.4931247 1.2253986,12.495074 L1.18657269,12.4470964 L0.916009329,12.1105895 L1.28693883,11.9357771 C3.08055895,11.1228748 4.47271449,10.7295309 5.65097497,10.6901986 L5.81683446,10.681382 Z M9.4302934,14.7809029 C9.20772287,14.7153563 8.99389192,14.6541537 8.75822273,14.6060905 C8.96335685,14.6541537 9.185906,14.7109908 9.41717336,14.7809029 L9.4302934,14.7809029 Z M4.70838368,15.3796177 C4.58508953,15.492286 4.47113325,15.607779 4.36335236,15.7289429 L4.35927105,15.7336294 C4.46997937,15.6068588 4.58399975,15.4912588 4.70464426,15.3829346 L4.70838368,15.3796391 L4.70838368,15.3796177 Z M5.8343136,8.91573188 C5.79884249,8.78005914 5.76963224,8.61648148 5.7525591,8.44930869 L5.75136249,8.43499244 L5.75136249,8.15964526 C5.75136249,6.84852017 6.35796118,5.7865065 7.33115165,5.38441017 C7.40803421,5.3499784 7.49968215,5.31854255 7.59444984,5.29508872 L7.60607411,5.29264917 C7.74069337,5.26206931 7.89527048,5.24454313 8.05395027,5.24454313 C8.05758286,5.24454313 8.06123681,5.24454313 8.06486939,5.24456453 L8.06431382,5.24456453 C8.87602527,5.24456453 9.8099411,5.71220749 10.643448,6.55568961 C10.7067191,6.60758337 10.788495,6.63901921 10.8775574,6.63901921 C10.8827071,6.63901921 10.8878354,6.63891221 10.8929211,6.63871962 L10.8921945,6.63874102 L10.9052718,6.63874102 C10.9063616,6.63876242 10.9076437,6.63876242 10.9089472,6.63876242 C10.9966206,6.63876242 11.0765375,6.60555042 11.1368597,6.55106732 L11.1365606,6.55132412 C12.0093635,5.67724073 12.9040047,5.24019904 13.7156948,5.24019904 C13.7169982,5.24019904 13.7185581,5.24019904 13.720118,5.24019904 C13.8841185,5.24019904 14.0436743,5.25933018 14.1966702,5.29543111 L14.1826527,5.29264917 C14.2895361,5.316745 14.3827439,5.34830924 14.4714004,5.38824068 L14.4619343,5.38445297 C15.4351247,5.7865493 16.037343,6.84856297 16.037343,8.15093567 L16.037343,8.42189595 C16.0139448,8.61470532 15.9833243,8.78243449 15.9437505,8.94673974 L15.9500541,8.91577468 C15.6009201,10.3361655 14.4138987,11.6604085 13.7374689,12.3247341 C13.2133299,12.845084 12.6429502,13.320602 12.0336805,13.7438838 L11.9918844,13.7713608 C11.721321,13.9549256 11.088525,14.3351516 10.7568701,14.5230819 C10.0804404,12.6569184 9.22945427,11.4113185 8.13843989,10.7120475 C7.60654421,10.3570728 6.96746594,10.1202233 6.27868539,10.0534355 L6.2619114,10.0521302 C6.10959932,9.73757913 5.96412503,9.36064859 5.84828836,8.97092116 L5.83422812,8.91581748 L5.8343136,8.91573188 Z M10.8704204,17.9189235 C11.0215145,17.3976106 11.1084187,16.798853 11.1084187,16.1797445 C11.1084187,15.8294349 11.0805974,15.4856094 11.0270275,15.1504078 L11.0318781,15.1873219 C12.2687086,14.4904905 13.3367522,13.6993943 14.2954765,12.7935541 L14.2874421,12.8010867 C14.9468628,12.1550148 15.5242726,11.4293369 16.0054403,10.6384761 L16.033048,10.5896424 C16.2888673,10.1647129 16.5019931,9.67391566 16.6470614,9.15463574 L16.6571258,9.11245735 L16.6571258,9.05125483 C16.7010373,8.87650663 16.7364871,8.66651347 16.7562312,8.45196223 L16.7574706,8.43503524 L16.7574706,8.27334072 C16.7585817,8.25440218 16.7592014,8.23225371 16.7592014,8.20997685 C16.7592014,8.18769998 16.7585603,8.16553012 16.757321,8.14357424 L16.7574706,8.14661297 C16.7574706,7.99367085 16.7574706,7.84507282 16.7356323,7.70957128 L16.7356323,7.70957128 C16.6773187,6.38276037 15.8806931,5.25543547 14.7493571,4.72472823 L14.7281813,4.71580464 C14.660252,4.68518198 14.5775786,4.65535109 14.4924266,4.63149067 L14.4794348,4.62838774 C13.4102373,4.30934281 12.1228497,4.71141775 10.953286,5.72973367 L10.8747368,5.79528029 L10.7961875,5.72973367 C9.64406025,4.72453563 8.32613761,4.31370831 7.27439787,4.62838774 C7.17531382,4.65449511 7.09110199,4.6843688 7.01013811,4.72019154 L7.02129228,4.71578324 C5.86756242,5.25605605 5.07044541,6.38537111 5.01405489,7.70678934 L5.01379847,7.71391537 C5.01379847,7.8668575 5.01379847,8.01545552 5.01379847,8.15095707 C5.0127087,8.16989561 5.01208902,8.19204408 5.01208902,8.21432094 C5.01208902,8.23659781 5.0127087,8.25876767 5.01390532,8.28074495 L5.01375574,8.27768482 L5.01375574,8.44815312 C5.01375574,8.50935565 5.03995308,8.57490228 5.04429081,8.63608341 C5.04862854,8.69726453 5.07048814,8.79341242 5.08794591,8.87646383 C5.10540368,8.95951523 5.08794591,9.01194397 5.12286145,9.08624298 C5.22993719,9.46084098 5.35474848,9.78134108 5.50496649,10.0870755 L5.48945322,10.0521088 C4.3145048,10.1426286 3.22594776,10.4073402 2.21405959,10.8211849 L2.28626253,10.7950561 C2.19912327,10.3439122 2.14839531,9.82426844 2.14662175,9.29311181 L2.14662175,9.29163525 C2.14662175,4.53900209 5.99374127,0.686217305 10.7394337,0.686217305 C15.4851262,0.686217305 19.3322457,4.53898069 19.3322457,9.29163525 L19.3322457,9.29163525 C19.3113049,11.6045344 18.3587347,13.6906205 16.8327291,15.1950471 L16.8316394,15.1961171 C15.3007405,16.7584508 13.2161505,17.7719732 10.8965536,17.9176181 L10.8703349,17.9189235 L10.8704204,17.9189235 Z" id="path-1"></path>
    </defs>
    <g id="Yanbal-UI-Visual-Kit" stroke="none" stroke-width="1" fill="none" fill-rule="evenodd">
        <g id="yanbal-styleguide-pag2" transform="translate(-1274.000000, -4684.000000)">
            <g id="Group" transform="translate(1272.000000, 4682.000000)">
                <g id="colors/brand-secondary" transform="translate(2.000000, 2.000000)">
                    <mask id="mask-2" fill="white">
                        <use xlink:href="#path-1"></use>
                    </mask>
                    <use id="Mask" fill="#000000" fill-rule="nonzero" xlink:href="#path-1"></use>
                    <g id="Group" mask="url(#mask-2)">
                        <g transform="translate(-4.000000, -3.000000)" id="colors/brand-secondary">
                            <rect id="box" fill="#1C1F28" fill-rule="nonzero" x="0" y="0" width="26.4058266" height="25.7456809"></rect>
                        </g>
                    </g>
                </g>
            </g>
        </g>
    </g>
</svg>