<?xml version="1.0" encoding="UTF-8"?>
<svg width="18px" height="22px" viewBox="0 0 18 22" version="1.1" xmlns="http://www.w3.org/2000/svg" xmlns:xlink="http://www.w3.org/1999/xlink">
    <title>3. icons/outline/icon-awards</title>
    <defs>
        <path d="M17.820323,9.04435278 L16.3704262,7.33190922 L16.3704262,7.29959665 L16.8836673,5.10251362 C16.8885669,5.0739332 16.8914189,5.04100679 16.8914189,5.00731921 C16.8914189,4.7563566 16.7353868,4.54215076 16.5157084,4.45768629 L16.5117107,4.45636039 L14.4523601,3.73905076 L13.8108515,1.60008616 C13.7415987,1.36739145 13.5307689,1.20079509 13.2814734,1.20079509 C13.2417646,1.20079509 13.2030552,1.20504287 13.1658083,1.2130228 L13.1694404,1.21235985 L11.0396181,1.69049261 L9.37801402,0.139611919 C9.28116735,0.0529376182 9.15289975,4.54747351e-13 9.01237092,4.54747351e-13 C8.8718421,4.54747351e-13 8.7435745,0.0529376182 8.64621593,0.140078438 L8.64675221,0.139611919 L7.01086502,1.66468675 L4.88104276,1.18655399 L4.7655483,1.18655399 C4.5190561,1.18900935 4.31202898,1.35590035 4.24684701,1.58334059 L4.24587196,1.58719551 L3.60436334,3.75196596 L1.51293361,4.43048087 C1.29206081,4.51330025 1.13749128,4.72387215 1.13749128,4.97083252 C1.13749128,5.0082768 1.14105021,5.04483715 1.14782679,5.0803417 L1.14729052,5.07670776 L1.59634899,7.29969487 L0.140090057,9.04442644 C0.0530913769,9.14733069 -4.54747351e-13,9.28193367 -4.54747351e-13,9.42893623 C-4.54747351e-13,9.57593879 0.0529451197,9.71044355 0.140748214,9.81425628 L0.140041304,9.8133969 L1.53214206,11.4611908 L1.53214206,11.4935033 L1.08954328,13.6776712 C1.08332735,13.7095172 1.07974405,13.746053 1.07974405,13.7835464 C1.07974405,14.0305068 1.2342892,14.2410541 1.45126181,14.3226213 L1.45518638,14.323898 L3.51453702,15.0218103 L4.15604564,17.1801723 L4.15604564,17.2513041 L2.71899516,21.2576948 C2.71597251,21.280014 2.71431493,21.3058199 2.71431493,21.3320186 C2.71431493,21.3582173 2.71599689,21.3839741 2.7193608,21.409338 L2.71904391,21.4063179 C2.71904391,21.406367 2.71904391,21.4064161 2.71904391,21.4064897 C2.71904391,21.7124279 2.96166029,21.9613035 3.26368148,21.9684977 L3.26436402,21.9685223 L7.53051698,21.9685223 C7.79146427,21.963808 8.00724244,21.7751379 8.05599485,21.5261396 L8.05653113,21.522653 L8.98031621,20.0298907 L9.93618038,21.5484588 C9.98312896,21.8023188 10.2003697,21.9922165 10.4620483,21.994279 L14.7541375,21.994279 C14.7753692,21.9979375 14.7997698,22 14.8247554,22 C14.849741,22 14.8741416,21.9979375 14.8979084,21.9939598 L14.8953489,21.994279 C15.0403629,21.9538883 15.1594163,21.861272 15.2339344,21.7383075 L15.2353726,21.7358275 C15.2807367,21.6495706 15.3073555,21.5471329 15.3073555,21.4384095 C15.3073555,21.3904317 15.3022609,21.3436325 15.2923154,21.2985766 L15.2931198,21.302898 L13.7534455,17.2511323 L14.3949541,15.1638776 L16.4606182,14.4595568 C16.681491,14.3767374 16.8360605,14.1661655 16.8360605,13.9192052 C16.8360605,13.8817609 16.8325016,13.8452005 16.825725,13.809696 L16.8262613,13.8133299 L16.3707188,11.5968495 L17.8077692,9.91023641 C17.9261157,9.8011692 18,9.64486081 18,9.47129123 C18,9.30390916 17.9313322,9.15265882 17.8207618,9.04457376 L17.8205911,9.04442644 L17.820323,9.04435278 Z M8.19727934,18.3238065 L7.05532722,20.8116782 L3.94389952,20.8116782 L5.34245997,17.4901618 L5.37453905,17.4901618 L6.97837153,17.1282414 L8.22935843,18.2913957 L8.19727934,18.3238065 Z M13.9710519,20.8181603 L10.9045252,20.8181603 L10.9045252,20.7729571 L9.73051833,18.3109159 L10.9430152,17.1800495 L12.6495203,17.5548606 L12.6495203,17.5936799 L13.9710519,20.8181603 Z M16.5949799,9.41913933 L15.3119139,10.9053949 C15.2245983,11.0100915 15.1715801,11.1463151 15.1715801,11.2949627 C15.1715801,11.3377842 15.1759921,11.3795254 15.1842801,11.4197933 L15.1835975,11.4158648 L15.5941172,13.4126639 L15.5492406,13.4126639 L13.7336764,14.0265536 C13.5629942,14.0844756 13.4323621,14.2203308 13.3818546,14.3910031 L13.3808552,14.394858 L12.777861,16.3334405 L12.7265003,16.3334405 L10.9045008,15.9199329 C10.8707398,15.9120511 10.8318597,15.9075333 10.7920777,15.9075333 C10.6479412,15.9075333 10.5175285,15.9666093 10.4233876,16.0620738 L10.4233632,16.0620984 L8.97992619,17.4449831 L7.54287572,16.0944109 C7.44836916,16.002433 7.31946779,15.9457142 7.17747639,15.9457142 C7.17511189,15.9457142 7.17277178,15.9457387 7.17038291,15.9457633 L7.0424322,15.9457633 L5.1178576,16.3786928 L5.1178576,16.3269583 L4.5276609,14.4270724 C4.47820158,14.2514403 4.34669195,14.1146275 4.17856925,14.0597747 L4.17483969,14.058768 L2.32076108,13.4125902 L2.72494295,11.4222733 C2.73264583,11.3859339 2.7369848,11.3442664 2.7369848,11.3013712 C2.7369848,11.1526253 2.68396655,11.0164264 2.59589532,10.9108458 L2.59667536,10.9118034 L1.28153028,9.34152532 L2.56459627,7.82939024 C2.65222873,7.72543019 2.70551512,7.58982051 2.70551512,7.44156572 C2.70551512,7.3981058 2.70095677,7.3557999 2.69223008,7.31494267 L2.69293699,7.31887125 L2.32083421,5.34795167 L2.3657108,5.34795167 L4.17474219,4.74056862 C4.34500999,4.67854616 4.47488641,4.54134049 4.52656397,4.36978431 L4.5275634,4.36578207 L5.13055761,2.42719961 L7.05513221,2.85372066 C7.09025832,2.86197067 7.13064969,2.86666042 7.17216237,2.86666042 C7.31581136,2.86666042 7.44629719,2.8100152 7.54294884,2.71784089 L7.54265633,2.71811098 L8.97970681,1.32228643 L10.4296035,2.6922069 C10.5249389,2.7839147 10.6544497,2.84033893 10.7969774,2.84033893 C10.83732,2.84033893 10.8765413,2.83589472 10.9143244,2.8272764 L10.9107411,2.8279639 L12.8353157,2.40144286 L12.8353157,2.45317735 L13.4255124,4.34655658 C13.4781894,4.52216411 13.6080658,4.65934522 13.7744334,4.72014 L13.7783336,4.72136768 L15.6387744,5.36754546 L15.2282547,7.36434456 C15.2203081,7.401175 15.2156522,7.44360367 15.2156522,7.48703903 C15.2156522,7.63517106 15.2689386,7.77095261 15.3572536,7.8757966 L15.3565223,7.87491267 L16.6395883,9.39348079 L16.5949799,9.41913933 Z M8.97992619,3.73244583 C5.98606494,3.79724285 3.58371669,6.2571479 3.58371669,9.28222831 C3.58371669,9.31675071 3.58403358,9.35117489 3.58466737,9.38552541 L3.58459424,9.38039371 C3.58408234,9.40958797 3.58371669,9.44396304 3.58371669,9.47833812 C3.58371669,12.5021417 5.98679622,14.9605736 8.97422216,15.0217121 L8.97990182,15.0217121 C11.9730074,14.960549 14.3761113,12.5021417 14.3761113,9.47833812 C14.3761113,9.44386483 14.3757944,9.40948975 14.3751606,9.37516378 L14.3752338,9.38029549 C14.3757457,9.35110123 14.3761113,9.31672615 14.3761113,9.2821792 C14.3761113,6.25707423 11.9737631,3.79716919 8.98587399,3.7325686 L8.97992619,3.73244583 L8.97992619,3.73244583 Z M8.97992619,13.8714484 C6.598639,13.8210889 4.68730067,11.8648033 4.68730067,9.45874433 C4.68730067,9.43114605 4.68761756,9.40362144 4.68808071,9.37614593 L4.68800758,9.38027094 C4.68759319,9.35694499 4.68730067,9.32939582 4.68730067,9.30179755 C4.68730067,6.89583682 6.59859024,4.93945299 8.97524596,4.8890935 L8.97990182,4.8890935 C11.362871,4.94637711 13.2728442,6.90573193 13.2728442,9.31439356 C13.2728442,9.3488914 13.2725273,9.38331559 13.2716985,9.417617 L13.2717961,9.4124853 C13.2719667,9.42621077 13.2720886,9.44236706 13.2720886,9.45867067 C13.2720886,11.8645332 11.3610671,13.8207206 8.98467955,13.8712765 L8.9800237,13.8713502 L8.97992619,13.8714484 Z" id="path-1"></path>
    </defs>
    <g id="Yanbal-UI-Visual-Kit" stroke="none" stroke-width="1" fill="none" fill-rule="evenodd">
        <g id="yanbal-styleguide-pag2" transform="translate(-651.000000, -4587.000000)">
            <g id="Group" transform="translate(648.000000, 4586.000000)">
                <g id="colors/brand-secondary" transform="translate(3.000000, 1.000000)">
                    <mask id="mask-2" fill="white">
                        <use xlink:href="#path-1"></use>
                    </mask>
                    <use id="Mask" fill="#000000" fill-rule="nonzero" xlink:href="#path-1"></use>
                    <g id="Group" mask="url(#mask-2)">
                        <g transform="translate(-5.000000, -2.000000)" id="colors/brand-secondary">
                            <rect id="box" fill="#1C1F28" fill-rule="nonzero" x="0" y="0" width="26.4058266" height="25.7456809"></rect>
                        </g>
                    </g>
                </g>
            </g>
        </g>
    </g>
</svg>