<?xml version="1.0" encoding="UTF-8"?>
<svg width="20px" height="20px" viewBox="0 0 20 20" version="1.1" xmlns="http://www.w3.org/2000/svg" xmlns:xlink="http://www.w3.org/1999/xlink">
    <title>3. icons/seal/icon-noanimaltested</title>
    <defs>
        <path d="M10,0 C4.47715139,0 0,4.47715139 0,10 C0,15.5228486 4.47715139,20 10,20 C15.5228486,20 20,15.5228486 20,10 L20,10 C19.9858126,4.48286488 15.5171137,0.0141874325 10.0013481,0 L10,0 Z M10,19.2124798 C4.92130576,19.2124798 0.804189893,15.0953639 0.804189893,10.0166697 C0.804189893,4.93797546 4.92130576,0.820859591 10,0.820859591 C15.0728524,0.820859591 19.1863304,4.92847437 19.1957887,9.99912265 L19.1957887,10.0000214 C19.1957887,10.0025037 19.1957887,10.0054139 19.1957887,10.0083455 C19.1957887,15.0887303 15.0797,19.2077721 10.000428,19.2124798 L9.9999572,19.2124798 L10,19.2124798 Z M7.63750361,3.97500615 L7.74449782,4.08200036 L7.63750361,3.97500615 Z M7.32501632,3.93447674 L7.43201053,3.93447674 L7.32501632,3.93447674 Z M14.5208478,7.57082482 C14.6555963,7.1756738 14.7333597,6.72045622 14.7333597,6.24709243 C14.7333597,5.81273873 14.6678793,5.3936638 14.5462268,4.99917614 L14.5541872,5.02913452 C14.387854,4.49332891 13.9782588,4.07825557 13.4578817,3.907557 L13.445877,3.90413319 C13.3369355,3.87928913 13.2118378,3.8650375 13.0834234,3.8650375 C12.6353316,3.8650375 12.2277265,4.03838952 11.9240341,4.32173159 L11.9250399,4.32081144 C11.3085392,4.89928635 10.8660111,5.65646299 10.6801622,6.50946364 L10.6750479,6.53745332 C10.6750479,6.58326825 10.6750479,6.62910457 10.6500326,6.67913506 C10.5997454,6.86678151 10.5502926,7.10933738 10.513294,7.35598044 L10.5083723,7.39580369 L10.4708815,7.63328804 C10.4418005,7.88322652 10.4251736,8.17292404 10.4250666,8.46649476 L10.4250666,8.46666595 C10.4250666,8.50415673 10.4250666,8.53749612 10.4250666,8.57500829 C10.3248344,8.56903802 10.2076544,8.5656356 10.0896611,8.5656356 C9.97166793,8.5656356 9.85448787,8.56905941 9.73816377,8.57573585 L9.75427709,8.57500829 C9.75427709,8.53751752 9.75427709,8.50000535 9.75427709,8.46251458 C9.75427709,8.46182982 9.75427709,8.46108086 9.75427709,8.4603105 C9.75427709,8.16751014 9.73762879,7.87858297 9.70523095,7.59444914 L9.70844077,7.62920086 C9.70844077,7.55004654 9.68342553,7.46671945 9.67095,7.38754373 C9.62579844,7.09842398 9.57354247,6.85481955 9.50938874,6.61611547 L9.52096552,6.66672373 C9.52096552,6.62090881 9.52096552,6.57087832 9.49595027,6.525042 C9.3049442,5.64403026 8.86243754,4.88685362 8.24824797,4.3104758 L8.24597969,4.30835732 C8.09026032,4.18088441 7.91153719,4.07303425 7.71841263,3.99272439 L7.7042894,3.98752447 C7.72183645,3.99379434 7.73698683,4.00226828 7.7504681,4.01279651 L7.75012572,4.01253972 L7.59596846,3.94586093 L7.63345923,3.94586093 C7.56660925,3.91909098 7.48450189,3.89332677 7.40016905,3.87338305 L7.38765073,3.87085799 L7.41266597,3.87085799 L7.24181762,3.84584274 L7.32097194,3.84584274 C7.23143918,3.82497887 7.12863914,3.81297412 7.02307865,3.81297412 C6.91751816,3.81297412 6.81471812,3.82493607 6.71596247,3.84761884 L6.72514257,3.84584274 C6.19276077,4.01996512 5.78316553,4.43503846 5.62006355,4.95881793 L5.61683233,4.97084408 C5.50316168,5.33530916 5.43765982,5.75438409 5.43765982,6.18880199 C5.43765982,6.66216578 5.51542322,7.11738335 5.65890245,7.54232156 L5.65019312,7.51253437 C5.88549479,8.38648449 6.24854755,9.1515145 6.72424382,9.83210468 L6.70853707,9.80839477 C6.00639825,10.4546612 5.56489734,11.3747686 5.55436911,12.3981683 L5.55434771,12.4000728 C5.55434771,14.5417331 7.58351433,16.287579 10.0793683,16.287579 C12.5752223,16.287579 14.6043889,14.5834394 14.6043889,12.4584274 C14.5938607,11.4331447 14.1523598,10.5130372 13.452746,9.86903908 L13.4502209,9.86674941 C13.9145972,9.21021153 14.2817158,8.44530991 14.5089073,7.62241743 L14.521019,7.57093181 L14.5208478,7.57082482 Z M8.95832575,8.97914683 L8.91666221,9.4583311 L9.39999786,9.38332816 C9.60476338,9.34951799 9.84077121,9.33021624 10.0812514,9.33021624 C10.3217316,9.33021624 10.5577394,9.34953939 10.7877342,9.38670918 L10.7625049,9.38334956 L11.2416892,9.4583525 L11.1875502,8.97916823 C11.1733627,8.81925468 11.165274,8.63323454 11.165274,8.44533131 C11.165274,7.83901651 11.249457,7.25243144 11.4068241,6.69653232 L11.3958893,6.74170527 C11.5401817,6.01793223 11.8923424,5.39278645 12.3866557,4.91338819 L12.387533,4.91253223 C12.5654216,4.73858104 12.8090474,4.63126585 13.0777527,4.63126585 C13.1282326,4.63126585 13.1778565,4.63505344 13.2263249,4.64235045 L13.2208895,4.64166569 C13.5062645,4.75732643 13.7210875,4.99538855 13.8025957,5.28893787 L13.8042434,5.2958069 C13.8914865,5.58419909 13.9417096,5.91562436 13.9417096,6.2587762 C13.9417096,6.66000449 13.8730407,7.04518366 13.7468517,7.40322909 L13.7542557,7.37911259 C13.5187186,8.26378353 13.1268844,9.03548998 12.6061222,9.70152895 L12.616736,9.68742711 L12.3792517,9.98326611 L12.6750907,10.2249232 C13.3620363,10.743032 13.8064261,11.5510523 13.8250431,12.4636273 L13.8250859,12.4666018 C13.8250859,14.1874325 12.158437,15.5874303 10.0750885,15.5874303 C7.99174005,15.5874303 6.32509121,14.1874539 6.32509121,12.4666018 C6.3437296,11.5510523 6.78816216,10.743032 7.46781079,10.2301873 L7.4750864,10.2249232 L7.77092539,9.98743888 L7.52926827,9.69159988 C7.01911987,9.03968415 6.62730706,8.2679349 6.40199865,7.42805174 L6.3917914,7.38328536 C6.27296363,7.04931363 6.20433755,6.66413447 6.20433755,6.26290618 C6.20433755,5.91975434 6.25456063,5.58832907 6.34803077,5.27556359 L6.34176091,5.29993687 C6.42491681,4.99951853 6.63969699,4.76143501 6.91856671,4.64814954 L6.92511475,4.64579566 C6.94762633,4.64284262 6.97366872,4.64119491 7.00011769,4.64119491 C7.02656666,4.64119491 7.05258766,4.64284262 7.07815927,4.64611665 L7.07512064,4.64581706 C7.3401239,4.66105304 7.57762965,4.76755508 7.75926302,4.93405947 L7.75844987,4.93333191 C8.25368328,5.41356473 8.60580123,6.0387319 8.74639162,6.74031435 L8.75009362,6.76250495 C8.89562715,7.27209698 8.97929662,7.85733392 8.97929662,8.4621508 C8.97929662,8.64412655 8.97172143,8.8243262 8.95687063,9.00245017 L8.95845415,8.97914683 L8.95832575,8.97914683 Z M8.08749987,4.22779068 C8.03751217,4.19212594 7.99165445,4.15202028 7.93749398,4.12079646 C7.99163305,4.16980686 8.03751217,4.19212594 8.08749987,4.22779068 Z M8.24165713,12.2916662 C8.24165713,12.6023132 8.4935215,12.8541562 8.8041471,12.8541562 C9.11477269,12.8541562 9.36663706,12.6023132 9.36663706,12.2916662 C9.36663706,11.9810192 9.11479409,11.7291763 8.8041471,11.7291763 C8.80267058,11.7291763 8.80121545,11.7291763 8.79973893,11.7291977 L8.79997432,11.7291977 C8.49112483,11.7315515 8.24163573,11.9824957 8.24163573,12.2916876 C8.24163573,12.2916876 8.24163573,12.291709 8.24163573,12.291709 L8.24163573,12.291709 L8.24165713,12.2916662 Z M11.4125162,12.8541562 C11.7231632,12.8541562 11.9750062,12.6023132 11.9750062,12.2916662 C11.9750062,11.9810192 11.7231632,11.7291763 11.4125162,11.7291763 C11.1018692,11.7291763 10.8500262,11.9810192 10.8500262,12.2916662 L10.8500262,12.2916662 C10.8523587,12.6013717 11.1028321,12.8518237 11.4122808,12.8541562 L11.4125162,12.8541562 L11.4125162,12.8541562 Z" id="path-1"></path>
    </defs>
    <g id="Yanbal-UI-Visual-Kit" stroke="none" stroke-width="1" fill="none" fill-rule="evenodd">
        <g id="yanbal-styleguide-pag2" transform="translate(-1226.000000, -4684.000000)">
            <g id="Group" transform="translate(1224.000000, 4682.000000)">
                <g id="colors/brand-secondary" transform="translate(2.000000, 2.000000)">
                    <mask id="mask-2" fill="white">
                        <use xlink:href="#path-1"></use>
                    </mask>
                    <use id="Mask" fill="#000000" fill-rule="nonzero" xlink:href="#path-1"></use>
                    <g id="Group" mask="url(#mask-2)">
                        <g transform="translate(-4.000000, -3.000000)" id="colors/brand-secondary">
                            <rect id="box" fill="#1C1F28" fill-rule="nonzero" x="0" y="0" width="26.4058266" height="25.7456809"></rect>
                        </g>
                    </g>
                </g>
            </g>
        </g>
    </g>
</svg>