<?xml version="1.0" encoding="UTF-8"?>
<svg width="20px" height="11px" viewBox="0 0 20 11" version="1.1" xmlns="http://www.w3.org/2000/svg" xmlns:xlink="http://www.w3.org/1999/xlink">
    <title>3. icons/outline/icon-stapler</title>
    <defs>
        <path d="M19.523893,10.0160789 L3.66838924,10.0160789 L3.66838924,8.16348686 L3.96986412,8.11950188 L6.21636144,7.65772435 L16.8576193,7.65772435 L16.8576193,7.99855398 C16.8557161,8.0141149 16.8546717,8.03207148 16.8546717,8.05033021 C16.8546717,8.32054215 17.0902533,8.53960375 17.3808427,8.53960375 C17.6714321,8.53960375 17.9070137,8.32054215 17.9070137,8.05033021 C17.9070137,8.03207148 17.9059461,8.01407174 17.9038804,7.99635257 L17.904066,7.99855398 L17.904066,5.24994604 L18.7494444,5.07955281 C18.8880314,5.05153883 19.002921,4.97349678 19.0733634,4.86718177 L19.0746399,4.86515302 C19.1270946,4.78980878 19.158312,4.697695 19.158312,4.5988475 C19.158312,4.56075452 19.1536932,4.52365434 19.1448966,4.48797859 L19.1455697,4.4912807 C19.1455697,4.44729572 18.0459721,0 14.1737061,0 C13.7689002,0.000431648465 13.3753976,0.0445245392 12.9979564,0.12735788 L13.0326785,0.1209479 L2.60425648,2.2648595 C1.75456106,2.44308715 1.04923192,2.91938965 0.607823864,3.56666811 L0.600164559,3.5787111 C0.281375008,4.03496353 0.091888448,4.59299866 0.091888448,5.19223464 C0.091888448,6.61786161 1.16467854,7.81048474 2.60054288,8.11015669 L2.62201215,8.11393361 L2.62201215,10.0159926 L0.476037401,10.0159926 C0.207288641,10.0432296 0,10.2530755 0,10.5080287 C0,10.7629818 0.207288641,10.9728061 0.473716399,10.9998273 L0.476107031,11 L19.5239626,11 C19.7927114,10.972763 20,10.7629171 20,10.5079639 C20,10.2530107 19.7927114,10.0431864 19.5262836,10.0161652 L19.523893,10.0159926 L19.523893,10.0160789 Z M16.8576657,5.46982777 L16.8576657,6.67924203 L10.981331,6.67924203 L16.8576657,5.46982777 Z M14.1737293,0.98948936 C16.5384352,0.98948936 17.6026144,3.18841456 17.9750191,4.23291751 L3.74530723,7.15194026 C3.61405459,7.17995425 3.46337518,7.19607632 3.30858759,7.19607632 C3.29999988,7.19607632 3.29138897,7.19601157 3.2828941,7.19590366 L3.28419386,7.19592524 C2.11071873,7.1700695 1.17013289,6.27940605 1.17013289,5.18446497 C1.17013289,4.7821686 1.29711488,4.40745457 1.51582285,4.09310657 L1.51069343,4.10098416 C1.81367697,3.65940778 2.28785756,3.34059222 2.84429446,3.22391764 L2.8585222,3.2213925 L13.2573979,1.10495532 C13.5297442,1.03912893 13.8444488,0.997518021 14.1681589,0.989618854 L14.1737061,0.98948936 L14.1737293,0.98948936 Z M4.25957152,5.19497561 C4.25957152,5.69594682 3.82549783,6.10199853 3.29004279,6.10199853 C2.75458775,6.10199853 2.32051406,5.69586049 2.32051406,5.19497561 C2.32051406,4.6940044 2.75458775,4.28795269 3.29004279,4.28795269 C3.82549783,4.28795269 4.25957152,4.69409073 4.25957152,5.19497561 Z" id="path-1"></path>
    </defs>
    <g id="Yanbal-UI-Visual-Kit" stroke="none" stroke-width="1" fill="none" fill-rule="evenodd">
        <g id="yanbal-styleguide-pag2" transform="translate(-410.000000, -4689.000000)">
            <g id="Group" transform="translate(408.000000, 4682.000000)">
                <g id="colors/brand-secondary" transform="translate(2.000000, 7.000000)">
                    <mask id="mask-2" fill="white">
                        <use xlink:href="#path-1"></use>
                    </mask>
                    <use id="Mask" fill="#000000" fill-rule="nonzero" xlink:href="#path-1"></use>
                    <g id="Group" mask="url(#mask-2)">
                        <g transform="translate(-4.000000, -8.000000)" id="colors/brand-secondary">
                            <rect id="box" fill="#1C1F28" fill-rule="nonzero" x="0" y="0" width="26.4058266" height="25.7456809"></rect>
                        </g>
                    </g>
                </g>
            </g>
        </g>
    </g>
</svg>