<?xml version="1.0" encoding="UTF-8"?>
<svg width="20px" height="20px" viewBox="0 0 20 20" version="1.1" xmlns="http://www.w3.org/2000/svg" xmlns:xlink="http://www.w3.org/1999/xlink">
    <title>3. icons/outline/icon-messenger</title>
    <defs>
        <path d="M10.9585991,1 C12.9973145,1 14.9621797,1.56677452 16.6428332,2.63338168 L16.6428332,2.63338168 L16.6764015,2.65346424 C17.182164,2.96139685 17.6521204,3.31618878 18.0750811,3.71114582 L18.0750811,3.71114582 C18.9635224,4.50329131 19.6662191,5.44047752 20.1697438,6.50262189 C20.6844579,7.58931161 20.9641938,8.75410019 20.9977621,9.96574808 L20.9977621,9.96574808 L21,10.0527725 C20.9910485,12.4849939 19.925814,14.7900257 18.0728432,16.3832422 C16.1437843,18.0880286 13.664205,19.0274462 11.0906344,19.0274462 L11.0906344,19.0274462 L11.0279736,19.0274462 C10.9742643,19.0296776 10.9183171,19.0296776 10.8646078,19.0296776 C10.0723957,19.0296776 9.27794562,18.9381903 8.56405953,18.7641415 L8.56405953,18.7641415 L6.26127336,20.8438023 C6.16728209,20.9375209 6.04419828,20.9910744 5.91440081,20.9933058 C5.88530827,20.9977686 5.85621573,21 5.82488531,21 C5.78684122,21 5.75327291,20.9977686 5.72418037,20.9910744 L5.72418037,20.9910744 L5.7018015,20.9843802 C5.52053262,20.9085128 5.40416247,20.7322325 5.40416247,20.5358697 L5.40416247,20.5358697 L5.40416247,17.4810889 C4.15989706,16.7380341 3.11704151,15.7294433 2.30692626,14.4865558 C1.45205326,13.1633382 1,11.6236751 1,10.0349213 L1,10.0349213 L1,10.0036818 C1.02014099,8.76525717 1.29540114,7.57369184 1.81682891,6.46022537 C2.3181157,5.38915542 3.02305024,4.44304362 3.91372944,3.64866674 C4.86930737,2.80966194 5.95244489,2.15586299 7.12957368,1.70512105 C8.35369811,1.23652795 9.64048338,1 10.9585991,1 Z M11.0973481,1.98850831 L10.9944053,1.98850831 C9.77251874,1.98850831 8.59091418,2.2027223 7.48092201,2.6222247 C6.4134497,3.02387593 5.45115811,3.60403883 4.61866398,4.34709361 C3.79512141,5.0856856 3.14837194,5.94477296 2.69408079,6.90204173 C2.22636231,7.89055004 1.98914625,8.94153743 1.98914625,10.0259958 L1.98914625,10.0259958 C2.02271456,11.4451634 2.43896162,12.824166 3.18641602,14.0179627 C3.9204431,15.1872141 4.95210921,16.1511771 6.16951997,16.8116702 L6.16951997,16.8116702 C6.32393421,16.900926 6.42016337,17.0504295 6.44030435,17.222247 L6.44030435,17.222247 L6.43806647,17.233404 L6.43806647,19.404552 L8.09186528,17.8604262 C8.18585655,17.7867901 8.29998881,17.7443936 8.41859684,17.7443936 C8.43649994,17.7443936 8.45216516,17.746625 8.47006826,17.7488564 L8.47006826,17.7488564 L8.49020924,17.7510878 C9.27570773,17.938525 10.0835851,18.0344751 10.8937003,18.0344751 L10.8937003,18.0344751 L11.0033568,18.0344751 C12.2140539,18.0344751 13.3889448,17.8224925 14.4944612,17.4029901 C15.5641714,16.996876 16.5242251,16.4189445 17.3477677,15.6803526 C18.1713103,14.943992 18.8180598,14.0849046 19.270113,13.1298672 C19.7378315,12.1413589 19.9750476,11.0926029 19.9750476,10.0126074 C19.9705718,8.92368627 19.7400694,7.87046748 19.2880161,6.88642196 C18.853866,5.94031016 18.236209,5.10353676 17.4551863,4.4006471 L17.4551863,4.4006471 L17.4462348,4.39395292 C17.0613181,4.039161 16.6361195,3.72676559 16.1504979,3.43668415 C14.637686,2.48834096 12.8898959,1.98850831 11.0973481,1.98850831 L11.0973481,1.98850831 Z M18.0124203,7.04038826 C18.1556451,7.04038826 18.2876804,7.10509874 18.374958,7.22113132 C18.4420947,7.27022202 18.5607027,7.41749414 18.3839096,7.77228606 L18.3839096,7.77228606 L18.3816717,7.77898025 L18.3771959,7.78344304 L12.6482041,13.6787906 C12.5631644,13.754658 12.4624594,13.7925918 12.352803,13.7925918 L12.352803,13.7925918 L12.3393756,13.7925918 C12.2364328,13.7925918 12.1424415,13.7524266 12.0685912,13.681022 L12.0685912,13.681022 L9.57110887,11.5589646 L4.41054045,13.681022 C4.25388833,13.681022 4.0099586,13.681022 3.89582634,13.5136673 C3.84659282,13.4801964 3.80854873,13.4311057 3.78840774,13.3753208 L3.78840774,13.3753208 C3.78393197,13.3530068 3.78393197,13.3329242 3.78393197,13.3195359 C3.78393197,13.2124289 3.82421394,13.1075533 3.89806423,13.027223 L3.89806423,13.027223 L7.29965313,9.42351891 L8.41412107,8.16501171 L9.32941703,7.1787348 C9.41221887,7.10286734 9.51963746,7.06047082 9.63153183,7.06047082 L9.63153183,7.06047082 C9.74118832,7.06047082 9.83965537,7.10063595 9.91126776,7.17204061 L9.91126776,7.17204061 L12.3684682,9.2740154 L17.9273806,7.04708245 C17.9564731,7.04261966 17.9855656,7.04038826 18.0124203,7.04038826 Z M9.81280072,8.31674663 L9.23766365,8.89914091 L8.20152176,9.98806203 L6.2724628,11.9494589 L9.62258028,10.6708691 C9.67628958,10.630704 9.74118832,10.6106214 9.81056283,10.6106214 L9.81056283,10.6106214 C9.90007833,10.6128528 9.98288016,10.6329354 10.0522547,10.6708691 L10.0522547,10.6708691 L10.0589683,10.6753319 L12.2879042,12.4515229 L16.0430793,8.80542229 L12.4065123,10.1554167 C12.3729439,10.1598795 12.3483272,10.1621109 12.3237104,10.1598795 C12.2073403,10.1598795 12.0976838,10.12864 12.0059304,10.0683923 L12.0059304,10.0683923 L12.0014546,10.0661609 L9.81280072,8.31674663 Z" id="path-1"></path>
    </defs>
    <g id="Yanbal-UI-Visual-Kit" stroke="none" stroke-width="1" fill="none" fill-rule="evenodd">
        <g id="yanbal-styleguide-pag2" transform="translate(-1226.000000, -4540.000000)">
            <g id="Group" transform="translate(1224.000000, 4538.000000)">
                <g id="elements" transform="translate(1.000000, 1.000000)">
                    <mask id="mask-2" fill="white">
                        <use xlink:href="#path-1"></use>
                    </mask>
                    <use id="Mask" fill="#000000" fill-rule="nonzero" xlink:href="#path-1"></use>
                    <g id="Group" mask="url(#mask-2)">
                        <g transform="translate(-0.428571, -0.428571)" id="colors/brand-secondary">
                            <rect id="box" fill="#1C1F28" fill-rule="nonzero" x="0" y="0" width="22.8571429" height="22.8571429"></rect>
                        </g>
                    </g>
                </g>
            </g>
        </g>
    </g>
</svg>