<?xml version="1.0" encoding="UTF-8"?>
<svg width="18px" height="16px" viewBox="0 0 18 16" version="1.1" xmlns="http://www.w3.org/2000/svg" xmlns:xlink="http://www.w3.org/1999/xlink">
    <title>3. icons/outline/icon-download </title>
    <defs>
        <path d="M17.409,11 C17.73525,11 18,11.259434 18,11.5778302 L18,11.5778302 L18,15.4221698 C18,15.740566 17.73525,16 17.409,16 L17.409,16 L0.59175,16 C0.2655,16 0,15.740566 0,15.4221698 L0,15.4221698 L0,11.5778302 C0,11.259434 0.2655,11 0.59175,11 C0.918,11 1.18275,11.259434 1.18275,11.5778302 L1.18275,11.5778302 L1.18275,14.8435535 L16.818,14.8435535 L16.818,11.5778302 C16.818,11.259434 17.08275,11 17.409,11 Z M8.98435883,0 C9.30635752,0 9.56960818,0.246142406 9.56960818,0.54805726 L9.56960818,0.54805726 L9.56960818,10.2390779 L13.0454093,7.37906674 C13.2982489,7.19018405 13.6678409,7.22810931 13.8686253,7.46086633 C13.9675302,7.57389849 14.012149,7.71593233 13.9972761,7.8609407 C13.9809159,8.00892359 13.9035767,8.13980294 13.7793878,8.23201339 L13.7793878,8.23201339 L9.36956742,11.8661461 C9.25950782,11.955382 9.12118968,12 8.98361518,12 C8.84604068,12 8.70772254,11.955382 8.59840659,11.8661461 L8.59840659,11.8661461 L8.59766294,11.8661461 L4.18338067,8.22978249 C3.96103053,8.0319762 3.93797751,7.70626511 4.13058181,7.48614984 C4.3328535,7.25339282 4.70244553,7.21695482 4.95231056,7.40435025 L4.95231056,7.40435025 L8.39687854,10.2390779 L8.39687854,0.54805726 C8.39687854,0.246142406 8.66087284,0 8.98435883,0 Z" id="path-1"></path>
    </defs>
    <g id="Yanbal-UI-Visual-Kit" stroke="none" stroke-width="1" fill="none" fill-rule="evenodd">
        <g id="yanbal-styleguide-pag2" transform="translate(-987.000000, -4494.000000)">
            <g id="Group" transform="translate(984.000000, 4490.000000)">
                <g id="elements" transform="translate(3.000000, 4.000000)">
                    <mask id="mask-2" fill="white">
                        <use xlink:href="#path-1"></use>
                    </mask>
                    <use id="icon" fill="#1E1210" xlink:href="#path-1"></use>
                    <g id="Group" mask="url(#mask-2)">
                        <g transform="translate(-3.000000, -4.000000)" id="color">
                            <rect id="box" fill="#1C1F28" fill-rule="nonzero" x="0" y="0" width="24" height="24"></rect>
                        </g>
                    </g>
                </g>
            </g>
        </g>
    </g>
</svg>