<?xml version="1.0" encoding="UTF-8"?>
<svg width="20px" height="16px" viewBox="0 0 20 16" version="1.1" xmlns="http://www.w3.org/2000/svg" xmlns:xlink="http://www.w3.org/1999/xlink">
    <title>3. icons/outline/icon-book </title>
    <defs>
        <path d="M19.503618,2.08814662 L17.8854303,2.08814662 L17.8854303,0.486782359 C17.8854303,0.218390601 17.6638469,0 17.391433,0 L17.391433,0 C15.1361407,0 12.2852342,0.202441582 9.99763733,1.77878351 C7.70995215,0.204682713 4.86143037,0 2.63614624,0 L2.56228512,0 C2.30835304,0.0227812055 2.11214082,0.232011456 2.11214082,0.484519469 C2.11214082,0.484519469 2.11214082,0.486738842 2.11214082,0.486738842 L2.11214082,0.486738842 L2.11214082,2.0881031 L0.4501443,2.0881031 C0.196212217,2.11312544 0,2.32468386 0,2.57941124 C0,2.57941124 0,2.58163061 0,2.58163061 L0,2.58163061 L0,15.5132176 C0,15.7816094 0.221583344,16 0.493997266,16 L0.493997266,16 L19.5060027,16 C19.7760981,15.9954525 19.9954292,15.7816529 20,15.5132176 L20,2.58163061 C20,2.58163061 20,2.58163061 20,2.58163061 C19.9977477,2.31091069 19.7760761,2.09256361 19.5036842,2.08801607 L19.5036842,2.08801607 L19.5036842,2.08801607 L19.503618,2.08814662 Z M0.985587698,15.0220836 L0.985587698,3.07996676 L2.10977815,3.07996676 L2.10977815,13.4388659 C2.10977815,13.7072577 2.3313615,13.9256483 2.60377542,13.9256483 L2.60377542,13.9256483 C5.15455631,13.9256483 7.18362823,14.3009398 8.64022682,15.0333763 L0.985587698,15.0220183 L0.985587698,15.0220836 Z M9.45285364,14.362386 C7.90393418,13.4684358 5.82173526,13.0066105 3.12091363,12.9634633 L3.12091363,0.991776627 C5.04613836,1.02360939 7.49532434,1.23290492 9.45285364,2.58633046 L9.45285364,14.362386 Z M10.503183,2.60001659 C12.4538009,1.23292668 14.9330171,1.02367467 16.8720425,0.991798385 L16.8720425,12.9634851 C14.1227088,13.0067628 12.0290277,13.475268 10.4777898,14.3919776 L10.503183,2.60001659 Z M19.0095986,15.0335068 L11.3549595,15.0335068 C12.811536,14.3010051 14.8429485,13.9257136 17.3914109,13.9257136 C17.6637807,13.9257136 17.8854082,13.7073665 17.8854082,13.4389312 L17.8854082,13.4389312 L17.8854082,3.08003204 L19.0095986,3.08003204 L19.0095986,15.0335068 L19.0095986,15.0335068 Z" id="path-1"></path>
    </defs>
    <g id="Yanbal-UI-Visual-Kit" stroke="none" stroke-width="1" fill="none" fill-rule="evenodd">
        <g id="yanbal-styleguide-pag2" transform="translate(-602.000000, -4494.000000)">
            <g id="Group" transform="translate(600.000000, 4490.000000)">
                <g id="elements" transform="translate(2.000000, 4.000000)">
                    <mask id="mask-2" fill="white">
                        <use xlink:href="#path-1"></use>
                    </mask>
                    <use id="icon" fill="#000000" fill-rule="nonzero" xlink:href="#path-1"></use>
                    <g id="Group" mask="url(#mask-2)">
                        <g transform="translate(-2.000000, -4.000000)" id="color">
                            <rect id="box" fill="#1C1F28" fill-rule="nonzero" x="0" y="0" width="24" height="24"></rect>
                        </g>
                    </g>
                </g>
            </g>
        </g>
    </g>
</svg>