<?xml version="1.0" encoding="UTF-8"?>
<svg width="14px" height="20px" viewBox="0 0 14 20" version="1.1" xmlns="http://www.w3.org/2000/svg" xmlns:xlink="http://www.w3.org/1999/xlink">
    <title>3. icons/outline/icon-mobile</title>
    <defs>
        <path d="M13.4018,0 C13.7382601,0.0186390972 14.0005882,0.275847675 13.9999906,0.586507194 L13.9999906,0.586507194 L13.9999906,19.4427135 C14.0008064,19.5745369 13.9486702,19.701978 13.8536175,19.8004829 L13.8536175,19.8004829 L13.8217994,19.8356733 L13.777254,19.8649987 C13.6759888,19.953385 13.5412529,20.0017941 13.4018,19.9999491 L13.4018,19.9999491 L0.598183013,19.9999491 C0.26172287,19.9812562 -0.000605135035,19.7240476 1.04832858e-06,19.4133881 L1.04832858e-06,19.4133881 L1.04832858e-06,0.586507194 C-0.000605135035,0.275847675 0.26172287,0.0186390972 0.598183013,0 L0.598183013,0 Z M12.8036191,13.8826253 L1.19636393,13.8826253 L1.19636393,18.8268809 L12.8036191,18.8268809 L12.8036191,13.8826253 Z M7.01059588,15.3334101 C7.19435432,15.3334049 7.37051022,15.4032704 7.49994826,15.5274929 C7.62938631,15.6517154 7.7013931,15.8200133 7.69997958,15.995016 C7.70210278,16.2660166 7.5317571,16.5112717 7.26905723,16.6154363 C7.00635736,16.7196009 6.70359026,16.6619424 6.50314928,16.4695779 C6.3027083,16.2772134 6.24448859,15.9884306 6.35587127,15.7390459 C6.46725394,15.4896613 6.72606972,15.3293115 7.01059588,15.3334101 Z M12.8036191,3.79470154 L1.19636393,3.79470154 L1.19636393,12.7389363 L12.8036191,12.7389363 L12.8036191,3.79470154 Z M12.8036191,1.11436367 L3.5699967,1.11436367 L3.5699967,1.12022874 L1.19636393,1.12022874 L1.19636393,2.65101252 L12.8036191,2.65101252 L12.8036191,1.11436367 Z" id="path-1"></path>
    </defs>
    <g id="Yanbal-UI-Visual-Kit" stroke="none" stroke-width="1" fill="none" fill-rule="evenodd">
        <g id="yanbal-styleguide-pag2" transform="translate(-1517.000000, -4492.000000)">
            <g id="Group" transform="translate(1512.000000, 4490.000000)">
                <g id="elements" transform="translate(5.000000, 2.000000)">
                    <mask id="mask-2" fill="white">
                        <use xlink:href="#path-1"></use>
                    </mask>
                    <use id="icon" fill="#000000" fill-rule="nonzero" xlink:href="#path-1"></use>
                    <g id="Group" mask="url(#mask-2)">
                        <g transform="translate(-5.000000, -2.000000)" id="color">
                            <rect id="box" fill="#1C1F28" fill-rule="nonzero" x="0" y="0" width="24" height="24"></rect>
                        </g>
                    </g>
                </g>
            </g>
        </g>
    </g>
</svg>