<?xml version="1.0" encoding="UTF-8"?>
<svg width="20px" height="19px" viewBox="0 0 20 19" version="1.1" xmlns="http://www.w3.org/2000/svg" xmlns:xlink="http://www.w3.org/1999/xlink">
    <title>3. icons/outline/icon-statistics</title>
    <defs>
        <path d="M19.4436538,0 L14.6686363,0 C14.3859673,0.0329760804 14.16854,0.274016613 14.16854,0.566508052 C14.16854,0.569956382 14.1685625,0.573404712 14.1686301,0.576898715 L14.1686301,0.576396309 L14.1686301,4.60441083 L9.94991374,4.60441083 C9.66384178,4.63736408 9.44366507,4.88128202 9.44366507,5.17724463 C9.44366507,5.17847781 9.44366507,5.17971098 9.44368761,5.18094416 L9.44368761,5.18073863 L9.44368761,9.21503323 L5.22497124,9.21503323 C4.94342901,9.24175207 4.72478475,9.48007505 4.72478475,9.77005446 C4.72478475,9.77528405 4.72485236,9.78053647 4.72503265,9.78578889 L4.72501011,9.78498961 L4.72501011,13.8192842 L0.556323658,13.8192842 C0.248391775,13.8228467 0,14.0766758 0,14.3892406 C0,14.3914786 0,14.3936937 0,14.3959774 L0,14.3956805 L0,18.423695 C0,18.4256133 0,18.4278056 0,18.4300436 C0,18.7426541 0.248301631,18.9964603 0.555940546,19 L19.4436763,19 C19.7516082,18.9964375 20,18.7426084 20,18.4300436 C20,18.4278056 20,18.4255905 20,18.4233068 L20,18.4236037 L20,0.576304963 C20,0.574386686 20,0.572194371 20,0.569956382 C20,0.25734588 19.7516984,0.00353967622 19.4440595,0 L19.4437665,0 L19.4436538,0 Z M4.72498758,17.8473444 L1.11246703,17.8473444 L1.11246703,14.9720311 L4.72498758,14.9720311 L4.72498758,17.8473444 Z M9.44364254,17.8473444 L5.83112199,17.8473444 L5.83112199,10.3613631 L9.44364254,10.3613631 L9.44364254,17.8473444 Z M14.1686076,17.8473444 L10.556087,17.8473444 L10.556087,5.7570436 L14.1686076,5.7570436 L14.1686076,17.8473444 Z M18.8873752,17.8473444 L15.2748547,17.8473444 L15.2748547,1.15263276 L18.8873752,1.15263276 L18.8873752,17.8473444 Z" id="path-1"></path>
    </defs>
    <g id="Yanbal-UI-Visual-Kit" stroke="none" stroke-width="1" fill="none" fill-rule="evenodd">
        <g id="yanbal-styleguide-pag2" transform="translate(-458.000000, -4685.000000)">
            <g id="Group" transform="translate(456.000000, 4682.000000)">
                <g id="colors/brand-secondary" transform="translate(2.000000, 3.000000)">
                    <mask id="mask-2" fill="white">
                        <use xlink:href="#path-1"></use>
                    </mask>
                    <use id="Mask" fill="#000000" fill-rule="nonzero" xlink:href="#path-1"></use>
                    <g id="Group" mask="url(#mask-2)">
                        <g transform="translate(-4.000000, -4.000000)" id="colors/brand-secondary">
                            <rect id="box" fill="#1C1F28" fill-rule="nonzero" x="0" y="0" width="26.4058266" height="25.7456809"></rect>
                        </g>
                    </g>
                </g>
            </g>
        </g>
    </g>
</svg>