<?xml version="1.0" encoding="UTF-8"?>
<svg width="20px" height="20px" viewBox="0 0 20 20" version="1.1" xmlns="http://www.w3.org/2000/svg" xmlns:xlink="http://www.w3.org/1999/xlink">
    <title>3. icons/seal/icon-parabensfree</title>
    <defs>
        <path d="M10,0 C4.47716428,0 0,4.47716428 0,10 C0,15.5228357 4.47716428,20 10,20 C15.522857,20 20,15.5228357 20,10 C20,9.99853016 20,9.99706033 20,9.99561179 L20,9.99584611 C19.995271,4.47573705 15.5204286,0.00236451943 10.0002556,0 L10.0000213,0 L10,0 Z M0.835058793,9.99582481 C0.835058793,9.99290644 0.835058793,9.98947682 0.835058793,9.9860046 C0.835058793,4.91975545 4.94203732,0.812776926 10.0082865,0.812776926 C12.4012653,0.812776926 14.5802445,1.72906016 16.2134884,3.22991224 L16.2068635,3.22392638 L11.549591,7.86456203 L11.549591,4.46615116 C11.549591,4.23670757 11.3636034,4.0506774 11.1341172,4.0506774 L11.1341172,4.0506774 L8.87404141,4.0506774 C8.64459782,4.0506774 8.45856766,4.23666496 8.45856766,4.46615116 L8.45856766,4.46615116 L8.45856766,8.0473756 L5.13490542,14.2791837 L3.22795245,16.2027309 C1.74412065,14.5833333 0.834824472,12.4162406 0.834824472,10.0367672 C0.834824472,10.0223884 0.834824472,10.0079669 0.834824472,9.99360941 L0.834824472,9.99582481 L0.835058793,9.99582481 Z M11.711699,10.0706161 L10.5152096,10.0706161 L11.3004218,9.28540389 L11.711699,10.0706161 Z M10.9015423,12.7960123 L13.1574429,12.7960123 L13.9883265,14.3332055 L6.23591939,14.3332055 L9.92516616,10.6439588 C9.98738923,10.7586699 10.1043584,10.8368056 10.2400307,10.8433666 L10.2408828,10.8434092 L12.0938139,10.8434092 L12.725311,12.0191505 L10.8973245,12.0191505 C10.6996634,12.0402181 10.5470135,12.2060753 10.5470135,12.407592 C10.5470135,12.6091087 10.6996208,12.7749659 10.8955777,12.7959058 L10.8972819,12.7960762 L10.9015423,12.7960123 Z M9.2812926,4.87329584 L10.731233,4.87329584 L10.731233,8.17201346 L10.9015849,8.50852079 L7.06695211,12.3307132 L9.25639059,8.17616735 L9.2812926,4.87329584 Z M10,19.1773816 C9.99801892,19.1773816 9.995697,19.1773816 9.99335378,19.1773816 C7.60744717,19.1773816 5.43505027,18.2631859 3.80738753,16.7659765 L3.81388463,16.7718558 L5.47571575,15.1100247 L14.6572725,15.1100247 C14.8575111,15.0876576 15.0136546,14.9258052 15.026947,14.7249276 L15.0270109,14.7236921 C15.0205138,14.6546737 14.9965917,14.5923015 14.9597393,14.5396856 L14.9605487,14.5408998 L11.8778545,8.72452284 L16.7760523,3.80968814 C18.2709185,5.43632839 19.1872018,7.6152863 19.1872018,10.0082652 C19.1872018,15.0745143 15.0802232,19.1814928 10.0139741,19.1814928 C10.0090533,19.1814928 10.0041326,19.1814928 9.99921183,19.1814928 L9.9999787,19.1814928 L10,19.1773816 Z" id="path-1"></path>
    </defs>
    <g id="Yanbal-UI-Visual-Kit" stroke="none" stroke-width="1" fill="none" fill-rule="evenodd">
        <g id="yanbal-styleguide-pag2" transform="translate(-1130.000000, -4684.000000)">
            <g id="Group" transform="translate(1128.000000, 4682.000000)">
                <g id="colors/brand-secondary" transform="translate(2.000000, 2.000000)">
                    <mask id="mask-2" fill="white">
                        <use xlink:href="#path-1"></use>
                    </mask>
                    <use id="Mask" fill="#000000" fill-rule="nonzero" xlink:href="#path-1"></use>
                    <g id="Group" mask="url(#mask-2)">
                        <g transform="translate(-4.000000, -3.000000)" id="colors/brand-secondary">
                            <rect id="box" fill="#1C1F28" fill-rule="nonzero" x="0" y="0" width="26.4058266" height="25.7456809"></rect>
                        </g>
                    </g>
                </g>
            </g>
        </g>
    </g>
</svg>