<?xml version="1.0" encoding="UTF-8"?>
<svg width="20px" height="6px" viewBox="0 0 20 6" version="1.1" xmlns="http://www.w3.org/2000/svg" xmlns:xlink="http://www.w3.org/1999/xlink">
    <title>3. icons/outline/icon-maya</title>
    <defs>
        <path d="M4.85714286,1.725 C4.85714286,1.35 4.71428571,1.05 4.28571429,1.05 C3.92857143,1.05 3.64285714,1.275 3.5,1.5 L3.5,4.275 L2.42857143,4.275 L2.42857143,1.65 C2.42857143,1.275 2.28571429,0.975 1.85714286,0.975 C1.5,0.975 1.21428571,1.2 1.07142857,1.425 L1.07142857,4.2 L0,4.2 L0,0.075 L1,0.075 L1,0.6 C1.14285714,0.375 1.71428571,0 2.28571429,0 C2.85714286,0 3.21428571,0.3 3.35714286,0.75 C3.57142857,0.375 4.07142857,0 4.71428571,0 C5.42857143,0 5.85714286,0.375 5.85714286,1.275 L5.85714286,4.2 L4.85714286,4.2 L4.85714286,1.725 L4.85714286,1.725 Z M9.57142857,3.825 C9.28571429,4.2 8.85714286,4.425 8.35714286,4.425 C7.35714286,4.425 6.64285714,3.675 6.64285714,2.25 C6.64285714,0.9 7.35714286,0.075 8.35714286,0.075 C8.78571429,0.075 9.28571429,0.3 9.57142857,0.675 L9.57142857,0.15 L10.5714286,0.15 L10.5714286,4.275 L9.57142857,4.275 L9.57142857,3.825 Z M9.57142857,1.575 C9.42857143,1.275 9,1.125 8.71428571,1.125 C8.14285714,1.125 7.71428571,1.575 7.71428571,2.325 C7.71428571,3 8.14285714,3.525 8.71428571,3.525 C9.07142857,3.525 9.42857143,3.3 9.57142857,3.075 L9.57142857,1.575 L9.57142857,1.575 Z M12,4.65 C12.2857143,5.025 12.7857143,5.175 13.1428571,5.175 C13.7857143,5.175 14.2142857,4.8 14.2142857,4.125 L14.2142857,3.675 C13.9285714,3.975 13.5,4.275 12.8571429,4.275 C12,4.275 11.5714286,3.75 11.5714286,3 L11.5714286,0.3 L12.5714286,0.3 L12.5714286,2.625 C12.5714286,3.225 12.8571429,3.375 13.2857143,3.375 C13.7142857,3.375 14,3.15 14.1428571,2.925 L14.1428571,0.3 L15.1428571,0.3 L15.1428571,4.05 C15.1428571,5.325 14.2857143,6 13.0714286,6 C12.4285714,6 11.8571429,5.775 11.4285714,5.4 L12,4.65 Z M19,3.825 C18.7142857,4.2 18.2857143,4.425 17.7857143,4.425 C16.7857143,4.425 16.0714286,3.675 16.0714286,2.25 C16.0714286,0.9 16.7857143,0.075 17.7857143,0.075 C18.2142857,0.075 18.7142857,0.3 19,0.675 L19,0.15 L20,0.15 L20,4.275 L19,4.275 L19,3.825 Z M19,1.575 C18.8571429,1.275 18.4285714,1.125 18.1428571,1.125 C17.5714286,1.125 17.1428571,1.575 17.1428571,2.325 C17.1428571,3 17.5714286,3.525 18.1428571,3.525 C18.5,3.525 18.8571429,3.3 19,3.075 L19,1.575 L19,1.575 Z" id="path-1"></path>
    </defs>
    <g id="Yanbal-UI-Visual-Kit" stroke="none" stroke-width="1" fill="none" fill-rule="evenodd">
        <g id="yanbal-styleguide-pag2" transform="translate(-890.000000, -4691.000000)">
            <g id="Group" transform="translate(888.000000, 4682.000000)">
                <g id="colors/brand-secondary" transform="translate(2.000000, 9.000000)">
                    <mask id="mask-2" fill="white">
                        <use xlink:href="#path-1"></use>
                    </mask>
                    <use id="Mask" fill="#000000" fill-rule="nonzero" xlink:href="#path-1"></use>
                    <g id="Group" mask="url(#mask-2)">
                        <g transform="translate(-4.000000, -10.000000)" id="colors/brand-secondary">
                            <rect id="box" fill="#1C1F28" fill-rule="nonzero" x="0" y="0" width="26.4058266" height="25.7456809"></rect>
                        </g>
                    </g>
                </g>
            </g>
        </g>
    </g>
</svg>