<?xml version="1.0" encoding="UTF-8"?>
<svg width="20px" height="17px" viewBox="0 0 20 17" version="1.1" xmlns="http://www.w3.org/2000/svg" xmlns:xlink="http://www.w3.org/1999/xlink">
    <title>3. icons/outline/icon-change</title>
    <defs>
        <path d="M10.8185259,13.8270309 L9.40746536,13.2114479 L8.47778669,12.2536246 C8.42590677,12.1966365 8.3565683,12.1571678 8.27860832,12.1443677 L8.27662537,12.1441006 L8.27662537,11.5896463 C8.67810741,11.3136769 9.01432463,10.9725719 9.27991016,10.577061 L9.28792817,10.5644613 C9.54840545,10.1781664 9.74221693,9.72239507 9.84089008,9.23064997 L9.84487753,9.20683072 C9.87488038,9.21052604 9.90962505,9.21264083 9.94484391,9.21264083 C10.0009268,9.21264083 10.0558243,9.20727594 10.1090405,9.19703588 L10.1035227,9.19792632 C10.5541258,9.06765505 10.87948,8.64832493 10.8817647,8.1501464 L10.8817647,7.87711545 C10.8780358,7.50809514 10.6983852,7.18321836 10.4254283,6.98725493 L10.4219366,6.98489527 C10.4927838,6.69777312 10.5334342,6.36817701 10.5334342,6.02876381 C10.5334342,6.02765076 10.5334342,6.02653771 10.5334342,6.02542466 L10.5334342,6.02560275 C10.5334342,5.98998518 10.5334342,5.95999963 10.5317099,5.9297247 C10.5242523,5.16316776 10.3196208,4.44758848 9.96784178,3.83242849 L9.97820914,3.85204042 C9.62608523,3.23757051 9.14815198,2.7360751 8.57837812,2.37377761 L8.56055316,2.3632259 C8.54503444,1.05724084 7.50642302,0 6.23274621,0 C4.95906939,0 3.92045797,1.05844294 3.90493926,2.36500678 C2.70338136,3.14919441 1.9852098,4.48069056 1.9794765,5.93032574 L1.9794765,5.93210662 C1.97945495,5.93687047 1.97945495,5.94248024 1.97945495,5.94811227 C1.97945495,6.29663021 2.02170033,6.63497488 2.10119063,6.95795948 L2.0952849,6.92968803 C1.81743527,7.12821147 1.63726733,7.45491365 1.63547836,7.82518058 L1.63547836,8.09260176 C1.63756908,8.58908845 1.96050919,9.00708292 2.40108976,9.13699801 L2.40854736,9.13886794 L2.41889317,9.14064882 C2.46450094,9.14913025 2.51702748,9.15398314 2.5706317,9.15398314 C2.60718689,9.15398314 2.64324634,9.15173479 2.67865918,9.14734937 L2.67439154,9.14777233 C2.87639345,10.1505405 3.44513273,10.9883994 4.22600419,11.521639 L4.2394753,11.5302985 L4.2394753,12.1500443 C4.15918751,12.1617535 4.08948262,12.2015339 4.03855107,12.2593012 L4.03831398,12.2595683 L3.10660925,13.2167905 L1.39754632,13.9852397 C0.980351585,14.1802013 0.638013087,14.481437 0.393334713,14.8562674 L0.387967825,14.8649937 C0.144905982,15.2372418 0,15.6958849 0,16.1894776 C0,16.1905907 0,16.1917037 0,16.1928168 L0,16.1926387 C0,16.2223126 0,16.2520087 0.00172430144,16.284955 L0.0327617274,16.9676325 L0.751213477,16.9676325 L0.720176051,16.2469777 L0.720176051,16.1991834 C0.720176051,16.1991166 0.720176051,16.1990276 0.720176051,16.1989385 C0.720176051,15.8952765 0.79979567,15.6108256 0.93862349,15.3666004 L0.934549828,15.3743472 L1.82801817,16.4989721 C1.93177801,16.6300447 2.02032089,16.7800392 2.08735311,16.9418321 L2.09183629,16.9539865 L2.10907931,17 L2.8683539,17 L2.84507583,16.9323266 C2.73331954,16.5877043 2.56927381,16.2897856 2.36009449,16.0323374 L2.36343533,16.0365447 L1.39437792,14.8386144 C1.46578555,14.7877481 1.54736656,14.7408664 1.63325833,14.7022882 L1.64267732,14.6985261 L1.65129883,14.6952537 L3.13909078,14.0277136 L4.21391253,15.7492222 C4.31681021,15.921077 4.48564088,16.0421767 4.68305184,16.0751897 L4.68695307,16.075724 L4.79845072,16.0775049 C4.969135,16.0759689 5.12490409,16.0112117 5.245131,15.9048264 L5.24418264,15.9056501 L5.90228384,15.3497266 L5.90228384,16.9804103 L6.61528248,16.9804103 L6.61528248,15.3535777 L7.27079723,15.9255292 C7.38986025,16.0312688 7.54562933,16.0960038 7.71601186,16.0970945 L7.82427644,16.0970945 C8.02701118,16.0647716 8.1973075,15.9433825 8.2990844,15.773598 L8.30074404,15.770615 L9.35343007,14.017941 L10.4949176,14.5142051 C10.5395555,14.5348633 10.5916725,14.5469065 10.6465053,14.5469065 C10.8305098,14.5469065 10.9838648,14.4114039 11.0181353,14.2317578 L11.0185233,14.2292868 C11.0185233,14.225124 11.0199674,14.2209835 11.0208296,14.2165313 C11.0242566,14.1976985 11.0261964,14.1760385 11.0261964,14.1539111 C11.0261964,14.0084356 10.9417488,13.8833066 10.8207028,13.8280103 L10.8185043,13.8271199 L10.8185259,13.8270309 Z M5.70855857,14.5097084 L4.81909922,15.3063622 L3.78710481,13.5804014 L4.31846985,13.0351632 L5.70855857,14.5097084 Z M4.69553147,1.97706464 C4.78804025,1.63095088 4.9751054,1.33846384 5.22601281,1.12235422 L5.22862082,1.12017264 C5.49946547,0.887723461 5.84980041,0.745364478 6.23220736,0.741446545 L6.25199372,0.741446545 C6.99471502,0.742826726 7.61977429,1.26148536 7.80752916,1.96713624 L7.81018028,1.97884552 C7.34649406,1.79726268 6.81038719,1.69212406 6.25050651,1.69212406 C5.69237169,1.69212406 5.15788135,1.79659486 4.66434317,1.98766087 L4.69553147,1.9770869 L4.69553147,1.97706464 Z M4.9696954,11.9669032 C5.35087379,12.116163 5.79160524,12.2025579 6.2518644,12.2025579 C6.71212356,12.2025579 7.15283346,12.1161408 7.55963928,11.9581769 L7.5340334,11.9669032 L7.5340334,12.6982432 L6.25201528,14.0152029 L4.9696954,12.6982432 L4.9696954,11.9669032 Z M3.38247592,9.01242556 C3.32173741,8.67782073 3.04110735,8.42800798 2.70396331,8.42800798 C2.70396331,8.42800798 2.70396331,8.42800798 2.70396331,8.42800798 L2.70396331,8.42800798 C2.70208813,8.42796346 2.69986809,8.4279412 2.69764805,8.4279412 C2.68650475,8.4279412 2.67551233,8.42860903 2.6647139,8.42992243 L2.66602868,8.42978886 L2.66775298,8.45946275 L2.66430437,8.42978886 C2.65094104,8.4314807 2.63546543,8.43246018 2.61975274,8.43246018 C2.60404004,8.43246018 2.58858599,8.4314807 2.57336903,8.42961077 L2.5752011,8.42978886 C2.44156773,8.37954582 2.34776574,8.24967525 2.34731311,8.09712074 L2.34731311,7.81122294 C2.34731311,7.81088903 2.34731311,7.81046607 2.34731311,7.81006537 C2.34731311,7.65884651 2.44822785,7.53198118 2.58427523,7.49736535 L2.58640906,7.49689787 C2.60360896,7.49349194 2.62341688,7.49155523 2.64365586,7.49155523 C2.64374208,7.49155523 2.64382829,7.49155523 2.64391451,7.49155523 L2.64389296,7.49155523 C2.73812603,7.49175558 2.82207796,7.53714572 2.87650122,7.60786886 L2.8769754,7.60849217 C2.93866229,7.69335104 3.02362724,7.75701745 3.1220633,7.78971883 L3.12557656,7.79072057 L3.12902517,7.79250145 C3.17206804,7.8071937 3.22162015,7.81567514 3.27309055,7.81567514 C3.27487951,7.81567514 3.27666848,7.81567514 3.27845744,7.81565288 L3.27817724,7.81565288 C3.27901784,7.81565288 3.28003086,7.81565288 3.28102234,7.81565288 C3.38773504,7.81565288 3.48649441,7.78050278 3.56704084,7.72082109 L3.56557518,7.72186736 C3.83706645,7.51984894 4.06448025,7.27477778 4.24333342,6.9937774 L4.2495409,6.98340378 L4.25615791,6.9730079 L4.25788221,6.96944615 C4.2815267,6.92200799 4.29551509,6.8659771 4.29581684,6.80660706 L4.29581684,6.80649575 C4.29489003,6.60067071 4.133129,6.43420308 3.93371354,6.43420308 C3.82010363,6.43420308 3.71871471,6.48825275 3.65230755,6.57279996 L3.6517687,6.57349005 L3.6465958,6.58061357 C3.54882791,6.74937407 3.43278242,6.89398142 3.29856711,7.01804187 L3.2968428,7.01960014 C3.15527766,6.89594038 2.97769616,6.81192743 2.78248368,6.78623826 L2.77754787,6.785704 C2.71329609,6.54181267 2.67637448,6.26176951 2.67637448,5.97284422 C2.67637448,5.9692602 2.67637448,5.96567618 2.67639604,5.96209217 L2.67639604,5.96264869 L2.67639604,5.96086781 C2.71825346,4.00083282 4.26656838,2.42847284 6.17047737,2.42847284 C6.17338713,2.42847284 6.17629689,2.42847284 6.17920665,2.42847284 L6.3296304,2.42847284 C6.3322384,2.42847284 6.33532059,2.42847284 6.33840278,2.42847284 C7.28681168,2.42847284 8.14693635,2.81890822 8.77630637,3.45263387 L8.77557355,3.45189925 C9.40703429,4.08244158 9.80595143,4.95785472 9.82847511,5.92956887 L9.82856133,5.93384298 L9.82856133,5.93740474 C9.82843201,6.22837804 9.79342869,6.51086991 9.72766814,6.78071754 L9.7325824,6.75692055 C9.64005207,6.76760582 9.5526731,6.78185285 9.46503548,6.80115312 L9.20294166,6.58181566 C9.08493478,6.48415673 8.9334549,6.42509834 8.76861168,6.42509834 C8.76854702,6.42509834 8.76848236,6.42509834 8.76841769,6.42509834 L8.76841769,6.42509834 C8.76643475,6.42505382 8.76410694,6.42503156 8.76175758,6.42503156 C8.75022631,6.42503156 8.73884593,6.42569939 8.72765952,6.42701279 L8.72903896,6.42687922 C8.60547121,6.43371334 8.45976774,6.4372751 8.31923717,6.4372751 C8.31815948,6.4372751 8.31686625,6.4372751 8.31557303,6.4372751 C7.75368785,6.4372751 7.20564019,6.37610192 6.67733578,6.25983281 L6.72856909,6.26927146 L6.72856909,6.26749058 L6.67712024,6.25858619 C5.69672555,6.08014216 4.85078326,5.58131806 4.22384881,4.87235029 L4.22085284,4.86889984 L4.21912854,4.86711896 C4.15345421,4.7778079 4.05057807,4.720753 3.93481278,4.720753 C3.7381562,4.720753 3.57874454,4.88539522 3.57874454,5.08850443 C3.57874454,5.18484996 3.61461001,5.27255823 3.67332247,5.33811683 L3.67310693,5.33787195 C4.41306934,6.17951518 5.40857323,6.76923087 6.53240825,6.97605766 L6.56303615,6.98073246 L6.59034477,6.98429422 C7.10621266,7.10056333 7.6987904,7.16714593 8.30641268,7.16714593 C8.31214598,7.16714593 8.31785773,7.16714593 8.32359103,7.16712367 L8.32268577,7.16712367 C8.46494064,7.16712367 8.61006216,7.16356191 8.74945038,7.1564384 L9.14890636,7.4936255 C9.21380476,7.56038619 9.30333911,7.60165805 9.40218469,7.60165805 C9.45912975,7.60165805 9.51297106,7.58796755 9.56079887,7.56359177 L9.5586866,7.56457125 C9.63837088,7.53062326 9.73090121,7.51090002 9.82789316,7.51090002 C9.85453362,7.51090002 9.88085077,7.51239151 9.9067584,7.51528544 L9.90354689,7.51499605 C10.044487,7.55281745 10.1471476,7.68233185 10.1486779,7.83686759 L10.1486779,8.11515213 C10.1482037,8.26777343 10.0544233,8.39762174 9.92316082,8.44708564 L9.92076835,8.44786478 C9.90871979,8.44946757 9.8947745,8.45038027 9.88063523,8.45038027 C9.8621421,8.45038027 9.84397227,8.448822 9.82629818,8.44581677 L9.82821647,8.4460839 L9.82649217,8.4460839 C9.81614636,8.4460839 9.80435645,8.44430302 9.79056204,8.44430302 C9.456026,8.44434754 9.1771418,8.69035366 9.11422635,9.01676645 L9.11349352,9.02130769 L9.11349352,9.02486945 C8.85303779,10.4368613 7.66773142,11.4899839 6.24408349,11.4910969 L6.24395417,11.4910969 C4.83864849,11.4910969 3.63364198,10.4623501 3.37816517,9.04623999 L3.38851098,9.03199296 L3.38333808,9.01269269 L3.38247592,9.01242556 Z M8.76833148,13.5762386 L7.71736975,15.3039803 L6.79773513,14.5108882 L8.23752683,13.0309781 L8.76889188,13.5762164 L8.76833148,13.5762386 Z M18.943736,7.02496504 C18.9597505,7.06369915 18.9690402,7.10877764 18.9690402,7.15608222 C18.9690402,7.25060236 18.931903,7.33615131 18.8718973,7.3980591 L18.8718973,7.3980591 L18.3201209,7.9685413 L18.6224556,8.23567309 C19.4746916,9.14405475 20,10.3840805 20,11.7508381 C20,14.5419868 17.8092104,16.8046821 15.1067127,16.8046821 C15.1034365,16.8046821 15.1001604,16.8046821 15.0969057,16.8046821 L15.097423,16.8046821 C14.8891921,16.8046821 14.720383,16.6303341 14.720383,16.4152708 C14.720383,16.2002074 14.8891921,16.0258594 15.097423,16.0258594 L15.097423,16.0258594 C15.0976386,16.0258594 15.0978757,16.0258594 15.0981343,16.0258594 C17.3893861,16.0258594 19.2468036,14.107497 19.2468036,11.7410655 C19.2468036,10.4910891 18.7285648,9.36613031 17.9018916,8.58285538 L17.8988309,8.58000597 L17.8327255,8.47137238 L17.7002345,8.60821064 L17.2858202,9.03711299 C17.2258361,9.09890947 17.143048,9.13713158 17.0515954,9.13713158 C16.8685393,9.13713158 16.72012,8.98395376 16.7199476,8.7949135 L16.7199476,7.15588188 C16.72012,6.96684161 16.8685393,6.81366379 17.0515954,6.81366379 L18.6376725,6.81366379 C18.7749054,6.81366379 18.8926536,6.89990284 18.942917,7.02273894 L18.943736,7.0249873 L18.943736,7.02496504 Z M15.4206864,7.2030529 C15.4206864,7.41818303 15.2519204,7.59259783 15.0436464,7.59277592 L15.0436248,7.59277592 C15.0435602,7.59277592 15.043474,7.59277592 15.0434093,7.59277592 C12.75233,7.59277592 10.8950202,9.51100478 10.8950202,11.8772804 C10.8950202,13.1269675 11.413065,14.2517036 12.2394365,15.0348895 L12.2424756,15.0377389 L12.3082792,15.1466619 L12.855163,14.581834 C12.9151256,14.5199485 12.9979136,14.4816818 13.0893878,14.4816818 C13.2723793,14.4816818 13.4207339,14.6349042 13.4207339,14.8238999 C13.4207339,14.8242561 13.4207339,14.8246123 13.4207339,14.8249684 L13.4207339,14.8249239 L13.4207339,16.4630428 C13.4205614,16.6520831 13.2721422,16.8052609 13.089086,16.8052609 L11.504453,16.8052609 C11.504065,16.8052609 11.503634,16.8052609 11.5031813,16.8052609 C11.3201898,16.8052609 11.1718353,16.6520386 11.1718353,16.4630428 C11.1718353,16.3679884 11.2093604,16.2819943 11.2699265,16.2199752 L11.8217245,15.6500718 L11.5185276,15.38294 C10.6661408,14.4745361 10.140703,13.2343767 10.140703,11.8674856 C10.140703,9.07633684 12.3314926,6.81364153 15.0339903,6.81364153 C15.0373527,6.81364153 15.0407366,6.81364153 15.044099,6.81364153 L15.0435817,6.81364153 C15.251748,6.81381962 15.4204709,6.98805633 15.4206218,7.2030529 L15.4206218,7.20307516 L15.4206864,7.2030529 Z" id="path-1"></path>
    </defs>
    <g id="Yanbal-UI-Visual-Kit" stroke="none" stroke-width="1" fill="none" fill-rule="evenodd">
        <g id="yanbal-styleguide-pag2" transform="translate(-1370.000000, -4686.000000)">
            <g id="Group" transform="translate(1368.000000, 4682.000000)">
                <g id="colors/brand-secondary" transform="translate(2.000000, 4.000000)">
                    <mask id="mask-2" fill="white">
                        <use xlink:href="#path-1"></use>
                    </mask>
                    <use id="Mask" fill="#000000" fill-rule="nonzero" xlink:href="#path-1"></use>
                    <g id="Group" mask="url(#mask-2)">
                        <g transform="translate(-4.000000, -5.000000)" id="colors/brand-secondary">
                            <rect id="box" fill="#1C1F28" fill-rule="nonzero" x="0" y="0" width="26.4058266" height="25.7456809"></rect>
                        </g>
                    </g>
                </g>
            </g>
        </g>
    </g>
</svg>