<?xml version="1.0" encoding="UTF-8"?>
<svg width="20px" height="15px" viewBox="0 0 20 15" version="1.1" xmlns="http://www.w3.org/2000/svg" xmlns:xlink="http://www.w3.org/1999/xlink">
    <title>3. icons/outline/icon-web</title>
    <defs>
        <path d="M18.0766667,0 C19.1366667,0 20,0.826666667 20,1.84333333 L20,1.84333333 L20,13.1566667 C20,14.1725 19.1366667,15 18.0766667,15 L18.0766667,15 L1.92333333,15 C0.8625,15 0,14.1725 0,13.1566667 L0,13.1566667 L0,1.84333333 C0,0.826666667 0.8625,0 1.92333333,0 L1.92333333,0 Z M18.8041667,5.1625 L1.19416667,5.1625 L1.19416667,13.1566667 C1.19416667,13.5416667 1.52166667,13.8541667 1.92333333,13.8541667 L1.92333333,13.8541667 L18.0766667,13.8541667 C18.4775,13.8541667 18.8041667,13.5416667 18.8041667,13.1566667 L18.8041667,13.1566667 L18.8041667,5.1625 Z M18.0766667,1.145 L1.92333333,1.145 C1.52166667,1.145 1.19416667,1.45833333 1.19416667,1.84333333 L1.19416667,1.84333333 L1.19416667,4.0175 L18.8041667,4.0175 L18.8041667,1.84333333 C18.8041667,1.45833333 18.4775,1.145 18.0766667,1.145 L18.0766667,1.145 Z M2.97625,1.41163393 C3.60958333,1.41163393 4.12375,1.91065179 4.12375,2.52377679 C4.12375,3.13690179 3.60958333,3.63511607 2.97625,3.63511607 C2.34458333,3.63511607 1.82875,3.13690179 1.82875,2.52377679 C1.82875,1.91065179 2.34458333,1.41163393 2.97625,1.41163393 Z M7.78741667,1.41163393 C8.42075,1.41163393 8.93575,1.91065179 8.93575,2.52377679 C8.93575,3.13690179 8.42075,3.63511607 7.78741667,3.63511607 C7.15575,3.63511607 6.64075,3.13690179 6.64075,2.52377679 C6.64075,1.91065179 7.15575,1.41163393 7.78741667,1.41163393 Z M5.38183333,1.41163393 C6.01516667,1.41163393 6.52933333,1.91065179 6.52933333,2.52377679 C6.52933333,3.13690179 6.01516667,3.63511607 5.38183333,3.63511607 C4.75016667,3.63511607 4.23433333,3.13690179 4.23433333,2.52377679 C4.23433333,1.91065179 4.75016667,1.41163393 5.38183333,1.41163393 Z M2.97625,2.27547321 C2.83625,2.27547321 2.72291667,2.38716964 2.72291667,2.52377679 C2.72291667,2.65958036 2.83625,2.77047321 2.97625,2.77047321 C3.11708333,2.77047321 3.23125,2.65958036 3.23125,2.52377679 C3.23125,2.38716964 3.11708333,2.27547321 2.97625,2.27547321 Z M7.78741667,2.27547321 C7.64741667,2.27547321 7.53408333,2.38716964 7.53408333,2.52377679 C7.53408333,2.65958036 7.64741667,2.77047321 7.78741667,2.77047321 C7.92825,2.77047321 8.04325,2.65958036 8.04325,2.52377679 C8.04325,2.38716964 7.92825,2.27547321 7.78741667,2.27547321 Z M5.38183333,2.27547321 C5.24183333,2.27547321 5.1285,2.38716964 5.1285,2.52377679 C5.1285,2.65958036 5.24183333,2.77047321 5.38183333,2.77047321 C5.52266667,2.77047321 5.63683333,2.65958036 5.63683333,2.52377679 C5.63683333,2.38716964 5.52266667,2.27547321 5.38183333,2.27547321 Z" id="path-1"></path>
    </defs>
    <g id="Yanbal-UI-Visual-Kit" stroke="none" stroke-width="1" fill="none" fill-rule="evenodd">
        <g id="yanbal-styleguide-pag2" transform="translate(-698.000000, -4543.000000)">
            <g id="Group" transform="translate(696.000000, 4538.000000)">
                <g id="elements" transform="translate(2.000000, 5.000000)">
                    <mask id="mask-2" fill="white">
                        <use xlink:href="#path-1"></use>
                    </mask>
                    <use id="icon" fill="#1F1410" xlink:href="#path-1"></use>
                    <g id="Group" mask="url(#mask-2)">
                        <g transform="translate(-2.000000, -5.000000)" id="color">
                            <rect id="box" fill="#1C1F28" fill-rule="nonzero" x="0" y="0" width="24" height="24"></rect>
                        </g>
                    </g>
                </g>
            </g>
        </g>
    </g>
</svg>