<?xml version="1.0" encoding="UTF-8"?>
<svg width="12px" height="9px" viewBox="0 0 12 9" version="1.1" xmlns="http://www.w3.org/2000/svg" xmlns:xlink="http://www.w3.org/1999/xlink">
    <title>3. icons/outline/icon-right</title>
    <defs>
        <path d="M12,4.46682411 C11.9946425,4.64462424 11.9379215,4.80558723 11.8468898,4.93082857 L11.8475965,4.92983181 L8.85442449,8.78833703 C8.74244157,8.9192087 8.58835107,9 8.41830209,9 C8.27442502,9 8.14194686,8.94213414 8.0367121,8.84496368 L8.03807997,8.84620289 C7.93507939,8.71840231 7.87170144,8.54510107 7.87170144,8.35423532 C7.87170144,8.16336958 7.93507939,7.99006834 8.03830795,7.86197143 L8.03807997,7.86226776 L10.1441886,5.17419923 L0.571427486,5.17419923 C0.255837193,5.17419923 0,4.87188513 0,4.49896283 C0,4.12604053 0.255837193,3.82372644 0.571427486,3.82372644 L10.1496373,3.82372644 L8.04352865,1.13565791 C7.94620473,1.00502869 7.8867936,0.832589506 7.8867936,0.64369034 C7.8867936,0.454791175 7.94618193,0.28235199 8.04414419,0.150914593 L8.04355145,0.151722775 C8.14766911,0.0570576773 8.2798509,0 8.42331762,0 C8.59316141,0 8.74722911,0.079983118 8.85998716,0.209750272 L8.85987317,0.209615575 L11.8530452,4.0681208 C11.9367588,4.17291511 11.9910633,4.31154533 12,4.4648306 L12,4.46682411 L12,4.46682411 Z" id="path-1"></path>
    </defs>
    <g id="Yanbal-UI-Visual-Kit" stroke="none" stroke-width="1" fill="none" fill-rule="evenodd">
        <g id="yanbal-styleguide-pag2" transform="translate(-1518.000000, -4642.000000)">
            <g id="Group" transform="translate(1512.000000, 4634.000000)">
                <g id="colors/brand-secondary" transform="translate(6.000000, 8.000000)">
                    <mask id="mask-2" fill="white">
                        <use xlink:href="#path-1"></use>
                    </mask>
                    <use id="Mask" fill="#000000" fill-rule="nonzero" xlink:href="#path-1"></use>
                    <g id="Group" mask="url(#mask-2)">
                        <g transform="translate(-8.000000, -9.000000)" id="colors/brand-secondary">
                            <rect id="box" fill="#1C1F28" fill-rule="nonzero" x="0" y="0" width="26.4058266" height="25.7456809"></rect>
                        </g>
                    </g>
                </g>
            </g>
        </g>
    </g>
</svg>