<?xml version="1.0" encoding="UTF-8"?>
<svg width="20px" height="17px" viewBox="0 0 20 17" version="1.1" xmlns="http://www.w3.org/2000/svg" xmlns:xlink="http://www.w3.org/1999/xlink">
    <title>3. icons/outline/icon-temporal</title>
    <defs>
        <path d="M10.7418083,13.733961 L9.34085734,13.1225087 L8.41698338,12.1711126 C8.36547515,12.1145069 8.29663345,12.075303 8.21923202,12.0625889 L8.21726328,12.0623235 L8.21726328,11.5115897 C8.6158689,11.2374721 8.9496773,10.898656 9.21336004,10.5057991 L9.2213206,10.4932839 C9.47901152,10.1095591 9.67057847,9.6568903 9.7677957,9.16864392 L9.77171178,9.14507295 C9.80149967,9.14874348 9.83599541,9.15084408 9.87096194,9.15084408 C9.92664304,9.15084408 9.98114718,9.14551518 10.0339822,9.13534384 L10.0285039,9.13622831 C10.4758787,9.00683119 10.7989018,8.59031486 10.8011701,8.09547922 L10.8011701,7.82428036 C10.7971684,7.45782471 10.6188905,7.13523849 10.3481032,6.94039101 L10.3446579,6.93804718 C10.4148049,6.65267479 10.4550785,6.32506923 10.4550785,5.98773456 C10.4550785,5.98682799 10.4550785,5.98594352 10.4550785,5.98503695 L10.4550785,5.98516962 C10.4550785,5.94979105 10.4550785,5.92000671 10.4533665,5.88993493 C10.4459624,5.12852176 10.242797,4.41774417 9.89353825,3.80671204 L9.90383134,3.82619237 C9.55423022,3.2158457 9.07972112,2.71771543 8.51402941,2.35784903 L8.49633215,2.34736813 C8.48092462,1.05014652 7.44975434,0 6.18520278,0 C4.92065122,0 3.88948094,1.05134055 3.87407341,2.34913706 C2.68112406,3.12806262 1.96809785,4.45062413 1.96240563,5.89053194 L1.96240563,5.89230087 C1.96240563,5.89415824 1.96240563,5.89634729 1.96240563,5.89853634 C1.96240563,6.24812084 2.00518292,6.58737922 2.08560166,6.91104891 L2.07967405,6.88290083 C1.80377228,7.08007003 1.62487374,7.40460208 1.6231618,7.77240654 L1.6231618,8.03801115 C1.62510914,8.53112209 1.94564994,8.94633383 2.38300978,9.07539928 L2.39041395,9.07725665 L2.40068564,9.07902558 C2.44596665,9.0874501 2.49811686,9.09227043 2.55133703,9.09227043 C2.58763032,9.09227043 2.62343143,9.09003716 2.65859055,9.08568117 L2.65435348,9.08610129 C2.85482256,10.0820965 3.4194015,10.9143331 4.19457141,11.4440388 L4.20794601,11.4526181 L4.20794601,12.0682052 C4.12825484,12.0799244 4.05904936,12.1194157 4.0084613,12.176729 L4.00822591,12.1769943 L3.08377416,13.1277934 L1.38695581,13.891086 C0.972750073,14.0847395 0.63286426,14.3839537 0.389938883,14.756269 L0.384610446,14.7649367 C0.14365381,15.134488 0,15.5897439 0,16.0796486 C0,16.0810638 0,16.0824789 0,16.083894 L0,16.0836729 C0,16.1131477 0,16.1426446 0.00171194768,16.1753698 L0.032527006,16.8534664 L0.745831407,16.8534664 L0.715016349,16.1376474 L0.715016349,16.0901737 C0.715016349,16.0896652 0.715016349,16.0890682 0.715016349,16.0884711 C0.715016349,15.7876648 0.793616147,15.5058524 0.930764556,15.2637303 L0.926720079,15.2714473 L1.81436495,16.3879286 C1.9173814,16.5181218 2.00528992,16.6671098 2.07184188,16.8278169 L2.07629295,16.8398899 L2.09341243,16.8855945 L2.84724719,16.8855945 L2.82499187,16.8172034 C2.71401486,16.4749378 2.55125143,16.1790403 2.34374198,15.923209 L2.34708027,15.9274323 L1.38325373,14.7387124 C1.45414976,14.6881873 1.53514629,14.6416203 1.62042268,14.6033009 L1.62977419,14.599564 L1.63833393,14.5963136 L3.11546659,13.9332529 L4.18258778,15.6432097 C4.28474826,15.8139113 4.45236934,15.9341985 4.64836595,15.96699 L4.65223923,15.9675207 L4.76293804,15.9692896 C4.93257066,15.9686705 5.08769452,15.9050111 5.20761646,15.7998041 L5.20663209,15.8006444 L5.86001832,15.2484512 L5.86001832,16.8681927 L6.56790868,16.8681927 L6.56790868,15.2502201 L7.21988256,15.8183336 C7.33817815,15.9233859 7.49293822,15.9877085 7.66220704,15.9887478 L7.76941777,15.9887478 C7.97070002,15.9566417 8.13977625,15.8360672 8.24082396,15.6674219 L8.24247171,15.664459 L9.2867598,13.9226614 L10.4200692,14.4155954 C10.4648152,14.4365794 10.5171152,14.448785 10.5721543,14.448785 C10.7550759,14.448785 10.9075035,14.3138157 10.9412502,14.1350213 L10.9416354,14.1325669 C10.9416354,14.128432 10.9430692,14.1243193 10.9439252,14.1198969 C10.9471779,14.1015885 10.9490396,14.0805162 10.9490396,14.0589795 C10.9490396,13.9141042 10.864769,13.7895716 10.7441195,13.7348675 L10.7419153,13.7339831 L10.7418083,13.733961 Z M5.66845137,14.4120576 L4.78536456,15.2033656 L3.76076387,13.4889865 L4.28832195,12.9474069 L5.66845137,14.4120576 Z M4.66124835,1.96351065 C4.75322274,1.61976361 4.93892627,1.32928344 5.18792906,1.11453552 L5.19051838,1.11236858 C5.45942256,0.881479188 5.80724753,0.740075466 6.18691473,0.736183823 L6.20655933,0.736183823 C6.94395939,0.737554742 7.56454043,1.25273306 7.75095013,1.95364887 L7.75358225,1.96527958 C7.29321812,1.7849152 6.76095219,1.68048209 6.20508277,1.68048209 C5.65094671,1.68048209 5.12028572,1.78425185 4.6302835,1.97403577 L4.66124835,1.96353276 L4.66124835,1.96351065 Z M4.93372623,11.8863151 C5.31213086,12.0345734 5.74964049,12.1204107 6.20655933,12.1204107 C6.66347816,12.1204107 7.10098779,12.0345734 7.50481485,11.8776695 L7.47939243,11.8863372 L7.47939243,12.6127698 L6.20655933,13.9208925 L4.93372623,12.6127698 L4.93372623,11.8863151 Z M3.35760019,8.95166273 C3.29729683,8.61930317 3.01867735,8.37116673 2.68394878,8.37116673 C2.68394878,8.37116673 2.68394878,8.37116673 2.68394878,8.37116673 L2.68394878,8.37116673 C2.68208704,8.3711225 2.6798829,8.37110039 2.67767877,8.37110039 C2.66661531,8.37110039 2.65570164,8.37176374 2.64498057,8.37306832 L2.64628593,8.37293565 L2.64799788,8.40241043 L2.64457398,8.37293565 C2.63130639,8.37461614 2.61594166,8.37558905 2.60034153,8.37558905 C2.58474141,8.37558905 2.56939808,8.37461614 2.55429014,8.37275876 L2.55610909,8.37293565 C2.42343314,8.32302976 2.33030319,8.19403065 2.3298538,8.04249981 L2.3298538,7.75852045 C2.3298538,7.75838778 2.3298538,7.75821088 2.3298538,7.75803399 C2.3298538,7.60816152 2.42961755,7.48234648 2.56426224,7.44765337 L2.56640217,7.44718903 L2.56811412,7.44718903 C2.5851908,7.44380595 2.6048568,7.44188224 2.62495078,7.44188224 C2.62503638,7.44188224 2.62512198,7.44188224 2.62520757,7.44188224 L2.62518617,7.44188224 C2.71874412,7.44208125 2.80209457,7.48716681 2.85612792,7.55741539 L2.8565987,7.55803451 C2.91784363,7.64232396 3.00219985,7.70556315 3.09993067,7.7380451 L3.10341876,7.73904012 L3.10684265,7.74080905 C3.14957715,7.75540271 3.19877425,7.76382723 3.24987588,7.76382723 C3.25165203,7.76382723 3.25342818,7.76382723 3.25520432,7.76380512 L3.25492613,7.76380512 C3.2557607,7.76380512 3.25676647,7.76380512 3.25775084,7.76380512 C3.36369901,7.76380512 3.46175081,7.72889089 3.54172017,7.66960968 L3.54026501,7.67064892 C3.80981117,7.4699861 4.03559567,7.22655942 4.21316745,6.94744461 L4.21933046,6.93714061 L4.22590006,6.92681448 L4.227612,6.92327663 C4.25108709,6.87615679 4.26497526,6.82050188 4.26527485,6.76153023 L4.26527485,6.76141967 C4.26527485,6.76133122 4.26527485,6.76122066 4.26527485,6.76111011 C4.26527485,6.55595862 4.10430897,6.38963512 3.90576584,6.38963512 C3.7924777,6.38963512 3.69145139,6.44376433 3.6255414,6.52836334 L3.62500642,6.52907091 L3.61987058,6.53614662 C3.52280314,6.70377471 3.40758906,6.84741171 3.27433534,6.97063969 L3.27262339,6.9721875 C3.13207248,6.84935753 2.95576327,6.76590833 2.76194939,6.74039153 L2.75704894,6.73986085 C2.69325749,6.49760609 2.65660041,6.21944209 2.65660041,5.93245555 C2.65660041,5.92889558 2.65660041,5.92533561 2.65662181,5.92177564 L2.65662181,5.92232843 L2.65662181,5.9205595 C2.69832914,3.97380945 4.23550836,2.41215514 6.1256484,2.41215514 C6.12843032,2.41215514 6.13123363,2.41215514 6.13401554,2.41215514 L6.28338298,2.41215514 C6.2859723,2.41215514 6.28903241,2.41215514 6.29209251,2.41215514 C7.23370654,2.41215514 8.08766884,2.7999706 8.71252975,3.42944382 L8.71180217,3.42871413 C9.3391668,4.0548706 9.73561108,4.92440952 9.75829439,5.8896917 L9.75837998,5.89400346 L9.75837998,5.89754132 C9.75837998,5.89760765 9.75837998,5.8976961 9.75837998,5.89778455 C9.75837998,6.18667268 9.72362745,6.46720263 9.65820965,6.73510686 L9.6630887,6.711558 C9.5712213,6.72217157 9.48446835,6.736323 9.39745861,6.75549376 L9.13724257,6.5376281 C9.02003835,6.44044759 8.86949395,6.38167494 8.70566056,6.38167494 C8.70542516,6.38167494 8.70516837,6.38167494 8.70493298,6.38167494 L8.70497578,6.38167494 C8.70304983,6.38163072 8.7007601,6.38160861 8.69847037,6.38160861 C8.68700033,6.38160861 8.67565867,6.38227195 8.66450961,6.38357654 L8.66587917,6.38344387 C8.54319672,6.39023213 8.39853714,6.39376999 8.2590134,6.39376999 C8.25794344,6.39376999 8.25665948,6.39376999 8.25537552,6.39376999 C7.69751596,6.39376999 7.15339479,6.3330073 6.62887542,6.21751838 L6.67974167,6.2268937 L6.67974167,6.22512477 L6.62866143,6.21628013 C5.65529077,6.03903349 4.81540924,5.54355661 4.19296646,4.83934617 L4.18999195,4.83591887 L4.18828001,4.83414995 C4.1230762,4.74543818 4.02093712,4.68876613 3.90600123,4.68876613 C3.7107536,4.68876613 3.55248404,4.85230357 3.55248404,5.05404987 C3.55248404,5.1497489 3.58809255,5.23686863 3.64638437,5.30198731 L3.64617037,5.30174409 C4.38083132,6.1377397 5.36920292,6.72349826 6.48498622,6.9289372 L6.51539469,6.93358064 L6.54250766,6.93711849 C7.05467961,7.05260741 7.64301183,7.11874323 8.24628079,7.11874323 C8.25197302,7.11874323 8.25764385,7.11874323 8.26333607,7.11872112 L8.2624373,7.11872112 C8.40367298,7.11872112 8.54775478,7.11518326 8.68614435,7.10810755 L9.08273843,7.44303205 C9.14717186,7.50934476 9.23606475,7.55033967 9.33420215,7.55033967 C9.39073922,7.55033967 9.44419479,7.53674104 9.49167993,7.51252883 L9.4895828,7.51350174 C9.56876038,7.47978154 9.66067057,7.46021277 9.75701043,7.46021277 C9.78341722,7.46021277 9.80948162,7.46167213 9.83513944,7.46454664 L9.83195094,7.46425919 C9.97181706,7.50182681 10.0736565,7.63049425 10.0750475,7.78397091 L10.0750475,8.06036599 C10.0745767,8.21196316 9.98146817,8.34094016 9.85114615,8.39007215 L9.84877082,8.39084606 C9.83680859,8.39243809 9.82296321,8.39334467 9.80892524,8.39334467 C9.7905646,8.39334467 9.77252495,8.39179685 9.75497749,8.38881179 L9.75688203,8.38907713 L9.75517008,8.38907713 C9.7448984,8.38907713 9.73319295,8.3873082 9.71949737,8.3873082 C9.38735812,8.38735242 9.11047198,8.63170778 9.04800729,8.95593027 L9.04727972,8.96044104 L9.04727972,8.96397889 C8.78869002,10.366496 7.61187578,11.4125518 6.19842758,11.4136574 L6.19829918,11.4136574 C4.80306182,11.4136574 3.60668858,10.3918138 3.35304213,8.98520603 L3.36331382,8.97105461 L3.35817797,8.95188384 L3.35760019,8.95166273 Z M8.70486878,13.4848516 L7.66171486,15.2009997 L6.74866896,14.4132295 L8.17814528,12.9432499 L8.70570335,13.4848295 L8.70486878,13.4848516 Z M15.053049,6.77707469 C12.3253385,6.77707469 10.1063761,9.06989349 10.1063761,11.8883936 C10.1063761,14.7068937 12.3253385,17 15.053049,17 C17.7807594,17 20,14.7065842 20,11.8883936 C20,9.07020305 17.7810376,6.77707469 15.053049,6.77707469 Z M15.053049,16.208117 C12.7484892,16.208117 10.8727509,14.2702559 10.8727509,11.8883936 C10.8727509,9.50653138 12.7484678,7.56895765 15.053049,7.56895765 C17.3576302,7.56895765 19.2336252,9.50681883 19.2336252,11.8883936 C19.2336252,14.2699684 17.3581865,16.208117 15.053049,16.208117 Z M16.969018,11.4570625 L15.4362471,11.4570625 L15.4362471,9.87327448 C15.4362471,9.65459069 15.2646885,9.47732195 15.053049,9.47732195 C14.8414094,9.47732195 14.6698509,9.65459069 14.6698509,9.87327448 L14.6698509,11.8603782 C14.6698509,12.0788851 14.8412811,12.2560212 15.0527494,12.2560212 C15.0528564,12.2560212 15.052942,12.2560212 15.053049,12.2560212 L15.0530276,12.2560212 C15.2650309,12.2560212 16.9689752,12.248658 16.9689752,12.248658 C16.9720995,12.2487465 16.9757588,12.2488128 16.9794395,12.2488128 C17.191079,12.2488128 17.3626376,12.0715441 17.3626376,11.8528603 C17.3626376,11.6341765 17.191079,11.4569077 16.9794395,11.4569077 C16.9757588,11.4569077 16.9720995,11.456952 16.9684402,11.4570625 L16.9689752,11.4570404 L16.969018,11.4570625 Z" id="path-1"></path>
    </defs>
    <g id="Yanbal-UI-Visual-Kit" stroke="none" stroke-width="1" fill="none" fill-rule="evenodd">
        <g id="yanbal-styleguide-pag2" transform="translate(-1418.000000, -4686.000000)">
            <g id="Group" transform="translate(1416.000000, 4682.000000)">
                <g id="colors/brand-secondary" transform="translate(2.000000, 4.000000)">
                    <mask id="mask-2" fill="white">
                        <use xlink:href="#path-1"></use>
                    </mask>
                    <use id="Mask" fill="#000000" fill-rule="nonzero" xlink:href="#path-1"></use>
                    <g id="Group" mask="url(#mask-2)">
                        <g transform="translate(-4.000000, -5.000000)" id="colors/brand-secondary">
                            <rect id="box" fill="#1C1F28" fill-rule="nonzero" x="0" y="0" width="26.4058266" height="25.7456809"></rect>
                        </g>
                    </g>
                </g>
            </g>
        </g>
    </g>
</svg>