<?xml version="1.0" encoding="UTF-8"?>
<svg width="16px" height="18px" viewBox="0 0 16 18" version="1.1" xmlns="http://www.w3.org/2000/svg" xmlns:xlink="http://www.w3.org/1999/xlink">
    <title>3. icons/outline/icon-make-up</title>
    <defs>
        <path d="M6.6090465,13.6171099 L6.03782638,13.6171099 L6.03782638,8.87878525 C6.03460689,8.62904331 5.81591024,8.42774868 5.54659494,8.42774868 C5.54455939,8.42774868 5.54256539,8.42776797 5.54055061,8.42778726 L5.20383379,8.42778726 L5.20383379,5.50944925 C5.20235905,5.37460327 5.13888323,5.25378404 5.03864293,5.17024089 L5.03818597,5.1698743 C4.95042898,5.09869862 4.83481824,5.05526775 4.70832354,5.05526775 C4.68767728,5.05526775 4.66734259,5.05642539 4.64736099,5.0586635 L4.64977042,5.05843197 C3.06748591,5.22821945 2.49624501,5.83841249 1.87932894,6.87839937 C1.84302144,6.93788287 1.82160665,7.00907784 1.82160665,7.08490339 C1.82160665,7.09250523 1.82183513,7.10008779 1.82225055,7.10763175 L1.82220901,7.10658988 L1.82220901,8.4490107 L1.54230056,8.4490107 C1.54230056,8.4490107 1.54227979,8.4490107 1.54225902,8.4490107 C1.26980731,8.4490107 1.04855584,8.65267849 1.04533635,8.90504442 L1.04533635,13.6330468 L0.474116231,13.6330468 C0.216017209,13.6415362 0.0091391896,13.8337047 0,14.0726613 L0,14.0734524 L0,17.5436383 C0,17.5436383 0,17.5436576 0,17.5436769 C0,17.7956955 0.219942906,18 0.491252212,18 C0.493266988,18 0.495260993,18 0.497275769,18 L6.60906727,18 C6.61077048,18 6.61276449,18 6.61477926,18 C6.88608857,18 7.10603148,17.7956955 7.10603148,17.5436769 C7.10603148,17.5436576 7.10603148,17.5436576 7.10603148,17.5436383 L7.10603148,17.5436383 L7.10603148,14.0734524 C7.10603148,14.0734524 7.10603148,14.0734331 7.10603148,14.0734138 C7.10603148,13.8213952 6.88608857,13.6170907 6.61477926,13.6170907 C6.61276449,13.6170907 6.61077048,13.6171099 6.60875571,13.6171292 L6.60906727,13.6171292 L6.6090465,13.6171099 Z M2.85612137,7.21797432 C3.2502697,6.618393 3.34737359,6.23104603 4.24988933,6.04534097 L4.24988933,8.4489914 L2.85612137,8.4489914 L2.85612137,7.21797432 Z M2.05640074,9.34041424 L5.08388192,9.34041424 L5.08388192,13.6224351 L2.03926476,13.6224351 L2.05640074,9.34041424 Z M6.11208229,17.0926017 L0.971080437,17.0926017 L0.971080437,14.5244697 L6.11208229,14.5244697 L6.11208229,17.0926017 Z M15.9942465,12.1632468 C15.9910062,11.895928 15.7569806,11.6803944 15.4687638,11.6803944 C15.4687431,11.6803944 15.4687431,11.6803944 15.4687223,11.6803944 L13.7093452,11.6803944 L13.7093452,7.32411079 L14.3091461,7.32411079 C14.5993984,7.32411079 14.8346702,7.10556729 14.8346702,6.8359525 C14.8346702,6.5663377 14.5993984,6.34779421 14.3091461,6.34779421 L13.7093452,6.34779421 L13.7093452,5.42453622 L14.8517855,5.42453622 C15.1420378,5.42453622 15.3773096,5.20599273 15.3773096,4.93637793 C15.3773096,4.66676314 15.1420378,4.44821964 14.8517855,4.44821964 L13.7093452,4.44821964 L13.7093452,3.56740852 L14.8517855,3.56740852 C14.8845411,3.57416143 14.922178,3.57802024 14.9607703,3.57802024 C15.2510226,3.57802024 15.4862945,3.35947675 15.4862945,3.08986195 C15.4862945,2.82024716 15.2510226,2.60170366 14.9607703,2.60170366 C14.922178,2.60170366 14.8845411,2.60556247 14.8483167,2.6128942 L14.8517855,2.61229609 L13.7093452,2.61229609 L13.7093452,1.71026153 L14.3091461,1.71026153 C14.5993984,1.71026153 14.8346702,1.49171804 14.8346702,1.22210324 C14.8346702,0.952488448 14.5993984,0.733944954 14.3091461,0.733944954 L13.7093452,0.733944954 L13.7093452,0.447409294 C13.6803698,0.194946893 13.4523055,0 13.1752427,0 C12.8981798,0 12.6701155,0.194927599 12.6413686,0.445209774 L12.6411609,0.44739 L12.6411609,0.73392566 L12.0699408,0.73392566 C11.7796884,0.73392566 11.5444166,0.952469154 11.5444166,1.22208395 C11.5444166,1.49169874 11.7796884,1.71024224 12.0699408,1.71024224 L12.6411609,1.71024224 L12.6411609,2.61227679 L11.4987206,2.61227679 C11.2084683,2.61227679 10.9731965,2.83082029 10.9731965,3.10043508 C10.9731965,3.37004988 11.2084683,3.58859337 11.4987206,3.58859337 L12.6411609,3.58859337 L12.6411609,4.44818106 L11.4987206,4.44818106 C11.2084683,4.44818106 10.9731965,4.66672455 10.9731965,4.93633934 C10.9731965,5.20595414 11.2084683,5.42449763 11.4987206,5.42449763 L12.6411609,5.42449763 L12.6411609,6.32653219 L12.0699408,6.32653219 C11.7796884,6.32653219 11.5444166,6.54507568 11.5444166,6.81469048 C11.5444166,7.08430527 11.7796884,7.30284876 12.0699408,7.30284876 L12.6411609,7.30284876 L12.6411609,11.6803751 L10.9275005,11.6803751 C10.9275005,11.6803751 10.9274798,11.6803751 10.927459,11.6803751 C10.6392214,11.6803751 10.4051751,11.895928 10.4019763,12.1629381 L10.4019763,17.5170511 C10.4052166,17.7843699 10.6392422,17.9999614 10.927459,17.9999614 C10.9274798,17.9999614 10.9274798,17.9999614 10.9275005,17.9999614 L15.4972823,17.9999614 C15.4995047,17.9999614 15.5021426,17.9999614 15.5048013,17.9999614 C15.6297797,17.9999614 15.7435834,17.9555851 15.8289725,17.8828659 L15.8286194,17.8831553 L15.8686034,17.8566261 L15.8686034,17.8247909 C15.9499422,17.745859 16,17.6386035 16,17.5204661 C16,17.5192506 16,17.5180544 16,17.5168389 L16,17.5170318 L15.9942465,12.1632468 Z M14.9374861,12.693852 L14.9374861,17.0607666 L11.4244647,17.0607666 L11.4244647,12.693852 L14.9374861,12.693852 Z" id="path-1"></path>
    </defs>
    <g id="Yanbal-UI-Visual-Kit" stroke="none" stroke-width="1" fill="none" fill-rule="evenodd">
        <g id="yanbal-styleguide-pag2" transform="translate(-604.000000, -4637.000000)">
            <g id="Group" transform="translate(600.000000, 4634.000000)">
                <g id="colors/brand-secondary" transform="translate(4.000000, 3.000000)">
                    <mask id="mask-2" fill="white">
                        <use xlink:href="#path-1"></use>
                    </mask>
                    <use id="Mask" fill="#000000" fill-rule="nonzero" xlink:href="#path-1"></use>
                    <g id="Group" mask="url(#mask-2)">
                        <g transform="translate(-6.000000, -4.000000)" id="colors/brand-secondary">
                            <rect id="box" fill="#1C1F28" fill-rule="nonzero" x="0" y="0" width="26.4058266" height="25.7456809"></rect>
                        </g>
                    </g>
                </g>
            </g>
        </g>
    </g>
</svg>