<?xml version="1.0" encoding="UTF-8"?>
<svg width="18px" height="17px" viewBox="0 0 18 17" version="1.1" xmlns="http://www.w3.org/2000/svg" xmlns:xlink="http://www.w3.org/1999/xlink">
    <title>3. icons/outline/icon-attach </title>
    <defs>
        <path d="M16.6185,2.12527273 C15.72825,1.23872727 14.5425,0.75 13.28325,0.75 C12.0225,0.75 10.8375,1.23872727 9.9465,2.12527273 L0.98325,11.0430909 C0.3495,11.6729091 0,12.5129091 0,13.4074545 C0,14.302 0.34875,15.142 0.98325,15.7732727 C1.617,16.4038182 2.46075,16.75 3.3585,16.75 C4.25625,16.75 5.1,16.4038182 5.733,15.7732727 L14.69775,6.85545455 C15.075,6.47945455 15.2835,5.97909091 15.2835,5.446 C15.2835,4.91290909 15.075,4.41181818 14.69775,4.03581818 C13.91625,3.25981818 12.64725,3.26054545 11.868,4.03581818 L4.1865,11.6787273 C4.06275,11.7972727 3.99375,11.958 3.99075,12.1296364 C3.9885,12.3012727 4.05375,12.4634545 4.173,12.5863636 C4.293,12.7092727 4.45275,12.7776364 4.6275,12.7798182 C4.80525,12.7776364 4.96575,12.7121818 5.09325,12.5885455 L12.777,4.94418182 C13.0515,4.67072727 13.515,4.67218182 13.78875,4.94418182 C13.92675,5.08163636 14.00325,5.25981818 14.00325,5.446 C14.00325,5.63145455 13.92675,5.80963636 13.78875,5.94709091 L4.82475,14.8649091 C4.002,15.6830909 2.7135,15.6830909 1.8915,14.8649091 C1.494,14.47 1.27575,13.9521818 1.275,13.4081818 C1.275,12.8641818 1.494,12.3470909 1.8915,11.9507273 L10.8555,3.03363636 C11.50875,2.38345455 12.3705,2.02636364 13.28325,2.02636364 C14.1945,2.02636364 15.057,2.38345455 15.7095,3.03363636 C16.36725,3.68818182 16.7295,4.54490909 16.7295,5.446 C16.7295,6.34709091 16.36725,7.20309091 15.7095,7.85763636 L8.028,15.5005455 C7.90425,15.6190909 7.83525,15.7790909 7.833,15.9514545 C7.83075,16.1223636 7.89525,16.2852727 8.01525,16.4081818 C8.26725,16.6649091 8.67075,16.6656364 8.93475,16.4103636 L16.6185,8.766 C17.5095,7.87945455 18,6.70054545 18,5.446 C18,4.19072727 17.5095,3.01181818 16.6185,2.12527273" id="path-1"></path>
    </defs>
    <g id="Yanbal-UI-Visual-Kit" stroke="none" stroke-width="1" fill="none" fill-rule="evenodd">
        <g id="yanbal-styleguide-pag2" transform="translate(-507.000000, -4493.000000)">
            <g id="Group" transform="translate(504.000000, 4490.000000)">
                <g id="elements" transform="translate(3.000000, 3.000000)">
                    <mask id="mask-2" fill="white">
                        <use xlink:href="#path-1"></use>
                    </mask>
                    <use id="icon" fill="#1F1410" xlink:href="#path-1"></use>
                    <g id="Group" mask="url(#mask-2)">
                        <g transform="translate(-3.000000, -3.000000)" id="color">
                            <rect id="box" fill="#1C1F28" fill-rule="nonzero" x="0" y="0" width="24" height="24"></rect>
                        </g>
                    </g>
                </g>
            </g>
        </g>
    </g>
</svg>