<?xml version="1.0" encoding="UTF-8"?>
<svg width="18px" height="18px" viewBox="0 0 18 18" version="1.1" xmlns="http://www.w3.org/2000/svg" xmlns:xlink="http://www.w3.org/1999/xlink">
    <title>3. icons/outline/icon-unlike</title>
    <defs>
        <path d="M18,9.84996651 C18,9.76959143 17.9959844,9.68720697 17.9859453,9.61486939 L17.9839375,9.60683188 L17.8574456,8.89350301 C17.6426102,7.24983255 17.3474624,5.36302746 17.0021194,3.43402545 C16.807362,2.34896182 16.3375349,1.49698593 15.6046849,0.900200938 C14.8738427,0.303415941 13.9281651,0 12.7957613,0 L12.5829336,0 C11.2939208,0.044206296 9.99888455,0.212993972 8.74601227,0.375753516 L7.545343,0.53248493 C6.86670385,0.616878768 6.20412716,0.715338245 5.4993865,0.819825854 C5.38092582,0.837910248 5.26246514,0.855994642 5.14199665,0.872069658 C4.93720022,0.488278634 4.53363079,0.241125251 4.09191299,0.241125251 C4.03569437,0.241125251 3.97947574,0.245144005 3.92727273,0.253181514 C3.64015616,0.253181514 3.34500837,0.253181514 3.04785276,0.251172137 C2.45956497,0.24916276 1.8491913,0.24916276 1.30909091,0.253181514 C0.86536531,0.257200268 0.546123815,0.361687877 0.331288344,0.572672472 C0.114445064,0.783657066 0.0100390407,1.09912927 0.0100390407,1.5351641 L0.0100390407,9.84795713 C0.00401561629,9.89618218 0,9.94440723 0,9.99464166 C0,10.6416611 0.526045733,11.1701273 1.17255996,11.1701273 C1.22677078,11.1701273 1.2809816,11.1661085 1.32916899,11.1600804 L4.01160067,11.1600804 C4.6601227,11.1480241 5.05967652,10.9008707 5.22230898,10.406564 C5.86279978,10.7843269 6.4109314,11.2886805 6.85264919,11.9055593 L6.85867262,11.9115874 L6.98315672,12.0622907 C7.26625767,12.3777629 7.56742889,12.7113195 7.8665923,13.0107167 L8.35649749,13.5210985 C8.97891801,14.2906899 9.32626882,15.2230409 9.36040156,16.2196919 L9.36040156,16.4989953 C9.41662019,16.9832552 9.55515895,17.35499 9.76798661,17.6061621 C9.99085332,17.8673811 10.2940323,18 10.6715003,18 L10.6755159,18 C11.0148355,17.9939719 11.3501394,17.9196249 11.647295,17.787006 L11.6673731,17.7789685 C12.7134412,17.3047555 13.3880647,16.2558607 13.3880647,15.1085064 C13.3880647,14.7749498 13.3318461,14.4413932 13.2254322,14.141996 C13.1591746,13.9249833 13.0929169,13.7059612 13.0266592,13.486939 C12.9604016,13.2659076 12.8941439,13.0468855 12.8278862,12.8278634 L12.7656442,12.61286 L12.5508087,11.909578 L12.8238706,11.909578 C13.0387061,11.9196249 13.2615728,11.9316812 13.4764083,11.9437374 C14.0566648,11.9758875 14.6549916,12.0100469 15.2412716,12.0100469 C15.2814278,12.0120563 15.3235917,12.0120563 15.3657557,12.0120563 C15.7131065,12.0120563 16.0604573,11.9718687 16.3736754,11.893503 L16.3877301,11.8914936 C16.8394869,11.7849967 17.2470719,11.525787 17.5402119,11.1620898 C17.8373675,10.790355 18,10.3241795 18,9.84996651 Z M9.09737869,12.8620228 L9.09135527,12.8559946 L8.61349693,12.3536504 L8.57334077,12.3134628 C8.30429448,12.0562626 8.00914668,11.738781 7.7421082,11.4172806 L7.62565533,11.2766242 L7.61561629,11.2625586 C7.0273285,10.4467515 6.22621305,9.79370395 5.29659788,9.36972539 L5.29659788,1.85465506 C6.05153374,1.73811119 6.86068042,1.61754856 7.67785834,1.51707971 L7.68187395,1.51707971 L8.83837144,1.34628265 L9.00903514,1.3241795 C10.1936419,1.16945747 11.4184049,1.01071668 12.621082,0.97454789 C13.5667596,0.946416611 14.3397658,1.15941058 14.9160067,1.60348292 C15.4922476,2.04755526 15.8636921,2.71466845 16.0203012,3.58673811 C16.335527,5.32685867 16.5925265,7.08506363 16.8414947,8.78700603 L16.8756274,9.01406564 L16.9820413,9.73342264 C16.9840491,9.76557267 16.9860569,9.79772271 16.9860569,9.82987274 C16.9860569,10.3422639 16.6387061,10.7963831 16.1387619,10.9310114 L16.1387619,10.9310114 C15.8897936,10.9912927 15.6327942,11.0234427 15.3737869,11.0234427 C15.3376464,11.0234427 15.3015059,11.0234427 15.2713887,11.0214334 C14.6108199,11.0053583 13.9402119,10.9732083 13.2916899,10.9410583 C13.1511433,10.9350301 13.008589,10.9269926 12.8680424,10.9209645 L11.9645287,10.8767582 C11.9564975,10.8767582 11.9464584,10.8767582 11.9384272,10.8767582 C11.8059119,10.8767582 11.6814278,10.929002 11.5870608,11.0234427 C11.4926938,11.1158741 11.4404908,11.2404555 11.4404908,11.3730743 C11.4404908,11.3831212 11.4404908,11.3951775 11.4404908,11.4052244 L11.4404908,11.4876088 C11.4404908,11.4956463 11.4404908,11.5036839 11.4404908,11.5117214 C11.4404908,11.6101808 11.4525376,11.7106497 11.4766313,11.8010717 L11.4786392,11.8050904 L11.8199665,12.9202947 C11.8681539,13.0810449 11.9183491,13.241795 11.9665365,13.4025452 C12.0629113,13.7139987 12.1612939,14.035499 12.2516453,14.3529806 L12.2516453,14.3529806 L12.2556609,14.3670462 L12.2556609,14.3670462 C12.3359732,14.5820496 12.3761294,14.8111186 12.3761294,15.0421969 C12.3761294,15.4219692 12.2677078,15.7896852 12.0609035,16.1071668 C11.8581149,16.4166109 11.5730061,16.6637642 11.2356944,16.822505 L11.2356944,16.822505 C11.0529838,16.9089082 10.8582264,16.961152 10.65343,16.9752177 C10.5992192,16.9752177 10.5570552,16.9732083 10.5108756,16.9229739 C10.454657,16.8626926 10.3783603,16.716008 10.3382041,16.3603483 L10.3382041,16.0991293 C10.2940323,14.9135968 9.85231456,13.7642331 9.09737869,12.8620228 Z M4.29871723,1.48492967 C4.29871723,1.50100469 4.29871723,1.51707971 4.30072504,1.53114534 L4.30072504,9.80576021 C4.30072504,9.92431346 4.29670943,10.0850636 4.25253765,10.1312793 C4.21840491,10.1674481 4.10395984,10.1714668 3.98549916,10.1714668 L1.32916899,10.1714668 C1.22275516,10.1694575 1.09626325,10.16142 1.05811489,10.1232418 C1.01996654,10.0850636 1.01394311,9.96048225 1.01394311,9.85599464 L1.01394311,1.5351641 C1.01394311,1.4648359 1.01394311,1.30207636 1.04205243,1.27595445 C1.07216955,1.2458138 1.24885666,1.2458138 1.32314557,1.2458138 L1.32515337,1.2458138 C2.11622978,1.23375754 2.95147797,1.23174816 3.95538204,1.23978567 C4.22041272,1.24380442 4.27863915,1.26590757 4.290686,1.27796383 C4.30273285,1.29202947 4.30273285,1.37441393 4.30273285,1.438714 C4.29871723,1.45478902 4.29871723,1.46885466 4.29871723,1.48492967 Z" id="path-1"></path>
    </defs>
    <g id="Yanbal-UI-Visual-Kit" stroke="none" stroke-width="1" fill="none" fill-rule="evenodd">
        <g id="yanbal-styleguide-pag2" transform="translate(-411.000000, -4589.000000)">
            <g id="Group" transform="translate(408.000000, 4586.000000)">
                <g id="colors/brand-secondary" transform="translate(3.000000, 3.000000)">
                    <mask id="mask-2" fill="white">
                        <use xlink:href="#path-1"></use>
                    </mask>
                    <use id="Mask" fill="#000000" fill-rule="nonzero" xlink:href="#path-1"></use>
                    <g id="Group" mask="url(#mask-2)">
                        <g transform="translate(-3.000000, -3.000000)" id="colors/brand-secondary">
                            <rect id="box" fill="#1C1F28" fill-rule="nonzero" x="0" y="0" width="24" height="24"></rect>
                        </g>
                    </g>
                </g>
            </g>
        </g>
    </g>
</svg>