<?xml version="1.0" encoding="UTF-8"?>
<svg width="20px" height="20px" viewBox="0 0 20 20" version="1.1" xmlns="http://www.w3.org/2000/svg" xmlns:xlink="http://www.w3.org/1999/xlink">
    <title>3. icons/outline/icon-recycle</title>
    <defs>
        <path d="M19.7860781,14.4316811 L19.6744512,14.4316811 L19.7860781,14.4316811 Z M19.5803943,14.3610849 L19.4687673,14.3610849 L19.5803943,14.3610849 Z M17.4825443,11.1800953 C17.476003,11.4347605 17.4568925,11.6770411 17.4259495,11.9155438 L17.4296778,11.880268 C17.3235429,12.6644275 17.1174796,13.3747492 16.8222263,14.0363823 L16.8419619,13.9867772 L16.5187796,12.7628554 C16.5096708,12.7269313 16.4975928,12.6956794 16.4823222,12.6662606 L16.4834831,12.6687419 C16.4723427,12.6350533 16.4583671,12.6058581 16.4413328,12.5788088 L16.4422928,12.5804631 C16.4213962,12.5516925 16.3982225,12.5265882 16.3723473,12.5045017 L16.3717445,12.5040322 C16.3494861,12.4787714 16.3264463,12.4557237 16.3020893,12.4341737 L16.3012186,12.433436 L16.2072287,12.3863345 C16.1825592,12.3735029 16.1532683,12.3615431 16.122995,12.3520871 L16.1190658,12.3510588 C16.1022994,12.3481527 16.0829656,12.346409 16.0631853,12.346409 C16.043405,12.346409 16.0241605,12.3480632 16.0053626,12.3513047 L16.0074165,12.3510141 C15.9879934,12.3482197 15.9655787,12.3466102 15.9428291,12.3466102 C15.9200796,12.3466102 15.8975979,12.3481974 15.8756967,12.3512823 L15.8782195,12.3509917 L15.8664763,12.3509917 C15.6060506,12.3988532 15.4113062,12.6244125 15.4113062,12.8954637 C15.4113062,12.9296888 15.4144095,12.9632879 15.4203704,12.9957917 L15.4198792,12.9923714 C15.4190978,13.0012016 15.4187183,13.0114177 15.4187183,13.0217903 C15.4187183,13.0321629 15.4191201,13.0424013 15.4200131,13.0525504 L15.4199238,13.0512091 L16.1486692,15.6872796 C16.2244863,15.9236362 16.4392565,16.0927945 16.6944804,16.0991433 L16.6952171,16.0991656 C16.7172969,16.10196 16.7428149,16.1034577 16.7686453,16.1034577 C16.7944758,16.1034577 16.820083,16.1019152 16.8450875,16.0988079 L16.8420959,16.0990985 L19.5628912,15.3871002 C19.81365,15.336802 20,15.1180162 20,14.8557728 C20,14.8040663 19.9927889,14.7539917 19.9791927,14.706622 L19.9801081,14.710467 C19.9710886,14.6791034 19.9591445,14.6517859 19.9439856,14.6265027 L19.9448786,14.6280451 L19.897839,14.5397663 C19.8752457,14.5132983 19.8501743,14.4900941 19.8226471,14.4700419 L19.8214192,14.4691477 C19.8009245,14.4467482 19.7777507,14.4272996 19.7523221,14.4111371 L19.7509156,14.4102876 C19.7237456,14.3905484 19.6928473,14.3727764 19.6601183,14.3585811 L19.6569481,14.357374 L19.5687851,14.3279552 L19.2925977,14.3279552 L17.7882013,14.7104223 C18.2972425,13.6407482 18.5945497,12.3857533 18.5945497,11.061347 C18.5945497,10.9374794 18.5919376,10.8142377 18.5867358,10.6916444 L18.5873163,10.7091705 C18.5573556,9.81618818 18.3983765,8.97055322 18.1283956,8.17626709 L18.1465907,8.23780968 C17.8641299,7.37205546 17.4893536,6.61984095 17.0220832,5.93587544 L17.0418188,5.96652378 C16.8831299,5.74295407 16.7244634,5.52521894 16.5482268,5.31338546 L16.5482268,5.31338546 C15.8349082,4.45351053 14.986789,3.73554347 14.0308827,3.1836721 L13.9861203,3.15979724 C13.8992522,3.1050952 13.7937871,3.07234551 13.6807313,3.07151839 L13.6804857,3.07151839 C13.4806288,3.07326206 13.3048387,3.17464079 13.1999317,3.32839666 L13.1986145,3.3304533 C13.1417964,3.41180218 13.1078171,3.51273382 13.1078171,3.6216908 C13.1078171,3.66452247 13.1131082,3.70612464 13.1229761,3.745849 L13.122217,3.74236167 C13.1614204,3.88894167 13.2517712,4.01019376 13.3725963,4.08816708 L13.3748734,4.08959778 L13.4101252,4.08959778 C14.0816283,4.476983 14.660682,4.92367534 15.1730497,5.4370295 L15.173072,5.43705186 L15.2259385,5.49588952 C15.3787112,5.65478699 15.5256569,5.80776045 15.6607702,5.97247014 L15.7078098,6.03714239 C16.807045,7.36836693 17.4738374,9.09274421 17.4738374,10.9731128 C17.4738374,11.0499908 17.4727435,11.1265334 17.4704886,11.2029195 L17.4707789,11.1917198 L17.4825443,11.1800953 Z M19.9071487,14.5663833 C19.9071487,14.5663833 19.9071487,14.5663833 19.9071487,14.5663833 C19.9071487,14.5663833 19.9071487,14.5368751 19.9071487,14.5663833 Z M0.587738226,11.5155729 C0.588140083,11.5155729 0.588653567,11.5155729 0.589211702,11.5155729 C0.899266723,11.5155729 1.15324036,11.2750583 1.17529785,10.9701844 L1.17540948,10.9682842 C1.18293313,8.95340714 1.95903068,7.12143652 3.22510356,5.74977226 L3.22043756,5.75495856 C4.50941629,4.33773535 6.26789799,3.36841164 8.24813778,3.09438728 L8.29180625,3.08944689 L7.35155011,4.00733235 C7.24885331,4.10515668 7.18495805,4.24292892 7.18495805,4.39570118 C7.18495805,4.54847345 7.24887564,4.68626804 7.3512822,4.78384647 L7.35155011,4.78409237 C7.46063196,4.87532205 7.60235354,4.93067237 7.75700152,4.93067237 C7.9116495,4.93067237 8.05337108,4.87532205 8.16352455,4.78324289 L8.16254224,4.78409237 L10.1487876,2.84817222 C10.2496314,2.75063851 10.3122987,2.61405107 10.3122987,2.46279892 C10.3122987,2.31154678 10.2496314,2.17493699 10.1489438,2.07747034 L10.1487652,2.07731385 L8.12729045,0.147295356 C8.02419179,0.0557974214 7.88780598,0 7.73831517,0 C7.73248824,0 7.72675062,0 7.72094602,0.00029061157 L7.72181671,0.000268256834 C7.7171507,0 7.71150238,0 7.70592103,0 C7.55334931,0 7.41441841,0.0582340876 7.30993558,0.153621747 L7.31035976,0.153241716 C7.20889086,0.247109253 7.14550908,0.381036477 7.14550908,0.529762537 C7.14550908,0.535999508 7.14562071,0.542214125 7.14579931,0.548384032 L7.14577698,0.547467488 C7.14586629,0.70276584 7.21123503,0.842795907 7.31589646,0.941469712 L7.31618669,0.941760324 L8.38570684,1.96560724 C7.18109575,2.09390107 6.08087819,2.42761257 5.08130349,2.93213661 L5.1360007,2.90709931 C4.8487399,3.0458328 4.61197913,3.17906703 4.3839476,3.32470813 L4.41319386,3.30724908 C2.96150768,4.20912856 1.79935948,5.45196247 1.01779222,6.92791156 L0.993122664,6.97894743 C0.373660058,8.13558147 0.00703249795,9.50834111 0,10.9662052 L0,10.9683736 C0.0221467872,11.2751253 0.276165078,11.5155729 0.586220099,11.5155729 C0.586711258,11.5155729 0.587202417,11.5155729 0.587760551,11.5155729 L0.58767125,11.5155729 L0.587738226,11.5155729 Z M0.987362713,14.7459217 L0.264555875,17.3819921 C0.253348529,17.4219848 0.246874166,17.4679461 0.246874166,17.5153829 C0.246874166,17.6189076 0.277593903,17.7152789 0.330326475,17.795823 L0.32914323,17.7938782 C0.41007277,17.9217025 0.535742392,18.0148324 0.683536476,18.0519189 L0.687577371,18.0528131 C0.709679508,18.0557192 0.735152778,18.0574628 0.76100558,18.0574628 C0.786858382,18.0574628 0.81244328,18.0558086 0.837447717,18.0525448 L0.834523091,18.0528354 C1.08764837,18.0482303 1.30130235,17.8841466 1.37973145,17.6569107 L1.38095934,17.6527974 L1.76292445,16.2287784 C3.5101988,18.529729 6.2455726,20 9.32395369,20 C11.0258182,20 12.622932,19.5506027 14.0031992,18.7638725 L13.9564499,18.7884404 C14.0952245,18.7321511 14.2025426,18.6227471 14.2549627,18.4861149 L14.2561682,18.4825158 C14.2853475,18.4213085 14.3024264,18.3494604 14.3024264,18.2736108 C14.3024264,18.1977612 14.2853475,18.1259354 14.2548734,18.0617102 L14.2561682,18.0646834 C14.2418353,18.0353093 14.224109,18.0100708 14.2031901,17.9880961 L14.2033017,17.9882302 C14.1907102,17.9659649 14.177114,17.9466504 14.1617765,17.9289455 L14.1621337,17.9293702 L14.1033733,17.8705325 L14.0505067,17.8293551 L13.9506006,17.7881777 L13.880097,17.7881777 C13.865072,17.7853163 13.8478368,17.783595 13.8301328,17.783595 C13.8124288,17.783595 13.7951936,17.7852269 13.7784942,17.7884236 L13.7801909,17.788133 L13.6274183,17.788133 L13.6274183,17.7528349 L13.4158629,17.8705549 C12.2413687,18.5396322 10.8356505,18.9344839 9.33790706,18.9355792 L9.33761683,18.9355792 C8.0147928,18.9330308 6.76392351,18.6271286 5.64988653,18.0838191 L5.70011866,18.1059503 C4.55688007,17.5458747 3.60037105,16.7669686 2.8513542,15.816557 L2.83827152,15.7993886 L4.11345317,16.1112595 C4.13899342,16.1140315 4.16870851,16.1155293 4.19866918,16.1155293 C4.22862986,16.1155293 4.2583003,16.1139868 4.28754656,16.1109018 L4.28390752,16.1111925 C4.53433143,16.1084428 4.74691379,15.9493665 4.82911588,15.7269369 L4.8304554,15.7228907 C4.84572597,15.6763481 4.85449985,15.6226297 4.85449985,15.5669664 C4.85449985,15.4704163 4.82808891,15.3800585 4.78221024,15.3027334 L4.78352743,15.305103 C4.70976434,15.1768763 4.59273465,15.0806615 4.45273213,15.035572 L4.44860193,15.0344319 L1.68668324,14.3577764 L1.64555987,14.3577764 C1.6243954,14.3550267 1.59988212,14.353529 1.57505629,14.353529 C1.55023045,14.353529 1.52569485,14.3550715 1.50169506,14.3581117 L1.50453038,14.3578211 L1.42808824,14.3578211 C1.37738728,14.3651087 1.33179883,14.3817407 1.29118895,14.4058167 L1.29288568,14.4049002 L1.25763389,14.4049002 C1.12560153,14.4765471 1.02792795,14.5974639 0.988255728,14.7423225 L0.987340387,14.7461899 L0.987362713,14.7459217 Z M14.0801102,17.8621048 L13.9684832,17.8621048 L14.0801102,17.8621048 Z" id="path-1"></path>
    </defs>
    <g id="Yanbal-UI-Visual-Kit" stroke="none" stroke-width="1" fill="none" fill-rule="evenodd">
        <g id="yanbal-styleguide-pag2" transform="translate(-1418.000000, -4636.000000)">
            <g id="Group" transform="translate(1416.000000, 4634.000000)">
                <g id="colors/brand-secondary" transform="translate(2.000000, 2.000000)">
                    <mask id="mask-2" fill="white">
                        <use xlink:href="#path-1"></use>
                    </mask>
                    <use id="Mask" fill="#000000" fill-rule="nonzero" xlink:href="#path-1"></use>
                    <g id="Group" mask="url(#mask-2)">
                        <g transform="translate(-4.000000, -3.000000)" id="colors/brand-secondary">
                            <rect id="box" fill="#1C1F28" fill-rule="nonzero" x="0" y="0" width="26.4058266" height="25.7456809"></rect>
                        </g>
                    </g>
                </g>
            </g>
        </g>
    </g>
</svg>