<?xml version="1.0" encoding="UTF-8"?>
<svg width="14px" height="20px" viewBox="0 0 14 20" version="1.1" xmlns="http://www.w3.org/2000/svg" xmlns:xlink="http://www.w3.org/1999/xlink">
    <title>3. icons/outline/icon-empresa</title>
    <defs>
        <path d="M11.7507308,0 C12.0079475,0 12.2171395,0.2 12.2171395,0.445038168 L12.2171395,0.445038168 L12.2171395,2.57099237 L13.5545035,2.57099237 C13.7962547,2.57099237 13.9916091,2.75801527 13.9916091,2.98931298 L13.9916091,2.98931298 L13.9997489,19.5618321 C14.0038188,19.6740458 13.9582361,19.7854962 13.8760244,19.8671756 C13.7946267,19.9480916 13.679856,19.9946565 13.5626433,19.9946565 L13.5626433,19.9946565 L13.5585734,19.9946565 L0.440522079,20 C0.320867478,20 0.206096739,19.9534351 0.123071097,19.8725191 C0.0416734093,19.7908397 -0.0030953189,19.6793893 0.000160588606,19.5648855 L0.000160588606,19.5648855 L0.000160588606,2.98931298 C-0.0030953189,2.87938931 0.0433013631,2.76870229 0.126327005,2.68931298 C0.2109806,2.60916031 0.327379293,2.57022901 0.443777987,2.57099237 L0.443777987,2.57099237 L1.77544416,2.57099237 L1.77544416,0.445038168 C1.77137427,0.20610687 1.97161259,0.00534351145 2.22231746,0 L2.22231746,0 Z M13.0335583,3.4480916 L0.861348125,3.4480916 L0.861348125,19.1282443 L3.78189716,19.1282443 L3.78189716,14.2954198 C3.77864125,14.1832061 3.822596,14.0694656 3.90399369,13.9877863 C3.98701933,13.9022901 4.10016212,13.8534351 4.22144467,13.851145 L4.22144467,13.851145 L9.42194294,13.851145 C9.67508975,13.8557252 9.87939795,14.0549618 9.87939795,14.2954198 L9.87939795,14.2954198 L9.87939795,19.1282443 L13.0278605,19.1282443 C13.0279667,19.1091769 13.0280709,19.0865272 13.0281733,19.0604591 L13.028765,18.8643394 C13.0288599,18.8252527 13.0289531,18.7830753 13.0290444,18.7379709 L13.0298188,18.2574273 C13.0298997,18.1962358 13.0299789,18.1326088 13.0300564,18.0667102 L13.0309096,17.1773759 C13.0309744,17.0959259 13.0310377,17.0128597 13.0310995,16.9283411 L13.0319193,15.5721105 C13.0319671,15.4771637 13.0320135,15.3815837 13.0320587,15.2855343 L13.0329894,12.6975788 C13.033014,12.6063514 13.0330377,12.5161292 13.0330605,12.4270759 L13.0335583,3.4480916 Z M8.96774384,14.7244275 L4.69192331,14.7244275 L4.69192331,19.1282443 L8.96774384,19.1282443 L8.96774384,14.7244275 Z M11.2030057,11.4503817 C11.4341752,11.4503817 11.6213899,11.6557252 11.6213899,11.9083969 C11.6213899,12.1610687 11.4341752,12.3664122 11.2030057,12.3664122 L11.2030057,12.3664122 L9.36992982,12.3664122 C9.14038834,12.3664122 8.95398763,12.1610687 8.95398763,11.9083969 C8.95398763,11.6557252 9.14038834,11.4503817 9.36992982,11.4503817 L9.36992982,11.4503817 Z M4.69151632,11.450687 C4.92187178,11.450687 5.10990043,11.6560305 5.10990043,11.9087023 C5.10990043,12.161374 4.92187178,12.3659542 4.69151632,12.3659542 L4.69151632,12.3659542 L2.85844039,12.3659542 C2.62889891,12.3659542 2.44168423,12.161374 2.44168423,11.9087023 C2.44168423,11.6560305 2.62889891,11.450687 2.85844039,11.450687 L2.85844039,11.450687 Z M7.94742383,11.450687 C8.17777928,11.450687 8.36580794,11.6560305 8.36580794,11.9087023 C8.36580794,12.161374 8.17777928,12.3659542 7.94742383,12.3659542 L7.94742383,12.3659542 L6.1143479,12.3659542 C5.88480642,12.3659542 5.69759174,12.161374 5.69759174,11.9087023 C5.69759174,11.6560305 5.88480642,11.450687 6.1143479,11.450687 L6.1143479,11.450687 Z M11.2033313,9.16083969 C11.4336868,9.16083969 11.6217155,9.36541985 11.6217155,9.6180916 C11.6217155,9.87076336 11.4336868,10.0761069 11.2033313,10.0761069 L11.2033313,10.0761069 L9.37025541,10.0761069 C9.14071393,10.0761069 8.95349925,9.87076336 8.95349925,9.6180916 C8.95349925,9.36541985 9.14071393,9.16083969 9.37025541,9.16083969 L9.37025541,9.16083969 Z M4.69151632,9.16061069 C4.92187178,9.16061069 5.10990043,9.3659542 5.10990043,9.61862595 C5.10990043,9.87129771 4.92187178,10.0758779 4.69151632,10.0758779 L4.69151632,10.0758779 L2.85844039,10.0758779 C2.62889891,10.0758779 2.44168423,9.87129771 2.44168423,9.61862595 C2.44168423,9.3659542 2.62889891,9.16061069 2.85844039,9.16061069 L2.85844039,9.16061069 Z M7.94742383,9.16061069 C8.17777928,9.16061069 8.36580794,9.3659542 8.36580794,9.61862595 C8.36580794,9.87129771 8.17777928,10.0758779 7.94742383,10.0758779 L7.94742383,10.0758779 L6.1143479,10.0758779 C5.88480642,10.0758779 5.69759174,9.87129771 5.69759174,9.61862595 C5.69759174,9.3659542 5.88480642,9.16061069 6.1143479,9.16061069 L6.1143479,9.16061069 Z M11.2033313,6.87068702 C11.4336868,6.87068702 11.6217155,7.07526718 11.6217155,7.32793893 C11.6217155,7.58061069 11.4336868,7.78671756 11.2033313,7.78671756 L11.2033313,7.78671756 L9.37025541,7.78671756 C9.14071393,7.78671756 8.95349925,7.58061069 8.95349925,7.32793893 C8.95349925,7.07526718 9.14071393,6.87068702 9.37025541,6.87068702 L9.37025541,6.87068702 Z M7.94742383,6.87053435 C8.17777928,6.87053435 8.36580794,7.07587786 8.36580794,7.32854962 C8.36580794,7.58122137 8.17777928,7.78656489 7.94742383,7.78656489 L7.94742383,7.78656489 L6.1143479,7.78656489 C5.88480642,7.78656489 5.69759174,7.58122137 5.69759174,7.32854962 C5.69759174,7.07587786 5.88480642,6.87053435 6.1143479,6.87053435 L6.1143479,6.87053435 Z M4.69151632,6.87053435 C4.92187178,6.87053435 5.10990043,7.07587786 5.10990043,7.32854962 C5.10990043,7.58122137 4.92187178,7.78656489 4.69151632,7.78656489 L4.69151632,7.78656489 L2.85844039,7.78656489 C2.62889891,7.78656489 2.44168423,7.58122137 2.44168423,7.32854962 C2.44168423,7.07587786 2.62889891,6.87053435 2.85844039,6.87053435 L2.85844039,6.87053435 Z M11.2033313,4.58061069 C11.4336868,4.58061069 11.6217155,4.78519084 11.6217155,5.0378626 C11.6217155,5.29053435 11.4336868,5.49664122 11.2033313,5.49664122 L11.2033313,5.49664122 L9.37025541,5.49664122 C9.14071393,5.49664122 8.95349925,5.29053435 8.95349925,5.0378626 C8.95349925,4.78519084 9.14071393,4.58061069 9.37025541,4.58061069 L9.37025541,4.58061069 Z M7.94742383,4.58045802 C8.17777928,4.58045802 8.36580794,4.78580153 8.36580794,5.03847328 C8.36580794,5.29114504 8.17777928,5.49648855 7.94742383,5.49648855 L7.94742383,5.49648855 L6.1143479,5.49648855 C5.88480642,5.49648855 5.69759174,5.29114504 5.69759174,5.03847328 C5.69759174,4.78580153 5.88480642,4.58045802 6.1143479,4.58045802 L6.1143479,4.58045802 Z M4.69151632,4.58045802 C4.92187178,4.58045802 5.10990043,4.78580153 5.10990043,5.03847328 C5.10990043,5.29114504 4.92187178,5.49648855 4.69151632,5.49648855 L4.69151632,5.49648855 L2.85844039,5.49648855 C2.62889891,5.49648855 2.44168423,5.29114504 2.44168423,5.03847328 C2.44168423,4.78580153 2.62889891,4.58045802 2.85844039,4.58045802 L2.85844039,4.58045802 Z M11.2582748,0.877099237 L2.63744567,0.877099237 L2.63744567,2.57328244 L11.2582748,2.57328244 L11.2582748,0.877099237 Z" id="path-1"></path>
    </defs>
    <g id="Yanbal-UI-Visual-Kit" stroke="none" stroke-width="1" fill="none" fill-rule="evenodd">
        <g id="yanbal-styleguide-pag2" transform="translate(-941.000000, -4540.000000)">
            <g id="Group" transform="translate(936.000000, 4538.000000)">
                <g id="Group" transform="translate(5.000000, 2.000000)">
                    <mask id="mask-2" fill="white">
                        <use xlink:href="#path-1"></use>
                    </mask>
                    <use id="Mask" fill="#1E1210" xlink:href="#path-1"></use>
                    <g mask="url(#mask-2)" id="colors/brand-secondary">
                        <g transform="translate(-5.000000, -2.000000)">
                            <rect id="box" fill="#1C1F28" fill-rule="nonzero" x="0" y="0" width="24" height="24"></rect>
                        </g>
                    </g>
                </g>
            </g>
        </g>
    </g>
</svg>