<?xml version="1.0" encoding="UTF-8"?>
<svg width="18px" height="18px" viewBox="0 0 18 18" version="1.1" xmlns="http://www.w3.org/2000/svg" xmlns:xlink="http://www.w3.org/1999/xlink">
    <title>3. icons/outline/icon-like</title>
    <defs>
        <path d="M17.5342405,6.83867366 C17.2431408,6.4749358 16.8335936,6.21569722 16.3818871,6.10918834 L16.367834,6.10717874 C16.0566585,6.02880429 15.7073388,5.98861226 15.3600268,5.98861226 C15.3178675,5.98861226 15.2757082,5.98861226 15.2355565,5.99062186 C14.649342,5.99062186 14.0510819,6.02478508 13.47089,6.05693871 C13.2560785,6.06899632 13.0332367,6.08105392 12.8184252,6.09110193 L12.5453937,6.09110193 L12.7602052,5.38774143 L12.8224403,5.17271408 C12.8886906,4.95366752 12.9549409,4.73261137 13.0211912,4.51356481 C13.0874414,4.29451825 13.1536917,4.0754717 13.219942,3.85843474 C13.326344,3.56101373 13.3825563,3.2274199 13.3825563,2.89181646 C13.3825563,1.74232444 12.708008,0.693312493 11.6620567,0.221056157 L11.6419808,0.213017751 C11.3488735,0.0803840572 11.013607,0.00602880429 10.6743252,0 L10.6703101,0 C10.2948918,0 9.98973901,0.132633694 9.76689717,0.39388188 C9.55208566,0.645082059 9.41556993,1.01685832 9.35935757,1.50117227 L9.35935757,1.78050687 C9.32522864,2.77726917 8.97791657,3.70972424 8.35556547,4.47940159 L7.86571492,4.98984035 C7.56658488,5.28927096 7.26544725,5.6228648 6.98237787,5.93837222 L6.85790765,6.08909233 L6.8518849,6.09512113 C6.40820879,6.71206877 5.8601383,7.21446913 5.22172652,7.5942838 C5.05710462,7.09992185 4.65960294,6.85274087 4.01115325,6.84068326 L1.32902075,6.84068326 C1.27883114,6.83465446 1.22462637,6.83063526 1.17242918,6.83063526 C0.525987062,6.83063526 0,7.35715083 0,8.00625209 C0,8.05448253 0.00401516841,8.10472256 0.010037921,8.152953 L0.010037921,16.4666741 C0.010037921,16.9027576 0.1144323,17.218265 0.32924381,17.4292732 C0.54405532,17.6402813 0.863261209,17.7447806 1.30693732,17.7487998 C1.84697747,17.752819 2.45728307,17.7508094 3.04550524,17.7508094 C3.34062012,17.7508094 3.635735,17.7487998 3.92482712,17.7487998 C3.97702431,17.7568382 4.03323667,17.7608574 4.08944903,17.7608574 C4.53312514,17.7608574 4.93664957,17.5156861 5.14142315,17.127833 C5.26187821,17.1459194 5.38032567,17.1640058 5.49877314,17.1800826 C6.20142762,17.2845819 6.86593799,17.385062 7.54450145,17.4674556 L8.74503681,17.6242045 C9.99776935,17.7869822 11.2926612,17.9557888 12.5815302,18 L12.7943342,18 C13.9266116,18 14.8721838,17.6985598 15.604952,17.1017082 C16.3377203,16.5048565 16.807495,15.6507759 17.0022306,14.5676008 C17.3455275,12.6383834 17.64265,10.7513676 17.8574615,9.10751368 L17.9839393,8.39410517 L17.9859469,8.38606676 C17.9939772,8.31372111 18,8.23132745 18,8.1509434 C17.9939772,7.67466786 17.8313629,7.20844033 17.5342405,6.83867366 Z M10.3370511,1.89907335 L10.3370511,1.63782516 C10.3772028,1.28212571 10.453491,1.13542481 10.5097033,1.07513676 C10.5558778,1.02489673 10.6000446,1.02288713 10.6522418,1.02288713 C10.8570154,1.03695434 11.0537586,1.08719437 11.2344412,1.17561684 L11.2344412,1.17561684 C11.5717154,1.33437535 11.8567923,1.57954672 12.0595583,1.89103494 C12.2663395,2.20654237 12.3747491,2.57630903 12.3747491,2.9561237 C12.3747491,3.18923747 12.3345974,3.41632243 12.254294,3.63134978 L12.254294,3.63134978 L12.2502788,3.64541699 L12.2502788,3.64541699 C12.15793,3.96293402 12.0595583,4.28447025 11.9652019,4.59595847 C11.9150123,4.75672658 11.8668302,4.9174947 11.8186482,5.07826281 L11.4773589,6.1935916 L11.4753513,6.19761081 C11.4512603,6.28804287 11.4392148,6.38651334 11.4392148,6.48699341 C11.4392148,6.49503182 11.4392148,6.50307022 11.4392148,6.51110863 L11.4392148,6.59350229 C11.4392148,6.6035503 11.4392148,6.6135983 11.4392148,6.62565591 C11.4392148,6.75828961 11.491412,6.88288489 11.5857685,6.97532656 C11.6801249,7.06977783 11.8045951,7.12202746 11.9370957,7.12202746 C11.945126,7.12202746 11.955164,7.12202746 11.9631943,7.12202746 L12.8666072,7.07781623 C13.0071381,7.07178743 13.147669,7.06374902 13.2902075,7.05772022 C13.9386571,7.0255666 14.6091903,6.99341297 15.2696855,6.97733616 C15.2997992,6.97532656 15.3379433,6.97532656 15.3720723,6.97532656 C15.6310506,6.97532656 15.8880214,7.00547058 16.1369619,7.06776823 L16.1369619,7.06776823 C16.6348427,7.20241152 16.9841624,7.65658144 16.9841624,8.16902981 C16.9841624,8.20118343 16.9821548,8.23333705 16.9801472,8.26549068 L16.8737453,8.98492799 L16.8396163,9.21201295 C16.5906759,10.9141454 16.3337051,12.6725466 16.0185144,14.4128614 C15.8599152,15.2870381 15.4885122,15.9542257 14.9143431,16.3963381 C14.3361588,16.8424696 13.5632389,17.0534777 12.6196743,17.0253433 C11.4171314,16.9891705 10.192505,16.8284024 9.00803034,16.6756727 L8.83738568,16.653567 L7.68101718,16.4827509 L7.67700201,16.4827509 C6.85991524,16.3822708 6.05286638,16.2616948 5.29600714,16.1451379 L5.29600714,8.62922854 C6.22551863,8.20520263 7.02654472,7.55208217 7.6147669,6.73618399 L7.62480482,6.72211678 L7.7412447,6.58144468 C8.01026099,6.25990845 8.30537586,5.94239143 8.57238456,5.68516244 L8.61253625,5.64497041 L9.09034129,5.14257006 L9.09636404,5.13654125 C9.84720054,4.23222061 10.2888691,3.08272859 10.3370511,1.89907335 Z M4.2962302,16.5611254 C4.2962302,16.6254326 4.2962302,16.7058167 4.2841847,16.7218935 C4.27213919,16.7359607 4.21391925,16.7580663 3.94891814,16.7600759 C2.94713362,16.7681143 2.109971,16.7661047 1.31898282,16.7540471 L1.31697524,16.7540471 C1.24269462,16.7540471 1.0680348,16.7540471 1.03591345,16.7239031 C1.00780727,16.6977783 1.00780727,16.5350006 1.00780727,16.4646645 L1.00780727,8.14089539 C1.00780727,8.03639611 1.01182244,7.91381043 1.05197412,7.8736184 C1.09212581,7.83342637 1.21860361,7.82739757 1.32299799,7.82538796 L3.9790319,7.82538796 C4.09747937,7.82538796 4.20990408,7.82940717 4.2460406,7.86557999 C4.29020745,7.91180083 4.29422262,8.07256894 4.29422262,8.19113542 L4.29422262,16.4666741 C4.29221503,16.4807413 4.29221503,16.4968181 4.29221503,16.5128949 C4.29422262,16.5289718 4.29422262,16.5450486 4.2962302,16.5611254 Z" id="path-1"></path>
    </defs>
    <g id="Yanbal-UI-Visual-Kit" stroke="none" stroke-width="1" fill="none" fill-rule="evenodd">
        <g id="yanbal-styleguide-pag2" transform="translate(-363.000000, -4589.000000)">
            <g id="Group" transform="translate(360.000000, 4586.000000)">
                <g id="colors/brand-secondary" transform="translate(3.000000, 3.000000)">
                    <mask id="mask-2" fill="white">
                        <use xlink:href="#path-1"></use>
                    </mask>
                    <use id="Mask" fill="#000000" fill-rule="nonzero" xlink:href="#path-1"></use>
                    <g id="Group" mask="url(#mask-2)">
                        <g transform="translate(-3.000000, -3.000000)" id="colors/brand-secondary">
                            <rect id="box" fill="#1C1F28" fill-rule="nonzero" x="0" y="0" width="24" height="24"></rect>
                        </g>
                    </g>
                </g>
            </g>
        </g>
    </g>
</svg>