<?xml version="1.0" encoding="UTF-8"?>
<svg width="18px" height="18px" viewBox="0 0 18 18" version="1.1" xmlns="http://www.w3.org/2000/svg" xmlns:xlink="http://www.w3.org/1999/xlink">
    <title>3. icons/outline/icon-support</title>
    <defs>
        <path d="M5.94428472,11.4158571 L3.04944731,14.31 C1.73606672,12.8436429 1.01348238,10.9613571 1.01348238,9 C1.01348238,7.05857143 1.72192361,5.19235714 3.01023233,3.73371429 L5.90699834,6.63042857 C4.82762192,8.03892857 4.84305077,10.0240714 5.94428472,11.4158571 L5.94428472,11.4158571 Z M12.0875373,11.3682857 C13.1514848,9.98292857 13.1669137,8.07814286 12.1235379,6.67735714 L15.024804,3.77807143 C16.2880409,5.23157143 16.9816961,7.08171429 16.9816961,9 C16.9816961,10.9395 16.2732549,12.8050714 14.9849462,14.2656429 L12.0875373,11.3682857 Z M6.67522634,12.1255714 C7.36502438,12.6398571 8.16603868,12.9117857 8.99726781,12.9117857 C9.83813997,12.9117857 10.6751549,12.6199286 11.3675244,12.0882857 L14.2642904,14.9862857 C12.8043358,16.2739286 10.9380882,16.9817143 8.99726781,16.9817143 C7.07894784,16.9817143 5.22877194,16.2880714 3.77460312,15.0255 L6.67522634,12.1255714 Z M11.413811,5.94771429 C10.7150128,5.39228571 9.86064037,5.08821429 8.99726781,5.08821429 C8.15639565,5.08821429 7.31873783,5.37942857 6.6270112,5.91042857 L3.73088805,3.01371429 C5.19084269,1.72478571 7.05709031,1.01635714 8.99726781,1.01635714 C10.95866,1.01635714 12.8409793,1.73892857 14.3099341,3.05292857 L11.413811,5.94771429 Z M8.99726781,6.10521429 C9.76935302,6.10521429 10.4964374,6.40607143 11.0448044,6.95314286 C12.1730388,8.08135714 12.1730388,9.91735714 11.0454472,11.0455714 C10.4964374,11.5926429 9.76935302,11.8935 8.99726781,11.8935 C8.22518259,11.8935 7.49809818,11.5926429 6.94973125,11.0455714 C5.82149681,9.91735714 5.82149681,8.08135714 6.94973125,6.95314286 C7.49809818,6.40607143 8.22518259,6.10521429 8.99726781,6.10521429 L8.99726781,6.10521429 Z M15.3629529,2.63571429 C13.6625654,0.936 11.4022393,0 8.99726781,0 C6.59358203,0 4.33261308,0.936 2.63158271,2.63571429 C-0.877194236,6.14442857 -0.877194236,11.8542857 2.63158271,15.3636429 C4.33261308,17.0633571 6.59358203,18 8.99726781,18 C11.4015965,18 13.6625654,17.0633571 15.3629529,15.3636429 C17.0639833,13.6639286 18,11.403 18,8.99935714 C18,6.59507143 17.0639833,4.33542857 15.3629529,2.63571429 L15.3629529,2.63571429 Z" id="path-1"></path>
    </defs>
    <g id="Yanbal-UI-Visual-Kit" stroke="none" stroke-width="1" fill="none" fill-rule="evenodd">
        <g id="yanbal-styleguide-pag2" transform="translate(-555.000000, -4541.000000)">
            <g id="Group" transform="translate(552.000000, 4538.000000)">
                <g id="elements" transform="translate(3.000000, 3.000000)">
                    <mask id="mask-2" fill="white">
                        <use xlink:href="#path-1"></use>
                    </mask>
                    <use id="icon" fill="#1E1210" xlink:href="#path-1"></use>
                    <g id="Group" mask="url(#mask-2)">
                        <g transform="translate(-3.000000, -3.000000)" id="color">
                            <rect id="box" fill="#1C1F28" fill-rule="nonzero" x="0" y="0" width="24" height="24"></rect>
                        </g>
                    </g>
                </g>
            </g>
        </g>
    </g>
</svg>