<?xml version="1.0" encoding="UTF-8"?>
<svg width="16px" height="16px" viewBox="0 0 16 16" version="1.1" xmlns="http://www.w3.org/2000/svg" xmlns:xlink="http://www.w3.org/1999/xlink">
    <title>3. icons/outline/icon-chemical</title>
    <defs>
        <path d="M15.9068588,15.1260909 L10.4802201,5.77229545 L10.4802201,0.67075 C10.481722,0.655613636 10.482633,0.638022727 10.482633,0.620340909 C10.482633,0.545545455 10.4671464,0.474045455 10.4387584,0.4085 L10.4401618,0.412318182 C10.3508614,0.180181818 10.1216646,0.0142727273 9.84854398,0 L9.84672202,0 L6.08012901,0 C5.85563482,0.0397272727 5.67375956,0.179090909 5.58849707,0.365227273 L5.58684747,0.369295455 C5.56005983,0.431022727 5.54435164,0.502522727 5.54435164,0.577340909 C5.54435164,0.595068182 5.54513951,0.612568182 5.54686298,0.630068182 L5.54661677,0.627840909 L5.54661677,5.74159091 L0.0599274912,15.0769318 C0.031514868,15.1748864 0.0102423321,15.2903182 0.00039393585,15.4086591 L0,15.4153409 C0.0181210491,15.7416364 0.309411989,16 0.665899312,16 C0.666145522,16 0.666514837,16 0.666687184,16 L15.3666004,16 C15.7091769,15.9841136 15.9827161,15.7317045 16,15.4167727 L16,15.4153182 C15.9949527,15.3080909 15.9609265,15.2088864 15.904963,15.1233409 L15.9066372,15.1260682 L15.9068588,15.1260909 Z M1.74035934,14.8305909 L6.88695888,5.99979545 L6.88695888,1.23054545 L9.1269766,1.23054545 L9.1269766,6.01829545 L10.6669949,8.67675 L8.42040341,8.67675 C8.35830928,8.65722727 8.28668681,8.64602273 8.21215908,8.64602273 C7.84405065,8.64602273 7.54557038,8.92154545 7.54557038,9.26134091 C7.54557038,9.60113636 7.84405065,9.87665909 8.21215908,9.87665909 C8.28661295,9.87665909 8.35811231,9.86543182 8.42500754,9.84459091 L8.42042804,9.84581818 L11.3338052,9.84581818 L12.3003761,11.4889318 L9.43365566,11.4889318 C9.37156152,11.4694091 9.29993906,11.4582045 9.22541132,11.4582045 C8.85730289,11.4582045 8.55882262,11.7337273 8.55882262,12.0735227 C8.55882262,12.4133182 8.85730289,12.6888409 9.22541132,12.6888409 C9.2998652,12.6888409 9.37136456,12.6776136 9.43825979,12.6567727 L9.43368028,12.658 L12.9802601,12.658 L14.2535347,14.8302273 L1.74035934,14.8305909 Z" id="path-1"></path>
    </defs>
    <g id="Yanbal-UI-Visual-Kit" stroke="none" stroke-width="1" fill="none" fill-rule="evenodd">
        <g id="yanbal-styleguide-pag2" transform="translate(-1132.000000, -4590.000000)">
            <g id="Group" transform="translate(1128.000000, 4586.000000)">
                <g id="colors/brand-secondary" transform="translate(4.000000, 4.000000)">
                    <mask id="mask-2" fill="white">
                        <use xlink:href="#path-1"></use>
                    </mask>
                    <use id="Mask" fill="#000000" fill-rule="nonzero" xlink:href="#path-1"></use>
                    <g id="Group" mask="url(#mask-2)">
                        <g transform="translate(-6.000000, -5.000000)" id="colors/brand-secondary">
                            <rect id="box" fill="#1C1F28" fill-rule="nonzero" x="0" y="0" width="26.4058266" height="25.7456809"></rect>
                        </g>
                    </g>
                </g>
            </g>
        </g>
    </g>
</svg>