<?xml version="1.0" encoding="UTF-8"?>
<svg width="20px" height="20px" viewBox="0 0 20 20" version="1.1" xmlns="http://www.w3.org/2000/svg" xmlns:xlink="http://www.w3.org/1999/xlink">
    <title>3. icons/outline/icon-info</title>
    <defs>
        <path d="M10,0 C12.6521649,0 15.195704,1.0535684 17.0710678,2.92893219 C18.9464316,4.80429597 20,7.3478351 20,10 C20,15.5228475 15.5228475,20 10,20 C4.4771525,20 0,15.5228475 0,10 C0,4.4771525 4.4771525,0 10,0 Z M10,1.15625 C5.11573174,1.15625 1.15625,5.11573174 1.15625,10 C1.15625,14.8842683 5.11573174,18.84375 10,18.84375 C14.8828397,18.8403029 18.8403029,14.8828397 18.84375,10 C18.84375,5.11573174 14.8842683,1.15625 10,1.15625 Z M9.62346627,7.95933842 C9.8541017,7.82307767 10.1458983,7.82307767 10.3765337,7.95933842 C10.6071692,8.09559918 10.7367896,8.3445748 10.7110575,8.60189368 L10.7110575,8.60189368 L10.7110575,14.3197252 C10.7110575,14.6954205 10.3912657,15 9.99678255,15 C9.68681713,15.0021543 9.41211011,14.8102969 9.32111701,14.5280921 L9.32111701,14.5280921 L9.32111701,14.4055234 L9.28894246,14.3258537 L9.28894246,14.3258537 L9.28894246,8.60189368 C9.26321044,8.3445748 9.39283084,8.09559918 9.62346627,7.95933842 Z M10.00001,5 C10.3944936,5 10.7142857,5.31979215 10.7142857,5.71427575 C10.7142857,6.10875936 10.3944936,6.42855151 10.00001,6.42855151 C9.8101398,6.42997382 9.62763341,6.3551768 9.49337116,6.22091455 C9.35910892,6.08665231 9.2843119,5.90414592 9.28573421,5.71427575 C9.28573421,5.31979215 9.60552635,5 10.00001,5 Z" id="path-1"></path>
    </defs>
    <g id="Yanbal-UI-Visual-Kit" stroke="none" stroke-width="1" fill="none" fill-rule="evenodd">
        <g id="yanbal-styleguide-pag2" transform="translate(-170.000000, -4588.000000)">
            <g id="Group" transform="translate(168.000000, 4586.000000)">
                <g id="colors/brand-secondary" transform="translate(2.000000, 2.000000)">
                    <mask id="mask-2" fill="white">
                        <use xlink:href="#path-1"></use>
                    </mask>
                    <use id="Mask" fill="#000000" fill-rule="nonzero" xlink:href="#path-1"></use>
                    <g id="Group" mask="url(#mask-2)">
                        <g transform="translate(-1.485328, -1.485328)" id="colors/brand-secondary">
                            <rect id="box" fill="#1C1F28" fill-rule="nonzero" x="0" y="0" width="23.7652439" height="23.7652439"></rect>
                        </g>
                    </g>
                </g>
            </g>
        </g>
    </g>
</svg>