<?xml version="1.0" encoding="UTF-8"?>
<svg width="18px" height="20px" viewBox="0 0 18 20" version="1.1" xmlns="http://www.w3.org/2000/svg" xmlns:xlink="http://www.w3.org/1999/xlink">
    <title>3. icons/outline/icon-gift</title>
    <defs>
        <path d="M17.4021429,4.76925005 L13.1914286,4.76925005 L13.7057143,4.40142128 C14.0937351,4.15883944 14.4555628,3.8789564 14.7857143,3.56601355 C15.5189551,2.9459552 15.6747058,1.89923273 15.1521429,1.10343108 C14.6440855,0.271938026 13.6453315,-0.152131557 12.6707143,0.0498198511 C11.6614046,0.241780979 10.7676881,0.804702461 10.1764286,1.62088512 C9.88714286,1.94507319 9.62357143,2.28173004 9.34714286,2.63709004 C9.225,2.80541846 9.09642857,2.9675125 8.96785714,3.13584092 L8.90357143,3.21065355 L8.84571429,3.16701285 L8.47285714,2.71190267 C8.235,2.41265214 8.01,2.13833916 7.77214286,1.86402618 C7.18732439,1.07684809 6.35493656,0.494932209 5.4,0.205679501 C4.58681229,-0.0148505791 3.71481526,0.226077327 3.14357143,0.829118101 C2.50036024,1.38113591 2.35934147,2.30162964 2.80928571,3.0111532 C3.0682711,3.3895533 3.38222258,3.72971762 3.74142857,4.02112373 C3.87,4.13334268 3.99857143,4.25179601 4.11428571,4.37024935 C4.22759945,4.46676615 4.35031941,4.552372 4.48071429,4.62585917 L4.65428571,4.73807812 L4.71214286,4.73807812 L0.604285714,4.73807812 C0.44741855,4.73473501 0.295610512,4.79198037 0.182276746,4.89721367 C0.0689429812,5.00244697 0.00337310616,5.14704256 0,5.29917286 L0,19.4449947 C0.00337270423,19.5954717 0.0682651648,19.7384817 0.180393431,19.842546 C0.292521698,19.9466102 0.442694835,20.0031986 0.597857143,19.999855 L17.3957143,19.999855 C17.7199401,20.0068569 17.9895052,19.75934 18,19.4449947 L18,5.33034479 C17.9929722,5.01601427 17.7263202,4.76575873 17.4021429,4.76925005 Z M9.75464286,4.31310845 C10.2718797,3.14789998 11.0574502,2.12941748 12.0435714,1.34554072 C12.6037783,0.855312518 13.4371082,0.890626976 13.9560714,1.42658774 C14.1253602,1.63464791 14.2023862,1.90582538 14.1685714,2.17471406 C14.0861201,2.57952355 13.8473311,2.93269887 13.5067857,3.15351266 C12.4265806,3.9365404 11.143361,4.37069568 9.82142857,4.40038986 L9.7,4.40038986 L9.75464286,4.31310845 Z M4.26465693,3.15578399 C3.92556151,2.93178345 3.68906988,2.57651888 3.60894264,2.170751 C3.57221782,1.90355424 3.64968627,1.63309205 3.82144264,1.42885906 C4.33912197,0.889912185 5.17477566,0.854499249 5.73394264,1.34781205 C6.72058216,2.13115049 7.50626338,3.14977653 8.02287122,4.31537978 L8.07751407,4.42759873 L7.9560855,4.42759873 C6.62990126,4.38956379 5.34479836,3.9468049 4.26465693,3.15578399 L4.26465693,3.15578399 Z M7.71323385,5.91014269 C7.35517628,6.34031532 5.4739066,8.57612434 5.12171883,9.00006259 L5.86424805,9.94267887 L8.4,7.00004868 L8.4,18.8651968 L1.3,18.8651968 L1.3,5.91014269 L7.71323385,5.91014269 Z M16.7,5.91014269 L16.7,18.8651968 L9.7,18.8651968 L9.7,7.00004868 L12.2000371,9.94267887 L12.9321082,9.00006259 C12.5848808,8.57612434 10.7301079,6.34031532 10.3770934,5.91014269 L10.3770934,5.91014269 L16.7,5.91014269 Z" id="path-1"></path>
    </defs>
    <g id="Yanbal-UI-Visual-Kit" stroke="none" stroke-width="1" fill="none" fill-rule="evenodd">
        <g id="yanbal-styleguide-pag2" transform="translate(-1179.000000, -4492.000000)">
            <g id="Group" transform="translate(1176.000000, 4490.000000)">
                <g id="elements" transform="translate(3.000000, 2.000000)">
                    <mask id="mask-2" fill="white">
                        <use xlink:href="#path-1"></use>
                    </mask>
                    <use id="icon" fill="#000000" fill-rule="nonzero" xlink:href="#path-1"></use>
                    <g id="Group" mask="url(#mask-2)">
                        <g transform="translate(-3.000000, -2.000000)" id="color">
                            <rect id="box" fill="#1C1F28" fill-rule="nonzero" x="0" y="0" width="24" height="24"></rect>
                        </g>
                    </g>
                </g>
            </g>
        </g>
    </g>
</svg>