<?xml version="1.0" encoding="UTF-8"?>
<svg width="14px" height="16px" viewBox="0 0 14 16" version="1.1" xmlns="http://www.w3.org/2000/svg" xmlns:xlink="http://www.w3.org/1999/xlink">
    <title>3. icons/outline/icon-add-file </title>
    <defs>
        <path d="M7.22765279,0 C7.33545507,0 7.43835725,0.0421198202 7.51885895,0.118970019 L7.51885895,0.118970019 L10.9538316,3.41687805 C11.0413334,3.50111769 11.0917345,3.62008771 11.0917345,3.74349139 L11.0917345,3.74349139 L11.0917345,7.68466075 C12.7843703,8.22039531 13.9757954,9.85493991 13.999596,11.6904773 C14.0247965,13.5814356 12.8690721,15.2337148 11.1239352,15.801963 C10.7109264,15.9349729 10.2909175,16 9.87790882,16 C8.56258101,16 7.30815449,15.3445565 6.52273789,14.1799804 L6.52273789,14.1799804 L1.53233239,14.1799804 C0.688814561,14.1792415 0.000700014798,13.4676382 0,12.5949451 L0,12.5949451 L0,1.58577428 C0.000700014798,0.712342223 0.688814561,0.00147788843 1.53233239,0 L1.53233239,0 Z M9.89190911,8.39035248 C8.0984712,8.39035248 6.63824033,9.89705973 6.63824033,11.7495929 C6.63824033,13.6013871 8.0984712,15.1080943 9.89190911,15.1080943 C11.683247,15.1058775 13.1420778,13.5984313 13.1441779,11.7495929 C13.1441779,9.89705973 11.685347,8.39035248 9.89190911,8.39035248 Z M9.94434022,9.54295766 C10.1802452,9.54295766 10.3734493,9.74321155 10.3734493,9.98780208 L10.3734493,9.98780208 L10.3734493,11.2484409 L11.5956751,11.2484409 C11.8315801,11.2484409 12.0240842,11.4479558 12.0240842,11.6932853 C12.0240842,11.9378759 11.8315801,12.1381297 11.5956751,12.1381297 L11.5956751,12.1381297 L10.3734493,12.1381297 L10.3734493,13.5849825 C10.3734493,13.830312 10.1802452,14.0305659 9.94434022,14.0305659 C9.70983527,14.0305659 9.5173312,13.830312 9.5173312,13.5849825 L9.5173312,13.5849825 L9.5173312,12.1381297 L8.29510536,12.1381297 C8.05920037,12.1381297 7.8666963,11.9378759 7.8666963,11.6932853 C7.8666963,11.4479558 8.05920037,11.2484409 8.29510536,11.2484409 L8.29510536,11.2484409 L9.5173312,11.2484409 L9.5173312,9.98780208 C9.5173312,9.74321155 9.70983527,9.54295766 9.94434022,9.54295766 Z M6.82374425,0.84917006 L1.53233239,0.84917006 C1.15992452,0.849909004 0.856818113,1.16174346 0.856118098,1.54525551 L0.856118098,1.54525551 L0.856118098,12.5949451 C0.856818113,12.9777182 1.16062454,13.2895526 1.53233239,13.2895526 L1.53233239,13.2895526 L6.06212815,13.2895526 C5.87592422,12.7974158 5.78212223,12.2801548 5.78212223,11.7495929 C5.78212223,10.5406801 6.2819328,9.38571033 7.15415124,8.58026114 C7.99556903,7.80215288 9.11839276,7.416424 10.2349164,7.51544253 L10.2349164,7.51544253 L10.2349164,4.18993685 L8.35537663,4.18993685 C7.5118588,4.18919791 6.82444427,3.47759463 6.82374425,2.60416257 L6.82374425,2.60416257 L6.82374425,0.84917006 Z M7.67986235,1.43312073 L7.67986235,2.38790862 C7.68056237,2.77142067 7.98366877,3.28860965 8.35537663,3.28934859 L8.35537663,3.28934859 L9.61330322,3.28934859 L7.67986235,1.43312073 Z" id="path-1"></path>
    </defs>
    <g id="Yanbal-UI-Visual-Kit" stroke="none" stroke-width="1" fill="none" fill-rule="evenodd">
        <g id="yanbal-styleguide-pag2" transform="translate(-126.000000, -4494.000000)">
            <g id="Group" transform="translate(120.000000, 4490.000000)">
                <g id="elements" transform="translate(6.000000, 4.000000)">
                    <mask id="mask-2" fill="white">
                        <use xlink:href="#path-1"></use>
                    </mask>
                    <use id="icon" fill="#1E1210" xlink:href="#path-1"></use>
                    <g id="Group" mask="url(#mask-2)">
                        <g transform="translate(-6.000000, -4.000000)" id="color">
                            <rect id="box" fill="#1C1F28" fill-rule="nonzero" x="0" y="0" width="24" height="24"></rect>
                        </g>
                    </g>
                </g>
            </g>
        </g>
    </g>
</svg>