<?xml version="1.0" encoding="UTF-8"?>
<svg width="14px" height="20px" viewBox="0 0 14 20" version="1.1" xmlns="http://www.w3.org/2000/svg" xmlns:xlink="http://www.w3.org/1999/xlink">
    <title>3. icons/outline/icon-file</title>
    <defs>
        <path d="M10.6283577,15.0411607 L3.37166447,15.0411607 C3.12166724,15.1113393 2.94128585,15.3388393 2.94128585,15.6088393 C2.94128585,15.8788393 3.12166724,16.1063393 3.36752515,16.1754687 L3.37159807,16.1764286 L10.6282913,16.1764286 C10.8782885,16.10625 11.0586699,15.87875 11.0586699,15.60875 C11.0586699,15.33875 10.8782885,15.11125 10.6324306,15.0421205 L10.6283577,15.0411607 L10.6283577,15.0411607 Z M13.8366629,5.01767857 L9.20500703,0.158839286 C9.10767766,0.0613839286 8.97384702,0.000915178571 8.82600467,0 L0.542516574,0 C0.238442553,0.0221875 0,0.276428571 0,0.586785714 C0,0.587276786 0,0.587767857 0,0.588348214 L0,0.588258929 L0,19.4117634 C0,19.4121652 0,19.4127009 0,19.4132366 C0,19.7235937 0.238354011,19.9779018 0.540635065,20 L0.542516574,20 L13.4574834,20 C13.7615574,19.9778125 14,19.7235714 14,19.4132143 C14,19.4127232 14,19.4122321 14,19.4116518 L14,19.4117411 L14,5.42348214 C13.9993581,5.26566964 13.9371797,5.12263393 13.8365079,5.01745536 L13.836685,5.01763393 L13.8366629,5.01767857 Z M9.36250042,1.92941964 L9.40920611,1.98234375 L12.1566965,4.85883929 L9.36250042,4.85883929 L9.36250042,1.92941964 Z M12.9150111,18.8646875 L1.08501101,18.8646875 L1.08501101,1.13526786 L8.28333315,1.13526786 L8.28333315,5.42352679 C8.28333315,5.42392857 8.28333315,5.42446429 8.28333315,5.425 C8.28333315,5.73535714 8.52168716,5.98966518 8.82396821,6.01165179 L8.82584972,6.01176339 L12.9091895,6.01176339 L12.9150111,18.8646875 Z M10.6283577,11.5705804 L3.37166447,11.5705804 C3.12166724,11.6407589 2.94128585,11.8682589 2.94128585,12.1382589 C2.94128585,12.4082589 3.12166724,12.6357589 3.36752515,12.7048884 L3.37159807,12.7058482 L10.6282913,12.7058482 C10.8782885,12.6356696 11.0586699,12.4081696 11.0586699,12.1381696 C11.0586699,11.8681696 10.8782885,11.6406696 10.6324306,11.5715402 L10.6283577,11.5705804 L10.6283577,11.5705804 Z M2.83503591,8.67060268 C2.83430545,8.68118304 2.83392914,8.69350446 2.83392914,8.70598214 C2.83392914,9.00758929 3.07347847,9.25285714 3.37115536,9.25879464 L10.6283798,9.25879464 C10.878377,9.18861607 11.0587584,8.96111607 11.0587584,8.69111607 C11.0587584,8.42111607 10.878377,8.19361607 10.6325191,8.12448661 L10.6284462,8.12352679 L3.37175301,8.12352679 C3.08319591,8.14691964 2.85511272,8.37888393 2.835213,8.66877232 L2.83510232,8.67060268 L2.83503591,8.67060268 Z" id="path-1"></path>
    </defs>
    <g id="Yanbal-UI-Visual-Kit" stroke="none" stroke-width="1" fill="none" fill-rule="evenodd">
        <g id="yanbal-styleguide-pag2" transform="translate(-1517.000000, -4588.000000)">
            <g id="Group" transform="translate(1512.000000, 4586.000000)">
                <g id="colors/brand-secondary" transform="translate(5.000000, 2.000000)">
                    <mask id="mask-2" fill="white">
                        <use xlink:href="#path-1"></use>
                    </mask>
                    <use id="Mask" fill="#000000" fill-rule="nonzero" xlink:href="#path-1"></use>
                    <g id="Group" mask="url(#mask-2)">
                        <g transform="translate(-7.000000, -3.000000)" id="colors/brand-secondary">
                            <rect id="box" fill="#1C1F28" fill-rule="nonzero" x="0" y="0" width="26.4058266" height="25.7456809"></rect>
                        </g>
                    </g>
                </g>
            </g>
        </g>
    </g>
</svg>