<?xml version="1.0" encoding="UTF-8"?>
<svg width="20px" height="14px" viewBox="0 0 20 14" version="1.1" xmlns="http://www.w3.org/2000/svg" xmlns:xlink="http://www.w3.org/1999/xlink">
    <title>3. icons/outline/icon-message</title>
    <defs>
        <path d="M20,0.608692707 C20,0.272521008 19.720178,0 19.375,0 L0.625,0 C0.279822031,0 0,0.272521008 0,0.608692707 L0,13.3912396 C0,13.7274113 0.279822031,13.9999669 0.625,13.9999669 L19.375,13.9999669 C19.5167798,14.00151 19.6535845,13.9490896 19.75625,13.853846 L19.8,13.8234114 L19.8,13.7808029 C19.9002861,13.6774377 19.9542509,13.5394762 19.95,13.3973265 L20,0.608692707 Z M7.575,1.21738541 L18.2375,1.21738541 L10,7.86430977 L9.0875,7.1277916 L6.08125,4.69302077 L1.7625,1.20521156 L7.575,1.20521156 L7.575,1.21738541 Z M1.25,12.8068946 L1.25,2.31303229 L9.56875,9.06343441 C9.81018643,9.28758804 10.1898136,9.28758804 10.43125,9.06343441 L18.78125,2.31303229 L18.78125,12.8068946 L1.25,12.8068946 Z" id="path-1"></path>
    </defs>
    <g id="Yanbal-UI-Visual-Kit" stroke="none" stroke-width="1" fill="none" fill-rule="evenodd">
        <g id="yanbal-styleguide-pag2" transform="translate(-1466.000000, -4495.000000)">
            <g id="Group" transform="translate(1464.000000, 4490.000000)">
                <g id="elements" transform="translate(2.000000, 5.000000)">
                    <mask id="mask-2" fill="white">
                        <use xlink:href="#path-1"></use>
                    </mask>
                    <use id="icon" fill="#000000" fill-rule="nonzero" xlink:href="#path-1"></use>
                    <g id="Group" mask="url(#mask-2)">
                        <g transform="translate(-2.000000, -5.000000)" id="color">
                            <rect id="box" fill="#1C1F28" fill-rule="nonzero" x="0" y="0" width="24" height="24"></rect>
                        </g>
                    </g>
                </g>
            </g>
        </g>
    </g>
</svg>