<?xml version="1.0" encoding="UTF-8"?>
<svg width="20px" height="16px" viewBox="0 0 20 16" version="1.1" xmlns="http://www.w3.org/2000/svg" xmlns:xlink="http://www.w3.org/1999/xlink">
    <title>3. icons/outline/icon-order</title>
    <defs>
        <path d="M16.034306,0 C16.3641716,0 16.6330747,0.288 16.6330747,0.64172973 L16.6330747,0.64172973 L16.6330747,13.7928649 L18.9763729,11.2648649 C19.2010155,11.0201081 19.6018648,11.0175135 19.8290127,11.2657297 C20.0569958,11.5139459 20.0569958,11.916973 19.8290127,12.1651892 L19.8290127,12.1651892 L16.4602084,15.808 C16.3474695,15.9316757 16.1954808,16 16.034306,16 C15.8739663,16 15.7178021,15.9299459 15.6067334,15.8062703 L15.6067334,15.8062703 L12.2387642,12.1651892 C12.0124514,11.9161081 12.0124514,11.5139459 12.2379291,11.2657297 C12.3523382,11.1411892 12.5043269,11.0737297 12.6655017,11.0737297 L12.6655017,11.0737297 C12.8283467,11.0737297 12.9795003,11.1420541 13.0930743,11.2657297 L13.0930743,11.2657297 L15.4355374,13.7928649 L15.4355374,0.64172973 C15.4355374,0.288 15.7044404,0 16.034306,0 Z M8.93559897,13.8809946 C9.25878371,13.8809946 9.52017086,14.1516973 9.52017086,14.4864 C9.52017086,14.8211027 9.25878371,15.0918054 8.93559897,15.0918054 L8.93559897,15.0918054 L3.92498272,15.0918054 C3.60179798,15.0918054 3.34041083,14.8211027 3.34041083,14.4864 C3.34041083,14.1516973 3.60179798,13.8809946 3.92498272,13.8809946 L3.92498272,13.8809946 Z M8.93559897,7.39450811 C9.25878371,7.39450811 9.52017086,7.66521081 9.52017086,7.99991351 C9.52017086,8.33461622 9.25878371,8.60531892 8.93559897,8.60531892 L8.93559897,8.60531892 L2.25477731,8.60531892 C1.93159256,8.60531892 1.67020541,8.33461622 1.67020541,7.99991351 C1.67020541,7.66521081 1.93159256,7.39450811 2.25477731,7.39450811 L2.25477731,7.39450811 Z M8.93559897,0.908021622 C9.25878371,0.908021622 9.52017086,1.17872432 9.52017086,1.51342703 C9.52017086,1.84812973 9.25878371,2.11883243 8.93559897,2.11883243 L8.93559897,2.11883243 L0.584571895,2.11883243 C0.261387147,2.11883243 -2.27373675e-13,1.84812973 -2.27373675e-13,1.51342703 C-2.27373675e-13,1.17872432 0.261387147,0.908021622 0.584571895,0.908021622 L0.584571895,0.908021622 Z" id="path-1"></path>
    </defs>
    <g id="Yanbal-UI-Visual-Kit" stroke="none" stroke-width="1" fill="none" fill-rule="evenodd">
        <g id="yanbal-styleguide-pag2" transform="translate(-1034.000000, -4542.000000)">
            <g id="Group" transform="translate(1032.000000, 4538.000000)">
                <g id="elements" transform="translate(2.000000, 4.000000)">
                    <mask id="mask-2" fill="white">
                        <use xlink:href="#path-1"></use>
                    </mask>
                    <use id="Mask" fill="#050305" xlink:href="#path-1"></use>
                    <g id="Group" mask="url(#mask-2)">
                        <g transform="translate(-2.000000, -4.000000)" id="colors/brand-secondary">
                            <rect id="box" fill="#1C1F28" fill-rule="nonzero" x="0" y="0" width="24" height="24"></rect>
                        </g>
                    </g>
                </g>
            </g>
        </g>
    </g>
</svg>