<?xml version="1.0" encoding="UTF-8"?>
<svg width="16px" height="18px" viewBox="0 0 16 18" version="1.1" xmlns="http://www.w3.org/2000/svg" xmlns:xlink="http://www.w3.org/1999/xlink">
    <title>3. icons/outline/icon-labs</title>
    <defs>
        <path d="M6.24695454,0 L0.628151599,0 C0.159957746,0 0,0.142955517 0,0.555891245 C0,0.555891245 0,14.1984801 0,15.1143316 C0.143142898,16.7350164 1.59717225,18 3.3697953,18 C3.38955708,18 3.40938387,18 3.42905897,17.999558 L3.42609037,17.9995982 C3.65285247,17.9987545 3.87376404,17.9775602 4.0875033,17.9380044 L4.06563966,17.9413995 C5.66216185,17.6934171 6.86366511,16.421804 6.86366511,14.8900345 C6.86366511,14.8833246 6.86366511,14.8766148 6.86366511,14.8698849 L6.86366511,14.8708894 L6.86366511,0.529493895 C6.85220241,0.158926517 6.67519146,0 6.24686787,0 L6.24695454,0 Z M5.8872338,0.868159451 L5.8872338,3.99692857 L0.953679264,3.99692857 L0.953679264,0.868159451 L5.8872338,0.868159451 Z M3.80299433,17.1154075 C3.68693721,17.1314589 3.55241842,17.1410615 3.41560276,17.1419053 L3.41469268,17.1419053 C3.41139905,17.1419053 3.40762871,17.1419053 3.40375003,17.1419053 C2.19405603,17.1419053 1.18910881,16.3289312 0.989909195,15.2601197 L0.98778567,15.2465996 C0.969627367,15.1355057 0.959204762,15.0073159 0.959204762,14.8768961 C0.959204762,14.8747264 0.959204762,14.8725568 0.959204762,14.8703871 L0.959204762,14.8706885 C0.959204762,13.2242692 0.959204762,8.43849379 0.959204762,4.92326666 L5.89847981,4.92326666 L5.89847981,7.41146809 L3.32888495,7.41146809 C3.05768051,7.41146809 2.83778736,7.61533439 2.83778736,7.86677217 C2.83778736,8.11820995 3.05768051,8.32207625 3.32888495,8.32207625 L5.89273763,8.32207625 L5.89273763,10.1961074 L3.32888495,10.1961074 C3.05768051,10.1961074 2.83778736,10.3999737 2.83778736,10.6514114 C2.83778736,10.9028492 3.05768051,11.1067155 3.32888495,11.1067155 L5.89273763,11.1067155 C5.89273763,11.7790645 5.89273763,12.4143085 5.89273763,12.9807466 L3.32888495,12.9807466 C3.05768051,12.9807466 2.83778736,13.1846129 2.83778736,13.4360507 C2.83778736,13.6874885 3.05768051,13.8913548 3.32888495,13.8913548 L5.88706045,13.8913548 L5.88706045,14.9077934 C5.88372348,16.0326942 4.98406408,16.9618448 3.81556213,17.1140414 L3.80284265,17.1154276 L3.80299433,17.1154075 Z M15.9885156,4.71158562 C15.9885156,4.31980393 15.8115264,4.18219217 15.3832678,4.18219217 L9.76446482,4.18219217 C9.29627097,4.18219217 9.13631322,4.31982402 9.13631322,4.73808341 C9.13631322,4.73808341 9.13631322,14.2143105 9.13631322,15.130162 C9.28795022,16.7435745 10.7380575,17.9999397 12.5047001,17.9999397 C12.5250252,17.9999397 12.545242,17.9997388 12.5654805,17.9994375 L12.5624253,17.9994777 C12.7891874,17.9986339 13.0100989,17.9774397 13.2238382,17.9378839 L13.2019746,17.941279 C14.7984967,17.6932965 16,16.4216835 16,14.8899139 C16,14.8832041 16,14.8764943 16,14.8697644 L16,14.8707688 L15.9885156,4.71158562 Z M15.0234603,5.03452124 L15.0234603,7.4644436 L10.0899058,7.4644436 L10.0899058,5.03452124 L15.0234603,5.03452124 Z M12.9393076,17.1154075 C12.8237271,17.1310972 12.6891433,17.1406598 12.5525227,17.1419053 L12.5510059,17.1419053 C12.5488824,17.1419053 12.5464555,17.1419053 12.5440286,17.1419053 C11.3321027,17.1419053 10.3247503,16.3297347 10.1206536,15.260401 L10.1185301,15.2466197 C10.1150631,15.1904902 10.1130479,15.1248182 10.1130479,15.0586641 C10.1130479,14.99251 10.1150631,14.9268582 10.1189201,14.8616684 L10.1185084,14.8707287 C10.1185084,13.3937225 10.1185084,10.6355208 10.1185084,8.39090222 L15.0520629,8.39090222 L15.0520629,10.180277 L12.4653282,10.180277 C12.1941237,10.180277 11.9742306,10.3841433 11.9742306,10.6355811 C11.9742306,10.8870188 12.1941237,11.0908851 12.4653282,11.0908851 L15.0235037,11.0908851 L15.0235037,12.9649163 L12.4653282,12.9649163 C12.1941237,12.9649163 11.9742306,13.1687826 11.9742306,13.4202203 C11.9742306,13.6716581 12.1941237,13.8755244 12.4653282,13.8755244 L15.0235037,13.8755244 L15.0235037,14.891963 C15.0235253,14.8949162 15.0235253,14.8983916 15.0235253,14.9018068 C15.0235253,16.029259 14.1227609,16.9615837 12.9520054,17.1140414 L12.9392859,17.1154276 L12.9393076,17.1154075 Z" id="path-1"></path>
    </defs>
    <g id="Yanbal-UI-Visual-Kit" stroke="none" stroke-width="1" fill="none" fill-rule="evenodd">
        <g id="yanbal-styleguide-pag2" transform="translate(-460.000000, -4637.000000)">
            <g id="Group" transform="translate(456.000000, 4634.000000)">
                <g id="colors/brand-secondary" transform="translate(4.000000, 3.000000)">
                    <mask id="mask-2" fill="white">
                        <use xlink:href="#path-1"></use>
                    </mask>
                    <use id="Mask" fill="#000000" fill-rule="nonzero" xlink:href="#path-1"></use>
                    <g id="Group" mask="url(#mask-2)">
                        <g transform="translate(-6.000000, -4.000000)" id="colors/brand-secondary">
                            <rect id="box" fill="#1C1F28" fill-rule="nonzero" x="0" y="0" width="26.4058266" height="25.7456809"></rect>
                        </g>
                    </g>
                </g>
            </g>
        </g>
    </g>
</svg>