<?xml version="1.0" encoding="UTF-8"?>
<svg width="20px" height="19px" viewBox="0 0 20 19" version="1.1" xmlns="http://www.w3.org/2000/svg" xmlns:xlink="http://www.w3.org/1999/xlink">
    <title>3. icons/outline/icon-picture</title>
    <defs>
        <path d="M19.3930551,0 L0.620264162,0 C0.618211278,0 0.615889565,0 0.613543412,0 C0.277090428,0 0.0037880593,0.275729924 0,0.6172093 L0,18.3893308 C0.00745392315,18.7281991 0.279216629,19 0.613421216,19 C0.613470094,19 0.613543412,19 0.613616729,19 L19.3864077,19 C19.7222253,18.9925895 19.9926438,18.7175061 20,18.3763749 L20,18.3756538 L20,0.610669169 C19.9891735,0.275506117 19.7231295,0.00718668363 19.3938616,0 L19.3931529,0 L19.3930551,0 Z M18.7727665,17.710699 L1.22711126,17.710699 L1.22711126,16.0617406 L1.3337879,15.966747 L6.25543006,11.4677836 L8.60282931,13.9513423 L13.2710136,9.07237989 L18.8128222,13.9105598 L18.7727665,17.710699 Z M18.7794629,1.3571393 L18.7794629,12.2142289 L13.7845034,7.93924628 C13.6621369,7.76579605 13.4644491,7.65414134 13.2411735,7.65414134 C13.2375565,7.65414134 13.233964,7.65416621 13.2303714,7.65426568 L13.2309091,7.65426568 C13.2288807,7.65424081 13.2265345,7.65424081 13.2242128,7.65424081 C13.0068515,7.65424081 12.8137094,7.76020088 12.691856,7.92405229 L12.6906341,7.92574327 L8.58933893,12.2142786 L8.55597957,12.2142786 L6.81542742,10.388861 C6.69633572,10.1922094 6.48591514,10.0631973 6.24575218,10.0631973 C6.24433471,10.0631973 6.24308832,10.0631973 6.24164641,10.0632221 L6.24191524,10.0632221 C6.24120651,10.0632221 6.2404489,10.0632221 6.23966685,10.0632221 C6.03112807,10.0632221 5.84497551,10.1605781 5.72273117,10.3130402 L5.72182692,10.3142587 L1.22703795,14.3857015 L1.22703795,1.28927612 L18.7794629,1.28927612 L18.7794629,1.3571393 Z M6.27544568,6.64320622 C6.28915601,6.6437533 6.30533469,6.64410145 6.32151337,6.64410145 C7.00282638,6.64410145 7.55527206,6.08212268 7.55527206,5.38871962 C7.55527206,4.69531655 7.00297302,4.13333778 6.32151337,4.13333778 C5.64020035,4.13333778 5.08775467,4.69531655 5.08775467,5.38871962 C5.08775467,5.40267024 5.08804794,5.41669546 5.0884634,5.43057148 L5.08841453,5.42848262 C5.0993388,6.09244266 5.62355733,6.62816143 6.27407709,6.64305702 L6.27551899,6.64308188 L6.27544568,6.64320622 Z" id="path-1"></path>
    </defs>
    <g id="Yanbal-UI-Visual-Kit" stroke="none" stroke-width="1" fill="none" fill-rule="evenodd">
        <g id="yanbal-styleguide-pag2" transform="translate(-1034.000000, -4637.000000)">
            <g id="Group" transform="translate(1032.000000, 4634.000000)">
                <g id="colors/brand-secondary" transform="translate(2.000000, 3.000000)">
                    <mask id="mask-2" fill="white">
                        <use xlink:href="#path-1"></use>
                    </mask>
                    <use id="Mask" fill="#000000" fill-rule="nonzero" xlink:href="#path-1"></use>
                    <g id="Group" mask="url(#mask-2)">
                        <g transform="translate(-4.000000, -4.000000)" id="colors/brand-secondary">
                            <rect id="box" fill="#1C1F28" fill-rule="nonzero" x="0" y="0" width="26.4058266" height="25.7456809"></rect>
                        </g>
                    </g>
                </g>
            </g>
        </g>
    </g>
</svg>