<?xml version="1.0" encoding="UTF-8"?>
<svg width="20px" height="20px" viewBox="0 0 20 20" version="1.1" xmlns="http://www.w3.org/2000/svg" xmlns:xlink="http://www.w3.org/1999/xlink">
    <title>3. icons/seal/icon-reguledmaterials</title>
    <defs>
        <path d="M17.5446702,10.1329456 L16.6472606,7.68590235 C16.6421694,7.67480402 16.6334356,7.66607021 16.6226568,7.66110685 L16.6223586,7.66095774 L13.0370015,7.125 L13.0120569,7.125 L6.63484151,9.50553851 C6.54343473,9.5387696 6.47697256,9.92101227 6.45204925,9.99991479 C6.14461912,10.9056109 5.83303511,11.815461 5.52556237,12.725311 C5.52556237,12.7461017 5.52556237,12.762696 5.55050699,12.7710037 L11.4291922,14.6530121 C11.5122912,14.6779567 11.5247316,14.6820893 11.595369,14.6322214 C11.7573918,14.5075835 11.9194359,14.3829669 12.0855913,14.262483 L17.5238795,10.1743993 C17.5370015,10.1697555 17.5462253,10.1574429 17.5462253,10.1430002 C17.5462253,10.1393788 17.5456288,10.1358853 17.544585,10.1326261 L17.5446489,10.1328604 L17.5446702,10.1329456 Z M10.5858044,13.6019726 L6.4644896,12.2849991 L6.48943422,12.206054 L6.61820467,11.8280078 L7.16660276,10.2118908 L10.7353655,10.7976738 L10.8350588,10.7976738 L10.9970816,13.0535745 L11.0344666,13.5604337 L11.0344666,13.7183027 L10.5858044,13.6019726 Z M11.1342025,10.1121549 L8.35065184,9.6551636 L12.8832439,7.96425528 C13.0411128,7.90607958 13.0660361,7.88115627 13.1989818,7.901947 L15.122529,8.1885864 L11.1342025,10.1121549 Z M16.2650605,10.1994078 L12.2185583,13.2405206 L11.8030845,13.5687415 L11.7698534,13.1532677 C11.7172234,12.3583774 11.6604394,11.5648645 11.5995015,10.7727292 L11.5995015,10.7187074 L16.173675,8.51678596 C16.1728229,8.52053511 16.172333,8.5248381 16.172333,8.52922631 C16.172333,8.53361452 16.1728229,8.53791752 16.1737602,8.54209271 L16.173675,8.54170927 L16.3731041,9.09426125 L16.5974352,9.70083504 L16.6680513,9.88778119 C16.6680513,9.88778119 16.6680513,9.88778119 16.6680513,9.88778119 L16.2650605,10.1994078 Z M10,0 C4.47716428,0 0,4.47716428 0,10 C0,15.5228357 4.47716428,20 10,20 C15.522857,20 20,15.5228357 20,10 C20,9.99853016 20,9.99706033 20,9.99561179 L20,9.99584611 C19.995271,4.47573705 15.5204286,0.00236451943 10.0002556,0 L10.0000213,0 L10,0 Z M10,19.1773816 C4.92917093,19.1773816 0.818443252,15.0666752 0.818443252,9.99582481 C0.818443252,4.92497444 4.92914963,0.814268064 10,0.814268064 C15.0708291,0.814268064 19.1815567,4.92497444 19.1815567,9.99582481 L19.1815567,9.99582481 C19.1768277,15.0647367 15.0689545,19.1726525 10.0004473,19.1773816 L10,19.1773816 Z M4.15872103,6.53093047 C4.07773091,6.45400903 3.96794052,6.40667604 3.84713701,6.40667604 C3.7263335,6.40667604 3.61654312,6.45398773 3.53533998,6.53112219 L3.535553,6.53093047 C3.45573449,6.61064247 3.40639911,6.72081629 3.40639911,6.84251449 C3.40639911,6.96421268 3.4557771,7.0743865 3.535553,7.1540985 L3.535553,7.1540985 L4.93147154,8.55001704 C5.01114093,8.62957993 5.12114434,8.67878749 5.24267212,8.67878749 C5.24282123,8.67878749 5.24292774,8.67878749 5.24307686,8.67878749 L5.24305556,8.67878749 C5.48626022,8.67878749 5.68345262,8.4816377 5.68345262,8.23839042 L5.68345262,8.23839042 C5.68345262,8.23826261 5.68345262,8.2381561 5.68345262,8.23800699 C5.68345262,8.11647921 5.63424506,8.0064758 5.55466087,7.92680641 L5.55466087,7.92680641 L4.15872103,6.53093047 Z M4.27091854,10.1287918 L2.29337082,10.1287918 C2.29151755,10.1287704 2.28932345,10.1287491 2.28710804,10.1287491 C2.16820041,10.1287491 2.0603911,10.1763378 1.9817229,10.2535148 L1.98180811,10.2534296 C1.90471626,10.3343771 1.85729806,10.4441462 1.85717025,10.5649923 L1.85717025,10.5650136 C1.85717025,10.565248 1.85717025,10.565461 1.85717025,10.5657166 C1.85717025,10.8001662 2.04036725,10.99182 2.27142979,11.0053255 L2.2726014,11.0053894 L4.25014911,11.0053894 C4.49335378,11.0053894 4.69054618,10.8082396 4.69054618,10.5649923 C4.69054618,10.3217451 4.49339639,10.1245953 4.25014911,10.1245953 L4.25014911,10.1245953 L4.27091854,10.1287918 Z M8.00168286,5.30120995 C8.00172546,5.29931408 8.00172546,5.29709867 8.00172546,5.29488327 C8.00172546,5.05395791 7.80642894,4.85868269 7.56552488,4.85868269 C7.44346455,4.85868269 7.33314162,4.90880624 7.25396217,4.98960464 L7.25387696,4.98968984 C7.17442059,5.06548228 7.1250426,5.17222648 7.1250426,5.29043115 C7.1250426,5.29277437 7.12506391,5.29511759 7.12510651,5.2974608 L7.12510651,5.29711997 L7.12510651,7.27466769 C7.12510651,7.51787236 7.32225631,7.71506476 7.56550358,7.71506476 C7.80875085,7.71506476 8.00590065,7.51791496 8.00590065,7.27466769 L8.00590065,7.27466769 L8.00168286,5.30120995 Z" id="path-1"></path>
    </defs>
    <g id="Yanbal-UI-Visual-Kit" stroke="none" stroke-width="1" fill="none" fill-rule="evenodd">
        <g id="yanbal-styleguide-pag2" transform="translate(-1178.000000, -4684.000000)">
            <g id="Group" transform="translate(1176.000000, 4682.000000)">
                <g id="colors/brand-secondary" transform="translate(2.000000, 2.000000)">
                    <mask id="mask-2" fill="white">
                        <use xlink:href="#path-1"></use>
                    </mask>
                    <use id="Mask" fill="#000000" fill-rule="nonzero" xlink:href="#path-1"></use>
                    <g id="Group" mask="url(#mask-2)">
                        <g transform="translate(-4.000000, -3.000000)" id="colors/brand-secondary">
                            <rect id="box" fill="#1C1F28" fill-rule="nonzero" x="0" y="0" width="26.4058266" height="25.7456809"></rect>
                        </g>
                    </g>
                </g>
            </g>
        </g>
    </g>
</svg>