<?xml version="1.0" encoding="UTF-8"?>
<svg width="20px" height="9px" viewBox="0 0 20 9" version="1.1" xmlns="http://www.w3.org/2000/svg" xmlns:xlink="http://www.w3.org/1999/xlink">
    <title>3. icons/outline/icon-car</title>
    <defs>
        <path d="M10.0798696,3.45771376 L11.7262608,3.45771376 L11.7262608,4.38334324 L10.0798696,4.38334324 L10.0798696,3.45771376 Z M19.1178766,3.35827147 C17.8441183,2.62770352 16.3954554,2.22991287 14.9277692,2.21079761 L13.6996372,1.5376184 C11.8061122,0.501055993 10.9163667,0.0114691543 8.8821623,0.00764610285 L8.65023021,0 L8.44870144,0.00764610285 C8.44490103,0.00764610285 8.44110061,0.00764610285 8.4373002,0.00764610285 C6.65403,0.00764610285 5.79853087,0.409259803 4.24719276,1.11686796 C3.76810557,1.33488928 3.2966192,1.58351649 2.85175709,1.85890506 L0.395493105,2.21079761 C0.171161843,2.2414035 2.86530033e-05,2.44028809 2.86530033e-05,2.66977856 L2.86530033e-05,5.63790548 C-0.00374266768,6.25371745 0.365068431,6.79302544 0.931607884,7.02251591 L2.11031313,7.49681054 C2.16354029,7.51977033 2.22058922,7.53123948 2.28141722,7.53123948 L2.34604563,7.53123948 C2.58557856,8.15852061 3.08368918,8.64428439 3.71485705,8.86995182 C4.87836063,9.27921162 6.15211896,8.68253639 6.58938023,7.53123948 L14.1406989,7.53123948 C14.3802318,8.15852061 14.8783424,8.64428439 15.5095103,8.86995182 C15.7566654,8.95792496 16.0114,9 16.2623555,9 C16.5969629,9 16.9353493,8.92349602 17.2471542,8.77433258 C17.7756681,8.51805926 18.1749039,8.08201662 18.3840335,7.53506254 L19.5399149,7.53506254 C19.7946708,7.53506254 20,7.32851037 20,7.07223706 L20,4.89586838 C20,4.26094116 19.6615922,3.67189055 19.1178766,3.35824999 L19.1178766,3.35827147 Z M9.4829055,2.20697456 L9.4829055,0.952390839 C11.0646469,1.03654093 11.6349868,1.45726988 13.0038196,2.20697456 L9.4829055,2.20697456 Z M14.9011449,6.70125072 C14.9011449,6.05100982 15.3574083,5.48874204 15.9923979,5.35869386 C16.0836506,5.33957861 16.1749033,5.33191102 16.2661559,5.33191102 C16.9011449,5.33191102 17.4676637,5.77942282 17.6007636,6.42966373 C17.7528443,7.17170083 17.2737784,7.89460119 16.5399353,8.04760916 C16.1825254,8.12029009 15.8213152,8.05143221 15.5171325,7.8487031 C15.2129498,7.64597398 15.0076206,7.33997952 14.9315909,6.98044087 C14.9087671,6.88482163 14.9011449,6.79302544 14.9011449,6.70122925 L14.9011449,6.70122925 L14.9011449,6.70125072 Z M19.0836729,4.89206681 L19.0836729,6.60563148 L18.5437363,6.60563148 C18.4943096,5.3854767 17.4905088,4.40630302 16.2623769,4.40630302 C15.0380453,4.40630302 14.0342445,5.3854767 13.9848178,6.60563148 L9.48292685,6.60563148 L9.48292685,3.13260404 L14.8061132,3.13260404 C16.1559225,3.13260404 17.4905088,3.48831965 18.6616133,4.16149887 C18.9201696,4.3106623 19.0836729,4.5898954 19.0836729,4.89206681 L19.0836729,4.89206681 Z M3.10649168,6.70125072 C3.10649168,6.05100982 3.56275503,5.48874204 4.19774466,5.35869386 C4.28899733,5.33957861 4.38025,5.33191102 4.47150267,5.33191102 C5.10649168,5.33191102 5.67301041,5.77942282 5.80611035,6.42966373 C5.95819102,7.17170083 5.47912517,7.89460119 4.74528204,8.04760916 C4.65402937,8.06672442 4.5627767,8.074392 4.47152402,8.074392 C3.83653439,8.074392 3.27001629,7.6268802 3.13691635,6.97663929 C3.11409251,6.8848431 3.10649168,6.79304691 3.10649168,6.70125072 L3.10649168,6.70125072 L3.10649168,6.70125072 Z M4.23577017,4.41777218 C4.21676809,4.41777218 4.20154508,4.42159523 4.182543,4.42541828 C4.17114175,4.42541828 4.16354092,4.42924133 4.15211833,4.42924133 L4.11409282,4.43306438 C4.07986773,4.43688743 4.04564264,4.44071049 4.00763849,4.44835659 C3.98863641,4.45217964 3.9734134,4.45600269 3.95441132,4.46364879 C3.94301008,4.46747185 3.93158748,4.4712949 3.92018623,4.4712949 L3.88596114,4.478941 C3.85553647,4.4865871 3.82133273,4.49423321 3.78710764,4.50572384 C3.7642838,4.51336994 3.74908214,4.52101604 3.72627965,4.52868362 C3.7148784,4.53250668 3.7034558,4.53632973 3.69205456,4.54015278 L3.66162988,4.55162193 C3.63120521,4.56309109 3.60080189,4.57073719 3.57797804,4.58222782 C3.5551542,4.58987393 3.53615212,4.60134308 3.51334963,4.61283371 C3.50194838,4.61665676 3.49434755,4.62430287 3.48292496,4.62812592 L3.45250028,4.64341812 C3.42587602,4.65488728 3.39927312,4.66637791 3.37644927,4.68167012 C3.3460246,4.69696232 3.31562128,4.71609906 3.28139619,4.73903736 C3.26619452,4.74668347 3.25097151,4.75815262 3.23957027,4.7658202 C3.22056819,4.77728936 3.20534518,4.78493546 3.19014352,4.79642609 C3.16731967,4.8117183 3.14451718,4.82703198 3.1255151,4.84614724 L3.10269126,4.86526249 C3.09509043,4.8729086 3.08368918,4.87673165 3.076067,4.88437775 C3.05706492,4.89966996 3.03424108,4.91498364 3.015239,4.93027585 C2.99623693,4.94556805 2.98101392,4.96088174 2.96201184,4.97617394 C2.95061059,4.9876431 2.94300976,4.9952892 2.93158716,5.00295678 C2.92398633,5.01060288 2.9163855,5.01442593 2.90876332,5.02207204 C2.88976124,5.03736424 2.87073782,5.05650098 2.85173574,5.07561623 C2.83653408,5.09090844 2.82511148,5.10622212 2.80990982,5.12151433 C2.79850857,5.13298348 2.78708598,5.14447412 2.77568473,5.15976632 C2.75286089,5.18272611 2.73005839,5.20566442 2.70343414,5.23627031 C2.68443206,5.25923009 2.66540863,5.28599145 2.64640655,5.30895124 L2.63500531,5.32424344 C2.62740448,5.33188955 2.61980365,5.3433587 2.61600323,5.35102628 C2.60080157,5.37014154 2.58937897,5.38545522 2.57417731,5.40839353 C2.54755305,5.44664552 2.52475056,5.48489752 2.51334931,5.50783582 C2.50574848,5.51930498 2.49814765,5.53079561 2.49052547,5.54226476 C2.47912423,5.55755697 2.46770163,5.5766937 2.4601008,5.59580896 C2.44869955,5.61876875 2.43727695,5.64170706 2.42587571,5.66466684 C2.42207529,5.676136 2.41447446,5.6837821 2.41067405,5.69527273 C2.40687363,5.70291884 2.40307322,5.71438799 2.3992728,5.72205557 C2.38787155,5.74501536 2.37644896,5.77177672 2.36504771,5.79855955 C2.35744688,5.81767481 2.34984605,5.83681155 2.34222387,5.8559268 C2.33842345,5.87121901 2.33082262,5.88653269 2.32702221,5.9018249 L2.31562096,5.92860774 C2.30802013,5.95539057 2.29661888,5.97832888 2.2889967,6.00511172 C2.28139587,6.02807151 2.27379504,6.05100982 2.26999462,6.07779265 C2.26619421,6.08926181 2.26239379,6.10075244 2.26239379,6.11604465 L2.25479296,6.13900443 C2.24719213,6.16961032 2.2395913,6.20019473 2.23196912,6.22697757 C2.2281687,6.25376041 2.22436829,6.28052177 2.22056787,6.30348155 C2.22056787,6.31495071 2.21676746,6.32644134 2.21676746,6.33791049 L2.21296704,6.36851638 C2.20916663,6.39529922 2.20536621,6.42588363 2.2015658,6.45266647 C2.19776538,6.47562626 2.19776538,6.50238762 2.19776538,6.52917046 C2.19776538,6.53299351 2.19776538,6.53299351 2.19776538,6.53681656 L1.27381608,6.16196422 C1.05708564,6.07781413 0.920206638,5.87126196 0.920206638,5.63794844 L0.920206638,4.23037822 L2.01526004,4.23037822 L2.01526004,3.30474875 L0.920206638,3.30474875 L0.920206638,3.06761217 L3.07608835,2.75779466 C3.14071676,2.75014855 3.1977657,2.72718877 3.25479328,2.69278131 C3.6046023,2.47475999 3.96961298,2.27203087 4.33844543,2.09226154 L5.23579183,2.99495271 C5.32324409,3.08292585 5.4373206,3.12882395 5.5589766,3.12882395 L8.55897754,3.12882395 L8.55897754,6.60185139 L6.74148225,6.60185139 C6.6920555,5.3816966 5.68825477,4.40252293 4.46012278,4.40252293 C4.3916726,4.40634598 4.31564294,4.41016903 4.23579152,4.41781513 L4.23577017,4.41777218 Z M8.56275661,0.933275582 L8.56275661,2.20697456 L5.75288318,2.20697456 L5.24717173,1.69825099 C6.51332922,1.18952742 7.049444,0.933275582 8.44107926,0.933275582 C8.44487968,0.933275582 8.44868009,0.933275582 8.45248051,0.933275582 L8.56275661,0.933275582 Z" id="path-1"></path>
    </defs>
    <g id="Yanbal-UI-Visual-Kit" stroke="none" stroke-width="1" fill="none" fill-rule="evenodd">
        <g id="yanbal-styleguide-pag2" transform="translate(-1034.000000, -4594.000000)">
            <g id="Group" transform="translate(1032.000000, 4586.000000)">
                <g id="colors/brand-secondary" transform="translate(2.000000, 8.000000)">
                    <mask id="mask-2" fill="white">
                        <use xlink:href="#path-1"></use>
                    </mask>
                    <use id="Mask" fill="#000000" fill-rule="nonzero" xlink:href="#path-1"></use>
                    <g id="Group" mask="url(#mask-2)">
                        <g transform="translate(-4.000000, -9.000000)" id="colors/brand-secondary">
                            <rect id="box" fill="#1C1F28" fill-rule="nonzero" x="0" y="0" width="26.4058266" height="25.7456809"></rect>
                        </g>
                    </g>
                </g>
            </g>
        </g>
    </g>
</svg>