<?xml version="1.0" encoding="UTF-8"?>
<svg width="18px" height="22px" viewBox="0 0 18 22" version="1.1" xmlns="http://www.w3.org/2000/svg" xmlns:xlink="http://www.w3.org/1999/xlink">
    <title>3. icons/outline/icon-style-advisor</title>
    <defs>
        <path d="M15.1521742,18.1927313 L12.7943481,17.1877296 L11.5082611,15.9333114 C11.4311407,15.8532197 11.324231,15.8081244 11.2126089,15.8086032 L11.2126089,15.8086032 L11.2126089,14.9796602 C12.329008,14.2780637 13.1085382,13.1546465 13.3708699,11.86929 L13.3708699,11.86929 L13.3708699,11.86929 L13.5704351,11.86929 L13.7773916,11.86929 L13.7773916,11.86929 C14.3747855,11.7162153 14.7935081,11.1831926 14.7973916,10.5708572 L14.7973916,10.5708572 L14.7973916,10.5708572 L14.7973916,10.2334114 C14.7930251,9.77401672 14.5535268,9.34836945 14.1617394,9.10370143 L14.1617394,9.10370143 C14.2712133,8.68447749 14.3258652,8.25301242 14.3243481,7.81994015 C14.3243481,7.77592548 14.3243481,7.73435606 14.3243481,7.69523191 L14.3243481,7.69523191 C14.2994044,5.80450183 13.2823162,4.06369153 11.6413046,3.10303441 L11.6413046,3.10303441 C11.6413046,1.38927583 10.2415131,0 8.51478279,0 C6.78805248,0 5.38826099,1.38927583 5.38826099,3.10303441 L5.38826099,3.10303441 C3.75803936,4.07649316 2.75562595,5.82170685 2.74217397,7.70990347 L2.74217397,7.70990347 C2.74231367,8.17085648 2.80445679,8.629728 2.92695659,9.07435832 L2.92695659,9.03767942 C2.53013814,9.28199144 2.28736074,9.71127656 2.28391309,10.1747251 L2.28391309,10.5268425 C2.32302196,11.0911428 2.7124887,11.5713906 3.25956529,11.7299102 L3.25956529,11.7299102 L3.45913051,11.7299102 L3.66608704,11.7299102 L3.66608704,11.7299102 C3.92187367,13.0217794 4.69901881,14.1535597 5.81695665,14.8622878 L5.81695665,14.8622878 L5.81695665,15.7645885 L5.81695665,15.7645885 C5.70753814,15.7643783 5.60301771,15.8095962 5.52869577,15.8892968 L5.52869577,15.8892968 L4.24260879,17.1437149 L1.84782613,18.2000671 C0.724600253,18.6935193 0,19.7978888 0,21.0170061 C0,21.0561303 0,21.0952544 0,21.1343786 L0,21.1343786 L0.0369565225,21.9633216 L0.886956541,21.9633216 L0.850000018,21.0976997 C0.850000018,21.0976997 0.850000018,21.053685 0.850000018,21.0316777 C0.842438409,20.5950367 0.965938129,20.1660349 1.20478263,19.7992669 L1.20478263,19.7992669 L2.49086962,21.3397804 C2.64531785,21.5237265 2.77227283,21.7287874 2.86782615,21.94865 L2.86782615,21.94865 L3.7695653,21.94865 C3.62883864,21.5292613 3.40800071,21.1407169 3.1191305,20.8042685 L3.1191305,20.8042685 L1.73695656,19.2417477 C1.86816275,19.1481996 2.00947075,19.0694647 2.15826092,19.0070027 L2.15826092,19.0070027 L4.25000009,18.1120377 L5.72826099,20.4081365 C5.86037466,20.6202241 6.07888867,20.7648058 6.32695666,20.8042685 L6.46739144,20.8042685 C6.67550659,20.8041903 6.87696695,20.7314823 7.03652189,20.5988667 L7.03652189,20.5988667 L8.10086974,19.7992669 L8.10086974,22 L8.93608715,22 L8.93608715,19.7992669 L9.97826109,20.6135383 C10.137816,20.7461539 10.3392764,20.8188619 10.5473915,20.8189401 L10.680435,20.8189401 C10.9298985,20.7831957 11.1512349,20.6412115 11.286522,20.4301438 L11.286522,20.4301438 L12.7647829,18.0973662 L14.8565221,18.9923312 C15.0106099,19.0564602 15.1569008,19.1376693 15.292609,19.2344119 L15.292609,19.2344119 L13.9030438,20.855619 C13.6083511,21.1892161 13.3846002,21.5784626 13.2452177,22 L13.2452177,22 L14.1321742,22 C14.2282896,21.7720712 14.3578036,21.5594841 14.5165221,21.3691235 L14.5165221,21.3691235 L15.802609,19.7992669 C16.0345071,20.1555803 16.1577107,20.5708161 16.1573917,20.9949988 C16.1573917,20.9949988 16.1573917,21.0390135 16.1573917,21.0610208 L16.1573917,21.0610208 L16.1204351,21.9266427 L16.9630438,21.9266427 L17,21.0976997 C17,21.0610208 17,21.0170061 17,20.9729915 C16.9937637,19.775212 16.2870157,18.6901292 15.1891308,18.1927313 L15.1891308,18.1927313 L15.1521742,18.1927313 Z M8.50000018,0.814271441 C9.56697022,0.817179211 10.4887583,1.55516893 10.7173915,2.5895299 L10.7173915,2.5895299 C10.0096091,2.32143525 9.2575504,2.18708162 8.50000018,2.19339785 C7.72042819,2.19367612 6.94796686,2.340536 6.2234784,2.62620879 L6.26782622,2.62620879 C6.49045557,1.5860186 7.41377867,0.840690655 8.48521758,0.836278778 L8.48521758,0.836278778 L8.50000018,0.814271441 Z M4.50869575,11.6785598 C4.44289328,11.2554243 4.07529736,10.9436 3.64391312,10.9449819 L3.45173921,10.9449819 C3.23297148,10.8753136 3.08395214,10.6741698 3.08217398,10.4461489 L3.08217398,10.4461489 L3.08217398,10.4461489 L3.08217398,10.0866958 C3.08320182,9.85846433 3.24239721,9.66096499 3.46652181,9.60987016 L3.56260877,9.60987016 C3.70869642,9.60862106 3.84741971,9.6734122 3.9395653,9.78592885 L3.9395653,9.78592885 C4.01532045,9.88691441 4.12143684,9.96140848 4.24260879,9.99866644 L4.24260879,9.99866644 C4.30384095,10.00804 4.36615924,10.00804 4.4273914,9.99866644 C4.55427197,9.99928328 4.67822394,9.96083928 4.78217402,9.88862976 L4.78217402,9.88862976 C5.1441737,9.63529438 5.45506061,9.31678968 5.69869578,8.94965008 L5.69869578,8.94965008 C5.72786916,8.89285436 5.74306696,8.8300059 5.7430436,8.76625561 C5.743061,8.65407536 5.69766053,8.54659297 5.61704476,8.4679623 C5.53642899,8.38933162 5.4273599,8.34614814 5.31434794,8.34811622 C5.18581549,8.34738208 5.06373331,8.40392577 4.98173924,8.50216757 L4.98173924,8.50216757 C4.83831523,8.73852196 4.65592481,8.94929896 4.44217401,9.12570877 L4.44217401,9.12570877 C4.23779343,8.93992279 3.97869139,8.82420278 3.70304356,8.79559872 L3.70304356,8.79559872 C3.59890409,8.42546342 3.5466733,8.04284657 3.54782616,7.65855302 L3.54782616,7.65855302 C3.62021133,5.04225528 5.78907717,2.96469652 8.42608714,2.98566195 L8.63304367,2.98566195 C11.2561308,2.96418567 13.4192824,5.02000631 13.5113046,7.62187412 L13.5113046,7.62187412 C13.5097571,8.01853939 13.4550751,8.41323952 13.3486959,8.79559872 L13.3486959,8.79559872 C13.1943417,8.80890678 13.0411778,8.83342505 12.8904351,8.86895651 L12.8904351,8.86895651 L12.5060872,8.5608538 C12.3484553,8.43670477 12.152972,8.36944632 11.9517394,8.37012356 L11.9073916,8.37012356 L11.3382611,8.37012356 C10.5757079,8.37058413 9.81519619,8.29190807 9.06913063,8.13537864 L9.14304368,8.13537864 C7.8167169,7.92250004 6.59961702,7.27722405 5.68391317,6.30143395 L5.68391317,6.30143395 C5.60259257,6.20233073 5.48006953,6.14558285 5.35130446,6.14738259 C5.2402529,6.14541411 5.13306364,6.18782451 5.05383388,6.26507952 C4.97460412,6.34233453 4.9299824,6.44795131 4.93000011,6.5581862 C4.92937997,6.65826714 4.96626044,6.75500471 5.03347837,6.82961002 L5.03347837,6.82961002 C6.06411488,7.95578991 7.44652135,8.70510481 8.95826106,8.95698586 L8.99521759,8.95698586 C9.77345672,9.11532922 10.5660141,9.19398957 11.360435,9.19173078 L12.0034785,9.19173078 L12.0034785,9.19173078 L12.5800003,9.65388484 C12.7090114,9.78054459 12.904399,9.81286455 13.0678264,9.7345784 L13.0678264,9.7345784 C13.1948963,9.68493988 13.3304037,9.66003444 13.4669568,9.66122062 L13.5852177,9.66122062 C13.8145714,9.7154832 13.9765491,9.91870925 13.9769568,10.1527178 L13.9769568,10.1527178 L13.9769568,10.5048352 C13.9762365,10.7309045 13.8306303,10.9314523 13.6147829,11.0036681 L13.3782612,11.0036681 C12.9586051,10.9992138 12.5952566,11.2920241 12.5134785,11.7005671 L12.5134785,11.7005671 C12.1349419,13.6009099 10.4554819,14.9704841 8.50369584,14.9704841 C6.55190975,14.9704841 4.87244978,13.6009099 4.49391314,11.7005671 L4.49391314,11.7005671 L4.50869575,11.6785598 Z M6.53391319,19.9753255 L6.53391319,19.9753255 L5.05565228,17.6132048 L5.87608708,16.8136049 L7.88652191,18.8382798 L6.53391319,19.9753255 Z M8.50000018,18.2807606 L6.66695667,16.4981664 L6.66695667,15.3977996 C7.25113205,15.623761 7.87303435,15.7382473 8.50000018,15.7352454 C9.14418542,15.7429759 9.78392316,15.6284392 10.3847828,15.3977996 L10.3847828,15.3977996 L10.3847828,16.4761591 L8.50000018,18.2807606 Z M10.5326089,19.9679898 L10.5326089,19.9679898 L9.16521759,18.8309441 L11.2495655,16.7989333 L12.0700003,17.5985332 L10.5326089,19.9679898 Z" id="path-1"></path>
    </defs>
    <g id="Yanbal-UI-Visual-Kit" stroke="none" stroke-width="1" fill="none" fill-rule="evenodd">
        <g id="yanbal-styleguide-pag2" transform="translate(-507.000000, -4539.000000)">
            <g id="Group" transform="translate(504.000000, 4538.000000)">
                <g id="elements" transform="translate(3.500000, 1.000000)">
                    <mask id="mask-2" fill="white">
                        <use xlink:href="#path-1"></use>
                    </mask>
                    <use id="icon" fill="#000000" fill-rule="nonzero" xlink:href="#path-1"></use>
                    <g id="Group" mask="url(#mask-2)">
                        <g transform="translate(-4.000000, -1.000000)" id="color">
                            <rect id="box" fill="#1C1F28" fill-rule="nonzero" x="0" y="0" width="24" height="24"></rect>
                        </g>
                    </g>
                </g>
            </g>
        </g>
    </g>
</svg>