<?xml version="1.0" encoding="UTF-8"?>
<svg width="16px" height="20px" viewBox="0 0 16 20" version="1.1" xmlns="http://www.w3.org/2000/svg" xmlns:xlink="http://www.w3.org/1999/xlink">
    <title>3. icons/outline/icon-quickorder </title>
    <defs>
        <path d="M6.35,1.90625 L9.65909091,1.90625 C10.1954545,1.90625 10.6295455,1.47991071 10.6295455,0.953125 C10.6295455,0.426339286 10.1954545,0 9.65909091,0 L9.65909091,0 L6.35,0 C5.81363636,0 5.37954545,0.426339286 5.37954545,0.953125 C5.37954545,1.47991071 5.81363636,1.90625 6.35,1.90625 L6.35,1.90625 L6.35,1.90625 Z M14.1886364,0.629464286 L11.2795455,0.629464286 L11.2795455,1.71651786 L13.6704545,1.71651786 C14.3977273,1.72098214 14.9863636,2.30133929 14.9863636,3.015625 L14.9863636,3.015625 L14.9863636,3.015625 L14.9863636,17.6808036 L14.9863636,17.6808036 C14.9863636,18.3973214 14.3977273,18.9776786 13.6704545,18.9799107 L2.32272727,18.9799107 C1.59545455,18.9754464 1.00681818,18.3950893 1.00681818,17.6808036 L1.00681818,17.6808036 L1.00681818,17.6808036 L1.00681818,3.015625 L1.00681818,3.015625 C1.00681818,2.29910714 1.59545455,1.71875 2.32272727,1.71651786 L4.71363636,1.71651786 L4.71363636,0.629464286 L1.80454545,0.629464286 C0.806818182,0.638392857 0,1.43303571 0,2.41517857 C0,2.41517857 0,2.41517857 0,2.41517857 L0,2.41517857 L0,18.2142857 C0,18.2142857 0,18.2142857 0,18.2142857 C0,19.1986607 0.809090909,19.9955357 1.81136364,20 L14.175,20 C14.1772727,20 14.1795455,20 14.1818182,20 C15.1863636,20 16,19.2008929 16,18.2142857 C16,18.2142857 16,18.2142857 16,18.2142857 L16,18.2142857 L16,2.41517857 C16,2.41517857 16,2.41517857 16,2.41517857 C16,1.43080357 15.1909091,0.631696429 14.1886364,0.629464286 L14.1886364,0.629464286 L14.1886364,0.629464286 Z M5.18409091,17.8571429 L11.6090909,7.54241071 L8.58409091,7.54241071 L10.25,3.546875 L7.09090909,3.546875 L4.64318182,9.66294643 L4.57727273,9.83482143 L7.73636364,9.83482143 L5.18409091,17.8571429 Z M9.07045455,4.56919643 L7.32954545,8.50669643 L9.98409091,8.50669643 L7.44318182,12.9196429 L8.83181818,9.05803571 L5.92045455,9.05803571 L7.67727273,4.5625 L9.07045455,4.56919643 Z" id="path-1"></path>
    </defs>
    <g id="Yanbal-UI-Visual-Kit" stroke="none" stroke-width="1" fill="none" fill-rule="evenodd">
        <g id="yanbal-styleguide-pag2" transform="translate(-220.000000, -4492.000000)">
            <g id="Group" transform="translate(216.000000, 4490.000000)">
                <g id="Group-2" transform="translate(4.000000, 2.000000)">
                    <mask id="mask-2" fill="white">
                        <use xlink:href="#path-1"></use>
                    </mask>
                    <use id="Mask" fill="#000000" fill-rule="nonzero" xlink:href="#path-1"></use>
                    <g id="Group" mask="url(#mask-2)">
                        <g transform="translate(-4.000000, -2.000000)" id="colors/brand-secondary">
                            <rect id="box" fill="#1C1F28" fill-rule="nonzero" x="0" y="0" width="24" height="24"></rect>
                        </g>
                    </g>
                </g>
            </g>
        </g>
    </g>
</svg>