<?xml version="1.0" encoding="UTF-8"?>
<svg width="16px" height="18px" viewBox="0 0 16 18" version="1.1" xmlns="http://www.w3.org/2000/svg" xmlns:xlink="http://www.w3.org/1999/xlink">
    <title>3. icons/outline/icon-stethoscope</title>
    <defs>
        <path d="M15.4286006,8.00490848 C15.7815057,7.57045807 15.996306,7.01402565 16,6.4082741 L16,6.40743035 C16,5.02814171 14.8641197,3.91003358 13.4629074,3.91003358 C12.0616951,3.91003358 10.9258148,5.02814171 10.9258148,6.40743035 L10.9258148,6.40743035 C10.9278557,7.58942233 11.7364844,8.5849056 12.838711,8.88923785 L12.8572012,8.89355704 L12.9714892,8.92168201 L12.9714892,9.04543187 C12.9701422,9.05302561 12.9694279,9.06180462 12.9694279,9.07074434 C12.9694279,9.07968406 12.9702239,9.08846307 12.9716321,9.09696083 L12.9714892,9.09605681 L12.9714892,13.0952666 C12.9716933,13.1086461 12.9717749,13.1244965 12.9717749,13.1403469 C12.9717749,15.2263357 11.2603114,16.9187958 9.14418662,16.9313516 L9.14294169,16.9313516 C7.04047021,16.8998115 5.34841527,15.2147643 5.34841527,13.1406483 C5.34841527,13.1246572 5.34853773,13.1087465 5.34870099,13.0928157 L5.34868059,13.0952465 L5.34868059,12.2908925 L5.46296863,12.2908925 C6.56578706,12.1011294 7.53556195,11.6394178 8.32892508,10.9788025 L8.32006776,10.9859342 C9.07126676,10.486937 9.59060389,9.69795123 9.71258597,8.78571787 L9.71434111,8.76974691 L9.71434111,3.54997372 C9.71436152,3.54687997 9.71436152,3.54332417 9.71436152,3.53966792 C9.71436152,2.37350628 9.02104125,1.36677303 8.01804118,0.897025785 L8.00004082,0.889432043 L7.9429172,0.889432043 L7.9429172,0.827557112 C7.80581236,0.346700506 7.36439519,0 6.84075185,0 C6.82644544,0 6.81220025,0.000281249686 6.7980571,0.000803570532 L6.80007755,0.000743302742 C6.16490132,0.0195468532 5.65717668,0.530898961 5.65717668,1.15896969 C5.65717668,1.16312817 5.65719709,1.1671862 5.6572379,1.17132459 L5.6572379,1.17068173 C5.65715627,1.17586476 5.65707463,1.18193172 5.65707463,1.18803885 C5.65707463,1.81612967 6.16479928,2.32752196 6.79830201,2.34622506 L6.80005714,2.34626524 C7.1151248,2.34489917 7.39978367,2.21829663 7.60568583,2.01445088 L7.60574706,2.01439061 L7.68574869,1.94126569 L7.77717913,1.99749554 C8.29243454,2.33583891 8.62872712,2.90362176 8.63429866,3.54912997 L8.63429866,8.769767 C8.63429866,9.20287143 8.14859487,9.82722564 7.40002857,10.3559349 C6.69452438,10.8806062 5.81285332,11.2103513 4.85505827,11.2500075 L4.84577236,11.2502888 C3.87667095,11.2115969 2.99287741,10.8816106 2.27423009,10.3477385 L2.28582216,10.3559349 C1.53727627,9.82720555 1.05155207,9.20285134 1.05155207,8.769767 L1.05155207,3.54999381 C1.05163371,2.90231596 1.38966101,2.33246391 1.90156942,2.00185491 L1.90871242,1.99755581 L2.00014286,1.94132596 L2.08014449,2.02007587 C2.2866385,2.2217319 2.57099124,2.34632551 2.88495684,2.34632551 C2.88524256,2.34632551 2.88560991,2.34632551 2.88589563,2.34632551 L2.88585481,2.34632551 C3.50896957,2.302551 3.99759179,1.79423237 3.99759179,1.17355449 C3.99759179,0.552876615 3.50896957,0.0445780752 2.88973244,0.00102455243 L2.88591604,0.000783481268 C2.88424254,0.000783481268 2.88220168,0.000763392005 2.88022205,0.000763392005 C2.36306863,0.000763392005 1.92618217,0.338885782 1.78513847,0.802766961 L1.78309761,0.810742399 L1.78309761,0.866972247 L1.725974,0.866972247 C0.699136717,1.33716145 0,2.34407551 0,3.51170367 C0,3.52516348 0,3.5385831 0.000285720117,3.55200273 L0.000265311537,3.54999381 L0.000265311537,8.769767 C0.116308496,9.6822816 0.616073797,10.4613834 1.33294557,10.9567646 L1.34308863,10.9634141 C2.12934958,11.6145272 3.09794077,12.0772633 4.16284006,12.2684327 L4.20026939,12.2739975 L4.32025143,12.2739975 L4.32025143,13.0783515 C4.31984326,13.1020769 4.31957795,13.1300211 4.31957795,13.1579853 C4.31957795,15.7992614 6.46766261,17.9467434 9.13798241,18 L9.14300292,18 C11.8313435,17.9590179 13.9947142,15.8042033 13.9947142,13.1519987 C13.9947142,13.13203 13.9945713,13.1121014 13.9943876,13.0921528 L13.994408,13.0952064 L13.994408,9.09599654 C13.9956734,9.08587156 13.9963877,9.07415952 13.9963877,9.06224658 C13.9963877,9.05033365 13.9956734,9.0386417 13.9943264,9.02709037 L13.9944897,9.02849662 L13.9944897,8.91039184 L14.1087777,8.88226687 C14.6473602,8.72842329 15.0991245,8.42033435 15.4245189,8.01035267 L15.4287843,8.00480803 L15.4286006,8.00490848 Z M13.4629074,7.87553362 C13.4510092,7.87583496 13.4369477,7.87603585 13.4229066,7.87603585 C12.5834405,7.87603585 11.9029368,7.20617946 11.9029368,6.37984779 C11.9029368,5.55351612 12.5834405,4.88365973 13.4229066,4.88365973 C14.2623727,4.88365973 14.9428764,5.55351612 14.9428764,6.37984779 C14.9428764,6.38165582 14.9428764,6.38348395 14.9428764,6.38519153 L14.9428764,6.38491028 C14.9429376,6.38995269 14.9429988,6.39587902 14.9429988,6.40188571 C14.9429988,7.20991606 14.2823935,7.86599122 13.4638258,7.87545326 L13.4629482,7.87545326 L13.4629074,7.87553362 Z" id="path-1"></path>
    </defs>
    <g id="Yanbal-UI-Visual-Kit" stroke="none" stroke-width="1" fill="none" fill-rule="evenodd">
        <g id="yanbal-styleguide-pag2" transform="translate(-508.000000, -4685.000000)">
            <g id="Group" transform="translate(504.000000, 4682.000000)">
                <g id="colors/brand-secondary" transform="translate(4.000000, 3.000000)">
                    <mask id="mask-2" fill="white">
                        <use xlink:href="#path-1"></use>
                    </mask>
                    <use id="Mask" fill="#000000" fill-rule="nonzero" xlink:href="#path-1"></use>
                    <g id="Group" mask="url(#mask-2)">
                        <g transform="translate(-6.000000, -4.000000)" id="colors/brand-secondary">
                            <rect id="box" fill="#1C1F28" fill-rule="nonzero" x="0" y="0" width="26.4058266" height="25.7456809"></rect>
                        </g>
                    </g>
                </g>
            </g>
        </g>
    </g>
</svg>