<?xml version="1.0" encoding="UTF-8"?>
<svg width="16px" height="20px" viewBox="0 0 16 20" version="1.1" xmlns="http://www.w3.org/2000/svg" xmlns:xlink="http://www.w3.org/1999/xlink">
    <title>3. icons/outline/icon-empty-bag</title>
    <defs>
        <path d="M15.5407605,7.4059081 C15.5363277,6.45842451 14.7561643,5.68818381 13.7942582,5.68818381 L12.0433232,5.68818381 L12.0433232,4.98140044 C12.0433232,3.72100656 11.7108672,2.63129103 11.0814171,1.83041575 C10.3965577,0.9595186 9.40362239,0.5 8.20678072,0.5 C7.00993905,0.5 6.01700374,0.9595186 5.33214434,1.83041575 C4.70269428,2.63129103 4.37023826,3.72100656 4.37023826,4.98140044 L4.37023826,5.68818381 L2.71904003,5.68818381 C2.71239091,5.68818381 2.70352542,5.68818381 2.6968763,5.68818381 C1.73940296,5.68818381 0.96145588,6.45404814 0.959239507,7.39934354 L0.25,18.7866521 L0.25,18.7932166 L0.25,18.7997812 C0.254432747,19.2549234 0.436175371,19.6816193 0.764198642,20.0032823 C1.09222191,20.3249453 1.52663111,20.5 1.98763679,20.5 L14.5123632,20.5 C15.4720529,20.5 16.25,19.7297593 16.25,18.7844639 L16.25,18.7778993 L15.5407605,7.4059081 Z M5.58333333,5.79411765 L5.58333333,5.05686709 C5.58333333,4.06625799 5.80842664,3.23085953 6.23334769,2.64197209 C6.69731553,2.00058693 7.37489233,1.67647059 8.25,1.67647059 C9.12510767,1.67647059 9.80268447,2.00058693 10.2666523,2.64197209 C10.6915734,3.23085953 10.9166667,4.06625799 10.9166667,5.05686709 L10.9166667,5.79411765 L5.58333333,5.79411765 Z M10.7977404,6.97058824 L10.7977404,8.67595003 L10.7999733,8.68906819 C10.8423984,8.99953149 11.1125795,9.23128579 11.4318844,9.23128579 C11.7489564,9.23128579 12.0213703,8.99953149 12.0637954,8.69125455 L12.0660283,8.67376366 L12.0660283,6.97058824 L13.8367191,6.97058824 C14.1202976,6.97058824 14.3502864,7.19578345 14.3502864,7.47345133 L14.3502864,7.48001041 L15.0648148,18.8403436 C15.0558832,19.0939615 14.8549221,19.3016658 14.6003713,19.3235294 L14.584741,19.3191567 L1.94875249,19.3191567 C1.66740692,19.3191567 1.43741809,19.0961478 1.43518519,18.8228527 L2.14971361,7.44721499 C2.16757682,7.18266528 2.39086695,6.97496096 2.66328091,6.97496096 L4.33349109,6.97496096 L4.33349109,8.68032275 L4.3379569,8.68906819 C4.38038202,8.99953149 4.65056308,9.23128579 4.96986797,9.23128579 C5.28693995,9.23128579 5.55935391,8.99953149 5.60177904,8.69125455 L5.60401194,8.67376366 L5.60401194,6.97058824 L10.7977404,6.97058824 Z M9.6527709,11.1176471 C9.47116284,11.1176471 9.29924055,11.1806533 9.17332563,11.2979752 L7.94807661,12.3973249 L6.72282758,11.2979752 C6.59449122,11.1806533 6.42499037,11.1176471 6.24338231,11.1176471 C6.06177426,11.1176471 5.88985196,11.1806533 5.7615156,11.2979752 C5.63560068,11.4131244 5.5653789,11.5652084 5.5653789,11.7259829 C5.5653789,11.8867573 5.63560068,12.0388413 5.7615156,12.1561632 L6.98676462,13.2555129 L5.70097958,14.404833 C5.57022178,14.5178096 5.5,14.6698936 5.5,14.8328407 C5.5,15.1674254 5.80510154,15.4411765 6.17800341,15.4411765 C6.35961147,15.4411765 6.52911232,15.3781703 6.65744868,15.263021 L7.94565516,14.1137009 L9.23144021,15.2608484 C9.35977657,15.3781703 9.52927742,15.4411765 9.71088548,15.4411765 C9.89249353,15.4411765 10.0644158,15.3781703 10.1927522,15.2608484 C10.3186671,15.1456991 10.3888889,14.9936151 10.3888889,14.8328407 C10.3888889,14.6720662 10.3186671,14.5199823 10.1927522,14.404833 L10.0595729,14.5221549 L10.1927522,14.4026604 L8.90696715,13.2555129 L10.1322162,12.1561632 C10.2581311,12.0410139 10.3283529,11.8889299 10.3283529,11.7281555 C10.3283529,11.567381 10.2581311,11.4152971 10.1322162,11.3001478 L10.0692587,11.3544635 L10.1322162,11.2979752 C10.0038798,11.1806533 9.83437896,11.1176471 9.6527709,11.1176471 Z" id="path-1"></path>
    </defs>
    <g id="Yanbal-UI-Visual-Kit" stroke="none" stroke-width="1" fill="none" fill-rule="evenodd">
        <g id="yanbal-styleguide-pag2" transform="translate(-1372.000000, -4540.000000)">
            <g id="Group" transform="translate(1368.000000, 4538.000000)">
                <g id="elements" transform="translate(3.750000, 1.500000)">
                    <mask id="mask-2" fill="white">
                        <use xlink:href="#path-1"></use>
                    </mask>
                    <use id="Mask" fill="#000000" fill-rule="nonzero" transform="translate(8.250000, 10.500000) rotate(-360.000000) translate(-8.250000, -10.500000) " xlink:href="#path-1"></use>
                    <g id="Group" mask="url(#mask-2)">
                        <g transform="translate(-3.750000, -1.500000)" id="color">
                            <rect id="box" fill="#1C1F28" fill-rule="nonzero" x="0" y="0" width="24" height="24"></rect>
                        </g>
                    </g>
                </g>
            </g>
        </g>
    </g>
</svg>