<?xml version="1.0" encoding="UTF-8"?>
<svg width="22px" height="18px" viewBox="0 0 22 18" version="1.1" xmlns="http://www.w3.org/2000/svg" xmlns:xlink="http://www.w3.org/1999/xlink">
    <title>3. icons/outline/icon-truck</title>
    <defs>
        <path d="M20.2069302,6.48308051 C19.3900089,5.64760793 18.2953343,5.16452742 17.1283038,5.12252042 L15.9916161,5.12252042 L16.3884065,0.613768961 L16.3884065,0.548424737 C16.3860724,0.319719953 16.2483628,0.109684947 16.0406314,0.0140023337 L16.0079545,0 L4.61773698,0 C4.33764966,0 4.0902392,0.198366394 4.02955361,0.473745624 L4.02488549,0.543757293 L3.82182219,2.57876313 L1.10730928,2.57876313 C0.794545106,2.57876313 0.528462155,2.8168028 0.502787484,3.11785298 C0.486449058,3.2882147 0.542466521,3.44924154 0.656835509,3.57526254 C0.768870435,3.69894982 0.929920642,3.76896149 1.09563897,3.76896149 L3.70511914,3.76896149 L3.35267593,7.33722287 L1.40373502,7.33722287 C1.1236477,7.33722287 0.885573484,7.5495916 0.859898813,7.82263711 C0.845894447,7.97432905 0.894909728,8.12135356 0.997608411,8.23337223 C1.09797303,8.3453909 1.24268481,8.4084014 1.39206472,8.4084014 L3.24764319,8.4084014 L3.04924801,11.1458576 L2.75515632,15.0665111 L2.74348602,15.3255543 C2.73648384,15.4679113 2.78783318,15.6056009 2.88586374,15.7012835 L2.89519998,15.7106184 C2.94654932,15.7549592 3.00256679,15.789965 3.06792049,15.8179697 L3.09592923,15.8273046 L4.50103393,15.8273046 C4.64341165,16.4317386 4.98418455,16.9778296 5.46500111,17.3722287 C5.9621561,17.7782964 6.58768444,18 7.22721715,18 C7.86908392,18 8.49694632,17.7759627 8.99410131,17.3722287 C9.47725193,16.9801634 9.81802483,16.4317386 9.95573443,15.8273046 L13.9633171,15.8273046 C14.1056948,16.4317386 14.4464677,16.9778296 14.9272843,17.3722287 C15.4244393,17.7782964 16.0499676,18 16.6895003,18 C17.3313671,18 17.9592295,17.7759627 18.4563845,17.3722287 C18.9395351,16.9801634 19.280308,16.4317386 19.4180176,15.8273046 L21.0588625,15.8273046 L21.0588625,15.4772462 C21.0588625,15.4095683 21.1755655,14.1726954 21.268928,13.1785298 L21.271262,13.1575263 C21.3366157,12.4597433 21.4043035,11.7386231 21.4486507,11.2625438 L21.4486507,10.504084 C21.4486507,10.252042 21.4696572,10.0256709 21.4836616,9.85997666 C21.4929978,9.75029172 21.5,9.66627771 21.5,9.59859977 C21.4859956,8.42707118 21.0261856,7.32088681 20.2069302,6.48308051 Z M15.7605441,7.71295216 L15.8842493,6.31271879 L16.7385156,6.31271879 L16.6148104,7.71295216 L15.7605441,7.71295216 Z M15.5901576,14.3523921 C15.8865834,14.042007 16.2833737,13.8693116 16.7128409,13.8693116 C17.5671073,13.8693116 18.2603234,14.5624271 18.2603234,15.4142357 C18.2556552,15.8296383 18.0899369,16.2193699 17.7935112,16.5110852 C17.4970854,16.8028005 17.1049632,16.9638273 16.6895003,16.9638273 L16.67783,16.9638273 C16.2413606,16.9544924 15.8422362,16.7677946 15.5504786,16.4410735 C15.3194065,16.1820303 15.184031,15.8459743 15.1653585,15.4982497 C15.144352,15.0711785 15.2960659,14.6651109 15.5901576,14.3523921 Z M6.17922377,14.3523921 C6.47564951,14.042007 6.87243988,13.8693116 7.3019071,13.8693116 C8.15617342,13.8693116 8.84938952,14.5624271 8.84938952,15.4142357 C8.8447214,15.8296383 8.67666901,16.2193699 8.38257733,16.5110852 C8.08615159,16.8028005 7.69402934,16.9638273 7.27856649,16.9638273 L7.26689618,16.9638273 C6.83042678,16.9544924 6.43130236,16.7677946 6.13954473,16.4410735 C5.9084727,16.1820303 5.77309716,15.8459743 5.75442467,15.4982497 C5.73341813,15.0711785 5.88513209,14.6651109 6.17922377,14.3523921 Z M6.8234246,8.44807468 C6.99614511,8.44807468 7.15952938,8.37339557 7.27389837,8.24270712 C7.38826736,8.11201867 7.43728264,7.9369895 7.41160797,7.76429405 C7.36959487,7.47491249 7.11284816,7.25787631 6.8117543,7.25787631 L4.55705139,7.25787631 L4.9094946,3.69894982 L7.69169528,3.69894982 C7.99278915,3.69894982 8.24953585,3.48191365 8.29154895,3.19253209 C8.31722362,3.01983664 8.26587428,2.84480747 8.15383935,2.71411902 C8.03947037,2.58343057 7.8760861,2.50875146 7.70336559,2.50875146 L5.02853171,2.50875146 L5.16390725,1.14585764 L15.1326817,1.14585764 L14.5024852,8.26371062 L14.3531053,10.6277713 L4.30030469,10.6277713 L4.45201865,8.4504084 L6.8234246,8.4504084 L6.8234246,8.44807468 Z M19.7284477,9.0571762 C19.2593015,8.42240373 18.5870919,7.9789965 17.8285221,7.80863477 L17.9522273,6.43173862 C18.6594478,6.59509918 19.2966464,6.98949825 19.7564565,7.55192532 C20.2326049,8.13068845 20.4940197,8.86347725 20.4963538,9.61026838 C20.4893516,9.63827305 20.4846835,9.6756126 20.4823494,9.72928821 C20.2092643,9.57992999 19.9758582,9.37689615 19.7891333,9.12952159 L19.7284477,9.0571762 Z M15.3520834,11.4749125 L15.4991292,9.12718786 L16.9509152,9.12718786 L16.9695877,9.12485414 C17.0489457,9.11551925 17.13764,9.10851809 17.2263344,9.10851809 C17.8611989,9.10851809 18.4540504,9.39089848 18.8555089,9.88331389 L18.857843,9.88564761 C19.2452971,10.4130688 19.7704608,10.7934656 20.3796507,10.991832 C20.3399717,11.4422404 20.2862883,12.1773629 20.2326049,13.0245041 C20.1929259,13.6429405 20.1415765,14.3967328 20.1042315,14.8191365 L19.4180176,14.8191365 C19.2756399,14.2147025 18.934867,13.6686114 18.4540504,13.2742124 C17.9568954,12.8681447 17.3313671,12.6464411 16.6918344,12.6464411 C16.0499676,12.6464411 15.4221052,12.8704784 14.9249502,13.2742124 C14.4417996,13.6662777 14.1010267,14.2147025 13.9633171,14.8191365 L9.98374316,14.8191365 C9.84136544,14.2147025 9.50059254,13.6686114 9.01977598,13.2742124 C8.52262099,12.8681447 7.89709265,12.6464411 7.25755994,12.6464411 C6.61569317,12.6464411 5.98783077,12.8704784 5.49067578,13.2742124 C5.00752516,13.6662777 4.66675226,14.2147025 4.52904266,14.8191365 L3.95719772,14.8191365 L4.19060382,11.8063011 L15.22371,11.8063011 L15.3497493,11.68028 L15.3497493,11.5355893 C15.3497493,11.5262544 15.3497493,11.5145858 15.3497493,11.5029172 C15.3520834,11.495916 15.3520834,11.4842474 15.3520834,11.4749125 Z" id="path-1"></path>
    </defs>
    <g id="Yanbal-UI-Visual-Kit" stroke="none" stroke-width="1" fill="none" fill-rule="evenodd">
        <g id="yanbal-styleguide-pag2" transform="translate(-1321.000000, -4541.000000)">
            <g id="Group" transform="translate(1320.000000, 4538.000000)">
                <g id="Group" transform="translate(1.000000, 3.000000)">
                    <mask id="mask-2" fill="white">
                        <use xlink:href="#path-1"></use>
                    </mask>
                    <use id="Mask" fill="#000000" fill-rule="nonzero" xlink:href="#path-1"></use>
                    <g mask="url(#mask-2)" id="colors/brand-secondary">
                        <g transform="translate(-1.000000, -3.000000)">
                            <rect id="box" fill="#1C1F28" fill-rule="nonzero" x="0" y="0" width="24" height="24"></rect>
                        </g>
                    </g>
                </g>
            </g>
        </g>
    </g>
</svg>