<?xml version="1.0" encoding="UTF-8"?>
<svg width="20px" height="18px" viewBox="0 0 20 18" version="1.1" xmlns="http://www.w3.org/2000/svg" xmlns:xlink="http://www.w3.org/1999/xlink">
    <title>3. icons/outline/icon-wishlist</title>
    <defs>
        <path d="M19.78125,7.86606038 C19.78125,7.8300606 19.78125,7.80606074 19.78125,7.78206088 C19.8816666,7.43989822 19.9547947,7.09089121 20,6.7380671 L20,6.68406742 C20,6.63006775 20,6.58206803 20,6.53406832 L20,6.44406885 C20,6.37206928 20,6.30006971 20,6.22807014 C20,5.97607164 20,5.71807318 19.9625,5.46607468 C19.74375,3.06608898 18.4625,1.14010046 16.54375,0.336105248 C16.4125,0.282105569 16.26875,0.234105855 16.11875,0.186106141 C15.7000161,0.0606622894 15.2636433,-0.00207384461 14.825,5.22787202e-05 C13.31875,5.22787202e-05 11.65,0.732102888 10.11875,2.07009492 L10,2.17209431 L9.8875,2.07009492 C8.35625,0.732102888 6.68125,5.22787202e-05 5.175,5.22787202e-05 C4.73635674,-0.00207384461 4.29998385,0.0606622894 3.88125,0.186106141 C3.73125,0.234105855 3.5875,0.282105569 3.45625,0.336105248 C1.5375,1.14010046 0.25625,3.05408905 0.0375,5.46607468 C0,5.71807318 0,6.0000715 0,6.22807014 C0,6.30006971 0,6.37206928 0,6.44406885 L0,6.72606717 C0.0355407677,7.08833817 0.100318647,7.44741444 0.19375,7.80006077 L0.19375,7.86606038 C0.433078926,8.76083472 0.792327583,9.62201795 1.2625,10.4280451 C2.07368625,11.8001353 3.06513507,13.0664936 4.2125,14.1960227 C6.3625,16.32001 8.89375,18 10,18 L10,18 C11.10625,18 13.6375,16.32001 15.775,14.1780228 C16.9295933,13.0486336 17.929335,11.7824136 18.75,10.4100452 C19.207796,9.60883039 19.5544853,8.75358449 19.78125,7.86606038 L19.78125,7.86606038 Z M18.6231992,6.54695324 C18.6231992,6.59494067 18.6231992,6.6429281 18.6231992,6.69091553 C18.5974721,6.95728896 18.5539135,7.22177331 18.4927969,7.48270808 C18.4893228,7.50256203 18.4893228,7.52283842 18.4927969,7.54269236 C17.8718332,9.94206374 15.9095882,12.185476 14.7670152,13.319179 C13.8625796,14.2249822 12.8753854,15.0501118 11.817438,15.784533 C11.2805474,16.22112 10.6509714,16.5385111 9.97317603,16.7142894 C9.30247959,16.53484 8.67976456,16.2177044 8.14754299,15.784533 C7.09085163,15.0485758 6.10379432,14.2235607 5.19796581,13.319179 C4.05539276,12.185476 2.06209954,9.93606531 1.47218411,7.55468922 C1.47016685,7.53073507 1.47016685,7.50666223 1.47218411,7.48270808 C1.40607183,7.22247675 1.36040456,6.95779282 1.33557211,6.69091553 C1.33557211,6.6429281 1.33557211,6.6009391 1.33557211,6.55295167 L1.33557211,6.43898153 C1.33258707,6.38303333 1.33258707,6.32697374 1.33557211,6.27102554 L1.33557211,6.22903654 C1.33557211,4.01561644 2.34774281,2.21608791 3.98087712,1.52626864 C4.13149319,1.46376244 4.28728273,1.41359888 4.44659983,1.37630793 C5.9679607,1.00440537 7.84948046,1.79019949 9.55092077,3.51174845 C9.667962,3.62904885 9.82936096,3.69531592 9.99801457,3.69531592 C10.1666682,3.69531592 10.3280671,3.62904885 10.4451084,3.51174845 C12.1279198,1.80219635 13.9970203,1.00440537 15.5245908,1.37630793 C15.6849067,1.41289815 15.8409515,1.46515375 15.9903135,1.53226707 C17.6234478,2.21608791 18.6666667,4.01561644 18.6666667,6.22903654 L18.6666667,6.43898153 C18.6294088,6.48097053 18.6294088,6.5169611 18.6231992,6.54695324 Z" id="path-1"></path>
    </defs>
    <g id="Yanbal-UI-Visual-Kit" stroke="none" stroke-width="1" fill="none" fill-rule="evenodd">
        <g id="yanbal-styleguide-pag2" transform="translate(-794.000000, -4541.000000)">
            <g id="Group" transform="translate(792.000000, 4538.000000)">
                <g id="elements" transform="translate(2.000000, 3.000000)">
                    <mask id="mask-2" fill="white">
                        <use xlink:href="#path-1"></use>
                    </mask>
                    <use id="icon" fill="#000000" fill-rule="nonzero" xlink:href="#path-1"></use>
                    <g id="Group" mask="url(#mask-2)">
                        <g transform="translate(-2.000000, -3.000000)" id="color">
                            <rect id="box" fill="#1C1F28" fill-rule="nonzero" x="0" y="0" width="24" height="24"></rect>
                        </g>
                    </g>
                </g>
            </g>
        </g>
    </g>
</svg>