<?xml version="1.0" encoding="UTF-8"?>
<svg width="20px" height="16px" viewBox="0 0 20 16" version="1.1" xmlns="http://www.w3.org/2000/svg" xmlns:xlink="http://www.w3.org/1999/xlink">
    <title>3. icons/outline/icon-graduate</title>
    <defs>
        <path d="M19.9991764,5.6054733 C19.9997329,5.59105946 20,5.57413075 20,5.55713219 C20,5.0466398 19.7261374,4.60304722 19.3237242,4.37834022 L19.3167569,4.37482408 L11.0112371,0.233788423 C10.7439857,0.0865762308 10.4272506,0 10.0911717,0 C9.81405915,0 9.55003535,0.0587963913 9.30996312,0.165118895 L9.32314093,0.159926184 L0.658904094,4.5778521 C0.488327043,4.71938258 -0.00575206924,5.00244354 5.06819795e-05,5.48236181 C0.0142372551,6.0220079 0.337917394,6.47896646 0.791572661,6.6668122 L0.800031395,6.6699092 L1.57645415,7.03293326 L1.57645415,7.08828336 L0.935304362,14.7673715 C0.900022536,15.2042345 1.05294755,15.4441936 1.38822505,15.4872722 C1.72350256,15.5303507 1.97632967,15.1611327 2.02937484,14.7919845 L2.61747946,7.56827149 L3.72330313,8.13437013 L3.72330313,8.18972024 C3.72330313,8.18972024 3.72330313,8.18972024 3.72330313,8.23279878 L3.72330313,11.9739026 C3.72330313,13.1491085 4.49384929,14.2136143 5.89376978,14.9704694 C7.09989623,15.6195582 8.52568265,16 10.0366352,16 C10.1021681,16 10.1675452,15.9992083 10.2327887,15.9978344 L10.2229499,15.9980207 C10.2809813,15.9992316 10.349408,16 10.4179015,16 C12.0248384,16 13.5460304,15.6157161 14.9019432,14.9300454 L14.8403503,14.9581279 C15.9681666,14.4652628 16.7463034,13.320794 16.7463034,11.9861974 C16.7463034,11.9775118 16.7462589,11.9689893 16.7461921,11.9602338 L16.7461921,11.9615378 L16.7461921,7.99891721 L16.7873728,7.99891721 L19.4107601,6.71291789 C19.7652256,6.49624445 19.9996438,6.10013142 19.9996438,5.64673556 C19.9996438,5.63215872 19.9994435,5.61765172 19.998887,5.60323788 L19.9989538,5.60535688 L19.9991764,5.6054733 Z M15.6641864,12.2569868 C15.6641864,13.715277 12.7878384,14.8105199 10.2232393,14.8105199 C7.65864014,14.8105199 4.77654908,13.7152304 4.77654908,12.2569868 L4.77654908,8.66977822 L9.18804605,10.9341029 C9.47014483,11.0783113 9.80141557,11.1643054 10.1514959,11.1678913 L10.1526534,11.1678913 C10.1602217,11.1680311 10.1691034,11.1681009 10.1780964,11.1681009 C10.4319252,11.1681009 10.6720419,11.1067198 10.8856917,10.9973935 L10.8761868,11.0017712 L15.6641864,8.54056587 L15.6641864,12.2569868 Z M10.223217,9.93114128 C10.1584854,9.93114128 4.22942481,6.99609528 4.22942481,6.99609528 L10.2643977,5.96852064 C10.7879266,5.87630927 11.0173141,5.6608467 10.9761334,5.31631149 C10.9173229,4.87327777 10.6408782,4.70110331 10.1526534,4.79329139 L2.6001168,6.02394061 L1.42368496,5.43939969 C1.42368496,5.43939969 9.9879084,1.13219728 10.0231902,1.13219728 C10.058472,1.13219728 18.9050614,5.53782835 18.9050614,5.53782835 C18.9050614,5.53782835 10.2643754,9.93114128 10.2231948,9.93114128 L10.223217,9.93114128 Z" id="path-1"></path>
    </defs>
    <g id="Yanbal-UI-Visual-Kit" stroke="none" stroke-width="1" fill="none" fill-rule="evenodd">
        <g id="yanbal-styleguide-pag2" transform="translate(-266.000000, -4638.000000)">
            <g id="Group" transform="translate(264.000000, 4634.000000)">
                <g id="colors/brand-secondary" transform="translate(2.000000, 4.000000)">
                    <mask id="mask-2" fill="white">
                        <use xlink:href="#path-1"></use>
                    </mask>
                    <use id="Mask" fill="#000000" fill-rule="nonzero" xlink:href="#path-1"></use>
                    <g id="Group" mask="url(#mask-2)">
                        <g transform="translate(-4.000000, -5.000000)" id="colors/brand-secondary">
                            <rect id="box" fill="#1C1F28" fill-rule="nonzero" x="0" y="0" width="26.4058266" height="25.7456809"></rect>
                        </g>
                    </g>
                </g>
            </g>
        </g>
    </g>
</svg>