<?xml version="1.0" encoding="UTF-8"?>
<svg width="20px" height="20px" viewBox="0 0 20 20" version="1.1" xmlns="http://www.w3.org/2000/svg" xmlns:xlink="http://www.w3.org/1999/xlink">
    <title>3. icons/seal/icon-hipoalergenic</title>
    <defs>
        <path d="M10,0 C4.47715273,0 0,4.47715273 0,10 C0,15.5228473 4.47715273,20 10,20 C15.5228473,20 20,15.5228473 20,10 L20,10 C19.9952699,4.47904904 15.5209297,0.00473010692 10.0004474,0 L10,0 L10,0 Z M10,19.1811801 C4.92934669,19.1811801 0.81881986,15.0706107 0.81881986,10 C0.81881986,4.9293893 4.9293893,0.81881986 10,0.81881986 C15.0706533,0.81881986 19.1811801,4.9293893 19.1811801,10 L19.1811801,10 C19.174085,15.0677982 15.0677343,19.1741276 10.0006392,19.1811801 L9.99995739,19.1811801 L10,19.1811801 Z M12.7597617,4.24774255 C12.7574819,4.24774255 12.7547759,4.24774255 12.7520273,4.24774255 C11.8810911,4.24774255 11.0929104,4.60207443 10.5238274,5.17445998 L10.5236782,5.17460913 L10.5028828,5.19955938 L6.39231336,9.31841716 C6.32053079,9.38736593 6.27591438,9.48412005 6.27591438,9.59135711 C6.27591438,9.59184717 6.27591438,9.59233723 6.27591438,9.59282728 L6.27591438,9.59274206 L6.27591438,13.333383 L4.6591127,14.9626279 C4.58931166,15.0349218 4.54544099,15.1326134 4.54271372,15.2405749 L4.54271372,15.2411076 C4.54271372,15.2417255 4.54271372,15.2424073 4.54271372,15.2431318 C4.54271372,15.3514342 4.58726621,15.4493389 4.65902747,15.5195021 L4.6591127,15.5195873 C4.730043,15.5916043 4.82856558,15.636242 4.93759242,15.636242 C5.04661925,15.636242 5.14514184,15.5916043 5.21600822,15.5196513 L6.83287382,13.9027856 L10.5735148,13.9027856 C10.5739196,13.9027856 10.5744097,13.9027856 10.5748998,13.9027856 C10.6820942,13.9027856 10.7788909,13.8581905 10.8477119,13.7865358 L10.8478397,13.7863867 L15.0040909,9.63013547 C15.5752194,9.05734509 15.9283154,8.26692718 15.9283154,7.394052 C15.9283154,5.64727891 14.5142265,4.23082496 12.7683483,4.22696843 L12.7679861,4.22696843 L12.7597617,4.24774255 Z M11.8204307,11.7289819 L10.419765,13.1462455 L7.61427896,13.1462455 L9.03154257,11.7289819 L11.8204307,11.7289819 Z M13.482978,7.29011749 C13.5552506,7.21541589 13.5997818,7.11356944 13.5997818,7.00124006 C13.5997818,6.88891067 13.5552506,6.78706422 13.4828715,6.71225609 L13.4829993,6.71238393 C13.4082977,6.63827892 13.3055777,6.59234149 13.1921404,6.59185143 L13.1920338,6.59185143 C13.0800027,6.59349205 12.9789872,6.63923773 12.9052231,6.71242654 L8.56609579,11.0556874 L7.06569309,12.5643998 L7.06569309,9.75891369 L8.47880188,8.34165008 L8.47880188,8.85286385 C8.50000213,9.05280674 8.66775047,9.20725965 8.87157121,9.20725965 C9.07539194,9.20725965 9.24311897,9.05280674 9.26417008,8.8545897 L9.26434053,8.85288515 L9.26434053,7.57690685 L11.1014118,5.73568077 C11.5316598,5.3054328 12.1260765,5.03931102 12.7826026,5.03931102 C14.0957186,5.03931102 15.1602057,6.10379815 15.1602057,7.41691418 C15.1602057,8.07346154 14.8941053,8.66785701 14.463836,9.09810497 L14.463836,9.09810497 L14.4264426,9.13134356 L12.5976597,10.96426 C12.5592861,10.9422714 12.514478,10.9262487 12.4668573,10.9188339 L12.464684,10.9185782 L9.7921949,10.9185782 L13.482978,7.29011749 Z" id="path-1"></path>
    </defs>
    <g id="Yanbal-UI-Visual-Kit" stroke="none" stroke-width="1" fill="none" fill-rule="evenodd">
        <g id="yanbal-styleguide-pag2" transform="translate(-1082.000000, -4684.000000)">
            <g id="Group" transform="translate(1080.000000, 4682.000000)">
                <g id="colors/brand-secondary" transform="translate(2.000000, 2.000000)">
                    <mask id="mask-2" fill="white">
                        <use xlink:href="#path-1"></use>
                    </mask>
                    <use id="Mask" fill="#000000" fill-rule="nonzero" xlink:href="#path-1"></use>
                    <g id="Group" mask="url(#mask-2)">
                        <g transform="translate(-4.000000, -3.000000)" id="colors/brand-secondary">
                            <rect id="box" fill="#1C1F28" fill-rule="nonzero" x="0" y="0" width="26.4058266" height="25.7456809"></rect>
                        </g>
                    </g>
                </g>
            </g>
        </g>
    </g>
</svg>