<?xml version="1.0" encoding="UTF-8"?>
<svg width="16px" height="20px" viewBox="0 0 16 20" version="1.1" xmlns="http://www.w3.org/2000/svg" xmlns:xlink="http://www.w3.org/1999/xlink">
    <title>3. icons/outline/icon-shower</title>
    <defs>
        <path d="M8.72654319,13.2376113 L8.72654319,13.2376113 C8.72680346,13.23058 8.72686853,13.2223211 8.72686853,13.2141067 C8.72686853,12.80165 8.40199158,12.4672962 8.00122542,12.4672962 C7.60045926,12.4672962 7.27558231,12.80165 7.27558231,13.2141067 C7.27558231,13.6264296 7.60022068,13.9606941 8.00090009,13.9609173 L8.00092178,13.9609173 C8.00432692,13.9609842 8.00842611,13.9610289 8.01243854,13.9610289 C8.40606908,13.9610289 8.72591422,13.6358939 8.73231242,13.2323657 L8.73231242,13.2317407 L8.72654319,13.2376113 Z M8.72654319,19.2651761 L8.72654319,19.2651761 C8.72654319,19.2651538 8.72654319,19.2651091 8.72654319,19.2650645 C8.72654319,18.8591256 8.4068065,18.5299728 8.01228672,18.5299728 C8.00829598,18.5299728 8.00424017,18.5300174 8.00027111,18.5300844 L8.0008784,18.5300844 C7.61384127,18.5399281 7.30379948,18.8651971 7.30379948,19.2649083 C7.30379948,19.6708471 7.62353617,20 8.01805595,20 C8.41246728,20 8.73218229,19.670981 8.73231242,19.2651761 L8.73231242,19.2651538 L8.72654319,19.2651761 Z M8.72654319,16.2543178 L8.72654319,16.2543178 C8.72656488,16.2525098 8.72656488,16.2503446 8.72656488,16.2482464 C8.72656488,15.8454995 8.4093224,15.5190921 8.01807764,15.5190921 C8.01204814,15.5190921 8.00604034,15.5191814 8.00003253,15.51936 L8.00094346,15.5193377 C7.61963218,15.5324181 7.31529455,15.8537138 7.31529455,16.2481571 C7.31529455,16.650904 7.63253704,16.9773113 8.0237818,16.9773113 C8.41292275,16.9773113 8.72882052,16.6544308 8.73224736,16.2546973 L8.73224736,16.2543848 L8.72654319,16.2543178 Z M15.5489375,19.4062927 C15.8147557,19.3009798 16,19.040287 16,18.7350404 C16,18.6378526 15.9812175,18.545196 15.9472094,18.4606645 L15.9488794,18.4653743 C15.8387219,18.1965341 15.5848108,18.0113103 15.2889101,18.0113103 C15.1866473,18.0113103 15.0894163,18.0334532 15.0015114,18.0732302 L15.0060661,18.0713998 C14.7383826,18.1737216 14.5510779,18.4343698 14.5510779,18.7400404 C14.5510779,18.8404649 14.5713352,18.9360679 14.6078375,19.0227869 L14.6061241,19.018144 C14.7186457,19.2898191 14.9758752,19.4768286 15.2756582,19.4768286 C15.2773066,19.4768286 15.2789983,19.4768286 15.2807117,19.4768063 L15.2804081,19.4768063 C15.3798297,19.4740831 15.473764,19.4527437 15.5598903,19.4160248 L15.5547284,19.4180114 L15.5489375,19.4062927 Z M14.4747549,16.6953014 C14.7774875,16.6125779 14.9970219,16.3331127 14.9970219,16.0007902 C14.9970219,15.9254774 14.9857654,15.8528433 14.9648139,15.7846064 L14.9661803,15.7896957 C14.8688843,15.4798956 14.5911371,15.2597163 14.2633322,15.2597163 C14.190089,15.2597163 14.1192099,15.2706761 14.0524083,15.2912566 L14.057592,15.2898726 C13.7575704,15.3792926 13.5419184,15.6595167 13.5419184,15.9914821 C13.5419184,16.0663038 13.5528713,16.1385362 13.5731937,16.2064828 L13.571849,16.2012819 C13.6688848,16.5040954 13.9413399,16.718806 14.2624646,16.718806 C14.2647203,16.718806 14.2670193,16.7187837 14.2693183,16.7187613 L14.2690147,16.7187613 C14.3426482,16.717556 14.4132887,16.706864 14.4806542,16.687913 L14.4747115,16.6893639 L14.4747549,16.6953014 Z M13.5318982,13.9314752 C13.8030302,13.8289526 13.9929593,13.5655365 13.9929593,13.2564283 C13.9929593,13.1606467 13.9747406,13.0692848 13.9416435,12.9857801 L13.9433135,12.9905569 C13.8294472,12.7221631 13.5737793,12.5380554 13.2763604,12.5380554 C13.1746615,12.5380554 13.0779293,12.5596179 12.9900245,12.5983904 L12.994731,12.5965377 C12.720389,12.697297 12.5275319,12.9624095 12.5275319,13.2737944 C12.5275319,13.3642412 12.5437769,13.4508486 12.5734689,13.5305141 L12.5718856,13.5256033 C12.6877473,13.7977024 12.9471674,13.9842879 13.248924,13.9842879 C13.2499217,13.9842879 13.2510062,13.9842879 13.2520038,13.9842879 L13.2518303,13.9842879 C13.3472829,13.9821004 13.4373349,13.9606941 13.5192102,13.9236627 L13.5146772,13.9254707 L13.5318982,13.9314752 Z M11.73782,19.7473429 C12.108417,19.7140169 12.3969652,19.396248 12.3969652,19.0090145 C12.3969652,18.9894386 12.3962061,18.9700635 12.394818,18.9509117 L12.3949915,18.9534563 C12.3507897,18.5871828 12.0502042,18.3065122 11.6859404,18.3065122 C11.6539276,18.3065122 11.6223921,18.3086997 11.5914855,18.3128961 L11.5951292,18.3125167 C11.2275687,18.342115 10.9401917,18.6563348 10.9401917,19.0396396 C10.9401917,19.0652201 10.941493,19.090555 10.9439872,19.1154211 L10.9436836,19.1122961 C10.9879505,19.4818063 11.2911169,19.7650885 11.6585257,19.7650885 C11.6603258,19.7650885 11.6621043,19.7650885 11.6639262,19.7650662 L11.6636225,19.7650662 L11.73782,19.7473429 Z M11.3606947,16.8540966 C11.6952232,16.7943643 11.9464232,16.4978008 11.9464232,16.1408799 C11.9464232,16.0893842 11.9412395,16.0392501 11.9312844,15.9907901 L11.9321085,15.9954777 C11.8619669,15.6521506 11.5701871,15.3981319 11.220715,15.3981319 C10.8196452,15.3981319 10.494573,15.7327536 10.494573,16.1454558 C10.494573,16.1985364 10.4999519,16.2503223 10.5101456,16.3002555 L10.5092781,16.2953894 C10.5827164,16.6340512 10.8722189,16.8834494 11.2183292,16.8834494 C11.2201294,16.8834494 11.2219513,16.8834494 11.2237731,16.8834271 L11.3663121,16.8834271 L11.3606947,16.8540966 Z M10.9149676,13.9726807 C11.2492792,13.9041537 11.497703,13.6045768 11.497703,13.2453345 C11.497703,13.1989504 11.4935821,13.1535931 11.4856657,13.1095751 L11.4863598,13.1141734 C11.4131817,12.7751767 11.1235057,12.525533 10.7771785,12.525533 C10.3764123,12.525533 10.0515354,12.8598868 10.0515354,13.2723435 C10.0515354,13.3203571 10.0559599,13.3673439 10.0643535,13.4128574 L10.063616,13.4081699 C10.1393317,13.7472335 10.4300922,13.9962076 10.7772869,13.9962076 C10.7775255,13.9962076 10.7776556,13.9962076 10.7778942,13.9962076 L10.7778508,13.9962076 C10.8000168,13.9976138 10.8260217,13.9983951 10.8521568,13.9983951 C10.8782918,13.9983951 10.9042316,13.9975915 10.9300196,13.9960736 L10.9264844,13.9962522 L10.9149676,13.9726807 Z M1.40135853,18.9887913 L1.40135853,18.9887913 C1.43710172,18.906849 1.45796637,18.8112014 1.45796637,18.7105091 C1.45796637,18.4074947 1.2692302,18.1498152 1.00612303,18.0552167 L1.00141655,18.0536988 C0.921016067,18.0200157 0.827797486,18.0004174 0.730111006,18.0004174 C0.428224214,18.0004174 0.168695702,18.1871591 0.0547642899,18.4545261 L0.0529207395,18.4593922 C0.0194548784,18.5400398 0,18.633924 0,18.7323841 C0,19.0372512 0.186263652,19.2973414 0.448112869,19.3986364 L0.452862722,19.4002212 C0.533827116,19.4349535 0.627674673,19.4563375 0.726098573,19.4589937 L0.727096259,19.459016 C0.728527722,19.459016 0.730197761,19.4590384 0.731846112,19.4590384 C1.03154233,19.4590384 1.28885858,19.2720288 1.39955836,19.0051976 L1.40133685,19.0003315 L1.40135853,18.9887913 Z M2.42990781,16.1895855 L2.42990781,16.1895855 C2.44843007,16.1280228 2.45916604,16.0573082 2.45916604,15.9839151 C2.45916604,15.6522846 2.2404559,15.3731095 1.94336234,15.291011 L1.93848235,15.2898949 C1.8768427,15.2705868 1.80596361,15.2594931 1.73259031,15.2594931 C1.40795194,15.2594931 1.13265565,15.4772616 1.03711636,15.7785573 L1.03561983,15.7838698 C1.01668549,15.8462138 1.00579769,15.9179328 1.00579769,15.992308 C1.00579769,16.323202 1.22168829,16.6021092 1.51633101,16.6882478 L1.52129775,16.6894978 C1.58441224,16.7070425 1.65704812,16.7177122 1.73200471,16.7188953 L1.73274213,16.7188953 C1.73345786,16.7188953 1.73426035,16.7188953 1.73508453,16.7188953 C2.05725037,16.7188953 2.33083324,16.5044526 2.42830284,16.206706 L2.42982105,16.2013935 L2.42990781,16.1895855 Z M3.42978445,13.5257596 L3.42978445,13.5257596 C3.46251289,13.4466522 3.48159906,13.3545536 3.48159906,13.2579239 C3.48159906,12.9534585 3.29266769,12.6944621 3.02886647,12.5982118 L3.02411662,12.5966716 C2.94371614,12.5629885 2.85049756,12.5433902 2.75281108,12.5433902 C2.45092428,12.5433902 2.19139577,12.7301319 2.07746436,12.9974989 L2.07562081,13.002365 C2.04425876,13.0810929 2.02599677,13.1724771 2.02599677,13.2682364 C2.02599677,13.5772999 2.21588246,13.8407606 2.48219957,13.9416761 L2.48703618,13.943261 C2.5662004,13.9785289 2.65816103,13.9998683 2.75478476,14.0020558 L2.75560893,14.0020781 C3.05946941,13.996096 3.31808699,13.8032159 3.42804935,13.5308266 L3.42984952,13.5257596 L3.42978445,13.5257596 Z M5.07535919,19.0887246 L5.07535919,19.0887246 C5.07754976,19.0671621 5.07885109,19.042162 5.07885109,19.0168494 C5.07885109,18.6359106 4.79036799,18.3243247 4.42595231,18.3008648 L4.42391356,18.3007532 C4.40166082,18.2981863 4.37578605,18.296713 4.34960764,18.296713 C3.95771221,18.296713 3.64001426,18.6236784 3.64001426,19.0270057 C3.64001426,19.4034132 3.91665526,19.7132803 4.27213514,19.7529456 L4.27530171,19.7532581 L4.35526842,19.7532581 C4.35678664,19.7532804 4.3586085,19.7532804 4.36043036,19.7532804 C4.7278391,19.7532804 5.03100553,19.4700205 5.07490372,19.1041488 L5.07522905,19.1005773 L5.07535919,19.0887246 Z M5.50963458,16.2778 L5.50963458,16.2778 C5.51865714,16.2346302 5.52388414,16.1849872 5.52388414,16.1342058 C5.52388414,15.7796287 5.27190334,15.4856992 4.94221147,15.4315472 L4.93826411,15.4310115 C4.89469125,15.4214132 4.84456837,15.4159445 4.79331767,15.4159445 C4.44200204,15.4159445 4.14892091,15.6729766 4.08198919,16.0142947 L4.0811867,16.0190492 C4.0734221,16.0596073 4.06893252,16.106237 4.06893252,16.1539603 C4.06893252,16.511216 4.3186143,16.8085384 4.64817604,16.8710833 L4.65255718,16.8717752 L4.78967395,16.8717752 C4.79255856,16.8718199 4.79602878,16.8718422 4.79943392,16.8718422 C5.14448148,16.8718422 5.43279107,16.6220869 5.5029978,16.2886036 L5.50390873,16.2837376 L5.50963458,16.2778 Z M5.96679169,13.3904466 L5.96679169,13.3904466 C5.97451292,13.350134 5.97893744,13.3038838 5.97893744,13.2564283 C5.97893744,12.9003334 5.72890863,12.6042833 5.39962885,12.5442384 L5.39539953,12.5435911 C5.35284605,12.5345955 5.30398112,12.5295062 5.25385824,12.5295062 C4.9006123,12.5295062 4.60540567,12.7852883 4.53346383,13.1266957 L4.5325529,13.1316958 C4.52533052,13.1711602 4.52120964,13.2164951 4.52120964,13.2628792 C4.52120964,13.6221438 4.76965516,13.9216984 5.09939041,13.9894442 L5.10394506,13.9902477 L5.24680937,13.9902477 C5.24728652,13.9902477 5.2479155,13.9902477 5.24852279,13.9902477 C5.59680198,13.9902477 5.88875529,13.7415862 5.96575063,13.4073886 L5.96672663,13.4022101 L5.96679169,13.3904466 Z M13.9204318,10.1679358 L9.92070836,3.81697707 L9.92070836,0.523863361 C9.91945041,0.447836321 9.9070444,0.375179828 9.88500855,0.307076921 L9.8864617,0.312188545 C9.81608145,0.128951325 9.64584584,0.00149554072 9.44659058,0.000535716079 L6.55523128,0.000535716079 C6.5485945,0.000223215033 6.5408299,0 6.53300023,0 C6.33153271,0 6.15904146,0.127812928 6.08785873,0.308907284 L6.08673091,0.312233188 C6.06003196,0.386295936 6.04454614,0.471787294 6.04454614,0.561006343 C6.04454614,0.581095696 6.04534863,0.600939512 6.04684516,0.620649399 L6.04667165,0.618060105 L6.04667165,3.82293691 L2.08692069,10.1327348 L2.08692069,10.1680474 C2.04319601,10.2458602 2.01608498,10.3385837 2.01263645,10.4375349 L2.01263645,10.4385171 C2.01263645,10.7632503 2.26847786,11.0265548 2.58400693,11.0265548 L2.58400693,11.0265548 L13.4403279,11.0265548 C13.755857,11.0265548 14.0116984,10.7632503 14.0116984,10.4385171 L14.0116984,10.4385171 C14.0026975,10.3368873 13.9698173,10.2446772 13.9189787,10.165793 L13.9203234,10.1679805 L13.9204318,10.1679358 Z M3.24694764,9.99739954 L3.30407601,9.90333673 L7.03522672,4.02280365 L6.85811576,3.89936573 L7.05813012,3.89936573 L7.05813012,1.1766334 L8.92087509,1.1766334 L8.92087509,3.91110685 L9.04081431,3.91110685 L8.9379442,3.98758032 L12.7319708,9.99748883 L3.24694764,9.99739954 Z" id="path-1"></path>
    </defs>
    <g id="Yanbal-UI-Visual-Kit" stroke="none" stroke-width="1" fill="none" fill-rule="evenodd">
        <g id="yanbal-styleguide-pag2" transform="translate(-316.000000, -4684.000000)">
            <g id="Group" transform="translate(312.000000, 4682.000000)">
                <g id="colors/brand-secondary" transform="translate(4.000000, 2.000000)">
                    <mask id="mask-2" fill="white">
                        <use xlink:href="#path-1"></use>
                    </mask>
                    <use id="Mask" fill="#000000" fill-rule="nonzero" xlink:href="#path-1"></use>
                    <g id="Group" mask="url(#mask-2)">
                        <g transform="translate(-6.000000, -3.000000)" id="colors/brand-secondary">
                            <rect id="box" fill="#1C1F28" fill-rule="nonzero" x="0" y="0" width="26.4058266" height="25.7456809"></rect>
                        </g>
                    </g>
                </g>
            </g>
        </g>
    </g>
</svg>