<?xml version="1.0" encoding="UTF-8"?>
<svg width="20px" height="20px" viewBox="0 0 20 20" version="1.1" xmlns="http://www.w3.org/2000/svg" xmlns:xlink="http://www.w3.org/1999/xlink">
    <title>3. icons/outline/icon-cancel</title>
    <defs>
        <path d="M9.856,0.007326 C4.412716,0.007326 0,4.420042 0,9.863326 C0,15.30661 4.412716,19.719326 9.856,19.719326 C15.299284,19.719326 19.712,15.30661 19.712,9.863326 L19.712,9.863326 C19.712,4.420042 15.299284,0.007326 9.856,0.007326 L9.856,0.007326 Z M9.856,18.579726 C5.042092,18.579726 1.1396,14.677256 1.1396,9.863326 C1.1396,5.049396 5.04207,1.146926 9.856,1.146926 C14.669908,1.146926 18.5724,5.049396 18.5724,9.863326 L18.5724,9.863326 C18.568924,14.675826 14.6685,18.57625 9.856308,18.579726 L9.856,18.579726 L9.856,18.579726 Z M12.936,11.994686 L10.77384,9.863326 L12.936,7.731966 C13.053414,7.614552 13.126058,7.45228 13.126058,7.273046 C13.126058,6.914622 12.835526,6.624068 12.47708,6.624068 C12.297846,6.624068 12.135574,6.69669 12.01816,6.814126 L12.01816,6.814126 L9.856,8.945486 L7.72464,6.814126 C7.607226,6.696712 7.444954,6.624068 7.26572,6.624068 C6.907296,6.624068 6.616742,6.9146 6.616742,7.273046 C6.616742,7.45228 6.689364,7.614552 6.8068,7.731966 L8.93816,9.863326 L6.8068,11.994686 C6.682698,12.11485 6.605676,12.28293 6.605676,12.469006 C6.605676,12.83348 6.901136,13.12905 7.26572,13.12905 C7.444118,13.12905 7.60606,13.058254 7.724838,12.943238 L7.72464,12.943436 L9.856,10.781276 L11.98736,12.943436 C12.108756,13.064832 12.276484,13.139896 12.46168,13.139896 C12.832182,13.139896 13.13246,12.839596 13.13246,12.469116 C13.13246,12.28392 13.057396,12.116192 12.936,11.994796 L12.936,11.994796 L12.936,11.994686 Z" id="path-1"></path>
    </defs>
    <g id="Yanbal-UI-Visual-Kit" stroke="none" stroke-width="1" fill="none" fill-rule="evenodd">
        <g id="yanbal-styleguide-pag2" transform="translate(-986.000000, -4588.000000)">
            <g id="Group" transform="translate(984.000000, 4586.000000)">
                <g id="colors/brand-secondary" transform="translate(2.000000, 2.000000)">
                    <mask id="mask-2" fill="white">
                        <use xlink:href="#path-1"></use>
                    </mask>
                    <use id="Mask" fill="#000000" fill-rule="nonzero" xlink:href="#path-1"></use>
                    <g id="Group" mask="url(#mask-2)">
                        <g transform="translate(-4.000000, -3.000000)" id="colors/brand-secondary">
                            <rect id="box" fill="#1C1F28" fill-rule="nonzero" x="0" y="0" width="26.4058266" height="25.7456809"></rect>
                        </g>
                    </g>
                </g>
            </g>
        </g>
    </g>
</svg>