<?xml version="1.0" encoding="UTF-8"?>
<svg width="20px" height="20px" viewBox="0 0 20 20" version="1.1" xmlns="http://www.w3.org/2000/svg" xmlns:xlink="http://www.w3.org/1999/xlink">
    <title>3. icons/outline/icon-briefcase</title>
    <defs>
        <path d="M19.9994787,5.28353871 C19.9994787,4.93742125 19.7196583,4.65683635 19.3745422,4.65683635 L19.3745422,4.65683635 L13.9183972,4.65683635 L13.9183972,3.92973092 C13.9183972,1.75941949 12.1638832,0 9.99973934,0 C7.83559544,0 6.08108143,1.75947177 6.08108143,3.92973092 L6.08108143,3.92973092 L6.08108143,4.66310991 L0.624936464,4.66310991 C0.279794286,4.66310991 0,4.94372095 0,5.28981226 L0,5.28981226 L0,19.3732454 C0,19.7193628 0.279820352,20 0.624936464,20 L0.624936464,20 L19.3747768,20 C19.3769664,20 19.3795991,20 19.3822317,20 C19.5293231,20 19.6630165,19.9428061 19.7626154,19.8491993 L19.7623026,19.849513 L19.8060937,19.849513 L19.8060937,19.8055981 C19.9250337,19.7038358 20,19.5533749 20,19.3852958 C20,19.3810612 20,19.3768527 19.9997915,19.3724873 L20,19.3731408 L19.9994787,5.28353871 Z M7.33702778,3.92970478 C7.33702778,2.45502643 8.52900774,1.25970441 9.99953081,1.25970441 C11.4700539,1.25970441 12.6620078,2.45502643 12.6620078,3.92970478 L12.6620078,4.66308377 L7.33702778,4.66308377 L7.33702778,3.92970478 Z M1.24940374,18.7464123 L1.24940374,5.89785078 L18.4994226,5.89785078 C18.5443086,5.90130124 18.5966234,5.90320945 18.6493553,5.90320945 C18.7020871,5.90320945 18.7544019,5.90122282 18.8062215,5.89730185 L18.7993139,5.89764166 L18.7993139,13.3560924 L1.24940374,13.3560924 L1.24940374,14.684806 L18.7492669,14.684806 L18.7492669,18.7462816 L1.24940374,18.7462816 L1.24940374,18.7464123 Z" id="path-1"></path>
    </defs>
    <g id="Yanbal-UI-Visual-Kit" stroke="none" stroke-width="1" fill="none" fill-rule="evenodd">
        <g id="yanbal-styleguide-pag2" transform="translate(-890.000000, -4588.000000)">
            <g id="Group" transform="translate(888.000000, 4586.000000)">
                <g id="colors/brand-secondary" transform="translate(2.000000, 2.000000)">
                    <mask id="mask-2" fill="white">
                        <use xlink:href="#path-1"></use>
                    </mask>
                    <use id="Mask" fill="#000000" fill-rule="nonzero" xlink:href="#path-1"></use>
                    <g id="Group" mask="url(#mask-2)">
                        <g transform="translate(-4.000000, -3.000000)" id="colors/brand-secondary">
                            <rect id="box" fill="#1C1F28" fill-rule="nonzero" x="0" y="0" width="26.4058266" height="25.7456809"></rect>
                        </g>
                    </g>
                </g>
            </g>
        </g>
    </g>
</svg>