<?xml version="1.0" encoding="UTF-8"?>
<svg width="14px" height="20px" viewBox="0 0 14 20" version="1.1" xmlns="http://www.w3.org/2000/svg" xmlns:xlink="http://www.w3.org/1999/xlink">
    <title>3. icons/outline/icon-pointer</title>
    <defs>
        <path d="M6.99879444,5.1982 C5.89579444,5.1982 4.99879444,6.1072 4.99879444,7.2242 C4.99879444,8.3422 5.89579444,9.2502 6.99879444,9.2502 C7.00779444,9.2502 7.11479444,9.2472 7.12379444,9.2472 L7.12579444,9.2472 C8.15479444,9.2252 8.99979444,8.3512 8.99979444,7.2982 C8.99779444,6.1062 8.09979444,5.1982 6.99879444,5.1982 L6.99879444,5.1982 Z M6.99779444,0 C10.8527944,0 13.9927944,3.234 13.9967944,7.21 L13.9997944,7.414 C13.9997944,7.478 13.9587944,8.153 13.9527944,8.212 C13.4867944,12.553 9.03279444,18.085 7.67779444,19.678 C7.50379444,19.883 7.25579444,20 6.99779444,20 C6.74179444,20 6.49479444,19.883 6.32179444,19.679 C4.80479444,17.896 -0.134205556,11.732 0.00279444396,7.3 C-0.00220555604,3.238 3.13879444,0 6.99779444,0 Z M6.99779444,1 C3.68979444,1 0.997794444,3.79 0.997794444,7.219 C0.997794444,7.224 1.00279444,7.326 1.00279444,7.331 C0.875794444,11.407 5.79279444,17.5 6.99879444,18.932 C8.09379444,17.632 12.5237944,12.154 12.9587944,8.104 C12.9647944,8.036 12.9977944,7.49 12.9997944,7.409 L12.9977944,7.228 C12.9967944,7.222 12.9967944,7.217 12.9967944,7.212 C12.9937944,3.786 10.3017944,1 6.99779444,1 Z M6.99879444,4.1982 C8.64979444,4.1982 9.99679444,5.5532 9.99879444,7.2192 C9.99979444,8.8912 8.71579444,10.2142 7.13679444,10.2472 L6.99879444,10.2502 C5.34479444,10.2502 3.99879444,8.8922 3.99879444,7.2242 C3.99879444,5.5552 5.34479444,4.1982 6.99879444,4.1982 Z" id="path-1"></path>
    </defs>
    <g id="Yanbal-UI-Visual-Kit" stroke="none" stroke-width="1" fill="none" fill-rule="evenodd">
        <g id="yanbal-styleguide-pag2" transform="translate(-1181.000000, -4636.000000)">
            <g id="Group" transform="translate(1176.000000, 4634.000000)">
                <g id="colors/brand-secondary" transform="translate(5.000000, 2.000000)">
                    <mask id="mask-2" fill="white">
                        <use xlink:href="#path-1"></use>
                    </mask>
                    <use id="Mask" fill="#1C1F28" xlink:href="#path-1"></use>
                    <g id="Group" mask="url(#mask-2)">
                        <g transform="translate(-5.000000, -2.000000)" id="colors/brand-secondary">
                            <rect id="box" fill="#1C1F28" fill-rule="nonzero" x="0" y="0" width="24" height="24"></rect>
                        </g>
                    </g>
                </g>
            </g>
        </g>
    </g>
</svg>