<?xml version="1.0" encoding="UTF-8"?>
<svg width="20px" height="14px" viewBox="0 0 20 14" version="1.1" xmlns="http://www.w3.org/2000/svg" xmlns:xlink="http://www.w3.org/1999/xlink">
    <title>3. icons/outline/icon-laptop</title>
    <defs>
        <path d="M20,9.90064257 C20,9.53708816 19.7409244,9.24127945 19.4190875,9.23741185 L17.6201326,9.23741185 L17.6201326,0.663230718 C17.6201508,0.29967631 17.3610569,0.00386759952 17.03922,-4.54747351e-13 L2.96614558,-4.54747351e-13 C2.64430867,0.00386759952 2.38521484,0.29967631 2.38523306,0.663230718 L2.38523306,9.23741185 L0.586278136,9.23741185 C0.406660055,9.24989624 0.240535544,9.34927814 0.130466747,9.51009528 C0.0203979493,9.67091242 -0.0229197262,9.87753817 0.0116119808,10.0770337 C0.267713202,11.1777145 0.636249106,13.9999729 1.97921893,13.9999729 L18.2197842,13.9999729 C18.3657092,14.0015399 18.5057721,13.9351941 18.6070592,13.8165261 C19.6189714,12.8146243 19.8875653,11.3541056 20,9.90064257 Z M3.54705811,1.17592109 L16.4583075,1.17592109 L16.4583075,9.23741185 L3.54705811,9.23741185 L3.54705811,1.17592109 Z M1.97921893,12.6664558 C1.77308868,12.6664558 1.49824834,11.466996 1.31710357,10.549762 L18.7007548,10.549762 C18.7007548,10.6414854 18.7007548,10.7402644 18.7007548,10.8531548 C18.612879,11.5195865 18.3545191,12.1424902 17.9574366,12.6452888 L1.97921893,12.6664558 Z" id="path-1"></path>
    </defs>
    <g id="Yanbal-UI-Visual-Kit" stroke="none" stroke-width="1" fill="none" fill-rule="evenodd">
        <g id="yanbal-styleguide-pag2" transform="translate(-1226.000000, -4495.000000)">
            <g id="Group" transform="translate(1224.000000, 4490.000000)">
                <g id="elements" transform="translate(2.000000, 5.000000)">
                    <mask id="mask-2" fill="white">
                        <use xlink:href="#path-1"></use>
                    </mask>
                    <use id="icon" fill="#000000" fill-rule="nonzero" xlink:href="#path-1"></use>
                    <g id="Group" mask="url(#mask-2)">
                        <g transform="translate(-2.000000, -5.000000)" id="color">
                            <rect id="box" fill="#1C1F28" fill-rule="nonzero" x="0" y="0" width="24" height="24"></rect>
                        </g>
                    </g>
                </g>
            </g>
        </g>
    </g>
</svg>