<?xml version="1.0" encoding="UTF-8"?>
<svg width="20px" height="18px" viewBox="0 0 20 18" version="1.1" xmlns="http://www.w3.org/2000/svg" xmlns:xlink="http://www.w3.org/1999/xlink">
    <title>3. icons/outline/icon-group</title>
    <defs>
        <path d="M4.52941273,8.11927634 C5.8917609,8.06164576 7.20058877,8.66381369 8.05882428,9.74309448 C8.70246225,10.5737944 9.06004688,11.5970545 9.07647127,12.6551816 L9.07647127,12.6551816 L9.08823598,17.4487407 C9.08823598,17.7508681 8.84952565,17.996716 8.55294189,18 L8.55294189,18 L0.50588357,18 C0.220865161,17.9810258 -0.000606784651,17.7396881 -5.24025268e-14,17.4487407 L-5.24025268e-14,17.4487407 L-5.24025268e-14,12.6551816 C0.0370163755,11.5894572 0.405763508,10.5633293 1.05294236,9.72511863 C1.89643272,8.65886048 3.18623377,8.06307888 4.52941273,8.11927634 Z M15.4529415,8.11927634 C16.8149247,8.06356118 18.122948,8.66535895 18.982353,9.74309448 C19.625991,10.5737944 19.9835756,11.5970545 20,12.6551816 L20,12.6551816 L20,17.4487407 C20,17.7508681 19.7612897,17.996716 19.4647059,18 L19.4647059,18 L11.4529417,18 C11.1679233,17.9810258 10.9464514,17.7396881 10.9470581,17.4487407 L10.9470581,17.4487407 L10.9470581,12.6551816 C10.9823869,11.5901369 11.3490495,10.5640774 11.9941181,9.72511863 C12.8338473,8.66405452 14.1158767,8.06884138 15.4529415,8.11927634 Z M4.54705979,9.24576272 C2.61852563,9.27523301 1.07037242,10.8762456 1.07058942,12.840932 L1.07058942,12.840932 L1.07058942,16.8495458 L8.01176551,16.8555378 L8.01176551,12.840932 C8.01208886,10.8808326 6.47098444,9.28169785 4.54705979,9.24576272 Z M17.2470021,9.65305743 C16.150678,8.98771932 14.7846167,8.98771932 13.6882926,9.65305743 C12.5919684,10.3183955 11.9416355,11.5421065 11.9941181,12.840932 L11.9941181,12.840932 L11.9941181,16.8495458 L18.9411765,16.8555378 L18.9411765,12.840932 C18.9936592,11.5421065 18.3433262,10.3183955 17.2470021,9.65305743 Z M4.54117744,0.000185637298 C6.43289296,0.0100900919 7.95945659,1.57850092 7.9529627,3.50547572 C7.95289099,4.92594842 7.1112573,6.20595896 5.82176333,6.74670891 C4.53226936,7.28745887 3.04987916,6.98202894 2.06806586,5.97330151 C1.08625256,4.96457408 0.799144311,3.45199888 1.34105249,2.14316981 C1.88296066,0.834340735 3.14673696,-0.0119551541 4.54117744,0.000185637298 Z M15.4529415,0.000185637298 C17.3423554,0.013379381 18.8653498,1.58082571 18.8588445,3.50547572 C18.8587502,4.92648878 18.0164643,6.20686043 16.7262466,6.74723863 C15.4360289,7.28761683 13.9531898,6.98107059 12.9718581,5.97109661 C11.9905264,4.96112263 11.7048896,3.44757635 12.2486567,2.13896068 C12.7924237,0.830345018 14.0579929,-0.0143888537 15.4529415,0.000185637298 Z M5.3917634,1.32163579 C4.52210182,0.958049648 3.52297569,1.1655842 2.86251043,1.84700227 C2.20204517,2.52842034 2.01108287,3.54872896 2.37909603,4.42987798 C2.74710919,5.31102699 3.60119222,5.87845554 4.54117744,5.86630357 L4.54117744,5.86630357 C5.81460608,5.84987969 6.8327407,4.79673814 6.82942072,3.50547572 C6.82933689,2.54790018 6.26142498,1.68522192 5.3917634,1.32163579 Z M16.3108168,1.32215612 C15.4418793,0.958193769 14.4431992,1.16460811 13.7822483,1.84477875 C13.1212974,2.52494939 12.9288594,3.54428948 13.2950125,4.42565655 C13.6611656,5.30702363 14.5134584,5.87601967 15.4529415,5.86630357 C16.0645019,5.86313334 16.6497772,5.61262099 17.0800094,5.16987811 C17.5102416,4.72713524 17.7501871,4.12843031 17.7470892,3.50547572 C17.7470105,2.5484395 17.1797542,1.68611847 16.3108168,1.32215612 Z" id="path-1"></path>
    </defs>
    <g id="Yanbal-UI-Visual-Kit" stroke="none" stroke-width="1" fill="none" fill-rule="evenodd">
        <g id="yanbal-styleguide-pag2" transform="translate(-122.000000, -4589.000000)">
            <g id="Group" transform="translate(120.000000, 4586.000000)">
                <g id="Group-2" transform="translate(2.000000, 3.000000)">
                    <mask id="mask-2" fill="white">
                        <use xlink:href="#path-1"></use>
                    </mask>
                    <use id="Mask" fill="#000000" fill-rule="nonzero" xlink:href="#path-1"></use>
                    <g id="Group" mask="url(#mask-2)">
                        <g transform="translate(-2.000000, -3.000000)" id="colors/brand-secondary">
                            <rect id="box" fill="#1C1F28" fill-rule="nonzero" x="0" y="0" width="23.7652439" height="23.7652439"></rect>
                        </g>
                    </g>
                </g>
            </g>
        </g>
    </g>
</svg>