<?xml version="1.0" encoding="UTF-8"?>
<svg width="14px" height="20px" viewBox="0 0 14 20" version="1.1" xmlns="http://www.w3.org/2000/svg" xmlns:xlink="http://www.w3.org/1999/xlink">
    <title>3. icons/outline/icon-lamp</title>
    <defs>
        <path d="M12.5753824,15.8058503 C11.7826771,14.7886591 10.738142,14.0050024 9.53529491,13.5455296 L9.48720011,13.5293997 L9.44044128,13.5293997 L9.06677618,9.75289574 C9.04194151,9.26988919 8.65460661,8.88570512 8.17506616,8.87060891 L8.17358705,8.87056083 L7.58979349,8.87056083 L7.58979349,0 L6.48058333,0 L6.48058333,8.87056083 L5.83838893,8.87056083 C5.36419235,8.87087333 4.9735891,9.23164386 4.92222595,9.69580419 L4.92191582,9.69996286 L4.54825072,13.4882217 L4.50149189,13.4882217 C3.24797347,13.9719013 2.20308056,14.7654138 1.4252617,15.7779175 L1.41326185,15.7941194 C0.589399854,16.8686906 0.0688499951,18.2169647 0.00112125772,19.6845662 L0.000548700585,19.6999268 C0.000238565472,19.7052393 0,19.7114653 0,19.7176913 C0,19.8736294 0.125509295,20 0.28017129,20 C0.282342236,20 0.284704034,20 0.28687498,20 L13.7135067,20 C13.7155107,20 13.717777,20 13.7200673,20 C13.8002014,20 13.8723913,19.9661056 13.9235159,19.9118026 L13.923659,19.9116583 C13.9709904,19.8603841 14,19.7913935 14,19.7157201 C14,19.7101913 13.9998091,19.7047345 13.9995706,19.6991576 L13.9996183,19.6999508 C13.9226571,18.220258 13.3990297,16.8771282 12.5633826,15.7898646 L12.5751916,15.8058022 L12.5753824,15.8058503 Z M5.4882941,13.3939906 L5.83853207,10.588043 C5.85399112,10.4127299 5.99911049,10.2762149 6.17586365,10.2762149 C6.17834473,10.2762149 6.18084967,10.2762149 6.18333075,10.2763111 L7.8583705,10.2763111 C7.85889534,10.2763111 7.85949175,10.2763111 7.86013588,10.2763111 C8.0380103,10.2763111 8.18437021,10.4122491 8.20269204,10.5866247 L8.20283518,10.5881872 L8.57060771,13.4293513 L5.48817482,13.4293513 L5.4882941,13.3939906 Z M1.21501395,18.8233852 L1.21501395,18.7293223 C1.79880751,16.4175832 3.47430053,14.6704856 5.11467672,14.6704856 L8.75745219,14.6704856 C10.5087852,14.6704856 12.1200564,16.2998905 12.7504656,18.7293223 L12.779666,18.8233852 L1.21501395,18.8233852 Z" id="path-1"></path>
    </defs>
    <g id="Yanbal-UI-Visual-Kit" stroke="none" stroke-width="1" fill="none" fill-rule="evenodd">
        <g id="yanbal-styleguide-pag2" transform="translate(-509.000000, -4636.000000)">
            <g id="Group" transform="translate(504.000000, 4634.000000)">
                <g id="colors/brand-secondary" transform="translate(5.000000, 2.000000)">
                    <mask id="mask-2" fill="white">
                        <use xlink:href="#path-1"></use>
                    </mask>
                    <use id="Mask" fill="#000000" fill-rule="nonzero" xlink:href="#path-1"></use>
                    <g id="Group" mask="url(#mask-2)">
                        <g transform="translate(-7.000000, -3.000000)" id="colors/brand-secondary">
                            <rect id="box" fill="#1C1F28" fill-rule="nonzero" x="0" y="0" width="26.4058266" height="25.7456809"></rect>
                        </g>
                    </g>
                </g>
            </g>
        </g>
    </g>
</svg>