<?xml version="1.0" encoding="UTF-8"?>
<svg width="20px" height="15px" viewBox="0 0 20 15" version="1.1" xmlns="http://www.w3.org/2000/svg" xmlns:xlink="http://www.w3.org/1999/xlink">
    <title>3. icons/outline/icon-open-dolder</title>
    <defs>
        <path d="M19.9928568,6.0000134 C19.9973883,5.96808121 20,5.93125871 20,5.8937663 C20,5.85627389 19.9974329,5.81945139 19.9923657,5.78336579 L19.9928568,5.78754153 C19.9858253,5.27515274 19.5689986,4.86249062 19.0557837,4.86249062 C19.0535738,4.86249062 19.0513416,4.86249062 19.049087,4.86251295 L18.0560293,4.86251295 C17.9007322,4.86251295 17.7748783,4.73661528 17.7748783,4.58126407 L17.7748783,4.58126407 L17.7748783,2.39379756 C17.7473994,1.75635964 17.2240948,1.24997767 16.582593,1.24997767 C16.577816,1.24997767 16.5730613,1.25 16.5683066,1.25006699 L6.49767847,1.25006699 C6.42807715,1.24986602 6.36454752,1.22385133 6.31619715,1.18106667 L6.31646502,1.18128997 L5.24184115,0.306325699 C5.03636323,0.12658991 4.76927541,0.0128175355 4.47593643,0.000156311408 L4.47336935,0 L1.20579044,0 C1.20206259,0 1.19762043,0 1.19324523,0 C0.538550828,0 0.00700924148,0.527394691 0,1.18062007 L0,13.8186654 C0.00703156391,14.472583 0.538595473,15 1.19324523,15 C1.1976874,15 1.20206259,15 1.20648243,15 L16.8251708,15 C16.8296129,15 16.834881,15 16.8401714,15 C17.3960221,15 17.8626278,14.6178186 17.9917407,14.101857 L17.9934595,14.0936618 L19.9928568,6.0000134 Z M1.32454574,10.9999464 L1.24958704,10.9999464 C1.19215144,10.9879551 1.14958257,10.9376675 1.14958257,10.8774429 C1.14958257,10.876572 1.14958257,10.8756788 1.14958257,10.874808 L1.14958257,10.8749643 L1.14958257,1.42509111 C1.14958257,1.2697399 1.27545873,1.14384222 1.43075584,1.14384222 L4.37343185,1.14384222 C4.37369972,1.14384222 4.37405688,1.14384222 4.37436939,1.14384222 C4.44575651,1.14384222 4.51098263,1.16985691 4.56123041,1.2129542 L5.62295192,2.08760585 C5.83316219,2.25744936 6.10317425,2.36081586 6.39729452,2.36255761 L16.325394,2.36255761 C16.3254163,2.36255761 16.3254386,2.36255761 16.325461,2.36255761 C16.4785035,2.36255761 16.603085,2.48494944 16.6065449,2.63724142 L16.6065449,4.86255761 L4.01109425,4.86255761 C4.00841555,4.86253528 4.00520113,4.86251295 4.00196437,4.86251295 C3.45740881,4.86251295 2.99756686,5.2255127 2.85115407,5.72282861 L2.84903344,5.73131409 L1.4308228,10.8750313 C1.41405866,10.9329111 1.3617349,10.974557 1.29967856,10.9750482 L1.29961159,10.9750482 L1.32454574,10.9999464 Z M16.8689674,13.8561801 L1.77438725,13.8561801 L2.23047904,12.2124763 L3.82992544,6.39376184 L3.82992544,6.34999464 L3.91736238,6.03123102 L18.7432698,6.03123102 L18.6745614,6.33121494 C18.6754096,6.33684215 18.6759007,6.34334024 18.6759007,6.34994998 C18.6759007,6.35655972 18.6754096,6.36305781 18.6744721,6.36939959 L18.6745614,6.36870735 L16.8689674,13.8561801 Z" id="path-1"></path>
    </defs>
    <g id="Yanbal-UI-Visual-Kit" stroke="none" stroke-width="1" fill="none" fill-rule="evenodd">
        <g id="yanbal-styleguide-pag2" transform="translate(-794.000000, -4638.000000)">
            <g id="Group" transform="translate(792.000000, 4634.000000)">
                <g id="colors/brand-secondary" transform="translate(2.000000, 4.000000)">
                    <mask id="mask-2" fill="white">
                        <use xlink:href="#path-1"></use>
                    </mask>
                    <use id="Mask" fill="#000000" fill-rule="nonzero" xlink:href="#path-1"></use>
                    <g id="Group" mask="url(#mask-2)">
                        <g transform="translate(-4.000000, -5.000000)" id="colors/brand-secondary">
                            <rect id="box" fill="#1C1F28" fill-rule="nonzero" x="0" y="0" width="26.4058266" height="25.7456809"></rect>
                        </g>
                    </g>
                </g>
            </g>
        </g>
    </g>
</svg>