<?xml version="1.0" encoding="UTF-8"?>
<svg width="14px" height="14px" viewBox="0 0 14 14" version="1.1" xmlns="http://www.w3.org/2000/svg" xmlns:xlink="http://www.w3.org/1999/xlink">
    <title>3. icons/outline/icon-close </title>
    <defs>
        <path d="M7.90004444,7 L13.8142667,1.08655556 C13.9332667,0.966777778 14.0001556,0.807333333 14.0001556,0.637 C14.0001556,0.466666667 13.9332667,0.307222222 13.8142667,0.186666667 C13.5723778,-0.0536666667 13.1539333,-0.0536666667 12.9128222,0.186666667 L7.00015556,6.10011111 L1.08593333,0.186666667 C0.966155556,0.0661111111 0.806711111,0 0.636377778,0 L0.6356,0 C0.466044444,0 0.305822222,0.0661111111 0.186822222,0.186666667 C0.0670444444,0.307222222 0.000155555556,0.466666667 0.000155555556,0.637 C0.000155555556,0.807333333 0.0670444444,0.966777778 0.186822222,1.08655556 L6.10026667,7 L0.186822222,12.9134444 C0.0662666667,13.0332222 0.000155555556,13.1926667 0.000155555556,13.363 C0.000155555556,13.5333333 0.0662666667,13.6927778 0.186044444,13.8125556 C0.424822222,14.0536667 0.8456,14.0536667 1.08593333,13.8133333 L7.00015556,7.89988889 L12.9128222,13.8133333 C13.0341556,13.9338889 13.1928222,14 13.3631556,14 C13.5334889,14 13.6929333,13.9338889 13.8142667,13.8133333 C14.0616,13.5652222 14.0616,13.1615556 13.8142667,12.9134444 L7.90004444,7 Z" id="path-1"></path>
    </defs>
    <g id="Yanbal-UI-Visual-Kit" stroke="none" stroke-width="1" fill="none" fill-rule="evenodd">
        <g id="yanbal-styleguide-pag2" transform="translate(-845.000000, -4495.000000)">
            <g id="Group" transform="translate(840.000000, 4490.000000)">
                <g id="elements" transform="translate(5.000000, 5.000000)">
                    <mask id="mask-2" fill="white">
                        <use xlink:href="#path-1"></use>
                    </mask>
                    <use id="icon" fill="#1E1210" xlink:href="#path-1"></use>
                    <g id="Group" mask="url(#mask-2)">
                        <g transform="translate(-5.000000, -5.000000)" id="color">
                            <rect id="box" fill="#1C1F28" fill-rule="nonzero" x="0" y="0" width="24" height="24"></rect>
                        </g>
                    </g>
                </g>
            </g>
        </g>
    </g>
</svg>