<?xml version="1.0" encoding="UTF-8"?>
<svg width="18px" height="20px" viewBox="0 0 18 20" version="1.1" xmlns="http://www.w3.org/2000/svg" xmlns:xlink="http://www.w3.org/1999/xlink">
    <title>3. icons/outline/icon-bell</title>
    <defs>
        <path d="M15.5254507,12.698927 L15.6383993,12.698927 C15.8870437,12.6336146 16.0680253,12.4033505 16.0680253,12.1292162 C16.0680253,12.1232787 16.0680253,12.1171489 16.0677244,12.1113076 L16.0677476,12.1122451 C16.0524055,11.784481 15.7930933,11.5249381 15.4752127,11.5249381 C15.4670904,11.5249381 15.4588755,11.5251544 15.4508458,11.5254188 L15.4519797,11.5253708 L2.4577725,11.5253708 C2.14581582,11.5253708 1.89282105,11.7881829 1.89282105,12.1122451 C1.89282105,12.4363072 2.14581582,12.6991194 2.4577725,12.6991194 L2.4577725,12.6991194 L15.5253812,12.6991194 L15.5254507,12.698927 Z M18,13.9137333 C17.9977785,13.749671 17.9311108,13.6022433 17.8251275,13.4971713 L17.8248266,13.4968588 L16.129926,11.7948416 L16.129926,8.66674439 C16.1144451,5.64720475 14.2519612,3.08389052 11.6571508,2.13206475 L11.6101988,2.11706476 L11.5197427,2.08175231 L11.5197427,1.98778607 C11.202348,0.831946115 10.1946036,0 9,0 C7.80539636,0 6.79767515,0.831970154 6.48479285,1.96848321 L6.48028046,1.98756973 L6.48028046,2.08153596 L6.38982436,2.11684842 C3.75007521,3.08653475 1.88916486,5.6482384 1.87009711,8.66402805 L1.87007397,8.66638381 L1.87007397,11.794481 L0.175173361,13.4964982 C0.0689817422,13.6018106 0.00222148516,13.7492383 0,13.9127717 L0,16.2607016 C0,16.5847637 0.252994763,16.8475759 0.564951444,16.8475759 L0.564951444,16.8475759 L5.90952076,16.8475759 L5.90952076,17.0178401 C6.01029751,18.6862756 7.33756547,20 8.96024467,20 C10.5829239,20 11.9103075,18.6864679 12.0105983,17.027119 L12.0109686,17.0180565 L12.0109686,16.8302442 L17.4345626,16.8302442 C17.7465193,16.8302442 17.9995141,16.567432 17.9995141,16.2433699 L17.9995141,16.2433699 L18,13.9137333 Z M10.8305732,17.0184651 C10.7526592,18.0275264 9.94524193,18.8157466 8.96052236,18.8157466 C7.97580278,18.8157466 7.16838549,18.0274543 7.09088805,17.0253161 L7.09054095,17.0184411 L7.09054095,16.8306288 L10.8306658,16.8306288 L10.8305732,17.0184651 Z M16.8190955,15.6860869 L1.10181036,15.6860869 L1.10181036,14.1367138 L2.98884629,12.2645285 L2.98884629,8.66688862 C3.00178182,5.83338241 4.94572017,3.47533236 7.5232446,2.93922724 L7.55929746,2.93297724 L7.55929746,2.5514152 C7.55929746,1.74110368 8.19168023,1.08422947 8.97167606,1.08422947 C9.7516719,1.08422947 10.3840547,1.74115175 10.3840547,2.5514152 L10.3840547,2.5514152 L10.3840547,2.93297724 C12.9939063,3.47451505 14.9360629,5.82641127 14.9545058,8.65304248 L14.954529,8.65520594 L14.954529,12.2645285 L16.8415649,14.1367138 L16.8190955,15.6860869 Z" id="path-1"></path>
    </defs>
    <g id="Yanbal-UI-Visual-Kit" stroke="none" stroke-width="1" fill="none" fill-rule="evenodd">
        <g id="yanbal-styleguide-pag2" transform="translate(-747.000000, -4588.000000)">
            <g id="Group" transform="translate(744.000000, 4586.000000)">
                <g id="colors/brand-secondary" transform="translate(3.000000, 2.000000)">
                    <mask id="mask-2" fill="white">
                        <use xlink:href="#path-1"></use>
                    </mask>
                    <use id="Mask" fill="#000000" fill-rule="nonzero" xlink:href="#path-1"></use>
                    <g id="Group" mask="url(#mask-2)">
                        <g transform="translate(-5.000000, -3.000000)" id="colors/brand-secondary">
                            <rect id="box" fill="#1C1F28" fill-rule="nonzero" x="0" y="0" width="26.4058266" height="25.7456809"></rect>
                        </g>
                    </g>
                </g>
            </g>
        </g>
    </g>
</svg>