<?xml version="1.0" encoding="UTF-8"?>
<svg width="18px" height="18px" viewBox="0 0 18 18" version="1.1" xmlns="http://www.w3.org/2000/svg" xmlns:xlink="http://www.w3.org/1999/xlink">
    <title>3. icons/outline/icon-send-wishlist</title>
    <defs>
        <path d="M5.636475,11.851425 C5.772975,11.851425 5.901975,11.904675 5.998725,12.001425 C6.094725,12.096675 6.147975,12.224925 6.147975,12.362175 C6.147975,12.498675 6.094725,12.627675 5.998725,12.723675 L5.998725,12.723675 L0.871725,17.849925 C0.776475,17.946675 0.648225,17.999925 0.510975,17.999925 C0.374475,17.999925 0.245475,17.946675 0.149475,17.849175 C0.053475,17.753925 0.000225,17.625675 0.000225,17.488425 C0.000225,17.351925 0.053475,17.223675 0.150225,17.127675 L0.150225,17.127675 L5.275725,12.001425 C5.371725,11.904675 5.499975,11.852175 5.635725,11.851425 L5.635725,11.851425 Z M7.428975,14.235 C7.642725,14.019 7.992225,14.01975 8.208225,14.23425 C8.312475,14.33925 8.370225,14.47725 8.370225,14.625 C8.370225,14.772 8.312475,14.9115 8.208225,15.015 L8.208225,15.015 L5.385225,17.8395 C5.280225,17.943 5.141475,18 4.995225,18 C4.848975,18 4.710975,17.943 4.605975,17.8395 C4.500975,17.73375 4.443975,17.595 4.44471769,17.44725 C4.44471769,17.30025 4.502475,17.16225 4.605975,17.05875 L4.605975,17.05875 Z M17.4997875,0.001275 L17.533725,0.004275 C17.558475,0.006525 17.582475,0.010275 17.608725,0.017025 C17.644725,0.028275 17.669475,0.038775 17.701725,0.053775 C17.714475,0.056775 17.733225,0.064275 17.751225,0.076275 L17.751225,0.076275 L17.784975,0.103275 C17.803725,0.116775 17.826975,0.137775 17.842725,0.154275 C17.860725,0.173025 17.876475,0.188775 17.889975,0.206025 L17.889975,0.206025 L17.895225,0.209775 L17.925225,0.250275 C17.937225,0.270525 17.943975,0.290025 17.946975,0.302025 C17.957475,0.320775 17.968725,0.347775 17.976975,0.376275 C17.986725,0.406275 17.991225,0.434025 17.994975,0.461025 L17.994975,0.461025 C17.998725,0.491025 18.000975,0.518775 18.0003687,0.548025 C17.998725,0.578775 17.994225,0.608025 17.985975,0.641025 C17.987475,0.645525 17.985975,0.664275 17.978475,0.687525 L17.978475,0.687525 L12.588975,17.631525 C12.521475,17.840025 12.328725,17.987775 12.108225,17.998275 L12.108225,17.998275 C11.868225,17.998275 11.676975,17.872275 11.593725,17.678775 L11.593725,17.678775 L8.197725,9.818775 L0.340725,6.799275 C0.132225,6.720525 -0.004275,6.516525 0.000117005204,6.292275 C0.003975,6.068775 0.148725,5.870775 0.360225,5.799525 L0.360225,5.799525 L17.299725,0.025275 C17.320725,0.016275 17.344725,0.014025 17.358975,0.013275 C17.391975,0.003525 17.428725,-0.000975 17.470725,0.000525 L17.470725,0.000525 L17.4997875,0.001275 L17.4997875,0.001275 Z M16.302975,2.447775 L9.228225,9.523275 L12.006225,15.953025 L16.302975,2.447775 Z M2.9838,9.79065 C3.1983,9.57615 3.5478,9.5754 3.7638,9.79065 C3.8688,9.89565 3.9258,10.03365 3.9258,10.18065 C3.9258,10.32765 3.8688,10.4664 3.7638,10.5714 L3.7638,10.5714 L0.94155,13.3944 C0.83655,13.49865 0.6978,13.55565 0.55155,13.55565 C0.4053,13.55565 0.26655,13.49865 0.16155,13.3944 C0.05805,13.2894 0.0003,13.1514 0.0003,13.00365 C0.0003,12.85665 0.05805,12.71865 0.16155,12.61365 L0.16155,12.61365 Z M15.478725,1.768275 L2.091225,6.332775 L8.466225,8.781525 L15.478725,1.768275 Z" id="path-1"></path>
    </defs>
    <g id="Yanbal-UI-Visual-Kit" stroke="none" stroke-width="1" fill="none" fill-rule="evenodd">
        <g id="yanbal-styleguide-pag2" transform="translate(-411.000000, -4541.000000)">
            <g id="Group" transform="translate(408.000000, 4538.000000)">
                <g id="elements" transform="translate(3.000000, 3.000000)">
                    <mask id="mask-2" fill="white">
                        <use xlink:href="#path-1"></use>
                    </mask>
                    <use id="icon" fill="#1E1210" xlink:href="#path-1"></use>
                    <g id="Group" mask="url(#mask-2)">
                        <g transform="translate(-3.000000, -3.000000)" id="color">
                            <rect id="box" fill="#1C1F28" fill-rule="nonzero" x="0" y="0" width="24" height="24"></rect>
                        </g>
                    </g>
                </g>
            </g>
        </g>
    </g>
</svg>