<?xml version="1.0" encoding="UTF-8"?>
<svg width="16px" height="20px" viewBox="0 0 16 20" version="1.1" xmlns="http://www.w3.org/2000/svg" xmlns:xlink="http://www.w3.org/1999/xlink">
    <title>3. icons/outline/icon-padlock</title>
    <defs>
        <path d="M8.0466962,9.55385094 C8.04266676,9.55385094 8.03789819,9.55385094 8.03312963,9.55385094 C6.64960115,9.55385094 5.52591195,10.5950105 5.50712379,11.8860358 L5.50712379,11.887643 C5.50981803,12.9282668 6.23769225,13.8090917 7.2425249,14.1108101 L7.26021628,14.1154307 L7.35351332,14.1154307 L7.35351332,16.443062 C7.35351332,16.7670572 7.63404817,17.0296239 7.98005546,17.0296239 C8.32606276,17.0296239 8.60659761,16.7669902 8.60659761,16.443062 L8.60659761,16.443062 L8.60659761,14.1778413 L8.70657064,14.1778413 C9.80400888,13.9185336 10.6033878,13.0025301 10.6033878,11.9117055 C10.6033878,10.6227337 9.48728059,9.57784645 8.11045196,9.57784645 C8.08567925,9.57784645 8.06100191,9.57815895 8.03644378,9.5788286 L8.04009174,9.57873931 L8.0466962,9.55385094 Z M8.0466962,13.0796506 C7.35594529,13.0691149 6.80026406,12.542419 6.80026406,11.8941608 C6.80026406,11.2393625 7.36731832,10.7085148 8.06672419,10.7085148 C8.76379346,10.7085148 9.32929793,11.2357017 9.33318432,11.8874421 L9.33318432,11.8877546 C9.33318432,11.8877769 9.33318432,11.8877992 9.33318432,11.8878216 C9.33318432,12.5461021 8.76319738,13.0797175 8.06004819,13.0797175 C8.05535115,13.0797175 8.05067796,13.0797175 8.04600476,13.0796506 L8.04672004,13.0796506 L8.0466962,13.0796506 Z M15.3721703,6.89552802 L13.7723873,6.89552802 L13.7723873,5.46023944 C13.7723873,2.44464013 11.1611195,0 7.93997565,0 C4.71883182,0 2.10756399,2.44464013 2.10756399,5.46023944 L2.10756399,5.46023944 L2.10756399,6.89552802 L0.627829661,6.89552802 C0.627495861,6.89552802 0.626995161,6.89552802 0.626542147,6.89552802 C0.280463326,6.89552802 0,7.15816165 0,7.48208986 C0,7.49525949 0.000429171119,7.50831751 0.00138288472,7.52126393 L0.00128751336,7.51952286 L0.00128751336,19.4196881 C0.00503083922,19.7409601 0.284063595,20 0.627829661,20 C0.627853504,20 0.627853504,20 0.627877346,20 L15.3721227,20 C15.3721227,20 15.3721465,20 15.3721703,20 C15.7158649,20 15.9949215,19.7409378 15.9987125,19.4200006 L15.9987125,7.51954518 C15.999547,7.50836216 16,7.49530413 16,7.48211219 C16,7.15811701 15.7194651,6.89555034 15.3734579,6.89555034 C15.3730525,6.89555034 15.372528,6.89555034 15.3721227,6.89555034 L15.3721942,6.89555034 L15.3721703,6.89552802 Z M3.37414333,5.44160107 C3.47065915,3.14535363 5.48244645,1.31812353 7.95008501,1.31812353 C10.4177236,1.31812353 12.4294155,3.14535363 12.5257167,5.43343144 L12.5260267,5.44162339 L12.5260267,6.89563963 L3.36756271,6.89563963 L3.37414333,5.44160107 Z M14.738976,18.8393317 L1.26116702,18.8393317 L1.26116702,8.0749017 L2.59426788,8.0749017 C2.6343477,8.08215616 2.68045975,8.0863749 2.72754936,8.0863749 C2.77463897,8.0863749 2.82072718,8.08224544 2.86540866,8.07423206 L2.86085468,8.07492402 L14.738976,8.07492402 L14.738976,18.8393317 Z" id="path-1"></path>
    </defs>
    <g id="Yanbal-UI-Visual-Kit" stroke="none" stroke-width="1" fill="none" fill-rule="evenodd">
        <g id="yanbal-styleguide-pag2" transform="translate(-892.000000, -4636.000000)">
            <g id="Group" transform="translate(888.000000, 4634.000000)">
                <g id="colors/brand-secondary" transform="translate(4.000000, 2.000000)">
                    <mask id="mask-2" fill="white">
                        <use xlink:href="#path-1"></use>
                    </mask>
                    <use id="Mask" fill="#000000" fill-rule="nonzero" xlink:href="#path-1"></use>
                    <g id="Group" mask="url(#mask-2)">
                        <g transform="translate(-6.000000, -3.000000)" id="colors/brand-secondary">
                            <rect id="box" fill="#1C1F28" fill-rule="nonzero" x="0" y="0" width="26.4058266" height="25.7456809"></rect>
                        </g>
                    </g>
                </g>
            </g>
        </g>
    </g>
</svg>