<?xml version="1.0" encoding="UTF-8"?>
<svg width="20px" height="20px" viewBox="0 0 20 20" version="1.1" xmlns="http://www.w3.org/2000/svg" xmlns:xlink="http://www.w3.org/1999/xlink">
    <title>3. icons/outline/icon-printer</title>
    <defs>
        <path d="M19.4312521,5.13522774 L14.8999811,5.13522774 L14.8999811,0.55296443 C14.8999811,0.552919787 14.8999811,0.552875145 14.8999811,0.552830502 C14.8999811,0.251582856 14.6439841,0.00660709124 14.3256598,0 L14.3249958,0 L5.67502796,0 C5.35594475,0.00656244873 5.10004257,0.251560535 5.10004257,0.552808181 C5.10004257,0.552852824 5.10004257,0.552897466 5.10004257,0.552942109 L5.10004257,0.552942109 L5.10004257,5.13520542 L0.568771634,5.13520542 C0.252439549,5.14498213 0,5.38864094 0,5.68787967 C0,5.68799128 0,5.6881252 0,5.68819217 L0,5.68816985 L0,15.882175 C0,15.8822643 0,15.8823982 0,15.8824875 C0,16.181637 0.252463266,16.4252958 0.567799253,16.4351395 L0.568795351,16.4351618 L5.03128813,16.4351618 L5.03128813,19.4704506 C5.04158114,19.7649795 5.29779163,20 5.61222638,20 C5.61670882,20 5.62119126,20 5.62572113,20 L5.62505707,20 L14.3750852,20 C14.5155113,19.9995982 14.6430354,19.9482147 14.7379019,19.8643537 L14.7375698,19.8646439 L14.7750895,19.8352245 C14.775967,19.829912 14.7764413,19.823796 14.7764413,19.8175684 C14.7764413,19.8113408 14.7759907,19.8052471 14.7749946,19.7992203 L14.7750895,19.7999123 C14.8642402,19.7115201 14.9190019,19.5918112 14.9190019,19.4600489 C14.9190019,19.4554284 14.9189307,19.4509195 14.9187647,19.4463213 L14.9187884,19.4470132 L14.9187884,16.4117245 L19.3812812,16.4117245 C19.3821587,16.4117245 19.3831074,16.4117245 19.3841746,16.4117245 C19.5217072,16.4117245 19.6464328,16.36014 19.7376943,16.2763684 L19.7375758,16.27648 C19.7550075,16.2698729 19.769688,16.259873 19.7811906,16.2472168 L19.7813329,16.2470606 C19.7822104,16.2417481 19.7826847,16.2356321 19.7826847,16.2294045 C19.7826847,16.2231768 19.7822341,16.2170831 19.781238,16.2110564 L19.7813329,16.2117483 C19.8964059,16.1356998 19.9768052,16.0194731 19.9996443,15.8851884 L20,15.8823759 L20,5.68837074 C20,5.68828145 20,5.68814753 20,5.68805824 C20,5.38890879 19.7475367,5.14524998 19.4322007,5.13540631 L19.4312046,5.13538399 L19.4312521,5.13522774 Z M6.24998962,1.10588422 L13.7499896,1.10588422 L13.7499896,5.13522774 L6.24998962,5.13522774 L6.24998962,1.10588422 Z M13.8249786,18.8939149 L6.17499772,18.8939149 L6.17499772,11.9998839 L13.8249786,11.9998839 L13.8249786,18.8939149 Z M18.8562667,7.83520664 L18.8562667,15.293943 L15.0000178,15.293943 L15.0000178,11.4468972 C15.0000178,11.4468079 15.0000178,11.446674 15.0000178,11.4465847 C15.0000178,11.1474352 14.7475545,10.9037764 14.4322185,10.8939327 L14.4312224,10.8939104 L5.62498592,10.8939104 C5.30934162,10.9004729 5.05621428,11.1428594 5.05621428,11.4408481 C5.05621428,11.442991 5.056238,11.4450445 5.05626172,11.4471874 L5.05626172,11.4468749 L5.05626172,15.293943 L1.14380445,15.293943 L1.14380445,6.24111196 L18.8562667,6.24111196 L18.8562667,7.83520664 Z M7.59996253,17.5057115 L12.3936814,17.5057115 C12.6943605,17.4757117 12.9265935,17.2383028 12.9265935,16.9498006 C12.9265935,16.6612984 12.6943843,16.4238895 12.396314,16.3941353 L12.3937289,16.3938898 L7.60000996,16.3938898 C7.29933084,16.4238895 7.06709783,16.6612984 7.06709783,16.9498006 C7.06709783,17.2383028 7.29930712,17.4757117 7.59737742,17.5054659 L7.59996253,17.5057115 L7.59996253,17.5057115 Z M7.59996253,14.5939485 L12.3936814,14.5939485 C12.6454095,14.5143286 12.8235686,14.2942856 12.8235686,14.0351359 C12.8235686,13.7759861 12.6454332,13.5559209 12.3981639,13.4775063 L12.3937763,13.476301 L7.60005739,13.476301 C7.34832934,13.5559209 7.1701702,13.7759638 7.1701702,14.0351136 C7.1701702,14.2942633 7.34830563,14.5143286 7.59557496,14.5927431 L7.59996253,14.5939485 L7.59996253,14.5939485 Z" id="path-1"></path>
    </defs>
    <g id="Yanbal-UI-Visual-Kit" stroke="none" stroke-width="1" fill="none" fill-rule="evenodd">
        <g id="yanbal-styleguide-pag2" transform="translate(-1274.000000, -4636.000000)">
            <g id="Group" transform="translate(1272.000000, 4634.000000)">
                <g id="colors/brand-secondary" transform="translate(2.000000, 2.000000)">
                    <mask id="mask-2" fill="white">
                        <use xlink:href="#path-1"></use>
                    </mask>
                    <use id="Mask" fill="#000000" fill-rule="nonzero" xlink:href="#path-1"></use>
                    <g id="Group" mask="url(#mask-2)">
                        <g transform="translate(-4.000000, -3.000000)" id="colors/brand-secondary">
                            <rect id="box" fill="#1C1F28" fill-rule="nonzero" x="0" y="0" width="26.4058266" height="25.7456809"></rect>
                        </g>
                    </g>
                </g>
            </g>
        </g>
    </g>
</svg>