<?xml version="1.0" encoding="UTF-8"?>
<svg width="20px" height="20px" viewBox="0 0 20 20" version="1.1" xmlns="http://www.w3.org/2000/svg" xmlns:xlink="http://www.w3.org/1999/xlink">
    <title>3. icons/outline/icon-hotel</title>
    <defs>
        <path d="M19.7535572,9.53774636 L10.4065628,0.162782307 C10.289754,0.0625924899 10.1373109,0.00125498727 9.97066096,0.000261455681 L9.97037421,0.000261455681 C9.96570812,0 9.96010359,0 9.954473,0 C9.78323517,0 9.62810709,0.0692857554 9.51546914,0.181554825 L0.168526805,9.55646658 C0.0641522763,9.66800358 0,9.81839288 0,9.98381589 C0,9.98962021 0,9.99537223 0.000312810774,10.0009935 L0.00028674321,10.0000784 C0.00185079708,10.1777637 0.0728849104,10.3385067 0.187425789,10.4565278 L0.187217248,10.4563186 C0.302514086,10.5601427 0.455478555,10.6239901 0.623119062,10.6250621 L0.623405806,10.6250621 C0.629948764,10.6253758 0.637586561,10.6253758 0.645380762,10.6253758 C0.816722864,10.6253758 0.971955211,10.5559855 1.08459316,10.4437687 L2.33083128,9.19380141 L2.33083128,19.3750163 C2.33083128,19.7202424 2.60975422,20 2.95395034,20 L2.95395034,20 L16.9619818,20 C17.3061779,20 17.5851008,19.7202424 17.5851008,19.3750163 L17.5851008,19.3750163 L17.5851008,9.2313203 L18.831365,10.4813138 C18.9394672,10.5741305 19.0809098,10.6304481 19.2354644,10.6304481 C19.2644515,10.6304481 19.2928652,10.6284349 19.3206532,10.6245915 L19.3173687,10.6249052 C19.3351207,10.6267093 19.3558705,10.6277289 19.3768809,10.6277289 C19.7210771,10.6277289 20,10.3479714 20,10.0027453 C20,9.81149045 19.9143159,9.64028927 19.7794163,9.52558867 L19.7784778,9.5248043 L19.7535572,9.53774636 Z M16.3138639,18.7001992 L3.62688452,18.7001992 L3.62688452,7.92524459 L9.97037421,1.56277289 L16.2951735,7.90649822 L16.3138639,18.7001992 Z M11.5842953,12.6752145 L8.35022294,12.6752145 L8.35022294,15.5627049 L6.89208159,15.5627049 L6.89208159,8.68772779 L8.35022294,8.68772779 L8.35022294,11.3877283 L11.5842953,11.3877283 L11.5842953,8.68772779 L13.0486408,8.68772779 L13.0486408,15.5627049 L11.5842953,15.5627049 L11.5842953,12.6752145 Z" id="path-1"></path>
    </defs>
    <g id="Yanbal-UI-Visual-Kit" stroke="none" stroke-width="1" fill="none" fill-rule="evenodd">
        <g id="yanbal-styleguide-pag2" transform="translate(-410.000000, -4636.000000)">
            <g id="Group" transform="translate(408.000000, 4634.000000)">
                <g id="colors/brand-secondary" transform="translate(2.000000, 2.000000)">
                    <mask id="mask-2" fill="white">
                        <use xlink:href="#path-1"></use>
                    </mask>
                    <use id="Mask" fill="#000000" fill-rule="nonzero" xlink:href="#path-1"></use>
                    <g id="Group" mask="url(#mask-2)">
                        <g transform="translate(-4.000000, -3.000000)" id="colors/brand-secondary">
                            <rect id="box" fill="#1C1F28" fill-rule="nonzero" x="0" y="0" width="26.4058266" height="25.7456809"></rect>
                        </g>
                    </g>
                </g>
            </g>
        </g>
    </g>
</svg>