<?xml version="1.0" encoding="UTF-8"?>
<svg width="16px" height="16px" viewBox="0 0 16 16" version="1.1" xmlns="http://www.w3.org/2000/svg" xmlns:xlink="http://www.w3.org/1999/xlink">
    <title>3. icons/fill/icon-gridx3</title>
    <defs>
        <path d="M4.5,12.5 L4.5,16.5 L0.5,16.5 L0.5,12.5 L4.5,12.5 Z M10.5,12.5 L10.5,16.5 L6.5,16.5 L6.5,12.5 L10.5,12.5 Z M16.5,12.5 L16.5,16.5 L12.5,16.5 L12.5,12.5 L16.5,12.5 Z M4.5,6.5 L4.5,10.5 L0.5,10.5 L0.5,6.5 L4.5,6.5 Z M10.5,6.5 L10.5,10.5 L6.5,10.5 L6.5,6.5 L10.5,6.5 Z M16.5,6.5 L16.5,10.5 L12.5,10.5 L12.5,6.5 L16.5,6.5 Z M4.5,0.5 L4.5,4.5 L0.5,4.5 L0.5,0.5 L4.5,0.5 Z M10.5,0.5 L10.5,4.5 L6.5,4.5 L6.5,0.5 L10.5,0.5 Z M16.5,0.5 L16.5,4.5 L12.5,4.5 L12.5,0.5 L16.5,0.5 Z" id="path-1"></path>
    </defs>
    <g id="Yanbal-UI-Visual-Kit" stroke="none" stroke-width="1" fill="none" fill-rule="evenodd">
        <g id="yanbal-styleguide-pag2" transform="translate(-1516.000000, -4686.000000)">
            <g id="Group" transform="translate(1512.000000, 4682.000000)">
                <g id="elements" transform="translate(3.500000, 3.500000)">
                    <mask id="mask-2" fill="white">
                        <use xlink:href="#path-1"></use>
                    </mask>
                    <use id="gridx3" fill="#1C1F28" fill-rule="nonzero" xlink:href="#path-1"></use>
                    <g id="Group" mask="url(#mask-2)">
                        <g transform="translate(-3.500000, -3.500000)" id="color">
                            <rect id="box" fill="#1C1F28" fill-rule="nonzero" x="0" y="0" width="24" height="24"></rect>
                        </g>
                    </g>
                </g>
            </g>
        </g>
    </g>
</svg>