<?xml version="1.0" encoding="UTF-8"?>
<svg width="20px" height="14px" viewBox="0 0 20 14" version="1.1" xmlns="http://www.w3.org/2000/svg" xmlns:xlink="http://www.w3.org/1999/xlink">
    <title>3. icons/outline/icon-scooter</title>
    <defs>
        <path d="M16.7595615,12.7046829 C17.5424548,12.7046829 18.1749876,12.0890989 18.1749876,11.3367401 C18.1749876,10.5843813 17.5380357,9.96879728 16.7595615,9.96879728 C15.9810872,9.96879728 15.3441353,10.5843813 15.3441353,11.3367401 C15.3441353,12.0890989 15.9810872,12.7046829 16.7595615,12.7046829 Z M16.2110583,11.3367618 C16.2110583,11.0460856 16.4587282,10.8066809 16.759539,10.8066809 C17.0603499,10.8066809 17.3080197,11.0460422 17.3080197,11.3367618 C17.3080197,11.6274813 17.0603499,11.8668426 16.759539,11.8668426 C16.4587282,11.8668426 16.2110583,11.6274813 16.2110583,11.3367618 Z M19.9000178,8.81036333 L19.9000178,8.81036333 C19.1215436,7.90837394 17.9759275,7.38683477 16.7595615,7.38683477 C16.5958988,7.38683477 16.4278171,7.39537642 16.2641545,7.4167739 C16.1137715,6.72852084 15.5476145,5.81371898 14.5789407,4.69372245 L14.5789407,2.08609164 C14.5789407,1.95785852 14.5170064,1.8296254 14.4064399,1.75264217 C14.3002925,1.67570229 14.1587701,1.64578485 14.0260185,1.67997312 L13.4996331,1.82104039 C13.2696171,1.88089697 13.0573223,1.98775429 12.8759609,2.13738489 L12.6415259,1.0900574 C12.5972903,0.897675204 12.420348,0.760900435 12.2169137,0.760900435 L11.7613232,0.760900435 L11.7613232,0.418909314 C11.7613232,0.188068017 11.5666822,0 11.327873,0 C11.0890637,0 10.8944227,0.188111376 10.8944227,0.418909314 L10.8944227,1.99204679 C10.8944227,2.22288809 11.0890637,2.4109561 11.327873,2.4109561 C11.5666822,2.4109561 11.7613232,2.22284473 11.7613232,1.99204679 L11.7613232,1.60305492 L11.8674707,1.60305492 L12.2346124,3.2360273 C12.0798104,3.41130452 11.9692439,3.61649919 11.9205668,3.84304799 L11.0094082,4.80916477 C10.8501647,4.98017117 10.8634443,5.24517906 11.0403866,5.40335131 C11.1199972,5.47177122 11.226167,5.51447946 11.3323145,5.51447946 C11.4561606,5.51447946 11.5711686,5.46316453 11.6551982,5.37768301 L12.1152078,4.89035379 C12.1417447,4.92883457 12.1683039,4.96729366 12.1992374,5.00148194 C12.5619602,5.44605955 13.0617638,6.12150015 13.3934857,6.83110733 C13.7429288,7.57919529 13.826936,8.19905014 13.6455971,8.66927438 C13.3802285,9.35752744 12.5884746,9.89187909 11.5268657,10.0928029 C10.3945293,10.3108318 9.27545011,10.0842613 8.74469055,9.53282635 C8.52351269,9.30198505 8.42180677,9.07541458 8.43948305,8.84032414 C8.47046141,8.40001734 8.89063204,7.8613732 9.68682746,7.23299839 C9.6956656,7.22445674 9.7708571,7.14324604 9.77527617,7.13897522 C10.0539244,6.75425418 10.0849027,6.25838331 9.86372489,5.83943064 C9.63812796,5.41622882 9.19139804,5.1554484 8.70041011,5.1554484 L4.03393867,5.1554484 C3.10950046,5.1554484 2.32660712,5.84370146 2.22925297,6.72431505 C2.03905347,6.91242643 1.61444133,7.35698236 1.1898292,7.94262725 C0.40249435,9.02843551 0,10.041553 0,10.9606257 C0,11.191467 0.194641001,11.379535 0.433450277,11.379535 L1.42868334,11.379535 C1.45080113,12.8287102 2.67602775,14 4.17992502,14 C5.40071015,14 6.47555378,13.2219729 6.82055535,12.0934347 L14.1232605,12.0934347 C14.4682845,13.2219946 15.5431057,14 16.7638908,14 C18.2810229,14 19.5151325,12.8073344 19.5151325,11.3410543 C19.5151325,10.853725 19.3780291,10.3834791 19.1170572,9.96456981 L19.8380163,9.40886405 C19.930884,9.34044415 19.9883993,9.23358683 19.9972598,9.12245868 C20.0105395,9.00705971 19.9751421,8.89588821 19.899973,8.81040669 L19.9000178,8.81036333 Z M13.1678888,3.21462982 C13.2298231,2.9410586 13.4376988,2.71873727 13.7119504,2.63754826 L13.7119504,3.75329564 C13.4951916,3.53099599 13.305037,3.3471988 13.1678888,3.21467318 L13.1678888,3.21462982 Z M16.7595615,8.67356688 C15.2733405,8.67356688 14.0569968,9.81921004 14.0083198,11.2469877 L13.5438911,11.2469877 C13.5925682,9.57126376 15.0168325,8.22471844 16.7595615,8.22471844 C17.5690141,8.22471844 18.3297897,8.51112381 18.9224835,9.03266298 L18.5509226,9.31906835 C18.0555157,8.90442986 17.4230053,8.67356688 16.7595166,8.67356688 L16.7595615,8.67356688 Z M16.7595615,9.51569969 C17.7989852,9.51569969 18.6438353,10.3322076 18.6438353,11.3367618 C18.6438353,12.341316 17.7989852,13.1578238 16.7595615,13.1578238 C15.7201377,13.1578238 14.8752876,12.341316 14.8752876,11.3367618 C14.8752876,10.3322076 15.7201377,9.51569969 16.7595615,9.51569969 Z M14.5965946,7.98958464 C14.5479175,6.99355041 13.9685033,5.80942647 12.8759834,4.47569362 C12.7831156,4.36029465 12.73888,4.21922738 12.7609978,4.0738676 C12.7654169,4.05676263 12.7654169,4.03965765 12.7698359,4.01828185 C13.1148599,4.36027297 13.7739071,5.03567021 14.366601,5.77948735 C14.9858541,6.55751444 15.3485544,7.18591093 15.4237235,7.60482024 C15.1362147,7.70313591 14.8575665,7.83139071 14.5965721,7.98954128 L14.5965946,7.98958464 Z M6.06424372,11.3752425 C6.05540558,11.8454668 5.86076458,12.2900444 5.51134394,12.6234939 C5.15306273,12.9697558 4.67977352,13.1578455 4.17994746,13.1578455 C3.15375847,13.1578455 2.31779141,12.3627134 2.29567362,11.3752642 L2.76452133,11.3752642 C2.78663911,12.1147889 3.41473039,12.7047262 4.17994746,12.7047262 C4.94958359,12.7047262 5.57323336,12.1105397 5.59537358,11.3752642 L6.06424372,11.3752642 L6.06424372,11.3752425 Z M3.63153404,11.3752425 L4.72405396,11.3752425 C4.70193617,11.6488138 4.46752353,11.8668643 4.17557325,11.8668643 C3.88362296,11.8668643 3.6536294,11.6488354 3.63151161,11.3752425 L3.63153404,11.3752425 Z M4.03400596,5.9847037 L6.06866279,5.9847037 L6.06866279,6.48059624 L3.19357497,6.48059624 C3.35281854,6.18135672 3.67128325,5.9847037 4.03400596,5.9847037 Z M6.93565307,6.48059624 L6.93565307,5.9847037 L8.70052227,5.9847037 C8.86860398,5.9847037 9.01456791,6.07018522 9.08978184,6.21554499 C9.13401741,6.30102652 9.15171613,6.39082222 9.13401741,6.48057456 L6.93569794,6.48057456 L6.93565307,6.48059624 Z M2.28243884,9.54561714 C3.03879533,8.60514698 4.14901396,8.18196684 5.5821388,8.27599001 C6.18369322,8.31874161 6.57295279,8.46837221 6.71005615,8.7120043 C6.83390229,8.93857477 6.851601,9.43871646 6.23676694,10.5287955 L1.70744371,10.5287955 C1.8180102,10.2594952 1.99937156,9.89612823 2.28243884,9.54557378 L2.28243884,9.54561714 Z M7.59028121,8.60516866 C7.56374435,8.50685298 7.52390542,8.41278646 7.47529564,8.32303411 C7.18778686,7.80149494 6.57297523,7.50652625 5.64411795,7.44244221 C3.46349719,7.29283328 2.23385149,8.23757427 1.58364243,9.05403878 C1.41114165,9.2720676 1.26959679,9.49434557 1.15461122,9.70381107 C1.61020172,8.62227363 2.48600771,7.67753265 2.83982499,7.32277241 L8.32456478,7.32277241 C7.90437171,7.76735003 7.66549514,8.19055185 7.59032607,8.6052337 L7.59028121,8.60516866 Z M7.63007528,9.31904667 C7.70968585,9.58834706 7.86892942,9.84912749 8.10336449,10.0927813 C8.84202226,10.862245 10.2485878,11.1785895 11.6905508,10.9050183 C12.0665307,10.8323492 12.4247895,10.7254702 12.7476733,10.5801322 C12.7034377,10.798161 12.6768784,11.0204389 12.6724818,11.2470094 L6.93116671,11.2470094 C6.93116671,11.1914237 6.92674764,11.1316104 6.91788706,11.0717322 C7.2319327,10.5373806 7.55039741,9.91327656 7.63003041,9.31904667 L7.63007528,9.31904667 Z" id="path-1"></path>
    </defs>
    <g id="Yanbal-UI-Visual-Kit" stroke="none" stroke-width="1" fill="none" fill-rule="evenodd">
        <g id="yanbal-styleguide-pag2" transform="translate(-938.000000, -4687.000000)">
            <g id="Group" transform="translate(936.000000, 4682.000000)">
                <g id="colors/brand-secondary" transform="translate(2.000000, 5.000000)">
                    <mask id="mask-2" fill="white">
                        <use xlink:href="#path-1"></use>
                    </mask>
                    <use id="Mask" fill="#000000" fill-rule="nonzero" xlink:href="#path-1"></use>
                    <g id="Group" mask="url(#mask-2)">
                        <g transform="translate(-4.000000, -6.000000)" id="colors/brand-secondary">
                            <rect id="box" fill="#1C1F28" fill-rule="nonzero" x="0" y="0" width="26.4058266" height="25.7456809"></rect>
                        </g>
                    </g>
                </g>
            </g>
        </g>
    </g>
</svg>