<?xml version="1.0" encoding="UTF-8"?>
<svg width="6px" height="20px" viewBox="0 0 6 20" version="1.1" xmlns="http://www.w3.org/2000/svg" xmlns:xlink="http://www.w3.org/1999/xlink">
    <title>3. icons/outline/icon-lipstick</title>
    <defs>
        <path d="M1,19 L5,19 L5,13 L1,13 L1,19 Z M1.8,5 L4.2,5 L4.2,12 L1.82183288,12 L1.8,5 Z M2.2,2.06577662 C2.22275819,2.0169326 2.31280148,1.86746988 2.46716141,1.72386845 C2.70859617,1.50211657 3.03017934,1.28817975 3.32999382,1.15239336 C3.50810142,1.06935852 3.67532468,1.02149137 3.8,1 L3.8,4 L2.20494743,4 L2.2,2.06577662 Z M5.421,11.7037145 L5.274,11.7037145 L5.274,3.84027868 C5.274,3.56671197 5.058,3.33885876 4.7775,3.30100227 L4.767,1.00604185 C4.761,0.743189235 4.67625,0.512478928 4.524,0.33819622 C4.37175,0.165342058 4.14975,0.0489154941 3.9,0.0117732775 C3.83325,0.00177344991 3.765,-0.00108364367 3.69375,0.000344903119 L3.67125,0.000344903119 C3.39075,0.0032019967 3.0915,0.0767721565 2.757,0.225341023 C2.4075,0.379624077 2.06775,0.596763189 1.79925,0.836044777 C1.536,1.06961218 1.2645,1.36674991 1.23975,1.8045995 L1.23975,3.29885945 C0.95175,3.3295732 0.726,3.56099778 0.726,3.84099296 L0.74775,11.7037145 L0.57975,11.7037145 C0.261,11.7037145 0,11.947996 0,12.2479908 L0,19.4542951 C0,19.7550042 0.261,20 0.57975,20 L5.421,20 C5.7405,20 6,19.7550042 6,19.4542951 L6,12.2479908 C6,11.947996 5.7405,11.7037145 5.421,11.7037145 L5.421,11.7037145 Z" id="path-1"></path>
    </defs>
    <g id="Yanbal-UI-Visual-Kit" stroke="none" stroke-width="1" fill="none" fill-rule="evenodd">
        <g id="yanbal-styleguide-pag2" transform="translate(-1377.000000, -4492.000000)">
            <g id="Group" transform="translate(1368.000000, 4490.000000)">
                <g id="Group" transform="translate(9.000000, 2.000000)">
                    <mask id="mask-2" fill="white">
                        <use xlink:href="#path-1"></use>
                    </mask>
                    <use id="Mask" fill="#1E1210" xlink:href="#path-1"></use>
                    <g mask="url(#mask-2)" id="color">
                        <g transform="translate(-9.000000, -2.000000)">
                            <rect id="box" fill="#1C1F28" fill-rule="nonzero" x="0" y="0" width="24" height="24"></rect>
                        </g>
                    </g>
                </g>
            </g>
        </g>
    </g>
</svg>