<?xml version="1.0" encoding="UTF-8"?>
<svg width="16px" height="20px" viewBox="0 0 16 20" version="1.1" xmlns="http://www.w3.org/2000/svg" xmlns:xlink="http://www.w3.org/1999/xlink">
    <title>3. icons/outline/icon-share</title>
    <defs>
        <path d="M12.9387794,13.7983659 C12.2220309,13.8011337 11.5631935,14.0505285 11.0403634,14.4670199 L11.0469963,14.4619083 L6.05734638,10.8650248 C6.14489608,10.5992909 6.19822361,10.2929993 6.20426152,9.97503373 L6.20430559,9.97202037 C6.20000854,9.66729129 6.15102213,9.37559779 6.06386908,9.10140412 L6.0696646,9.12238605 L11.0470844,5.48833773 C11.5625104,5.9017934 12.2221191,6.1517016 12.9392421,6.1517016 C14.6125587,6.1517016 15.9722785,4.79173758 16,3.10340633 L16,3.10077243 C16,1.38828963 14.6294604,0 12.9388235,0 C11.2481865,0 9.87764692,1.38826731 9.87764692,3.10077243 L9.87764692,3.10077243 C9.88375094,3.61346817 10.0168494,4.0933071 10.2465104,4.51127165 L10.2388418,4.49607091 L5.45727944,7.9813484 C4.891633,7.26515024 4.02882882,6.81042266 3.06117654,6.81042266 C1.37056161,6.81042266 0,8.19868997 0,9.91119509 C0,11.6237002 1.37053957,13.0119675 3.06117654,13.0119675 C3.0899117,13.0119675 3.11864687,13.0116104 3.14724982,13.0107845 L3.14304091,13.0108738 C3.1445614,13.0108738 3.1463243,13.0108738 3.14806516,13.0108738 C4.04848508,13.0108738 4.85811599,12.6170831 5.41823135,11.9902813 L5.42054515,11.9876028 L10.2265676,15.4480145 C10.01112,15.8522738 9.88256099,16.3320681 9.87764692,16.8418174 L9.87762489,16.8433799 C9.87731638,16.8599646 9.87714009,16.8795626 9.87714009,16.8992276 C9.87714009,18.6117104 11.2476797,20 12.9383166,20 C14.6289536,20 15.9994932,18.6117327 15.9994932,16.8992276 C15.9994932,15.1869233 14.6292621,13.79879 12.9388235,13.7984551 L12.9388014,13.7984551 L12.9387794,13.7983659 Z M12.9387794,1.32096887 C13.8959645,1.33837941 14.6652692,2.12846076 14.6652692,3.10054921 C14.6652692,4.08350809 13.8786,4.88037509 12.9081711,4.88037509 C11.9378745,4.88037509 11.1512053,4.08370898 11.1510731,3.10081707 L11.1510731,3.10079475 C11.1614081,2.11551446 11.9522862,1.32092423 12.9264612,1.32092423 C12.9308023,1.32092423 12.9351434,1.32092423 12.9394625,1.32096887 L12.9387794,1.32096887 Z M3.14308498,11.7394803 C2.18592192,11.7220251 1.41663924,10.9319661 1.41663924,9.95989996 C1.41663924,8.97694108 2.20330846,8.18007408 3.17373729,8.18007408 C4.14416613,8.18007408 4.93083535,8.97691876 4.93083535,9.95989996 C4.93083535,9.96416331 4.93083535,9.96838201 4.93079128,9.97271233 L4.93079128,9.97206501 C4.9136251,10.9518766 4.12536928,11.7395473 3.15557949,11.7395473 C3.15117226,11.7395473 3.14674299,11.7395473 3.14235779,11.7395026 L3.14304091,11.7395026 L3.14308498,11.7394803 Z M12.9387794,18.6541876 C11.978994,18.6401699 11.2061635,17.8487939 11.2061635,16.8744957 C11.2061635,15.8915368 11.9928327,15.0946698 12.9632616,15.0946698 C13.9335802,15.0946698 14.7202274,15.8914029 14.7203596,16.8743618 L14.7203596,16.8743618 C14.7100026,17.8596197 13.9191245,18.6541876 12.9449716,18.6541876 C12.942812,18.6541876 12.9405864,18.6541876 12.9384488,18.6541876 L12.9387574,18.6541876 L12.9387794,18.6541876 Z" id="path-1"></path>
    </defs>
    <g id="Yanbal-UI-Visual-Kit" stroke="none" stroke-width="1" fill="none" fill-rule="evenodd">
        <g id="yanbal-styleguide-pag2" transform="translate(-268.000000, -4684.000000)">
            <g id="Group" transform="translate(264.000000, 4682.000000)">
                <g id="colors/brand-secondary" transform="translate(4.000000, 2.000000)">
                    <mask id="mask-2" fill="white">
                        <use xlink:href="#path-1"></use>
                    </mask>
                    <use id="Mask" fill="#000000" fill-rule="nonzero" xlink:href="#path-1"></use>
                    <g id="Group" mask="url(#mask-2)">
                        <g transform="translate(-6.000000, -3.000000)" id="colors/brand-secondary">
                            <rect id="box" fill="#1C1F28" fill-rule="nonzero" x="0" y="0" width="26.4058266" height="25.7456809"></rect>
                        </g>
                    </g>
                </g>
            </g>
        </g>
    </g>
</svg>