<?xml version="1.0" encoding="UTF-8"?>
<svg width="18px" height="18px" viewBox="0 0 18 18" version="1.1" xmlns="http://www.w3.org/2000/svg" xmlns:xlink="http://www.w3.org/1999/xlink">
    <title>3. icons/outline/icon-search</title>
    <defs>
        <path d="M6.42757075,0 C3.59933597,0.00490615067 1.10547749,1.85190228 0.280487013,4.55263998 C-0.54450346,7.25337768 0.492576846,10.1753769 2.8367746,11.7550431 C5.18097235,13.3347092 8.28330485,13.2021036 10.4836791,11.428185 L10.4836791,11.428185 L16.8575636,17.8043152 C17.1189118,18.0652283 17.5426408,18.0652283 17.8039889,17.8043152 C18.065337,17.5434021 18.065337,17.1203784 17.8039889,16.8594652 L11.4172278,10.483335 C12.984261,8.55995482 13.3035272,5.90829478 12.2376942,3.66896562 C11.1718612,1.42963646 8.91098108,0.00194023631 6.42757075,0 Z M6.42757075,1.32407543 C8.47278085,1.35448851 10.3061579,2.59022216 11.0989056,4.47265075 C11.8916533,6.35507935 11.4935281,8.52744028 10.0845065,10.0076963 L10.0265621,10.0526892 C8.38519351,11.6764322 5.85684208,11.9990457 3.85916301,10.839639 C1.86148394,9.68023232 0.891245451,7.32711832 1.49246353,5.09969594 C2.09368161,2.87227356 4.11684975,1.32444192 6.42757075,1.32407543 L6.42757075,1.32407543 Z" id="path-1"></path>
    </defs>
    <g id="Yanbal-UI-Visual-Kit" stroke="none" stroke-width="1" fill="none" fill-rule="evenodd">
        <g id="yanbal-styleguide-pag2" transform="translate(-363.000000, -4541.000000)">
            <g id="Group" transform="translate(360.000000, 4538.000000)">
                <g id="elements" transform="translate(3.000000, 3.000000)">
                    <mask id="mask-2" fill="white">
                        <use xlink:href="#path-1"></use>
                    </mask>
                    <use id="icon" fill="#000000" fill-rule="nonzero" xlink:href="#path-1"></use>
                    <g id="Group" mask="url(#mask-2)">
                        <g transform="translate(-3.000000, -3.000000)" id="color">
                            <rect id="box" fill="#1C1F28" fill-rule="nonzero" x="0" y="0" width="24" height="24"></rect>
                        </g>
                    </g>
                </g>
            </g>
        </g>
    </g>
</svg>