<?xml version="1.0" encoding="UTF-8"?>
<svg width="19px" height="20px" viewBox="0 0 19 20" version="1.1" xmlns="http://www.w3.org/2000/svg" xmlns:xlink="http://www.w3.org/1999/xlink">
    <title>3. icons/outline/icon-archive</title>
    <defs>
        <path d="M5.5728,13.589592 L12.8592,13.589592 C13.1064,13.515192 13.2816,13.291992 13.2816,13.025592 C13.2816,12.759192 13.104,12.538392 12.864,12.463992 L5.5728,12.463992 C5.3256,12.538392 5.1504,12.761592 5.1504,13.027992 C5.1504,13.294392 5.3256,13.517592 5.568,13.589592 L5.5728,13.589592 Z M17.9016,8.964792 L16.128,8.964792 L16.128,5.307192 C16.128,5.153592 16.0656,5.011992 15.9672,4.908792 L15.9672,4.908792 L11.388,0.199992 C11.2968,0.094392 11.1624,0.027192 11.0136,0.022392 L11.0136,0.022392 L2.8464,0.022392 C2.544,0.041592 2.304,0.291192 2.304,0.598392 C2.304,0.598392 2.304,0.598392 2.304,0.598392 L2.304,0.598392 L2.304,8.967192 L0.5304,8.967192 C0.2352,8.974392 -4.54747351e-13,9.214392 -4.54747351e-13,9.509592 C-4.54747351e-13,9.511992 -4.54747351e-13,9.514392 -4.54747351e-13,9.516792 L-4.54747351e-13,9.516792 L-4.54747351e-13,19.090392 C-4.54747351e-13,19.090392 -4.54747351e-13,19.090392 -4.54747351e-13,19.090392 C-4.54747351e-13,19.385592 0.2352,19.625592 0.5304,19.632792 L0.5304,19.632792 L17.9016,19.632792 C17.9016,19.632792 17.904,19.632792 17.9064,19.632792 C18.0336,19.632792 18.1512,19.582392 18.2376,19.500792 L18.2376,19.500792 C18.2544,19.493592 18.2664,19.483992 18.2784,19.471992 L18.2784,19.471992 L18.3072,19.438392 C18.3864,19.349592 18.4344,19.231992 18.4344,19.102392 C18.4344,19.099992 18.4344,19.095192 18.4344,19.092792 L18.4344,19.092792 L18.4344,9.511992 C18.4344,9.509592 18.4344,9.507192 18.4344,9.507192 C18.432,9.211992 18.1968,8.971992 17.9016,8.964792 L17.9016,8.964792 L17.9016,8.964792 L17.9016,8.964792 Z M11.5656,1.915992 L11.6112,1.968792 L14.3184,4.757592 L11.5488,4.757592 L11.5656,1.915992 Z M3.3816,1.171992 L10.4832,1.171992 L10.4832,5.335992 C10.4832,5.335992 10.4832,5.335992 10.4832,5.338392 C10.4832,5.640792 10.716,5.887992 11.0112,5.911992 L15.0456,5.911992 L15.0456,9.022392 L3.3816,9.022392 L3.3816,1.171992 Z M17.3712,11.218392 L17.3712,18.538392 L1.0608,18.538392 L1.0608,10.059192 L17.3736,10.059192 L17.3736,11.218392 L17.3712,11.218392 Z" id="path-1"></path>
    </defs>
    <g id="Yanbal-UI-Visual-Kit" stroke="none" stroke-width="1" fill="none" fill-rule="evenodd">
        <g id="yanbal-styleguide-pag2" transform="translate(-555.000000, -4588.000000)">
            <g id="Group" transform="translate(552.000000, 4586.000000)">
                <g id="colors/brand-secondary" transform="translate(3.000000, 2.000000)">
                    <mask id="mask-2" fill="white">
                        <use xlink:href="#path-1"></use>
                    </mask>
                    <use id="Mask" fill="#000000" fill-rule="nonzero" xlink:href="#path-1"></use>
                    <g id="Group" mask="url(#mask-2)">
                        <g transform="translate(-5.000000, -3.000000)" id="colors/brand-secondary">
                            <rect id="box" fill="#1C1F28" fill-rule="nonzero" x="0" y="0" width="26.4058266" height="25.7456809"></rect>
                        </g>
                    </g>
                </g>
            </g>
        </g>
    </g>
</svg>