<?xml version="1.0" encoding="UTF-8"?>
<svg width="20px" height="18px" viewBox="0 0 20 18" version="1.1" xmlns="http://www.w3.org/2000/svg" xmlns:xlink="http://www.w3.org/1999/xlink">
    <title>3. icons/outline/icon-calendar</title>
    <defs>
        <path d="M4.54,0.000678563666 C4.84240006,-0.0126703581 5.11616835,0.172114743 5.20666667,0.450657878 L5.20666667,0.450657878 L5.20666667,1.85202203 L14.8533333,1.85202203 L14.8533333,0.643506156 C14.8921212,0.343073803 15.1336279,0.104298465 15.444133,0.0593881812 C15.7546381,0.0144778978 16.0581705,0.174420852 16.1866667,0.450657878 L16.1866667,0.450657878 L16.1866667,1.85202203 L19.3866667,1.85202203 C19.7166443,1.84835307 19.9891428,2.09968334 20,2.41771031 L20,2.41771031 L19.9733333,17.459876 C19.9761311,17.5951681 19.9206087,17.7255191 19.82,17.8198594 L19.82,17.8198594 L19.82,17.8584291 L19.7733333,17.8584291 C19.6682445,17.9519855 19.5296672,18.0026697 19.3866667,17.9999627 L19.3866667,17.9999627 L0.613333333,17.9999627 C0.283355712,18.0035201 0.0108571689,17.7521898 0,17.4341629 L0,17.4341629 L0,2.41771031 C0.0108571689,2.09968334 0.283355712,1.84835307 0.613333333,1.85202203 L0.613333333,1.85202203 L3.87333333,1.85202203 L3.87333333,0.643506156 C3.87333333,0.28848228 4.17181017,0.000678563666 4.54,0.000678563666 Z M3.81333333,2.98982687 L1.22666667,2.98982687 L1.22666667,16.8620463 L18.7733333,16.8620463 L18.7733333,2.98982687 L16.1866667,2.98982687 L16.1866667,4.27548205 C16.1866667,4.646482 15.8747584,4.94723689 15.49,4.94723689 C15.1052416,4.94723689 14.7933333,4.646482 14.7933333,4.27548205 L14.7933333,4.27548205 L14.7933333,2.98982687 L5.20666667,2.98982687 L5.20666667,4.27548205 C5.20666667,4.646482 4.89475838,4.94723689 4.51,4.94723689 C4.12524162,4.94723689 3.81333333,4.646482 3.81333333,4.27548205 L3.81333333,4.27548205 L3.81333333,2.98982687 Z M4.45398383,13.3082541 C4.89779341,13.3015805 5.26519518,13.6392383 5.27957261,14.0670053 C5.29395005,14.4947724 4.94999308,14.85466 4.50666667,14.875709 C4.28563494,14.8808855 4.07152972,14.8011534 3.91148454,14.6540651 C3.75143936,14.5069768 3.65857447,14.3045903 3.65333333,14.0914594 C3.65387046,13.6634681 4.01017425,13.3149277 4.45398383,13.3082541 Z M8.04934127,13.307936 C8.49407168,13.3023159 8.86100587,13.6421994 8.8730355,14.0709068 C8.88506513,14.4996142 8.53772824,14.8581325 8.09333333,14.875709 C7.63562295,14.8828972 7.25759247,14.5327355 7.24666667,14.0914594 C7.24704036,13.6625952 7.60461087,13.3135561 8.04934127,13.307936 Z M11.5960079,13.307936 C12.0407383,13.3023159 12.4076725,13.6421994 12.4197022,14.0709068 C12.4317318,14.4996142 12.0843949,14.8581325 11.64,14.875709 C11.1822896,14.8828972 10.8042591,14.5327355 10.7933333,14.0914594 C10.793707,13.6625952 11.1512775,13.3135561 11.5960079,13.307936 Z M15.4026746,13.307936 C15.847405,13.3023159 16.2143392,13.6421994 16.2263688,14.0709068 C16.2383985,14.4996142 15.8910616,14.8581325 15.4466667,14.875709 C14.9889563,14.8828972 14.6109258,14.5327355 14.6,14.0914594 C14.6003737,13.6625952 14.9579442,13.3135561 15.4026746,13.307936 Z M4.45819883,10.0488625 C4.90743639,10.0408778 5.2796736,10.3829796 5.29295325,10.8160374 C5.30623289,11.2490952 4.95560867,11.6118065 4.50666667,11.6294297 C4.28563494,11.6346062 4.07152972,11.5548741 3.91148454,11.4077857 C3.75143936,11.2606974 3.65857447,11.0583109 3.65333333,10.84518 C3.65005225,10.4119446 4.00896127,10.0568473 4.45819883,10.0488625 Z M8.05359036,10.048593 C8.50374535,10.0416828 8.87549155,10.3860236 8.88640215,10.8200091 C8.89731275,11.2539947 8.54330682,11.6152997 8.09333333,11.6294297 C7.63562295,11.6366179 7.25759247,11.2864561 7.24666667,10.84518 C7.24324496,10.4110795 7.60343536,10.0555031 8.05359036,10.048593 Z M11.600257,10.048593 C12.050412,10.0416828 12.4221582,10.3860236 12.4330688,10.8200091 C12.4439794,11.2539947 12.0899735,11.6152997 11.64,11.6294297 C11.1822896,11.6366179 10.8042591,11.2864561 10.7933333,10.84518 C10.7899116,10.4110795 11.150102,10.0555031 11.600257,10.048593 Z M15.4069237,10.048593 C15.8570787,10.0416828 16.2288249,10.3860236 16.2397355,10.8200091 C16.2506461,11.2539947 15.8966402,11.6152997 15.4466667,11.6294297 C14.9889563,11.6366179 14.6109258,11.2864561 14.6,10.84518 C14.5965783,10.4110795 14.9567687,10.0555031 15.4069237,10.048593 Z M4.46267095,6.73823213 C4.91108423,6.73260963 5.28100628,7.07537042 5.29303788,7.50762996 C5.30506948,7.9398895 4.95474717,8.3012896 4.50666667,8.31886761 C4.28450219,8.32403683 4.06939912,8.24342796 3.9091609,8.09495512 C3.74892268,7.94648227 3.65682433,7.74244577 3.65333333,7.52818967 C3.65370402,7.09577462 4.01425768,6.74385464 4.46267095,6.73823213 Z M8.05806536,6.73797344 C8.50738974,6.73342865 8.87681312,7.07842265 8.8864769,7.51160343 C8.89614067,7.94478421 8.54244475,8.30477711 8.09333333,8.31886761 C7.87231137,8.32230479 7.65892873,8.24092606 7.5001417,8.09263937 C7.34135466,7.94435267 7.25017473,7.74130906 7.24666667,7.52818967 C7.24690434,7.09490873 7.60874099,6.74251824 8.05806536,6.73797344 Z M11.604732,6.73797344 C12.0540564,6.73342865 12.4234798,7.07842265 12.4331436,7.51160343 C12.4428073,7.94478421 12.0891114,8.30477711 11.64,8.31886761 C11.418978,8.32230479 11.2055954,8.24092606 11.0468084,8.09263937 C10.8880213,7.94435267 10.7968414,7.74130906 10.7933333,7.52818967 C10.793571,7.09490873 11.1554077,6.74251824 11.604732,6.73797344 Z M15.4113987,6.73797344 C15.8607231,6.73342865 16.2301465,7.07842265 16.2398102,7.51160343 C16.249474,7.94478421 15.8957781,8.30477711 15.4466667,8.31886761 C15.2256447,8.32230479 15.0122621,8.24092606 14.853475,8.09263937 C14.694688,7.94435267 14.6035081,7.74130906 14.6,7.52818967 C14.6002377,7.09490873 14.9620743,6.74251824 15.4113987,6.73797344 Z" id="path-1"></path>
    </defs>
    <g id="Yanbal-UI-Visual-Kit" stroke="none" stroke-width="1" fill="none" fill-rule="evenodd">
        <g id="yanbal-styleguide-pag2" transform="translate(-218.000000, -4589.000000)">
            <g id="Group" transform="translate(216.000000, 4586.000000)">
                <g transform="translate(2.000000, 3.000000)">
                    <mask id="mask-2" fill="white">
                        <use xlink:href="#path-1"></use>
                    </mask>
                    <use id="Mask" fill="#000000" fill-rule="nonzero" xlink:href="#path-1"></use>
                    <g mask="url(#mask-2)" id="colors/brand-secondary">
                        <g transform="translate(-2.000000, -3.000000)">
                            <rect id="box" fill="#1C1F28" fill-rule="nonzero" x="0" y="0" width="24" height="24"></rect>
                        </g>
                    </g>
                </g>
            </g>
        </g>
    </g>
</svg>