<?xml version="1.0" encoding="UTF-8"?>
<svg width="20px" height="18px" viewBox="0 0 20 18" version="1.1" xmlns="http://www.w3.org/2000/svg" xmlns:xlink="http://www.w3.org/1999/xlink">
    <title>3. icons/outline/icon-historic</title>
    <defs>
        <path d="M10.6753308,0.0002018353 C10.6732342,0.0002018353 10.6705538,0.0002018353 10.6679264,0.0002018353 C6.74927448,0.0002018353 3.39739464,2.30745683 2.03359603,5.57093179 L2.01156846,5.63062458 L1.95862267,5.76476937 L1.10573102,4.2997983 C1.0136133,4.13976814 0.845832211,4.02855689 0.649468353,4.00925639 L0.646894046,4.00897887 C0.628024644,4.00701097 0.606156308,4.00582519 0.583916423,4.00582519 C0.474866673,4.00582519 0.372902902,4.03403167 0.285376479,4.08317857 L0.288056943,4.08176572 C0.114384137,4.18104346 0,4.35911265 0,4.56263832 C0,4.66784497 0.0304935901,4.76623968 0.0837313114,4.85035454 L0.0822451138,4.8478316 L1.65265173,7.53171127 C1.75530553,7.70294329 1.94583075,7.81655134 2.16422218,7.81687932 L2.1643018,7.81687932 C2.16838884,7.81703069 2.17324552,7.81713161 2.17812874,7.81713161 C2.2701403,7.81713161 2.35665823,7.79434945 2.43168467,7.75418423 L2.42903075,7.75552139 L5.21684552,6.39681661 L5.26387306,6.39681661 C5.45551293,6.30210539 5.58428134,6.11482747 5.58428134,5.8990403 C5.58428134,5.78457446 5.54810835,5.67825771 5.48611268,5.58962679 L5.48751926,5.59159468 C5.38486547,5.42036266 5.19434024,5.30675461 4.97594881,5.30642663 L4.97586919,5.30642663 C4.86984492,5.30801609 4.77085354,5.33483495 4.68446831,5.38062633 L4.68765302,5.3791378 L3.02902995,6.21226346 L3.10554259,6.03888693 C4.31119385,3.13543569 7.23709231,1.11844508 10.6585846,1.11844508 C10.6643967,1.11844508 10.6701822,1.11844508 10.6760474,1.11847031 L10.6751716,1.11847031 C15.2227505,1.11847031 18.9094494,4.62311323 18.9094494,8.94634965 C18.9094494,13.2695861 15.2228567,16.774229 10.6751716,16.774229 L10.6751716,16.774229 C6.82881259,16.7698138 3.60742621,14.2318863 2.75787851,10.8216771 L2.7469178,10.7690738 C2.68359517,10.5202109 2.45135025,10.3384077 2.17443979,10.3384077 C2.16884001,10.3384077 2.16347908,10.3385086 2.15793238,10.3386852 L2.15880818,10.33866 C2.13842604,10.3361371 2.11501842,10.3345224 2.09110657,10.3345224 C2.06719471,10.3345224 2.0437871,10.3359352 2.02077757,10.3388366 L2.0234315,10.3385591 C1.86823001,10.3746876 1.74015162,10.4654126 1.6602685,10.5878005 L1.6587823,10.5902225 C1.60405838,10.6735805 1.57149473,10.7747756 1.57149473,10.8831612 C1.57149473,10.9300627 1.57759876,10.9755513 1.58895755,11.0189963 L1.58808176,11.0151615 C2.52406778,15.0367298 6.24271995,18 10.6893436,18 C15.8315077,18 20,14.0372666 20,9.14886615 C20,9.07766875 19.9991242,9.00657226 19.9973461,8.9357533 L19.997638,8.94619828 C19.9976911,8.93623266 19.9977176,8.92440007 19.9977176,8.91251701 C19.9977176,4.00786877 15.8303399,0.028685842 10.6781175,0 L10.6753043,0 L10.6753308,0.0002018353 Z M10.7223053,3.19845876 C10.7223053,3.19845876 10.7222788,3.19845876 10.7222788,3.19845876 C10.3681391,3.19845876 10.0811703,3.47134009 10.0811703,3.80792568 C10.0811703,3.80989357 10.0811703,3.81186147 10.0811703,3.81382936 L10.0811703,3.81355184 C10.0811703,3.81355184 10.0811703,8.97427861 10.0811703,8.99670756 L10.0811703,9.18123548 C10.1146363,9.28164855 10.1737922,9.36657075 10.2512603,9.43239429 L10.2518441,9.43282319 C10.2515522,9.43781861 10.2514726,9.44374752 10.2514726,9.44955029 C10.2514726,9.45535305 10.2516849,9.46130719 10.2518972,9.46721087 L10.2518441,9.4663783 L14.1159845,13.1286546 C14.2319609,13.2386296 14.3920191,13.3066733 14.5689297,13.3066733 C14.7458403,13.3066733 14.9058985,13.2386296 15.021875,13.1286546 L15.021875,13.1286546 C15.1369491,13.0160053 15.2079681,12.8622068 15.2079681,12.6924633 C15.2079681,12.5227198 15.1370553,12.3689465 15.021875,12.2562467 L15.0220607,12.2564486 C15.0220607,12.2564486 12.0812472,9.41612131 11.3520285,8.73941801 L11.3520285,3.81340046 C11.352055,3.81171009 11.352055,3.8097422 11.352055,3.80767339 C11.352055,3.47494789 11.071721,3.20456428 10.7233669,3.19825693 L10.7227299,3.19825693 L10.7223053,3.19845876 Z" id="path-1"></path>
    </defs>
    <g id="Yanbal-UI-Visual-Kit" stroke="none" stroke-width="1" fill="none" fill-rule="evenodd">
        <g id="yanbal-styleguide-pag2" transform="translate(-314.000000, -4637.000000)">
            <g id="Group" transform="translate(312.000000, 4634.000000)">
                <g id="colors/brand-secondary" transform="translate(2.000000, 3.000000)">
                    <mask id="mask-2" fill="white">
                        <use xlink:href="#path-1"></use>
                    </mask>
                    <use id="Mask" fill="#000000" fill-rule="nonzero" xlink:href="#path-1"></use>
                    <g id="Group" mask="url(#mask-2)">
                        <g transform="translate(-4.000000, -4.000000)" id="colors/brand-secondary">
                            <rect id="box" fill="#1C1F28" fill-rule="nonzero" x="0" y="0" width="26.4058266" height="25.7456809"></rect>
                        </g>
                    </g>
                </g>
            </g>
        </g>
    </g>
</svg>