<?xml version="1.0" encoding="UTF-8"?>
<svg width="20px" height="20px" viewBox="0 0 20 20" version="1.1" xmlns="http://www.w3.org/2000/svg" xmlns:xlink="http://www.w3.org/1999/xlink">
    <title>3. icons/outline/icon-comunications</title>
    <defs>
        <path d="M9.99991584,0 C4.48742226,0 0,4.31744483 0,9.62204599 C0.00389541531,12.3888049 1.20637646,14.8740754 3.11628416,16.587116 L3.12506087,16.5949044 L2.6250771,18.7442158 C2.60865383,18.8093355 2.59925194,18.8840705 2.59925194,18.9610171 C2.59925194,19.0878912 2.62478855,19.2088278 2.67102857,19.318827 L2.66881636,19.3127694 C2.73922238,19.5080805 2.86293789,19.6699543 3.02224114,19.7855785 L3.02505449,19.7875736 C3.18200126,19.9031257 3.37422317,19.9797598 3.58303667,19.9996875 L3.58765346,20 L3.65014842,20 C3.84239438,19.9979808 4.02278578,19.9496879 4.18143979,19.8657702 L4.1750917,19.868799 L6.53131301,18.6503703 C7.56193891,19.0393098 8.75316653,19.2676736 9.99683798,19.2751254 L10.0000842,19.2751495 C15.5125777,19.2751495 20,14.9578008 20,9.64694966 C20,4.33609854 15.5125777,0 10.0000842,0 L9.99991584,0 Z M9.99991584,18.1193164 C8.73109251,18.117129 7.52413895,17.8554241 6.4283971,17.38449 L6.48747756,17.40711 L5.6250278,17.8756644 L3.75003457,18.8440949 L4.14998792,17.1758377 L4.37496017,16.2074072 C2.41313765,14.6615048 1.16314216,12.2883729 1.15616888,9.62317579 L1.15616888,9.62202196 C1.25708899,4.90013293 5.10987115,1.11092949 9.84792251,1.11092949 C9.90137626,1.11092949 9.95454147,1.11138622 10.0077307,1.11241986 L9.99977157,1.11227563 C10.0449776,1.11138622 10.098239,1.11092949 10.1515966,1.11092949 C14.889672,1.11092949 18.7425984,4.90013293 18.8433262,9.61264702 L18.8435185,9.62204599 C18.7357213,14.3385024 14.8857285,18.1206386 10.1519332,18.1206386 C10.0984795,18.1206386 10.0450978,18.1201818 9.99181241,18.1191482 L9.99977157,18.1192924 L9.99991584,18.1193164 Z M7.01867275,9.6720216 C7.01898534,9.68132441 7.0192258,9.69233395 7.0192258,9.70324733 C7.0192258,10.1691574 6.64144265,10.5466787 6.17553174,10.5466787 C5.70962083,10.5466787 5.33183769,10.1690132 5.33183769,9.70324733 C5.33183769,9.23762569 5.70921206,8.86008034 6.17490655,8.85981591 L6.1749306,8.85981591 C6.18053326,8.85964765 6.18712181,8.85955149 6.19378248,8.85955149 C6.64507356,8.85955149 7.0118197,9.22178446 7.01872084,9.67134852 L7.01872084,9.6720216 L7.01867275,9.6720216 Z M11.0124112,9.6720216 C11.0127238,9.68132441 11.0129643,9.69233395 11.0129643,9.70324733 C11.0129643,10.1691574 10.6351811,10.5466787 10.1692702,10.5466787 C9.70335931,10.5466787 9.32557617,10.1690132 9.32557617,9.70324733 C9.32557617,9.23762569 9.70295054,8.86008034 10.168645,8.85981591 L10.1686691,8.85981591 C10.1742717,8.85964765 10.1808603,8.85955149 10.187521,8.85955149 C10.638812,8.85955149 11.0055582,9.22178446 11.0124593,9.67134852 L11.0124593,9.6720216 L11.0124112,9.6720216 Z M14.6623432,9.6720216 C14.6626558,9.68132441 14.6628963,9.69230991 14.6628963,9.70322329 C14.6628963,10.1691334 14.2851131,10.5466547 13.8192022,10.5466547 C13.3532913,10.5466547 12.9755082,10.1689892 12.9755082,9.70322329 C12.9755082,9.23731319 13.3532913,8.85979188 13.8192022,8.85979188 C13.8212221,8.85979188 13.8232419,8.85979188 13.8251415,8.85981591 L13.8248289,8.85981591 C13.828556,8.8597438 13.8330045,8.85971976 13.8374289,8.85971976 C14.2886719,8.85971976 14.655394,9.22190465 14.6623673,9.67134852 L14.6623673,9.6720216 L14.6623432,9.6720216 Z" id="path-1"></path>
    </defs>
    <g id="Yanbal-UI-Visual-Kit" stroke="none" stroke-width="1" fill="none" fill-rule="evenodd">
        <g id="yanbal-styleguide-pag2" transform="translate(-1178.000000, -4588.000000)">
            <g id="Group" transform="translate(1176.000000, 4586.000000)">
                <g id="colors/brand-secondary" transform="translate(2.000000, 2.000000)">
                    <mask id="mask-2" fill="white">
                        <use xlink:href="#path-1"></use>
                    </mask>
                    <use id="Mask" fill="#000000" fill-rule="nonzero" xlink:href="#path-1"></use>
                    <g id="Group" mask="url(#mask-2)">
                        <g transform="translate(-4.000000, -3.000000)" id="colors/brand-secondary">
                            <rect id="box" fill="#1C1F28" fill-rule="nonzero" x="0" y="0" width="26.4058266" height="25.7456809"></rect>
                        </g>
                    </g>
                </g>
            </g>
        </g>
    </g>
</svg>