<?xml version="1.0" encoding="UTF-8"?>
<svg width="16px" height="22px" viewBox="0 0 16 22" version="1.1" xmlns="http://www.w3.org/2000/svg" xmlns:xlink="http://www.w3.org/1999/xlink">
    <title>3. icons/outline/icon-apple</title>
    <defs>
        <path d="M15.001235,8.32565288 C14.4749841,7.289857 13.5741637,6.51835665 12.4888338,6.19493592 L12.4598174,6.18754527 C12.1862813,6.12193791 11.8722222,6.08439537 11.5496345,6.08439537 C10.558096,6.08439537 9.64707927,6.43946576 8.92967239,7.03282935 L8.93791516,7.02629808 C8.85951355,7.0822313 8.76974835,7.13497255 8.67562354,7.1796602 L8.47095984,7.26692388 L8.47095984,7.04692315 C8.33755085,5.86444374 8.55100524,3.69881149 11.4326158,2.48193242 C11.588204,2.43066439 11.7119408,2.31658811 11.7780021,2.1693153 L11.7794791,2.1656568 C11.8079715,2.09447576 11.8245285,2.01172995 11.8245285,1.925031 C11.8245285,1.83833205 11.8079953,1.75561079 11.7779545,1.6800592 L11.779503,1.68438064 C11.720398,1.43791106 11.5076821,1.25812921 11.2542289,1.25812921 C11.2536333,1.25812921 11.2530377,1.25812921 11.2524183,1.25812921 L11.2525136,1.25812921 C11.1702765,1.26058458 11.0927325,1.27806678 11.0212634,1.30792402 L11.0257183,1.30625437 C10.3786609,1.57334902 9.81991539,1.90396396 9.31417617,2.30242066 L9.33142405,2.28938267 L9.18467415,2.39938303 L9.09795831,2.23438248 C8.64534446,1.26011806 7.84343727,0.520930316 6.86366731,0.180002835 L6.83667581,0.171875575 C6.52028208,0.0669823671 6.15600405,0.00446876496 5.778266,4.54747351e-13 L5.77605046,4.54747351e-13 C4.55840749,0.0581921591 3.4378672,0.439584061 2.47956179,1.06192097 L2.50753003,1.04497895 C2.35218002,1.13911765 2.23866326,1.29208692 2.19501946,1.47336654 L2.19401889,1.47808084 C2.19151747,1.49762555 2.19004044,1.52014125 2.19004044,1.54304981 C2.19004044,1.67713731 2.2397353,1.79924263 2.32111478,1.89099964 L2.32078126,1.89065588 C3.08614391,2.90283115 4.10677039,3.67555918 5.28348538,4.11028162 L5.32915414,4.12503837 C5.662224,4.24707002 6.04637044,4.31756356 6.44643067,4.31756356 C6.8464909,4.31756356 7.23066116,4.24709458 7.58779228,4.11745129 L7.56373102,4.12506292 L7.91059441,3.98756246 L7.75717406,4.35193868 C7.65011334,4.59958683 7.5496516,4.89717711 7.47251262,5.20436787 L7.46367427,5.24569167 C7.37357555,5.63928674 7.32192721,6.09129495 7.32192721,6.55572731 C7.32192721,6.66810938 7.32492891,6.77965663 7.33093232,6.89046727 L7.3302891,6.87502302 L7.3302891,7.22564919 L7.0634711,7.0193985 C6.36262123,6.43330279 5.45960908,6.07847794 4.47631331,6.07847794 C4.14712661,6.07847794 3.82699266,6.11823031 3.52015197,6.19336449 L3.54816786,6.18754527 C2.4279611,6.51030305 1.52130402,7.28101768 1.00412975,8.29572197 L0.993385565,8.31877785 C-0.00718191153,10.1337594 -0.294011255,12.7737682 0.326364404,15.3931274 C0.745340123,17.2328836 1.57407205,18.8311055 2.7098829,20.1403308 L2.70104455,20.1299937 C3.58745204,21.2127608 4.87820791,21.9189484 6.3302219,21.9994353 L6.34308634,22 C6.66948575,21.9904486 6.98080517,21.9433056 7.27902192,21.8627942 L7.25026752,21.86935 L7.80391486,21.6768739 C7.85770727,21.646501 7.92183888,21.6286751 7.98997276,21.6286751 C7.99256947,21.6286751 7.99514236,21.6286996 7.99769143,21.6287488 L7.99733408,21.6287488 C7.99816789,21.6287488 7.99912081,21.6287488 8.0001452,21.6287488 C8.07206694,21.6287488 8.13996259,21.6465256 8.19992517,21.6780525 L8.1974714,21.6768985 L8.74442446,21.8693746 C9.01007513,21.9392052 9.31872637,21.9860781 9.63578715,21.9996562 L9.64493519,22 C11.1121006,21.9200288 12.4053341,21.2137429 13.2874058,20.1378509 L13.2936713,20.1300183 C14.4218349,18.8294849 15.2507336,17.2286849 15.6543911,15.4588821 L15.6683514,15.3862524 C16.2820328,12.7737437 16.0352023,10.1337594 15.0013302,8.32565288 L15.001235,8.32565288 Z M7.79050249,2.6263079 C7.41776728,2.95640722 6.93034798,3.15868022 6.39718846,3.16253514 L6.39637847,3.16253514 C6.14044761,3.15875388 5.89540387,3.11630061 5.66482071,3.04055259 L5.68264034,3.0456352 C5.00325502,2.78821469 4.42113916,2.40937637 3.93295752,1.92991718 L3.93498248,1.93188147 L3.73486898,1.75313087 L3.99501653,1.65000552 C4.46042334,1.39671003 5.01226013,1.24811132 5.59773504,1.24811132 C5.92458708,1.24811132 6.24098081,1.29449317 6.5409843,1.38111846 L6.51644657,1.37507826 C7.07559703,1.53794265 7.53835949,1.8921291 7.84517636,2.36324006 L7.85051272,2.37193205 L7.93722856,2.50253293 L7.79050249,2.6263079 Z M14.5676557,15.0013002 C13.7805665,18.2463111 11.6593396,20.6869197 9.64488755,20.6869197 C9.6163952,20.6883193 9.58294766,20.6891295 9.54928571,20.6891295 C9.36768271,20.6891295 9.19141607,20.6657545 9.02310633,20.6218034 L9.03787661,20.6250445 C8.98224982,20.5962676 8.91761793,20.5725242 8.84996051,20.5573255 L8.84443357,20.5562943 C8.77406032,20.5417831 8.7115725,20.5180151 8.65415898,20.4857762 L8.65768479,20.4875195 L8.54428715,20.4875195 C8.38179022,20.4311689 8.19437441,20.3963518 7.99966874,20.3913428 L7.99731026,20.3912937 C7.77849568,20.4038652 7.57385581,20.4507136 7.38329535,20.5267071 L7.39696977,20.5219192 C7.34503556,20.5449505 7.28266685,20.5662385 7.2183923,20.5820756 L7.21017335,20.5837944 C7.14482677,20.5973234 7.08679385,20.6187342 7.03307291,20.6474374 L7.03674166,20.6456696 C6.87631734,20.690701 6.69214145,20.7164823 6.50208128,20.7164823 C6.46963431,20.7164823 6.43730645,20.7157211 6.40519299,20.7141988 L6.40971937,20.7143952 C4.40860824,20.7143952 2.27404047,18.2737621 1.48695121,15.0287758 C1.27926199,14.3120792 1.15976564,13.4886233 1.15976564,12.6364151 C1.15976564,11.2686047 1.4676069,9.97479902 2.01584641,8.82473044 L1.99392922,8.87563016 C2.38248292,8.12006513 3.03737816,7.55479092 3.8265162,7.30711822 L3.84831428,7.30127445 C4.02341359,7.26608906 4.22486117,7.24593051 4.43078749,7.24593051 C5.19953301,7.24593051 5.9046472,7.52628413 6.45531666,7.99327007 L6.44978972,7.98877675 C6.89818688,8.31980911 7.4578138,8.51817807 8.06237097,8.51817807 C8.06534885,8.51817807 8.06818379,8.51817807 8.07116167,8.51815352 L8.2374941,8.51815352 C8.26622468,8.51093475 8.29104828,8.4964972 8.31091669,8.47682972 L8.31086905,8.47687883 L8.37754972,8.47687883 C8.84996051,8.41954605 9.27281938,8.23728428 9.62466179,7.96331461 L9.61825339,7.96812713 C10.1631339,7.50637112 10.8679145,7.2263858 11.6360406,7.2263858 C11.8400135,7.2263858 12.0395552,7.24610239 12.2328791,7.2838168 L12.2130346,7.28062482 C13.0258289,7.53053191 13.6818914,8.09693559 14.0593913,8.83776843 L14.0673958,8.85500509 C14.5934322,9.95098198 14.9012258,11.241301 14.9012258,12.6056739 C14.9012258,13.4641924 14.7794187,14.2934184 14.5525281,15.0759433 L14.5676795,15.0150012 L14.5676557,15.0013002 Z" id="path-1"></path>
    </defs>
    <g id="Yanbal-UI-Visual-Kit" stroke="none" stroke-width="1" fill="none" fill-rule="evenodd">
        <g id="yanbal-styleguide-pag2" transform="translate(-508.000000, -4587.000000)">
            <g id="Group" transform="translate(504.000000, 4586.000000)">
                <g id="colors/brand-secondary" transform="translate(4.000000, 1.000000)">
                    <mask id="mask-2" fill="white">
                        <use xlink:href="#path-1"></use>
                    </mask>
                    <use id="Mask" fill="#000000" fill-rule="nonzero" xlink:href="#path-1"></use>
                    <g id="Group" mask="url(#mask-2)">
                        <g transform="translate(-6.000000, -2.000000)" id="colors/brand-secondary">
                            <rect id="box" fill="#1C1F28" fill-rule="nonzero" x="0" y="0" width="26.4058266" height="25.7456809"></rect>
                        </g>
                    </g>
                </g>
            </g>
        </g>
    </g>
</svg>