<?xml version="1.0" encoding="UTF-8"?>
<svg width="26px" height="26px" viewBox="0 0 26 26" version="1.1" xmlns="http://www.w3.org/2000/svg" xmlns:xlink="http://www.w3.org/1999/xlink">
    <title>3. icons/social/icon-fill-linkedin</title>
    <defs>
        <path d="M24.5737,0.502 L2.4187,0.502 C1.3717,0.49 0.5127,1.329 0.4997,2.376 L0.4997,24.624 C0.5117,25.671 1.3707,26.511 2.4187,26.5001491 L24.5737,26.5001491 C25.6237,26.513 26.4857,25.674 26.4997,24.624 L26.4997,2.374 C26.4847,1.325 25.6227,0.486 24.5737,0.49982731 L24.5737,0.502 Z M4.3547,22.653 L8.2107,22.653 L8.2107,10.247 L4.3547,10.247 L4.3547,22.653 Z M6.2847,8.551 C5.0497,8.551 4.0487,7.55 4.0487,6.315 C4.0487,5.081 5.0497,4.08 6.2837,4.079 C7.5187,4.079 8.5197,5.08 8.5197,6.314 C8.5197,7.55 7.5197,8.551 6.2847,8.551 L6.2847,8.551 Z M22.6537,22.653 L18.8007,22.653 L18.8007,16.62 C18.8007,15.182 18.7757,13.33 16.7977,13.33 C14.7907,13.33 14.4837,14.898 14.4837,16.516 L14.4837,22.653 L10.6317,22.653 L10.6317,10.247 L14.3297,10.247 L14.3297,11.942 L14.3817,11.942 C15.1357,10.652 16.5377,9.883 18.0307,9.939 C21.9347,9.939 22.6547,12.507 22.6547,15.848 L22.6537,22.653 Z" id="path-1"></path>
    </defs>
    <g id="Yanbal-UI-Visual-Kit" stroke="none" stroke-width="1" fill="none" fill-rule="evenodd">
        <g id="yanbal-styleguide-pag2" transform="translate(-251.000000, -5215.000000)">
            <g id="Group" transform="translate(248.000000, 5212.000000)">
                <g id="elements" transform="translate(2.500000, 2.500000)">
                    <mask id="mask-2" fill="white">
                        <use xlink:href="#path-1"></use>
                    </mask>
                    <use id="icon" fill="#000000" xlink:href="#path-1"></use>
                    <g id="Group" mask="url(#mask-2)">
                        <g transform="translate(-2.500000, -2.500000)" id="color/primary">
                            <rect id="box" fill="#1C1F28" fill-rule="nonzero" x="0" y="0" width="32" height="32"></rect>
                        </g>
                    </g>
                </g>
            </g>
        </g>
    </g>
</svg>