<?xml version="1.0" encoding="UTF-8"?>
<svg width="28px" height="28px" viewBox="0 0 28 28" version="1.1" xmlns="http://www.w3.org/2000/svg" xmlns:xlink="http://www.w3.org/1999/xlink">
    <title>3. icons/social/icon-fill-instagram </title>
    <defs>
        <path d="M14,18.667 C11.423,18.667 9.333,16.577 9.333,14 C9.333,11.423 11.423,9.333 14,9.333 C16.577,9.333 18.667,11.423 18.667,14 C18.667,16.577 16.577,18.667 14,18.667 M14,6.811 C17.971,6.811 21.189,10.029 21.189,14 C21.189,17.971 17.971,21.189 14,21.189 C10.029,21.189 6.811,17.971 6.811,14 C6.811,10.029 10.029,6.811 14,6.811 Z M21.4733,4.8464 C22.4013,4.8464 23.1533,5.5984 23.1533,6.5264 C23.1533,7.4554 22.4013,8.2074 21.4733,8.2074 C20.5453,8.2074 19.7933,7.4554 19.7933,6.5264 C19.7933,5.5984 20.5453,4.8464 21.4733,4.8464 Z M14,0 C10.198,0 9.721,0.016 8.228,0.084 C6.738,0.152 5.72,0.389 4.83,0.735 C3.909,1.093 3.128,1.571 2.35,2.35 C1.571,3.128 1.093,3.909 0.735,4.829 C0.389,5.72 0.152,6.737 0.084,8.228 C0.016,9.721 0,10.198 0,14 C0,17.802 0.016,18.279 0.084,19.772 C0.152,21.263 0.389,22.28 0.735,23.171 C1.093,24.091 1.571,24.872 2.35,25.65 C3.128,26.429 3.909,26.907 4.83,27.265 C5.72,27.611 6.738,27.848 8.228,27.916 C9.721,27.984 10.198,28 14,28 C17.802,28 18.279,27.984 19.772,27.916 C21.262,27.848 22.28,27.611 23.17,27.265 C24.091,26.907 24.872,26.429 25.65,25.65 C26.429,24.872 26.907,24.091 27.265,23.171 C27.611,22.28 27.848,21.263 27.916,19.772 C27.984,18.279 28,17.802 28,14 C28,10.198 27.984,9.721 27.916,8.228 C27.848,6.737 27.611,5.72 27.265,4.829 C26.907,3.909 26.429,3.128 25.65,2.35 C24.872,1.571 24.091,1.093 23.17,0.735 C22.28,0.389 21.262,0.152 19.772,0.084 C18.279,0.016 17.802,0 14,0 M14,2.522 C17.738,2.522 18.181,2.537 19.657,2.604 C21.022,2.666 21.764,2.895 22.257,3.086 C22.91,3.34 23.376,3.644 23.867,4.134 C24.356,4.623 24.66,5.09 24.914,5.743 C25.105,6.236 25.333,6.978 25.396,8.343 C25.463,9.819 25.478,10.262 25.478,14 C25.478,17.738 25.463,18.181 25.396,19.657 C25.333,21.022 25.105,21.764 24.914,22.257 C24.66,22.91 24.356,23.377 23.867,23.866 C23.376,24.356 22.91,24.66 22.257,24.914 C21.764,25.105 21.022,25.334 19.657,25.396 C18.181,25.463 17.738,25.478 14,25.478 C10.262,25.478 9.819,25.463 8.343,25.396 C6.978,25.334 6.236,25.105 5.743,24.914 C5.09,24.66 4.624,24.356 4.133,23.866 C3.644,23.377 3.34,22.91 3.086,22.257 C2.895,21.764 2.667,21.022 2.604,19.657 C2.537,18.181 2.522,17.738 2.522,14 C2.522,10.262 2.537,9.819 2.604,8.343 C2.667,6.978 2.895,6.236 3.086,5.743 C3.34,5.09 3.644,4.623 4.133,4.134 C4.624,3.644 5.09,3.34 5.743,3.086 C6.236,2.895 6.978,2.666 8.343,2.604 C9.819,2.537 10.262,2.522 14,2.522" id="path-1"></path>
    </defs>
    <g id="Yanbal-UI-Visual-Kit" stroke="none" stroke-width="1" fill="none" fill-rule="evenodd">
        <g id="yanbal-styleguide-pag2" transform="translate(-186.000000, -5214.000000)">
            <g id="Group" transform="translate(184.000000, 5212.000000)">
                <g id="elements" transform="translate(2.000000, 2.000000)">
                    <mask id="mask-2" fill="white">
                        <use xlink:href="#path-1"></use>
                    </mask>
                    <use id="icon" fill="#000000" xlink:href="#path-1"></use>
                    <g id="Group" mask="url(#mask-2)">
                        <g transform="translate(-2.000000, -2.000000)" id="color/primary">
                            <rect id="box" fill="#1C1F28" fill-rule="nonzero" x="0" y="0" width="32" height="32"></rect>
                        </g>
                    </g>
                </g>
            </g>
        </g>
    </g>
</svg>