<?xml version="1.0" encoding="UTF-8"?>
<svg width="28px" height="29px" viewBox="0 0 28 29" version="1.1" xmlns="http://www.w3.org/2000/svg" xmlns:xlink="http://www.w3.org/1999/xlink">
    <title>3. icons/social/icon-whatsapp</title>
    <defs>
        <path d="M20.915,17.36 C20.566,17.185 18.853,16.342 18.534,16.226 C18.215,16.11 17.982,16.051 17.751,16.401 C17.519,16.75 16.851,17.534 16.647,17.766 C16.444,17.999 16.241,18.028 15.893,17.854 C15.544,17.679 14.422,17.311 13.091,16.125 C12.056,15.201 11.357,14.06 11.153,13.712 C10.95,13.363 11.132,13.174 11.306,13.001 C11.463,12.844 11.655,12.593 11.829,12.39 C12.003,12.187 12.061,12.042 12.177,11.809 C12.293,11.577 12.235,11.374 12.148,11.199 C12.061,11.024 11.364,9.31 11.074,8.612 C10.791,7.933 10.504,8.025 10.29,8.014 C10.087,8.005 9.855,8.002 9.623,8.002 C9.391,8.002 9.013,8.089 8.694,8.438 C8.374,8.787 7.475,9.63 7.475,11.344 C7.475,13.058 8.723,14.715 8.897,14.948 C9.071,15.18 11.353,18.699 14.848,20.208 C15.679,20.566 16.328,20.781 16.834,20.941 C17.668,21.207 18.428,21.169 19.027,21.08 C19.697,20.979 21.089,20.237 21.379,19.423 C21.669,18.609 21.669,17.912 21.582,17.766 C21.495,17.621 21.263,17.534 20.915,17.36 M14.559,26.038 L14.554,26.038 C12.475,26.038 10.435,25.478 8.656,24.422 L8.233,24.172 L3.847,25.322 L5.018,21.047 L4.742,20.608 C3.582,18.762 2.97,16.631 2.97099878,14.441 C2.973,8.052 8.171,2.854 14.563,2.854 C17.658,2.855 20.567,4.062 22.756,6.253 C24.943,8.443 26.147,11.354 26.1460006,14.451 C26.144,20.839 20.945,26.038 14.559,26.038 M24.421,4.589 C21.788,1.953 18.288,0.502 14.559,0.5 C6.874,0.5 0.62,6.754 0.617,14.44 C0.616,16.897 1.258,19.296 2.478,21.41 L0.5,28.634 L7.891,26.696 C9.927,27.806 12.22,28.391 14.553,28.392 L14.559,28.392 C14.559,28.392 14.558,28.392 14.559,28.392 C22.242,28.392 28.497,22.138 28.5,14.452 C28.502,10.726 27.053,7.223 24.421,4.589" id="path-1"></path>
    </defs>
    <g id="Yanbal-UI-Visual-Kit" stroke="none" stroke-width="1" fill="none" fill-rule="evenodd">
        <g id="yanbal-styleguide-pag2" transform="translate(-378.000000, -5214.000000)">
            <g id="Group" transform="translate(376.000000, 5212.000000)">
                <g id="elements" transform="translate(1.500000, 1.500000)">
                    <mask id="mask-2" fill="white">
                        <use xlink:href="#path-1"></use>
                    </mask>
                    <use id="icon" fill="#000000" xlink:href="#path-1"></use>
                    <g id="Group" mask="url(#mask-2)">
                        <g transform="translate(-1.500000, -1.500000)" id="color/primary">
                            <rect id="box" fill="#1C1F28" fill-rule="nonzero" x="0" y="0" width="32" height="32"></rect>
                        </g>
                    </g>
                </g>
            </g>
        </g>
    </g>
</svg>