<?xml version="1.0" encoding="UTF-8"?>
<svg width="12px" height="20px" viewBox="0 0 12 20" version="1.1" xmlns="http://www.w3.org/2000/svg" xmlns:xlink="http://www.w3.org/1999/xlink">
    <title>CE250860-7E15-4122-A0AA-84E750DE603E@2x</title>
    <defs>
        <path d="M11.4024489,7.63612338 L8.40366914,7.63612338 L11.2585092,1.01961257 C11.2938305,0.936019473 11.3144239,0.838542556 11.3144239,0.736043357 C11.3144239,0.423233301 11.1229182,0.157074666 10.8555679,0.0581691884 L10.85073,0.0566067006 C10.7637967,0.0209596577 10.6631417,0.000312497559 10.5578627,0.000312497559 C10.557563,0.000312497559 10.5571563,0.000312497559 10.5568566,0.000312497559 L4.14545961,0.000312497559 C4.13948709,0 4.13252986,0 4.12542279,0 C3.76548786,0 3.46529948,0.266560417 3.39654065,0.620687115 L3.39570578,0.625642434 L0.00704285653,10.8630625 C0.00254741619,10.8944461 0,10.9306289 0,10.967459 C0,11.3502461 0.2771546,11.6654669 0.633578799,11.7070514 L0.636832641,11.7073639 L3.26972642,11.7073639 L0.942651025,19.2119035 C0.926082117,19.2648049 0.916513251,19.3257196 0.916513251,19.3889557 C0.916513251,19.626119 1.05111958,19.8304254 1.24506572,19.9233488 L1.24855504,19.9249113 C1.33572377,19.9721877 1.43886201,20 1.54825106,20 C1.55039175,20 1.55261806,20 1.55475874,20 L1.55445905,20 C1.55518688,20 1.55600034,20 1.55692084,20 C1.7456223,20 1.91548572,19.9158712 2.03384424,19.7815419 L2.03425097,19.7810731 L11.8522927,8.63689681 C11.943807,8.53359405 12,8.39497906 12,8.24270346 C12,8.05469154 11.9144582,7.88743838 11.78165,7.78114457 L11.7803014,7.78016243 C11.6768421,7.69534167 11.5461104,7.64210547 11.4036477,7.63636891 L11.4024275,7.63632427 L11.4024489,7.63612338 Z" id="path-1"></path>
    </defs>
    <g id="Yanbal-UI-Visual-Kit" stroke="none" stroke-width="1" fill="none" fill-rule="evenodd">
        <g id="yanbal-styleguide-pag2" transform="translate(-326.000000, -4860.000000)">
            <g id="3.-icons/fill/aenergy" transform="translate(326.000000, 4860.000000)">
                <mask id="mask-2" fill="white">
                    <use xlink:href="#path-1"></use>
                </mask>
                <use id="Mask" fill="#000000" fill-rule="nonzero" xlink:href="#path-1"></use>
                <g id="colors/brand-secondary" mask="url(#mask-2)" fill="#1C1F28" fill-rule="nonzero">
                    <g transform="translate(-8.000000, -3.000000)" id="box">
                        <rect x="0" y="0" width="26.4058266" height="25.7456809"></rect>
                    </g>
                </g>
            </g>
        </g>
    </g>
</svg>