<?xml version="1.0" encoding="UTF-8"?>
<svg width="96px" height="96px" viewBox="0 0 96 96" version="1.1" xmlns="http://www.w3.org/2000/svg" xmlns:xlink="http://www.w3.org/1999/xlink">
    <title>49C70BE8-3EBA-48AE-B7E5-07BE032E56B1@2x</title>
    <defs>
        <path d="M10.7629157,76.7364826 L37.820473,76.7364826 L37.820473,53.1249344 L10.7629157,53.1249344 L10.7629157,76.7364826 Z M41.069515,49.859086 L41.069515,80 L7.51155296,80 L7.51155296,49.859086 L41.069515,49.859086 Z M80,49.859086 L80,80 L46.4397172,80 L46.4397172,49.859086 L80,49.859086 Z M76.7486373,53.1249344 L49.6887592,53.1249344 L49.6887592,76.7364826 L76.7486373,76.7364826 L76.7486373,53.1249344 Z M63.2191624,20.6993252 C70.5271861,20.6993252 76.4752536,26.6715619 76.4752536,34.014476 C76.4752536,41.355059 70.5271861,47.3272958 63.2191624,47.3272958 C55.9111387,47.3272958 49.9630712,41.355059 49.9630712,34.014476 C49.9630712,26.6715619 55.9111387,20.6993252 63.2191624,20.6993252 Z M24.2900698,20.6993252 C31.6004143,20.6993252 37.5484818,26.6715619 37.5484818,34.014476 C37.5484818,41.355059 31.6004143,47.3272958 24.2900698,47.3272958 C16.9820461,47.3272958 11.0339786,41.355059 11.0339786,34.014476 C11.0339786,26.6715619 16.9820461,20.6993252 24.2900698,20.6993252 Z M63.2191624,23.9628425 C57.7004325,23.9628425 53.2121131,28.4711587 53.2121131,34.014476 C53.2121131,39.5554623 57.7004325,44.0637785 63.2191624,44.0637785 C68.7378922,44.0637785 73.2262116,39.5554623 73.2262116,34.014476 C73.2262116,28.4711587 68.7378922,23.9628425 63.2191624,23.9628425 Z M24.2900698,23.9628425 C18.77134,23.9628425 14.2830206,28.4711587 14.2830206,34.014476 C14.2830206,39.5554623 18.77134,44.0637785 24.2900698,44.0637785 C29.8087997,44.0637785 34.2971191,39.5554623 34.2971191,34.014476 C34.2971191,28.4711587 29.8087997,23.9628425 24.2900698,23.9628425 Z M10.0789923,0 C10.0789923,3.78101798 13.1446955,6.86037973 16.9089427,6.86037973 L16.9089427,10.1238971 C13.1446955,10.1238971 10.0789923,13.2032589 10.0789923,16.9842768 L6.82995037,16.9842768 C6.82762962,13.2032589 3.76424719,10.1238971 0,10.1238971 L0,6.86037973 C3.76424719,6.86037973 6.82762962,3.78101798 6.82995037,0 L10.0789923,0 Z M8.45447135,5.50602002 C7.68166351,6.69720386 6.66749827,7.7158875 5.4792772,8.49213842 C6.66749827,9.26838934 7.68166351,10.287073 8.45447135,11.4782568 C9.22495844,10.287073 10.2414444,9.26838934 11.4273447,8.49213842 C10.2414444,7.7158875 9.22495844,6.69720386 8.45447135,5.50602002 Z" id="path-1"></path>
    </defs>
    <g id="Yanbal-UI-Visual-Kit" stroke="none" stroke-width="1" fill="none" fill-rule="evenodd">
        <g id="yanbal-styleguide-pag2" transform="translate(-240.000000, -6452.000000)">
            <g id="3.-icons/decorative/encuesta2-orange" transform="translate(240.000000, 6452.000000)">
                <g id="colors/brand-secondary" transform="translate(8.000000, 8.000000)">
                    <mask id="mask-2" fill="white">
                        <use xlink:href="#path-1"></use>
                    </mask>
                    <use id="Mask" fill="#1C1F28" xlink:href="#path-1"></use>
                    <g mask="url(#mask-2)" fill="#DC582A" fill-rule="nonzero" id="box">
                        <g transform="translate(-16.000000, -12.000000)">
                            <rect x="0" y="0" width="105.623306" height="102.982724"></rect>
                        </g>
                    </g>
                </g>
            </g>
        </g>
    </g>
</svg>