<?xml version="1.0" encoding="UTF-8"?>
<svg width="24px" height="24px" viewBox="0 0 24 24" version="1.1" xmlns="http://www.w3.org/2000/svg" xmlns:xlink="http://www.w3.org/1999/xlink">
    <title>BAA672EE-9885-4422-AB21-90ED80880EC4@2x</title>
    <defs>
        <path d="M10,0 C15.4292055,0 19.8479306,4.32670461 19.9961582,9.72009688 L20,10 C20,15.5228125 15.5228125,20 10,20 C4.4771875,20 0,15.5228125 0,10 C0,4.4771875 4.4771875,0 10,0 Z M10.05,13.7499777 C10.0478125,13.7499777 10.045625,13.7499777 10.04375,13.75 L10.04375,13.75 L9.93792254,13.7565793 C9.52192638,13.8086655 9.20002232,14.1636538 9.20002232,14.59375 C9.20002232,15.0597098 9.5778125,15.4375 10.0437723,15.4375 C10.5097321,15.4375 10.8875223,15.0597098 10.8875223,14.59375 L10.8875223,14.59375 C10.8875223,14.124933 10.5125446,13.7499777 10.05,13.7499777 Z M10.625,11.9125 C10.6256696,11.3528125 10.9446875,10.8678125 11.410625,10.6287946 L11.41875,10.625 C12.4766295,10.0898884 13.1893304,9.01109375 13.1893304,7.76591518 C13.1893304,6.04977679 11.8357813,4.64979911 10.1379464,4.57529018 L10.13125,4.575 L10,4.575 C9.99611607,4.575 9.9915625,4.575 9.98700893,4.575 C8.24982143,4.575 6.83787946,5.96741071 6.80622768,7.69709821 L6.80622768,7.70004464 L6.80622768,7.78754464 C6.83810268,8.08825893 7.0903125,8.32042411 7.39685268,8.32042411 C7.70339286,8.32042411 7.95560268,8.08823661 7.98723214,7.79011161 L7.98747768,7.7875 C7.98734375,7.78008929 7.98729911,7.77129464 7.98729911,7.7625 C7.98729911,6.65450893 8.88553571,5.75625 9.99354911,5.75625 C9.99575893,5.75625 9.99808036,5.75625 10.0002679,5.75627232 L10.0687054,5.75627232 C11.1511384,5.79325893 12.0146205,6.67966518 12.0146205,7.76770089 C12.0146205,8.55194196 11.5660714,9.23140625 10.9114509,9.56354911 L10.8999554,9.56886161 C10.0287946,9.99100446 9.43517857,10.8617634 9.41872768,11.8729241 L9.41870536,11.8751116 L9.41870536,12.2563616 C9.45058036,12.5570759 9.70279018,12.7892411 10.0093304,12.7892411 C10.3158705,12.7892411 10.5680804,12.5570536 10.5997098,12.2589286 L10.5999554,12.256317 L10.625,11.9125 Z" id="path-1"></path>
    </defs>
    <g id="Yanbal-UI-Visual-Kit" stroke="none" stroke-width="1" fill="none" fill-rule="evenodd">
        <g id="yanbal-styleguide-pag2" transform="translate(-368.000000, -4966.000000)">
            <g id="3.-icons/fill/ask-copy" transform="translate(368.000000, 4966.000000)">
                <g id="Group" transform="translate(2.000000, 2.000000)">
                    <mask id="mask-2" fill="white">
                        <use xlink:href="#path-1"></use>
                    </mask>
                    <use id="Mask" fill="#000000" fill-rule="nonzero" xlink:href="#path-1"></use>
                    <g id="color/primary" mask="url(#mask-2)" fill="#DC582A" fill-rule="nonzero">
                        <g transform="translate(-2.000000, -2.000000)" id="box">
                            <rect x="0" y="0" width="24" height="24"></rect>
                        </g>
                    </g>
                </g>
            </g>
        </g>
    </g>
</svg>