<?xml version="1.0" encoding="UTF-8"?>
<svg width="24px" height="24px" viewBox="0 0 24 24" version="1.1" xmlns="http://www.w3.org/2000/svg" xmlns:xlink="http://www.w3.org/1999/xlink">
    <title>B7EFD551-CA52-4309-8518-BA2997C1ADDD@2x</title>
    <defs>
        <path d="M10,-4.54747351e-13 C15.5228125,-4.54747351e-13 20,4.4771875 20,10 L20,10 L19.9961582,10.2799031 C19.8479306,15.6732954 15.4292055,20 10,20 C4.4771875,20 4.54747351e-13,15.5228125 4.54747351e-13,10 C4.54747351e-13,4.4771875 4.4771875,-4.54747351e-13 10,-4.54747351e-13 Z M14.15,6.55825893 C14.0185536,6.55825893 13.8965643,6.59885893 13.7959293,6.66819607 L13.725,6.72508929 L8.45625,11.9938393 L6.25,9.81883929 C6.13881696,9.71546875 5.98930804,9.65209821 5.825,9.65209821 C5.66069196,9.65209821 5.51116071,9.71553571 5.39964286,9.81924107 C5.2878125,9.92611607 5.218125,10.076875 5.218125,10.2439286 C5.218125,10.4109821 5.2878125,10.5617411 5.39973214,10.6687054 L8.00622768,13.2752009 C8.11642857,13.3815402 8.26589286,13.4478125 8.43078125,13.4502009 L8.44145089,13.4503125 L8.44145089,13.4503125 C8.59171875,13.4503125 8.72863839,13.3933036 8.83176339,13.2997991 L8.83129464,13.3002232 L8.88131696,13.3002232 L8.88131696,13.2502009 L14.550067,7.58145089 C14.6628795,7.46841518 14.7325893,7.31238839 14.7325893,7.14002232 C14.7325893,6.98051339 14.6728795,6.83497768 14.5745313,6.72457589 C14.463817,6.62162946 14.314308,6.55825893 14.15,6.55825893 Z" id="path-1"></path>
    </defs>
    <g id="Yanbal-UI-Visual-Kit" stroke="none" stroke-width="1" fill="none" fill-rule="evenodd">
        <g id="yanbal-styleguide-pag2" transform="translate(-464.000000, -4966.000000)">
            <g id="3.-icons/fill/check-circle-copy" transform="translate(464.000000, 4966.000000)">
                <g id="colors/brand-secondary" transform="translate(2.000000, 2.000000)">
                    <mask id="mask-2" fill="white">
                        <use xlink:href="#path-1"></use>
                    </mask>
                    <use id="Mask" fill="#000000" fill-rule="nonzero" xlink:href="#path-1"></use>
                    <g mask="url(#mask-2)" fill="#DC582A" fill-rule="nonzero" id="box">
                        <g transform="translate(-4.000000, -3.000000)">
                            <rect x="0" y="0" width="26.4058266" height="25.7456809"></rect>
                        </g>
                    </g>
                </g>
            </g>
        </g>
    </g>
</svg>