<?xml version="1.0" encoding="UTF-8"?>
<svg width="96px" height="96px" viewBox="0 0 96 96" version="1.1" xmlns="http://www.w3.org/2000/svg" xmlns:xlink="http://www.w3.org/1999/xlink">
    <title>028C5991-3CF4-469E-B2D6-0A063AE040BB</title>
    <defs>
        <path d="M41.7638758,64.7765757 L41.7638758,80 L38.2361242,80 L38.2361242,64.7765757 L41.7638758,64.7765757 Z M21.2328316,56.2753998 L23.7281279,58.7683443 L12.9637817,69.5326905 L10.4684854,67.0373942 L21.2328316,56.2753998 Z M58.7681091,56.2739887 L69.5301035,67.0383349 L67.037159,69.5312794 L56.2728128,58.769285 L58.7681091,56.2739887 Z M39.9995296,19.7761054 C51.1519285,19.7761054 60.2276576,28.8471308 60.2276576,39.9995296 C60.2276576,51.1542803 51.1519285,60.2276576 39.9995296,60.2276576 C28.8471308,60.2276576 19.7737535,51.1542803 19.7737535,39.9995296 C19.7737535,28.8471308 28.8471308,19.7761054 39.9995296,19.7761054 Z M39.9995296,23.303857 C30.7920978,23.303857 23.3015052,30.7920978 23.3015052,39.9995296 C23.3015052,49.2069614 30.7920978,56.6999059 39.9995296,56.6999059 C49.2069614,56.6999059 56.6999059,49.2069614 56.6999059,39.9995296 C56.6999059,30.7920978 49.2069614,23.303857 39.9995296,23.303857 Z M15.2234243,38.2361242 L15.2234243,41.7638758 L0,41.7638758 L0,38.2361242 L15.2234243,38.2361242 Z M80,38.2361242 L80,41.7638758 L64.7765757,41.7638758 L64.7765757,38.2361242 L80,38.2361242 Z M12.9630762,10.4696613 L23.7274224,21.2340075 L21.2321261,23.7293039 L10.4677799,12.9626058 L12.9630762,10.4696613 Z M67.0355127,10.4682502 L69.530809,12.9635466 L58.7664628,23.7278928 L56.2735183,21.2349483 L67.0355127,10.4682502 Z M41.7638758,0 L41.7638758,15.2234243 L38.2361242,15.2234243 L38.2361242,0 L41.7638758,0 Z" id="path-1"></path>
    </defs>
    <g id="Yanbal-UI-Visual-Kit" stroke="none" stroke-width="1" fill="none" fill-rule="evenodd">
        <g id="yanbal-styleguide-pag2" transform="translate(-840.000000, -6326.000000)">
            <g id="3.-icons/decorative/encuesta7" transform="translate(840.000000, 6326.000000)">
                <g id="colors/brand-secondary" transform="translate(8.000000, 8.000000)">
                    <mask id="mask-2" fill="white">
                        <use xlink:href="#path-1"></use>
                    </mask>
                    <use id="Mask" fill="#1C1F28" xlink:href="#path-1"></use>
                    <g mask="url(#mask-2)" fill="#1C1F28" fill-rule="nonzero" id="box">
                        <g transform="translate(-16.000000, -12.000000)">
                            <rect x="0" y="0" width="105.623306" height="102.982724"></rect>
                        </g>
                    </g>
                </g>
            </g>
        </g>
    </g>
</svg>