<?xml version="1.0" encoding="UTF-8"?>
<svg width="96px" height="96px" viewBox="0 0 96 96" version="1.1" xmlns="http://www.w3.org/2000/svg" xmlns:xlink="http://www.w3.org/1999/xlink">
    <title>EFFA17B1-ACD9-490C-80CF-530B0C77DD19</title>
    <defs>
        <path d="M75.3924823,74.0488499 C74.7200826,74.0488499 74.1717835,74.6087142 74.1717835,75.2952967 C74.1717835,75.9841833 74.7200826,76.5440476 75.3924823,76.5440476 C76.0671384,76.5440476 76.6154376,75.9841833 76.6154376,75.2952967 C76.6154376,74.6087142 76.0671384,74.0488499 75.3924823,74.0488499 M75.3924823,70.5928974 C77.9331605,70.5928974 80,72.7033324 80,75.2952967 C80,77.889565 77.9331605,80 75.3924823,80 C72.8540605,80 70.787221,77.889565 70.787221,75.2952967 C70.787221,72.7033324 72.8540605,70.5928974 75.3924823,70.5928974 Z M39.9998872,70.5928974 C42.538309,70.5928974 44.6051485,72.7033324 44.6051485,75.2952967 C44.6051485,77.889565 42.538309,80 39.9998872,80 C37.4614653,80 35.3946259,77.889565 35.3946259,75.2952967 C35.3946259,72.7033324 37.4614653,70.5928974 39.9998872,70.5928974 Z M4.6052613,70.5928974 C7.14368314,70.5928974 9.2105226,72.7033324 9.2105226,75.2952967 C9.2105226,77.889565 7.14368314,80 4.6052613,80 C2.06683947,80 0,77.889565 0,75.2952967 C0,72.7033324 2.06683947,70.5928974 4.6052613,70.5928974 Z M39.9998872,74.0488499 C39.3274874,74.0488499 38.7791883,74.6087142 38.7791883,75.2952967 C38.7791883,75.9841833 39.3274874,76.5440476 39.9998872,76.5440476 C40.6722869,76.5440476 41.220586,75.9841833 41.220586,75.2952967 C41.220586,74.6087142 40.6722869,74.0488499 39.9998872,74.0488499 Z M4.6052613,74.0488499 C3.93286156,74.0488499 3.38456245,74.6087142 3.38456245,75.2952967 C3.38456245,75.9841833 3.93286156,76.5440476 4.6052613,76.5440476 C5.27766104,76.5440476 5.82596016,75.9841833 5.82596016,75.2952967 C5.82596016,74.6087142 5.27766104,74.0488499 4.6052613,74.0488499 Z M41.6932966,46.4196621 L41.693,51.067 L77.0847635,51.0679181 L77.0847635,68.8153859 L73.7002011,68.8153859 L73.7002011,54.5238706 L41.693,54.523 L41.6932966,68.8165379 L38.3087341,68.8165379 L38.308,54.523 L6.29776816,54.5238706 L6.29776816,68.8153859 L2.91320572,68.8153859 L2.91320572,51.0679181 L38.308,51.067 L38.3087341,46.4196621 L41.6932966,46.4196621 Z M53.2572183,22.6242775 L53.2572183,44.6271747 L26.7425561,44.6271747 L26.7425561,22.6242775 L53.2572183,22.6242775 Z M49.8726558,26.0802299 L30.1271185,26.0802299 L30.1271185,41.1712223 L49.8726558,41.1712223 L49.8726558,26.0802299 Z M39.9998872,0 C45.8281037,0 50.5687475,4.84294136 50.5687475,10.7940915 C50.5687475,16.7452416 45.8281037,21.583575 39.9998872,21.583575 C34.1716706,21.583575 29.4287705,16.7452416 29.4287705,10.7940915 C29.4287705,4.84294136 34.1716706,0 39.9998872,0 Z M39.9998872,3.45595245 C36.0376927,3.45595245 32.8133329,6.74832314 32.8133329,10.7940915 C32.8133329,14.8375558 36.0376927,18.1276226 39.9998872,18.1276226 C43.9620816,18.1276226 47.1841851,14.8375558 47.1841851,10.7940915 C47.1841851,6.74832314 43.9620816,3.45595245 39.9998872,3.45595245 Z" id="path-1"></path>
    </defs>
    <g id="Yanbal-UI-Visual-Kit" stroke="none" stroke-width="1" fill="none" fill-rule="evenodd">
        <g id="yanbal-styleguide-pag2" transform="translate(-360.000000, -6452.000000)">
            <g id="3.-icons/decorative/encuesta3-copy" transform="translate(360.000000, 6452.000000)">
                <g id="colors/brand-secondary" transform="translate(8.000000, 8.000000)">
                    <mask id="mask-2" fill="white">
                        <use xlink:href="#path-1"></use>
                    </mask>
                    <use id="Mask" fill="#1C1F28" xlink:href="#path-1"></use>
                    <g mask="url(#mask-2)" fill="#DC582A" fill-rule="nonzero" id="box">
                        <g transform="translate(-16.000000, -12.000000)">
                            <rect x="0" y="0" width="105.623306" height="102.982724"></rect>
                        </g>
                    </g>
                </g>
            </g>
        </g>
    </g>
</svg>