<?xml version="1.0" encoding="UTF-8"?>
<svg width="96px" height="96px" viewBox="0 0 96 96" version="1.1" xmlns="http://www.w3.org/2000/svg" xmlns:xlink="http://www.w3.org/1999/xlink">
    <title>9BCED6E8-C85E-4587-8671-EBE81E26E4D7</title>
    <defs>
        <path d="M44.0491368,3.55115348 C24.44466,3.72813009 6.49237193,18.7805805 4.0277949,37.1059183 C2.67464492,47.1699881 6.09614569,57.7885845 13.4151171,66.2339083 C20.6917247,74.6320382 30.6472204,79.6534545 41.4450084,80.36844 C46.2719909,80.6917173 51.191177,80.1725859 55.8711322,78.8676784 C39.065159,66.6256165 32.1349378,44.0103657 39.7479639,25.3570312 C42.9900415,17.4190405 48.6543323,10.3470552 55.8811001,5.1345042 C54.5005383,4.74751535 53.0975485,4.42659777 51.6820988,4.1811902 C49.2349657,3.75644634 46.6682171,3.52991629 44.0491368,3.55115348 M44.231052,84 C43.2118285,84 42.197589,83.9646047 41.1833495,83.8985334 C29.3513862,83.115117 18.4613947,77.6382809 10.52441,68.4803313 C2.55752144,59.2846268 -1.163018,47.6867598 0.3197154,36.6575776 C3.01106342,16.6427031 22.6130482,0.202756061 44.0192329,0.0116213242 L44.0316929,0.0116213242 C46.8924961,-0.0638886951 49.6810317,0.235791694 52.3549358,0.700650251 C55.1858352,1.19382506 57.9693868,1.94892526 60.628339,2.94707333 L64,4.21186615 L60.9572815,6.07837944 C52.9305853,11.0006888 46.6383133,18.3015638 43.2342564,26.6336225 C35.9651248,44.4445483 43.0623092,66.1701967 59.7461749,77.1687029 C61.0644371,78.0252697 62.213244,78.7709312 61.5628348,80.1678665 L60.9373456,81.5105291 L59.9804219,81.3005168 C54.9515883,83.0797216 49.5713842,84 44.231052,84" id="path-1"></path>
    </defs>
    <g id="Yanbal-UI-Visual-Kit" stroke="none" stroke-width="1" fill="none" fill-rule="evenodd">
        <g id="yanbal-styleguide-pag2" transform="translate(-1080.000000, -6452.000000)">
            <g id="3.-icons/decorative/encuesta9-copy" transform="translate(1080.000000, 6452.000000)">
                <g id="colors/brand-secondary" transform="translate(16.000000, 8.000000)">
                    <mask id="mask-2" fill="white">
                        <use xlink:href="#path-1"></use>
                    </mask>
                    <use id="Mask" fill="#1C1F28" xlink:href="#path-1"></use>
                    <g mask="url(#mask-2)" fill="#DC582A" fill-rule="nonzero" id="box">
                        <g transform="translate(-24.000000, -12.000000)">
                            <rect x="0" y="0" width="105.623306" height="102.982724"></rect>
                        </g>
                    </g>
                </g>
            </g>
        </g>
    </g>
</svg>