<?xml version="1.0" encoding="UTF-8"?>
<svg width="96px" height="96px" viewBox="0 0 96 96" version="1.1" xmlns="http://www.w3.org/2000/svg" xmlns:xlink="http://www.w3.org/1999/xlink">
    <title>89912F38-9D70-40CE-AE1C-7A19D3EB5104</title>
    <defs>
        <path d="M56.6913308,68.6868687 L46.6858089,73.9460176 L48.5963556,62.8095159 L40.5013805,54.9230005 L51.6885699,53.2957995 L56.6913308,43.1638792 L61.6940917,53.2957995 L72.8812811,54.9230005 L64.7863059,62.8095159 L66.6968526,73.9460176 L56.6913308,68.6868687 Z M3.31308669,61.8557156 L3.31308669,15.75316 L16.8923247,15.75316 L16.8923247,23.7699398 L20.2054114,23.7699398 L20.2054114,15.75316 L38.1424627,15.75316 L38.1424627,23.7699398 L41.4555494,23.7699398 L41.4555494,15.75316 L55.0347874,15.75316 L55.0347874,39.0329525 L49.4886803,50.2688083 L33.3826615,52.6113595 L42.8735505,61.8557156 L3.31308669,61.8557156 Z M20.2054114,12.2735552 C20.2054114,7.33233979 24.2297073,3.31180659 29.1750414,3.31180659 C34.1181668,3.31180659 38.1424627,7.33233979 38.1424627,12.2735552 L38.1424627,12.4413534 L20.2054114,12.4413534 L20.2054114,12.2735552 Z M80,52.6113595 L63.8939812,50.2688083 L58.3478741,39.0329525 L58.3478741,12.4413534 L41.4555494,12.4413534 L41.4555494,12.2735552 C41.4555494,5.50643042 35.9447819,0 29.1750414,0 C22.4030922,0 16.8923247,5.50643042 16.8923247,12.2735552 L16.8923247,12.4413534 L0,12.4413534 L0,65.1675222 L44.8304804,65.1675222 L42.2860298,80 L56.6913308,72.4292101 L71.0966317,80 L68.344561,63.9642325 L80,52.6113595 Z" id="path-1"></path>
    </defs>
    <g id="Yanbal-UI-Visual-Kit" stroke="none" stroke-width="1" fill="none" fill-rule="evenodd">
        <g id="yanbal-styleguide-pag2" transform="translate(-720.000000, -6326.000000)">
            <g id="3.-icons/decorative/encuesta6" transform="translate(720.000000, 6326.000000)">
                <g id="colors/brand-secondary" transform="translate(8.000000, 8.000000)">
                    <mask id="mask-2" fill="white">
                        <use xlink:href="#path-1"></use>
                    </mask>
                    <use id="Mask" fill="#1C1F28" xlink:href="#path-1"></use>
                    <g mask="url(#mask-2)" fill="#1C1F28" fill-rule="nonzero" id="box">
                        <g transform="translate(-16.000000, -12.000000)">
                            <rect x="0" y="0" width="105.623306" height="102.982724"></rect>
                        </g>
                    </g>
                </g>
            </g>
        </g>
    </g>
</svg>