<?xml version="1.0" encoding="UTF-8"?>
<svg width="96px" height="96px" viewBox="0 0 96 96" version="1.1" xmlns="http://www.w3.org/2000/svg" xmlns:xlink="http://www.w3.org/1999/xlink">
    <title>DD7F3637-FAC0-413A-9438-63235C5E5FDA</title>
    <defs>
        <path d="M65.1411958,62.5959872 C57.8549052,62.5959872 53.9694846,60.7130638 53.6652318,60.0514349 L53.6652318,57.0061291 C56.5297154,58.3339187 60.8410899,58.9615598 65.1411958,58.9615598 C69.4480629,58.9615598 73.7639449,58.3316528 76.6284285,56.9993316 L76.6329359,59.9653325 C76.3151608,60.7130638 72.4297401,62.5959872 65.1411958,62.5959872 L65.1411958,62.5959872 Z M65.1411958,76.6012213 C57.8526515,76.6012213 53.9694846,74.7205637 53.6652318,74.056669 L53.6652318,71.0113633 C56.5297154,72.3368869 60.8410899,72.9645281 65.1411958,72.9645281 C69.4480629,72.9645281 73.7639449,72.3368869 76.6284285,71.0045657 L76.6329359,73.9705666 C76.3151608,74.7205637 72.4319939,76.6012213 65.1411958,76.6012213 L65.1411958,76.6012213 Z M53.6652318,64.0416011 C56.5297154,65.3671247 60.8410899,65.9947659 65.1411958,65.9947659 C69.4435555,65.9947659 73.7571837,65.3671247 76.6216673,64.0393352 L76.623921,66.9418922 C76.2881161,67.6964211 72.4117104,69.5657494 65.1411958,69.5657494 C57.8526515,69.5657494 53.9694846,67.6850918 53.6652318,67.021197 L53.6652318,64.0416011 Z M53.6652318,53.0159629 L53.6652318,51.7448197 L53.6652318,50.2561546 C55.1233914,50.9313787 56.9556692,51.4208028 58.9704987,51.7448197 C60.9154628,52.0552415 63.0294562,52.2093195 65.1411958,52.2093195 C67.8050979,52.2093195 70.469,51.9668732 72.7948435,51.4683857 C74.2259584,51.1602298 75.5308648,50.756908 76.6216673,50.2538888 L76.623921,52.9366581 C76.4391156,53.3558408 75.1274481,54.1081038 72.7948435,54.7017572 C72.1525321,54.8671644 71.4313403,55.0144448 70.6267607,55.1435984 C69.0807059,55.3883105 67.2754727,55.5627811 65.1411958,55.5627811 C63.0024115,55.5627811 61.1926709,55.3883105 59.6443623,55.1435984 C55.9167024,54.5499451 53.8793356,53.4849944 53.6652318,53.0159629 L53.6652318,53.0159629 Z M60.0320029,44.0749091 C61.4946699,43.861919 63.1849632,43.7214361 65.1411958,43.7214361 C65.3665683,43.7214361 65.5603885,43.7372971 65.7789998,43.7418288 C67.1086971,43.7599556 68.3257082,43.8415263 69.4142571,43.968414 C70.7214171,44.122492 71.8415181,44.3332163 72.7948435,44.5779283 C74.9922247,45.1375939 76.2813549,45.8377423 76.583354,46.2659884 C76.2813549,46.6942345 74.9922247,47.394383 72.7948435,47.9540485 C71.8415181,48.1964947 70.7214171,48.407219 69.4142571,48.5635628 C68.147664,48.7108432 66.7368326,48.8105407 65.1411958,48.8105407 C63.1894706,48.8105407 61.5014311,48.6700579 60.0410178,48.4615995 C56.0834779,47.8951363 53.9244101,46.7916662 53.6652318,46.3634201 L53.6652318,46.3362298 C53.7035451,46.2523933 53.8049627,46.1504299 53.9289175,46.0439349 C54.6320795,45.4480157 56.6807149,44.5620674 60.0320029,44.0749091 L60.0320029,44.0749091 Z M68.3374276,17.0867935 L65.6059138,16.6698766 L65.7771968,15.5369504 L11.9672759,4.04001495 L9.34619459,17.0867935 L68.3374276,17.0867935 Z M69.4147078,20.4848924 L3.38058642,20.4848924 L3.38058642,51.7445931 L50.284,51.744 L50.284,49.443 L47.4458543,49.4433933 L47.4458543,46.0446146 L50.309,46.044 C50.5552866,42.4677165 56.5758678,40.6772269 63.1067303,40.3735242 L63.4509026,40.358911 C64.0143337,40.3362525 64.5777648,40.3226574 65.1411958,40.3226574 C65.7068806,40.3226574 66.2703117,40.3362525 66.831489,40.358911 C67.7036803,40.390633 68.5691105,40.451811 69.4142571,40.5379134 L69.4142571,40.5379134 L69.4147078,20.4848924 Z M25.3496653,22.7847327 L25.3496653,26.1835114 L15.1538167,26.1835114 L9.34371549,30.9644601 L9.34371549,41.2627596 L15.1538167,46.0437083 L25.3496653,46.0437083 L25.3496653,49.442487 L13.9458205,49.442487 L5.96312907,42.8737807 L5.96312907,29.353439 L13.9458205,22.7847327 L25.3496653,22.7847327 Z M36.3971964,22.8669831 C43.6632034,22.8669831 49.5747222,28.8103142 49.5747222,36.1131567 C49.5747222,43.418265 43.6632034,49.3615961 36.3971964,49.3615961 C29.1311893,49.3615961 23.2196705,43.418265 23.2196705,36.1131567 C23.2196705,28.8103142 29.1311893,22.8669831 36.3971964,22.8669831 Z M36.3971964,26.2657618 C30.997273,26.2657618 26.6002569,30.6841742 26.6002569,36.1131567 C26.6002569,41.544405 30.997273,45.9628174 36.3971964,45.9628174 C41.7993735,45.9628174 46.1941358,41.544405 46.1941358,36.1131567 C46.1941358,30.6841742 41.7993735,26.2657618 36.3971964,26.2657618 Z M58.8465439,22.7842795 L66.831489,29.3529858 L66.831489,40.3582313 C66.2703117,40.3355728 65.7068806,40.3219776 65.1411958,40.3219776 C64.5777648,40.3219776 64.01208,40.3355728 63.4509026,40.3582313 L63.4509026,40.3582313 L63.4509026,30.9640069 L57.6408014,26.1830582 L47.4449528,26.1830582 L47.4449528,22.7842795 L58.8465439,22.7842795 Z M5.99716031,16.5883059 L9.32816479,0 L69.5972595,12.8768396 L68.9617092,17.0867935 L72.7952942,17.0861137 L72.7952942,41.0610987 C72.3688896,40.9704646 71.9313065,40.8878063 71.4842758,40.8135589 L70.8064096,40.7087768 C71.490478,40.8073686 72.1552365,40.9253741 72.7948435,41.0613253 C76.934935,41.9427419 79.9977463,43.6375996 80,46.2659884 L80,46.2659884 L80,60.0514349 C80,60.126208 79.9774628,60.1964494 79.9729553,60.2734884 L79.9729553,60.2734884 L80,60.2734884 L80,74.056669 C80,78.1601278 72.5356652,80 65.1411958,80 C57.7467265,80 50.2846454,78.1601278 50.2846454,74.056669 L50.2846454,74.056669 L50.2846454,60.2734884 L50.3094363,60.2734884 C50.3049289,60.1964494 50.2846454,60.126208 50.2846454,60.0514349 L50.2846454,60.0514349 L50.284,55.143 L0,55.1433718 L0,17.0861137 L8.44921232,17.0867935 L5.99716031,16.5883059 Z" id="path-1"></path>
    </defs>
    <g id="Yanbal-UI-Visual-Kit" stroke="none" stroke-width="1" fill="none" fill-rule="evenodd">
        <g id="yanbal-styleguide-pag2" transform="translate(-120.000000, -6326.000000)">
            <g id="3.-icons/decorative/encuesta1" transform="translate(120.000000, 6326.000000)">
                <g id="colors/brand-secondary" transform="translate(8.000000, 8.000000)">
                    <mask id="mask-2" fill="white">
                        <use xlink:href="#path-1"></use>
                    </mask>
                    <use id="Mask" fill="#1C1F28" xlink:href="#path-1"></use>
                    <g mask="url(#mask-2)" fill="#1C1F28" fill-rule="nonzero" id="box">
                        <g transform="translate(-16.000000, -12.000000)">
                            <rect x="0" y="0" width="105.623306" height="102.982724"></rect>
                        </g>
                    </g>
                </g>
            </g>
        </g>
    </g>
</svg>