<?xml version="1.0" encoding="UTF-8"?>
<svg width="24px" height="24px" viewBox="0 0 24 24" version="1.1" xmlns="http://www.w3.org/2000/svg" xmlns:xlink="http://www.w3.org/1999/xlink">
    <title>ADE78B8F-F251-49BC-88A0-B32D3613F776@2x</title>
    <defs>
        <path d="M10.6265665,2.28032384 C11.3639665,1.45987751 11.9406585,1.15827682 12.210439,1.14903236 C12.2278442,1.14845458 12.2452494,1.14845458 12.2626546,1.14845458 C12.5243127,1.14845458 12.7262129,1.21663251 12.8619734,1.3524106 C12.9420373,1.43214412 12.9838098,1.51938876 13.001215,1.56329997 C13.0186201,1.83023392 12.9373959,2.06250112 12.7488397,2.29072386 C12.1564829,3.00716995 10.7205545,3.42259312 9.63156961,3.62712692 C9.91005269,3.16374808 10.2569962,2.69170256 10.6265665,2.28032384 M4.22783739,2.29072386 C4.03928113,2.06134556 3.9580569,1.82850058 3.97604226,1.56041108 C3.99054659,1.52574433 4.02651732,1.45063305 4.09033636,1.37841066 C4.23479946,1.21605473 4.46222732,1.13921011 4.76681819,1.14903236 C5.1978868,1.16347683 5.88945314,1.767256 6.35011057,2.28032384 C6.72026101,2.69170256 7.06662435,3.16374808 7.34510743,3.62712692 C6.25612253,3.42259312 4.82077429,3.00716995 4.22783739,2.29072386 M7.07231004,5.76005626 C6.11502444,6.89654775 5.16528108,8.023217 4.21321703,9.15277514 C4.4876389,9.50002038 4.75857974,9.84206561 5.0353223,10.1927775 C5.96650012,9.11637506 6.89535725,8.04286149 7.83175663,6.96068123 L7.83175663,6.96068123 L7.83175663,20 L0,20 L0,5.76005626 Z M17,5.7594207 L17,19.9993644 L9.27615557,19.9993644 L9.27615557,6.95946789 C10.2009515,8.04338149 11.1147241,9.1157395 12.0337183,10.1927197 C12.3052393,9.84431895 12.5738594,9.50054038 12.8448003,9.15271736 C11.9060802,8.02315922 10.9691007,6.89591219 10.025159,5.7594207 L10.025159,5.7594207 L17,5.7594207 Z M12.1721476,0.00156306077 C12.9983141,-0.0261703361 13.4856595,0.320497125 13.7490581,0.616320025 C14.0310222,0.932942973 14.117468,1.25707705 14.1319723,1.31947719 C14.1366137,1.3414328 14.1406749,1.36396618 14.1435758,1.38707735 C14.2085552,1.98738983 14.0391446,2.53743554 13.638245,3.02103665 C13.0748969,3.70223821 12.0566931,4.22975053 10.6126423,4.58797357 C9.58341524,4.84392971 8.71199525,4.91846322 8.67544434,4.92135211 C8.6591995,4.92308545 8.64295465,4.92366323 8.6267098,4.92366323 C8.57971578,4.92366323 8.53330194,4.91730766 8.48862861,4.90690764 C8.44337511,4.91730766 8.39754143,4.92366323 8.35054741,4.92366323 C8.33430256,4.92366323 8.31805772,4.92308545 8.30181287,4.92135211 C8.26526197,4.91846322 7.3932618,4.84392971 6.3646149,4.58797357 C4.92056406,4.22975053 3.90236028,3.70223821 3.33843203,3.02103665 C2.93811259,2.53743554 2.76812188,1.98738983 2.83368144,1.38707735 C2.8365823,1.36396618 2.84006334,1.3414328 2.8452849,1.31947719 C2.95609796,0.84454277 3.50784258,-0.0417703719 4.80510962,0.00156306077 C5.69509515,0.031029795 6.60364622,0.840498317 7.20934693,1.51476653 C7.70191389,2.06250112 8.14980752,2.69170256 8.48862861,3.30299285 C8.82686952,2.69170256 9.27476315,2.06250112 9.76733011,1.51476653 C10.3730308,0.840498317 11.2821621,0.031029795 12.1721476,0.00156306077 Z" id="path-1"></path>
    </defs>
    <g id="Yanbal-UI-Visual-Kit" stroke="none" stroke-width="1" fill="none" fill-rule="evenodd">
        <g id="yanbal-styleguide-pag2" transform="translate(-560.000000, -4858.000000)">
            <g id="3.-icons/fill/gift" transform="translate(560.000000, 4858.000000)">
                <g id="elements" transform="translate(4.000000, 2.000000)">
                    <mask id="mask-2" fill="white">
                        <use xlink:href="#path-1"></use>
                    </mask>
                    <use id="Mask" fill="#000000" xlink:href="#path-1"></use>
                    <g id="color/primary" mask="url(#mask-2)" fill="#1C1F28" fill-rule="nonzero">
                        <g transform="translate(-4.000000, -2.000000)" id="box">
                            <rect x="0" y="0" width="24" height="24"></rect>
                        </g>
                    </g>
                </g>
            </g>
        </g>
    </g>
</svg>