<?xml version="1.0" encoding="UTF-8"?>
<svg width="96px" height="96px" viewBox="0 0 96 96" version="1.1" xmlns="http://www.w3.org/2000/svg" xmlns:xlink="http://www.w3.org/1999/xlink">
    <title>ACF6B3F2-444E-4025-AF5D-E262B0A5F0BC@2x</title>
    <g id="Yanbal-UI-Visual-Kit" stroke="none" stroke-width="1" fill="none" fill-rule="evenodd">
        <g id="yanbal-styleguide-pag2" transform="translate(-840.000000, -6056.000000)">
            <g id="3.-icons/decorative/22" transform="translate(840.000000, 6056.000000)">
                <g id="Group-11" transform="translate(17.000000, 3.000000)">
                    <polyline id="Fill-1" fill="#DC582A" fill-rule="nonzero" points="19 43 19 17 7 25.4464572 7 43"></polyline>
                    <path d="M0,89 L27,89 L27,68 L0,68 L0,89 Z M3.10344828,85.8449519 L23.8944828,85.8449519 L23.8944828,71.1571514 L3.10344828,71.1571514 L3.10344828,85.8449519 Z" id="Fill-2" fill="#1C1F28"></path>
                    <polygon id="Fill-3" fill="#1C1F28" points="23 70 20.0217413 70 20.0217413 44.1687063 5.97825871 44.1687063 5.97825871 70 3 70 3 41 23 41"></polygon>
                    <polygon id="Fill-4" fill="#1C1F28" points="21 43 17.8961236 43 17.8961236 20.0262175 9.1038764 26.2649045 9.1038764 43 6 43 6 24.644304 21 14"></polygon>
                    <path d="M32,89 L59,89 L59,59 L32,59 L32,89 Z M35.1034483,85.8799834 L55.8944828,85.8799834 L55.8944828,62.1179366 L35.1034483,62.1179366 L35.1034483,85.8799834 Z" id="Fill-5" fill="#1C1F28"></path>
                    <polygon id="Fill-6" fill="#1C1F28" points="44 61 47 61 47 0 44 0"></polygon>
                    <polygon id="Fill-7" fill="#1C1F28" points="40 7 52 7 52 4 40 4"></polygon>
                    <polygon id="Fill-8" fill="#1C1F28" points="40 29 52 29 52 26 40 26"></polygon>
                    <polygon id="Fill-9" fill="#1C1F28" points="38 14 54 14 54 11 38 11"></polygon>
                    <polygon id="Fill-10" fill="#1C1F28" points="38 22 54 22 54 19 38 19"></polygon>
                </g>
            </g>
        </g>
    </g>
</svg>