<?xml version="1.0" encoding="UTF-8"?>
<svg width="96px" height="96px" viewBox="0 0 96 96" version="1.1" xmlns="http://www.w3.org/2000/svg" xmlns:xlink="http://www.w3.org/1999/xlink">
    <title>381FAE8C-A893-4F01-A00C-45CA6DB83329@2x</title>
    <g id="Yanbal-UI-Visual-Kit" stroke="none" stroke-width="1" fill="none" fill-rule="evenodd">
        <g id="yanbal-styleguide-pag2" transform="translate(-360.000000, -6182.000000)">
            <g id="3.-icons/decorative/29" transform="translate(360.000000, 6182.000000)">
                <g id="Group-4" transform="translate(5.000000, 4.000000)">
                    <polygon id="Fill-1" fill="#DC582A" fill-rule="nonzero" points="43.3324279 13.5566 49.4044279 25.5806 62.980986 27.5086 53.1577302 36.8646 55.4764279 50.0806 43.3324279 43.8426 31.1884279 50.0806 33.5091721 36.8646 23.6838698 27.5086 37.2604279 25.5806"></polygon>
                    <path d="M0,-0.0002 L0,63.2618 L14.4688372,63.2618 L14.4688372,87.4958 L39.2664186,63.2618 L86.6656744,63.2618 L86.6656744,-0.0002 L0,-0.0002 Z M3.06976744,2.9998 L83.5938605,2.9998 L83.5938605,60.2618 L37.9955349,60.2618 L17.5365581,80.2538 L17.5365581,60.2618 L3.06976744,60.2618 L3.06976744,2.9998 Z" id="Fill-2" fill="#1C1F28"></path>
                    <path d="M43.3324279,42.1464 L53.4360558,47.3384 L51.5082419,36.3424 L59.6820093,28.5544 L48.3852651,26.9504 L43.3324279,16.9444 L38.2795907,26.9504 L26.984893,28.5544 L35.1586605,36.3424 L33.2288,47.3384 L43.3324279,42.1464 Z M29.1501023,52.8224 L31.8617302,37.3884 L20.384893,26.4604 L36.2412651,24.2084 L43.3324279,10.1684 L50.4235907,24.2084 L66.2779163,26.4604 L54.8051721,37.3884 L57.5147535,52.8224 L43.3324279,45.5364 L29.1501023,52.8224 Z" id="Fill-3" fill="#1C1F28"></path>
                </g>
            </g>
        </g>
    </g>
</svg>