<?xml version="1.0" encoding="UTF-8"?>
<svg width="96px" height="96px" viewBox="0 0 96 96" version="1.1" xmlns="http://www.w3.org/2000/svg" xmlns:xlink="http://www.w3.org/1999/xlink">
    <title>81A70EF1-40A4-4983-A9B9-37DFF519694E@2x</title>
    <defs>
        <polygon id="path-1" points="0 90 90 90 90 0 0 0"></polygon>
    </defs>
    <g id="Yanbal-UI-Visual-Kit" stroke="none" stroke-width="1" fill="none" fill-rule="evenodd">
        <g id="yanbal-styleguide-pag2" transform="translate(-120.000000, -6056.000000)">
            <g id="3.-icons/decorative/16" transform="translate(120.000000, 6056.000000)">
                <g id="Group-13" transform="translate(4.000000, 3.000000)">
                    <polygon id="Fill-1" fill="#DC582A" fill-rule="nonzero" points="38 14 38 46.288746 44.4363281 46.288746 44.4363281 60 57.6282588 46.288746 88 46.288746 88 14"></polygon>
                    <path d="M28,78.9850746 C26.8877835,78.9850746 25.9844807,79.8885572 25.9844807,81.000995 C25.9844807,82.1114428 26.8877835,83.0149254 28,83.0149254 C29.1122165,83.0149254 30.0155193,82.1114428 30.0155193,81.000995 C30.0155193,79.8885572 29.1122165,78.9850746 28,78.9850746 M28,86 C25.2423398,86 23,83.7572139 23,81.000995 C23,78.2427861 25.2423398,76 28,76 C30.7576602,76 33,78.2427861 33,81.000995 C33,83.7572139 30.7576602,86 28,86" id="Fill-2" fill="#1C1F28"></path>
                    <path d="M44.7562364,90 L9.24170073,90 C4.14432517,90 0,85.8331414 0,80.7126733 L0,9.28939973 C0,4.16893168 4.14432517,0 9.24170073,0 L44.7562364,0 C49.8536119,0 54,4.16893168 54,9.28939973 L54,15.2411664 L50.9056806,15.2411664 L50.9056806,9.28939973 C50.9056806,5.8833556 48.1476105,3.10959598 44.7562364,3.10959598 L9.24170073,3.10959598 C5.8523895,3.10959598 3.09431944,5.8833556 3.09431944,9.28939973 L3.09431944,80.7126733 C3.09431944,84.1187175 5.8523895,86.890404 9.24170073,86.890404 L44.7562364,86.890404 C48.1476105,86.890404 50.9056806,84.1187175 50.9056806,80.7126733 L50.9056806,51.6939236 L54,51.6939236 L54,80.7126733 C54,85.8331414 49.8536119,90 44.7562364,90" id="Fill-4" fill="#1C1F28"></path>
                    <mask id="mask-2" fill="white">
                        <use xlink:href="#path-1"></use>
                    </mask>
                    <g id="Clip-7"></g>
                    <polygon id="Fill-6" fill="#1C1F28" mask="url(#mask-2)" points="23 8 32 8 32 5 23 5"></polygon>
                    <polygon id="Fill-8" fill="#1C1F28" mask="url(#mask-2)" points="2 74 52 74 52 71 2 71"></polygon>
                    <polygon id="Fill-9" fill="#1C1F28" mask="url(#mask-2)" points="46 38 79 38 79 35 46 35"></polygon>
                    <polygon id="Fill-10" fill="#1C1F28" mask="url(#mask-2)" points="46 28 79 28 79 25 46 25"></polygon>
                    <path d="M40.0474949,45.0316893 L46.4777092,45.0316893 L46.4777092,56.4097411 L57.5035458,45.0316893 L86.9525051,45.0316893 L86.9525051,16.1442663 L40.0474949,16.1442663 L40.0474949,45.0316893 Z M43.4302143,64 L43.4302143,48.1759556 L37,48.1759556 L37,13 L90,13 L90,48.1759556 L58.7652087,48.1759556 L43.4302143,64 Z" id="Fill-11" fill="#1C1F28" mask="url(#mask-2)"></path>
                </g>
            </g>
        </g>
    </g>
</svg>