<?xml version="1.0" encoding="UTF-8"?>
<svg width="96px" height="96px" viewBox="0 0 96 96" version="1.1" xmlns="http://www.w3.org/2000/svg" xmlns:xlink="http://www.w3.org/1999/xlink">
    <title>493E5973-71BA-42D3-87D5-F43852FDC0CB</title>
    <g id="Yanbal-UI-Visual-Kit" stroke="none" stroke-width="1" fill="none" fill-rule="evenodd">
        <g id="yanbal-styleguide-pag2" transform="translate(-840.000000, -5786.000000)" fill="#1C1F28">
            <g id="3.-icons/decorative/1-copy-2" transform="translate(840.000000, 5786.000000)">
                <g id="Group-10" transform="translate(17.000000, 4.000000)">
                    <path d="M0,86.3846775 L26.42625,86.3846775 L26.42625,66.1691025 L0,66.1691025 L0,86.3846775 Z M3.0375,83.3471775 L23.386725,83.3471775 L23.386725,69.2086275 L3.0375,69.2086275 L3.0375,83.3471775 Z" id="Fill-1"></path>
                    <polygon id="Fill-2" points="23.4120375 67.68927 20.3745375 67.68927 20.3745375 42.925545 6.0517125 42.925545 6.0517125 67.68927 3.0142125 67.68927 3.0142125 39.888045 23.4120375 39.888045"></polygon>
                    <polygon id="Fill-3" points="20.552535 41.4078075 17.515035 41.4078075 17.515035 19.0761075 8.91081 25.1409825 8.91081 41.4078075 5.87331 41.4078075 5.87331 23.5655325 20.552535 13.2177825"></polygon>
                    <path d="M32.551875,86.3948025 L58.978125,86.3948025 L58.978125,57.1882275 L32.551875,57.1882275 L32.551875,86.3948025 Z M35.589375,83.3573025 L55.9386,83.3573025 L55.9386,60.2257275 L35.589375,60.2257275 L35.589375,83.3573025 Z" id="Fill-4"></path>
                    <polygon id="Fill-5" points="44.244225 58.8973275 47.281725 58.8973275 47.281725 0.0002025 44.244225 0.0002025"></polygon>
                    <polygon id="Fill-6" points="39.878325 6.4376775 51.6537 6.4376775 51.6537 3.4001775 39.878325 3.4001775"></polygon>
                    <polygon id="Fill-7" points="39.878325 28.1558025 51.6537 28.1558025 51.6537 25.1183025 39.878325 25.1183025"></polygon>
                    <polygon id="Fill-8" points="37.768275 13.6770525 53.76375 13.6770525 53.76375 10.6395525 37.768275 10.6395525"></polygon>
                    <polygon id="Fill-9" points="37.768275 20.9164275 53.76375 20.9164275 53.76375 17.8789275 37.768275 17.8789275"></polygon>
                </g>
            </g>
        </g>
    </g>
</svg>