<?xml version="1.0" encoding="UTF-8"?>
<svg width="96px" height="96px" viewBox="0 0 96 96" version="1.1" xmlns="http://www.w3.org/2000/svg" xmlns:xlink="http://www.w3.org/1999/xlink">
    <title>F0D8AE57-BCFB-4E46-AF46-7CDE6AA74170</title>
    <defs>
        <polygon id="path-1" points="0 88.8015682 88.8013636 88.8015682 88.8013636 0.000204545455 0 0.000204545455"></polygon>
    </defs>
    <g id="Yanbal-UI-Visual-Kit" stroke="none" stroke-width="1" fill="none" fill-rule="evenodd">
        <g id="yanbal-styleguide-pag2" transform="translate(-120.000000, -5786.000000)">
            <g id="3.-icons/decorative/1" transform="translate(120.000000, 5786.000000)">
                <g id="Group-11" transform="translate(4.000000, 3.000000)">
                    <path d="M26.77275,77.2639773 C25.6293409,77.2639773 24.7007045,78.1926136 24.7007045,79.3360227 C24.7007045,80.4773864 25.6293409,81.4060227 26.77275,81.4060227 C27.9161591,81.4060227 28.8447955,80.4773864 28.8447955,79.3360227 C28.8447955,78.1926136 27.9161591,77.2639773 26.77275,77.2639773 M26.77275,84.4742045 C23.93775,84.4742045 21.6325227,82.1689773 21.6325227,79.3360227 C21.6325227,76.5010227 23.93775,74.1957955 26.77275,74.1957955 C29.60775,74.1957955 31.9129773,76.5010227 31.9129773,79.3360227 C31.9129773,82.1689773 29.60775,84.4742045 26.77275,84.4742045" id="Fill-1" fill="#1C1F28"></path>
                    <path d="M44.3787955,88.8015682 L9.16425,88.8015682 C4.10993182,88.8015682 0.000613636364,84.6881591 0.000613636364,79.6358864 L0.000613636364,9.16384091 C0.000613636364,4.11156818 4.10993182,0.000204545455 9.16425,0.000204545455 L44.3787955,0.000204545455 C49.4331136,0.000204545455 53.5444773,4.11156818 53.5444773,9.16384091 L53.5444773,15.0383864 L50.4762955,15.0383864 L50.4762955,9.16384091 C50.4762955,5.80315909 47.7415227,3.06838636 44.3787955,3.06838636 L9.16425,3.06838636 C5.80356818,3.06838636 3.06879545,5.80315909 3.06879545,9.16384091 L3.06879545,79.6358864 C3.06879545,82.9965682 5.80356818,85.7333864 9.16425,85.7333864 L44.3787955,85.7333864 C47.7415227,85.7333864 50.4762955,82.9965682 50.4762955,79.6358864 L50.4762955,51.0056591 L53.5444773,51.0056591 L53.5444773,79.6358864 C53.5444773,84.6881591 49.4331136,88.8015682 44.3787955,88.8015682" id="Fill-3" fill="#1C1F28"></path>
                    <mask id="mask-2" fill="white">
                        <use xlink:href="#path-1"></use>
                    </mask>
                    <g id="Clip-6"></g>
                    <polygon id="Fill-5" fill="#1C1F28" mask="url(#mask-2)" points="22.3670455 8.83656818 31.1768182 8.83656818 31.1768182 5.76838636 22.3670455 5.76838636"></polygon>
                    <polygon id="Fill-7" fill="#1C1F28" mask="url(#mask-2)" points="1.53409091 72.9370227 52.0118182 72.9370227 52.0118182 69.8688409 1.53409091 69.8688409"></polygon>
                    <polygon id="Fill-8" fill="#1C1F28" mask="url(#mask-2)" points="46.1352273 37.4115682 78.1097727 37.4115682 78.1097727 34.3433864 46.1352273 34.3433864"></polygon>
                    <polygon id="Fill-9" fill="#1C1F28" mask="url(#mask-2)" points="46.1352273 26.9920227 78.1097727 26.9920227 78.1097727 23.9238409 46.1352273 23.9238409"></polygon>
                    <path d="M38.5099773,44.7623182 L44.9838409,44.7623182 L44.9838409,55.8650455 L56.0845227,44.7623182 L85.7333864,44.7623182 L85.7333864,16.5739091 L38.5099773,16.5739091 L38.5099773,44.7623182 Z M41.9156591,63.2716364 L41.9156591,47.8305 L35.4417955,47.8305 L35.4417955,13.5057273 L88.8015682,13.5057273 L88.8015682,47.8305 L57.35475,47.8305 L41.9156591,63.2716364 Z" id="Fill-10" fill="#1C1F28" mask="url(#mask-2)"></path>
                </g>
            </g>
        </g>
    </g>
</svg>