<?xml version="1.0" encoding="UTF-8"?>
<svg width="96px" height="96px" viewBox="0 0 96 96" version="1.1" xmlns="http://www.w3.org/2000/svg" xmlns:xlink="http://www.w3.org/1999/xlink">
    <title>0A86385B-030A-42CB-8B28-783DBDC964D4</title>
    <defs>
        <polygon id="path-1" points="0 84.6 61.722045 84.6 61.722045 1.12671818 0 1.12671818"></polygon>
    </defs>
    <g id="Yanbal-UI-Visual-Kit" stroke="none" stroke-width="1" fill="none" fill-rule="evenodd">
        <g id="yanbal-styleguide-pag2" transform="translate(-960.000000, -5786.000000)">
            <g id="3.-icons/decorative/2-copy-4" transform="translate(960.000000, 5786.000000)">
                <g id="Group-11" transform="translate(17.000000, 4.000000)">
                    <path d="M12.0103712,1.922535 L19.5035518,18.5022123 L42.2162724,18.5022123 L49.7113037,1.922535 L12.0103712,1.922535 Z M16.3815474,4.80662591 L45.3401274,4.80662591 L40.4526268,15.6200441 L21.2671974,15.6200441 L16.3815474,4.80662591 Z" id="Fill-1" fill="#1C1F28"></path>
                    <g id="Group-10" transform="translate(0.000000, 0.796201)">
                        <path d="M20.3857448,17.7063955 C19.2531623,17.7063955 18.3297004,18.6658364 18.3297004,19.8425455 C18.3297004,21.0211773 19.2531623,21.9806182 20.3857448,21.9806182 L41.3348198,21.9786955 L41.3366704,21.9786955 C41.886306,21.9786955 42.4007798,21.7556591 42.789411,21.3518864 C43.1780423,20.9500364 43.3927148,20.4135955 43.3927148,19.8425455 C43.3927148,18.6658364 42.4692529,17.7063955 41.3348198,17.7063955 L20.3857448,17.7063955 Z M41.3348198,24.8647091 L20.3857448,24.8627864 L20.3801929,24.8627864 C19.0940085,24.8627864 17.8799985,24.3398045 16.9676404,23.3919 C16.0552823,22.4439955 15.5537629,21.1846091 15.5537629,19.8425455 C15.5537629,17.0757409 17.7226954,14.8223045 20.3857448,14.8223045 L41.3348198,14.8223045 C43.9997198,14.8223045 46.1686523,17.0757409 46.1686523,19.8425455 C46.1686523,22.6112727 43.9997198,24.8647091 41.3348198,24.8647091 L41.3348198,24.8647091 Z" id="Fill-2" fill="#1C1F28"></path>
                        <path d="M30.8606524,84.6 C20.8284143,84.6 11.8454805,80.8276091 6.212178,74.2499591 C1.46532488,68.7048136 -0.673997625,61.4503636 0.186543,53.8209818 C1.41350738,42.9345 10.4001424,32.2845136 19.9308611,22.39785 L21.8925236,24.4378636 C13.1575736,33.5016 4.07470613,44.1189 2.94397425,54.1555364 C2.16486113,61.0562045 4.01178488,67.3416 8.28672863,72.333 C13.392603,78.2973 21.6204818,81.7159091 30.8606524,81.7159091 C40.100823,81.7159091 48.3268511,78.2973 53.4327255,72.3349227 C57.7076692,67.3416 59.5564436,61.0581273 58.7773305,54.1555364 C57.6465986,44.1227455 48.5637311,33.5035227 39.8287811,24.4378636 L41.7904436,22.39785 C51.3211624,32.2864364 60.3077974,42.9383455 61.5347617,53.8209818 C62.3953024,61.4522864 60.2541293,68.7067364 55.5072761,74.2518818 C49.8739736,80.8276091 40.8928905,84.6 30.8606524,84.6" id="Fill-4" fill="#1C1F28"></path>
                        <mask id="mask-2" fill="white">
                            <use xlink:href="#path-1"></use>
                        </mask>
                        <g id="Clip-7"></g>
                        <polygon id="Fill-6" fill="#1C1F28" mask="url(#mask-2)" points="29.3842237 42.5461091 32.1601613 42.5461091 32.1601613 36.2587909 29.3842237 36.2587909"></polygon>
                        <polygon id="Fill-8" fill="#1C1F28" mask="url(#mask-2)" points="29.3842237 69.0932045 32.1601613 69.0932045 32.1601613 62.8058864 29.3842237 62.8058864"></polygon>
                        <path d="M31.4515569,64.2631214 C31.1702619,64.2631214 30.8797138,64.251585 30.5873151,64.230435 C24.8670332,63.8170486 23.0108563,58.9602395 22.8294951,56.4530032 L25.5980301,56.2338123 C25.6368932,56.7144941 26.1328607,61.0175577 30.7797801,61.354035 C32.5896913,61.4867032 34.0202244,61.1021577 34.9029726,60.2465441 C35.5914051,59.5793577 35.9411732,58.6314532 35.9411732,57.4316714 C35.9411732,55.0801759 34.0923988,54.4264486 31.0481207,53.6285168 L30.3319288,53.4381668 C26.0717901,52.2768395 24.0435051,50.5559986 23.7566582,47.8622577 C23.6900357,47.2277577 23.5956538,45.0320032 25.1464776,43.2342532 C26.3752926,41.811435 28.2388719,41.0904123 30.6835476,41.0904123 C35.7524094,41.0904123 37.7510844,45.2627305 38.1008526,47.4700214 L35.3619276,47.944935 C35.2916038,47.5392395 34.5717107,43.9745032 30.6835476,43.9745032 C29.0605494,43.9745032 27.8928051,44.3725077 27.2136257,45.1589032 C26.3919482,46.1125759 26.4992844,47.4008032 26.5140894,47.5469305 C26.5751601,48.1199032 26.7195088,49.4715805 31.0351663,50.6482895 L31.7273001,50.8328714 C34.5106401,51.561585 38.7171107,52.661385 38.7171107,57.4316714 C38.7171107,59.4351532 38.0527363,61.1386895 36.7961619,62.3576986 C35.5007244,63.6113168 33.6649044,64.2631214 31.4515569,64.2631214" id="Fill-9" fill="#1C1F28" mask="url(#mask-2)"></path>
                    </g>
                </g>
            </g>
        </g>
    </g>
</svg>