<?xml version="1.0" encoding="UTF-8"?>
<svg width="96px" height="96px" viewBox="0 0 96 96" version="1.1" xmlns="http://www.w3.org/2000/svg" xmlns:xlink="http://www.w3.org/1999/xlink">
    <title>01A8D23A-DE1B-4067-8AB5-05D522F00551</title>
    <g id="Yanbal-UI-Visual-Kit" stroke="none" stroke-width="1" fill="none" fill-rule="evenodd">
        <g id="yanbal-styleguide-pag2" transform="translate(-360.000000, -5912.000000)" fill="#1C1F28">
            <g id="3.-icons/decorative/2-copy-8" transform="translate(360.000000, 5912.000000)">
                <g id="Group-3" transform="translate(6.000000, 5.000000)">
                    <path d="M0,0 L0,62.62938 L13.9986,62.62938 L13.9986,86.62302 L37.98828,62.62938 L83.84904,62.62938 L83.84904,0 L0,0 Z M2.97,2.97 L80.87706,2.97 L80.87706,59.65938 L36.7587,59.65938 L16.96662,79.45344 L16.96662,59.65938 L2.97,59.65938 L2.97,2.97 Z" id="Fill-1"></path>
                    <path d="M26.105508,28.271034 L34.013628,35.981154 L32.148468,46.867194 L41.923728,41.727114 L51.700968,46.867194 L49.831848,35.981154 L57.741948,28.271034 L46.812348,26.683074 L41.923728,16.777134 L37.037088,26.683074 L26.105508,28.271034 Z M55.645128,52.296354 L41.923728,45.083214 L28.204308,52.296354 L30.823848,37.016694 L19.723968,26.197974 L35.063028,23.968494 L41.923728,10.068894 L48.784428,23.968494 L64.125468,26.197974 L53.023608,37.016694 L55.645128,52.296354 Z" id="Fill-2"></path>
                </g>
            </g>
        </g>
    </g>
</svg>