<?xml version="1.0" encoding="UTF-8"?>
<svg width="96px" height="96px" viewBox="0 0 96 96" version="1.1" xmlns="http://www.w3.org/2000/svg" xmlns:xlink="http://www.w3.org/1999/xlink">
    <title>7E45C85A-FA5E-4FF4-8D54-0C2C406186A9@2x</title>
    <defs>
        <polygon id="path-1" points="0.910371429 0.17 38.7422286 0.17 38.7422286 17.418 0.910371429 17.418"></polygon>
        <polygon id="path-3" points="0 84 62 84 62 0 0 0"></polygon>
    </defs>
    <g id="Yanbal-UI-Visual-Kit" stroke="none" stroke-width="1" fill="none" fill-rule="evenodd">
        <g id="yanbal-styleguide-pag2" transform="translate(-960.000000, -6056.000000)">
            <g id="3.-icons/decorative/23" transform="translate(960.000000, 6056.000000)">
                <g id="Group-14" transform="translate(17.000000, 6.000000)">
                    <path d="M41.5360633,15 C43.4495114,15 45,16.56621 45,18.4990599 C45,20.43379 43.4495114,22 41.5360633,22 L41.5360633,21.9981198 L20.465798,21.9981198 L20.465798,22 C18.5504886,22 17,20.43379 17,18.4990599 C17,16.56621 18.5504886,15 20.465798,15 L20.465798,15.0018802 L41.5360633,15.0018802 L41.5360633,15 Z" id="Fill-1" fill="#DC582A" fill-rule="nonzero"></path>
                    <g id="Group-5" transform="translate(11.000000, 0.000000)">
                        <mask id="mask-2" fill="white">
                            <use xlink:href="#path-1"></use>
                        </mask>
                        <g id="Clip-4"></g>
                        <path d="M10.1998,14.418 L29.4528,14.418 L34.3575143,3.17 L5.29508571,3.17 L10.1998,14.418 Z M31.2226571,17.418 L8.42994286,17.418 L0.910371429,0.17 L38.7422286,0.17 L31.2226571,17.418 Z" id="Fill-3" fill="#1C1F28" mask="url(#mask-2)"></path>
                    </g>
                    <path d="M19.8908904,16.8738273 C19.3343408,16.8738273 18.8133954,17.0940073 18.4198755,17.4941604 C18.0263556,17.8962282 17.8108566,18.430404 17.8108566,18.9990427 C17.8108566,20.1726977 18.7459348,21.1280873 19.8927643,21.1280873 L41.1053618,21.1261727 L41.1072357,21.1261727 C41.6637853,21.1261727 42.1847307,20.9040781 42.5782506,20.5039249 C42.9717705,20.1037718 43.1891434,19.5676814 43.1891434,18.9990427 C43.1891434,17.8273023 42.2540652,16.8719127 41.1053618,16.8719127 L19.8927643,16.8738273 L19.8908904,16.8738273 Z M41.1053618,24 L19.8927643,23.9980854 L19.8871426,23.9980854 C18.5829052,23.9980854 17.3554978,23.4773119 16.4316629,22.5353245 C15.5078281,21.5914226 15,20.337354 15,18.9990427 C15,16.2439211 17.1962159,14 19.8927643,14 L41.1053618,14.0019146 L41.1053618,14 C43.8037841,14 46,16.2439211 46,18.9990427 C46,21.7560789 43.8037841,24 41.1053618,24 L41.1053618,24 Z" id="Fill-6" fill="#1C1F28"></path>
                    <path d="M31.0000528,84 C20.9224237,84 11.8988467,80.2399852 6.24005624,73.6839144 C1.47172595,68.1569609 -0.677275933,60.9263106 0.187158214,53.3219585 C1.419674,42.4692755 10.4469691,31.8542285 20.0208096,22 L21.9913477,24.033321 C13.2168764,33.067322 4.09291336,43.6497898 2.95706548,53.6554154 C2.17442725,60.5334446 4.02970742,66.7982196 8.32399318,71.7732443 C13.4529691,77.7179773 21.718075,81.1253709 31.0000528,81.1253709 C40.2820306,81.1253709 48.5452775,77.7179773 53.6742534,71.7751607 C57.9685392,66.7982196 59.8256783,60.535361 59.0430401,53.6554154 C57.9071922,43.6536227 48.7832292,33.0692384 40.0087579,24.033321 L41.979296,22 C51.5531365,31.8561449 60.5804316,42.4731083 61.8129474,53.3219585 C62.6773815,60.928227 60.5265206,68.1588773 55.7581904,73.6858309 C50.0993999,80.2399852 41.0776818,84 31.0000528,84" id="Fill-8" fill="#1C1F28"></path>
                    <mask id="mask-4" fill="white">
                        <use xlink:href="#path-3"></use>
                    </mask>
                    <g id="Clip-11"></g>
                    <polygon id="Fill-10" fill="#1C1F28" mask="url(#mask-4)" points="29 42 32 42 32 36 29 36"></polygon>
                    <polygon id="Fill-12" fill="#1C1F28" mask="url(#mask-4)" points="29 68 32 68 32 62 29 62"></polygon>
                    <path d="M31.6830518,63 C31.399767,63 31.1071637,62.9880518 30.8126966,62.9661467 C25.0519511,62.538002 23.1826441,57.5077995 23,54.9110521 L25.7881188,54.6840358 C25.8272568,55.1818785 26.3267327,59.6385662 31.006523,59.9870561 C32.8422831,60.126452 34.2717531,59.7261865 35.1588818,58.8420179 C35.852184,58.1490209 36.2044263,57.1692665 36.2044263,55.9246598 C36.2044263,53.4892134 34.3425743,52.8121474 31.2767618,51.9857285 L30.5555038,51.7885828 C26.2652301,50.5877863 24.2207338,48.8055095 23.9337216,46.0116163 C23.8666278,45.3584467 23.7697146,43.0843014 25.3352359,41.2203784 C26.5708794,39.746764 28.4476412,39 30.9096098,39 C36.0143273,39 38.0271404,43.3212745 38.3793826,45.6073681 L35.6210833,46.0992366 C35.5502621,45.6790574 34.8252766,41.9870561 30.9096098,41.9870561 C29.275131,41.9870561 28.0991264,42.3992698 27.4151427,43.2157318 C26.5876529,44.2034517 26.6957484,45.5356787 26.7106581,45.6870229 C26.7721607,46.2804514 26.9175306,47.6823764 31.2637158,48.8991039 L31.9607455,49.0902755 C34.763774,49.845005 39,50.984069 39,55.9246598 C39,57.9996681 38.330926,59.7640226 37.0673267,61.0265516 C35.760862,62.3249253 33.9120559,63 31.6830518,63" id="Fill-13" fill="#1C1F28" mask="url(#mask-4)"></path>
                </g>
            </g>
        </g>
    </g>
</svg>