<?xml version="1.0" encoding="UTF-8"?>
<svg width="96px" height="96px" viewBox="0 0 96 96" version="1.1" xmlns="http://www.w3.org/2000/svg" xmlns:xlink="http://www.w3.org/1999/xlink">
    <title>8DA115C0-AA09-4331-B7ED-3A3949E117C9</title>
    <g id="Yanbal-UI-Visual-Kit" stroke="none" stroke-width="1" fill="none" fill-rule="evenodd">
        <g id="yanbal-styleguide-pag2" transform="translate(-360.000000, -5786.000000)" fill="#1C1F28">
            <g id="3.-icons/decorative/2-copy" transform="translate(360.000000, 5786.000000)">
                <g id="Group-15" transform="translate(3.000000, 4.000000)">
                    <path d="M57.0755455,-0.000211904762 L33.3503182,30.876431 L43.9887273,59.0279786 L81.6435,65.0036929 L57.0755455,-0.000211904762 Z M46.2039545,56.1630262 L36.8500909,31.4231452 L56.1612273,6.29547857 L76.8469091,61.0262405 L46.2039545,56.1630262 Z" id="Fill-1"></path>
                    <g id="Group-14" transform="translate(0.000000, 7.896843)">
                        <path d="M24.6853636,58.8366286 C25.9024091,62.0597 29.8501364,72.5108429 31.3228636,76.4056524 L40.3780909,72.7333429 L32.814,52.716819 L43.0249091,48.574081 L34.1455909,25.0886762 L8.70627273,35.4084381 L10.6412727,40.5280571 L3.97513636,43.234081 L8.98036364,56.4802476 L15.6465,53.7742238 L17.5815,58.8938429 L29.1628636,54.1980333 L24.6853636,58.8366286 Z M29.5862727,80.5229619 L25.2417273,69.0356048 C23.6196818,64.7360571 22.6296818,62.1232714 22.0733182,60.4852476 L15.8449091,63.0132714 L13.9078636,57.8936524 L7.24377273,60.5975571 L0.000818181818,41.4328905 L6.66490909,38.7289857 L4.72990909,33.6093667 L35.8842273,20.9713667 L46.9992273,50.3752714 L36.7883182,54.5180095 L44.3524091,74.5324143 L29.5862727,80.5229619 Z" id="Fill-2"></path>
                        <polygon id="Fill-4" points="73.9838864 24.4351619 72.8650227 21.4769714 80.2286591 18.4891143 81.3475227 21.4494238"></polygon>
                        <polygon id="Fill-6" points="79.1036591 39.2417952 78.86025 36.0717 87.09525 35.3957238 87.3386591 38.565819"></polygon>
                        <polygon id="Fill-8" points="68.8164545 9.50265714 66.9182727 7.00641905 73.4085 1.71091905 75.3066818 4.20715714"></polygon>
                        <polygon id="Fill-10" points="23.4507273 59.9273024 22.3318636 56.9691119 34.2405 52.1376833 35.3593636 55.0979929"></polygon>
                        <polygon id="Fill-12" points="13.3494545 56.4134976 7.22536364 40.2091405 10.0808182 39.0500214 16.2049091 55.2543786"></polygon>
                    </g>
                </g>
            </g>
        </g>
    </g>
</svg>