<?xml version="1.0" encoding="UTF-8"?>
<svg width="96px" height="96px" viewBox="0 0 96 96" version="1.1" xmlns="http://www.w3.org/2000/svg" xmlns:xlink="http://www.w3.org/1999/xlink">
    <title>38EBEFE2-BCA1-476F-AB91-8ED4361CA118</title>
    <defs>
        <polygon id="path-1" points="0.00039 1.18665 50.44065 1.18665 50.44065 43.6093875 0.00039 43.6093875"></polygon>
    </defs>
    <g id="Yanbal-UI-Visual-Kit" stroke="none" stroke-width="1" fill="none" fill-rule="evenodd">
        <g id="yanbal-styleguide-pag2" transform="translate(-600.000000, -5786.000000)">
            <g id="3.-icons/decorative/5" transform="translate(600.000000, 5786.000000)">
                <g id="Group-10" transform="translate(22.000000, 2.000000)">
                    <path d="M25.22052,50.5539225 C15.57192,50.5539225 7.71927,58.7065725 7.71927,68.7282975 C7.71927,78.7479975 15.57192,86.9006475 25.22052,86.9006475 C34.86912,86.9006475 42.72177,78.7479975 42.72177,68.7282975 C42.72177,58.7065725 34.86912,50.5539225 25.22052,50.5539225 M25.22052,89.9381475 C13.95927,89.9381475 4.79427,80.4226725 4.79427,68.7282975 C4.79427,57.0318975 13.95927,47.5164225 25.22052,47.5164225 C36.48177,47.5164225 45.64677,57.0318975 45.64677,68.7282975 C45.64677,80.4226725 36.48177,89.9381475 25.22052,89.9381475" id="Fill-1" fill="#1C1F28"></path>
                    <path d="M25.22052,50.5539225 C24.41322,50.5539225 23.75802,49.8735225 23.75802,49.0351725 L23.75802,42.9277725 C23.75802,42.0894225 24.41322,41.4090225 25.22052,41.4090225 C26.02782,41.4090225 26.68302,42.0894225 26.68302,42.9277725 L26.68302,49.0351725 C26.68302,49.8735225 26.02782,50.5539225 25.22052,50.5539225" id="Fill-3" fill="#1C1F28"></path>
                    <path d="M18.597345,66.7875375 L21.908445,70.1389125 L21.126495,74.8713375 L25.219545,72.6377625 L29.312595,74.8713375 L28.532595,70.1389125 L31.843695,66.7875375 L27.267045,66.0970125 L25.219545,61.7898375 L23.173995,66.0970125 L18.597345,66.7875375 Z M33.196995,80.4238875 L25.219545,76.0701375 L17.242095,80.4238875 L18.766995,71.2000125 L12.312495,64.6673625 L21.231795,63.3207375 L25.219545,54.9291375 L29.209245,63.3207375 L38.128545,64.6673625 L31.674045,71.2000125 L33.196995,80.4238875 Z" id="Fill-5" fill="#1C1F28"></path>
                    <g id="Group-9" transform="translate(0.000000, 0.838552)">
                        <mask id="mask-2" fill="white">
                            <use xlink:href="#path-1"></use>
                        </mask>
                        <g id="Clip-8"></g>
                        <path d="M26.79924,22.3975125 L32.90274,38.0446875 L46.09839,4.2231375 L33.89139,4.2231375 L26.79924,22.3975125 Z M4.34109,4.2231375 L18.52344,40.5718875 L30.73239,40.5698625 L16.55004,4.2231375 L4.34109,4.2231375 Z M16.55394,43.6093875 L0.00039,1.1856375 L18.51954,1.1856375 L25.21974,18.3556125 L31.92189,1.1856375 L50.44104,1.1856375 L33.88749,43.6073625 L16.55394,43.6093875 Z" id="Fill-7" fill="#1C1F28" mask="url(#mask-2)"></path>
                    </g>
                </g>
            </g>
        </g>
    </g>
</svg>