<?xml version="1.0" encoding="UTF-8"?>
<svg width="96px" height="96px" viewBox="0 0 96 96" version="1.1" xmlns="http://www.w3.org/2000/svg" xmlns:xlink="http://www.w3.org/1999/xlink">
    <title>5FB4014F-78DD-4566-8AEE-91A0CE90DC5C@2x</title>
    <defs>
        <polygon id="path-1" points="0.0004 1.17 51.734 1.17 51.734 43.069 0.0004 43.069"></polygon>
    </defs>
    <g id="Yanbal-UI-Visual-Kit" stroke="none" stroke-width="1" fill="none" fill-rule="evenodd">
        <g id="yanbal-styleguide-pag2" transform="translate(-600.000000, -6056.000000)">
            <g id="3.-icons/decorative/20" transform="translate(600.000000, 6056.000000)">
                <g id="Group-12" transform="translate(22.000000, 2.000000)">
                    <polygon id="Fill-1" fill="#DC582A" fill-rule="nonzero" points="25.8672 57.6386 28.9632 63.9106 35.8832 64.9166 30.8752 69.7966 32.0572 76.6906 25.8672 73.4346 19.6752 76.6906 20.8592 69.7966 15.8512 64.9166 22.7712 63.9106"></polygon>
                    <g id="Group-11" transform="translate(0.000000, 0.830000)">
                        <path d="M25.8672,49.1016 C15.9712,49.1016 7.9172,57.1536 7.9172,67.0516 C7.9172,76.9476 15.9712,84.9996 25.8672,84.9996 C35.7632,84.9996 43.8172,76.9476 43.8172,67.0516 C43.8172,57.1536 35.7632,49.1016 25.8672,49.1016 M25.8672,87.9996 C14.3172,87.9996 4.9172,78.6016 4.9172,67.0516 C4.9172,55.4996 14.3172,46.1016 25.8672,46.1016 C37.4172,46.1016 46.8172,55.4996 46.8172,67.0516 C46.8172,78.6016 37.4172,87.9996 25.8672,87.9996" id="Fill-2" fill="#1C1F28"></path>
                        <path d="M25.8672,49.1016 C25.0392,49.1016 24.3672,48.4296 24.3672,47.6016 L24.3672,41.5676 C24.3672,40.7396 25.0392,40.0676 25.8672,40.0676 C26.6952,40.0676 27.3672,40.7396 27.3672,41.5676 L27.3672,47.6016 C27.3672,48.4296 26.6952,49.1016 25.8672,49.1016" id="Fill-4" fill="#1C1F28"></path>
                        <path d="M25.8672,70.9102 L30.0652,73.1182 L29.2632,68.4442 L32.6592,65.1322 L27.9672,64.4522 L25.8672,60.1982 L23.7672,64.4522 L19.0752,65.1322 L22.4712,68.4442 L21.6672,73.1182 L25.8672,70.9102 Z M34.0492,78.6042 L25.8672,74.3002 L17.6832,78.6042 L19.2472,69.4902 L12.6292,63.0382 L21.7752,61.7082 L25.8672,53.4202 L29.9592,61.7082 L39.1052,63.0382 L32.4872,69.4902 L34.0492,78.6042 Z" id="Fill-6" fill="#1C1F28"></path>
                        <g id="Group-10">
                            <mask id="mask-2" fill="white">
                                <use xlink:href="#path-1"></use>
                            </mask>
                            <g id="Clip-9"></g>
                            <path d="M27.4864,22.121 L33.7464,37.573 L47.2804,4.169 L34.7604,4.169 L27.4864,22.121 Z M4.4524,4.169 L18.9984,40.069 L31.5204,40.067 L16.9744,4.169 L4.4524,4.169 Z M16.9784,43.069 L0.0004,1.169 L18.9944,1.169 L25.8664,18.129 L32.7404,1.169 L51.7344,1.169 L34.7564,43.067 L16.9784,43.069 Z" id="Fill-8" fill="#1C1F28" mask="url(#mask-2)"></path>
                        </g>
                    </g>
                </g>
            </g>
        </g>
    </g>
</svg>