<?xml version="1.0" encoding="UTF-8"?>
<svg width="96px" height="96px" viewBox="0 0 96 96" version="1.1" xmlns="http://www.w3.org/2000/svg" xmlns:xlink="http://www.w3.org/1999/xlink">
    <title>B0E10B20-10DB-49F9-B15B-95DA9FCB2F12@2x</title>
    <defs>
        <polygon id="path-1" points="0 0.502 86.6656744 0.502 86.6656744 87.9996 0 87.9996"></polygon>
    </defs>
    <g id="Yanbal-UI-Visual-Kit" stroke="none" stroke-width="1" fill="none" fill-rule="evenodd">
        <g id="yanbal-styleguide-pag2" transform="translate(-720.000000, -6056.000000)">
            <g id="3.-icons/decorative/21" transform="translate(720.000000, 6056.000000)">
                <g id="Group-8-Copy" transform="translate(4.000000, 4.000000)">
                    <path d="M59.9093761,19.0975942 C55.7885442,14.9678067 49.1053484,14.9678067 44.9845165,19.0975942 L43.001012,21.0854094 L41.0134595,19.0955659 C36.8926276,14.9678067 30.2114558,14.9678067 26.0906239,19.0975942 C21.969792,23.2273818 21.969792,29.9230736 26.0906239,34.0528611 L43.001012,51 L59.9093761,34.0528611 C64.030208,29.9230736 64.030208,23.2273818 59.9093761,19.0975942" id="Fill-1" fill="#DC582A" fill-rule="nonzero"></path>
                    <g id="Group-5">
                        <mask id="mask-2" fill="white">
                            <use xlink:href="#path-1"></use>
                        </mask>
                        <g id="Clip-4"></g>
                        <path d="M3.06976744,60.7636 L17.5365581,60.7636 L17.5365581,80.7576 L37.9955349,60.7636 L83.595907,60.7636 L83.595907,3.5016 L3.06976744,3.5016 L3.06976744,60.7636 Z M14.4667907,87.9996 L14.4667907,63.7636 L0,63.7636 L0,0.5016 L86.6656744,0.5016 L86.6656744,63.7636 L39.2664186,63.7636 L14.4667907,87.9996 Z" id="Fill-3" fill="#1C1F28" mask="url(#mask-2)"></path>
                    </g>
                    <path d="M33.342927,16.9937582 C30.9757336,16.9937582 28.6106095,17.8627852 26.8103837,19.5968529 C23.2099323,23.0649882 23.2099323,28.7096774 26.8103837,32.1778127 L43,47.7724626 L59.1896163,32.1778127 C62.7900677,28.7096774 62.7900677,23.0649882 59.1896163,19.5968529 C55.591234,16.1287175 49.7291196,16.1247312 46.1265989,19.5968529 L43,22.6065565 L39.8713318,19.5948597 C38.0711061,17.8627852 35.7080512,16.9937582 33.342927,16.9937582 L33.342927,16.9937582 Z M43,52 L24.614936,34.292578 C22.2829195,32.048256 21,29.0624705 21,25.8873328 C21,22.7121951 22.2829195,19.7264097 24.614936,17.4820876 C29.4217457,12.8459481 37.251693,12.8459481 42.0667795,17.4800944 L43,18.3790191 L43.9311512,17.4820876 C46.2610986,15.2357724 49.3607976,14 52.657073,14 C55.9554176,14 59.0551166,15.2357724 61.385064,17.4820876 C63.7170805,19.7264097 65,22.7121951 65,25.8873328 C65,29.0624705 63.7170805,32.048256 61.385064,34.292578 L43,52 Z" id="Fill-6" fill="#1C1F28"></path>
                </g>
            </g>
        </g>
    </g>
</svg>