<?xml version="1.0" encoding="UTF-8"?>
<svg width="96px" height="96px" viewBox="0 0 96 96" version="1.1" xmlns="http://www.w3.org/2000/svg" xmlns:xlink="http://www.w3.org/1999/xlink">
    <title>498EB5B5-D42C-4F89-B163-A232888D1555</title>
    <g id="Yanbal-UI-Visual-Kit" stroke="none" stroke-width="1" fill="none" fill-rule="evenodd">
        <g id="yanbal-styleguide-pag2" transform="translate(-720.000000, -5786.000000)" fill="#1C1F28">
            <g id="3.-icons/decorative/2-copy-3" transform="translate(720.000000, 5786.000000)">
                <g id="Group-4" transform="translate(5.000000, 4.000000)">
                    <path d="M0,0 L0,64.052775 L14.31675,64.052775 L14.31675,88.591725 L38.853675,64.052775 L85.7547,64.052775 L85.7547,0 L0,0 Z M3.0375,3.0375 L82.715175,3.0375 L82.715175,61.015275 L37.59615,61.015275 L17.352225,81.2592 L17.352225,61.015275 L3.0375,61.015275 L3.0375,3.0375 Z" id="Fill-1"></path>
                    <path d="M33.4244475,16.4610225 C31.1098725,16.4610225 28.7973225,17.3418975 27.0355725,19.1036475 C23.5100475,22.6271475 23.5100475,28.3639725 27.0355725,31.8874725 L42.8771475,47.7310725 L58.7207475,31.8854475 C62.2442475,28.3619475 62.2442475,22.6271475 58.7207475,19.1036475 C55.1972475,15.5760975 49.4604225,15.5801475 45.9369225,19.1036475 L42.8771475,22.1634225 L39.8153475,19.1036475 C38.0535975,17.3418975 35.7390225,16.4610225 33.4244475,16.4610225 L33.4244475,16.4610225 Z M42.8771475,52.0260975 L24.8870475,34.0359975 C22.6048725,31.7558475 21.3493725,28.7223975 21.3493725,25.4965725 C21.3493725,22.2687225 22.6048725,19.2352725 24.8870475,16.9551225 C29.5931475,12.2469975 37.2537225,12.2510475 41.9638725,16.9551225 L42.8771475,17.8683975 L43.7883975,16.9551225 C48.4944975,12.2449725 56.1591225,12.2449725 60.8692725,16.9551225 C65.5773975,21.6632475 65.5773975,29.3258475 60.8692725,34.0339725 L42.8771475,52.0260975 Z" id="Fill-2"></path>
                </g>
            </g>
        </g>
    </g>
</svg>