<?xml version="1.0" encoding="UTF-8"?>
<svg width="96px" height="96px" viewBox="0 0 96 96" version="1.1" xmlns="http://www.w3.org/2000/svg" xmlns:xlink="http://www.w3.org/1999/xlink">
    <title>87410A0F-D770-4148-B413-C36DF555E3F4@2x</title>
    <g id="Yanbal-UI-Visual-Kit" stroke="none" stroke-width="1" fill="none" fill-rule="evenodd">
        <g id="yanbal-styleguide-pag2" transform="translate(-360.000000, -6056.000000)">
            <g id="3.-icons/decorative/18" transform="translate(360.000000, 6056.000000)">
                <g id="Group-19" transform="translate(2.000000, 4.000000)">
                    <polygon id="Fill-1" fill="#DC582A" fill-rule="nonzero" points="2 48.7151984 8.2234485 65 15 62.2848016 8.7765515 46"></polygon>
                    <g id="Group-18">
                        <path d="M23.42386,66.1632646 C23.4217674,66.1632646 31.1617674,85.9523279 31.1617674,85.9523279 L43.3515349,81.1758019 L35.6094419,61.3867386" id="Fill-2" fill="#DC582A" fill-rule="nonzero"></path>
                        <path d="M47.277,56.0975741 L78.6325814,60.9055246 L57.4658372,6.7946082 L37.7076977,31.6367332 L47.277,56.0975741 Z M83.542814,64.8377787 L45.0123488,58.9299702 L34.1265349,31.0962316 L58.4014186,0.570459659 L83.542814,64.8377787 Z" id="Fill-4" fill="#1C1F28"></path>
                        <path d="M25.1878605,66.365848 C26.3432093,69.3218472 30.5166977,79.9915168 32.0508837,83.917486 L41.3166977,80.2869072 L33.5766977,60.4957489 L44.0250698,56.4000874 L34.9392558,33.1815623 L8.90832558,43.3861491 L10.8883256,48.4475907 L4.06716279,51.1207692 L9.1887907,64.2164113 L16.0099535,61.5432327 L17.9920465,66.6046743 L27.6094884,62.8337327 L25.1878605,66.365848 Z M30.273907,87.9880079 L29.7004186,86.5257205 C25.5311163,75.8644308 23.523907,70.7317603 22.621814,68.1633301 L16.2129767,70.6772912 L14.2329767,65.6158496 L7.41181395,68.2869332 L0.000418604651,49.3400468 L6.8215814,46.6689632 L4.83948837,41.6075217 L36.7183256,29.1110403 L48.091814,58.1808098 L37.6434419,62.2764713 L45.3834419,82.0655347 L30.273907,87.9880079 Z" id="Fill-6" fill="#1C1F28"></path>
                        <polygon id="Fill-8" fill="#1C1F28" points="75.7044419 32.5373597 74.5595581 29.6127851 82.0944419 26.6567859 83.2393256 29.5834555"></polygon>
                        <polygon id="Fill-10" fill="#1C1F28" points="80.9432791 47.1736409 80.6942093 44.0395695 89.1207209 43.3733698 89.3697907 46.5074412"></polygon>
                        <polygon id="Fill-12" fill="#1C1F28" points="70.4168372 17.7745425 68.4745116 15.3066708 75.1156744 10.0692519 77.058 12.5371237"></polygon>
                        <polygon id="Fill-14" fill="#1C1F28" points="23.996093 67.6261804 22.8512093 64.7016058 35.0367907 59.9229848 36.1816744 62.8496545"></polygon>
                        <polygon id="Fill-16" fill="#1C1F28" points="13.659907 64.1523053 7.39339535 48.1320886 10.3152558 46.9861413 16.5817674 63.006358"></polygon>
                    </g>
                </g>
            </g>
        </g>
    </g>
</svg>