<?xml version="1.0" encoding="UTF-8"?>
<svg width="96px" height="96px" viewBox="0 0 96 96" version="1.1" xmlns="http://www.w3.org/2000/svg" xmlns:xlink="http://www.w3.org/1999/xlink">
    <title>1BF3B0BC-9667-48C0-8A1D-728BD5738EDD@2x</title>
    <defs>
        <polygon id="path-1" points="0 88.8015682 88.8013636 88.8015682 88.8013636 0.000204545455 0 0.000204545455"></polygon>
    </defs>
    <g id="Yanbal-UI-Visual-Kit" stroke="none" stroke-width="1" fill="none" fill-rule="evenodd">
        <g id="yanbal-styleguide-pag2" transform="translate(-240.000000, -6056.000000)">
            <g id="3.-icons/decorative/17" transform="translate(240.000000, 6056.000000)">
                <g id="Group-14" transform="translate(3.000000, 3.000000)">
                    <path d="M1.53409091,71.4031364 L1.53409091,79.6360909 C1.53409091,83.8333636 4.96840909,87.2676818 9.16568182,87.2676818 L44.3781818,87.2676818 C48.5775,87.2676818 52.0118182,83.8333636 52.0118182,79.6360909 L52.0118182,71.4031364" id="Fill-1" fill="#DC582A" fill-rule="nonzero"></path>
                    <path d="M26.77275,77.2639773 C25.6293409,77.2639773 24.7007045,78.1926136 24.7007045,79.3360227 C24.7007045,80.4773864 25.6293409,81.4060227 26.77275,81.4060227 C27.9161591,81.4060227 28.8447955,80.4773864 28.8447955,79.3360227 C28.8447955,78.1926136 27.9161591,77.2639773 26.77275,77.2639773 M26.77275,84.4742045 C23.93775,84.4742045 21.6325227,82.1689773 21.6325227,79.3360227 C21.6325227,76.5010227 23.93775,74.1957955 26.77275,74.1957955 C29.60775,74.1957955 31.9129773,76.5010227 31.9129773,79.3360227 C31.9129773,82.1689773 29.60775,84.4742045 26.77275,84.4742045" id="Fill-3" fill="#1C1F28"></path>
                    <path d="M44.3787955,88.8015682 L9.16629545,88.8015682 C4.11197727,88.8015682 0.000613636364,84.6902045 0.000613636364,79.6379318 L0.000613636364,9.16588636 C0.000613636364,4.11361364 4.11197727,0.000204545455 9.16629545,0.000204545455 L44.3787955,0.000204545455 C49.4331136,0.000204545455 53.5444773,4.11361364 53.5444773,9.16588636 L53.5444773,12.5204318 L50.4762955,12.5204318 L50.4762955,9.16588636 C50.4762955,5.80520455 47.7415227,3.06838636 44.3787955,3.06838636 L9.16629545,3.06838636 C5.80561364,3.06838636 3.06879545,5.80520455 3.06879545,9.16588636 L3.06879545,79.6379318 C3.06879545,82.9986136 5.80561364,85.7333864 9.16629545,85.7333864 L44.3787955,85.7333864 C47.7415227,85.7333864 50.4762955,82.9986136 50.4762955,79.6379318 L50.4762955,53.8979318 L53.5444773,53.8979318 L53.5444773,79.6379318 C53.5444773,84.6902045 49.4331136,88.8015682 44.3787955,88.8015682" id="Fill-5" fill="#1C1F28"></path>
                    <mask id="mask-2" fill="white">
                        <use xlink:href="#path-1"></use>
                    </mask>
                    <g id="Clip-8"></g>
                    <polygon id="Fill-7" fill="#1C1F28" mask="url(#mask-2)" points="22.3670455 8.83656818 31.1768182 8.83656818 31.1768182 5.76838636 22.3670455 5.76838636"></polygon>
                    <polygon id="Fill-9" fill="#1C1F28" mask="url(#mask-2)" points="1.53409091 72.9370227 52.0118182 72.9370227 52.0118182 69.8688409 1.53409091 69.8688409"></polygon>
                    <path d="M38.5099773,47.2831364 L44.9838409,47.2831364 L44.9838409,58.3858636 L56.0865682,47.2831364 L85.7333864,47.2831364 L85.7333864,14.0547273 L38.5099773,14.0547273 L38.5099773,47.2831364 Z M41.9156591,65.7924545 L41.9156591,50.3513182 L35.4417955,50.3513182 L35.4417955,10.9865455 L88.8015682,10.9865455 L88.8015682,50.3513182 L57.3567955,50.3513182 L41.9156591,65.7924545 Z" id="Fill-10" fill="#1C1F28" mask="url(#mask-2)"></path>
                    <polygon id="Fill-11" fill="#1C1F28" mask="url(#mask-2)" points="60.5290909 21.7761136 63.5972727 21.7761136 63.5972727 17.88975 60.5290909 17.88975"></polygon>
                    <polygon id="Fill-12" fill="#1C1F28" mask="url(#mask-2)" points="60.5290909 43.3474773 63.5972727 43.3474773 63.5972727 39.4611136 60.5290909 39.4611136"></polygon>
                    <path d="M62.6800909,40.9931591 C62.4182727,40.9931591 62.1503182,40.9849773 61.8762273,40.9645227 C56.5048636,40.5902045 54.7621364,36.1965682 54.5903182,33.9261136 L57.6503182,33.6949773 C57.6871364,34.0877045 58.1187273,37.6263409 62.0889545,37.9045227 C63.6619091,38.00475 64.8748636,37.7061136 65.6173636,37.01475 C66.1819091,36.4870227 66.4703182,35.7281591 66.4703182,34.7606591 C66.4703182,32.9708864 65.1162273,32.4329318 62.2444091,31.7108864 L61.5939545,31.5452045 C57.6073636,30.4958864 55.7050909,28.9229318 55.431,26.4438409 C55.3675909,25.8629318 55.2775909,23.8461136 56.7585,22.1933864 C57.9285,20.8924773 59.6835,20.2317955 61.9825909,20.2317955 C66.7607727,20.2317955 68.6466818,24.0199773 68.976,26.0245227 L65.9487273,26.5236136 L67.4623636,26.2740682 L65.9507727,26.5358864 C65.8894091,26.2045227 65.2696364,23.2999773 61.9825909,23.2999773 C60.5916818,23.2999773 59.6037273,23.6170227 59.0453182,24.2429318 C58.3785,24.9833864 58.4664545,25.9938409 58.4787273,26.1083864 C58.5257727,26.5133864 58.6444091,27.5974773 62.3732727,28.57725 L62.9950909,28.7367955 C65.4435,29.3524773 69.5385,30.3833864 69.5385,34.7606591 C69.5385,36.58725 68.9064545,38.1417955 67.7098636,39.2565682 C66.4846364,40.3999773 64.7582727,40.9931591 62.6800909,40.9931591" id="Fill-13" fill="#1C1F28" mask="url(#mask-2)"></path>
                </g>
            </g>
        </g>
    </g>
</svg>