<?xml version="1.0" encoding="UTF-8"?>
<svg width="96px" height="96px" viewBox="0 0 96 96" version="1.1" xmlns="http://www.w3.org/2000/svg" xmlns:xlink="http://www.w3.org/1999/xlink">
    <title>A9458B19-287D-4A8B-8D86-ED0DF9E2924D@2x</title>
    <defs>
        <path d="M36.4682244,24.4849522 C33.9009128,25.2608758 31.3496756,26.5069177 28.447098,28.3668521 C28.1669441,27.848809 27.8844939,26.9770361 27.9166427,26.3677079 C27.9947184,25.0349451 29.537861,23.394095 31.0396693,22.3625731 C31.5494575,22.0088432 32.3325105,21.5752389 33.2510477,21.1074027 C33.2510477,21.1074027 34.8791549,20.2721438 36.8563063,19.3980887 C38.6818991,18.5742405 40.4408979,17.8257025 41.41914,17.4263301 L40.1102245,14.2633005 C39.8828865,14.3545857 36.2454791,15.8470974 33.0420805,17.389816 C32.0569493,17.0999857 31.037373,16.8945942 29.9580917,16.8945942 C25.4182215,16.8945942 21.5167346,19.6605334 19.8656639,23.5835116 C19.5051381,23.0312366 19.243355,22.5314506 19.1928354,22.2621595 C19.4339514,21.4314648 20.0287043,19.7449722 21.4616224,16.337755 C22.6993513,13.4075025 24.1391584,11.4243332 25.7052644,10.4658394 C26.8603249,9.79489374 29.8340892,8.62644416 37.4602446,6.86464128 C45.6788564,4.92939666 47.1829611,4.73998003 47.3368161,4.72628726 L52.2188415,4.98416774 L53.2912337,15.0666096 L48.3219473,14.5645414 L47.9751995,16.0273855 C47.945347,16.1551847 47.9063092,16.2784196 47.8764567,16.4039367 C47.0153281,19.8020254 45.4721855,23.1658822 44.6638728,23.4420197 C43.0403582,23.412352 41.5385499,23.4967908 40.087261,23.6953359 C40.087261,23.6953359 38.5395258,23.8710598 36.4682244,24.4849522 L36.4682244,24.4849522 Z M26.9797348,31.7033233 C27.3999656,31.9406647 27.8500488,32.0593353 28.2978357,32.0593353 C28.7984385,32.0593353 29.2944486,31.910997 29.7353465,31.6188846 C32.6126643,29.7247183 35.0284172,28.490087 37.4533555,27.7506775 C37.4533555,27.7575239 37.4556519,27.7620881 37.4556519,27.7666524 L37.4556519,33.3441734 L22.4605316,33.3441734 L22.4605316,27.7666524 C22.4605316,24.4917986 24.6167977,21.7327057 27.5813767,20.7354158 C26.1943854,21.9791756 24.6099087,23.8733419 24.4767208,26.1760091 C24.3848671,27.8008843 25.2253287,30.7037512 26.9797348,31.7033233 L26.9797348,31.7033233 Z M40.9001665,41.032663 L40.9001665,36.7673656 L56.4739652,36.7673656 L56.4739652,76.5768079 L3.44451461,76.5768079 L3.44451461,36.7673656 L19.016017,36.7673656 L19.016017,41.032663 L22.4605316,41.032663 L22.4605316,36.7673656 L37.4556519,36.7673656 L37.4556519,41.032663 L40.9001665,41.032663 Z M76.5554854,3.42319213 L76.5554854,20.6098987 L57.2294621,19.5236058 L55.5163901,3.42319213 L76.5554854,3.42319213 Z M50.9512601,18.2707174 L53.6609449,18.5445728 L54.1133245,22.7779204 L80,24.2339181 L80,0 L51.6906826,0 L51.8537229,1.53815433 L47.4286698,1.30537726 C47.0405879,1.30537726 46.1289397,1.30537726 36.6725989,3.53273427 C30.1280211,5.04122094 25.9739365,6.34431607 23.9347839,7.53102268 C21.7073311,8.89117102 19.805959,11.4083583 18.2834836,15.0164028 C16.967679,18.1452004 16.1593662,20.2835544 15.7873586,21.6756525 C15.3900913,23.7341321 17.4981342,26.4521466 19.016017,27.9218371 L19.016017,33.3441734 L0,33.3441734 L0,80 L59.9184798,80 L59.9184798,33.3441734 L40.9001665,33.3441734 L40.9001665,27.7666524 C40.9001665,27.5156183 40.8404616,27.2805591 40.8220908,27.029525 C42.0093002,26.885751 43.2424364,26.8309799 44.5743154,26.8652118 C47.8925311,26.9473684 49.9913887,21.6802168 50.9512601,18.2707174 L50.9512601,18.2707174 Z" id="path-1"></path>
    </defs>
    <g id="Yanbal-UI-Visual-Kit" stroke="none" stroke-width="1" fill="none" fill-rule="evenodd">
        <g id="yanbal-styleguide-pag2" transform="translate(-600.000000, -6326.000000)">
            <g id="3.-icons/decorative/encuesta5-dark" transform="translate(600.000000, 6326.000000)">
                <g id="colors/brand-secondary" transform="translate(8.000000, 8.000000)">
                    <mask id="mask-2" fill="white">
                        <use xlink:href="#path-1"></use>
                    </mask>
                    <use id="Mask" fill="#1C1F28" xlink:href="#path-1"></use>
                    <g mask="url(#mask-2)" fill="#1C1F28" fill-rule="nonzero" id="box">
                        <g transform="translate(-16.000000, -12.000000)">
                            <rect x="0" y="0" width="105.623306" height="102.982724"></rect>
                        </g>
                    </g>
                </g>
            </g>
        </g>
    </g>
</svg>