<?xml version="1.0" encoding="UTF-8"?>
<svg width="101px" height="20px" viewBox="0 0 101 20" version="1.1" xmlns="http://www.w3.org/2000/svg" xmlns:xlink="http://www.w3.org/1999/xlink">
    <title>1DBCAD6D-CFB1-489E-AD10-971C1A1CBAC5</title>
    <g id="Page-2" stroke="none" stroke-width="1" fill="none" fill-rule="evenodd">
        <g id="mob-home-menu" transform="translate(-137.000000, -8.000000)" fill="#FFFFFF" fill-rule="nonzero">
            <g id="yanbal-logo" transform="translate(137.000000, 8.000000)">
                <polygon id="l" points="96.4655699 17.9532633 96.4655699 7.56756757 95.0588235 7.56756757 95.0588235 19.4594595 101 19.4594595 101 17.9532633"></polygon>
                <polygon id="a" points="85.7113545 7.81932275 85.6139738 7.56756757 83.9761127 7.56756757 79.3957219 19.4594595 80.9900724 19.4594595 84.7955612 9.58868961 88.5087196 19.2151783 88.6095968 19.4594595 90.197861 19.4594595"></polygon>
                <path d="M71.7881738,12.4392314 L69.5685645,12.4392314 L69.5685645,9.11276864 L71.7881738,9.11146184 C72.6568783,9.11146184 73.3643122,9.8562079 73.3643122,10.7717529 C73.3643122,11.6910876 72.6568783,12.4392314 71.7881738,12.4392314 L71.7881738,12.4392314 Z M69.5685645,13.9349961 L72.2205427,13.9349961 C73.2785326,13.9349961 74.1393037,14.8328993 74.1393037,15.9371464 C74.1393037,17.0508025 73.2792763,17.9571999 72.2222782,17.9571999 L69.5685645,17.9571999 L69.5685645,13.9349961 Z M73.9608028,12.9479691 C74.4910992,12.3610846 74.7881049,11.588373 74.7881049,10.7717529 C74.7881049,9.02821859 73.4415386,7.60981645 71.7861905,7.60981645 L68.1463832,7.60981645 L68.1463832,19.4594987 L72.2205427,19.4575385 C74.0615814,19.4575385 75.5592537,17.8781384 75.5592537,15.9371464 C75.5592537,14.6884978 74.9559454,13.577586 73.9608028,12.9479691 L73.9608028,12.9479691 Z" id="b"></path>
                <polygon id="n" points="60.6268037 7.57242119 60.6268037 17.3157339 54.866982 7.56756757 52.9304813 7.56756757 52.9304813 19.45618 54.4146833 19.45618 54.4146833 9.71011252 60.1760575 19.4594595 62.1122995 19.4594595 62.1122995 7.57242119"></polygon>
                <polygon id="a" points="43.5904246 7.86011227 43.4947485 7.60768379 41.8669691 7.60768379 37.3157964 19.4820344 38.9008817 19.4820344 42.6799586 9.62606415 46.4592927 19.4820344 48.0448924 19.4820344"></polygon>
                <polygon id="y" points="34.3779948 7.56756757 30.7841519 12.7978014 27.1979568 7.56756757 25.3850267 7.56756757 30.0373844 14.3504349 30.0421805 19.4594595 31.5257344 19.4594595 31.5302713 14.3506972 36.1871658 7.56756757"></polygon>
                <path d="M13.4973505,5.88022008 L13.4983875,5.88022008 L15.291629,4.10652469 L15.2900735,4.10652469 L19.3472273,0.0942680318 C16.6380508,0.710285838 14.0623888,2.04526886 11.9354908,4.10652469 L1.05030494,4.10652469 C0.470230075,4.10652469 -5.18502672e-05,4.57177519 -5.18502672e-05,5.14510123 L-5.18502672e-05,18.1919866 C-5.18502672e-05,18.7654408 0.470230075,19.2305631 1.05030494,19.2305631 L14.2411426,19.2305631 C14.8214767,19.2305631 15.291629,18.7654408 15.291629,18.1919866 L15.291629,7.43020037 L13.4983875,9.20402396 L13.4983875,17.4568677 L1.79331927,17.4568677 L1.79331927,5.88022008 L10.3619648,5.88022008 C9.02746858,7.63853105 8.12203328,9.61491617 7.6448812,11.668608 L13.4973505,5.88022008 Z" id="swoosh"></path>
            </g>
        </g>
    </g>
</svg>