<?xml version="1.0" encoding="UTF-8"?>
<svg width="28px" height="28px" viewBox="0 0 28 28" version="1.1" xmlns="http://www.w3.org/2000/svg" xmlns:xlink="http://www.w3.org/1999/xlink">
    <title>ACCB9055-1EB5-423E-B5D6-4EFA5F471EAC</title>
    <g id="Page-2" stroke="none" stroke-width="1" fill="none" fill-rule="evenodd">
        <g id="emprendimiento-home" transform="translate(-115.000000, -7697.000000)" fill="#FFFFFF" fill-rule="nonzero">
            <g id="Group-13" transform="translate(0.000000, 6826.000000)">
                <g id="Group-20-Copy-7" transform="translate(0.000000, 850.000000)">
                    <g id="logo/isotipo" transform="translate(115.000000, 21.000000)">
                        <path d="M19.5338716,8.46593642 L19.5353723,8.46593642 L22.1306087,5.87068636 L22.1283575,5.87068636 L28,0 C24.0791933,0.901349948 20.351613,2.85468127 17.2734984,5.87068636 L1.52010988,5.87068636 C0.680607015,5.87068636 0,6.55143537 0,7.39031923 L0,26.4803671 C0,27.3194386 0.680607015,28 1.52010988,28 L20.6103112,28 C21.4501893,28 22.1306087,27.3194386 22.1306087,26.4803671 L22.1306087,10.7338492 L19.5353723,13.3292868 L19.5353723,25.4047499 L2.59542394,25.4047499 L2.59542394,8.46593642 L14.9962413,8.46593642 C13.0649157,11.0386762 11.7545409,13.9304994 11.0639912,16.935437 L19.5338716,8.46593642 Z" id="swoosh"></path>
                    </g>
                </g>
            </g>
        </g>
    </g>
</svg>