<?xml version="1.0" encoding="UTF-8"?>
<svg width="80px" height="80px" viewBox="0 0 80 80" version="1.1" xmlns="http://www.w3.org/2000/svg" xmlns:xlink="http://www.w3.org/1999/xlink">
    <title>Fill 10</title>
    <g id="views" stroke="none" stroke-width="1" fill="none" fill-rule="evenodd">
        <g id="3.-icons/decorative/17" transform="translate(-8.000000, -8.000000)" fill="#FFFFFF" fill-rule="nonzero">
            <g id="elements" transform="translate(8.000000, 8.000000)">
                <path d="M49.449,78 L78,78 L78,52.907 L49.449,52.907 L49.449,78 Z M63.7246,23.5098 C57.8106,23.5098 52.9996,28.3448 52.9996,34.2868 C52.9996,40.2308 57.8106,45.0658 63.7246,45.0658 C69.6386,45.0658 74.4496,40.2308 74.4496,34.2868 C74.4496,28.3448 69.6386,23.5098 63.7246,23.5098 M63.7246,47.0658 C56.7076,47.0658 50.9996,41.3328 50.9996,34.2868 C50.9996,27.2408 56.7076,21.5098 63.7246,21.5098 C70.7416,21.5098 76.4496,27.2408 76.4496,34.2868 C76.4496,41.3328 70.7416,47.0658 63.7246,47.0658 M24.4849,23.5098 C18.5709,23.5098 13.7599,28.3448 13.7599,34.2868 C13.7599,40.2308 18.5709,45.0658 24.4849,45.0658 C30.3989,45.0658 35.2099,40.2308 35.2099,34.2868 C35.2099,28.3448 30.3989,23.5098 24.4849,23.5098 M80,50.907 L80,80 L47.449,80 L47.449,50.907 L80,50.907 Z M38.76,52.907 L38.76,78 L10.209,78 L10.209,52.907 L38.76,52.907 Z M24.4849,21.5098 C31.5019,21.5098 37.2099,27.2408 37.2099,34.2868 C37.2099,41.3328 31.5019,47.0658 24.4849,47.0658 C17.4679,47.0658 11.7599,41.3328 11.7599,34.2868 C11.7599,27.2408 17.4679,21.5098 24.4849,21.5098 Z M8.209,80 L40.76,80 L40.76,50.907 L8.209,50.907 L8.209,80 Z M4.2363,8.5605 C6.0873,9.4875 7.5963,11.0015 8.5213,12.8585 C9.4463,11.0015 10.9563,9.4875 12.8063,8.5605 C10.9563,7.6325 9.4463,6.1185 8.5213,4.2615 C7.5963,6.1185 6.0873,7.6325 4.2363,8.5605 M9.5213,17.1215 L7.5213,17.1215 C7.5213,12.9525 4.1473,9.5605 0.0003,9.5605 L0.0003,7.5605 C4.1473,7.5595 7.5213,4.1675 7.5213,-0.0005 L9.5213,-0.0005 C9.5223,4.1675 12.8963,7.5595 17.0433,7.5605 L17.0433,9.5605 C12.8963,9.5605 9.5223,12.9525 9.5213,17.1215" id="Fill-10"></path>
            </g>
        </g>
    </g>
</svg>