<?xml version="1.0" encoding="UTF-8"?>
<svg width="76px" height="76px" viewBox="0 0 76 76" version="1.1" xmlns="http://www.w3.org/2000/svg" xmlns:xlink="http://www.w3.org/1999/xlink">
    <!-- Generator: Sketch 55.2 (78181) - https://sketchapp.com -->
    <title>icon</title>
    <desc>Created with Sketch.</desc>
    <g id="empezar" stroke="none" stroke-width="1" fill="none" fill-rule="evenodd">
        <g id="DSK-F1-tipo" transform="translate(-765.000000, -419.000000)" fill="#FFFFFF">
            <g id="Group-3" transform="translate(765.000000, 419.000000)">
                <g id="Group-8">
                    <g id="icon" transform="translate(15.200000, 16.466667)">
                        <path d="M4.9514,40.0988667 L21.5118,40.0988667 L21.5118,22.1020667 L4.9514,22.1020667 L4.9514,40.0988667 Z M2.08113333,20.0209333 L21.5118,20.0209333 L21.5118,13.4976 L2.08113333,13.4976 L2.08113333,20.0209333 Z M23.5942,40.0988667 L40.1558667,40.0988667 L40.1558667,22.1020667 L23.5942,22.1020667 L23.5942,40.0988667 Z M23.5942,20.0209333 L43.0248667,20.0209333 L43.0248667,13.4976 L23.5942,13.4976 L23.5942,20.0209333 Z M28.4607333,3.0856 L28.5,3.04633333 C29.0928,2.45226667 29.9858,2.11026667 30.9497333,2.11026667 C31.9136667,2.11026667 32.8066667,2.451 33.4007333,3.04506667 C34.7560667,4.4118 34.7560667,6.63226667 33.402,7.99646667 C32.0922667,9.31506667 28.2289333,11.4164667 26.1212,11.4164667 C25.7386667,11.4164667 25.4448,11.3417333 25.3168667,11.2150667 C24.2832667,10.1396667 26.7038667,4.8944 28.4607333,3.0856 L28.4607333,3.0856 Z M19.7612667,11.2378667 C19.6105333,11.3531333 19.3369333,11.4164667 18.9848,11.4164667 C16.8770667,11.4164667 13.0137333,9.31506667 11.704,7.99646667 C10.3499333,6.63226667 10.3512,4.4118 11.7052667,3.04633333 C12.3272,2.42186667 13.2214667,2.0634 14.1588,2.0634 C15.0948667,2.06466667 15.9878667,2.42186667 16.6072667,3.04506667 C18.3236,4.77406667 20.8227333,10.1434667 19.8233333,11.1770667 L19.7612667,11.2378667 Z M42.6309333,11.4164667 L32.2784667,11.4164667 L33.3323333,10.6982667 C33.9846667,10.2549333 34.5179333,9.82806667 34.8738667,9.46706667 C37.0373333,7.29093333 37.0386,3.75313333 34.8764,1.5808 C33.8795333,0.576333333 32.4494667,5.43565193e-13 30.951,5.43565193e-13 C29.4525333,5.43565193e-13 28.0212,0.576333333 27.0230667,1.57953333 C25.9476667,2.66 22.6074667,7.70133333 23.047,10.9706 L23.1065333,11.4164667 L22.0007333,11.4164667 L22.0602667,10.9706 C22.496,7.6988 19.1583333,2.66 18.0854667,1.57953333 C17.0860667,0.576333333 15.6547333,5.43565193e-13 14.1575333,5.43565193e-13 C12.6590667,5.43565193e-13 11.2277333,0.576333333 10.2296,1.57953333 C8.0712,3.75313333 8.06993333,7.28966667 10.2270667,9.46326667 C10.5893333,9.82806667 11.1238667,10.2549333 11.7724,10.6982667 L12.825,11.4164667 L2.47506667,11.4164667 C1.11086667,11.4164667 -1.63424829e-13,12.5260667 -1.63424829e-13,13.8915333 L-1.63424829e-13,21.0621333 C-1.63424829e-13,21.6359333 0.4674,22.1020667 1.0412,22.1020667 L2.869,22.1020667 L2.869,39.7062 C2.869,41.0704 3.97986667,42.18 5.34533333,42.18 L39.7632,42.18 C41.1274,42.18 42.2382667,41.0704 42.2382667,39.7062 L42.2382667,22.1020667 L44.0648,22.1020667 C44.6386,22.1020667 45.106,21.6359333 45.106,21.0621333 L45.106,13.8915333 C45.106,12.5260667 43.9951333,11.4164667 42.6309333,11.4164667 L42.6309333,11.4164667 Z" id="Fill-1"></path>
                    </g>
                </g>
            </g>
        </g>
    </g>
</svg>