<?xml version="1.0" encoding="UTF-8"?>
<svg width="60px" height="60px" viewBox="0 0 60 60" version="1.1" xmlns="http://www.w3.org/2000/svg" xmlns:xlink="http://www.w3.org/1999/xlink">
    <title>icon</title>
    <defs>
        <path d="M30,0 C46.5417559,0 60,13.4582441 60,30 C60,46.5417559 46.5417559,60 30,60 C13.4582441,60 0,46.5417559 0,30 C0,13.4582441 13.4582441,0 30,0 Z M30,1.48369297 C14.2748312,1.48369297 1.48369297,14.2748312 1.48369297,30 C1.48369297,45.7251688 14.2748312,58.5175424 30,58.5175424 C45.7251688,58.5175424 58.5175424,45.7251688 58.5175424,30 C58.5175424,14.2748312 45.7251688,1.48369297 30,1.48369297 Z M29.7608302,12.4477022 C35.2693955,12.4477022 41.1238676,14.1339977 41.1238676,17.2607478 C41.1238676,17.3225169 41.1065722,17.3818152 41.1016307,17.4423489 L41.1016307,17.4423489 L41.1238676,17.4423489 L41.1238676,29.1500577 L46.5447208,27.7948443 L46.5447208,31.9852578 L41.1238676,37.0614396 L41.0966892,44.9864108 C40.9867402,45.3755559 39.7414759,48.7889145 29.7608302,48.7889145 C20.5300609,48.7889145 18.6559875,45.4879756 18.4719157,45.1111843 L18.4719157,45.1111843 L18.3977928,44.9567617 L18.3977928,17.727722 L18.4521496,17.727722 C18.4225004,17.5745347 18.3977928,17.420112 18.3977928,17.2607478 C18.3977928,14.1339977 24.2522649,12.4477022 29.7608302,12.4477022 Z M39.64141,19.7265689 C38.78282,20.3578488 37.6017954,20.8631197 36.2478175,21.2436172 L36.2478175,21.2436172 L36.2478175,25.9096524 L34.7653599,25.9096524 L34.7653599,21.599407 C33.1840718,21.9119585 31.4557733,22.0737934 29.7608302,22.0737934 C25.9447373,22.0737934 21.9668094,21.2621479 19.8802504,19.7265689 L19.8802504,19.7265689 L19.8802504,44.5700873 C20.1199143,44.8814034 20.9970351,45.8079394 23.2553121,46.4985175 L23.2553121,46.4985175 L23.2553121,42.4353484 L24.7377697,42.4353484 L24.7377697,46.8654258 C26.0559216,47.1273266 27.696508,47.3052215 29.7608302,47.3052215 C37.7525119,47.3052215 39.3980399,45.0654752 39.64141,44.6318564 L39.64141,44.6318564 L39.64141,36.417806 L45.0622632,31.3416241 L45.0622632,29.6936254 L39.64141,31.0488387 Z M29.7608302,13.9301598 C23.6382803,13.9301598 19.8802504,15.8697085 19.8802504,17.2607478 C19.8802504,18.6505518 23.6382803,20.5901005 29.7608302,20.5901005 C35.8821446,20.5901005 39.64141,18.6505518 39.64141,17.2607478 C39.64141,15.8697085 35.8821446,13.9301598 29.7608302,13.9301598 Z M29.7604596,14.6484105 C32.2707544,14.6484105 34.5290315,15.0375556 35.7990035,15.6898369 L35.7990035,15.6898369 L35.1220145,17.0079888 C34.0842942,16.4755394 31.977969,16.1308681 29.7604596,16.1308681 C26.2939796,16.1308681 24.3840801,16.875803 24.014701,17.2563004 C24.1184731,17.3576017 24.4087877,17.5750288 25.1413688,17.8072805 L25.1413688,17.8072805 L24.6929254,19.2205567 C23.2327047,18.7572887 22.4927113,18.0975951 22.4927113,17.2600066 C22.4927113,15.1981552 27.0611514,14.6484105 29.7604596,14.6484105 Z" id="path-1"></path>
    </defs>
    <g id="views" stroke="none" stroke-width="1" fill="none" fill-rule="evenodd">
        <g id="3.-icons/seal/bloque2/woody" transform="translate(-2.000000, -2.000000)">
            <g id="elements" transform="translate(2.000000, 2.000000)">
                <mask id="mask-2" fill="white">
                    <use xlink:href="#path-1"></use>
                </mask>
                <use id="icon" fill="#FFFFFF" xlink:href="#path-1"></use>
            </g>
        </g>
    </g>
</svg>