<?xml version="1.0" encoding="UTF-8"?>
<svg width="60px" height="60px" viewBox="0 0 60 60" version="1.1" xmlns="http://www.w3.org/2000/svg" xmlns:xlink="http://www.w3.org/1999/xlink">
    <title>icon</title>
    <defs>
        <path d="M42.7959562,36.268701 C38.8353237,40.229415 33.4922995,42.2937797 27.9479081,42.0998209 L42.1251441,27.9235283 L41.0763054,26.874668 L26.8990693,41.0521959 C26.710056,35.5027488 28.7694367,30.1620854 32.7300692,26.2026067 C36.9328364,21.9985175 42.6909488,19.8958552 48.5948361,20.402372 C49.0939302,26.3125579 46.9987234,32.0658472 42.7959562,36.268701 L42.7959562,36.268701 Z M15.1753006,38.2527642 C12.474757,35.5534005 11.1047192,31.8743591 11.3641492,28.080425 C15.1567699,27.8185187 18.8357355,29.1910557 21.536279,31.8916548 C23.9897463,34.3451726 25.3313704,37.6078819 25.3634904,41.0299586 L16.3217345,31.989252 L15.2741311,33.0381123 L24.315887,42.0800544 C20.8938807,42.0504046 17.6287679,40.706282 15.1753006,38.2527642 L15.1753006,38.2527642 Z M30,0 C46.5417559,0 60,13.4572858 60,30.0006177 C60,46.5427142 46.5417559,60 30,60 C13.4582441,60 0,46.5427142 0,30.0006177 C0,13.4572858 13.4582441,0 30,0 Z M30,1.48248811 C14.2748312,1.48248811 1.48369297,14.2751251 1.48369297,30.0006177 C1.48369297,45.7248749 14.2748312,58.5175119 30,58.5175119 C45.7251688,58.5175119 58.516307,45.7248749 58.516307,30.0006177 C58.516307,14.2751251 45.7251688,1.48248811 30,1.48248811 Z M31.6812304,25.1537464 C36.3460303,20.4888505 42.7897793,18.2465872 49.3570664,18.9878312 L49.3570664,18.9878312 L49.9438725,19.0545432 L50.0093477,19.6413614 C50.755518,26.2100191 48.5095948,32.6526654 43.8447949,37.3175613 C39.7680366,41.3931682 34.3348295,43.6230774 28.6458985,43.6230774 C27.8231346,43.6230774 26.9978999,43.5773673 26.168959,43.482241 L26.168959,43.482241 L26.1405452,43.4797702 L26.1133668,43.482241 C25.5512683,43.5464822 24.9904052,43.5786028 24.4332482,43.5786028 C20.5751524,43.5786028 16.8900099,42.0652295 14.1264619,39.3016246 C10.9638857,36.1389833 9.43942514,31.7693496 9.94593148,27.3144728 L9.94593148,27.3144728 L10.0114067,26.7276546 L10.5982128,26.662178 C15.0554686,26.1556613 19.4225416,27.6801532 22.5851178,30.8427945 C24.0391616,32.2968682 25.1287679,34.0128482 25.851466,35.8684292 C26.7051145,31.8582988 28.6940784,28.1397245 31.6812304,25.1537464 Z" id="path-1"></path>
    </defs>
    <g id="views" stroke="none" stroke-width="1" fill="none" fill-rule="evenodd">
        <g id="3.-icons/seal/bloque2/herbal" transform="translate(-2.000000, -2.000000)">
            <g id="elements" transform="translate(2.000000, 2.000000)">
                <mask id="mask-2" fill="white">
                    <use xlink:href="#path-1"></use>
                </mask>
                <use id="icon" fill="#FFFFFF" xlink:href="#path-1"></use>
            </g>
        </g>
    </g>
</svg>