<?xml version="1.0" encoding="UTF-8"?>
<svg width="64px" height="64px" viewBox="0 0 64 64" version="1.1" xmlns="http://www.w3.org/2000/svg" xmlns:xlink="http://www.w3.org/1999/xlink">
    <title>9A69E2F7-0D7B-4C5F-9DBA-57D8F6E2C52E</title>
    <g id="test-fragancias-2021" stroke="none" stroke-width="1" fill="none" fill-rule="evenodd">
        <g id="paso-2" transform="translate(-568.000000, -358.000000)" fill="#FFFFFF" fill-rule="nonzero">
            <g id="3.-icons/decorative/32" transform="translate(568.000000, 358.000000)">
                <g id="elements" transform="translate(18.666667, 4.666667)">
                    <path d="M4.76853333,13.3326667 L6.0592,13.6686667 L1.29053333,31.974 L-0.000133333334,31.638 L4.76853333,13.3326667 Z M21.2949333,13.3326667 L26.0629333,31.638 L24.7729333,31.974 L20.0042667,13.6686667 L21.2949333,13.3326667 Z M16.8518667,13.4700667 L24.3918667,42.4460667 L17.3472,42.4460667 L17.3472,54.6667333 L16.0138667,54.6667333 L16.0138667,42.4460667 L10.0478667,42.4460667 L10.0478667,54.6667333 L8.71453333,54.6667333 L8.71453333,42.4460667 L1.66986667,42.4460667 L9.20986667,13.4700667 L16.8518667,13.4700667 Z M15.8212,14.8034 L10.2405333,14.8034 L3.39453333,41.1127333 L22.6672,41.1127333 L15.8212,14.8034 Z M13.0309333,0 C16.0282667,0 18.4662667,2.44933333 18.4662667,5.46 C18.4662667,8.47066667 16.0282667,10.92 13.0309333,10.92 C10.0336,10.92 7.5956,8.47066667 7.5956,5.46 C7.5956,2.44933333 10.0336,0 13.0309333,0 Z M13.0309333,1.33333333 C10.7689333,1.33333333 8.92893333,3.18466667 8.92893333,5.46 C8.92893333,7.736 10.7689333,9.58666667 13.0309333,9.58666667 C15.2929333,9.58666667 17.1329333,7.736 17.1329333,5.46 C17.1329333,3.18466667 15.2929333,1.33333333 13.0309333,1.33333333 Z" id="Fill-1"></path>
                </g>
            </g>
        </g>
    </g>
</svg>