<?xml version="1.0" encoding="UTF-8"?>
<svg width="63px" height="64px" viewBox="0 0 63 64" version="1.1" xmlns="http://www.w3.org/2000/svg" xmlns:xlink="http://www.w3.org/1999/xlink">
    <title>F3C67DCC-8B3A-4502-A47D-97C61BA51738</title>
    <g id="mob-test-fragancia-2021" stroke="none" stroke-width="1" fill="none" fill-rule="evenodd">
        <g id="paso-4-mujer" transform="translate(-78.000000, -484.000000)" fill="#FFFFFF" fill-rule="nonzero">
            <g id="Group-2-Copy-2" transform="translate(109.500000, 516.000000) scale(-1, 1) translate(-109.500000, -516.000000) translate(78.000000, 484.000000)">
                <g id="3.-icons/decorative/32-copy-2" transform="translate(31.000000, 0.000000)">
                    <g id="elements" transform="translate(0.761905, 0.761905)">
                        <path d="M5.44975238,15.2373333 L6.9248,15.6213333 L1.47489524,36.5417143 L-0.000152380953,36.1577143 L5.44975238,15.2373333 Z M24.3370667,15.2373333 L29.7862095,36.1577143 L28.3119238,36.5417143 L22.862019,15.6213333 L24.3370667,15.2373333 Z M19.2592762,15.3943619 L27.876419,48.5097905 L19.8253714,48.5097905 L19.8253714,62.4762667 L18.3015619,62.4762667 L18.3015619,48.5097905 L11.4832762,48.5097905 L11.4832762,62.4762667 L9.95946667,62.4762667 L9.95946667,48.5097905 L1.90841905,48.5097905 L10.5255619,15.3943619 L19.2592762,15.3943619 Z M18.0813714,16.9181714 L11.7034667,16.9181714 L3.87946667,46.985981 L25.9053714,46.985981 L18.0813714,16.9181714 Z M14.8924952,0 C18.318019,0 21.1043048,2.7992381 21.1043048,6.24 C21.1043048,9.6807619 18.318019,12.48 14.8924952,12.48 C11.4669714,12.48 8.68068571,9.6807619 8.68068571,6.24 C8.68068571,2.7992381 11.4669714,0 14.8924952,0 Z M14.8924952,1.52380952 C12.3073524,1.52380952 10.2044952,3.63961905 10.2044952,6.24 C10.2044952,8.84114286 12.3073524,10.9561905 14.8924952,10.9561905 C17.4776381,10.9561905 19.5804952,8.84114286 19.5804952,6.24 C19.5804952,3.63961905 17.4776381,1.52380952 14.8924952,1.52380952 Z" id="Fill-1"></path>
                    </g>
                </g>
                <g id="3.-icons/decorative/33" transform="translate(0.000000, 0.000000)">
                    <g id="Group-7" transform="translate(0.000000, 0.761905)">
                        <path d="M17.7188571,15.3950476 L17.7188571,62.4761905 L16.1950476,62.4761905 L16.1950476,48.5097143 L6.63695238,48.5097143 L6.63695238,62.4761905 L5.11314286,62.4761905 L5.11314286,15.3950476 L17.7188571,15.3950476 Z M16.1950476,16.9188571 L6.63771429,16.9188571 L6.63771429,46.9859048 L16.1950476,46.9859048 L16.1950476,16.9188571 Z M1.52380952,15.4194286 L1.52380952,36.3367619 L0,36.3367619 L0,15.4194286 L1.52380952,15.4194286 Z M22.832,15.4194286 L22.832,36.3367619 L21.3081905,36.3367619 L21.3081905,15.4194286 L22.832,15.4194286 Z M11.4163048,1.8621295e-12 C14.8395429,1.8621295e-12 17.6250667,2.7992381 17.6250667,6.24 C17.6250667,9.68152381 14.8395429,12.4807619 11.4163048,12.4807619 C7.99230476,12.4807619 5.20754286,9.68152381 5.20754286,6.24 C5.20754286,2.7992381 7.99230476,1.8621295e-12 11.4163048,1.8621295e-12 Z M11.4163048,1.52380952 C8.83268571,1.52380952 6.73135238,3.63961905 6.73135238,6.24 C6.73135238,8.84114286 8.83268571,10.9569524 11.4163048,10.9569524 C13.9999238,10.9569524 16.1012571,8.84114286 16.1012571,6.24 C16.1012571,3.63961905 13.9999238,1.52380952 11.4163048,1.52380952 Z" id="Fill-1"></path>
                    </g>
                </g>
            </g>
        </g>
    </g>
</svg>