<?xml version="1.0" encoding="UTF-8"?>
<svg width="60px" height="60px" viewBox="0 0 60 60" version="1.1" xmlns="http://www.w3.org/2000/svg" xmlns:xlink="http://www.w3.org/1999/xlink">
    <title>icon</title>
    <defs>
        <path d="M44.8034508,31.7185743 C44.2092324,35.0986472 41.4913935,41.2596207 29.9998765,44.6878745 C18.507124,41.2596207 15.7905205,35.0986472 15.1963021,31.7185743 C14.4340718,27.3872382 16.2105502,22.9237136 19.7227393,20.3454197 C21.4868638,19.0507134 23.4968292,18.3959479 25.4326717,18.3959479 C27.1387333,18.3959479 28.786732,18.9049354 30.1542991,19.9303231 C32.4829929,21.6784236 33.4330012,23.7304342 33.4330012,27.0166162 L34.9154587,27.0166162 C34.9154587,23.428995 33.8616785,21.011304 31.4094465,19.0297115 C34.1618761,17.8523689 37.5258195,18.3267651 40.2782491,20.3466551 C43.7892028,22.9237136 45.5656811,27.3884737 44.8034508,31.7185743 M30,0 C46.5417559,0 60,13.4572858 60,30.0006177 C60,46.5427142 46.5417559,60 30,60 C13.4582441,60 0,46.5427142 0,30.0006177 C0,13.4572858 13.4582441,0 30,0 Z M30,1.48248811 C14.2748312,1.48248811 1.48245759,14.2751251 1.48245759,30.0006177 C1.48245759,45.7248749 14.2748312,58.5175119 30,58.5175119 C45.7251688,58.5175119 58.516307,45.7248749 58.516307,30.0006177 C58.516307,14.2751251 45.7251688,1.48248811 30,1.48248811 Z M30.0801762,11.7086911 L31.4131527,12.3560442 C30.4841459,14.2672185 30.1938313,16.0313793 30.5137951,17.837544 C33.8011448,16.2784607 37.8667847,16.738032 41.1553698,19.1507814 C45.1172377,22.0601643 47.1222616,27.0944468 46.2636716,31.9755389 C45.6052133,35.7151152 42.6440043,42.5308543 30.2074205,46.171598 L30.2074205,46.171598 L29.9998765,46.2321329 L29.791097,46.171598 C17.3545133,42.5308543 14.3933042,35.7138798 13.7360814,31.9755389 C12.876256,27.0932114 14.8825152,22.0601643 18.8456185,19.1507814 C21.9810163,16.8479832 25.8069923,16.3315832 28.9831576,17.6077584 C28.734846,15.6582865 29.0869297,13.7495831 30.0801762,11.7086911 L30.0801762,11.7086911 Z" id="path-1"></path>
    </defs>
    <g id="views" stroke="none" stroke-width="1" fill="none" fill-rule="evenodd">
        <g id="3.-icons/seal/bloque2/fruity" transform="translate(-2.000000, -2.000000)">
            <g id="elements" transform="translate(2.000000, 2.000000)">
                <mask id="mask-2" fill="white">
                    <use xlink:href="#path-1"></use>
                </mask>
                <use id="icon" fill="#FFFFFF" xlink:href="#path-1"></use>
            </g>
        </g>
    </g>
</svg>