<?xml version="1.0" encoding="UTF-8"?>
<svg width="49px" height="49px" viewBox="0 0 49 49" version="1.1" xmlns="http://www.w3.org/2000/svg" xmlns:xlink="http://www.w3.org/1999/xlink">
    <!-- Generator: Sketch 56 (81588) - https://sketch.com -->
    <title>Group</title>
    <desc>Created with Sketch.</desc>
    <g id="Page-1" stroke="none" stroke-width="1" fill="none" fill-rule="evenodd">
        <g id="Group" fill="#FFFFFF">
            <path d="M32.556,17.2047 L32.554,17.2067 C31.613,18.1537 30.668,19.0967 29.724,20.0397 L21.684,28.0837 C21.583,28.1867 21.483,28.2877 21.378,28.3877 L21.342,28.4227 L16.245,23.6537 C15.954,23.3797 15.553,23.2217 15.084,23.2217 L15.078,23.2217 C14.812,23.2317 14.428,23.3137 14.119,23.6497 C13.61,24.2007 13.487,25.1877 14.116,25.7817 L20.308,31.5857 C20.616,31.8767 21.004,32.0227 21.388,32.0227 C21.771,32.0227 22.149,31.8777 22.438,31.5877 L34.684,19.3357 C34.962,19.0567 35.124,18.6387 35.117,18.2167 C35.108,17.8147 34.954,17.4567 34.684,17.2077 C34.068,16.6367 33.133,16.6357 32.556,17.2047" id="check"></path>
            <path d="M46.138,24.4 C46.138,36.386 36.387,46.138 24.401,46.138 C12.415,46.138 2.664,36.386 2.664,24.4 C2.664,12.414 12.415,2.663 24.401,2.663 C36.387,2.663 46.138,12.414 46.138,24.4 M24.401,-3.69482223e-13 C10.947,-3.69482223e-13 1.91846539e-13,10.946 1.91846539e-13,24.4 C1.91846539e-13,37.854 10.947,48.8 24.401,48.8 C37.855,48.8 48.801,37.854 48.801,24.4 C48.801,10.946 37.855,-3.69482223e-13 24.401,-3.69482223e-13" id="circle"></path>
        </g>
    </g>
</svg>