<?xml version="1.0" encoding="UTF-8"?>
<svg width="60px" height="60px" viewBox="0 0 60 60" version="1.1" xmlns="http://www.w3.org/2000/svg" xmlns:xlink="http://www.w3.org/1999/xlink">
    <title>icon</title>
    <defs>
        <path d="M43.6965492,33.2355872 C41.5753994,37.3345824 37.4776396,40.5725169 32.2593889,42.3551721 C36.1248971,37.589071 38.0533273,32.071858 37.5974716,26.9005518 C37.5011118,25.8195931 37.281214,24.7917559 36.9946055,23.807157 C39.1762889,22.3580547 41.5865179,21.756424 43.7249629,22.1591583 C45.7509883,24.9585324 45.7485175,29.2712486 43.6965492,33.2355872 L43.6965492,33.2355872 Z M16.3032038,33.2355872 C14.2512354,29.2712486 14.25,24.9585324 16.27479,22.1591583 C18.4132351,21.7576594 20.8271702,22.3592901 23.0076182,23.8096277 C22.7210097,24.7942267 22.5011118,25.8195931 22.4059875,26.9005518 C21.9501318,32.0693873 23.8797974,37.589071 27.7453056,42.3576429 C22.5245841,40.5749876 18.4243535,37.3358178 16.3032038,33.2355872 L16.3032038,33.2355872 Z M30.0011118,17.3485834 C33.3242876,18.6667353 35.7147505,22.4321776 36.1199555,27.0302668 C36.5832235,32.2831082 34.3595371,37.95845 30.0011118,42.7060204 C25.6439219,37.9559792 23.4202355,32.2806375 23.8822682,27.0302668 C24.2887086,22.4321776 26.6779361,18.6679707 30.0011118,17.3485834 L30.0011118,17.3485834 Z M30,0 C46.5417559,0 60,13.4582441 60,30 C60,46.5417559 46.5417559,60 30,60 C13.4582441,60 0,46.5417559 0,30 C0,13.4582441 13.4582441,0 30,0 Z M30,1.48369297 C14.2748312,1.48369297 1.48245759,14.2748312 1.48245759,30 C1.48245759,45.7251688 14.2748312,58.5175424 30,58.5175424 C45.7251688,58.5175424 58.516307,45.7251688 58.516307,30 C58.516307,14.2748312 45.7251688,1.48369297 30,1.48369297 Z M30.0011118,15.7710015 L30.2494235,15.8587136 C33.0154423,16.8408417 35.2267748,19.2387169 36.4942761,22.3667024 C39.0206309,20.787885 41.8249465,20.1998435 44.3142398,20.7681189 L44.3142398,20.7681189 L44.5711991,20.8261818 L44.7330341,21.0337259 C47.2729781,24.2790726 47.382927,29.3367238 45.0122303,33.9175177 C42.448814,38.8713968 37.2602125,42.6368391 30.7398699,44.3441361 L30.7398699,44.3441361 L30.7398699,48.3850684 L29.2574123,48.3850684 L29.2574123,44.3429007 C22.7383051,42.6356037 17.5497035,38.8701614 14.9862873,33.9175177 C12.6168259,29.3367238 12.7267748,24.2790726 15.2667188,21.0337259 L15.2667188,21.0337259 L15.4285538,20.8261818 L15.6855131,20.7681189 C18.1711003,20.1986081 20.9791221,20.787885 23.5079476,22.3679377 C24.7754489,19.2399522 26.985546,16.8420771 29.7528002,15.8587136 L29.7528002,15.8587136 L30.0011118,15.7710015 Z" id="path-1"></path>
    </defs>
    <g id="views" stroke="none" stroke-width="1" fill="none" fill-rule="evenodd">
        <g id="3.-icons/seal/bloque2/floral" transform="translate(-2.000000, -2.000000)">
            <g id="elements" transform="translate(2.000000, 2.000000)">
                <mask id="mask-2" fill="white">
                    <use xlink:href="#path-1"></use>
                </mask>
                <use id="icon" fill="#FFFFFF" xlink:href="#path-1"></use>
            </g>
        </g>
    </g>
</svg>