<?xml version="1.0" encoding="UTF-8"?>
<svg width="64px" height="64px" viewBox="0 0 64 64" version="1.1" xmlns="http://www.w3.org/2000/svg" xmlns:xlink="http://www.w3.org/1999/xlink">
    <title>C5C447B6-5C6D-40EB-92D5-2058F79DE041</title>
    <g id="test-fragancias-2021" stroke="none" stroke-width="1" fill="none" fill-rule="evenodd">
        <g id="paso-2" transform="translate(-767.000000, -358.000000)" fill="#FFFFFF" fill-rule="nonzero">
            <g id="3.-icons/decorative/33-copy" transform="translate(767.000000, 358.000000)">
                <g id="Group-7" transform="translate(22.000000, 4.666667)">
                    <path d="M15.504,13.4706667 L15.504,54.6666667 L14.1706667,54.6666667 L14.1706667,42.446 L5.80733333,42.446 L5.80733333,54.6666667 L4.474,54.6666667 L4.474,13.4706667 L15.504,13.4706667 Z M14.1706667,14.804 L5.808,14.804 L5.808,41.1126667 L14.1706667,41.1126667 L14.1706667,14.804 Z M1.33333333,13.492 L1.33333333,31.7946667 L0,31.7946667 L0,13.492 L1.33333333,13.492 Z M19.978,13.492 L19.978,31.7946667 L18.6446667,31.7946667 L18.6446667,13.492 L19.978,13.492 Z M9.98926667,1.62891922e-12 C12.9846,1.62891922e-12 15.4219333,2.44933333 15.4219333,5.46 C15.4219333,8.47133333 12.9846,10.9206667 9.98926667,10.9206667 C6.99326667,10.9206667 4.5566,8.47133333 4.5566,5.46 C4.5566,2.44933333 6.99326667,1.62891922e-12 9.98926667,1.62891922e-12 Z M9.98926667,1.33333333 C7.7286,1.33333333 5.88993333,3.18466667 5.88993333,5.46 C5.88993333,7.736 7.7286,9.58733333 9.98926667,9.58733333 C12.2499333,9.58733333 14.0886,7.736 14.0886,5.46 C14.0886,3.18466667 12.2499333,1.33333333 9.98926667,1.33333333 Z" id="Fill-1"></path>
                </g>
            </g>
        </g>
    </g>
</svg>