<?xml version="1.0" encoding="UTF-8"?>
<svg width="187px" height="37px" viewBox="0 0 187 37" version="1.1" xmlns="http://www.w3.org/2000/svg" xmlns:xlink="http://www.w3.org/1999/xlink">
    <title>CBC0F2F9-0EDF-437B-8CCB-928B0D91270A</title>
    <g id="Page-1" stroke="none" stroke-width="1" fill="none" fill-rule="evenodd">
        <g id="emprendimiento-home" transform="translate(-607.000000, -63.000000)" fill="#000000" fill-rule="nonzero">
            <g id="yanbal-logo" transform="translate(607.000000, 63.000000)">
                <g id="Group-18">
                    <polygon id="Fill-4" points="178.60457 33.2135372 178.60457 14 176 14 176 36 187 36 187 33.2135372"></polygon>
                    <polygon id="Fill-13" points="158.6933 14.4657471 158.513001 14 155.480526 14 147 36 149.951916 36 156.997722 17.7390758 163.87258 35.5480798 164.059352 36 167 36"></polygon>
                    <path d="M132.914738,23.012578 L128.805164,23.012578 L128.805164,16.858622 L132.914738,16.8562044 C134.523131,16.8562044 135.832934,18.2339846 135.832934,19.9277429 C135.832934,21.6285121 134.523131,23.012578 132.914738,23.012578 L132.914738,23.012578 Z M128.805164,25.7797429 L133.715262,25.7797429 C135.674115,25.7797429 137.26782,27.4408637 137.26782,29.4837209 C137.26782,31.5439846 135.675492,33.2208198 133.718475,33.2208198 L128.805164,33.2208198 L128.805164,25.7797429 Z M136.937328,23.9537429 C137.919164,22.8680066 138.469066,21.4384901 138.469066,19.9277429 C138.469066,16.7022044 135.975918,14.0781604 132.911066,14.0781604 L126.172016,14.0781604 L126.172016,36.0000725 L133.715262,35.9964462 C137.123918,35.9964462 139.896836,33.074556 139.896836,29.4837209 C139.896836,27.1737209 138.77982,25.1185341 136.937328,23.9537429 L136.937328,23.9537429 Z" id="Fill-1"></path>
                    <polygon id="Fill-6" points="112.249627 14.0089792 112.249627 32.0341077 101.585402 14 98 14 98 35.993933 100.747978 35.993933 100.747978 17.9637082 111.415077 36 115 36 115 14.0089792"></polygon>
                    <polygon id="Fill-8" points="80.7070238 14.5412077 80.529881 14.074215 77.5160714 14.074215 69.0896429 36.0417636 72.0244048 36.0417636 79.0213095 17.8082187 86.0186905 36.0417636 88.9544048 36.0417636"></polygon>
                    <polygon id="Fill-11" points="63.6503468 14 56.9964 23.6759327 50.3566131 14 47 14 55.6137711 26.5483045 55.622651 36 58.369429 36 58.377829 26.5487899 67 14"></polygon>
                    <path d="M24.990144,10.8784072 L24.992064,10.8784072 L28.312224,7.59707068 L28.309344,7.59707068 L35.821104,0.174395859 C30.805104,1.3140288 26.036304,3.78374739 22.098384,7.59707068 L1.944624,7.59707068 C0.870624,7.59707068 -9.59999998e-05,8.45778409 -9.59999998e-05,9.51843727 L-9.59999998e-05,33.6551752 C-9.59999998e-05,34.7160655 0.870624,35.5765417 1.944624,35.5765417 L26.367264,35.5765417 C27.441744,35.5765417 28.312224,34.7160655 28.312224,33.6551752 L28.312224,13.7458707 L24.992064,17.0274443 L24.992064,32.2952053 L3.320304,32.2952053 L3.320304,10.8784072 L19.185024,10.8784072 C16.714224,14.1312824 15.037824,17.7875949 14.154384,21.5869248 L24.990144,10.8784072 Z" id="Fill-15"></path>
                </g>
            </g>
        </g>
    </g>
</svg>